<?xml version="1.0" encoding="us-ascii" standalone="no"?><svg xmlns="http://www.w3.org/2000/svg" xmlns:xlink="http://www.w3.org/1999/xlink" contentStyleType="text/css" height="230px" preserveAspectRatio="none" style="width:199px;height:230px;" version="1.1" viewBox="0 0 199 230" width="199px" zoomAndPan="magnify"><defs/><g><!--class AbsolutePosition--><g id="elem_AbsolutePosition"><rect codeLine="4" fill="#F1F1F1" height="32" id="AbsolutePosition" rx="2.5" ry="2.5" style="stroke:#181818;stroke-width:0.5;" width="146" x="26.5" y="99"/><ellipse cx="41.5" cy="115" fill="#A9DCDF" rx="11" ry="11" style="stroke:#181818;stroke-width:1.0;"/><path d="M41.6094,110.3438 L40.4531,115.4219 L42.7813,115.4219 L41.6094,110.3438 Z M40.125,108.1094 L43.1094,108.1094 L46.4688,120.5 L44.0156,120.5 L43.25,117.4375 L39.9688,117.4375 L39.2188,120.5 L36.7813,120.5 L40.125,108.1094 Z " fill="#000000"/><text fill="#000000" font-family="sans-serif" font-size="14" font-style="italic" lengthAdjust="spacing" textLength="114" x="55.5" y="119.8467">AbsolutePosition</text></g><!--class Position<LengthUnit>--><g id="elem_Position&lt;LengthUnit&gt;"><rect codeLine="6" fill="#F1F1F1" height="32" id="Position&lt;LengthUnit&gt;" rx="2.5" ry="2.5" style="stroke:#181818;stroke-width:0.5;" width="185" x="7" y="7"/><ellipse cx="22" cy="23" fill="#B4A7E5" rx="11" ry="11" style="stroke:#181818;stroke-width:1.0;"/><path d="M17.9219,18.7656 L17.9219,16.6094 L25.3125,16.6094 L25.3125,18.7656 L22.8438,18.7656 L22.8438,26.8438 L25.3125,26.8438 L25.3125,29 L17.9219,29 L17.9219,26.8438 L20.3906,26.8438 L20.3906,18.7656 L17.9219,18.7656 Z " fill="#000000"/><text fill="#000000" font-family="sans-serif" font-size="14" font-style="italic" lengthAdjust="spacing" textLength="153" x="36" y="27.8467">Position&lt;LengthUnit&gt;</text></g><!--class Absolute2DPosition--><g id="elem_Absolute2DPosition"><rect codeLine="9" fill="#F1F1F1" height="32" id="Absolute2DPosition" rx="2.5" ry="2.5" style="stroke:#181818;stroke-width:0.5;" width="168" x="15.5" y="191"/><ellipse cx="30.5" cy="207" fill="#ADD1B2" rx="11" ry="11" style="stroke:#181818;stroke-width:1.0;"/><path d="M33.4688,212.6406 Q32.8906,212.9375 32.25,213.0781 Q31.6094,213.2344 30.9063,213.2344 Q28.4063,213.2344 27.0781,211.5938 Q25.7656,209.9375 25.7656,206.8125 Q25.7656,203.6875 27.0781,202.0313 Q28.4063,200.375 30.9063,200.375 Q31.6094,200.375 32.25,200.5313 Q32.9063,200.6875 33.4688,200.9844 L33.4688,203.7031 Q32.8438,203.125 32.25,202.8594 Q31.6563,202.5781 31.0313,202.5781 Q29.6875,202.5781 29,203.6563 Q28.3125,204.7188 28.3125,206.8125 Q28.3125,208.9063 29,209.9844 Q29.6875,211.0469 31.0313,211.0469 Q31.6563,211.0469 32.25,210.7813 Q32.8438,210.5 33.4688,209.9219 L33.4688,212.6406 Z " fill="#000000"/><text fill="#000000" font-family="sans-serif" font-size="14" lengthAdjust="spacing" textLength="136" x="44.5" y="211.8467">Absolute2DPosition</text></g><!--reverse link Position<LengthUnit> to AbsolutePosition--><g id="link_Position&lt;LengthUnit&gt;_AbsolutePosition"><path codeLine="8" d="M99.5,59.61 C99.5,73.31 99.5,88.22 99.5,98.96 " fill="none" id="Position&lt;LengthUnit&gt;-backto-AbsolutePosition" style="stroke:#181818;stroke-width:1.0;stroke-dasharray:7.0,7.0;"/><polygon fill="none" points="92.5,59.27,99.5,39.27,106.5,59.27,92.5,59.27" style="stroke:#181818;stroke-width:1.0;"/></g><!--reverse link AbsolutePosition to Absolute2DPosition--><g id="link_AbsolutePosition_Absolute2DPosition"><path codeLine="11" d="M99.5,151.61 C99.5,165.31 99.5,180.22 99.5,190.96 " fill="none" id="AbsolutePosition-backto-Absolute2DPosition" style="stroke:#181818;stroke-width:1.0;"/><polygon fill="none" points="92.5,151.27,99.5,131.27,106.5,151.27,92.5,151.27" style="stroke:#181818;stroke-width:1.0;"/></g><!--SRC=[TOwx3e9044Nx_Oe9FHJMnCH7QM7Z1mpB01EMMR8p54JyTqcCYHfixxalxLb6J3Z04NtVfZX9VOeX9h24eYiYCTTnJK33Q3CCP5sizLDgcCAgOALhnXluWAgG7IgDOJAwHcNZA1dStSEn6AK6FK7s1kM5fBNk9cpxb-aFAfUYsEXrFuExy_VanfDooVFDm1C0]--></g></svg>