<?xml version="1.0" encoding="UTF-8" standalone="no"?><svg xmlns="http://www.w3.org/2000/svg" xmlns:xlink="http://www.w3.org/1999/xlink" contentScriptType="application/ecmascript" contentStyleType="text/css" height="237px" preserveAspectRatio="none" style="width:175px;height:237px;background:#00000000;" version="1.1" viewBox="0 0 175 237" width="175px" zoomAndPan="magnify"><defs><filter height="300%" id="fll8rx5kvhgg5" width="300%" x="-1" y="-1"><feGaussianBlur result="blurOut" stdDeviation="2.0"/><feColorMatrix in="blurOut" result="blurOut2" type="matrix" values="0 0 0 0 0 0 0 0 0 0 0 0 0 0 0 0 0 0 .4 0"/><feOffset dx="4.0" dy="4.0" in="blurOut2" result="blurOut3"/><feBlend in="SourceGraphic" in2="blurOut3" mode="normal"/></filter></defs><g><!--MD5=[c0808e2fc51253fd4a7c9832dd59f6b0]
class Absolute2DPosition--><rect codeLine="4" fill="#FEFECE" filter="url(#fll8rx5kvhgg5)" height="32" id="Absolute2DPosition" style="stroke:#A80036;stroke-width:1.5;" width="154" x="7" y="99"/><ellipse cx="22" cy="115" fill="#ADD1B2" rx="11" ry="11" style="stroke:#A80036;stroke-width:1.0;"/><path d="M24.9688,120.6406 Q24.3906,120.9375 23.75,121.0781 Q23.1094,121.2344 22.4063,121.2344 Q19.9063,121.2344 18.5781,119.5938 Q17.2656,117.9375 17.2656,114.8125 Q17.2656,111.6875 18.5781,110.0313 Q19.9063,108.375 22.4063,108.375 Q23.1094,108.375 23.75,108.5313 Q24.4063,108.6875 24.9688,108.9844 L24.9688,111.7031 Q24.3438,111.125 23.75,110.8594 Q23.1563,110.5781 22.5313,110.5781 Q21.1875,110.5781 20.5,111.6563 Q19.8125,112.7188 19.8125,114.8125 Q19.8125,116.9063 20.5,117.9844 Q21.1875,119.0469 22.5313,119.0469 Q23.1563,119.0469 23.75,118.7813 Q24.3438,118.5 24.9688,117.9219 L24.9688,120.6406 Z " fill="#000000"/><text fill="#000000" font-family="sans-serif" font-size="12" lengthAdjust="spacing" textLength="122" x="36" y="119.1543">Absolute2DPosition</text><!--MD5=[c4d8c5124f272f75c6ae8cb327446c28]
class AbsolutePosition--><rect codeLine="6" fill="#FEFECE" filter="url(#fll8rx5kvhgg5)" height="32" id="AbsolutePosition" style="stroke:#A80036;stroke-width:1.5;" width="134" x="17" y="7"/><ellipse cx="32" cy="23" fill="#A9DCDF" rx="11" ry="11" style="stroke:#A80036;stroke-width:1.0;"/><path d="M32.1094,18.3438 L30.9531,23.4219 L33.2813,23.4219 L32.1094,18.3438 Z M30.625,16.1094 L33.6094,16.1094 L36.9688,28.5 L34.5156,28.5 L33.75,25.4375 L30.4688,25.4375 L29.7188,28.5 L27.2813,28.5 L30.625,16.1094 Z " fill="#000000"/><text fill="#000000" font-family="sans-serif" font-size="12" font-style="italic" lengthAdjust="spacing" textLength="102" x="46" y="27.1543">AbsolutePosition</text><!--MD5=[6826b595e4f3c3e38e38238a73cd1685]
class Absolute3DPosition--><rect codeLine="9" fill="#FEFECE" filter="url(#fll8rx5kvhgg5)" height="32" id="Absolute3DPosition" style="stroke:#A80036;stroke-width:1.5;" width="154" x="7" y="191"/><ellipse cx="22" cy="207" fill="#ADD1B2" rx="11" ry="11" style="stroke:#A80036;stroke-width:1.0;"/><path d="M24.9688,212.6406 Q24.3906,212.9375 23.75,213.0781 Q23.1094,213.2344 22.4063,213.2344 Q19.9063,213.2344 18.5781,211.5938 Q17.2656,209.9375 17.2656,206.8125 Q17.2656,203.6875 18.5781,202.0313 Q19.9063,200.375 22.4063,200.375 Q23.1094,200.375 23.75,200.5313 Q24.4063,200.6875 24.9688,200.9844 L24.9688,203.7031 Q24.3438,203.125 23.75,202.8594 Q23.1563,202.5781 22.5313,202.5781 Q21.1875,202.5781 20.5,203.6563 Q19.8125,204.7188 19.8125,206.8125 Q19.8125,208.9063 20.5,209.9844 Q21.1875,211.0469 22.5313,211.0469 Q23.1563,211.0469 23.75,210.7813 Q24.3438,210.5 24.9688,209.9219 L24.9688,212.6406 Z " fill="#000000"/><text fill="#000000" font-family="sans-serif" font-size="12" lengthAdjust="spacing" textLength="122" x="36" y="211.1543">Absolute3DPosition</text><!--MD5=[90be864c95824d171e5554647fdeffe6]
reverse link AbsolutePosition to Absolute2DPosition--><path codeLine="8" d="M84,59.61 C84,73.31 84,88.22 84,98.96 " fill="none" id="AbsolutePosition-backto-Absolute2DPosition" style="stroke:#A80036;stroke-width:1.0;"/><polygon fill="none" points="77,59.27,84,39.27,91,59.27,77,59.27" style="stroke:#A80036;stroke-width:1.0;"/><!--MD5=[ef826cf651c464f5845a3f0cdcd97700]
reverse link Absolute2DPosition to Absolute3DPosition--><path codeLine="11" d="M84,151.61 C84,165.31 84,180.22 84,190.96 " fill="none" id="Absolute2DPosition-backto-Absolute3DPosition" style="stroke:#A80036;stroke-width:1.0;"/><polygon fill="none" points="77,151.27,84,131.27,91,151.27,77,151.27" style="stroke:#A80036;stroke-width:1.0;"/><!--MD5=[d8d20367e33c1efeb59a315dabeaacfa]
@startuml
skinparam BackgroundColor transparent
hide empty methods
hide empty fields
class "Absolute2DPosition" {
}
abstract class "AbsolutePosition" {
}
"AbsolutePosition" <|- - "Absolute2DPosition"
class "Absolute3DPosition" {
}
"Absolute2DPosition" <|- - "Absolute3DPosition"
@enduml

PlantUML version 1.2021.14(Fri Nov 12 16:46:50 UTC 2021)
(GPL source distribution)
Java Runtime: OpenJDK Runtime Environment
JVM: OpenJDK 64-Bit Server VM
Default Encoding: UTF-8
Language: en
Country: null
--></g></svg>