<?xml version="1.0" encoding="UTF-8" standalone="no"?><svg xmlns="http://www.w3.org/2000/svg" xmlns:xlink="http://www.w3.org/1999/xlink" contentScriptType="application/ecmascript" contentStyleType="text/css" height="237px" preserveAspectRatio="none" style="width:190px;height:237px;background:#00000000;" version="1.1" viewBox="0 0 190 237" width="190px" zoomAndPan="magnify"><defs><filter height="300%" id="fau2ourmfabok" width="300%" x="-1" y="-1"><feGaussianBlur result="blurOut" stdDeviation="2.0"/><feColorMatrix in="blurOut" result="blurOut2" type="matrix" values="0 0 0 0 0 0 0 0 0 0 0 0 0 0 0 0 0 0 .4 0"/><feOffset dx="4.0" dy="4.0" in="blurOut2" result="blurOut3"/><feBlend in="SourceGraphic" in2="blurOut3" mode="normal"/></filter></defs><g><!--MD5=[c4d8c5124f272f75c6ae8cb327446c28]
class AbsolutePosition--><rect codeLine="4" fill="#FEFECE" filter="url(#fau2ourmfabok)" height="32" id="AbsolutePosition" style="stroke:#A80036;stroke-width:1.5;" width="134" x="24.5" y="99"/><ellipse cx="39.5" cy="115" fill="#A9DCDF" rx="11" ry="11" style="stroke:#A80036;stroke-width:1.0;"/><path d="M39.6094,110.3438 L38.4531,115.4219 L40.7813,115.4219 L39.6094,110.3438 Z M38.125,108.1094 L41.1094,108.1094 L44.4688,120.5 L42.0156,120.5 L41.25,117.4375 L37.9688,117.4375 L37.2188,120.5 L34.7813,120.5 L38.125,108.1094 Z " fill="#000000"/><text fill="#000000" font-family="sans-serif" font-size="12" font-style="italic" lengthAdjust="spacing" textLength="102" x="53.5" y="119.1543">AbsolutePosition</text><!--MD5=[170fb7b388d5c0756e44277b48d2435e]
class Position<LengthUnit>--><rect codeLine="6" fill="#FEFECE" filter="url(#fau2ourmfabok)" height="32" id="Position&lt;LengthUnit&gt;" style="stroke:#A80036;stroke-width:1.5;" width="169" x="7" y="7"/><ellipse cx="22" cy="23" fill="#B4A7E5" rx="11" ry="11" style="stroke:#A80036;stroke-width:1.0;"/><path d="M17.9219,18.7656 L17.9219,16.6094 L25.3125,16.6094 L25.3125,18.7656 L22.8438,18.7656 L22.8438,26.8438 L25.3125,26.8438 L25.3125,29 L17.9219,29 L17.9219,26.8438 L20.3906,26.8438 L20.3906,18.7656 L17.9219,18.7656 Z " fill="#000000"/><text fill="#000000" font-family="sans-serif" font-size="12" font-style="italic" lengthAdjust="spacing" textLength="137" x="36" y="27.1543">Position&lt;LengthUnit&gt;</text><!--MD5=[c0808e2fc51253fd4a7c9832dd59f6b0]
class Absolute2DPosition--><rect codeLine="9" fill="#FEFECE" filter="url(#fau2ourmfabok)" height="32" id="Absolute2DPosition" style="stroke:#A80036;stroke-width:1.5;" width="154" x="14.5" y="191"/><ellipse cx="29.5" cy="207" fill="#ADD1B2" rx="11" ry="11" style="stroke:#A80036;stroke-width:1.0;"/><path d="M32.4688,212.6406 Q31.8906,212.9375 31.25,213.0781 Q30.6094,213.2344 29.9063,213.2344 Q27.4063,213.2344 26.0781,211.5938 Q24.7656,209.9375 24.7656,206.8125 Q24.7656,203.6875 26.0781,202.0313 Q27.4063,200.375 29.9063,200.375 Q30.6094,200.375 31.25,200.5313 Q31.9063,200.6875 32.4688,200.9844 L32.4688,203.7031 Q31.8438,203.125 31.25,202.8594 Q30.6563,202.5781 30.0313,202.5781 Q28.6875,202.5781 28,203.6563 Q27.3125,204.7188 27.3125,206.8125 Q27.3125,208.9063 28,209.9844 Q28.6875,211.0469 30.0313,211.0469 Q30.6563,211.0469 31.25,210.7813 Q31.8438,210.5 32.4688,209.9219 L32.4688,212.6406 Z " fill="#000000"/><text fill="#000000" font-family="sans-serif" font-size="12" lengthAdjust="spacing" textLength="122" x="43.5" y="211.1543">Absolute2DPosition</text><!--MD5=[d85c045fc642e3ba4dcc2907cc42e7b3]
reverse link Position<LengthUnit> to AbsolutePosition--><path codeLine="8" d="M91.5,59.61 C91.5,73.31 91.5,88.22 91.5,98.96 " fill="none" id="Position&lt;LengthUnit&gt;-backto-AbsolutePosition" style="stroke:#A80036;stroke-width:1.0;stroke-dasharray:7.0,7.0;"/><polygon fill="none" points="84.5,59.27,91.5,39.27,98.5,59.27,84.5,59.27" style="stroke:#A80036;stroke-width:1.0;"/><!--MD5=[90be864c95824d171e5554647fdeffe6]
reverse link AbsolutePosition to Absolute2DPosition--><path codeLine="11" d="M91.5,151.61 C91.5,165.31 91.5,180.22 91.5,190.96 " fill="none" id="AbsolutePosition-backto-Absolute2DPosition" style="stroke:#A80036;stroke-width:1.0;"/><polygon fill="none" points="84.5,151.27,91.5,131.27,98.5,151.27,84.5,151.27" style="stroke:#A80036;stroke-width:1.0;"/><!--MD5=[0a13ed32144ec79b68e1a6656b2e9e0b]
@startuml
skinparam BackgroundColor transparent
hide empty methods
hide empty fields
abstract class "AbsolutePosition" {
}
interface "Position<LengthUnit>" {
}
"Position<LengthUnit>" <|.. "AbsolutePosition"
class "Absolute2DPosition" {
}
"AbsolutePosition" <|- - "Absolute2DPosition"
@enduml

PlantUML version 1.2021.14(Fri Nov 12 16:46:50 UTC 2021)
(GPL source distribution)
Java Runtime: OpenJDK Runtime Environment
JVM: OpenJDK 64-Bit Server VM
Default Encoding: UTF-8
Language: en
Country: null
--></g></svg>