<?xml version="1.0" encoding="us-ascii" standalone="no"?><svg xmlns="http://www.w3.org/2000/svg" xmlns:xlink="http://www.w3.org/1999/xlink" contentStyleType="text/css" height="230px" preserveAspectRatio="none" style="width:182px;height:230px;" version="1.1" viewBox="0 0 182 230" width="182px" zoomAndPan="magnify"><defs/><g><!--class Absolute2DPosition--><g id="elem_Absolute2DPosition"><rect codeLine="4" fill="#F1F1F1" height="32" id="Absolute2DPosition" rx="2.5" ry="2.5" style="stroke:#181818;stroke-width:0.5;" width="168" x="7" y="99"/><ellipse cx="22" cy="115" fill="#ADD1B2" rx="11" ry="11" style="stroke:#181818;stroke-width:1.0;"/><path d="M24.9688,120.6406 Q24.3906,120.9375 23.75,121.0781 Q23.1094,121.2344 22.4063,121.2344 Q19.9063,121.2344 18.5781,119.5938 Q17.2656,117.9375 17.2656,114.8125 Q17.2656,111.6875 18.5781,110.0313 Q19.9063,108.375 22.4063,108.375 Q23.1094,108.375 23.75,108.5313 Q24.4063,108.6875 24.9688,108.9844 L24.9688,111.7031 Q24.3438,111.125 23.75,110.8594 Q23.1563,110.5781 22.5313,110.5781 Q21.1875,110.5781 20.5,111.6563 Q19.8125,112.7188 19.8125,114.8125 Q19.8125,116.9063 20.5,117.9844 Q21.1875,119.0469 22.5313,119.0469 Q23.1563,119.0469 23.75,118.7813 Q24.3438,118.5 24.9688,117.9219 L24.9688,120.6406 Z " fill="#000000"/><text fill="#000000" font-family="sans-serif" font-size="14" lengthAdjust="spacing" textLength="136" x="36" y="119.8467">Absolute2DPosition</text></g><!--class AbsolutePosition--><g id="elem_AbsolutePosition"><rect codeLine="6" fill="#F1F1F1" height="32" id="AbsolutePosition" rx="2.5" ry="2.5" style="stroke:#181818;stroke-width:0.5;" width="146" x="18" y="7"/><ellipse cx="33" cy="23" fill="#A9DCDF" rx="11" ry="11" style="stroke:#181818;stroke-width:1.0;"/><path d="M33.1094,18.3438 L31.9531,23.4219 L34.2813,23.4219 L33.1094,18.3438 Z M31.625,16.1094 L34.6094,16.1094 L37.9688,28.5 L35.5156,28.5 L34.75,25.4375 L31.4688,25.4375 L30.7188,28.5 L28.2813,28.5 L31.625,16.1094 Z " fill="#000000"/><text fill="#000000" font-family="sans-serif" font-size="14" font-style="italic" lengthAdjust="spacing" textLength="114" x="47" y="27.8467">AbsolutePosition</text></g><!--class Absolute3DPosition--><g id="elem_Absolute3DPosition"><rect codeLine="9" fill="#F1F1F1" height="32" id="Absolute3DPosition" rx="2.5" ry="2.5" style="stroke:#181818;stroke-width:0.5;" width="168" x="7" y="191"/><ellipse cx="22" cy="207" fill="#ADD1B2" rx="11" ry="11" style="stroke:#181818;stroke-width:1.0;"/><path d="M24.9688,212.6406 Q24.3906,212.9375 23.75,213.0781 Q23.1094,213.2344 22.4063,213.2344 Q19.9063,213.2344 18.5781,211.5938 Q17.2656,209.9375 17.2656,206.8125 Q17.2656,203.6875 18.5781,202.0313 Q19.9063,200.375 22.4063,200.375 Q23.1094,200.375 23.75,200.5313 Q24.4063,200.6875 24.9688,200.9844 L24.9688,203.7031 Q24.3438,203.125 23.75,202.8594 Q23.1563,202.5781 22.5313,202.5781 Q21.1875,202.5781 20.5,203.6563 Q19.8125,204.7188 19.8125,206.8125 Q19.8125,208.9063 20.5,209.9844 Q21.1875,211.0469 22.5313,211.0469 Q23.1563,211.0469 23.75,210.7813 Q24.3438,210.5 24.9688,209.9219 L24.9688,212.6406 Z " fill="#000000"/><text fill="#000000" font-family="sans-serif" font-size="14" lengthAdjust="spacing" textLength="136" x="36" y="211.8467">Absolute3DPosition</text></g><!--reverse link AbsolutePosition to Absolute2DPosition--><g id="link_AbsolutePosition_Absolute2DPosition"><path codeLine="8" d="M91,59.61 C91,73.31 91,88.22 91,98.96 " fill="none" id="AbsolutePosition-backto-Absolute2DPosition" style="stroke:#181818;stroke-width:1.0;"/><polygon fill="none" points="84,59.27,91,39.27,98,59.27,84,59.27" style="stroke:#181818;stroke-width:1.0;"/></g><!--reverse link Absolute2DPosition to Absolute3DPosition--><g id="link_Absolute2DPosition_Absolute3DPosition"><path codeLine="11" d="M91,151.61 C91,165.31 91,180.22 91,190.96 " fill="none" id="Absolute2DPosition-backto-Absolute3DPosition" style="stroke:#181818;stroke-width:1.0;"/><polygon fill="none" points="84,151.27,91,131.27,98,151.27,84,151.27" style="stroke:#181818;stroke-width:1.0;"/></g><!--SRC=[TOun4eCm30Hxlq93JvEqQPBmW7n1s29ui2t64WMJvE-uD0nfLwUzaycd6JD6UA2TtfcNv9uSE8DcJ59EbDICtX5Gd7M5I3goaneDda8XDg08DFTUE2nAb-x5ujLpQk1ZVWPxAKghSCZjKoVuzctRK-snyThzSTLJzhRgPGC0]--></g></svg>