<?xml version="1.0" encoding="UTF-8" standalone="no"?><svg xmlns="http://www.w3.org/2000/svg" xmlns:xlink="http://www.w3.org/1999/xlink" contentScriptType="application/ecmascript" contentStyleType="text/css" height="669px" preserveAspectRatio="none" style="width:575px;height:669px;background:#00000000;" version="1.1" viewBox="0 0 575 669" width="575px" zoomAndPan="magnify"><defs><filter height="300%" id="fikqqp3bgeow0" width="300%" x="-1" y="-1"><feGaussianBlur result="blurOut" stdDeviation="2.0"/><feColorMatrix in="blurOut" result="blurOut2" type="matrix" values="0 0 0 0 0 0 0 0 0 0 0 0 0 0 0 0 0 0 .4 0"/><feOffset dx="4.0" dy="4.0" in="blurOut2" result="blurOut3"/><feBlend in="SourceGraphic" in2="blurOut3" mode="normal"/></filter></defs><g><!--MD5=[c4d8c5124f272f75c6ae8cb327446c28]
class AbsolutePosition--><rect codeLine="4" fill="#FEFECE" filter="url(#fikqqp3bgeow0)" height="201.6563" id="AbsolutePosition" style="stroke:#A80036;stroke-width:1.5;" width="537" x="16.5" y="179"/><ellipse cx="229.75" cy="195" fill="#A9DCDF" rx="11" ry="11" style="stroke:#A80036;stroke-width:1.0;"/><path d="M229.8594,190.3438 L228.7031,195.4219 L231.0313,195.4219 L229.8594,190.3438 Z M228.375,188.1094 L231.3594,188.1094 L234.7188,200.5 L232.2656,200.5 L231.5,197.4375 L228.2188,197.4375 L227.4688,200.5 L225.0313,200.5 L228.375,188.1094 Z " fill="#000000"/><text fill="#000000" font-family="sans-serif" font-size="12" font-style="italic" lengthAdjust="spacing" textLength="102" x="250.25" y="199.1543">AbsolutePosition</text><line style="stroke:#A80036;stroke-width:1.5;" x1="17.5" x2="552.5" y1="211" y2="211"/><ellipse cx="27.5" cy="222" rx="3" ry="3" style="stroke:#038048;stroke-width:1.0;fill:none;"/><text fill="#000000" font-family="sans-serif" font-size="11" lengthAdjust="spacing" textLength="136" x="36.5" y="225.2104">orientation : Orientation</text><ellipse cx="27.5" cy="234.8047" rx="3" ry="3" style="stroke:#038048;stroke-width:1.0;fill:none;"/><text fill="#000000" font-family="sans-serif" font-size="11" lengthAdjust="spacing" textLength="154" x="36.5" y="238.0151">referenceSpaceUID : string</text><ellipse cx="27.5" cy="247.6094" rx="3" ry="3" style="stroke:#038048;stroke-width:1.0;fill:none;"/><text fill="#000000" font-family="sans-serif" font-size="11" lengthAdjust="spacing" textLength="117" x="36.5" y="250.8198">timestamp : number</text><ellipse cx="27.5" cy="260.4141" rx="3" ry="3" style="stroke:#038048;stroke-width:1.0;fill:none;"/><text fill="#000000" font-family="sans-serif" font-size="11" lengthAdjust="spacing" textLength="93" x="36.5" y="263.6245">unit : LengthUnit</text><ellipse cx="27.5" cy="273.2188" rx="3" ry="3" style="stroke:#038048;stroke-width:1.0;fill:none;"/><text fill="#000000" font-family="sans-serif" font-size="11" lengthAdjust="spacing" textLength="97" x="36.5" y="276.4292">velocity : Velocity</text><line style="stroke:#A80036;stroke-width:1.5;" x1="17.5" x2="552.5" y1="283.0234" y2="283.0234"/><ellipse cx="27.5" cy="294.0234" fill="#84BE84" rx="3" ry="3" style="stroke:#038048;stroke-width:1.0;"/><text fill="#000000" font-family="sans-serif" font-size="11" font-style="italic" lengthAdjust="spacing" textLength="272" x="36.5" y="297.2339">angleTo(destination: AbsolutePosition) : number</text><ellipse cx="27.5" cy="306.8281" fill="#84BE84" rx="3" ry="3" style="stroke:#038048;stroke-width:1.0;"/><text fill="#000000" font-family="sans-serif" font-size="11" lengthAdjust="spacing" textLength="144" x="36.5" y="310.0386">clone() : AbsolutePosition</text><ellipse cx="27.5" cy="319.6328" fill="#84BE84" rx="3" ry="3" style="stroke:#038048;stroke-width:1.0;"/><text fill="#000000" font-family="sans-serif" font-size="11" lengthAdjust="spacing" textLength="464" x="36.5" y="322.8433">distanceTo(destination: AbsolutePosition, distanceFunction: DistanceFn) : number</text><ellipse cx="27.5" cy="332.4375" fill="#84BE84" rx="3" ry="3" style="stroke:#038048;stroke-width:1.0;"/><text fill="#000000" font-family="sans-serif" font-size="11" lengthAdjust="spacing" textLength="250" x="36.5" y="335.6479">equals(position: AbsolutePosition) : boolean</text><ellipse cx="27.5" cy="345.2422" fill="#84BE84" rx="3" ry="3" style="stroke:#038048;stroke-width:1.0;"/><text fill="#000000" font-family="sans-serif" font-size="11" font-style="italic" lengthAdjust="spacing" textLength="362" x="36.5" y="348.4526">fromVector(vector: Vector3, unit: LengthUnit) : AbsolutePosition</text><ellipse cx="27.5" cy="358.0469" fill="#84BE84" rx="3" ry="3" style="stroke:#038048;stroke-width:1.0;"/><text fill="#000000" font-family="sans-serif" font-size="11" lengthAdjust="spacing" textLength="511" x="36.5" y="361.2573">setAccuracy(accuracy: number | Accuracy&lt;LengthUnit, any&gt;, unit: Unit) : AbsolutePosition</text><ellipse cx="27.5" cy="370.8516" fill="#84BE84" rx="3" ry="3" style="stroke:#038048;stroke-width:1.0;"/><text fill="#000000" font-family="sans-serif" font-size="11" font-style="italic" lengthAdjust="spacing" textLength="208" x="36.5" y="374.062">toVector3(unit: LengthUnit) : Vector3</text><!--MD5=[170fb7b388d5c0756e44277b48d2435e]
class Position<LengthUnit>--><rect codeLine="18" fill="#FEFECE" filter="url(#fikqqp3bgeow0)" height="112.0234" id="Position&lt;LengthUnit&gt;" style="stroke:#A80036;stroke-width:1.5;" width="305" x="132.5" y="7"/><ellipse cx="212.25" cy="23" fill="#B4A7E5" rx="11" ry="11" style="stroke:#A80036;stroke-width:1.0;"/><path d="M208.1719,18.7656 L208.1719,16.6094 L215.5625,16.6094 L215.5625,18.7656 L213.0938,18.7656 L213.0938,26.8438 L215.5625,26.8438 L215.5625,29 L208.1719,29 L208.1719,26.8438 L210.6406,26.8438 L210.6406,18.7656 L208.1719,18.7656 Z " fill="#000000"/><text fill="#000000" font-family="sans-serif" font-size="12" font-style="italic" lengthAdjust="spacing" textLength="137" x="232.75" y="27.1543">Position&lt;LengthUnit&gt;</text><line style="stroke:#A80036;stroke-width:1.5;" x1="133.5" x2="436.5" y1="39" y2="39"/><ellipse cx="143.5" cy="50" rx="3" ry="3" style="stroke:#038048;stroke-width:1.0;fill:none;"/><text fill="#000000" font-family="sans-serif" font-size="11" lengthAdjust="spacing" textLength="218" x="152.5" y="53.2104">accuracy : Accuracy&lt;LengthUnit, any&gt;</text><ellipse cx="143.5" cy="62.8047" rx="3" ry="3" style="stroke:#038048;stroke-width:1.0;fill:none;"/><text fill="#000000" font-family="sans-serif" font-size="11" lengthAdjust="spacing" textLength="115" x="152.5" y="66.0151">probability : number</text><ellipse cx="143.5" cy="75.6094" rx="3" ry="3" style="stroke:#038048;stroke-width:1.0;fill:none;"/><text fill="#000000" font-family="sans-serif" font-size="11" lengthAdjust="spacing" textLength="117" x="152.5" y="78.8198">timestamp : number</text><line style="stroke:#A80036;stroke-width:1.5;" x1="133.5" x2="436.5" y1="85.4141" y2="85.4141"/><ellipse cx="143.5" cy="96.4141" fill="#84BE84" rx="3" ry="3" style="stroke:#038048;stroke-width:1.0;"/><text fill="#000000" font-family="sans-serif" font-size="11" lengthAdjust="spacing" textLength="173" x="152.5" y="99.6245">clone() : Position&lt;LengthUnit&gt;</text><ellipse cx="143.5" cy="109.2188" fill="#84BE84" rx="3" ry="3" style="stroke:#038048;stroke-width:1.0;"/><text fill="#000000" font-family="sans-serif" font-size="11" lengthAdjust="spacing" textLength="279" x="152.5" y="112.4292">equals(position: Position&lt;LengthUnit&gt;) : boolean</text><!--MD5=[c0808e2fc51253fd4a7c9832dd59f6b0]
class Absolute2DPosition--><rect codeLine="26" fill="#FEFECE" filter="url(#fikqqp3bgeow0)" height="214.4609" id="Absolute2DPosition" style="stroke:#A80036;stroke-width:1.5;" width="552" x="9" y="441"/><ellipse cx="219.75" cy="457" fill="#ADD1B2" rx="11" ry="11" style="stroke:#A80036;stroke-width:1.0;"/><path d="M222.7188,462.6406 Q222.1406,462.9375 221.5,463.0781 Q220.8594,463.2344 220.1563,463.2344 Q217.6563,463.2344 216.3281,461.5938 Q215.0156,459.9375 215.0156,456.8125 Q215.0156,453.6875 216.3281,452.0313 Q217.6563,450.375 220.1563,450.375 Q220.8594,450.375 221.5,450.5313 Q222.1563,450.6875 222.7188,450.9844 L222.7188,453.7031 Q222.0938,453.125 221.5,452.8594 Q220.9063,452.5781 220.2813,452.5781 Q218.9375,452.5781 218.25,453.6563 Q217.5625,454.7188 217.5625,456.8125 Q217.5625,458.9063 218.25,459.9844 Q218.9375,461.0469 220.2813,461.0469 Q220.9063,461.0469 221.5,460.7813 Q222.0938,460.5 222.7188,459.9219 L222.7188,462.6406 Z " fill="#000000"/><text fill="#000000" font-family="sans-serif" font-size="12" lengthAdjust="spacing" textLength="122" x="240.25" y="461.1543">Absolute2DPosition</text><line style="stroke:#A80036;stroke-width:1.5;" x1="10" x2="560" y1="473" y2="473"/><ellipse cx="20" cy="484" rx="3" ry="3" style="stroke:#038048;stroke-width:1.0;fill:none;"/><text fill="#000000" font-family="sans-serif" font-size="11" lengthAdjust="spacing" textLength="136" x="29" y="487.2104">orientation : Orientation</text><ellipse cx="20" cy="496.8047" rx="3" ry="3" style="stroke:#038048;stroke-width:1.0;fill:none;"/><text fill="#000000" font-family="sans-serif" font-size="11" lengthAdjust="spacing" textLength="154" x="29" y="500.0151">referenceSpaceUID : string</text><ellipse cx="20" cy="509.6094" rx="3" ry="3" style="stroke:#038048;stroke-width:1.0;fill:none;"/><text fill="#000000" font-family="sans-serif" font-size="11" lengthAdjust="spacing" textLength="117" x="29" y="512.8198">timestamp : number</text><ellipse cx="20" cy="522.4141" rx="3" ry="3" style="stroke:#038048;stroke-width:1.0;fill:none;"/><text fill="#000000" font-family="sans-serif" font-size="11" lengthAdjust="spacing" textLength="93" x="29" y="525.6245">unit : LengthUnit</text><ellipse cx="20" cy="535.2188" rx="3" ry="3" style="stroke:#038048;stroke-width:1.0;fill:none;"/><text fill="#000000" font-family="sans-serif" font-size="11" lengthAdjust="spacing" textLength="97" x="29" y="538.4292">velocity : Velocity</text><polygon fill="none" points="20,543.0234,24,547.0234,20,551.0234,16,547.0234" style="stroke:#B38D22;stroke-width:1.0;"/><text fill="#000000" font-family="sans-serif" font-size="11" lengthAdjust="spacing" textLength="90" x="29" y="551.2339">vector : Vector3</text><line style="stroke:#A80036;stroke-width:1.5;" x1="10" x2="560" y1="557.8281" y2="557.8281"/><ellipse cx="20" cy="568.8281" fill="#84BE84" rx="3" ry="3" style="stroke:#038048;stroke-width:1.0;"/><text fill="#000000" font-family="sans-serif" font-size="11" lengthAdjust="spacing" textLength="289" x="29" y="572.0386">angleTo(destination: Absolute2DPosition) : number</text><ellipse cx="20" cy="581.6328" fill="#84BE84" rx="3" ry="3" style="stroke:#038048;stroke-width:1.0;"/><text fill="#000000" font-family="sans-serif" font-size="11" lengthAdjust="spacing" textLength="159" x="29" y="584.8433">clone() : Absolute2DPosition</text><ellipse cx="20" cy="594.4375" fill="#84BE84" rx="3" ry="3" style="stroke:#038048;stroke-width:1.0;"/><text fill="#000000" font-family="sans-serif" font-size="11" lengthAdjust="spacing" textLength="479" x="29" y="597.6479">distanceTo(destination: Absolute2DPosition, distanceFunction: DistanceFn) : number</text><ellipse cx="20" cy="607.2422" fill="#84BE84" rx="3" ry="3" style="stroke:#038048;stroke-width:1.0;"/><text fill="#000000" font-family="sans-serif" font-size="11" lengthAdjust="spacing" textLength="265" x="29" y="610.4526">equals(position: Absolute2DPosition) : boolean</text><ellipse cx="20" cy="620.0469" fill="#84BE84" rx="3" ry="3" style="stroke:#038048;stroke-width:1.0;"/><text fill="#000000" font-family="sans-serif" font-size="11" lengthAdjust="spacing" textLength="430" x="29" y="623.2573">fromVector(vector: Vector3 | Vector2, unit: LengthUnit) : Absolute2DPosition</text><ellipse cx="20" cy="632.8516" fill="#84BE84" rx="3" ry="3" style="stroke:#038048;stroke-width:1.0;"/><text fill="#000000" font-family="sans-serif" font-size="11" lengthAdjust="spacing" textLength="526" x="29" y="636.062">setAccuracy(accuracy: number | Accuracy&lt;LengthUnit, any&gt;, unit: Unit) : Absolute2DPosition</text><ellipse cx="20" cy="645.6563" fill="#84BE84" rx="3" ry="3" style="stroke:#038048;stroke-width:1.0;"/><text fill="#000000" font-family="sans-serif" font-size="11" lengthAdjust="spacing" textLength="206" x="29" y="648.8667">toVector3(unit: LengthUnit) : Vector3</text><!--MD5=[d85c045fc642e3ba4dcc2907cc42e7b3]
reverse link Position<LengthUnit> to AbsolutePosition--><path codeLine="25" d="M285,139.24 C285,152.08 285,165.59 285,178.95 " fill="none" id="Position&lt;LengthUnit&gt;-backto-AbsolutePosition" style="stroke:#A80036;stroke-width:1.0;stroke-dasharray:7.0,7.0;"/><polygon fill="none" points="278,139.09,285,119.09,292,139.09,278,139.09" style="stroke:#A80036;stroke-width:1.0;"/><!--MD5=[90be864c95824d171e5554647fdeffe6]
reverse link AbsolutePosition to Absolute2DPosition--><path codeLine="41" d="M285,401.51 C285,414.58 285,427.81 285,440.69 " fill="none" id="AbsolutePosition-backto-Absolute2DPosition" style="stroke:#A80036;stroke-width:1.0;"/><polygon fill="none" points="278,401.18,285,381.18,292,401.18,278,401.18" style="stroke:#A80036;stroke-width:1.0;"/><!--MD5=[0358f4397af024ab432fa5a7a186dc96]
@startuml
skinparam BackgroundColor transparent
hide empty methods
hide empty fields
abstract class "AbsolutePosition" {
    +orientation : Orientation
    +referenceSpaceUID : string
    +timestamp : number
    +unit : LengthUnit
    +velocity : Velocity
    {abstract} +angleTo(destination: AbsolutePosition) : number
    +clone() : AbsolutePosition
    +distanceTo(destination: AbsolutePosition, distanceFunction: DistanceFn) : number
    +equals(position: AbsolutePosition) : boolean
    {abstract} +fromVector(vector: Vector3, unit: LengthUnit) : AbsolutePosition
    +setAccuracy(accuracy: number | Accuracy<LengthUnit, any>, unit: Unit) : AbsolutePosition
    {abstract} +toVector3(unit: LengthUnit) : Vector3
}
interface "Position<LengthUnit>" {
    +accuracy : Accuracy<LengthUnit, any>
    +probability : number
    +timestamp : number
    +clone() : Position<LengthUnit>
    +equals(position: Position<LengthUnit>) : boolean
}
"Position<LengthUnit>" <|.. "AbsolutePosition"
class "Absolute2DPosition" {
    +orientation : Orientation
    +referenceSpaceUID : string
    +timestamp : number
    +unit : LengthUnit
    +velocity : Velocity
    #vector : Vector3
    +angleTo(destination: Absolute2DPosition) : number
    +clone() : Absolute2DPosition
    +distanceTo(destination: Absolute2DPosition, distanceFunction: DistanceFn) : number
    +equals(position: Absolute2DPosition) : boolean
    +fromVector(vector: Vector3 | Vector2, unit: LengthUnit) : Absolute2DPosition
    +setAccuracy(accuracy: number | Accuracy<LengthUnit, any>, unit: Unit) : Absolute2DPosition
    +toVector3(unit: LengthUnit) : Vector3
}
"AbsolutePosition" <|- - "Absolute2DPosition"
@enduml

PlantUML version 1.2021.14(Fri Nov 12 16:46:50 UTC 2021)
(GPL source distribution)
Java Runtime: OpenJDK Runtime Environment
JVM: OpenJDK 64-Bit Server VM
Default Encoding: UTF-8
Language: en
Country: null
--></g></svg>