<?xml version="1.0" encoding="UTF-8" standalone="no"?><svg xmlns="http://www.w3.org/2000/svg" xmlns:xlink="http://www.w3.org/1999/xlink" contentScriptType="application/ecmascript" contentStyleType="text/css" height="237px" preserveAspectRatio="none" style="width:186px;height:237px;background:#00000000;" version="1.1" viewBox="0 0 186 237" width="186px" zoomAndPan="magnify"><defs><filter height="300%" id="f1458see3nun3e" width="300%" x="-1" y="-1"><feGaussianBlur result="blurOut" stdDeviation="2.0"/><feColorMatrix in="blurOut" result="blurOut2" type="matrix" values="0 0 0 0 0 0 0 0 0 0 0 0 0 0 0 0 0 0 .4 0"/><feOffset dx="4.0" dy="4.0" in="blurOut2" result="blurOut3"/><feBlend in="SourceGraphic" in2="blurOut3" mode="normal"/></filter></defs><g><!--MD5=[6826b595e4f3c3e38e38238a73cd1685]
class Absolute3DPosition--><rect codeLine="4" fill="#FEFECE" filter="url(#f1458see3nun3e)" height="32" id="Absolute3DPosition" style="stroke:#A80036;stroke-width:1.5;" width="154" x="12.5" y="99"/><ellipse cx="27.5" cy="115" fill="#ADD1B2" rx="11" ry="11" style="stroke:#A80036;stroke-width:1.0;"/><path d="M30.4688,120.6406 Q29.8906,120.9375 29.25,121.0781 Q28.6094,121.2344 27.9063,121.2344 Q25.4063,121.2344 24.0781,119.5938 Q22.7656,117.9375 22.7656,114.8125 Q22.7656,111.6875 24.0781,110.0313 Q25.4063,108.375 27.9063,108.375 Q28.6094,108.375 29.25,108.5313 Q29.9063,108.6875 30.4688,108.9844 L30.4688,111.7031 Q29.8438,111.125 29.25,110.8594 Q28.6563,110.5781 28.0313,110.5781 Q26.6875,110.5781 26,111.6563 Q25.3125,112.7188 25.3125,114.8125 Q25.3125,116.9063 26,117.9844 Q26.6875,119.0469 28.0313,119.0469 Q28.6563,119.0469 29.25,118.7813 Q29.8438,118.5 30.4688,117.9219 L30.4688,120.6406 Z " fill="#000000"/><text fill="#000000" font-family="sans-serif" font-size="12" lengthAdjust="spacing" textLength="122" x="41.5" y="119.1543">Absolute3DPosition</text><!--MD5=[c0808e2fc51253fd4a7c9832dd59f6b0]
class Absolute2DPosition--><rect codeLine="6" fill="#FEFECE" filter="url(#f1458see3nun3e)" height="32" id="Absolute2DPosition" style="stroke:#A80036;stroke-width:1.5;" width="154" x="12.5" y="7"/><ellipse cx="27.5" cy="23" fill="#ADD1B2" rx="11" ry="11" style="stroke:#A80036;stroke-width:1.0;"/><path d="M30.4688,28.6406 Q29.8906,28.9375 29.25,29.0781 Q28.6094,29.2344 27.9063,29.2344 Q25.4063,29.2344 24.0781,27.5938 Q22.7656,25.9375 22.7656,22.8125 Q22.7656,19.6875 24.0781,18.0313 Q25.4063,16.375 27.9063,16.375 Q28.6094,16.375 29.25,16.5313 Q29.9063,16.6875 30.4688,16.9844 L30.4688,19.7031 Q29.8438,19.125 29.25,18.8594 Q28.6563,18.5781 28.0313,18.5781 Q26.6875,18.5781 26,19.6563 Q25.3125,20.7188 25.3125,22.8125 Q25.3125,24.9063 26,25.9844 Q26.6875,27.0469 28.0313,27.0469 Q28.6563,27.0469 29.25,26.7813 Q29.8438,26.5 30.4688,25.9219 L30.4688,28.6406 Z " fill="#000000"/><text fill="#000000" font-family="sans-serif" font-size="12" lengthAdjust="spacing" textLength="122" x="41.5" y="27.1543">Absolute2DPosition</text><!--MD5=[731ace5b4c0b312584f561ded23a1ed3]
class GeographicalPosition--><rect codeLine="9" fill="#FEFECE" filter="url(#f1458see3nun3e)" height="32" id="GeographicalPosition" style="stroke:#A80036;stroke-width:1.5;" width="165" x="7" y="191"/><ellipse cx="22" cy="207" fill="#ADD1B2" rx="11" ry="11" style="stroke:#A80036;stroke-width:1.0;"/><path d="M24.9688,212.6406 Q24.3906,212.9375 23.75,213.0781 Q23.1094,213.2344 22.4063,213.2344 Q19.9063,213.2344 18.5781,211.5938 Q17.2656,209.9375 17.2656,206.8125 Q17.2656,203.6875 18.5781,202.0313 Q19.9063,200.375 22.4063,200.375 Q23.1094,200.375 23.75,200.5313 Q24.4063,200.6875 24.9688,200.9844 L24.9688,203.7031 Q24.3438,203.125 23.75,202.8594 Q23.1563,202.5781 22.5313,202.5781 Q21.1875,202.5781 20.5,203.6563 Q19.8125,204.7188 19.8125,206.8125 Q19.8125,208.9063 20.5,209.9844 Q21.1875,211.0469 22.5313,211.0469 Q23.1563,211.0469 23.75,210.7813 Q24.3438,210.5 24.9688,209.9219 L24.9688,212.6406 Z " fill="#000000"/><text fill="#000000" font-family="sans-serif" font-size="12" lengthAdjust="spacing" textLength="133" x="36" y="211.1543">GeographicalPosition</text><!--MD5=[ef826cf651c464f5845a3f0cdcd97700]
reverse link Absolute2DPosition to Absolute3DPosition--><path codeLine="8" d="M89.5,59.61 C89.5,73.31 89.5,88.22 89.5,98.96 " fill="none" id="Absolute2DPosition-backto-Absolute3DPosition" style="stroke:#A80036;stroke-width:1.0;"/><polygon fill="none" points="82.5,59.27,89.5,39.27,96.5,59.27,82.5,59.27" style="stroke:#A80036;stroke-width:1.0;"/><!--MD5=[69a637977c7b22c72087f495b4c42987]
reverse link Absolute3DPosition to GeographicalPosition--><path codeLine="11" d="M89.5,151.61 C89.5,165.31 89.5,180.22 89.5,190.96 " fill="none" id="Absolute3DPosition-backto-GeographicalPosition" style="stroke:#A80036;stroke-width:1.0;"/><polygon fill="none" points="82.5,151.27,89.5,131.27,96.5,151.27,82.5,151.27" style="stroke:#A80036;stroke-width:1.0;"/><!--MD5=[587a44fa408f6872c309c7f68a451a1f]
@startuml
skinparam BackgroundColor transparent
hide empty methods
hide empty fields
class "Absolute3DPosition" {
}
class "Absolute2DPosition" {
}
"Absolute2DPosition" <|- - "Absolute3DPosition"
class "GeographicalPosition" {
}
"Absolute3DPosition" <|- - "GeographicalPosition"
@enduml

PlantUML version 1.2021.14(Fri Nov 12 16:46:50 UTC 2021)
(GPL source distribution)
Java Runtime: OpenJDK Runtime Environment
JVM: OpenJDK 64-Bit Server VM
Default Encoding: UTF-8
Language: en
Country: null
--></g></svg>