<?xml version="1.0" encoding="us-ascii" standalone="no"?><svg xmlns="http://www.w3.org/2000/svg" xmlns:xlink="http://www.w3.org/1999/xlink" contentStyleType="text/css" height="138px" preserveAspectRatio="none" style="width:239px;height:138px;" version="1.1" viewBox="0 0 239 138" width="239px" zoomAndPan="magnify"><defs/><g><!--class AbsoluteOrientationSensor--><g id="elem_AbsoluteOrientationSensor"><rect codeLine="4" fill="#F1F1F1" height="32" id="AbsoluteOrientationSensor" rx="2.5" ry="2.5" style="stroke:#181818;stroke-width:0.5;" width="218" x="10.5" y="99"/><ellipse cx="25.5" cy="115" fill="#ADD1B2" rx="11" ry="11" style="stroke:#181818;stroke-width:1.0;"/><path d="M28.4688,120.6406 Q27.8906,120.9375 27.25,121.0781 Q26.6094,121.2344 25.9063,121.2344 Q23.4063,121.2344 22.0781,119.5938 Q20.7656,117.9375 20.7656,114.8125 Q20.7656,111.6875 22.0781,110.0313 Q23.4063,108.375 25.9063,108.375 Q26.6094,108.375 27.25,108.5313 Q27.9063,108.6875 28.4688,108.9844 L28.4688,111.7031 Q27.8438,111.125 27.25,110.8594 Q26.6563,110.5781 26.0313,110.5781 Q24.6875,110.5781 24,111.6563 Q23.3125,112.7188 23.3125,114.8125 Q23.3125,116.9063 24,117.9844 Q24.6875,119.0469 26.0313,119.0469 Q26.6563,119.0469 27.25,118.7813 Q27.8438,118.5 28.4688,117.9219 L28.4688,120.6406 Z " fill="#000000"/><text fill="#000000" font-family="sans-serif" font-size="14" lengthAdjust="spacing" textLength="186" x="39.5" y="119.8467">AbsoluteOrientationSensor</text></g><!--class SensorObject<Orientation>--><g id="elem_SensorObject&lt;Orientation&gt;"><rect codeLine="6" fill="#F1F1F1" height="32" id="SensorObject&lt;Orientation&gt;" rx="2.5" ry="2.5" style="stroke:#181818;stroke-width:0.5;" width="225" x="7" y="7"/><ellipse cx="22" cy="23" fill="#A9DCDF" rx="11" ry="11" style="stroke:#181818;stroke-width:1.0;"/><path d="M22.1094,18.3438 L20.9531,23.4219 L23.2813,23.4219 L22.1094,18.3438 Z M20.625,16.1094 L23.6094,16.1094 L26.9688,28.5 L24.5156,28.5 L23.75,25.4375 L20.4688,25.4375 L19.7188,28.5 L17.2813,28.5 L20.625,16.1094 Z " fill="#000000"/><text fill="#000000" font-family="sans-serif" font-size="14" font-style="italic" lengthAdjust="spacing" textLength="193" x="36" y="27.8467">SensorObject&lt;Orientation&gt;</text></g><!--reverse link SensorObject<Orientation> to AbsoluteOrientationSensor--><g id="link_SensorObject&lt;Orientation&gt;_AbsoluteOrientationSensor"><path codeLine="8" d="M119.5,59.61 C119.5,73.31 119.5,88.22 119.5,98.96 " fill="none" id="SensorObject&lt;Orientation&gt;-backto-AbsoluteOrientationSensor" style="stroke:#181818;stroke-width:1.0;"/><polygon fill="none" points="112.5,59.27,119.5,39.27,126.5,59.27,112.5,59.27" style="stroke:#181818;stroke-width:1.0;"/></g><!--SRC=[VOqn3i8m34NtdCBgtXjKIC01Ed029p4qD8ahsnqGS7SYbQ5Jr__- -r_dL1SKB731C3-4rngld5d01AisHDNSb281bSLUKCWcZhgFxeboIq96LUZENZclHgEafg8bhZUgojB1stqTUctBmU1VtzZednHis3cdhNx4Xq_V7_tz0000]--></g></svg>