<?xml version="1.0" encoding="UTF-8" standalone="no"?><svg xmlns="http://www.w3.org/2000/svg" xmlns:xlink="http://www.w3.org/1999/xlink" contentScriptType="application/ecmascript" contentStyleType="text/css" height="145px" preserveAspectRatio="none" style="width:224px;height:145px;background:#00000000;" version="1.1" viewBox="0 0 224 145" width="224px" zoomAndPan="magnify"><defs><filter height="300%" id="f14xnigff4j65e" width="300%" x="-1" y="-1"><feGaussianBlur result="blurOut" stdDeviation="2.0"/><feColorMatrix in="blurOut" result="blurOut2" type="matrix" values="0 0 0 0 0 0 0 0 0 0 0 0 0 0 0 0 0 0 .4 0"/><feOffset dx="4.0" dy="4.0" in="blurOut2" result="blurOut3"/><feBlend in="SourceGraphic" in2="blurOut3" mode="normal"/></filter></defs><g><!--MD5=[8d3e4484c622d7bcec2d07bd590eb8cc]
class AbsoluteOrientationSensor--><rect codeLine="4" fill="#FEFECE" filter="url(#f14xnigff4j65e)" height="32" id="AbsoluteOrientationSensor" style="stroke:#A80036;stroke-width:1.5;" width="201" x="8" y="99"/><ellipse cx="23" cy="115" fill="#ADD1B2" rx="11" ry="11" style="stroke:#A80036;stroke-width:1.0;"/><path d="M25.9688,120.6406 Q25.3906,120.9375 24.75,121.0781 Q24.1094,121.2344 23.4063,121.2344 Q20.9063,121.2344 19.5781,119.5938 Q18.2656,117.9375 18.2656,114.8125 Q18.2656,111.6875 19.5781,110.0313 Q20.9063,108.375 23.4063,108.375 Q24.1094,108.375 24.75,108.5313 Q25.4063,108.6875 25.9688,108.9844 L25.9688,111.7031 Q25.3438,111.125 24.75,110.8594 Q24.1563,110.5781 23.5313,110.5781 Q22.1875,110.5781 21.5,111.6563 Q20.8125,112.7188 20.8125,114.8125 Q20.8125,116.9063 21.5,117.9844 Q22.1875,119.0469 23.5313,119.0469 Q24.1563,119.0469 24.75,118.7813 Q25.3438,118.5 25.9688,117.9219 L25.9688,120.6406 Z " fill="#000000"/><text fill="#000000" font-family="sans-serif" font-size="12" lengthAdjust="spacing" textLength="169" x="37" y="119.1543">AbsoluteOrientationSensor</text><!--MD5=[3ca0846c3792dc11b58ee42627821435]
class SensorObject<Orientation>--><rect codeLine="6" fill="#FEFECE" filter="url(#f14xnigff4j65e)" height="32" id="SensorObject&lt;Orientation&gt;" style="stroke:#A80036;stroke-width:1.5;" width="203" x="7" y="7"/><ellipse cx="22" cy="23" fill="#A9DCDF" rx="11" ry="11" style="stroke:#A80036;stroke-width:1.0;"/><path d="M22.1094,18.3438 L20.9531,23.4219 L23.2813,23.4219 L22.1094,18.3438 Z M20.625,16.1094 L23.6094,16.1094 L26.9688,28.5 L24.5156,28.5 L23.75,25.4375 L20.4688,25.4375 L19.7188,28.5 L17.2813,28.5 L20.625,16.1094 Z " fill="#000000"/><text fill="#000000" font-family="sans-serif" font-size="12" font-style="italic" lengthAdjust="spacing" textLength="171" x="36" y="27.1543">SensorObject&lt;Orientation&gt;</text><!--MD5=[4dce632cb7a28e3b824fe6f923a8b1e8]
reverse link SensorObject<Orientation> to AbsoluteOrientationSensor--><path codeLine="8" d="M108.5,59.61 C108.5,73.31 108.5,88.22 108.5,98.96 " fill="none" id="SensorObject&lt;Orientation&gt;-backto-AbsoluteOrientationSensor" style="stroke:#A80036;stroke-width:1.0;"/><polygon fill="none" points="101.5,59.27,108.5,39.27,115.5,59.27,101.5,59.27" style="stroke:#A80036;stroke-width:1.0;"/><!--MD5=[22119e3f73c7d552f14c2b81c79e4de3]
@startuml
skinparam BackgroundColor transparent
hide empty methods
hide empty fields
class "AbsoluteOrientationSensor" {
}
abstract class "SensorObject<Orientation>" {
}
"SensorObject<Orientation>" <|- - "AbsoluteOrientationSensor"
@enduml

PlantUML version 1.2021.14(Fri Nov 12 16:46:50 UTC 2021)
(GPL source distribution)
Java Runtime: OpenJDK Runtime Environment
JVM: OpenJDK 64-Bit Server VM
Default Encoding: UTF-8
Language: en
Country: null
--></g></svg>