<?xml version="1.0" encoding="UTF-8" standalone="no"?><svg xmlns="http://www.w3.org/2000/svg" xmlns:xlink="http://www.w3.org/1999/xlink" contentScriptType="application/ecmascript" contentStyleType="text/css" height="145px" preserveAspectRatio="none" style="width:365px;height:145px;background:#00000000;" version="1.1" viewBox="0 0 365 145" width="365px" zoomAndPan="magnify"><defs><filter height="300%" id="f8qd8kjsbbums" width="300%" x="-1" y="-1"><feGaussianBlur result="blurOut" stdDeviation="2.0"/><feColorMatrix in="blurOut" result="blurOut2" type="matrix" values="0 0 0 0 0 0 0 0 0 0 0 0 0 0 0 0 0 0 .4 0"/><feOffset dx="4.0" dy="4.0" in="blurOut2" result="blurOut3"/><feBlend in="SourceGraphic" in2="blurOut3" mode="normal"/></filter></defs><g><!--MD5=[0ba84e53bd729611031e81c41ad2f1e8]
class Accelerometer--><rect codeLine="4" fill="#FEFECE" filter="url(#f8qd8kjsbbums)" height="32" id="Accelerometer" style="stroke:#A80036;stroke-width:1.5;" width="123" x="117.5" y="99"/><ellipse cx="132.5" cy="115" fill="#ADD1B2" rx="11" ry="11" style="stroke:#A80036;stroke-width:1.0;"/><path d="M135.4688,120.6406 Q134.8906,120.9375 134.25,121.0781 Q133.6094,121.2344 132.9063,121.2344 Q130.4063,121.2344 129.0781,119.5938 Q127.7656,117.9375 127.7656,114.8125 Q127.7656,111.6875 129.0781,110.0313 Q130.4063,108.375 132.9063,108.375 Q133.6094,108.375 134.25,108.5313 Q134.9063,108.6875 135.4688,108.9844 L135.4688,111.7031 Q134.8438,111.125 134.25,110.8594 Q133.6563,110.5781 133.0313,110.5781 Q131.6875,110.5781 131,111.6563 Q130.3125,112.7188 130.3125,114.8125 Q130.3125,116.9063 131,117.9844 Q131.6875,119.0469 133.0313,119.0469 Q133.6563,119.0469 134.25,118.7813 Q134.8438,118.5 135.4688,117.9219 L135.4688,120.6406 Z " fill="#000000"/><text fill="#000000" font-family="sans-serif" font-size="12" lengthAdjust="spacing" textLength="91" x="146.5" y="119.1543">Accelerometer</text><!--MD5=[810fa426577d1912bf0a96e96afd18b5]
class SensorObject<SensorValue | Object | Orientation>--><rect codeLine="6" fill="#FEFECE" filter="url(#f8qd8kjsbbums)" height="32" id="SensorObject&lt;SensorValue | Object | Orientation&gt;" style="stroke:#A80036;stroke-width:1.5;" width="344" x="7" y="7"/><ellipse cx="22" cy="23" fill="#A9DCDF" rx="11" ry="11" style="stroke:#A80036;stroke-width:1.0;"/><path d="M22.1094,18.3438 L20.9531,23.4219 L23.2813,23.4219 L22.1094,18.3438 Z M20.625,16.1094 L23.6094,16.1094 L26.9688,28.5 L24.5156,28.5 L23.75,25.4375 L20.4688,25.4375 L19.7188,28.5 L17.2813,28.5 L20.625,16.1094 Z " fill="#000000"/><text fill="#000000" font-family="sans-serif" font-size="12" font-style="italic" lengthAdjust="spacing" textLength="312" x="36" y="27.1543">SensorObject&lt;SensorValue | Object | Orientation&gt;</text><!--MD5=[024b97dd386c886c26dabce3e39c2db7]
reverse link SensorObject<SensorValue | Object | Orientation> to Accelerometer--><path codeLine="8" d="M179,59.61 C179,73.31 179,88.22 179,98.96 " fill="none" id="SensorObject&lt;SensorValue | Object | Orientation&gt;-backto-Accelerometer" style="stroke:#A80036;stroke-width:1.0;"/><polygon fill="none" points="172,59.27,179,39.27,186,59.27,172,59.27" style="stroke:#A80036;stroke-width:1.0;"/><!--MD5=[91b0762e26382a8f32c4b862319bae21]
@startuml
skinparam BackgroundColor transparent
hide empty methods
hide empty fields
class "Accelerometer" {
}
abstract class "SensorObject<SensorValue | Object | Orientation>" {
}
"SensorObject<SensorValue | Object | Orientation>" <|- - "Accelerometer"
@enduml

PlantUML version 1.2021.14(Fri Nov 12 16:46:50 UTC 2021)
(GPL source distribution)
Java Runtime: OpenJDK Runtime Environment
JVM: OpenJDK 64-Bit Server VM
Default Encoding: UTF-8
Language: en
Country: null
--></g></svg>