<?xml version="1.0" encoding="us-ascii" standalone="no"?><svg xmlns="http://www.w3.org/2000/svg" xmlns:xlink="http://www.w3.org/1999/xlink" contentStyleType="text/css" height="138px" preserveAspectRatio="none" style="width:184px;height:138px;" version="1.1" viewBox="0 0 184 138" width="184px" zoomAndPan="magnify"><defs/><g><!--class Acceleration--><g id="elem_Acceleration"><rect codeLine="4" fill="#F1F1F1" height="32" id="Acceleration" rx="2.5" ry="2.5" style="stroke:#181818;stroke-width:0.5;" width="117" x="33.5" y="99"/><ellipse cx="48.5" cy="115" fill="#ADD1B2" rx="11" ry="11" style="stroke:#181818;stroke-width:1.0;"/><path d="M51.4688,120.6406 Q50.8906,120.9375 50.25,121.0781 Q49.6094,121.2344 48.9063,121.2344 Q46.4063,121.2344 45.0781,119.5938 Q43.7656,117.9375 43.7656,114.8125 Q43.7656,111.6875 45.0781,110.0313 Q46.4063,108.375 48.9063,108.375 Q49.6094,108.375 50.25,108.5313 Q50.9063,108.6875 51.4688,108.9844 L51.4688,111.7031 Q50.8438,111.125 50.25,110.8594 Q49.6563,110.5781 49.0313,110.5781 Q47.6875,110.5781 47,111.6563 Q46.3125,112.7188 46.3125,114.8125 Q46.3125,116.9063 47,117.9844 Q47.6875,119.0469 49.0313,119.0469 Q49.6563,119.0469 50.25,118.7813 Q50.8438,118.5 51.4688,117.9219 L51.4688,120.6406 Z " fill="#000000"/><text fill="#000000" font-family="sans-serif" font-size="14" lengthAdjust="spacing" textLength="85" x="62.5" y="119.8467">Acceleration</text></g><!--class SensorValue<Unit>--><g id="elem_SensorValue&lt;Unit&gt;"><rect codeLine="6" fill="#F1F1F1" height="32" id="SensorValue&lt;Unit&gt;" rx="2.5" ry="2.5" style="stroke:#181818;stroke-width:0.5;" width="170" x="7" y="7"/><ellipse cx="22" cy="23" fill="#ADD1B2" rx="11" ry="11" style="stroke:#181818;stroke-width:1.0;"/><path d="M24.9688,28.6406 Q24.3906,28.9375 23.75,29.0781 Q23.1094,29.2344 22.4063,29.2344 Q19.9063,29.2344 18.5781,27.5938 Q17.2656,25.9375 17.2656,22.8125 Q17.2656,19.6875 18.5781,18.0313 Q19.9063,16.375 22.4063,16.375 Q23.1094,16.375 23.75,16.5313 Q24.4063,16.6875 24.9688,16.9844 L24.9688,19.7031 Q24.3438,19.125 23.75,18.8594 Q23.1563,18.5781 22.5313,18.5781 Q21.1875,18.5781 20.5,19.6563 Q19.8125,20.7188 19.8125,22.8125 Q19.8125,24.9063 20.5,25.9844 Q21.1875,27.0469 22.5313,27.0469 Q23.1563,27.0469 23.75,26.7813 Q24.3438,26.5 24.9688,25.9219 L24.9688,28.6406 Z " fill="#000000"/><text fill="#000000" font-family="sans-serif" font-size="14" lengthAdjust="spacing" textLength="138" x="36" y="27.8467">SensorValue&lt;Unit&gt;</text></g><!--reverse link SensorValue<Unit> to Acceleration--><g id="link_SensorValue&lt;Unit&gt;_Acceleration"><path codeLine="8" d="M92,59.61 C92,73.31 92,88.22 92,98.96 " fill="none" id="SensorValue&lt;Unit&gt;-backto-Acceleration" style="stroke:#181818;stroke-width:1.0;"/><polygon fill="none" points="85,59.27,92,39.27,99,59.27,85,59.27" style="stroke:#181818;stroke-width:1.0;"/></g><!--SRC=[RSn12i90343HVKyHkkyDYg0UGNGVPc8xD9EK95r8zUuMf23YzZ_uFXMPqR322TCqc2wIpyfg48RY6v54CvPCG7ME1rIAKRD_ftiXtafYT8Vsc18n6KPHQM5jNZjSI5pjXhnGVvKIXu_-w_spwtvERm00]--></g></svg>