<?xml version="1.0" encoding="UTF-8" standalone="no"?><svg xmlns="http://www.w3.org/2000/svg" xmlns:xlink="http://www.w3.org/1999/xlink" contentScriptType="application/ecmascript" contentStyleType="text/css" height="145px" preserveAspectRatio="none" style="width:177px;height:145px;background:#00000000;" version="1.1" viewBox="0 0 177 145" width="177px" zoomAndPan="magnify"><defs><filter height="300%" id="f1d9olyicf23kw" width="300%" x="-1" y="-1"><feGaussianBlur result="blurOut" stdDeviation="2.0"/><feColorMatrix in="blurOut" result="blurOut2" type="matrix" values="0 0 0 0 0 0 0 0 0 0 0 0 0 0 0 0 0 0 .4 0"/><feOffset dx="4.0" dy="4.0" in="blurOut2" result="blurOut3"/><feBlend in="SourceGraphic" in2="blurOut3" mode="normal"/></filter></defs><g><!--MD5=[bc39a93972ee56a020d0ede45fbe8c90]
class Acceleration--><rect codeLine="4" fill="#FEFECE" filter="url(#f1d9olyicf23kw)" height="32" id="Acceleration" style="stroke:#A80036;stroke-width:1.5;" width="110" x="30" y="99"/><ellipse cx="45" cy="115" fill="#ADD1B2" rx="11" ry="11" style="stroke:#A80036;stroke-width:1.0;"/><path d="M47.9688,120.6406 Q47.3906,120.9375 46.75,121.0781 Q46.1094,121.2344 45.4063,121.2344 Q42.9063,121.2344 41.5781,119.5938 Q40.2656,117.9375 40.2656,114.8125 Q40.2656,111.6875 41.5781,110.0313 Q42.9063,108.375 45.4063,108.375 Q46.1094,108.375 46.75,108.5313 Q47.4063,108.6875 47.9688,108.9844 L47.9688,111.7031 Q47.3438,111.125 46.75,110.8594 Q46.1563,110.5781 45.5313,110.5781 Q44.1875,110.5781 43.5,111.6563 Q42.8125,112.7188 42.8125,114.8125 Q42.8125,116.9063 43.5,117.9844 Q44.1875,119.0469 45.5313,119.0469 Q46.1563,119.0469 46.75,118.7813 Q47.3438,118.5 47.9688,117.9219 L47.9688,120.6406 Z " fill="#000000"/><text fill="#000000" font-family="sans-serif" font-size="12" lengthAdjust="spacing" textLength="78" x="59" y="119.1543">Acceleration</text><!--MD5=[c52eebc31f4e4bfeaf6fbeeb01c7dc6a]
class SensorValue<Unit>--><rect codeLine="6" fill="#FEFECE" filter="url(#f1d9olyicf23kw)" height="32" id="SensorValue&lt;Unit&gt;" style="stroke:#A80036;stroke-width:1.5;" width="156" x="7" y="7"/><ellipse cx="22" cy="23" fill="#ADD1B2" rx="11" ry="11" style="stroke:#A80036;stroke-width:1.0;"/><path d="M24.9688,28.6406 Q24.3906,28.9375 23.75,29.0781 Q23.1094,29.2344 22.4063,29.2344 Q19.9063,29.2344 18.5781,27.5938 Q17.2656,25.9375 17.2656,22.8125 Q17.2656,19.6875 18.5781,18.0313 Q19.9063,16.375 22.4063,16.375 Q23.1094,16.375 23.75,16.5313 Q24.4063,16.6875 24.9688,16.9844 L24.9688,19.7031 Q24.3438,19.125 23.75,18.8594 Q23.1563,18.5781 22.5313,18.5781 Q21.1875,18.5781 20.5,19.6563 Q19.8125,20.7188 19.8125,22.8125 Q19.8125,24.9063 20.5,25.9844 Q21.1875,27.0469 22.5313,27.0469 Q23.1563,27.0469 23.75,26.7813 Q24.3438,26.5 24.9688,25.9219 L24.9688,28.6406 Z " fill="#000000"/><text fill="#000000" font-family="sans-serif" font-size="12" lengthAdjust="spacing" textLength="124" x="36" y="27.1543">SensorValue&lt;Unit&gt;</text><!--MD5=[e2516748bf707062269f43de10000f90]
reverse link SensorValue<Unit> to Acceleration--><path codeLine="8" d="M85,59.61 C85,73.31 85,88.22 85,98.96 " fill="none" id="SensorValue&lt;Unit&gt;-backto-Acceleration" style="stroke:#A80036;stroke-width:1.0;"/><polygon fill="none" points="78,59.27,85,39.27,92,59.27,78,59.27" style="stroke:#A80036;stroke-width:1.0;"/><!--MD5=[daa98dc652a3c929af005e63c56ff303]
@startuml
skinparam BackgroundColor transparent
hide empty methods
hide empty fields
class "Acceleration" {
}
class "SensorValue<Unit>" {
}
"SensorValue<Unit>" <|- - "Acceleration"
@enduml

PlantUML version 1.2021.14(Fri Nov 12 16:46:50 UTC 2021)
(GPL source distribution)
Java Runtime: OpenJDK Runtime Environment
JVM: OpenJDK 64-Bit Server VM
Default Encoding: UTF-8
Language: en
Country: null
--></g></svg>