<?xml version="1.0" encoding="us-ascii" standalone="no"?><svg xmlns="http://www.w3.org/2000/svg" xmlns:xlink="http://www.w3.org/1999/xlink" contentStyleType="text/css" height="138px" preserveAspectRatio="none" style="width:158px;height:138px;" version="1.1" viewBox="0 0 158 138" width="158px" zoomAndPan="magnify"><defs/><g><!--class AccelerationUnit--><g id="elem_AccelerationUnit"><rect codeLine="4" fill="#F1F1F1" height="32" id="AccelerationUnit" rx="2.5" ry="2.5" style="stroke:#181818;stroke-width:0.5;" width="144" x="7" y="99"/><ellipse cx="22" cy="115" fill="#ADD1B2" rx="11" ry="11" style="stroke:#181818;stroke-width:1.0;"/><path d="M24.9688,120.6406 Q24.3906,120.9375 23.75,121.0781 Q23.1094,121.2344 22.4063,121.2344 Q19.9063,121.2344 18.5781,119.5938 Q17.2656,117.9375 17.2656,114.8125 Q17.2656,111.6875 18.5781,110.0313 Q19.9063,108.375 22.4063,108.375 Q23.1094,108.375 23.75,108.5313 Q24.4063,108.6875 24.9688,108.9844 L24.9688,111.7031 Q24.3438,111.125 23.75,110.8594 Q23.1563,110.5781 22.5313,110.5781 Q21.1875,110.5781 20.5,111.6563 Q19.8125,112.7188 19.8125,114.8125 Q19.8125,116.9063 20.5,117.9844 Q21.1875,119.0469 22.5313,119.0469 Q23.1563,119.0469 23.75,118.7813 Q24.3438,118.5 24.9688,117.9219 L24.9688,120.6406 Z " fill="#000000"/><text fill="#000000" font-family="sans-serif" font-size="14" lengthAdjust="spacing" textLength="112" x="36" y="119.8467">AccelerationUnit</text></g><!--class DerivedUnit--><g id="elem_DerivedUnit"><rect codeLine="6" fill="#F1F1F1" height="32" id="DerivedUnit" rx="2.5" ry="2.5" style="stroke:#181818;stroke-width:0.5;" width="112" x="23" y="7"/><ellipse cx="38" cy="23" fill="#ADD1B2" rx="11" ry="11" style="stroke:#181818;stroke-width:1.0;"/><path d="M40.9688,28.6406 Q40.3906,28.9375 39.75,29.0781 Q39.1094,29.2344 38.4063,29.2344 Q35.9063,29.2344 34.5781,27.5938 Q33.2656,25.9375 33.2656,22.8125 Q33.2656,19.6875 34.5781,18.0313 Q35.9063,16.375 38.4063,16.375 Q39.1094,16.375 39.75,16.5313 Q40.4063,16.6875 40.9688,16.9844 L40.9688,19.7031 Q40.3438,19.125 39.75,18.8594 Q39.1563,18.5781 38.5313,18.5781 Q37.1875,18.5781 36.5,19.6563 Q35.8125,20.7188 35.8125,22.8125 Q35.8125,24.9063 36.5,25.9844 Q37.1875,27.0469 38.5313,27.0469 Q39.1563,27.0469 39.75,26.7813 Q40.3438,26.5 40.9688,25.9219 L40.9688,28.6406 Z " fill="#000000"/><text fill="#000000" font-family="sans-serif" font-size="14" lengthAdjust="spacing" textLength="80" x="52" y="27.8467">DerivedUnit</text></g><!--reverse link DerivedUnit to AccelerationUnit--><g id="link_DerivedUnit_AccelerationUnit"><path codeLine="8" d="M79,59.61 C79,73.31 79,88.22 79,98.96 " fill="none" id="DerivedUnit-backto-AccelerationUnit" style="stroke:#181818;stroke-width:1.0;"/><polygon fill="none" points="72,59.27,79,39.27,86,59.27,72,59.27" style="stroke:#181818;stroke-width:1.0;"/></g><!--SRC=[RSn13e90343HFQTes7C3DufNu03DJ8M6cPQqrSIeTuSDGHEtxoVVPvO53IjSCCsZwLrohqKDmb1yIoJHJ9m9g2xnX4enQVPlkZ6LJL91TsZFAL4Xms2LGJXQU3MVFLx9-47vy5yvlRlkps45]--></g></svg>