<?xml version="1.0" encoding="us-ascii" standalone="no"?><svg xmlns="http://www.w3.org/2000/svg" xmlns:xlink="http://www.w3.org/1999/xlink" contentStyleType="text/css" height="138px" preserveAspectRatio="none" style="width:249px;height:138px;" version="1.1" viewBox="0 0 249 138" width="249px" zoomAndPan="magnify"><defs/><g><!--class Accelerometer--><g id="elem_Accelerometer"><rect codeLine="4" fill="#F1F1F1" height="32" id="Accelerometer" rx="2.5" ry="2.5" style="stroke:#181818;stroke-width:0.5;" width="133" x="58" y="99"/><ellipse cx="73" cy="115" fill="#ADD1B2" rx="11" ry="11" style="stroke:#181818;stroke-width:1.0;"/><path d="M75.9688,120.6406 Q75.3906,120.9375 74.75,121.0781 Q74.1094,121.2344 73.4063,121.2344 Q70.9063,121.2344 69.5781,119.5938 Q68.2656,117.9375 68.2656,114.8125 Q68.2656,111.6875 69.5781,110.0313 Q70.9063,108.375 73.4063,108.375 Q74.1094,108.375 74.75,108.5313 Q75.4063,108.6875 75.9688,108.9844 L75.9688,111.7031 Q75.3438,111.125 74.75,110.8594 Q74.1563,110.5781 73.5313,110.5781 Q72.1875,110.5781 71.5,111.6563 Q70.8125,112.7188 70.8125,114.8125 Q70.8125,116.9063 71.5,117.9844 Q72.1875,119.0469 73.5313,119.0469 Q74.1563,119.0469 74.75,118.7813 Q75.3438,118.5 75.9688,117.9219 L75.9688,120.6406 Z " fill="#000000"/><text fill="#000000" font-family="sans-serif" font-size="14" lengthAdjust="spacing" textLength="101" x="87" y="119.8467">Accelerometer</text></g><!--class SensorObject<Acceleration>--><g id="elem_SensorObject&lt;Acceleration&gt;"><rect codeLine="6" fill="#F1F1F1" height="32" id="SensorObject&lt;Acceleration&gt;" rx="2.5" ry="2.5" style="stroke:#181818;stroke-width:0.5;" width="235" x="7" y="7"/><ellipse cx="22" cy="23" fill="#A9DCDF" rx="11" ry="11" style="stroke:#181818;stroke-width:1.0;"/><path d="M22.1094,18.3438 L20.9531,23.4219 L23.2813,23.4219 L22.1094,18.3438 Z M20.625,16.1094 L23.6094,16.1094 L26.9688,28.5 L24.5156,28.5 L23.75,25.4375 L20.4688,25.4375 L19.7188,28.5 L17.2813,28.5 L20.625,16.1094 Z " fill="#000000"/><text fill="#000000" font-family="sans-serif" font-size="14" font-style="italic" lengthAdjust="spacing" textLength="203" x="36" y="27.8467">SensorObject&lt;Acceleration&gt;</text></g><!--reverse link SensorObject<Acceleration> to Accelerometer--><g id="link_SensorObject&lt;Acceleration&gt;_Accelerometer"><path codeLine="8" d="M124.5,59.61 C124.5,73.31 124.5,88.22 124.5,98.96 " fill="none" id="SensorObject&lt;Acceleration&gt;-backto-Accelerometer" style="stroke:#181818;stroke-width:1.0;"/><polygon fill="none" points="117.5,59.27,124.5,39.27,131.5,59.27,117.5,59.27" style="stroke:#181818;stroke-width:1.0;"/></g><!--SRC=[VSqn3i8m30NGFQUmklS65H9m00PEu2Q6XYPsPPkX0kvE93eW1jR_d_wtEVE2YXKE6EUhoftJKOeek29RguWzJ3aHK5ryXKe-IRBlw9Afj2GMD8Dk7oCLKccGj8D7U0KShQr5XusSYKtqDDue-h1vz2oy-_Y_O7Zs_U_B6m00]--></g></svg>