<?xml version="1.0" encoding="UTF-8" standalone="no"?><svg xmlns="http://www.w3.org/2000/svg" xmlns:xlink="http://www.w3.org/1999/xlink" contentScriptType="application/ecmascript" contentStyleType="text/css" height="145px" preserveAspectRatio="none" style="width:237px;height:145px;background:#00000000;" version="1.1" viewBox="0 0 237 145" width="237px" zoomAndPan="magnify"><defs><filter height="300%" id="f108e91udmznfo" width="300%" x="-1" y="-1"><feGaussianBlur result="blurOut" stdDeviation="2.0"/><feColorMatrix in="blurOut" result="blurOut2" type="matrix" values="0 0 0 0 0 0 0 0 0 0 0 0 0 0 0 0 0 0 .4 0"/><feOffset dx="4.0" dy="4.0" in="blurOut2" result="blurOut3"/><feBlend in="SourceGraphic" in2="blurOut3" mode="normal"/></filter></defs><g><!--MD5=[55474b353eeff7ab16250fb690321adf]
class AccuracyModifierOptions--><rect codeLine="4" fill="#FEFECE" filter="url(#f108e91udmznfo)" height="32" id="AccuracyModifierOptions" style="stroke:#A80036;stroke-width:1.5;" width="184" x="23" y="99"/><ellipse cx="38" cy="115" fill="#B4A7E5" rx="11" ry="11" style="stroke:#A80036;stroke-width:1.0;"/><path d="M33.9219,110.7656 L33.9219,108.6094 L41.3125,108.6094 L41.3125,110.7656 L38.8438,110.7656 L38.8438,118.8438 L41.3125,118.8438 L41.3125,121 L33.9219,121 L33.9219,118.8438 L36.3906,118.8438 L36.3906,110.7656 L33.9219,110.7656 Z " fill="#000000"/><text fill="#000000" font-family="sans-serif" font-size="12" font-style="italic" lengthAdjust="spacing" textLength="152" x="52" y="119.1543">AccuracyModifierOptions</text><!--MD5=[b53bc0b3a71be57c62241e847c2a99d4]
class ObjectProcessingNodeOptions--><rect codeLine="6" fill="#FEFECE" filter="url(#f108e91udmznfo)" height="32" id="ObjectProcessingNodeOptions" style="stroke:#A80036;stroke-width:1.5;" width="216" x="7" y="7"/><ellipse cx="22" cy="23" fill="#B4A7E5" rx="11" ry="11" style="stroke:#A80036;stroke-width:1.0;"/><path d="M17.9219,18.7656 L17.9219,16.6094 L25.3125,16.6094 L25.3125,18.7656 L22.8438,18.7656 L22.8438,26.8438 L25.3125,26.8438 L25.3125,29 L17.9219,29 L17.9219,26.8438 L20.3906,26.8438 L20.3906,18.7656 L17.9219,18.7656 Z " fill="#000000"/><text fill="#000000" font-family="sans-serif" font-size="12" font-style="italic" lengthAdjust="spacing" textLength="184" x="36" y="27.1543">ObjectProcessingNodeOptions</text><!--MD5=[6eb700add1db1bb88e45709b6a493fc9]
reverse link ObjectProcessingNodeOptions to AccuracyModifierOptions--><path codeLine="8" d="M115,59.61 C115,73.31 115,88.22 115,98.96 " fill="none" id="ObjectProcessingNodeOptions-backto-AccuracyModifierOptions" style="stroke:#A80036;stroke-width:1.0;"/><polygon fill="none" points="108,59.27,115,39.27,122,59.27,108,59.27" style="stroke:#A80036;stroke-width:1.0;"/><!--MD5=[efdfade55f993e80c67ef91e93c991c1]
@startuml
skinparam BackgroundColor transparent
hide empty methods
hide empty fields
interface "AccuracyModifierOptions" {
}
interface "ObjectProcessingNodeOptions" {
}
"ObjectProcessingNodeOptions" <|- - "AccuracyModifierOptions"
@enduml

PlantUML version 1.2021.14(Fri Nov 12 16:46:50 UTC 2021)
(GPL source distribution)
Java Runtime: OpenJDK Runtime Environment
JVM: OpenJDK 64-Bit Server VM
Default Encoding: UTF-8
Language: en
Country: null
--></g></svg>