<?xml version="1.0" encoding="us-ascii" standalone="no"?><svg xmlns="http://www.w3.org/2000/svg" xmlns:xlink="http://www.w3.org/1999/xlink" contentStyleType="text/css" height="230px" preserveAspectRatio="none" style="width:207px;height:230px;" version="1.1" viewBox="0 0 207 230" width="207px" zoomAndPan="magnify"><defs/><g><!--class Accuracy2D<U>--><g id="elem_Accuracy2D&lt;U&gt;"><rect codeLine="4" fill="#F1F1F1" height="32" id="Accuracy2D&lt;U&gt;" rx="2.5" ry="2.5" style="stroke:#181818;stroke-width:0.5;" width="148" x="29.5" y="99"/><ellipse cx="44.5" cy="115" fill="#ADD1B2" rx="11" ry="11" style="stroke:#181818;stroke-width:1.0;"/><path d="M47.4688,120.6406 Q46.8906,120.9375 46.25,121.0781 Q45.6094,121.2344 44.9063,121.2344 Q42.4063,121.2344 41.0781,119.5938 Q39.7656,117.9375 39.7656,114.8125 Q39.7656,111.6875 41.0781,110.0313 Q42.4063,108.375 44.9063,108.375 Q45.6094,108.375 46.25,108.5313 Q46.9063,108.6875 47.4688,108.9844 L47.4688,111.7031 Q46.8438,111.125 46.25,110.8594 Q45.6563,110.5781 45.0313,110.5781 Q43.6875,110.5781 43,111.6563 Q42.3125,112.7188 42.3125,114.8125 Q42.3125,116.9063 43,117.9844 Q43.6875,119.0469 45.0313,119.0469 Q45.6563,119.0469 46.25,118.7813 Q46.8438,118.5 47.4688,117.9219 L47.4688,120.6406 Z " fill="#000000"/><text fill="#000000" font-family="sans-serif" font-size="14" lengthAdjust="spacing" textLength="116" x="58.5" y="119.8467">Accuracy2D&lt;U&gt;</text></g><!--class Accuracy<U, Vector3>--><g id="elem_Accuracy&lt;U, Vector3&gt;"><rect codeLine="6" fill="#F1F1F1" height="32" id="Accuracy&lt;U, Vector3&gt;" rx="2.5" ry="2.5" style="stroke:#181818;stroke-width:0.5;" width="193" x="7" y="7"/><ellipse cx="22" cy="23" fill="#A9DCDF" rx="11" ry="11" style="stroke:#181818;stroke-width:1.0;"/><path d="M22.1094,18.3438 L20.9531,23.4219 L23.2813,23.4219 L22.1094,18.3438 Z M20.625,16.1094 L23.6094,16.1094 L26.9688,28.5 L24.5156,28.5 L23.75,25.4375 L20.4688,25.4375 L19.7188,28.5 L17.2813,28.5 L20.625,16.1094 Z " fill="#000000"/><text fill="#000000" font-family="sans-serif" font-size="14" font-style="italic" lengthAdjust="spacing" textLength="161" x="36" y="27.8467">Accuracy&lt;U, Vector3&gt;</text></g><!--class Accuracy3D<Unit>--><g id="elem_Accuracy3D&lt;Unit&gt;"><rect codeLine="9" fill="#F1F1F1" height="32" id="Accuracy3D&lt;Unit&gt;" rx="2.5" ry="2.5" style="stroke:#181818;stroke-width:0.5;" width="165" x="21" y="191"/><ellipse cx="36" cy="207" fill="#ADD1B2" rx="11" ry="11" style="stroke:#181818;stroke-width:1.0;"/><path d="M38.9688,212.6406 Q38.3906,212.9375 37.75,213.0781 Q37.1094,213.2344 36.4063,213.2344 Q33.9063,213.2344 32.5781,211.5938 Q31.2656,209.9375 31.2656,206.8125 Q31.2656,203.6875 32.5781,202.0313 Q33.9063,200.375 36.4063,200.375 Q37.1094,200.375 37.75,200.5313 Q38.4063,200.6875 38.9688,200.9844 L38.9688,203.7031 Q38.3438,203.125 37.75,202.8594 Q37.1563,202.5781 36.5313,202.5781 Q35.1875,202.5781 34.5,203.6563 Q33.8125,204.7188 33.8125,206.8125 Q33.8125,208.9063 34.5,209.9844 Q35.1875,211.0469 36.5313,211.0469 Q37.1563,211.0469 37.75,210.7813 Q38.3438,210.5 38.9688,209.9219 L38.9688,212.6406 Z " fill="#000000"/><text fill="#000000" font-family="sans-serif" font-size="14" lengthAdjust="spacing" textLength="133" x="50" y="211.8467">Accuracy3D&lt;Unit&gt;</text></g><!--reverse link Accuracy<U, Vector3> to Accuracy2D<U>--><g id="link_Accuracy&lt;U, Vector3&gt;_Accuracy2D&lt;U&gt;"><path codeLine="8" d="M103.5,59.61 C103.5,73.31 103.5,88.22 103.5,98.96 " fill="none" id="Accuracy&lt;U, Vector3&gt;-backto-Accuracy2D&lt;U&gt;" style="stroke:#181818;stroke-width:1.0;"/><polygon fill="none" points="96.5,59.27,103.5,39.27,110.5,59.27,96.5,59.27" style="stroke:#181818;stroke-width:1.0;"/></g><!--reverse link Accuracy2D<U> to Accuracy3D<Unit>--><g id="link_Accuracy2D&lt;U&gt;_Accuracy3D&lt;Unit&gt;"><path codeLine="11" d="M103.5,151.61 C103.5,165.31 103.5,180.22 103.5,190.96 " fill="none" id="Accuracy2D&lt;U&gt;-backto-Accuracy3D&lt;Unit&gt;" style="stroke:#181818;stroke-width:1.0;"/><polygon fill="none" points="96.5,151.27,103.5,131.27,110.5,151.27,96.5,151.27" style="stroke:#181818;stroke-width:1.0;"/></g><!--SRC=[TOwx3i8m34NtV8NLcIvqZP1u_4BPNIVGg7bKiJjKmB-JeK8GYVNSesFpvEAC6GESaAPxJaiqv-HJ1iaOkKmsYXgTiM33B2i4AsCo_8rkplf2o2CpD4UY9IEj-ulk3mqyr4lXmAL60fMY-nrSBKdAtMR-cVIpRUjoVQyhD3gfGziRluMF-mO0]--></g></svg>