<?xml version="1.0" encoding="UTF-8" standalone="no"?><svg xmlns="http://www.w3.org/2000/svg" xmlns:xlink="http://www.w3.org/1999/xlink" contentScriptType="application/ecmascript" contentStyleType="text/css" height="237px" preserveAspectRatio="none" style="width:196px;height:237px;background:#00000000;" version="1.1" viewBox="0 0 196 237" width="196px" zoomAndPan="magnify"><defs><filter height="300%" id="f5tmls6zlovcd" width="300%" x="-1" y="-1"><feGaussianBlur result="blurOut" stdDeviation="2.0"/><feColorMatrix in="blurOut" result="blurOut2" type="matrix" values="0 0 0 0 0 0 0 0 0 0 0 0 0 0 0 0 0 0 .4 0"/><feOffset dx="4.0" dy="4.0" in="blurOut2" result="blurOut3"/><feBlend in="SourceGraphic" in2="blurOut3" mode="normal"/></filter></defs><g><!--MD5=[720443c2bbab5d0d95635016e1422be0]
class Accuracy2D<U>--><rect codeLine="4" fill="#FEFECE" filter="url(#f5tmls6zlovcd)" height="32" id="Accuracy2D&lt;U&gt;" style="stroke:#A80036;stroke-width:1.5;" width="134" x="27.5" y="99"/><ellipse cx="42.5" cy="115" fill="#ADD1B2" rx="11" ry="11" style="stroke:#A80036;stroke-width:1.0;"/><path d="M45.4688,120.6406 Q44.8906,120.9375 44.25,121.0781 Q43.6094,121.2344 42.9063,121.2344 Q40.4063,121.2344 39.0781,119.5938 Q37.7656,117.9375 37.7656,114.8125 Q37.7656,111.6875 39.0781,110.0313 Q40.4063,108.375 42.9063,108.375 Q43.6094,108.375 44.25,108.5313 Q44.9063,108.6875 45.4688,108.9844 L45.4688,111.7031 Q44.8438,111.125 44.25,110.8594 Q43.6563,110.5781 43.0313,110.5781 Q41.6875,110.5781 41,111.6563 Q40.3125,112.7188 40.3125,114.8125 Q40.3125,116.9063 41,117.9844 Q41.6875,119.0469 43.0313,119.0469 Q43.6563,119.0469 44.25,118.7813 Q44.8438,118.5 45.4688,117.9219 L45.4688,120.6406 Z " fill="#000000"/><text fill="#000000" font-family="sans-serif" font-size="12" lengthAdjust="spacing" textLength="102" x="56.5" y="119.1543">Accuracy2D&lt;U&gt;</text><!--MD5=[a6c1bde69f75a18f3adf07be3593c36f]
class Accuracy<U, Vector3>--><rect codeLine="6" fill="#FEFECE" filter="url(#f5tmls6zlovcd)" height="32" id="Accuracy&lt;U, Vector3&gt;" style="stroke:#A80036;stroke-width:1.5;" width="175" x="7" y="7"/><ellipse cx="22" cy="23" fill="#A9DCDF" rx="11" ry="11" style="stroke:#A80036;stroke-width:1.0;"/><path d="M22.1094,18.3438 L20.9531,23.4219 L23.2813,23.4219 L22.1094,18.3438 Z M20.625,16.1094 L23.6094,16.1094 L26.9688,28.5 L24.5156,28.5 L23.75,25.4375 L20.4688,25.4375 L19.7188,28.5 L17.2813,28.5 L20.625,16.1094 Z " fill="#000000"/><text fill="#000000" font-family="sans-serif" font-size="12" font-style="italic" lengthAdjust="spacing" textLength="143" x="36" y="27.1543">Accuracy&lt;U, Vector3&gt;</text><!--MD5=[02c942dba7c4b5bde3e3b34d60026cd6]
class Accuracy3D<Unit>--><rect codeLine="9" fill="#FEFECE" filter="url(#f5tmls6zlovcd)" height="32" id="Accuracy3D&lt;Unit&gt;" style="stroke:#A80036;stroke-width:1.5;" width="150" x="19.5" y="191"/><ellipse cx="34.5" cy="207" fill="#ADD1B2" rx="11" ry="11" style="stroke:#A80036;stroke-width:1.0;"/><path d="M37.4688,212.6406 Q36.8906,212.9375 36.25,213.0781 Q35.6094,213.2344 34.9063,213.2344 Q32.4063,213.2344 31.0781,211.5938 Q29.7656,209.9375 29.7656,206.8125 Q29.7656,203.6875 31.0781,202.0313 Q32.4063,200.375 34.9063,200.375 Q35.6094,200.375 36.25,200.5313 Q36.9063,200.6875 37.4688,200.9844 L37.4688,203.7031 Q36.8438,203.125 36.25,202.8594 Q35.6563,202.5781 35.0313,202.5781 Q33.6875,202.5781 33,203.6563 Q32.3125,204.7188 32.3125,206.8125 Q32.3125,208.9063 33,209.9844 Q33.6875,211.0469 35.0313,211.0469 Q35.6563,211.0469 36.25,210.7813 Q36.8438,210.5 37.4688,209.9219 L37.4688,212.6406 Z " fill="#000000"/><text fill="#000000" font-family="sans-serif" font-size="12" lengthAdjust="spacing" textLength="118" x="48.5" y="211.1543">Accuracy3D&lt;Unit&gt;</text><!--MD5=[8744155078d32a694499c7d53c5ae69d]
reverse link Accuracy<U, Vector3> to Accuracy2D<U>--><path codeLine="8" d="M94.5,59.61 C94.5,73.31 94.5,88.22 94.5,98.96 " fill="none" id="Accuracy&lt;U, Vector3&gt;-backto-Accuracy2D&lt;U&gt;" style="stroke:#A80036;stroke-width:1.0;"/><polygon fill="none" points="87.5,59.27,94.5,39.27,101.5,59.27,87.5,59.27" style="stroke:#A80036;stroke-width:1.0;"/><!--MD5=[57a08163b292cd4125ebb68f820871ee]
reverse link Accuracy2D<U> to Accuracy3D<Unit>--><path codeLine="11" d="M94.5,151.61 C94.5,165.31 94.5,180.22 94.5,190.96 " fill="none" id="Accuracy2D&lt;U&gt;-backto-Accuracy3D&lt;Unit&gt;" style="stroke:#A80036;stroke-width:1.0;"/><polygon fill="none" points="87.5,151.27,94.5,131.27,101.5,151.27,87.5,151.27" style="stroke:#A80036;stroke-width:1.0;"/><!--MD5=[dcd03ffc579cbe8bf8458023a7c9029a]
@startuml
skinparam BackgroundColor transparent
hide empty methods
hide empty fields
class "Accuracy2D<U>" {
}
abstract class "Accuracy<U, Vector3>" {
}
"Accuracy<U, Vector3>" <|- - "Accuracy2D<U>"
class "Accuracy3D<Unit>" {
}
"Accuracy2D<U>" <|- - "Accuracy3D<Unit>"
@enduml

PlantUML version 1.2021.14(Fri Nov 12 16:46:50 UTC 2021)
(GPL source distribution)
Java Runtime: OpenJDK Runtime Environment
JVM: OpenJDK 64-Bit Server VM
Default Encoding: UTF-8
Language: en
Country: null
--></g></svg>