<?xml version="1.0" encoding="us-ascii" standalone="no"?><svg xmlns="http://www.w3.org/2000/svg" xmlns:xlink="http://www.w3.org/1999/xlink" contentStyleType="text/css" height="138px" preserveAspectRatio="none" style="width:265px;height:138px;" version="1.1" viewBox="0 0 265 138" width="265px" zoomAndPan="magnify"><defs/><g><!--class AccuracyModifierNode<InOut>--><g id="elem_AccuracyModifierNode&lt;InOut&gt;"><rect codeLine="4" fill="#F1F1F1" height="32" id="AccuracyModifierNode&lt;InOut&gt;" rx="2.5" ry="2.5" style="stroke:#181818;stroke-width:0.5;" width="246" x="9.5" y="99"/><ellipse cx="24.5" cy="115" fill="#ADD1B2" rx="11" ry="11" style="stroke:#181818;stroke-width:1.0;"/><path d="M27.4688,120.6406 Q26.8906,120.9375 26.25,121.0781 Q25.6094,121.2344 24.9063,121.2344 Q22.4063,121.2344 21.0781,119.5938 Q19.7656,117.9375 19.7656,114.8125 Q19.7656,111.6875 21.0781,110.0313 Q22.4063,108.375 24.9063,108.375 Q25.6094,108.375 26.25,108.5313 Q26.9063,108.6875 27.4688,108.9844 L27.4688,111.7031 Q26.8438,111.125 26.25,110.8594 Q25.6563,110.5781 25.0313,110.5781 Q23.6875,110.5781 23,111.6563 Q22.3125,112.7188 22.3125,114.8125 Q22.3125,116.9063 23,117.9844 Q23.6875,119.0469 25.0313,119.0469 Q25.6563,119.0469 26.25,118.7813 Q26.8438,118.5 27.4688,117.9219 L27.4688,120.6406 Z " fill="#000000"/><text fill="#000000" font-family="sans-serif" font-size="14" lengthAdjust="spacing" textLength="214" x="38.5" y="119.8467">AccuracyModifierNode&lt;InOut&gt;</text></g><!--class ObjectProcessingNode<InOut>--><g id="elem_ObjectProcessingNode&lt;InOut&gt;"><rect codeLine="6" fill="#F1F1F1" height="32" id="ObjectProcessingNode&lt;InOut&gt;" rx="2.5" ry="2.5" style="stroke:#181818;stroke-width:0.5;" width="251" x="7" y="7"/><ellipse cx="22" cy="23" fill="#A9DCDF" rx="11" ry="11" style="stroke:#181818;stroke-width:1.0;"/><path d="M22.1094,18.3438 L20.9531,23.4219 L23.2813,23.4219 L22.1094,18.3438 Z M20.625,16.1094 L23.6094,16.1094 L26.9688,28.5 L24.5156,28.5 L23.75,25.4375 L20.4688,25.4375 L19.7188,28.5 L17.2813,28.5 L20.625,16.1094 Z " fill="#000000"/><text fill="#000000" font-family="sans-serif" font-size="14" font-style="italic" lengthAdjust="spacing" textLength="219" x="36" y="27.8467">ObjectProcessingNode&lt;InOut&gt;</text></g><!--reverse link ObjectProcessingNode<InOut> to AccuracyModifierNode<InOut>--><g id="link_ObjectProcessingNode&lt;InOut&gt;_AccuracyModifierNode&lt;InOut&gt;"><path codeLine="8" d="M132.5,59.61 C132.5,73.31 132.5,88.22 132.5,98.96 " fill="none" id="ObjectProcessingNode&lt;InOut&gt;-backto-AccuracyModifierNode&lt;InOut&gt;" style="stroke:#181818;stroke-width:1.0;"/><polygon fill="none" points="125.5,59.27,132.5,39.27,139.5,59.27,125.5,59.27" style="stroke:#181818;stroke-width:1.0;"/></g><!--SRC=[VOqn3e9044LxJZ6XvmR4HAmi5Aymp8wm0ZjaPYY8UdUti30neVtll_zjZ6b1nHaQfB5NMLCuoIGAhfWi8qvU334myBpu1ZFx8C5-etlaAISqeHcKHw9LaRQBX9Y9NYLmVKxjweSIdiMxmCxoDZbyXRPxCFbDXTWiflvFs6_KhwhQV_q0]--></g></svg>