<?xml version="1.0" encoding="UTF-8" standalone="no"?><svg xmlns="http://www.w3.org/2000/svg" xmlns:xlink="http://www.w3.org/1999/xlink" contentScriptType="application/ecmascript" contentStyleType="text/css" height="330px" preserveAspectRatio="none" style="width:504px;height:330px;background:#00000000;" version="1.1" viewBox="0 0 504 330" width="504px" zoomAndPan="magnify"><defs><filter height="300%" id="f1wtcnqsxftx79" width="300%" x="-1" y="-1"><feGaussianBlur result="blurOut" stdDeviation="2.0"/><feColorMatrix in="blurOut" result="blurOut2" type="matrix" values="0 0 0 0 0 0 0 0 0 0 0 0 0 0 0 0 0 0 .4 0"/><feOffset dx="4.0" dy="4.0" in="blurOut2" result="blurOut3"/><feBlend in="SourceGraphic" in2="blurOut3" mode="normal"/></filter></defs><g><!--MD5=[ebaee042c9ac5e9587b6062417c17328]
class Accuracy<U, T>--><rect codeLine="4" fill="#FEFECE" filter="url(#f1wtcnqsxftx79)" height="124.8281" id="Accuracy&lt;U, T&gt;" style="stroke:#A80036;stroke-width:1.5;" width="209" x="145" y="7"/><ellipse cx="194.75" cy="23" fill="#A9DCDF" rx="11" ry="11" style="stroke:#A80036;stroke-width:1.0;"/><path d="M194.8594,18.3438 L193.7031,23.4219 L196.0313,23.4219 L194.8594,18.3438 Z M193.375,16.1094 L196.3594,16.1094 L199.7188,28.5 L197.2656,28.5 L196.5,25.4375 L193.2188,25.4375 L192.4688,28.5 L190.0313,28.5 L193.375,16.1094 Z " fill="#000000"/><text fill="#000000" font-family="sans-serif" font-size="12" font-style="italic" lengthAdjust="spacing" textLength="101" x="215.25" y="27.1543">Accuracy&lt;U, T&gt;</text><line style="stroke:#A80036;stroke-width:1.5;" x1="146" x2="353" y1="39" y2="39"/><ellipse cx="156" cy="50" rx="3" ry="3" style="stroke:#038048;stroke-width:1.0;fill:none;"/><text fill="#000000" font-family="sans-serif" font-size="11" lengthAdjust="spacing" textLength="49" x="165" y="53.2104">value : T</text><polygon fill="none" points="156,57.8047,160,61.8047,156,65.8047,152,61.8047" style="stroke:#B38D22;stroke-width:1.0;"/><text fill="#000000" font-family="sans-serif" font-size="11" lengthAdjust="spacing" textLength="47" x="165" y="66.0151">_unit : U</text><line style="stroke:#A80036;stroke-width:1.5;" x1="146" x2="353" y1="72.6094" y2="72.6094"/><ellipse cx="156" cy="83.6094" fill="#84BE84" rx="3" ry="3" style="stroke:#038048;stroke-width:1.0;"/><text fill="#000000" font-family="sans-serif" font-size="11" lengthAdjust="spacing" textLength="141" x="165" y="86.8198">clone() : Accuracy&lt;U, T&gt;</text><ellipse cx="156" cy="96.4141" fill="#84BE84" rx="3" ry="3" style="stroke:#038048;stroke-width:1.0;"/><text fill="#000000" font-family="sans-serif" font-size="11" lengthAdjust="spacing" textLength="183" x="165" y="99.6245">to&lt;T&gt;(unit: T) : Accuracy&lt;U, T&gt;</text><ellipse cx="156" cy="109.2188" fill="#84BE84" rx="3" ry="3" style="stroke:#038048;stroke-width:1.0;"/><text fill="#000000" font-family="sans-serif" font-size="11" font-style="italic" lengthAdjust="spacing" textLength="96" x="165" y="112.4292">toString() : string</text><ellipse cx="156" cy="122.0234" fill="#84BE84" rx="3" ry="3" style="stroke:#038048;stroke-width:1.0;"/><text fill="#000000" font-family="sans-serif" font-size="11" font-style="italic" lengthAdjust="spacing" textLength="108" x="165" y="125.2339">valueOf() : number</text><!--MD5=[e79620f655ad906a49a929a1f14aeedf]
class Accuracy1D<Unit>--><rect codeLine="12" fill="#FEFECE" filter="url(#f1wtcnqsxftx79)" height="124.8281" id="Accuracy1D&lt;Unit&gt;" style="stroke:#A80036;stroke-width:1.5;" width="223" x="9" y="192"/><ellipse cx="57.25" cy="208" fill="#ADD1B2" rx="11" ry="11" style="stroke:#A80036;stroke-width:1.0;"/><path d="M60.2188,213.6406 Q59.6406,213.9375 59,214.0781 Q58.3594,214.2344 57.6563,214.2344 Q55.1563,214.2344 53.8281,212.5938 Q52.5156,210.9375 52.5156,207.8125 Q52.5156,204.6875 53.8281,203.0313 Q55.1563,201.375 57.6563,201.375 Q58.3594,201.375 59,201.5313 Q59.6563,201.6875 60.2188,201.9844 L60.2188,204.7031 Q59.5938,204.125 59,203.8594 Q58.4063,203.5781 57.7813,203.5781 Q56.4375,203.5781 55.75,204.6563 Q55.0625,205.7188 55.0625,207.8125 Q55.0625,209.9063 55.75,210.9844 Q56.4375,212.0469 57.7813,212.0469 Q58.4063,212.0469 59,211.7813 Q59.5938,211.5 60.2188,210.9219 L60.2188,213.6406 Z " fill="#000000"/><text fill="#000000" font-family="sans-serif" font-size="12" lengthAdjust="spacing" textLength="118" x="77.75" y="212.1543">Accuracy1D&lt;Unit&gt;</text><line style="stroke:#A80036;stroke-width:1.5;" x1="10" x2="231" y1="224" y2="224"/><ellipse cx="20" cy="235" rx="3" ry="3" style="stroke:#038048;stroke-width:1.0;fill:none;"/><text fill="#000000" font-family="sans-serif" font-size="11" lengthAdjust="spacing" textLength="86" x="29" y="238.2104">value : number</text><polygon fill="none" points="20,242.8047,24,246.8047,20,250.8047,16,246.8047" style="stroke:#B38D22;stroke-width:1.0;"/><text fill="#000000" font-family="sans-serif" font-size="11" lengthAdjust="spacing" textLength="61" x="29" y="251.0151">_unit : Unit</text><line style="stroke:#A80036;stroke-width:1.5;" x1="10" x2="231" y1="257.6094" y2="257.6094"/><ellipse cx="20" cy="268.6094" fill="#84BE84" rx="3" ry="3" style="stroke:#038048;stroke-width:1.0;"/><text fill="#000000" font-family="sans-serif" font-size="11" lengthAdjust="spacing" textLength="155" x="29" y="271.8198">clone() : Accuracy1D&lt;Unit&gt;</text><ellipse cx="20" cy="281.4141" fill="#84BE84" rx="3" ry="3" style="stroke:#038048;stroke-width:1.0;"/><text fill="#000000" font-family="sans-serif" font-size="11" lengthAdjust="spacing" textLength="197" x="29" y="284.6245">to&lt;T&gt;(unit: T) : Accuracy1D&lt;Unit&gt;</text><ellipse cx="20" cy="294.2188" fill="#84BE84" rx="3" ry="3" style="stroke:#038048;stroke-width:1.0;"/><text fill="#000000" font-family="sans-serif" font-size="11" lengthAdjust="spacing" textLength="98" x="29" y="297.4292">toString() : string</text><ellipse cx="20" cy="307.0234" fill="#84BE84" rx="3" ry="3" style="stroke:#038048;stroke-width:1.0;"/><text fill="#000000" font-family="sans-serif" font-size="11" lengthAdjust="spacing" textLength="107" x="29" y="310.2339">valueOf() : number</text><!--MD5=[52b16759378e5b85255f354346ba92bd]
class Accuracy2D<Unit>--><rect codeLine="21" fill="#FEFECE" filter="url(#f1wtcnqsxftx79)" height="124.8281" id="Accuracy2D&lt;Unit&gt;" style="stroke:#A80036;stroke-width:1.5;" width="223" x="267" y="192"/><ellipse cx="315.25" cy="208" fill="#ADD1B2" rx="11" ry="11" style="stroke:#A80036;stroke-width:1.0;"/><path d="M318.2188,213.6406 Q317.6406,213.9375 317,214.0781 Q316.3594,214.2344 315.6563,214.2344 Q313.1563,214.2344 311.8281,212.5938 Q310.5156,210.9375 310.5156,207.8125 Q310.5156,204.6875 311.8281,203.0313 Q313.1563,201.375 315.6563,201.375 Q316.3594,201.375 317,201.5313 Q317.6563,201.6875 318.2188,201.9844 L318.2188,204.7031 Q317.5938,204.125 317,203.8594 Q316.4063,203.5781 315.7813,203.5781 Q314.4375,203.5781 313.75,204.6563 Q313.0625,205.7188 313.0625,207.8125 Q313.0625,209.9063 313.75,210.9844 Q314.4375,212.0469 315.7813,212.0469 Q316.4063,212.0469 317,211.7813 Q317.5938,211.5 318.2188,210.9219 L318.2188,213.6406 Z " fill="#000000"/><text fill="#000000" font-family="sans-serif" font-size="12" lengthAdjust="spacing" textLength="118" x="335.75" y="212.1543">Accuracy2D&lt;Unit&gt;</text><line style="stroke:#A80036;stroke-width:1.5;" x1="268" x2="489" y1="224" y2="224"/><ellipse cx="278" cy="235" rx="3" ry="3" style="stroke:#038048;stroke-width:1.0;fill:none;"/><text fill="#000000" font-family="sans-serif" font-size="11" lengthAdjust="spacing" textLength="85" x="287" y="238.2104">value : Vector3</text><polygon fill="none" points="278,242.8047,282,246.8047,278,250.8047,274,246.8047" style="stroke:#B38D22;stroke-width:1.0;"/><text fill="#000000" font-family="sans-serif" font-size="11" lengthAdjust="spacing" textLength="61" x="287" y="251.0151">_unit : Unit</text><line style="stroke:#A80036;stroke-width:1.5;" x1="268" x2="489" y1="257.6094" y2="257.6094"/><ellipse cx="278" cy="268.6094" fill="#84BE84" rx="3" ry="3" style="stroke:#038048;stroke-width:1.0;"/><text fill="#000000" font-family="sans-serif" font-size="11" lengthAdjust="spacing" textLength="155" x="287" y="271.8198">clone() : Accuracy2D&lt;Unit&gt;</text><ellipse cx="278" cy="281.4141" fill="#84BE84" rx="3" ry="3" style="stroke:#038048;stroke-width:1.0;"/><text fill="#000000" font-family="sans-serif" font-size="11" lengthAdjust="spacing" textLength="197" x="287" y="284.6245">to&lt;T&gt;(unit: T) : Accuracy2D&lt;Unit&gt;</text><ellipse cx="278" cy="294.2188" fill="#84BE84" rx="3" ry="3" style="stroke:#038048;stroke-width:1.0;"/><text fill="#000000" font-family="sans-serif" font-size="11" lengthAdjust="spacing" textLength="98" x="287" y="297.4292">toString() : string</text><ellipse cx="278" cy="307.0234" fill="#84BE84" rx="3" ry="3" style="stroke:#038048;stroke-width:1.0;"/><text fill="#000000" font-family="sans-serif" font-size="11" lengthAdjust="spacing" textLength="107" x="287" y="310.2339">valueOf() : number</text><!--MD5=[1560aad2329e307b13d23cf94dc1a53d]
reverse link Accuracy<U, T> to Accuracy1D<Unit>--><path codeLine="20" d="M194.32,148.78 C184.19,163.14 173.75,177.96 164.02,191.76 " fill="none" id="Accuracy&lt;U, T&gt;-backto-Accuracy1D&lt;Unit&gt;" style="stroke:#A80036;stroke-width:1.0;"/><polygon fill="none" points="188.76,144.51,206.01,132.2,200.2,152.58,188.76,144.51" style="stroke:#A80036;stroke-width:1.0;"/><!--MD5=[2ff5a2821a779071185ef53a64da0030]
reverse link Accuracy<U, T> to Accuracy2D<Unit>--><path codeLine="29" d="M304.68,148.78 C314.81,163.14 325.25,177.96 334.98,191.76 " fill="none" id="Accuracy&lt;U, T&gt;-backto-Accuracy2D&lt;Unit&gt;" style="stroke:#A80036;stroke-width:1.0;"/><polygon fill="none" points="298.8,152.58,292.99,132.2,310.24,144.51,298.8,152.58" style="stroke:#A80036;stroke-width:1.0;"/><!--MD5=[6c44adbb41777d299f97c09bcf6e9165]
@startuml
skinparam BackgroundColor transparent
hide empty methods
hide empty fields
abstract class "Accuracy<U, T>" {
    +value : T
    #_unit : U
    +clone() : Accuracy<U, T>
    +to<T>(unit: T) : Accuracy<U, T>
    {abstract} +toString() : string
    {abstract} +valueOf() : number
}
class "Accuracy1D<Unit>" {
    +value : number
    #_unit : Unit
    +clone() : Accuracy1D<Unit>
    +to<T>(unit: T) : Accuracy1D<Unit>
    +toString() : string
    +valueOf() : number
}
"Accuracy<U, T>" <|- - "Accuracy1D<Unit>"
class "Accuracy2D<Unit>" {
    +value : Vector3
    #_unit : Unit
    +clone() : Accuracy2D<Unit>
    +to<T>(unit: T) : Accuracy2D<Unit>
    +toString() : string
    +valueOf() : number
}
"Accuracy<U, T>" <|- - "Accuracy2D<Unit>"
@enduml

PlantUML version 1.2021.14(Fri Nov 12 16:46:50 UTC 2021)
(GPL source distribution)
Java Runtime: OpenJDK Runtime Environment
JVM: OpenJDK 64-Bit Server VM
Default Encoding: UTF-8
Language: en
Country: null
--></g></svg>