<?xml version="1.0" encoding="us-ascii" standalone="no"?><svg xmlns="http://www.w3.org/2000/svg" xmlns:xlink="http://www.w3.org/1999/xlink" contentStyleType="text/css" height="138px" preserveAspectRatio="none" style="width:206px;height:138px;" version="1.1" viewBox="0 0 206 138" width="206px" zoomAndPan="magnify"><defs/><g><!--class Accuracy1D<U>--><g id="elem_Accuracy1D&lt;U&gt;"><rect codeLine="4" fill="#F1F1F1" height="32" id="Accuracy1D&lt;U&gt;" rx="2.5" ry="2.5" style="stroke:#181818;stroke-width:0.5;" width="148" x="29" y="99"/><ellipse cx="44" cy="115" fill="#ADD1B2" rx="11" ry="11" style="stroke:#181818;stroke-width:1.0;"/><path d="M46.9688,120.6406 Q46.3906,120.9375 45.75,121.0781 Q45.1094,121.2344 44.4063,121.2344 Q41.9063,121.2344 40.5781,119.5938 Q39.2656,117.9375 39.2656,114.8125 Q39.2656,111.6875 40.5781,110.0313 Q41.9063,108.375 44.4063,108.375 Q45.1094,108.375 45.75,108.5313 Q46.4063,108.6875 46.9688,108.9844 L46.9688,111.7031 Q46.3438,111.125 45.75,110.8594 Q45.1563,110.5781 44.5313,110.5781 Q43.1875,110.5781 42.5,111.6563 Q41.8125,112.7188 41.8125,114.8125 Q41.8125,116.9063 42.5,117.9844 Q43.1875,119.0469 44.5313,119.0469 Q45.1563,119.0469 45.75,118.7813 Q46.3438,118.5 46.9688,117.9219 L46.9688,120.6406 Z " fill="#000000"/><text fill="#000000" font-family="sans-serif" font-size="14" lengthAdjust="spacing" textLength="116" x="58" y="119.8467">Accuracy1D&lt;U&gt;</text></g><!--class Accuracy<U, number>--><g id="elem_Accuracy&lt;U, number&gt;"><rect codeLine="6" fill="#F1F1F1" height="32" id="Accuracy&lt;U, number&gt;" rx="2.5" ry="2.5" style="stroke:#181818;stroke-width:0.5;" width="192" x="7" y="7"/><ellipse cx="22" cy="23" fill="#A9DCDF" rx="11" ry="11" style="stroke:#181818;stroke-width:1.0;"/><path d="M22.1094,18.3438 L20.9531,23.4219 L23.2813,23.4219 L22.1094,18.3438 Z M20.625,16.1094 L23.6094,16.1094 L26.9688,28.5 L24.5156,28.5 L23.75,25.4375 L20.4688,25.4375 L19.7188,28.5 L17.2813,28.5 L20.625,16.1094 Z " fill="#000000"/><text fill="#000000" font-family="sans-serif" font-size="14" font-style="italic" lengthAdjust="spacing" textLength="160" x="36" y="27.8467">Accuracy&lt;U, number&gt;</text></g><!--reverse link Accuracy<U, number> to Accuracy1D<U>--><g id="link_Accuracy&lt;U, number&gt;_Accuracy1D&lt;U&gt;"><path codeLine="8" d="M103,59.61 C103,73.31 103,88.22 103,98.96 " fill="none" id="Accuracy&lt;U, number&gt;-backto-Accuracy1D&lt;U&gt;" style="stroke:#181818;stroke-width:1.0;"/><polygon fill="none" points="96,59.27,103,39.27,110,59.27,96,59.27" style="stroke:#181818;stroke-width:1.0;"/></g><!--SRC=[ROmv3eCm401xls957OhqLgGSN-01oteJB7oWNRj0IVwE2ue8fPqPZSu-BIWOuOOqloJNvEuvP84YcBGfJiLCtZ5mNCeAaSkKdVwYf-VG20LKXUvAL0LfFJ_iSEdWRRu6HsqtAd18x722LEF8ieV_ZVtq_V6x0G00]--></g></svg>