<?xml version="1.0" encoding="UTF-8" standalone="no"?><svg xmlns="http://www.w3.org/2000/svg" xmlns:xlink="http://www.w3.org/1999/xlink" contentScriptType="application/ecmascript" contentStyleType="text/css" height="515px" preserveAspectRatio="none" style="width:246px;height:515px;background:#00000000;" version="1.1" viewBox="0 0 246 515" width="246px" zoomAndPan="magnify"><defs><filter height="300%" id="fqk5m7trec8y9" width="300%" x="-1" y="-1"><feGaussianBlur result="blurOut" stdDeviation="2.0"/><feColorMatrix in="blurOut" result="blurOut2" type="matrix" values="0 0 0 0 0 0 0 0 0 0 0 0 0 0 0 0 0 0 .4 0"/><feOffset dx="4.0" dy="4.0" in="blurOut2" result="blurOut3"/><feBlend in="SourceGraphic" in2="blurOut3" mode="normal"/></filter></defs><g><!--MD5=[720443c2bbab5d0d95635016e1422be0]
class Accuracy2D<U>--><rect codeLine="4" fill="#FEFECE" filter="url(#fqk5m7trec8y9)" height="124.8281" id="Accuracy2D&lt;U&gt;" style="stroke:#A80036;stroke-width:1.5;" width="209" x="16" y="192"/><ellipse cx="65.25" cy="208" fill="#ADD1B2" rx="11" ry="11" style="stroke:#A80036;stroke-width:1.0;"/><path d="M68.2188,213.6406 Q67.6406,213.9375 67,214.0781 Q66.3594,214.2344 65.6563,214.2344 Q63.1563,214.2344 61.8281,212.5938 Q60.5156,210.9375 60.5156,207.8125 Q60.5156,204.6875 61.8281,203.0313 Q63.1563,201.375 65.6563,201.375 Q66.3594,201.375 67,201.5313 Q67.6563,201.6875 68.2188,201.9844 L68.2188,204.7031 Q67.5938,204.125 67,203.8594 Q66.4063,203.5781 65.7813,203.5781 Q64.4375,203.5781 63.75,204.6563 Q63.0625,205.7188 63.0625,207.8125 Q63.0625,209.9063 63.75,210.9844 Q64.4375,212.0469 65.7813,212.0469 Q66.4063,212.0469 67,211.7813 Q67.5938,211.5 68.2188,210.9219 L68.2188,213.6406 Z " fill="#000000"/><text fill="#000000" font-family="sans-serif" font-size="12" lengthAdjust="spacing" textLength="102" x="85.75" y="212.1543">Accuracy2D&lt;U&gt;</text><line style="stroke:#A80036;stroke-width:1.5;" x1="17" x2="224" y1="224" y2="224"/><ellipse cx="27" cy="235" rx="3" ry="3" style="stroke:#038048;stroke-width:1.0;fill:none;"/><text fill="#000000" font-family="sans-serif" font-size="11" lengthAdjust="spacing" textLength="85" x="36" y="238.2104">value : Vector3</text><polygon fill="none" points="27,242.8047,31,246.8047,27,250.8047,23,246.8047" style="stroke:#B38D22;stroke-width:1.0;"/><text fill="#000000" font-family="sans-serif" font-size="11" lengthAdjust="spacing" textLength="47" x="36" y="251.0151">_unit : U</text><line style="stroke:#A80036;stroke-width:1.5;" x1="17" x2="224" y1="257.6094" y2="257.6094"/><ellipse cx="27" cy="268.6094" fill="#84BE84" rx="3" ry="3" style="stroke:#038048;stroke-width:1.0;"/><text fill="#000000" font-family="sans-serif" font-size="11" lengthAdjust="spacing" textLength="141" x="36" y="271.8198">clone() : Accuracy2D&lt;U&gt;</text><ellipse cx="27" cy="281.4141" fill="#84BE84" rx="3" ry="3" style="stroke:#038048;stroke-width:1.0;"/><text fill="#000000" font-family="sans-serif" font-size="11" lengthAdjust="spacing" textLength="183" x="36" y="284.6245">to&lt;T&gt;(unit: T) : Accuracy2D&lt;U&gt;</text><ellipse cx="27" cy="294.2188" fill="#84BE84" rx="3" ry="3" style="stroke:#038048;stroke-width:1.0;"/><text fill="#000000" font-family="sans-serif" font-size="11" lengthAdjust="spacing" textLength="98" x="36" y="297.4292">toString() : string</text><ellipse cx="27" cy="307.0234" fill="#84BE84" rx="3" ry="3" style="stroke:#038048;stroke-width:1.0;"/><text fill="#000000" font-family="sans-serif" font-size="11" lengthAdjust="spacing" textLength="107" x="36" y="310.2339">valueOf() : number</text><!--MD5=[a6c1bde69f75a18f3adf07be3593c36f]
class Accuracy<U, Vector3>--><rect codeLine="12" fill="#FEFECE" filter="url(#fqk5m7trec8y9)" height="124.8281" id="Accuracy&lt;U, Vector3&gt;" style="stroke:#A80036;stroke-width:1.5;" width="209" x="16" y="7"/><ellipse cx="46.3" cy="23" fill="#A9DCDF" rx="11" ry="11" style="stroke:#A80036;stroke-width:1.0;"/><path d="M46.4094,18.3438 L45.2531,23.4219 L47.5813,23.4219 L46.4094,18.3438 Z M44.925,16.1094 L47.9094,16.1094 L51.2688,28.5 L48.8156,28.5 L48.05,25.4375 L44.7688,25.4375 L44.0188,28.5 L41.5813,28.5 L44.925,16.1094 Z " fill="#000000"/><text fill="#000000" font-family="sans-serif" font-size="12" font-style="italic" lengthAdjust="spacing" textLength="143" x="63.7" y="27.1543">Accuracy&lt;U, Vector3&gt;</text><line style="stroke:#A80036;stroke-width:1.5;" x1="17" x2="224" y1="39" y2="39"/><ellipse cx="27" cy="50" rx="3" ry="3" style="stroke:#038048;stroke-width:1.0;fill:none;"/><text fill="#000000" font-family="sans-serif" font-size="11" lengthAdjust="spacing" textLength="85" x="36" y="53.2104">value : Vector3</text><polygon fill="none" points="27,57.8047,31,61.8047,27,65.8047,23,61.8047" style="stroke:#B38D22;stroke-width:1.0;"/><text fill="#000000" font-family="sans-serif" font-size="11" lengthAdjust="spacing" textLength="47" x="36" y="66.0151">_unit : U</text><line style="stroke:#A80036;stroke-width:1.5;" x1="17" x2="224" y1="72.6094" y2="72.6094"/><ellipse cx="27" cy="83.6094" fill="#84BE84" rx="3" ry="3" style="stroke:#038048;stroke-width:1.0;"/><text fill="#000000" font-family="sans-serif" font-size="11" lengthAdjust="spacing" textLength="177" x="36" y="86.8198">clone() : Accuracy&lt;U, Vector3&gt;</text><ellipse cx="27" cy="96.4141" fill="#84BE84" rx="3" ry="3" style="stroke:#038048;stroke-width:1.0;"/><text fill="#000000" font-family="sans-serif" font-size="11" lengthAdjust="spacing" textLength="183" x="36" y="99.6245">to&lt;T&gt;(unit: T) : Accuracy&lt;U, T&gt;</text><ellipse cx="27" cy="109.2188" fill="#84BE84" rx="3" ry="3" style="stroke:#038048;stroke-width:1.0;"/><text fill="#000000" font-family="sans-serif" font-size="11" font-style="italic" lengthAdjust="spacing" textLength="96" x="36" y="112.4292">toString() : string</text><ellipse cx="27" cy="122.0234" fill="#84BE84" rx="3" ry="3" style="stroke:#038048;stroke-width:1.0;"/><text fill="#000000" font-family="sans-serif" font-size="11" font-style="italic" lengthAdjust="spacing" textLength="108" x="36" y="125.2339">valueOf() : number</text><!--MD5=[02c942dba7c4b5bde3e3b34d60026cd6]
class Accuracy3D<Unit>--><rect codeLine="21" fill="#FEFECE" filter="url(#fqk5m7trec8y9)" height="124.8281" id="Accuracy3D&lt;Unit&gt;" style="stroke:#A80036;stroke-width:1.5;" width="223" x="9" y="377"/><ellipse cx="57.25" cy="393" fill="#ADD1B2" rx="11" ry="11" style="stroke:#A80036;stroke-width:1.0;"/><path d="M60.2188,398.6406 Q59.6406,398.9375 59,399.0781 Q58.3594,399.2344 57.6563,399.2344 Q55.1563,399.2344 53.8281,397.5938 Q52.5156,395.9375 52.5156,392.8125 Q52.5156,389.6875 53.8281,388.0313 Q55.1563,386.375 57.6563,386.375 Q58.3594,386.375 59,386.5313 Q59.6563,386.6875 60.2188,386.9844 L60.2188,389.7031 Q59.5938,389.125 59,388.8594 Q58.4063,388.5781 57.7813,388.5781 Q56.4375,388.5781 55.75,389.6563 Q55.0625,390.7188 55.0625,392.8125 Q55.0625,394.9063 55.75,395.9844 Q56.4375,397.0469 57.7813,397.0469 Q58.4063,397.0469 59,396.7813 Q59.5938,396.5 60.2188,395.9219 L60.2188,398.6406 Z " fill="#000000"/><text fill="#000000" font-family="sans-serif" font-size="12" lengthAdjust="spacing" textLength="118" x="77.75" y="397.1543">Accuracy3D&lt;Unit&gt;</text><line style="stroke:#A80036;stroke-width:1.5;" x1="10" x2="231" y1="409" y2="409"/><ellipse cx="20" cy="420" rx="3" ry="3" style="stroke:#038048;stroke-width:1.0;fill:none;"/><text fill="#000000" font-family="sans-serif" font-size="11" lengthAdjust="spacing" textLength="85" x="29" y="423.2104">value : Vector3</text><polygon fill="none" points="20,427.8047,24,431.8047,20,435.8047,16,431.8047" style="stroke:#B38D22;stroke-width:1.0;"/><text fill="#000000" font-family="sans-serif" font-size="11" lengthAdjust="spacing" textLength="61" x="29" y="436.0151">_unit : Unit</text><line style="stroke:#A80036;stroke-width:1.5;" x1="10" x2="231" y1="442.6094" y2="442.6094"/><ellipse cx="20" cy="453.6094" fill="#84BE84" rx="3" ry="3" style="stroke:#038048;stroke-width:1.0;"/><text fill="#000000" font-family="sans-serif" font-size="11" lengthAdjust="spacing" textLength="155" x="29" y="456.8198">clone() : Accuracy3D&lt;Unit&gt;</text><ellipse cx="20" cy="466.4141" fill="#84BE84" rx="3" ry="3" style="stroke:#038048;stroke-width:1.0;"/><text fill="#000000" font-family="sans-serif" font-size="11" lengthAdjust="spacing" textLength="197" x="29" y="469.6245">to&lt;T&gt;(unit: T) : Accuracy3D&lt;Unit&gt;</text><ellipse cx="20" cy="479.2188" fill="#84BE84" rx="3" ry="3" style="stroke:#038048;stroke-width:1.0;"/><text fill="#000000" font-family="sans-serif" font-size="11" lengthAdjust="spacing" textLength="98" x="29" y="482.4292">toString() : string</text><ellipse cx="20" cy="492.0234" fill="#84BE84" rx="3" ry="3" style="stroke:#038048;stroke-width:1.0;"/><text fill="#000000" font-family="sans-serif" font-size="11" lengthAdjust="spacing" textLength="107" x="29" y="495.2339">valueOf() : number</text><!--MD5=[8744155078d32a694499c7d53c5ae69d]
reverse link Accuracy<U, Vector3> to Accuracy2D<U>--><path codeLine="20" d="M120.5,152.53 C120.5,165.71 120.5,179.16 120.5,191.76 " fill="none" id="Accuracy&lt;U, Vector3&gt;-backto-Accuracy2D&lt;U&gt;" style="stroke:#A80036;stroke-width:1.0;"/><polygon fill="none" points="113.5,152.2,120.5,132.2,127.5,152.2,113.5,152.2" style="stroke:#A80036;stroke-width:1.0;"/><!--MD5=[57a08163b292cd4125ebb68f820871ee]
reverse link Accuracy2D<U> to Accuracy3D<Unit>--><path codeLine="29" d="M120.5,337.53 C120.5,350.71 120.5,364.16 120.5,376.76 " fill="none" id="Accuracy2D&lt;U&gt;-backto-Accuracy3D&lt;Unit&gt;" style="stroke:#A80036;stroke-width:1.0;"/><polygon fill="none" points="113.5,337.2,120.5,317.2,127.5,337.2,113.5,337.2" style="stroke:#A80036;stroke-width:1.0;"/><!--MD5=[3f1281c47dbdb7e8e65558c9f5f9769c]
@startuml
skinparam BackgroundColor transparent
hide empty methods
hide empty fields
class "Accuracy2D<U>" {
    +value : Vector3
    #_unit : U
    +clone() : Accuracy2D<U>
    +to<T>(unit: T) : Accuracy2D<U>
    +toString() : string
    +valueOf() : number
}
abstract class "Accuracy<U, Vector3>" {
    +value : Vector3
    #_unit : U
    +clone() : Accuracy<U, Vector3>
    +to<T>(unit: T) : Accuracy<U, T>
    {abstract} +toString() : string
    {abstract} +valueOf() : number
}
"Accuracy<U, Vector3>" <|- - "Accuracy2D<U>"
class "Accuracy3D<Unit>" {
    +value : Vector3
    #_unit : Unit
    +clone() : Accuracy3D<Unit>
    +to<T>(unit: T) : Accuracy3D<Unit>
    +toString() : string
    +valueOf() : number
}
"Accuracy2D<U>" <|- - "Accuracy3D<Unit>"
@enduml

PlantUML version 1.2021.14(Fri Nov 12 16:46:50 UTC 2021)
(GPL source distribution)
Java Runtime: OpenJDK Runtime Environment
JVM: OpenJDK 64-Bit Server VM
Default Encoding: UTF-8
Language: en
Country: null
--></g></svg>