<?xml version="1.0" encoding="us-ascii" standalone="no"?><svg xmlns="http://www.w3.org/2000/svg" xmlns:xlink="http://www.w3.org/1999/xlink" contentStyleType="text/css" height="138px" preserveAspectRatio="none" style="width:379px;height:138px;" version="1.1" viewBox="0 0 379 138" width="379px" zoomAndPan="magnify"><defs/><g><!--class Accuracy<U, T>--><g id="elem_Accuracy&lt;U, T&gt;"><rect codeLine="4" fill="#F1F1F1" height="32" id="Accuracy&lt;U, T&gt;" rx="2.5" ry="2.5" style="stroke:#181818;stroke-width:0.5;" width="147" x="116" y="7"/><ellipse cx="131" cy="23" fill="#A9DCDF" rx="11" ry="11" style="stroke:#181818;stroke-width:1.0;"/><path d="M131.1094,18.3438 L129.9531,23.4219 L132.2813,23.4219 L131.1094,18.3438 Z M129.625,16.1094 L132.6094,16.1094 L135.9688,28.5 L133.5156,28.5 L132.75,25.4375 L129.4688,25.4375 L128.7188,28.5 L126.2813,28.5 L129.625,16.1094 Z " fill="#000000"/><text fill="#000000" font-family="sans-serif" font-size="14" font-style="italic" lengthAdjust="spacing" textLength="115" x="145" y="27.8467">Accuracy&lt;U, T&gt;</text></g><!--class Accuracy1D<Unit>--><g id="elem_Accuracy1D&lt;Unit&gt;"><rect codeLine="6" fill="#F1F1F1" height="32" id="Accuracy1D&lt;Unit&gt;" rx="2.5" ry="2.5" style="stroke:#181818;stroke-width:0.5;" width="165" x="7" y="99"/><ellipse cx="22" cy="115" fill="#ADD1B2" rx="11" ry="11" style="stroke:#181818;stroke-width:1.0;"/><path d="M24.9688,120.6406 Q24.3906,120.9375 23.75,121.0781 Q23.1094,121.2344 22.4063,121.2344 Q19.9063,121.2344 18.5781,119.5938 Q17.2656,117.9375 17.2656,114.8125 Q17.2656,111.6875 18.5781,110.0313 Q19.9063,108.375 22.4063,108.375 Q23.1094,108.375 23.75,108.5313 Q24.4063,108.6875 24.9688,108.9844 L24.9688,111.7031 Q24.3438,111.125 23.75,110.8594 Q23.1563,110.5781 22.5313,110.5781 Q21.1875,110.5781 20.5,111.6563 Q19.8125,112.7188 19.8125,114.8125 Q19.8125,116.9063 20.5,117.9844 Q21.1875,119.0469 22.5313,119.0469 Q23.1563,119.0469 23.75,118.7813 Q24.3438,118.5 24.9688,117.9219 L24.9688,120.6406 Z " fill="#000000"/><text fill="#000000" font-family="sans-serif" font-size="14" lengthAdjust="spacing" textLength="133" x="36" y="119.8467">Accuracy1D&lt;Unit&gt;</text></g><!--class Accuracy2D<Unit>--><g id="elem_Accuracy2D&lt;Unit&gt;"><rect codeLine="9" fill="#F1F1F1" height="32" id="Accuracy2D&lt;Unit&gt;" rx="2.5" ry="2.5" style="stroke:#181818;stroke-width:0.5;" width="165" x="207" y="99"/><ellipse cx="222" cy="115" fill="#ADD1B2" rx="11" ry="11" style="stroke:#181818;stroke-width:1.0;"/><path d="M224.9688,120.6406 Q224.3906,120.9375 223.75,121.0781 Q223.1094,121.2344 222.4063,121.2344 Q219.9063,121.2344 218.5781,119.5938 Q217.2656,117.9375 217.2656,114.8125 Q217.2656,111.6875 218.5781,110.0313 Q219.9063,108.375 222.4063,108.375 Q223.1094,108.375 223.75,108.5313 Q224.4063,108.6875 224.9688,108.9844 L224.9688,111.7031 Q224.3438,111.125 223.75,110.8594 Q223.1563,110.5781 222.5313,110.5781 Q221.1875,110.5781 220.5,111.6563 Q219.8125,112.7188 219.8125,114.8125 Q219.8125,116.9063 220.5,117.9844 Q221.1875,119.0469 222.5313,119.0469 Q223.1563,119.0469 223.75,118.7813 Q224.3438,118.5 224.9688,117.9219 L224.9688,120.6406 Z " fill="#000000"/><text fill="#000000" font-family="sans-serif" font-size="14" lengthAdjust="spacing" textLength="133" x="236" y="119.8467">Accuracy2D&lt;Unit&gt;</text></g><!--reverse link Accuracy<U, T> to Accuracy1D<Unit>--><g id="link_Accuracy&lt;U, T&gt;_Accuracy1D&lt;Unit&gt;"><path codeLine="8" d="M157.48,52.81 C140.43,68.16 120.16,86.41 106.21,98.96 " fill="none" id="Accuracy&lt;U, T&gt;-backto-Accuracy1D&lt;Unit&gt;" style="stroke:#181818;stroke-width:1.0;"/><polygon fill="none" points="152.99,47.44,172.54,39.27,162.35,57.85,152.99,47.44" style="stroke:#181818;stroke-width:1.0;"/></g><!--reverse link Accuracy<U, T> to Accuracy2D<Unit>--><g id="link_Accuracy&lt;U, T&gt;_Accuracy2D&lt;Unit&gt;"><path codeLine="11" d="M221.52,52.81 C238.57,68.16 258.84,86.41 272.79,98.96 " fill="none" id="Accuracy&lt;U, T&gt;-backto-Accuracy2D&lt;Unit&gt;" style="stroke:#181818;stroke-width:1.0;"/><polygon fill="none" points="216.65,57.85,206.46,39.27,226.01,47.44,216.65,57.85" style="stroke:#181818;stroke-width:1.0;"/></g><!--SRC=[AyxEp2j8B4hCLN1AJCvEByelpKjnpi_9Br8eAKhCAmPAfUQLS6LafgGgfEOMb5GgvAQMPEId52CBfMMcvW154fEAWNgIInIISnABYnMK79EJIu7yIfjG7OKGEoM5QgvQBZGfGnURqBpC4gWaXWwR6brTB8hHJJ4YnHIuOW00]--></g></svg>