<?xml version="1.0" encoding="UTF-8" standalone="no"?><svg xmlns="http://www.w3.org/2000/svg" xmlns:xlink="http://www.w3.org/1999/xlink" contentScriptType="application/ecmascript" contentStyleType="text/css" height="330px" preserveAspectRatio="none" style="width:232px;height:330px;background:#00000000;" version="1.1" viewBox="0 0 232 330" width="232px" zoomAndPan="magnify"><defs><filter height="300%" id="f142sa5a4i9sig" width="300%" x="-1" y="-1"><feGaussianBlur result="blurOut" stdDeviation="2.0"/><feColorMatrix in="blurOut" result="blurOut2" type="matrix" values="0 0 0 0 0 0 0 0 0 0 0 0 0 0 0 0 0 0 .4 0"/><feOffset dx="4.0" dy="4.0" in="blurOut2" result="blurOut3"/><feBlend in="SourceGraphic" in2="blurOut3" mode="normal"/></filter></defs><g><!--MD5=[e674e5ddc03d4756b03b9ce49590d3c3]
class Accuracy3D<U>--><rect codeLine="4" fill="#FEFECE" filter="url(#f142sa5a4i9sig)" height="124.8281" id="Accuracy3D&lt;U&gt;" style="stroke:#A80036;stroke-width:1.5;" width="209" x="9" y="192"/><ellipse cx="58.25" cy="208" fill="#ADD1B2" rx="11" ry="11" style="stroke:#A80036;stroke-width:1.0;"/><path d="M61.2188,213.6406 Q60.6406,213.9375 60,214.0781 Q59.3594,214.2344 58.6563,214.2344 Q56.1563,214.2344 54.8281,212.5938 Q53.5156,210.9375 53.5156,207.8125 Q53.5156,204.6875 54.8281,203.0313 Q56.1563,201.375 58.6563,201.375 Q59.3594,201.375 60,201.5313 Q60.6563,201.6875 61.2188,201.9844 L61.2188,204.7031 Q60.5938,204.125 60,203.8594 Q59.4063,203.5781 58.7813,203.5781 Q57.4375,203.5781 56.75,204.6563 Q56.0625,205.7188 56.0625,207.8125 Q56.0625,209.9063 56.75,210.9844 Q57.4375,212.0469 58.7813,212.0469 Q59.4063,212.0469 60,211.7813 Q60.5938,211.5 61.2188,210.9219 L61.2188,213.6406 Z " fill="#000000"/><text fill="#000000" font-family="sans-serif" font-size="12" lengthAdjust="spacing" textLength="102" x="78.75" y="212.1543">Accuracy3D&lt;U&gt;</text><line style="stroke:#A80036;stroke-width:1.5;" x1="10" x2="217" y1="224" y2="224"/><ellipse cx="20" cy="235" rx="3" ry="3" style="stroke:#038048;stroke-width:1.0;fill:none;"/><text fill="#000000" font-family="sans-serif" font-size="11" lengthAdjust="spacing" textLength="85" x="29" y="238.2104">value : Vector3</text><polygon fill="none" points="20,242.8047,24,246.8047,20,250.8047,16,246.8047" style="stroke:#B38D22;stroke-width:1.0;"/><text fill="#000000" font-family="sans-serif" font-size="11" lengthAdjust="spacing" textLength="47" x="29" y="251.0151">_unit : U</text><line style="stroke:#A80036;stroke-width:1.5;" x1="10" x2="217" y1="257.6094" y2="257.6094"/><ellipse cx="20" cy="268.6094" fill="#84BE84" rx="3" ry="3" style="stroke:#038048;stroke-width:1.0;"/><text fill="#000000" font-family="sans-serif" font-size="11" lengthAdjust="spacing" textLength="141" x="29" y="271.8198">clone() : Accuracy3D&lt;U&gt;</text><ellipse cx="20" cy="281.4141" fill="#84BE84" rx="3" ry="3" style="stroke:#038048;stroke-width:1.0;"/><text fill="#000000" font-family="sans-serif" font-size="11" lengthAdjust="spacing" textLength="183" x="29" y="284.6245">to&lt;T&gt;(unit: T) : Accuracy3D&lt;U&gt;</text><ellipse cx="20" cy="294.2188" fill="#84BE84" rx="3" ry="3" style="stroke:#038048;stroke-width:1.0;"/><text fill="#000000" font-family="sans-serif" font-size="11" lengthAdjust="spacing" textLength="98" x="29" y="297.4292">toString() : string</text><ellipse cx="20" cy="307.0234" fill="#84BE84" rx="3" ry="3" style="stroke:#038048;stroke-width:1.0;"/><text fill="#000000" font-family="sans-serif" font-size="11" lengthAdjust="spacing" textLength="107" x="29" y="310.2339">valueOf() : number</text><!--MD5=[720443c2bbab5d0d95635016e1422be0]
class Accuracy2D<U>--><rect codeLine="12" fill="#FEFECE" filter="url(#f142sa5a4i9sig)" height="124.8281" id="Accuracy2D&lt;U&gt;" style="stroke:#A80036;stroke-width:1.5;" width="209" x="9" y="7"/><ellipse cx="58.25" cy="23" fill="#ADD1B2" rx="11" ry="11" style="stroke:#A80036;stroke-width:1.0;"/><path d="M61.2188,28.6406 Q60.6406,28.9375 60,29.0781 Q59.3594,29.2344 58.6563,29.2344 Q56.1563,29.2344 54.8281,27.5938 Q53.5156,25.9375 53.5156,22.8125 Q53.5156,19.6875 54.8281,18.0313 Q56.1563,16.375 58.6563,16.375 Q59.3594,16.375 60,16.5313 Q60.6563,16.6875 61.2188,16.9844 L61.2188,19.7031 Q60.5938,19.125 60,18.8594 Q59.4063,18.5781 58.7813,18.5781 Q57.4375,18.5781 56.75,19.6563 Q56.0625,20.7188 56.0625,22.8125 Q56.0625,24.9063 56.75,25.9844 Q57.4375,27.0469 58.7813,27.0469 Q59.4063,27.0469 60,26.7813 Q60.5938,26.5 61.2188,25.9219 L61.2188,28.6406 Z " fill="#000000"/><text fill="#000000" font-family="sans-serif" font-size="12" lengthAdjust="spacing" textLength="102" x="78.75" y="27.1543">Accuracy2D&lt;U&gt;</text><line style="stroke:#A80036;stroke-width:1.5;" x1="10" x2="217" y1="39" y2="39"/><ellipse cx="20" cy="50" rx="3" ry="3" style="stroke:#038048;stroke-width:1.0;fill:none;"/><text fill="#000000" font-family="sans-serif" font-size="11" lengthAdjust="spacing" textLength="85" x="29" y="53.2104">value : Vector3</text><polygon fill="none" points="20,57.8047,24,61.8047,20,65.8047,16,61.8047" style="stroke:#B38D22;stroke-width:1.0;"/><text fill="#000000" font-family="sans-serif" font-size="11" lengthAdjust="spacing" textLength="47" x="29" y="66.0151">_unit : U</text><line style="stroke:#A80036;stroke-width:1.5;" x1="10" x2="217" y1="72.6094" y2="72.6094"/><ellipse cx="20" cy="83.6094" fill="#84BE84" rx="3" ry="3" style="stroke:#038048;stroke-width:1.0;"/><text fill="#000000" font-family="sans-serif" font-size="11" lengthAdjust="spacing" textLength="141" x="29" y="86.8198">clone() : Accuracy2D&lt;U&gt;</text><ellipse cx="20" cy="96.4141" fill="#84BE84" rx="3" ry="3" style="stroke:#038048;stroke-width:1.0;"/><text fill="#000000" font-family="sans-serif" font-size="11" lengthAdjust="spacing" textLength="183" x="29" y="99.6245">to&lt;T&gt;(unit: T) : Accuracy2D&lt;U&gt;</text><ellipse cx="20" cy="109.2188" fill="#84BE84" rx="3" ry="3" style="stroke:#038048;stroke-width:1.0;"/><text fill="#000000" font-family="sans-serif" font-size="11" lengthAdjust="spacing" textLength="98" x="29" y="112.4292">toString() : string</text><ellipse cx="20" cy="122.0234" fill="#84BE84" rx="3" ry="3" style="stroke:#038048;stroke-width:1.0;"/><text fill="#000000" font-family="sans-serif" font-size="11" lengthAdjust="spacing" textLength="107" x="29" y="125.2339">valueOf() : number</text><!--MD5=[65a5560cee99195aa221cd612d1b4c54]
reverse link Accuracy2D<U> to Accuracy3D<U>--><path codeLine="20" d="M113.5,152.53 C113.5,165.71 113.5,179.16 113.5,191.76 " fill="none" id="Accuracy2D&lt;U&gt;-backto-Accuracy3D&lt;U&gt;" style="stroke:#A80036;stroke-width:1.0;"/><polygon fill="none" points="106.5,152.2,113.5,132.2,120.5,152.2,106.5,152.2" style="stroke:#A80036;stroke-width:1.0;"/><!--MD5=[85bafdb03db50606699095b9adfe3ac1]
@startuml
skinparam BackgroundColor transparent
hide empty methods
hide empty fields
class "Accuracy3D<U>" {
    +value : Vector3
    #_unit : U
    +clone() : Accuracy3D<U>
    +to<T>(unit: T) : Accuracy3D<U>
    +toString() : string
    +valueOf() : number
}
class "Accuracy2D<U>" {
    +value : Vector3
    #_unit : U
    +clone() : Accuracy2D<U>
    +to<T>(unit: T) : Accuracy2D<U>
    +toString() : string
    +valueOf() : number
}
"Accuracy2D<U>" <|- - "Accuracy3D<U>"
@enduml

PlantUML version 1.2021.14(Fri Nov 12 16:46:50 UTC 2021)
(GPL source distribution)
Java Runtime: OpenJDK Runtime Environment
JVM: OpenJDK 64-Bit Server VM
Default Encoding: UTF-8
Language: en
Country: null
--></g></svg>