<?xml version="1.0" encoding="UTF-8" standalone="no"?><svg xmlns="http://www.w3.org/2000/svg" xmlns:xlink="http://www.w3.org/1999/xlink" contentScriptType="application/ecmascript" contentStyleType="text/css" height="145px" preserveAspectRatio="none" style="width:195px;height:145px;background:#00000000;" version="1.1" viewBox="0 0 195 145" width="195px" zoomAndPan="magnify"><defs><filter height="300%" id="fq8ew7j5f1o7m" width="300%" x="-1" y="-1"><feGaussianBlur result="blurOut" stdDeviation="2.0"/><feColorMatrix in="blurOut" result="blurOut2" type="matrix" values="0 0 0 0 0 0 0 0 0 0 0 0 0 0 0 0 0 0 .4 0"/><feOffset dx="4.0" dy="4.0" in="blurOut2" result="blurOut3"/><feBlend in="SourceGraphic" in2="blurOut3" mode="normal"/></filter></defs><g><!--MD5=[18f672e0e8bf38839284fccbee4a8cdd]
class Accuracy1D<U>--><rect codeLine="4" fill="#FEFECE" filter="url(#fq8ew7j5f1o7m)" height="32" id="Accuracy1D&lt;U&gt;" style="stroke:#A80036;stroke-width:1.5;" width="134" x="27" y="99"/><ellipse cx="42" cy="115" fill="#ADD1B2" rx="11" ry="11" style="stroke:#A80036;stroke-width:1.0;"/><path d="M44.9688,120.6406 Q44.3906,120.9375 43.75,121.0781 Q43.1094,121.2344 42.4063,121.2344 Q39.9063,121.2344 38.5781,119.5938 Q37.2656,117.9375 37.2656,114.8125 Q37.2656,111.6875 38.5781,110.0313 Q39.9063,108.375 42.4063,108.375 Q43.1094,108.375 43.75,108.5313 Q44.4063,108.6875 44.9688,108.9844 L44.9688,111.7031 Q44.3438,111.125 43.75,110.8594 Q43.1563,110.5781 42.5313,110.5781 Q41.1875,110.5781 40.5,111.6563 Q39.8125,112.7188 39.8125,114.8125 Q39.8125,116.9063 40.5,117.9844 Q41.1875,119.0469 42.5313,119.0469 Q43.1563,119.0469 43.75,118.7813 Q44.3438,118.5 44.9688,117.9219 L44.9688,120.6406 Z " fill="#000000"/><text fill="#000000" font-family="sans-serif" font-size="12" lengthAdjust="spacing" textLength="102" x="56" y="119.1543">Accuracy1D&lt;U&gt;</text><!--MD5=[af98afb0b55be5845139bc9a9b2958de]
class Accuracy<U, number>--><rect codeLine="6" fill="#FEFECE" filter="url(#fq8ew7j5f1o7m)" height="32" id="Accuracy&lt;U, number&gt;" style="stroke:#A80036;stroke-width:1.5;" width="174" x="7" y="7"/><ellipse cx="22" cy="23" fill="#A9DCDF" rx="11" ry="11" style="stroke:#A80036;stroke-width:1.0;"/><path d="M22.1094,18.3438 L20.9531,23.4219 L23.2813,23.4219 L22.1094,18.3438 Z M20.625,16.1094 L23.6094,16.1094 L26.9688,28.5 L24.5156,28.5 L23.75,25.4375 L20.4688,25.4375 L19.7188,28.5 L17.2813,28.5 L20.625,16.1094 Z " fill="#000000"/><text fill="#000000" font-family="sans-serif" font-size="12" font-style="italic" lengthAdjust="spacing" textLength="142" x="36" y="27.1543">Accuracy&lt;U, number&gt;</text><!--MD5=[176751cbaa71f2821c07a2ffc03d4318]
reverse link Accuracy<U, number> to Accuracy1D<U>--><path codeLine="8" d="M94,59.61 C94,73.31 94,88.22 94,98.96 " fill="none" id="Accuracy&lt;U, number&gt;-backto-Accuracy1D&lt;U&gt;" style="stroke:#A80036;stroke-width:1.0;"/><polygon fill="none" points="87,59.27,94,39.27,101,59.27,87,59.27" style="stroke:#A80036;stroke-width:1.0;"/><!--MD5=[058c89a7e9d054e8834ea4a10ebad6bc]
@startuml
skinparam BackgroundColor transparent
hide empty methods
hide empty fields
class "Accuracy1D<U>" {
}
abstract class "Accuracy<U, number>" {
}
"Accuracy<U, number>" <|- - "Accuracy1D<U>"
@enduml

PlantUML version 1.2021.14(Fri Nov 12 16:46:50 UTC 2021)
(GPL source distribution)
Java Runtime: OpenJDK Runtime Environment
JVM: OpenJDK 64-Bit Server VM
Default Encoding: UTF-8
Language: en
Country: null
--></g></svg>