<?xml version="1.0" encoding="UTF-8" standalone="no"?><svg xmlns="http://www.w3.org/2000/svg" xmlns:xlink="http://www.w3.org/1999/xlink" contentScriptType="application/ecmascript" contentStyleType="text/css" height="145px" preserveAspectRatio="none" style="width:356px;height:145px;background:#00000000;" version="1.1" viewBox="0 0 356 145" width="356px" zoomAndPan="magnify"><defs><filter height="300%" id="f7mkl3uogcwvp" width="300%" x="-1" y="-1"><feGaussianBlur result="blurOut" stdDeviation="2.0"/><feColorMatrix in="blurOut" result="blurOut2" type="matrix" values="0 0 0 0 0 0 0 0 0 0 0 0 0 0 0 0 0 0 .4 0"/><feOffset dx="4.0" dy="4.0" in="blurOut2" result="blurOut3"/><feBlend in="SourceGraphic" in2="blurOut3" mode="normal"/></filter></defs><g><!--MD5=[ebaee042c9ac5e9587b6062417c17328]
class Accuracy<U, T>--><rect codeLine="4" fill="#FEFECE" filter="url(#f7mkl3uogcwvp)" height="32" id="Accuracy&lt;U, T&gt;" style="stroke:#A80036;stroke-width:1.5;" width="133" x="107.5" y="7"/><ellipse cx="122.5" cy="23" fill="#A9DCDF" rx="11" ry="11" style="stroke:#A80036;stroke-width:1.0;"/><path d="M122.6094,18.3438 L121.4531,23.4219 L123.7813,23.4219 L122.6094,18.3438 Z M121.125,16.1094 L124.1094,16.1094 L127.4688,28.5 L125.0156,28.5 L124.25,25.4375 L120.9688,25.4375 L120.2188,28.5 L117.7813,28.5 L121.125,16.1094 Z " fill="#000000"/><text fill="#000000" font-family="sans-serif" font-size="12" font-style="italic" lengthAdjust="spacing" textLength="101" x="136.5" y="27.1543">Accuracy&lt;U, T&gt;</text><!--MD5=[e79620f655ad906a49a929a1f14aeedf]
class Accuracy1D<Unit>--><rect codeLine="6" fill="#FEFECE" filter="url(#f7mkl3uogcwvp)" height="32" id="Accuracy1D&lt;Unit&gt;" style="stroke:#A80036;stroke-width:1.5;" width="150" x="7" y="99"/><ellipse cx="22" cy="115" fill="#ADD1B2" rx="11" ry="11" style="stroke:#A80036;stroke-width:1.0;"/><path d="M24.9688,120.6406 Q24.3906,120.9375 23.75,121.0781 Q23.1094,121.2344 22.4063,121.2344 Q19.9063,121.2344 18.5781,119.5938 Q17.2656,117.9375 17.2656,114.8125 Q17.2656,111.6875 18.5781,110.0313 Q19.9063,108.375 22.4063,108.375 Q23.1094,108.375 23.75,108.5313 Q24.4063,108.6875 24.9688,108.9844 L24.9688,111.7031 Q24.3438,111.125 23.75,110.8594 Q23.1563,110.5781 22.5313,110.5781 Q21.1875,110.5781 20.5,111.6563 Q19.8125,112.7188 19.8125,114.8125 Q19.8125,116.9063 20.5,117.9844 Q21.1875,119.0469 22.5313,119.0469 Q23.1563,119.0469 23.75,118.7813 Q24.3438,118.5 24.9688,117.9219 L24.9688,120.6406 Z " fill="#000000"/><text fill="#000000" font-family="sans-serif" font-size="12" lengthAdjust="spacing" textLength="118" x="36" y="119.1543">Accuracy1D&lt;Unit&gt;</text><!--MD5=[52b16759378e5b85255f354346ba92bd]
class Accuracy2D<Unit>--><rect codeLine="9" fill="#FEFECE" filter="url(#f7mkl3uogcwvp)" height="32" id="Accuracy2D&lt;Unit&gt;" style="stroke:#A80036;stroke-width:1.5;" width="150" x="192" y="99"/><ellipse cx="207" cy="115" fill="#ADD1B2" rx="11" ry="11" style="stroke:#A80036;stroke-width:1.0;"/><path d="M209.9688,120.6406 Q209.3906,120.9375 208.75,121.0781 Q208.1094,121.2344 207.4063,121.2344 Q204.9063,121.2344 203.5781,119.5938 Q202.2656,117.9375 202.2656,114.8125 Q202.2656,111.6875 203.5781,110.0313 Q204.9063,108.375 207.4063,108.375 Q208.1094,108.375 208.75,108.5313 Q209.4063,108.6875 209.9688,108.9844 L209.9688,111.7031 Q209.3438,111.125 208.75,110.8594 Q208.1563,110.5781 207.5313,110.5781 Q206.1875,110.5781 205.5,111.6563 Q204.8125,112.7188 204.8125,114.8125 Q204.8125,116.9063 205.5,117.9844 Q206.1875,119.0469 207.5313,119.0469 Q208.1563,119.0469 208.75,118.7813 Q209.3438,118.5 209.9688,117.9219 L209.9688,120.6406 Z " fill="#000000"/><text fill="#000000" font-family="sans-serif" font-size="12" lengthAdjust="spacing" textLength="118" x="221" y="119.1543">Accuracy2D&lt;Unit&gt;</text><!--MD5=[1560aad2329e307b13d23cf94dc1a53d]
reverse link Accuracy<U, T> to Accuracy1D<Unit>--><path codeLine="8" d="M144.06,53.29 C128.47,68.54 110.07,86.54 97.38,98.96 " fill="none" id="Accuracy&lt;U, T&gt;-backto-Accuracy1D&lt;Unit&gt;" style="stroke:#A80036;stroke-width:1.0;"/><polygon fill="none" points="139.2,48.25,158.39,39.27,148.99,58.26,139.2,48.25" style="stroke:#A80036;stroke-width:1.0;"/><!--MD5=[2ff5a2821a779071185ef53a64da0030]
reverse link Accuracy<U, T> to Accuracy2D<Unit>--><path codeLine="11" d="M204.27,53.29 C220.02,68.54 238.62,86.54 251.46,98.96 " fill="none" id="Accuracy&lt;U, T&gt;-backto-Accuracy2D&lt;Unit&gt;" style="stroke:#A80036;stroke-width:1.0;"/><polygon fill="none" points="199.28,58.21,189.78,39.27,209.02,48.15,199.28,58.21" style="stroke:#A80036;stroke-width:1.0;"/><!--MD5=[15ee682e6c54d6ebdaaa56613b730738]
@startuml
skinparam BackgroundColor transparent
hide empty methods
hide empty fields
abstract class "Accuracy<U, T>" {
}
class "Accuracy1D<Unit>" {
}
"Accuracy<U, T>" <|- - "Accuracy1D<Unit>"
class "Accuracy2D<Unit>" {
}
"Accuracy<U, T>" <|- - "Accuracy2D<Unit>"
@enduml

PlantUML version 1.2021.14(Fri Nov 12 16:46:50 UTC 2021)
(GPL source distribution)
Java Runtime: OpenJDK Runtime Environment
JVM: OpenJDK 64-Bit Server VM
Default Encoding: UTF-8
Language: en
Country: null
--></g></svg>