<?xml version="1.0" encoding="us-ascii" standalone="no"?><svg xmlns="http://www.w3.org/2000/svg" xmlns:xlink="http://www.w3.org/1999/xlink" contentStyleType="text/css" height="230px" preserveAspectRatio="none" style="width:196px;height:230px;" version="1.1" viewBox="0 0 196 230" width="196px" zoomAndPan="magnify"><defs/><g><!--class ActiveSourceOptions--><g id="elem_ActiveSourceOptions"><rect codeLine="4" fill="#F1F1F1" height="32" id="ActiveSourceOptions" rx="2.5" ry="2.5" style="stroke:#181818;stroke-width:0.5;" width="177" x="9.5" y="99"/><ellipse cx="24.5" cy="115" fill="#B4A7E5" rx="11" ry="11" style="stroke:#181818;stroke-width:1.0;"/><path d="M20.4219,110.7656 L20.4219,108.6094 L27.8125,108.6094 L27.8125,110.7656 L25.3438,110.7656 L25.3438,118.8438 L27.8125,118.8438 L27.8125,121 L20.4219,121 L20.4219,118.8438 L22.8906,118.8438 L22.8906,110.7656 L20.4219,110.7656 Z " fill="#000000"/><text fill="#000000" font-family="sans-serif" font-size="14" font-style="italic" lengthAdjust="spacing" textLength="145" x="38.5" y="119.8467">ActiveSourceOptions</text></g><!--class SourceNodeOptions--><g id="elem_SourceNodeOptions"><rect codeLine="6" fill="#F1F1F1" height="32" id="SourceNodeOptions" rx="2.5" ry="2.5" style="stroke:#181818;stroke-width:0.5;" width="172" x="12" y="7"/><ellipse cx="27" cy="23" fill="#B4A7E5" rx="11" ry="11" style="stroke:#181818;stroke-width:1.0;"/><path d="M22.9219,18.7656 L22.9219,16.6094 L30.3125,16.6094 L30.3125,18.7656 L27.8438,18.7656 L27.8438,26.8438 L30.3125,26.8438 L30.3125,29 L22.9219,29 L22.9219,26.8438 L25.3906,26.8438 L25.3906,18.7656 L22.9219,18.7656 Z " fill="#000000"/><text fill="#000000" font-family="sans-serif" font-size="14" font-style="italic" lengthAdjust="spacing" textLength="140" x="41" y="27.8467">SourceNodeOptions</text></g><!--class SensorSourceOptions--><g id="elem_SensorSourceOptions"><rect codeLine="9" fill="#F1F1F1" height="32" id="SensorSourceOptions" rx="2.5" ry="2.5" style="stroke:#181818;stroke-width:0.5;" width="182" x="7" y="191"/><ellipse cx="22" cy="207" fill="#B4A7E5" rx="11" ry="11" style="stroke:#181818;stroke-width:1.0;"/><path d="M17.9219,202.7656 L17.9219,200.6094 L25.3125,200.6094 L25.3125,202.7656 L22.8438,202.7656 L22.8438,210.8438 L25.3125,210.8438 L25.3125,213 L17.9219,213 L17.9219,210.8438 L20.3906,210.8438 L20.3906,202.7656 L17.9219,202.7656 Z " fill="#000000"/><text fill="#000000" font-family="sans-serif" font-size="14" font-style="italic" lengthAdjust="spacing" textLength="150" x="36" y="211.8467">SensorSourceOptions</text></g><!--reverse link SourceNodeOptions to ActiveSourceOptions--><g id="link_SourceNodeOptions_ActiveSourceOptions"><path codeLine="8" d="M98,59.61 C98,73.31 98,88.22 98,98.96 " fill="none" id="SourceNodeOptions-backto-ActiveSourceOptions" style="stroke:#181818;stroke-width:1.0;"/><polygon fill="none" points="91,59.27,98,39.27,105,59.27,91,59.27" style="stroke:#181818;stroke-width:1.0;"/></g><!--reverse link ActiveSourceOptions to SensorSourceOptions--><g id="link_ActiveSourceOptions_SensorSourceOptions"><path codeLine="11" d="M98,151.61 C98,165.31 98,180.22 98,190.96 " fill="none" id="ActiveSourceOptions-backto-SensorSourceOptions" style="stroke:#181818;stroke-width:1.0;"/><polygon fill="none" points="91,151.27,98,131.27,105,151.27,91,151.27" style="stroke:#181818;stroke-width:1.0;"/></g><!--SRC=[ROun3eCm34LtJc6nSmEMjdixS08hCSM2s95ZAbLjxrua5f2oll__iylCaj4mmHN3_3HT9TvqKGCtbB959DvC70aePNz38fyqbYCQcPQDi3ZPY86WlGJd5mswMg17TbOfBNoQtx6pftUDvqQDzz-kgqjFGfAYLZbQVsUNraP_]--></g></svg>