<?xml version="1.0" encoding="us-ascii" standalone="no"?><svg xmlns="http://www.w3.org/2000/svg" xmlns:xlink="http://www.w3.org/1999/xlink" contentStyleType="text/css" height="138px" preserveAspectRatio="none" style="width:164px;height:138px;" version="1.1" viewBox="0 0 164 138" width="164px" zoomAndPan="magnify"><defs/><g><!--class ActuatableObject--><g id="elem_ActuatableObject"><rect codeLine="4" fill="#F1F1F1" height="32" id="ActuatableObject" rx="2.5" ry="2.5" style="stroke:#181818;stroke-width:0.5;" width="150" x="7" y="99"/><ellipse cx="22" cy="115" fill="#ADD1B2" rx="11" ry="11" style="stroke:#181818;stroke-width:1.0;"/><path d="M24.9688,120.6406 Q24.3906,120.9375 23.75,121.0781 Q23.1094,121.2344 22.4063,121.2344 Q19.9063,121.2344 18.5781,119.5938 Q17.2656,117.9375 17.2656,114.8125 Q17.2656,111.6875 18.5781,110.0313 Q19.9063,108.375 22.4063,108.375 Q23.1094,108.375 23.75,108.5313 Q24.4063,108.6875 24.9688,108.9844 L24.9688,111.7031 Q24.3438,111.125 23.75,110.8594 Q23.1563,110.5781 22.5313,110.5781 Q21.1875,110.5781 20.5,111.6563 Q19.8125,112.7188 19.8125,114.8125 Q19.8125,116.9063 20.5,117.9844 Q21.1875,119.0469 22.5313,119.0469 Q23.1563,119.0469 23.75,118.7813 Q24.3438,118.5 24.9688,117.9219 L24.9688,120.6406 Z " fill="#000000"/><text fill="#000000" font-family="sans-serif" font-size="14" lengthAdjust="spacing" textLength="118" x="36" y="119.8467">ActuatableObject</text></g><!--class DataObject--><g id="elem_DataObject"><rect codeLine="6" fill="#F1F1F1" height="32" id="DataObject" rx="2.5" ry="2.5" style="stroke:#181818;stroke-width:0.5;" width="109" x="27.5" y="7"/><ellipse cx="42.5" cy="23" fill="#ADD1B2" rx="11" ry="11" style="stroke:#181818;stroke-width:1.0;"/><path d="M45.4688,28.6406 Q44.8906,28.9375 44.25,29.0781 Q43.6094,29.2344 42.9063,29.2344 Q40.4063,29.2344 39.0781,27.5938 Q37.7656,25.9375 37.7656,22.8125 Q37.7656,19.6875 39.0781,18.0313 Q40.4063,16.375 42.9063,16.375 Q43.6094,16.375 44.25,16.5313 Q44.9063,16.6875 45.4688,16.9844 L45.4688,19.7031 Q44.8438,19.125 44.25,18.8594 Q43.6563,18.5781 43.0313,18.5781 Q41.6875,18.5781 41,19.6563 Q40.3125,20.7188 40.3125,22.8125 Q40.3125,24.9063 41,25.9844 Q41.6875,27.0469 43.0313,27.0469 Q43.6563,27.0469 44.25,26.7813 Q44.8438,26.5 45.4688,25.9219 L45.4688,28.6406 Z " fill="#000000"/><text fill="#000000" font-family="sans-serif" font-size="14" lengthAdjust="spacing" textLength="77" x="56.5" y="27.8467">DataObject</text></g><!--reverse link DataObject to ActuatableObject--><g id="link_DataObject_ActuatableObject"><path codeLine="8" d="M82,59.61 C82,73.31 82,88.22 82,98.96 " fill="none" id="DataObject-backto-ActuatableObject" style="stroke:#181818;stroke-width:1.0;"/><polygon fill="none" points="75,59.27,82,39.27,89,59.27,75,59.27" style="stroke:#181818;stroke-width:1.0;"/></g><!--SRC=[RSix3a10483XtYacUZVGUFJEC7O7opvaPnI2kzj6GgBz_loy6BzYH0SrgcMCOVEw2JP4a8YUKo8lsMGq0RbLTd0aKz3yfi6GJQ8iCaDUATbGiBVKzJCfoU78hYUsgRpv0-LP53__3G00]--></g></svg>