<?xml version="1.0" encoding="UTF-8" standalone="no"?><svg xmlns="http://www.w3.org/2000/svg" xmlns:xlink="http://www.w3.org/1999/xlink" contentScriptType="application/ecmascript" contentStyleType="text/css" height="145px" preserveAspectRatio="none" style="width:113px;height:145px;background:#00000000;" version="1.1" viewBox="0 0 113 145" width="113px" zoomAndPan="magnify"><defs><filter height="300%" id="fv61wv29q1dbq" width="300%" x="-1" y="-1"><feGaussianBlur result="blurOut" stdDeviation="2.0"/><feColorMatrix in="blurOut" result="blurOut2" type="matrix" values="0 0 0 0 0 0 0 0 0 0 0 0 0 0 0 0 0 0 .4 0"/><feOffset dx="4.0" dy="4.0" in="blurOut2" result="blurOut3"/><feBlend in="SourceGraphic" in2="blurOut3" mode="normal"/></filter></defs><g><!--MD5=[4af3f3e114b6a3cb78eb5b6cd4bb88c9]
class AngleUnit--><rect codeLine="4" fill="#FEFECE" filter="url(#fv61wv29q1dbq)" height="32" id="AngleUnit" style="stroke:#A80036;stroke-width:1.5;" width="92" x="7" y="99"/><ellipse cx="22" cy="115" fill="#ADD1B2" rx="11" ry="11" style="stroke:#A80036;stroke-width:1.0;"/><path d="M24.9688,120.6406 Q24.3906,120.9375 23.75,121.0781 Q23.1094,121.2344 22.4063,121.2344 Q19.9063,121.2344 18.5781,119.5938 Q17.2656,117.9375 17.2656,114.8125 Q17.2656,111.6875 18.5781,110.0313 Q19.9063,108.375 22.4063,108.375 Q23.1094,108.375 23.75,108.5313 Q24.4063,108.6875 24.9688,108.9844 L24.9688,111.7031 Q24.3438,111.125 23.75,110.8594 Q23.1563,110.5781 22.5313,110.5781 Q21.1875,110.5781 20.5,111.6563 Q19.8125,112.7188 19.8125,114.8125 Q19.8125,116.9063 20.5,117.9844 Q21.1875,119.0469 22.5313,119.0469 Q23.1563,119.0469 23.75,118.7813 Q24.3438,118.5 24.9688,117.9219 L24.9688,120.6406 Z " fill="#000000"/><text fill="#000000" font-family="sans-serif" font-size="12" lengthAdjust="spacing" textLength="60" x="36" y="119.1543">AngleUnit</text><!--MD5=[63a373d2559db13dd8cc7d36e037ebb1]
class Unit--><rect codeLine="6" fill="#FEFECE" filter="url(#fv61wv29q1dbq)" height="32" id="Unit" style="stroke:#A80036;stroke-width:1.5;" width="57" x="24.5" y="7"/><ellipse cx="39.5" cy="23" fill="#ADD1B2" rx="11" ry="11" style="stroke:#A80036;stroke-width:1.0;"/><path d="M42.4688,28.6406 Q41.8906,28.9375 41.25,29.0781 Q40.6094,29.2344 39.9063,29.2344 Q37.4063,29.2344 36.0781,27.5938 Q34.7656,25.9375 34.7656,22.8125 Q34.7656,19.6875 36.0781,18.0313 Q37.4063,16.375 39.9063,16.375 Q40.6094,16.375 41.25,16.5313 Q41.9063,16.6875 42.4688,16.9844 L42.4688,19.7031 Q41.8438,19.125 41.25,18.8594 Q40.6563,18.5781 40.0313,18.5781 Q38.6875,18.5781 38,19.6563 Q37.3125,20.7188 37.3125,22.8125 Q37.3125,24.9063 38,25.9844 Q38.6875,27.0469 40.0313,27.0469 Q40.6563,27.0469 41.25,26.7813 Q41.8438,26.5 42.4688,25.9219 L42.4688,28.6406 Z " fill="#000000"/><text fill="#000000" font-family="sans-serif" font-size="12" lengthAdjust="spacing" textLength="25" x="53.5" y="27.1543">Unit</text><!--MD5=[f353c4749e20876231e075846a860568]
reverse link Unit to AngleUnit--><path codeLine="8" d="M53,59.61 C53,73.31 53,88.22 53,98.96 " fill="none" id="Unit-backto-AngleUnit" style="stroke:#A80036;stroke-width:1.0;"/><polygon fill="none" points="46,59.27,53,39.27,60,59.27,46,59.27" style="stroke:#A80036;stroke-width:1.0;"/><!--MD5=[6bfb8e15f0cf2caf1162e6af1ae7912c]
@startuml
skinparam BackgroundColor transparent
hide empty methods
hide empty fields
class "AngleUnit" {
}
class "Unit" {
}
"Unit" <|- - "AngleUnit"
@enduml

PlantUML version 1.2021.14(Fri Nov 12 16:46:50 UTC 2021)
(GPL source distribution)
Java Runtime: OpenJDK Runtime Environment
JVM: OpenJDK 64-Bit Server VM
Default Encoding: UTF-8
Language: en
Country: null
--></g></svg>