<?xml version="1.0" encoding="UTF-8" standalone="no"?><svg xmlns="http://www.w3.org/2000/svg" xmlns:xlink="http://www.w3.org/1999/xlink" contentScriptType="application/ecmascript" contentStyleType="text/css" height="145px" preserveAspectRatio="none" style="width:273px;height:145px;background:#00000000;" version="1.1" viewBox="0 0 273 145" width="273px" zoomAndPan="magnify"><defs><filter height="300%" id="f1drd1dfw6otje" width="300%" x="-1" y="-1"><feGaussianBlur result="blurOut" stdDeviation="2.0"/><feColorMatrix in="blurOut" result="blurOut2" type="matrix" values="0 0 0 0 0 0 0 0 0 0 0 0 0 0 0 0 0 0 .4 0"/><feOffset dx="4.0" dy="4.0" in="blurOut2" result="blurOut3"/><feBlend in="SourceGraphic" in2="blurOut3" mode="normal"/></filter></defs><g><!--MD5=[d6c64b1f0b9a0da25bf9cd9e67310d9c]
class AngularVelocity--><rect codeLine="4" fill="#FEFECE" filter="url(#f1drd1dfw6otje)" height="32" id="AngularVelocity" style="stroke:#A80036;stroke-width:1.5;" width="128" x="69" y="99"/><ellipse cx="84" cy="115" fill="#ADD1B2" rx="11" ry="11" style="stroke:#A80036;stroke-width:1.0;"/><path d="M86.9688,120.6406 Q86.3906,120.9375 85.75,121.0781 Q85.1094,121.2344 84.4063,121.2344 Q81.9063,121.2344 80.5781,119.5938 Q79.2656,117.9375 79.2656,114.8125 Q79.2656,111.6875 80.5781,110.0313 Q81.9063,108.375 84.4063,108.375 Q85.1094,108.375 85.75,108.5313 Q86.4063,108.6875 86.9688,108.9844 L86.9688,111.7031 Q86.3438,111.125 85.75,110.8594 Q85.1563,110.5781 84.5313,110.5781 Q83.1875,110.5781 82.5,111.6563 Q81.8125,112.7188 81.8125,114.8125 Q81.8125,116.9063 82.5,117.9844 Q83.1875,119.0469 84.5313,119.0469 Q85.1563,119.0469 85.75,118.7813 Q86.3438,118.5 86.9688,117.9219 L86.9688,120.6406 Z " fill="#000000"/><text fill="#000000" font-family="sans-serif" font-size="12" lengthAdjust="spacing" textLength="96" x="98" y="119.1543">AngularVelocity</text><!--MD5=[f9b9bacf56743bcece27d96d6aa817da]
class SensorValue<AngularVelocityUnit>--><rect codeLine="6" fill="#FEFECE" filter="url(#f1drd1dfw6otje)" height="32" id="SensorValue&lt;AngularVelocityUnit&gt;" style="stroke:#A80036;stroke-width:1.5;" width="252" x="7" y="7"/><ellipse cx="22" cy="23" fill="#ADD1B2" rx="11" ry="11" style="stroke:#A80036;stroke-width:1.0;"/><path d="M24.9688,28.6406 Q24.3906,28.9375 23.75,29.0781 Q23.1094,29.2344 22.4063,29.2344 Q19.9063,29.2344 18.5781,27.5938 Q17.2656,25.9375 17.2656,22.8125 Q17.2656,19.6875 18.5781,18.0313 Q19.9063,16.375 22.4063,16.375 Q23.1094,16.375 23.75,16.5313 Q24.4063,16.6875 24.9688,16.9844 L24.9688,19.7031 Q24.3438,19.125 23.75,18.8594 Q23.1563,18.5781 22.5313,18.5781 Q21.1875,18.5781 20.5,19.6563 Q19.8125,20.7188 19.8125,22.8125 Q19.8125,24.9063 20.5,25.9844 Q21.1875,27.0469 22.5313,27.0469 Q23.1563,27.0469 23.75,26.7813 Q24.3438,26.5 24.9688,25.9219 L24.9688,28.6406 Z " fill="#000000"/><text fill="#000000" font-family="sans-serif" font-size="12" lengthAdjust="spacing" textLength="220" x="36" y="27.1543">SensorValue&lt;AngularVelocityUnit&gt;</text><!--MD5=[3aaee00e73c69b633adca7bdcfb7ba31]
reverse link SensorValue<AngularVelocityUnit> to AngularVelocity--><path codeLine="8" d="M133,59.61 C133,73.31 133,88.22 133,98.96 " fill="none" id="SensorValue&lt;AngularVelocityUnit&gt;-backto-AngularVelocity" style="stroke:#A80036;stroke-width:1.0;"/><polygon fill="none" points="126,59.27,133,39.27,140,59.27,126,59.27" style="stroke:#A80036;stroke-width:1.0;"/><!--MD5=[77424c4ec66d8e39a2a46d6b7381c1bf]
@startuml
skinparam BackgroundColor transparent
hide empty methods
hide empty fields
class "AngularVelocity" {
}
class "SensorValue<AngularVelocityUnit>" {
}
"SensorValue<AngularVelocityUnit>" <|- - "AngularVelocity"
@enduml

PlantUML version 1.2021.14(Fri Nov 12 16:46:50 UTC 2021)
(GPL source distribution)
Java Runtime: OpenJDK Runtime Environment
JVM: OpenJDK 64-Bit Server VM
Default Encoding: UTF-8
Language: en
Country: null
--></g></svg>