<?xml version="1.0" encoding="us-ascii" standalone="no"?><svg xmlns="http://www.w3.org/2000/svg" xmlns:xlink="http://www.w3.org/1999/xlink" contentStyleType="text/css" height="138px" preserveAspectRatio="none" style="width:289px;height:138px;" version="1.1" viewBox="0 0 289 138" width="289px" zoomAndPan="magnify"><defs/><g><!--class AngularVelocity--><g id="elem_AngularVelocity"><rect codeLine="4" fill="#F1F1F1" height="32" id="AngularVelocity" rx="2.5" ry="2.5" style="stroke:#181818;stroke-width:0.5;" width="137" x="76" y="99"/><ellipse cx="91" cy="115" fill="#ADD1B2" rx="11" ry="11" style="stroke:#181818;stroke-width:1.0;"/><path d="M93.9688,120.6406 Q93.3906,120.9375 92.75,121.0781 Q92.1094,121.2344 91.4063,121.2344 Q88.9063,121.2344 87.5781,119.5938 Q86.2656,117.9375 86.2656,114.8125 Q86.2656,111.6875 87.5781,110.0313 Q88.9063,108.375 91.4063,108.375 Q92.1094,108.375 92.75,108.5313 Q93.4063,108.6875 93.9688,108.9844 L93.9688,111.7031 Q93.3438,111.125 92.75,110.8594 Q92.1563,110.5781 91.5313,110.5781 Q90.1875,110.5781 89.5,111.6563 Q88.8125,112.7188 88.8125,114.8125 Q88.8125,116.9063 89.5,117.9844 Q90.1875,119.0469 91.5313,119.0469 Q92.1563,119.0469 92.75,118.7813 Q93.3438,118.5 93.9688,117.9219 L93.9688,120.6406 Z " fill="#000000"/><text fill="#000000" font-family="sans-serif" font-size="14" lengthAdjust="spacing" textLength="105" x="105" y="119.8467">AngularVelocity</text></g><!--class SensorValue<AngularVelocityUnit>--><g id="elem_SensorValue&lt;AngularVelocityUnit&gt;"><rect codeLine="6" fill="#F1F1F1" height="32" id="SensorValue&lt;AngularVelocityUnit&gt;" rx="2.5" ry="2.5" style="stroke:#181818;stroke-width:0.5;" width="275" x="7" y="7"/><ellipse cx="22" cy="23" fill="#ADD1B2" rx="11" ry="11" style="stroke:#181818;stroke-width:1.0;"/><path d="M24.9688,28.6406 Q24.3906,28.9375 23.75,29.0781 Q23.1094,29.2344 22.4063,29.2344 Q19.9063,29.2344 18.5781,27.5938 Q17.2656,25.9375 17.2656,22.8125 Q17.2656,19.6875 18.5781,18.0313 Q19.9063,16.375 22.4063,16.375 Q23.1094,16.375 23.75,16.5313 Q24.4063,16.6875 24.9688,16.9844 L24.9688,19.7031 Q24.3438,19.125 23.75,18.8594 Q23.1563,18.5781 22.5313,18.5781 Q21.1875,18.5781 20.5,19.6563 Q19.8125,20.7188 19.8125,22.8125 Q19.8125,24.9063 20.5,25.9844 Q21.1875,27.0469 22.5313,27.0469 Q23.1563,27.0469 23.75,26.7813 Q24.3438,26.5 24.9688,25.9219 L24.9688,28.6406 Z " fill="#000000"/><text fill="#000000" font-family="sans-serif" font-size="14" lengthAdjust="spacing" textLength="243" x="36" y="27.8467">SensorValue&lt;AngularVelocityUnit&gt;</text></g><!--reverse link SensorValue<AngularVelocityUnit> to AngularVelocity--><g id="link_SensorValue&lt;AngularVelocityUnit&gt;_AngularVelocity"><path codeLine="8" d="M144.5,59.61 C144.5,73.31 144.5,88.22 144.5,98.96 " fill="none" id="SensorValue&lt;AngularVelocityUnit&gt;-backto-AngularVelocity" style="stroke:#181818;stroke-width:1.0;"/><polygon fill="none" points="137.5,59.27,144.5,39.27,151.5,59.27,137.5,59.27" style="stroke:#181818;stroke-width:1.0;"/></g><!--SRC=[ZOr12i90303lVKNelJyeWle4iVUm6zkbsQHaiuTI_Ri54KGlNcS6fin95ZJCSC8mZwPLubbP3TnGogv8l9bI9A2y-0gPVD9OFj4j4UyaC9O2xL76ocW3iORaQmjRytYx2qbH6v0hzL_TLP8VNl4VMN_lkj_L4m00]--></g></svg>