<?xml version="1.0" encoding="UTF-8" standalone="no"?><svg xmlns="http://www.w3.org/2000/svg" xmlns:xlink="http://www.w3.org/1999/xlink" contentScriptType="application/ecmascript" contentStyleType="text/css" height="204px" preserveAspectRatio="none" style="width:218px;height:204px;background:#00000000;" version="1.1" viewBox="0 0 218 204" width="218px" zoomAndPan="magnify"><defs><filter height="300%" id="f13hycqbcwjroo" width="300%" x="-1" y="-1"><feGaussianBlur result="blurOut" stdDeviation="2.0"/><feColorMatrix in="blurOut" result="blurOut2" type="matrix" values="0 0 0 0 0 0 0 0 0 0 0 0 0 0 0 0 0 0 .4 0"/><feOffset dx="4.0" dy="4.0" in="blurOut2" result="blurOut3"/><feBlend in="SourceGraphic" in2="blurOut3" mode="normal"/></filter></defs><g><!--MD5=[4e7e6bdae5fcca40e33bb37fa0a5f3af]
class ArrayTypeDescriptor--><rect codeLine="4" fill="#FEFECE" filter="url(#f13hycqbcwjroo)" height="99.2188" id="ArrayTypeDescriptor" style="stroke:#A80036;stroke-width:1.5;" width="197" x="7" y="91"/><ellipse cx="39.55" cy="107" fill="#ADD1B2" rx="11" ry="11" style="stroke:#A80036;stroke-width:1.0;"/><path d="M42.5188,112.6406 Q41.9406,112.9375 41.3,113.0781 Q40.6594,113.2344 39.9563,113.2344 Q37.4563,113.2344 36.1281,111.5938 Q34.8156,109.9375 34.8156,106.8125 Q34.8156,103.6875 36.1281,102.0313 Q37.4563,100.375 39.9563,100.375 Q40.6594,100.375 41.3,100.5313 Q41.9563,100.6875 42.5188,100.9844 L42.5188,103.7031 Q41.8938,103.125 41.3,102.8594 Q40.7063,102.5781 40.0813,102.5781 Q38.7375,102.5781 38.05,103.6563 Q37.3625,104.7188 37.3625,106.8125 Q37.3625,108.9063 38.05,109.9844 Q38.7375,111.0469 40.0813,111.0469 Q40.7063,111.0469 41.3,110.7813 Q41.8938,110.5 42.5188,109.9219 L42.5188,112.6406 Z " fill="#000000"/><text fill="#000000" font-family="sans-serif" font-size="12" lengthAdjust="spacing" textLength="126" x="57.45" y="111.1543">ArrayTypeDescriptor</text><line style="stroke:#A80036;stroke-width:1.5;" x1="8" x2="203" y1="123" y2="123"/><ellipse cx="18" cy="134" rx="3" ry="3" style="stroke:#038048;stroke-width:1.0;fill:none;"/><text fill="#000000" font-family="sans-serif" font-size="11" lengthAdjust="spacing" textLength="81" x="27" y="137.2104">ctor : Function</text><ellipse cx="18" cy="146.8047" rx="3" ry="3" style="stroke:#038048;stroke-width:1.0;fill:none;"/><text fill="#000000" font-family="sans-serif" font-size="11" lengthAdjust="spacing" textLength="171" x="27" y="150.0151">elementType : TypeDescriptor</text><line style="stroke:#A80036;stroke-width:1.5;" x1="8" x2="203" y1="156.6094" y2="156.6094"/><ellipse cx="18" cy="167.6094" fill="#84BE84" rx="3" ry="3" style="stroke:#038048;stroke-width:1.0;"/><text fill="#000000" font-family="sans-serif" font-size="11" lengthAdjust="spacing" textLength="127" x="27" y="170.8198">getTypes() : Function[]</text><ellipse cx="18" cy="180.4141" fill="#84BE84" rx="3" ry="3" style="stroke:#038048;stroke-width:1.0;"/><text fill="#000000" font-family="sans-serif" font-size="11" lengthAdjust="spacing" textLength="163" x="27" y="183.6245">hasFriendlyName() : boolean</text><!--MD5=[ecb97c93c596d050d884ecf15662f594]
class GenericTypeDescriptor--><rect codeLine="10" fill="#FEFECE" filter="url(#f13hycqbcwjroo)" height="23.9688" id="GenericTypeDescriptor" style="stroke:#A80036;stroke-width:1.5;" width="148" x="31.5" y="7"/><text fill="#000000" font-family="sans-serif" font-size="12" lengthAdjust="spacing" textLength="142" x="34.5" y="23.1387">GenericTypeDescriptor</text><!--MD5=[1ff3d68c0279bcd0053a7a9c292d3a04]
reverse link GenericTypeDescriptor to ArrayTypeDescriptor--><path codeLine="12" d="M105.5,51.05 C105.5,63.18 105.5,77.38 105.5,90.81 " fill="none" id="GenericTypeDescriptor-backto-ArrayTypeDescriptor" style="stroke:#A80036;stroke-width:1.0;"/><polygon fill="none" points="98.5,51.03,105.5,31.03,112.5,51.03,98.5,51.03" style="stroke:#A80036;stroke-width:1.0;"/><!--MD5=[d169f6c26e7d0dd1e43b6db2a802e14d]
@startuml
skinparam BackgroundColor transparent
hide empty methods
hide empty fields
class "ArrayTypeDescriptor" {
    +ctor : Function
    +elementType : TypeDescriptor
    +getTypes() : Function[]
    +hasFriendlyName() : boolean
}
class "GenericTypeDescriptor"
hide "GenericTypeDescriptor" circle
"GenericTypeDescriptor" <|- - "ArrayTypeDescriptor"
@enduml

PlantUML version 1.2021.14(Fri Nov 12 16:46:50 UTC 2021)
(GPL source distribution)
Java Runtime: OpenJDK Runtime Environment
JVM: OpenJDK 64-Bit Server VM
Default Encoding: UTF-8
Language: en
Country: null
--></g></svg>