<?xml version="1.0" encoding="UTF-8" standalone="no"?><svg xmlns="http://www.w3.org/2000/svg" xmlns:xlink="http://www.w3.org/1999/xlink" contentScriptType="application/ecmascript" contentStyleType="text/css" height="145px" preserveAspectRatio="none" style="width:189px;height:145px;background:#00000000;" version="1.1" viewBox="0 0 189 145" width="189px" zoomAndPan="magnify"><defs><filter height="300%" id="f2qj3v9p1kujk" width="300%" x="-1" y="-1"><feGaussianBlur result="blurOut" stdDeviation="2.0"/><feColorMatrix in="blurOut" result="blurOut2" type="matrix" values="0 0 0 0 0 0 0 0 0 0 0 0 0 0 0 0 0 0 .4 0"/><feOffset dx="4.0" dy="4.0" in="blurOut2" result="blurOut3"/><feBlend in="SourceGraphic" in2="blurOut3" mode="normal"/></filter></defs><g><!--MD5=[a8bb081b5e3ac259779e78b844e55417]
class BalanceNode<InOut>--><rect codeLine="4" fill="#FEFECE" filter="url(#f2qj3v9p1kujk)" height="32" id="BalanceNode&lt;InOut&gt;" style="stroke:#A80036;stroke-width:1.5;" width="168" x="7" y="99"/><ellipse cx="22" cy="115" fill="#ADD1B2" rx="11" ry="11" style="stroke:#A80036;stroke-width:1.0;"/><path d="M24.9688,120.6406 Q24.3906,120.9375 23.75,121.0781 Q23.1094,121.2344 22.4063,121.2344 Q19.9063,121.2344 18.5781,119.5938 Q17.2656,117.9375 17.2656,114.8125 Q17.2656,111.6875 18.5781,110.0313 Q19.9063,108.375 22.4063,108.375 Q23.1094,108.375 23.75,108.5313 Q24.4063,108.6875 24.9688,108.9844 L24.9688,111.7031 Q24.3438,111.125 23.75,110.8594 Q23.1563,110.5781 22.5313,110.5781 Q21.1875,110.5781 20.5,111.6563 Q19.8125,112.7188 19.8125,114.8125 Q19.8125,116.9063 20.5,117.9844 Q21.1875,119.0469 22.5313,119.0469 Q23.1563,119.0469 23.75,118.7813 Q24.3438,118.5 24.9688,117.9219 L24.9688,120.6406 Z " fill="#000000"/><text fill="#000000" font-family="sans-serif" font-size="12" lengthAdjust="spacing" textLength="136" x="36" y="119.1543">BalanceNode&lt;InOut&gt;</text><!--MD5=[57fab1d92ec96921b1b3362c38eaf008]
class Node<InOut, InOut>--><rect codeLine="6" fill="#FEFECE" filter="url(#f2qj3v9p1kujk)" height="32" id="Node&lt;InOut, InOut&gt;" style="stroke:#A80036;stroke-width:1.5;" width="159" x="11.5" y="7"/><ellipse cx="26.5" cy="23" fill="#ADD1B2" rx="11" ry="11" style="stroke:#A80036;stroke-width:1.0;"/><path d="M29.4688,28.6406 Q28.8906,28.9375 28.25,29.0781 Q27.6094,29.2344 26.9063,29.2344 Q24.4063,29.2344 23.0781,27.5938 Q21.7656,25.9375 21.7656,22.8125 Q21.7656,19.6875 23.0781,18.0313 Q24.4063,16.375 26.9063,16.375 Q27.6094,16.375 28.25,16.5313 Q28.9063,16.6875 29.4688,16.9844 L29.4688,19.7031 Q28.8438,19.125 28.25,18.8594 Q27.6563,18.5781 27.0313,18.5781 Q25.6875,18.5781 25,19.6563 Q24.3125,20.7188 24.3125,22.8125 Q24.3125,24.9063 25,25.9844 Q25.6875,27.0469 27.0313,27.0469 Q27.6563,27.0469 28.25,26.7813 Q28.8438,26.5 29.4688,25.9219 L29.4688,28.6406 Z " fill="#000000"/><text fill="#000000" font-family="sans-serif" font-size="12" lengthAdjust="spacing" textLength="127" x="40.5" y="27.1543">Node&lt;InOut, InOut&gt;</text><!--MD5=[6704be5866a774a2a84c6bcd22becab8]
reverse link Node<InOut, InOut> to BalanceNode<InOut>--><path codeLine="8" d="M91,59.61 C91,73.31 91,88.22 91,98.96 " fill="none" id="Node&lt;InOut, InOut&gt;-backto-BalanceNode&lt;InOut&gt;" style="stroke:#A80036;stroke-width:1.0;"/><polygon fill="none" points="84,59.27,91,39.27,98,59.27,84,59.27" style="stroke:#A80036;stroke-width:1.0;"/><!--MD5=[9a5b52b9763c4c964299ef3ca3b34ce8]
@startuml
skinparam BackgroundColor transparent
hide empty methods
hide empty fields
class "BalanceNode<InOut>" {
}
class "Node<InOut, InOut>" {
}
"Node<InOut, InOut>" <|- - "BalanceNode<InOut>"
@enduml

PlantUML version 1.2021.14(Fri Nov 12 16:46:50 UTC 2021)
(GPL source distribution)
Java Runtime: OpenJDK Runtime Environment
JVM: OpenJDK 64-Bit Server VM
Default Encoding: UTF-8
Language: en
Country: null
--></g></svg>