<?xml version="1.0" encoding="UTF-8" standalone="no"?><svg xmlns="http://www.w3.org/2000/svg" xmlns:xlink="http://www.w3.org/1999/xlink" contentScriptType="application/ecmascript" contentStyleType="text/css" height="237px" preserveAspectRatio="none" style="width:224px;height:237px;background:#00000000;" version="1.1" viewBox="0 0 224 237" width="224px" zoomAndPan="magnify"><defs><filter height="300%" id="feev99c1x508o" width="300%" x="-1" y="-1"><feGaussianBlur result="blurOut" stdDeviation="2.0"/><feColorMatrix in="blurOut" result="blurOut2" type="matrix" values="0 0 0 0 0 0 0 0 0 0 0 0 0 0 0 0 0 0 .4 0"/><feOffset dx="4.0" dy="4.0" in="blurOut2" result="blurOut3"/><feBlend in="SourceGraphic" in2="blurOut3" mode="normal"/></filter></defs><g><!--MD5=[de208f4723c96b89531bbea246460187]
class BufferNode<InOut>--><rect codeLine="4" fill="#FEFECE" filter="url(#feev99c1x508o)" height="32" id="BufferNode&lt;InOut&gt;" style="stroke:#A80036;stroke-width:1.5;" width="155" x="31" y="99"/><ellipse cx="46" cy="115" fill="#ADD1B2" rx="11" ry="11" style="stroke:#A80036;stroke-width:1.0;"/><path d="M48.9688,120.6406 Q48.3906,120.9375 47.75,121.0781 Q47.1094,121.2344 46.4063,121.2344 Q43.9063,121.2344 42.5781,119.5938 Q41.2656,117.9375 41.2656,114.8125 Q41.2656,111.6875 42.5781,110.0313 Q43.9063,108.375 46.4063,108.375 Q47.1094,108.375 47.75,108.5313 Q48.4063,108.6875 48.9688,108.9844 L48.9688,111.7031 Q48.3438,111.125 47.75,110.8594 Q47.1563,110.5781 46.5313,110.5781 Q45.1875,110.5781 44.5,111.6563 Q43.8125,112.7188 43.8125,114.8125 Q43.8125,116.9063 44.5,117.9844 Q45.1875,119.0469 46.5313,119.0469 Q47.1563,119.0469 47.75,118.7813 Q48.3438,118.5 48.9688,117.9219 L48.9688,120.6406 Z " fill="#000000"/><text fill="#000000" font-family="sans-serif" font-size="12" lengthAdjust="spacing" textLength="123" x="60" y="119.1543">BufferNode&lt;InOut&gt;</text><!--MD5=[57fab1d92ec96921b1b3362c38eaf008]
class Node<InOut, InOut>--><rect codeLine="6" fill="#FEFECE" filter="url(#feev99c1x508o)" height="32" id="Node&lt;InOut, InOut&gt;" style="stroke:#A80036;stroke-width:1.5;" width="159" x="29" y="7"/><ellipse cx="44" cy="23" fill="#ADD1B2" rx="11" ry="11" style="stroke:#A80036;stroke-width:1.0;"/><path d="M46.9688,28.6406 Q46.3906,28.9375 45.75,29.0781 Q45.1094,29.2344 44.4063,29.2344 Q41.9063,29.2344 40.5781,27.5938 Q39.2656,25.9375 39.2656,22.8125 Q39.2656,19.6875 40.5781,18.0313 Q41.9063,16.375 44.4063,16.375 Q45.1094,16.375 45.75,16.5313 Q46.4063,16.6875 46.9688,16.9844 L46.9688,19.7031 Q46.3438,19.125 45.75,18.8594 Q45.1563,18.5781 44.5313,18.5781 Q43.1875,18.5781 42.5,19.6563 Q41.8125,20.7188 41.8125,22.8125 Q41.8125,24.9063 42.5,25.9844 Q43.1875,27.0469 44.5313,27.0469 Q45.1563,27.0469 45.75,26.7813 Q46.3438,26.5 46.9688,25.9219 L46.9688,28.6406 Z " fill="#000000"/><text fill="#000000" font-family="sans-serif" font-size="12" lengthAdjust="spacing" textLength="127" x="58" y="27.1543">Node&lt;InOut, InOut&gt;</text><!--MD5=[cbfe4adf4cb417016e13f6623ce80221]
class MemoryBufferNode<InOut>--><rect codeLine="9" fill="#FEFECE" filter="url(#feev99c1x508o)" height="32" id="MemoryBufferNode&lt;InOut&gt;" style="stroke:#A80036;stroke-width:1.5;" width="203" x="7" y="191"/><ellipse cx="22" cy="207" fill="#ADD1B2" rx="11" ry="11" style="stroke:#A80036;stroke-width:1.0;"/><path d="M24.9688,212.6406 Q24.3906,212.9375 23.75,213.0781 Q23.1094,213.2344 22.4063,213.2344 Q19.9063,213.2344 18.5781,211.5938 Q17.2656,209.9375 17.2656,206.8125 Q17.2656,203.6875 18.5781,202.0313 Q19.9063,200.375 22.4063,200.375 Q23.1094,200.375 23.75,200.5313 Q24.4063,200.6875 24.9688,200.9844 L24.9688,203.7031 Q24.3438,203.125 23.75,202.8594 Q23.1563,202.5781 22.5313,202.5781 Q21.1875,202.5781 20.5,203.6563 Q19.8125,204.7188 19.8125,206.8125 Q19.8125,208.9063 20.5,209.9844 Q21.1875,211.0469 22.5313,211.0469 Q23.1563,211.0469 23.75,210.7813 Q24.3438,210.5 24.9688,209.9219 L24.9688,212.6406 Z " fill="#000000"/><text fill="#000000" font-family="sans-serif" font-size="12" lengthAdjust="spacing" textLength="171" x="36" y="211.1543">MemoryBufferNode&lt;InOut&gt;</text><!--MD5=[3000a85f42cbc2e97598e73c89d33c51]
reverse link Node<InOut, InOut> to BufferNode<InOut>--><path codeLine="8" d="M108.5,59.61 C108.5,73.31 108.5,88.22 108.5,98.96 " fill="none" id="Node&lt;InOut, InOut&gt;-backto-BufferNode&lt;InOut&gt;" style="stroke:#A80036;stroke-width:1.0;"/><polygon fill="none" points="101.5,59.27,108.5,39.27,115.5,59.27,101.5,59.27" style="stroke:#A80036;stroke-width:1.0;"/><!--MD5=[b42b280cf03fc9fd4fcf3fcc0a3c2d34]
reverse link BufferNode<InOut> to MemoryBufferNode<InOut>--><path codeLine="11" d="M108.5,151.61 C108.5,165.31 108.5,180.22 108.5,190.96 " fill="none" id="BufferNode&lt;InOut&gt;-backto-MemoryBufferNode&lt;InOut&gt;" style="stroke:#A80036;stroke-width:1.0;"/><polygon fill="none" points="101.5,151.27,108.5,131.27,115.5,151.27,101.5,151.27" style="stroke:#A80036;stroke-width:1.0;"/><!--MD5=[24dac1c0b1ad72e139145b53c803466f]
@startuml
skinparam BackgroundColor transparent
hide empty methods
hide empty fields
class "BufferNode<InOut>" {
}
class "Node<InOut, InOut>" {
}
"Node<InOut, InOut>" <|- - "BufferNode<InOut>"
class "MemoryBufferNode<InOut>" {
}
"BufferNode<InOut>" <|- - "MemoryBufferNode<InOut>"
@enduml

PlantUML version 1.2021.14(Fri Nov 12 16:46:50 UTC 2021)
(GPL source distribution)
Java Runtime: OpenJDK Runtime Environment
JVM: OpenJDK 64-Bit Server VM
Default Encoding: UTF-8
Language: en
Country: null
--></g></svg>