<?xml version="1.0" encoding="us-ascii" standalone="no"?><svg xmlns="http://www.w3.org/2000/svg" xmlns:xlink="http://www.w3.org/1999/xlink" contentStyleType="text/css" height="230px" preserveAspectRatio="none" style="width:167px;height:230px;" version="1.1" viewBox="0 0 167 230" width="167px" zoomAndPan="magnify"><defs/><g><!--class BufferOptions--><g id="elem_BufferOptions"><rect codeLine="4" fill="#F1F1F1" height="32" id="BufferOptions" rx="2.5" ry="2.5" style="stroke:#181818;stroke-width:0.5;" width="126" x="20.5" y="99"/><ellipse cx="35.5" cy="115" fill="#B4A7E5" rx="11" ry="11" style="stroke:#181818;stroke-width:1.0;"/><path d="M31.4219,110.7656 L31.4219,108.6094 L38.8125,108.6094 L38.8125,110.7656 L36.3438,110.7656 L36.3438,118.8438 L38.8125,118.8438 L38.8125,121 L31.4219,121 L31.4219,118.8438 L33.8906,118.8438 L33.8906,110.7656 L31.4219,110.7656 Z " fill="#000000"/><text fill="#000000" font-family="sans-serif" font-size="14" font-style="italic" lengthAdjust="spacing" textLength="94" x="49.5" y="119.8467">BufferOptions</text></g><!--class NodeOptions--><g id="elem_NodeOptions"><rect codeLine="6" fill="#F1F1F1" height="32" id="NodeOptions" rx="2.5" ry="2.5" style="stroke:#181818;stroke-width:0.5;" width="123" x="22" y="7"/><ellipse cx="37" cy="23" fill="#B4A7E5" rx="11" ry="11" style="stroke:#181818;stroke-width:1.0;"/><path d="M32.9219,18.7656 L32.9219,16.6094 L40.3125,16.6094 L40.3125,18.7656 L37.8438,18.7656 L37.8438,26.8438 L40.3125,26.8438 L40.3125,29 L32.9219,29 L32.9219,26.8438 L35.3906,26.8438 L35.3906,18.7656 L32.9219,18.7656 Z " fill="#000000"/><text fill="#000000" font-family="sans-serif" font-size="14" font-style="italic" lengthAdjust="spacing" textLength="91" x="51" y="27.8467">NodeOptions</text></g><!--class TimeSyncOptions--><g id="elem_TimeSyncOptions"><rect codeLine="9" fill="#F1F1F1" height="32" id="TimeSyncOptions" rx="2.5" ry="2.5" style="stroke:#181818;stroke-width:0.5;" width="153" x="7" y="191"/><ellipse cx="22" cy="207" fill="#B4A7E5" rx="11" ry="11" style="stroke:#181818;stroke-width:1.0;"/><path d="M17.9219,202.7656 L17.9219,200.6094 L25.3125,200.6094 L25.3125,202.7656 L22.8438,202.7656 L22.8438,210.8438 L25.3125,210.8438 L25.3125,213 L17.9219,213 L17.9219,210.8438 L20.3906,210.8438 L20.3906,202.7656 L17.9219,202.7656 Z " fill="#000000"/><text fill="#000000" font-family="sans-serif" font-size="14" font-style="italic" lengthAdjust="spacing" textLength="121" x="36" y="211.8467">TimeSyncOptions</text></g><!--reverse link NodeOptions to BufferOptions--><g id="link_NodeOptions_BufferOptions"><path codeLine="8" d="M83.5,59.61 C83.5,73.31 83.5,88.22 83.5,98.96 " fill="none" id="NodeOptions-backto-BufferOptions" style="stroke:#181818;stroke-width:1.0;"/><polygon fill="none" points="76.5,59.27,83.5,39.27,90.5,59.27,76.5,59.27" style="stroke:#181818;stroke-width:1.0;"/></g><!--reverse link BufferOptions to TimeSyncOptions--><g id="link_BufferOptions_TimeSyncOptions"><path codeLine="11" d="M83.5,151.61 C83.5,165.31 83.5,180.22 83.5,190.96 " fill="none" id="BufferOptions-backto-TimeSyncOptions" style="stroke:#181818;stroke-width:1.0;"/><polygon fill="none" points="76.5,151.27,83.5,131.27,90.5,151.27,76.5,151.27" style="stroke:#181818;stroke-width:1.0;"/></g><!--SRC=[NOqn3i8m34NtdiBgtXimbHq6k42KEDHgOqUEErJ0tQd4acHzp_-vhCJPgKimEx- -L7OELzb4mTHnEHMo3Gi514pP3aXeYuHIeqYudOJOKAFp2EEynuXwpqR2POJtyAtjJG8shYMNppJrYNh-f8IFWtsRw5x-8_tf3m00]--></g></svg>