<?xml version="1.0" encoding="us-ascii" standalone="no"?><svg xmlns="http://www.w3.org/2000/svg" xmlns:xlink="http://www.w3.org/1999/xlink" contentStyleType="text/css" height="230px" preserveAspectRatio="none" style="width:240px;height:230px;" version="1.1" viewBox="0 0 240 230" width="240px" zoomAndPan="magnify"><defs/><g><!--class BufferNode<InOut>--><g id="elem_BufferNode&lt;InOut&gt;"><rect codeLine="4" fill="#F1F1F1" height="32" id="BufferNode&lt;InOut&gt;" rx="2.5" ry="2.5" style="stroke:#181818;stroke-width:0.5;" width="171" x="34.5" y="99"/><ellipse cx="49.5" cy="115" fill="#ADD1B2" rx="11" ry="11" style="stroke:#181818;stroke-width:1.0;"/><path d="M52.4688,120.6406 Q51.8906,120.9375 51.25,121.0781 Q50.6094,121.2344 49.9063,121.2344 Q47.4063,121.2344 46.0781,119.5938 Q44.7656,117.9375 44.7656,114.8125 Q44.7656,111.6875 46.0781,110.0313 Q47.4063,108.375 49.9063,108.375 Q50.6094,108.375 51.25,108.5313 Q51.9063,108.6875 52.4688,108.9844 L52.4688,111.7031 Q51.8438,111.125 51.25,110.8594 Q50.6563,110.5781 50.0313,110.5781 Q48.6875,110.5781 48,111.6563 Q47.3125,112.7188 47.3125,114.8125 Q47.3125,116.9063 48,117.9844 Q48.6875,119.0469 50.0313,119.0469 Q50.6563,119.0469 51.25,118.7813 Q51.8438,118.5 52.4688,117.9219 L52.4688,120.6406 Z " fill="#000000"/><text fill="#000000" font-family="sans-serif" font-size="14" lengthAdjust="spacing" textLength="139" x="63.5" y="119.8467">BufferNode&lt;InOut&gt;</text></g><!--class Node<InOut, InOut>--><g id="elem_Node&lt;InOut, InOut&gt;"><rect codeLine="6" fill="#F1F1F1" height="32" id="Node&lt;InOut, InOut&gt;" rx="2.5" ry="2.5" style="stroke:#181818;stroke-width:0.5;" width="175" x="32.5" y="7"/><ellipse cx="47.5" cy="23" fill="#ADD1B2" rx="11" ry="11" style="stroke:#181818;stroke-width:1.0;"/><path d="M50.4688,28.6406 Q49.8906,28.9375 49.25,29.0781 Q48.6094,29.2344 47.9063,29.2344 Q45.4063,29.2344 44.0781,27.5938 Q42.7656,25.9375 42.7656,22.8125 Q42.7656,19.6875 44.0781,18.0313 Q45.4063,16.375 47.9063,16.375 Q48.6094,16.375 49.25,16.5313 Q49.9063,16.6875 50.4688,16.9844 L50.4688,19.7031 Q49.8438,19.125 49.25,18.8594 Q48.6563,18.5781 48.0313,18.5781 Q46.6875,18.5781 46,19.6563 Q45.3125,20.7188 45.3125,22.8125 Q45.3125,24.9063 46,25.9844 Q46.6875,27.0469 48.0313,27.0469 Q48.6563,27.0469 49.25,26.7813 Q49.8438,26.5 50.4688,25.9219 L50.4688,28.6406 Z " fill="#000000"/><text fill="#000000" font-family="sans-serif" font-size="14" lengthAdjust="spacing" textLength="143" x="61.5" y="27.8467">Node&lt;InOut, InOut&gt;</text></g><!--class MemoryBufferNode<InOut>--><g id="elem_MemoryBufferNode&lt;InOut&gt;"><rect codeLine="9" fill="#F1F1F1" height="32" id="MemoryBufferNode&lt;InOut&gt;" rx="2.5" ry="2.5" style="stroke:#181818;stroke-width:0.5;" width="226" x="7" y="191"/><ellipse cx="22" cy="207" fill="#ADD1B2" rx="11" ry="11" style="stroke:#181818;stroke-width:1.0;"/><path d="M24.9688,212.6406 Q24.3906,212.9375 23.75,213.0781 Q23.1094,213.2344 22.4063,213.2344 Q19.9063,213.2344 18.5781,211.5938 Q17.2656,209.9375 17.2656,206.8125 Q17.2656,203.6875 18.5781,202.0313 Q19.9063,200.375 22.4063,200.375 Q23.1094,200.375 23.75,200.5313 Q24.4063,200.6875 24.9688,200.9844 L24.9688,203.7031 Q24.3438,203.125 23.75,202.8594 Q23.1563,202.5781 22.5313,202.5781 Q21.1875,202.5781 20.5,203.6563 Q19.8125,204.7188 19.8125,206.8125 Q19.8125,208.9063 20.5,209.9844 Q21.1875,211.0469 22.5313,211.0469 Q23.1563,211.0469 23.75,210.7813 Q24.3438,210.5 24.9688,209.9219 L24.9688,212.6406 Z " fill="#000000"/><text fill="#000000" font-family="sans-serif" font-size="14" lengthAdjust="spacing" textLength="194" x="36" y="211.8467">MemoryBufferNode&lt;InOut&gt;</text></g><!--reverse link Node<InOut, InOut> to BufferNode<InOut>--><g id="link_Node&lt;InOut, InOut&gt;_BufferNode&lt;InOut&gt;"><path codeLine="8" d="M120,59.61 C120,73.31 120,88.22 120,98.96 " fill="none" id="Node&lt;InOut, InOut&gt;-backto-BufferNode&lt;InOut&gt;" style="stroke:#181818;stroke-width:1.0;"/><polygon fill="none" points="113,59.27,120,39.27,127,59.27,113,59.27" style="stroke:#181818;stroke-width:1.0;"/></g><!--reverse link BufferNode<InOut> to MemoryBufferNode<InOut>--><g id="link_BufferNode&lt;InOut&gt;_MemoryBufferNode&lt;InOut&gt;"><path codeLine="11" d="M120,151.61 C120,165.31 120,180.22 120,190.96 " fill="none" id="BufferNode&lt;InOut&gt;-backto-MemoryBufferNode&lt;InOut&gt;" style="stroke:#181818;stroke-width:1.0;"/><polygon fill="none" points="113,151.27,120,131.27,127,151.27,113,151.27" style="stroke:#181818;stroke-width:1.0;"/></g><!--SRC=[TOun3eCm34LtJc4nbnkW3dHYQ7k6Y3Wb8h6HumoexTsBL24OmlgU_BxJv6asOY9qPfXUmfdiZGCBg1XAgqBIQlGM0UEi2qJKaMqw8kSnh6G89YMek-mSoeCjjZqzirvhU5VVpUxy0aTT5EsdQKh1BNR7oBAS39OU-GVFpdu0]--></g></svg>