<?xml version="1.0" encoding="UTF-8" standalone="no"?><svg xmlns="http://www.w3.org/2000/svg" xmlns:xlink="http://www.w3.org/1999/xlink" contentScriptType="application/ecmascript" contentStyleType="text/css" height="376px" preserveAspectRatio="none" style="width:177px;height:376px;background:#00000000;" version="1.1" viewBox="0 0 177 376" width="177px" zoomAndPan="magnify"><defs><filter height="300%" id="f1ixyow9p99wu5" width="300%" x="-1" y="-1"><feGaussianBlur result="blurOut" stdDeviation="2.0"/><feColorMatrix in="blurOut" result="blurOut2" type="matrix" values="0 0 0 0 0 0 0 0 0 0 0 0 0 0 0 0 0 0 .4 0"/><feOffset dx="4.0" dy="4.0" in="blurOut2" result="blurOut3"/><feBlend in="SourceGraphic" in2="blurOut3" mode="normal"/></filter></defs><g><!--MD5=[0d1b020772f5726128739ee6808d9f3f]
class BufferOptions--><rect codeLine="4" fill="#FEFECE" filter="url(#f1ixyow9p99wu5)" height="78.4141" id="BufferOptions" style="stroke:#A80036;stroke-width:1.5;" width="115" x="27.5" y="133"/><ellipse cx="42.5" cy="149" fill="#B4A7E5" rx="11" ry="11" style="stroke:#A80036;stroke-width:1.0;"/><path d="M38.4219,144.7656 L38.4219,142.6094 L45.8125,142.6094 L45.8125,144.7656 L43.3438,144.7656 L43.3438,152.8438 L45.8125,152.8438 L45.8125,155 L38.4219,155 L38.4219,152.8438 L40.8906,152.8438 L40.8906,144.7656 L38.4219,144.7656 Z " fill="#000000"/><text fill="#000000" font-family="sans-serif" font-size="12" font-style="italic" lengthAdjust="spacing" textLength="83" x="56.5" y="153.1543">BufferOptions</text><line style="stroke:#A80036;stroke-width:1.5;" x1="28.5" x2="141.5" y1="165" y2="165"/><ellipse cx="38.5" cy="176" rx="3" ry="3" style="stroke:#038048;stroke-width:1.0;fill:none;"/><text fill="#000000" font-family="sans-serif" font-size="11" lengthAdjust="spacing" textLength="77" x="47.5" y="179.2104">name : string</text><ellipse cx="38.5" cy="188.8047" rx="3" ry="3" style="stroke:#038048;stroke-width:1.0;fill:none;"/><text fill="#000000" font-family="sans-serif" font-size="11" lengthAdjust="spacing" textLength="86" x="47.5" y="192.0151">service : string</text><ellipse cx="38.5" cy="201.6094" rx="3" ry="3" style="stroke:#038048;stroke-width:1.0;fill:none;"/><text fill="#000000" font-family="sans-serif" font-size="11" lengthAdjust="spacing" textLength="62" x="47.5" y="204.8198">uid : string</text><!--MD5=[680d5112d2c67c3de15744b0ad7e4a6c]
class NodeOptions--><rect codeLine="9" fill="#FEFECE" filter="url(#f1ixyow9p99wu5)" height="65.6094" id="NodeOptions" style="stroke:#A80036;stroke-width:1.5;" width="111" x="29.5" y="7"/><ellipse cx="44.5" cy="23" fill="#B4A7E5" rx="11" ry="11" style="stroke:#A80036;stroke-width:1.0;"/><path d="M40.4219,18.7656 L40.4219,16.6094 L47.8125,16.6094 L47.8125,18.7656 L45.3438,18.7656 L45.3438,26.8438 L47.8125,26.8438 L47.8125,29 L40.4219,29 L40.4219,26.8438 L42.8906,26.8438 L42.8906,18.7656 L40.4219,18.7656 Z " fill="#000000"/><text fill="#000000" font-family="sans-serif" font-size="12" font-style="italic" lengthAdjust="spacing" textLength="79" x="58.5" y="27.1543">NodeOptions</text><line style="stroke:#A80036;stroke-width:1.5;" x1="30.5" x2="139.5" y1="39" y2="39"/><ellipse cx="40.5" cy="50" rx="3" ry="3" style="stroke:#038048;stroke-width:1.0;fill:none;"/><text fill="#000000" font-family="sans-serif" font-size="11" lengthAdjust="spacing" textLength="77" x="49.5" y="53.2104">name : string</text><ellipse cx="40.5" cy="62.8047" rx="3" ry="3" style="stroke:#038048;stroke-width:1.0;fill:none;"/><text fill="#000000" font-family="sans-serif" font-size="11" lengthAdjust="spacing" textLength="62" x="49.5" y="66.0151">uid : string</text><!--MD5=[25d44425e82f75472e4c8e59a335807c]
class TimeSyncOptions--><rect codeLine="14" fill="#FEFECE" filter="url(#f1ixyow9p99wu5)" height="91.2188" id="TimeSyncOptions" style="stroke:#A80036;stroke-width:1.5;" width="156" x="7" y="271"/><ellipse cx="30.55" cy="287" fill="#B4A7E5" rx="11" ry="11" style="stroke:#A80036;stroke-width:1.0;"/><path d="M26.4719,282.7656 L26.4719,280.6094 L33.8625,280.6094 L33.8625,282.7656 L31.3938,282.7656 L31.3938,290.8438 L33.8625,290.8438 L33.8625,293 L26.4719,293 L26.4719,290.8438 L28.9406,290.8438 L28.9406,282.7656 L26.4719,282.7656 Z " fill="#000000"/><text fill="#000000" font-family="sans-serif" font-size="12" font-style="italic" lengthAdjust="spacing" textLength="105" x="46.45" y="291.1543">TimeSyncOptions</text><line style="stroke:#A80036;stroke-width:1.5;" x1="8" x2="162" y1="303" y2="303"/><ellipse cx="18" cy="314" rx="3" ry="3" style="stroke:#038048;stroke-width:1.0;fill:none;"/><text fill="#000000" font-family="sans-serif" font-size="11" lengthAdjust="spacing" textLength="130" x="27" y="317.2104">checkInterval : number</text><ellipse cx="18" cy="326.8047" rx="3" ry="3" style="stroke:#038048;stroke-width:1.0;fill:none;"/><text fill="#000000" font-family="sans-serif" font-size="11" lengthAdjust="spacing" textLength="77" x="27" y="330.0151">name : string</text><ellipse cx="18" cy="339.6094" rx="3" ry="3" style="stroke:#038048;stroke-width:1.0;fill:none;"/><text fill="#000000" font-family="sans-serif" font-size="11" lengthAdjust="spacing" textLength="86" x="27" y="342.8198">service : string</text><ellipse cx="18" cy="352.4141" rx="3" ry="3" style="stroke:#038048;stroke-width:1.0;fill:none;"/><text fill="#000000" font-family="sans-serif" font-size="11" lengthAdjust="spacing" textLength="62" x="27" y="355.6245">uid : string</text><!--MD5=[dd25f74341b8e10f30f599ef54a5fb70]
reverse link NodeOptions to BufferOptions--><path codeLine="13" d="M85,93.51 C85,106.64 85,120.47 85,132.76 " fill="none" id="NodeOptions-backto-BufferOptions" style="stroke:#A80036;stroke-width:1.0;"/><polygon fill="none" points="78,93.13,85,73.13,92,93.13,78,93.13" style="stroke:#A80036;stroke-width:1.0;"/><!--MD5=[625927299e3b2e263e0d5e912f0cb85f]
reverse link BufferOptions to TimeSyncOptions--><path codeLine="20" d="M85,231.21 C85,244.45 85,258.32 85,270.89 " fill="none" id="BufferOptions-backto-TimeSyncOptions" style="stroke:#A80036;stroke-width:1.0;"/><polygon fill="none" points="78,231.19,85,211.19,92,231.19,78,231.19" style="stroke:#A80036;stroke-width:1.0;"/><!--MD5=[a7791d5886821f1f254d73f72138cde3]
@startuml
skinparam BackgroundColor transparent
hide empty methods
hide empty fields
interface "BufferOptions" {
    +name : string
    +service : string
    +uid : string
}
interface "NodeOptions" {
    +name : string
    +uid : string
}
"NodeOptions" <|- - "BufferOptions"
interface "TimeSyncOptions" {
    +checkInterval : number
    +name : string
    +service : string
    +uid : string
}
"BufferOptions" <|- - "TimeSyncOptions"
@enduml

PlantUML version 1.2021.14(Fri Nov 12 16:46:50 UTC 2021)
(GPL source distribution)
Java Runtime: OpenJDK Runtime Environment
JVM: OpenJDK 64-Bit Server VM
Default Encoding: UTF-8
Language: en
Country: null
--></g></svg>