<?xml version="1.0" encoding="us-ascii" standalone="no"?><svg xmlns="http://www.w3.org/2000/svg" xmlns:xlink="http://www.w3.org/1999/xlink" contentStyleType="text/css" height="138px" preserveAspectRatio="none" style="width:302px;height:138px;" version="1.1" viewBox="0 0 302 138" width="302px" zoomAndPan="magnify"><defs/><g><!--class CalibrationNode<T>--><g id="elem_CalibrationNode&lt;T&gt;"><rect codeLine="4" fill="#F1F1F1" height="32" id="CalibrationNode&lt;T&gt;" rx="2.5" ry="2.5" style="stroke:#181818;stroke-width:0.5;" width="174" x="64" y="99"/><ellipse cx="79" cy="115" fill="#ADD1B2" rx="11" ry="11" style="stroke:#181818;stroke-width:1.0;"/><path d="M81.9688,120.6406 Q81.3906,120.9375 80.75,121.0781 Q80.1094,121.2344 79.4063,121.2344 Q76.9063,121.2344 75.5781,119.5938 Q74.2656,117.9375 74.2656,114.8125 Q74.2656,111.6875 75.5781,110.0313 Q76.9063,108.375 79.4063,108.375 Q80.1094,108.375 80.75,108.5313 Q81.4063,108.6875 81.9688,108.9844 L81.9688,111.7031 Q81.3438,111.125 80.75,110.8594 Q80.1563,110.5781 79.5313,110.5781 Q78.1875,110.5781 77.5,111.6563 Q76.8125,112.7188 76.8125,114.8125 Q76.8125,116.9063 77.5,117.9844 Q78.1875,119.0469 79.5313,119.0469 Q80.1563,119.0469 80.75,118.7813 Q81.3438,118.5 81.9688,117.9219 L81.9688,120.6406 Z " fill="#000000"/><text fill="#000000" font-family="sans-serif" font-size="14" lengthAdjust="spacing" textLength="142" x="93" y="119.8467">CalibrationNode&lt;T&gt;</text></g><!--class ObjectProcessingNode<DataFrame>--><g id="elem_ObjectProcessingNode&lt;DataFrame&gt;"><rect codeLine="6" fill="#F1F1F1" height="32" id="ObjectProcessingNode&lt;DataFrame&gt;" rx="2.5" ry="2.5" style="stroke:#181818;stroke-width:0.5;" width="288" x="7" y="7"/><ellipse cx="22" cy="23" fill="#A9DCDF" rx="11" ry="11" style="stroke:#181818;stroke-width:1.0;"/><path d="M22.1094,18.3438 L20.9531,23.4219 L23.2813,23.4219 L22.1094,18.3438 Z M20.625,16.1094 L23.6094,16.1094 L26.9688,28.5 L24.5156,28.5 L23.75,25.4375 L20.4688,25.4375 L19.7188,28.5 L17.2813,28.5 L20.625,16.1094 Z " fill="#000000"/><text fill="#000000" font-family="sans-serif" font-size="14" font-style="italic" lengthAdjust="spacing" textLength="256" x="36" y="27.8467">ObjectProcessingNode&lt;DataFrame&gt;</text></g><!--reverse link ObjectProcessingNode<DataFrame> to CalibrationNode<T>--><g id="link_ObjectProcessingNode&lt;DataFrame&gt;_CalibrationNode&lt;T&gt;"><path codeLine="8" d="M151,59.61 C151,73.31 151,88.22 151,98.96 " fill="none" id="ObjectProcessingNode&lt;DataFrame&gt;-backto-CalibrationNode&lt;T&gt;" style="stroke:#181818;stroke-width:1.0;"/><polygon fill="none" points="144,59.27,151,39.27,158,59.27,144,59.27" style="stroke:#181818;stroke-width:1.0;"/></g><!--SRC=[XOuz3i8m38NtdiBgtXjK31Gn0WCNS1BJXYPs5Pi10NSdGXqOa5ZV-zwFpf4NB9XXYtuUYzmu39AaW1LahHQnDLCC19GNkqCccoJejtI9bAhY4wf2Es2Ahg15uOC4wi-R5XxDgq6djT8RhDpHNSdRgOWdrSZZ1zwXuRw-eJNqd-gVNVTpz0q0]--></g></svg>