<?xml version="1.0" encoding="us-ascii" standalone="no"?><svg xmlns="http://www.w3.org/2000/svg" xmlns:xlink="http://www.w3.org/1999/xlink" contentStyleType="text/css" height="138px" preserveAspectRatio="none" style="width:169px;height:138px;" version="1.1" viewBox="0 0 169 138" width="169px" zoomAndPan="magnify"><defs/><g><!--class CalibrationService--><g id="elem_CalibrationService"><rect codeLine="4" fill="#F1F1F1" height="32" id="CalibrationService" rx="2.5" ry="2.5" style="stroke:#181818;stroke-width:0.5;" width="155" x="7" y="99"/><ellipse cx="22" cy="115" fill="#A9DCDF" rx="11" ry="11" style="stroke:#181818;stroke-width:1.0;"/><path d="M22.1094,110.3438 L20.9531,115.4219 L23.2813,115.4219 L22.1094,110.3438 Z M20.625,108.1094 L23.6094,108.1094 L26.9688,120.5 L24.5156,120.5 L23.75,117.4375 L20.4688,117.4375 L19.7188,120.5 L17.2813,120.5 L20.625,108.1094 Z " fill="#000000"/><text fill="#000000" font-family="sans-serif" font-size="14" font-style="italic" lengthAdjust="spacing" textLength="123" x="36" y="119.8467">CalibrationService</text></g><!--class Service--><g id="elem_Service"><rect codeLine="6" fill="#F1F1F1" height="32" id="Service" rx="2.5" ry="2.5" style="stroke:#181818;stroke-width:0.5;" width="83" x="43" y="7"/><ellipse cx="58" cy="23" fill="#A9DCDF" rx="11" ry="11" style="stroke:#181818;stroke-width:1.0;"/><path d="M58.1094,18.3438 L56.9531,23.4219 L59.2813,23.4219 L58.1094,18.3438 Z M56.625,16.1094 L59.6094,16.1094 L62.9688,28.5 L60.5156,28.5 L59.75,25.4375 L56.4688,25.4375 L55.7188,28.5 L53.2813,28.5 L56.625,16.1094 Z " fill="#000000"/><text fill="#000000" font-family="sans-serif" font-size="14" font-style="italic" lengthAdjust="spacing" textLength="51" x="72" y="27.8467">Service</text></g><!--reverse link Service to CalibrationService--><g id="link_Service_CalibrationService"><path codeLine="8" d="M84.5,59.61 C84.5,73.31 84.5,88.22 84.5,98.96 " fill="none" id="Service-backto-CalibrationService" style="stroke:#181818;stroke-width:1.0;"/><polygon fill="none" points="77.5,59.27,84.5,39.27,91.5,59.27,77.5,59.27" style="stroke:#181818;stroke-width:1.0;"/></g><!--SRC=[ROmn3i9030JxlC9AdnzGaIVa1SwT8LRkxCWsI0ZoTww32CgTsLrVMJOqh736j5vDRv97BMeGXk9DaKItS2QWkiK3AiMYsR_HXQaqWhEtJGf81TsX7x7mR1YiCf7TEL4Fpsx_wHta9vrUm_3tv0q0]--></g></svg>