<?xml version="1.0" encoding="us-ascii" standalone="no"?><svg xmlns="http://www.w3.org/2000/svg" xmlns:xlink="http://www.w3.org/1999/xlink" contentStyleType="text/css" height="138px" preserveAspectRatio="none" style="width:206px;height:138px;" version="1.1" viewBox="0 0 206 138" width="206px" zoomAndPan="magnify"><defs/><g><!--class CalibrationService<T>--><g id="elem_CalibrationService&lt;T&gt;"><rect codeLine="4" fill="#F1F1F1" height="32" id="CalibrationService&lt;T&gt;" rx="2.5" ry="2.5" style="stroke:#181818;stroke-width:0.5;" width="188" x="9" y="99"/><ellipse cx="24" cy="115" fill="#A9DCDF" rx="11" ry="11" style="stroke:#181818;stroke-width:1.0;"/><path d="M24.1094,110.3438 L22.9531,115.4219 L25.2813,115.4219 L24.1094,110.3438 Z M22.625,108.1094 L25.6094,108.1094 L28.9688,120.5 L26.5156,120.5 L25.75,117.4375 L22.4688,117.4375 L21.7188,120.5 L19.2813,120.5 L22.625,108.1094 Z " fill="#000000"/><text fill="#000000" font-family="sans-serif" font-size="14" font-style="italic" lengthAdjust="spacing" textLength="156" x="38" y="119.8467">CalibrationService&lt;T&gt;</text></g><!--class DataObjectService<T>--><g id="elem_DataObjectService&lt;T&gt;"><rect codeLine="6" fill="#F1F1F1" height="32" id="DataObjectService&lt;T&gt;" rx="2.5" ry="2.5" style="stroke:#181818;stroke-width:0.5;" width="192" x="7" y="7"/><ellipse cx="22" cy="23" fill="#ADD1B2" rx="11" ry="11" style="stroke:#181818;stroke-width:1.0;"/><path d="M24.9688,28.6406 Q24.3906,28.9375 23.75,29.0781 Q23.1094,29.2344 22.4063,29.2344 Q19.9063,29.2344 18.5781,27.5938 Q17.2656,25.9375 17.2656,22.8125 Q17.2656,19.6875 18.5781,18.0313 Q19.9063,16.375 22.4063,16.375 Q23.1094,16.375 23.75,16.5313 Q24.4063,16.6875 24.9688,16.9844 L24.9688,19.7031 Q24.3438,19.125 23.75,18.8594 Q23.1563,18.5781 22.5313,18.5781 Q21.1875,18.5781 20.5,19.6563 Q19.8125,20.7188 19.8125,22.8125 Q19.8125,24.9063 20.5,25.9844 Q21.1875,27.0469 22.5313,27.0469 Q23.1563,27.0469 23.75,26.7813 Q24.3438,26.5 24.9688,25.9219 L24.9688,28.6406 Z " fill="#000000"/><text fill="#000000" font-family="sans-serif" font-size="14" lengthAdjust="spacing" textLength="160" x="36" y="27.8467">DataObjectService&lt;T&gt;</text></g><!--reverse link DataObjectService<T> to CalibrationService<T>--><g id="link_DataObjectService&lt;T&gt;_CalibrationService&lt;T&gt;"><path codeLine="8" d="M103,59.61 C103,73.31 103,88.22 103,98.96 " fill="none" id="DataObjectService&lt;T&gt;-backto-CalibrationService&lt;T&gt;" style="stroke:#181818;stroke-width:1.0;"/><polygon fill="none" points="96,59.27,103,39.27,110,59.27,96,59.27" style="stroke:#181818;stroke-width:1.0;"/></g><!--SRC=[TOmx3i9030NxFOMLFZU8A0Wz1Lp0ksk8oNuYsq52mDtPWW8XfPsPztJcig1WXZs6-IfrBN6igGgOOD6cg9YRE19GNkm1cMogKN_HXIarWbxR9XY4XAhGZPZO2nhNSYAvSw3XlElWwTxkMnpGyEXl5Em_s533g- -tZZy0]--></g></svg>