<?xml version="1.0" encoding="us-ascii" standalone="no"?><svg xmlns="http://www.w3.org/2000/svg" xmlns:xlink="http://www.w3.org/1999/xlink" contentStyleType="text/css" height="138px" preserveAspectRatio="none" style="width:201px;height:138px;" version="1.1" viewBox="0 0 201 138" width="201px" zoomAndPan="magnify"><defs/><g><!--class CallbackNode<InOut>--><g id="elem_CallbackNode&lt;InOut&gt;"><rect codeLine="4" fill="#F1F1F1" height="32" id="CallbackNode&lt;InOut&gt;" rx="2.5" ry="2.5" style="stroke:#181818;stroke-width:0.5;" width="187" x="7" y="99"/><ellipse cx="22" cy="115" fill="#ADD1B2" rx="11" ry="11" style="stroke:#181818;stroke-width:1.0;"/><path d="M24.9688,120.6406 Q24.3906,120.9375 23.75,121.0781 Q23.1094,121.2344 22.4063,121.2344 Q19.9063,121.2344 18.5781,119.5938 Q17.2656,117.9375 17.2656,114.8125 Q17.2656,111.6875 18.5781,110.0313 Q19.9063,108.375 22.4063,108.375 Q23.1094,108.375 23.75,108.5313 Q24.4063,108.6875 24.9688,108.9844 L24.9688,111.7031 Q24.3438,111.125 23.75,110.8594 Q23.1563,110.5781 22.5313,110.5781 Q21.1875,110.5781 20.5,111.6563 Q19.8125,112.7188 19.8125,114.8125 Q19.8125,116.9063 20.5,117.9844 Q21.1875,119.0469 22.5313,119.0469 Q23.1563,119.0469 23.75,118.7813 Q24.3438,118.5 24.9688,117.9219 L24.9688,120.6406 Z " fill="#000000"/><text fill="#000000" font-family="sans-serif" font-size="14" lengthAdjust="spacing" textLength="155" x="36" y="119.8467">CallbackNode&lt;InOut&gt;</text></g><!--class Node<InOut, InOut>--><g id="elem_Node&lt;InOut, InOut&gt;"><rect codeLine="6" fill="#F1F1F1" height="32" id="Node&lt;InOut, InOut&gt;" rx="2.5" ry="2.5" style="stroke:#181818;stroke-width:0.5;" width="175" x="13" y="7"/><ellipse cx="28" cy="23" fill="#ADD1B2" rx="11" ry="11" style="stroke:#181818;stroke-width:1.0;"/><path d="M30.9688,28.6406 Q30.3906,28.9375 29.75,29.0781 Q29.1094,29.2344 28.4063,29.2344 Q25.9063,29.2344 24.5781,27.5938 Q23.2656,25.9375 23.2656,22.8125 Q23.2656,19.6875 24.5781,18.0313 Q25.9063,16.375 28.4063,16.375 Q29.1094,16.375 29.75,16.5313 Q30.4063,16.6875 30.9688,16.9844 L30.9688,19.7031 Q30.3438,19.125 29.75,18.8594 Q29.1563,18.5781 28.5313,18.5781 Q27.1875,18.5781 26.5,19.6563 Q25.8125,20.7188 25.8125,22.8125 Q25.8125,24.9063 26.5,25.9844 Q27.1875,27.0469 28.5313,27.0469 Q29.1563,27.0469 29.75,26.7813 Q30.3438,26.5 30.9688,25.9219 L30.9688,28.6406 Z " fill="#000000"/><text fill="#000000" font-family="sans-serif" font-size="14" lengthAdjust="spacing" textLength="143" x="42" y="27.8467">Node&lt;InOut, InOut&gt;</text></g><!--reverse link Node<InOut, InOut> to CallbackNode<InOut>--><g id="link_Node&lt;InOut, InOut&gt;_CallbackNode&lt;InOut&gt;"><path codeLine="8" d="M100.5,59.61 C100.5,73.31 100.5,88.22 100.5,98.96 " fill="none" id="Node&lt;InOut, InOut&gt;-backto-CallbackNode&lt;InOut&gt;" style="stroke:#181818;stroke-width:1.0;"/><polygon fill="none" points="93.5,59.27,100.5,39.27,107.5,59.27,93.5,59.27" style="stroke:#181818;stroke-width:1.0;"/></g><!--SRC=[RSmn3eCm343HdLDOp703rA5CBEqPNEAM2CT6iHcgmjsRfIe3wt_IjpdAWXaJN76SNrbN2RsoPl2COeL8l9fY8A2q-1iI-QJ1ZkaPYKiP6SsWxf7vKLut3TGDSb_zKiEdsd_-xmqS-HIwhMtFbry0]--></g></svg>