<?xml version="1.0" encoding="us-ascii" standalone="no"?><svg xmlns="http://www.w3.org/2000/svg" xmlns:xlink="http://www.w3.org/1999/xlink" contentStyleType="text/css" height="138px" preserveAspectRatio="none" style="width:194px;height:138px;" version="1.1" viewBox="0 0 194 138" width="194px" zoomAndPan="magnify"><defs/><g><!--class CallbackNodeOptions--><g id="elem_CallbackNodeOptions"><rect codeLine="4" fill="#F1F1F1" height="32" id="CallbackNodeOptions" rx="2.5" ry="2.5" style="stroke:#181818;stroke-width:0.5;" width="180" x="7" y="99"/><ellipse cx="22" cy="115" fill="#B4A7E5" rx="11" ry="11" style="stroke:#181818;stroke-width:1.0;"/><path d="M17.9219,110.7656 L17.9219,108.6094 L25.3125,108.6094 L25.3125,110.7656 L22.8438,110.7656 L22.8438,118.8438 L25.3125,118.8438 L25.3125,121 L17.9219,121 L17.9219,118.8438 L20.3906,118.8438 L20.3906,110.7656 L17.9219,110.7656 Z " fill="#000000"/><text fill="#000000" font-family="sans-serif" font-size="14" font-style="italic" lengthAdjust="spacing" textLength="148" x="36" y="119.8467">CallbackNodeOptions</text></g><!--class NodeOptions--><g id="elem_NodeOptions"><rect codeLine="6" fill="#F1F1F1" height="32" id="NodeOptions" rx="2.5" ry="2.5" style="stroke:#181818;stroke-width:0.5;" width="123" x="35.5" y="7"/><ellipse cx="50.5" cy="23" fill="#B4A7E5" rx="11" ry="11" style="stroke:#181818;stroke-width:1.0;"/><path d="M46.4219,18.7656 L46.4219,16.6094 L53.8125,16.6094 L53.8125,18.7656 L51.3438,18.7656 L51.3438,26.8438 L53.8125,26.8438 L53.8125,29 L46.4219,29 L46.4219,26.8438 L48.8906,26.8438 L48.8906,18.7656 L46.4219,18.7656 Z " fill="#000000"/><text fill="#000000" font-family="sans-serif" font-size="14" font-style="italic" lengthAdjust="spacing" textLength="91" x="64.5" y="27.8467">NodeOptions</text></g><!--reverse link NodeOptions to CallbackNodeOptions--><g id="link_NodeOptions_CallbackNodeOptions"><path codeLine="8" d="M97,59.61 C97,73.31 97,88.22 97,98.96 " fill="none" id="NodeOptions-backto-CallbackNodeOptions" style="stroke:#181818;stroke-width:1.0;"/><polygon fill="none" points="90,59.27,97,39.27,104,59.27,90,59.27" style="stroke:#181818;stroke-width:1.0;"/></g><!--SRC=[ROmn3eCm301tNc6nyuDEi9StkCI0HM97ZZjKBNyd8wYiTwSh6qj6mmGzJjjY-fOmQ5G3DvHI5OatAmS2Ija_aCXN3UMCPgPO2OkJpJWHj0F6-Ag_fmOQixDAQU7RxEVcprt9uzTrzwC3]--></g></svg>