<?xml version="1.0" encoding="UTF-8" standalone="no"?><svg xmlns="http://www.w3.org/2000/svg" xmlns:xlink="http://www.w3.org/1999/xlink" contentScriptType="application/ecmascript" contentStyleType="text/css" height="145px" preserveAspectRatio="none" style="width:184px;height:145px;background:#00000000;" version="1.1" viewBox="0 0 184 145" width="184px" zoomAndPan="magnify"><defs><filter height="300%" id="f64lxvscej36w" width="300%" x="-1" y="-1"><feGaussianBlur result="blurOut" stdDeviation="2.0"/><feColorMatrix in="blurOut" result="blurOut2" type="matrix" values="0 0 0 0 0 0 0 0 0 0 0 0 0 0 0 0 0 0 .4 0"/><feOffset dx="4.0" dy="4.0" in="blurOut2" result="blurOut3"/><feBlend in="SourceGraphic" in2="blurOut3" mode="normal"/></filter></defs><g><!--MD5=[3fd93ac0a6f13d12a5a4eab79a4cef08]
class CallbackNodeOptions--><rect codeLine="4" fill="#FEFECE" filter="url(#f64lxvscej36w)" height="32" id="CallbackNodeOptions" style="stroke:#A80036;stroke-width:1.5;" width="163" x="7" y="99"/><ellipse cx="22" cy="115" fill="#B4A7E5" rx="11" ry="11" style="stroke:#A80036;stroke-width:1.0;"/><path d="M17.9219,110.7656 L17.9219,108.6094 L25.3125,108.6094 L25.3125,110.7656 L22.8438,110.7656 L22.8438,118.8438 L25.3125,118.8438 L25.3125,121 L17.9219,121 L17.9219,118.8438 L20.3906,118.8438 L20.3906,110.7656 L17.9219,110.7656 Z " fill="#000000"/><text fill="#000000" font-family="sans-serif" font-size="12" font-style="italic" lengthAdjust="spacing" textLength="131" x="36" y="119.1543">CallbackNodeOptions</text><!--MD5=[680d5112d2c67c3de15744b0ad7e4a6c]
class NodeOptions--><rect codeLine="6" fill="#FEFECE" filter="url(#f64lxvscej36w)" height="32" id="NodeOptions" style="stroke:#A80036;stroke-width:1.5;" width="111" x="33" y="7"/><ellipse cx="48" cy="23" fill="#B4A7E5" rx="11" ry="11" style="stroke:#A80036;stroke-width:1.0;"/><path d="M43.9219,18.7656 L43.9219,16.6094 L51.3125,16.6094 L51.3125,18.7656 L48.8438,18.7656 L48.8438,26.8438 L51.3125,26.8438 L51.3125,29 L43.9219,29 L43.9219,26.8438 L46.3906,26.8438 L46.3906,18.7656 L43.9219,18.7656 Z " fill="#000000"/><text fill="#000000" font-family="sans-serif" font-size="12" font-style="italic" lengthAdjust="spacing" textLength="79" x="62" y="27.1543">NodeOptions</text><!--MD5=[3c1d6a837d595b4b12ceb2102c3bd2cd]
reverse link NodeOptions to CallbackNodeOptions--><path codeLine="8" d="M88.5,59.61 C88.5,73.31 88.5,88.22 88.5,98.96 " fill="none" id="NodeOptions-backto-CallbackNodeOptions" style="stroke:#A80036;stroke-width:1.0;"/><polygon fill="none" points="81.5,59.27,88.5,39.27,95.5,59.27,81.5,59.27" style="stroke:#A80036;stroke-width:1.0;"/><!--MD5=[42ac53ee3c14d0a559174425619f37a1]
@startuml
skinparam BackgroundColor transparent
hide empty methods
hide empty fields
interface "CallbackNodeOptions" {
}
interface "NodeOptions" {
}
"NodeOptions" <|- - "CallbackNodeOptions"
@enduml

PlantUML version 1.2021.14(Fri Nov 12 16:46:50 UTC 2021)
(GPL source distribution)
Java Runtime: OpenJDK Runtime Environment
JVM: OpenJDK 64-Bit Server VM
Default Encoding: UTF-8
Language: en
Country: null
--></g></svg>