<?xml version="1.0" encoding="UTF-8" standalone="no"?><svg xmlns="http://www.w3.org/2000/svg" xmlns:xlink="http://www.w3.org/1999/xlink" contentScriptType="application/ecmascript" contentStyleType="text/css" height="225px" preserveAspectRatio="none" style="width:184px;height:225px;background:#00000000;" version="1.1" viewBox="0 0 184 225" width="184px" zoomAndPan="magnify"><defs><filter height="300%" id="fdcizwamxf39r" width="300%" x="-1" y="-1"><feGaussianBlur result="blurOut" stdDeviation="2.0"/><feColorMatrix in="blurOut" result="blurOut2" type="matrix" values="0 0 0 0 0 0 0 0 0 0 0 0 0 0 0 0 0 0 .4 0"/><feOffset dx="4.0" dy="4.0" in="blurOut2" result="blurOut3"/><feBlend in="SourceGraphic" in2="blurOut3" mode="normal"/></filter></defs><g><!--MD5=[3fd93ac0a6f13d12a5a4eab79a4cef08]
class CallbackNodeOptions--><rect codeLine="4" fill="#FEFECE" filter="url(#fdcizwamxf39r)" height="78.4141" id="CallbackNodeOptions" style="stroke:#A80036;stroke-width:1.5;" width="163" x="7" y="133"/><ellipse cx="22" cy="149" fill="#B4A7E5" rx="11" ry="11" style="stroke:#A80036;stroke-width:1.0;"/><path d="M17.9219,144.7656 L17.9219,142.6094 L25.3125,142.6094 L25.3125,144.7656 L22.8438,144.7656 L22.8438,152.8438 L25.3125,152.8438 L25.3125,155 L17.9219,155 L17.9219,152.8438 L20.3906,152.8438 L20.3906,144.7656 L17.9219,144.7656 Z " fill="#000000"/><text fill="#000000" font-family="sans-serif" font-size="12" font-style="italic" lengthAdjust="spacing" textLength="131" x="36" y="153.1543">CallbackNodeOptions</text><line style="stroke:#A80036;stroke-width:1.5;" x1="8" x2="169" y1="165" y2="165"/><ellipse cx="18" cy="176" rx="3" ry="3" style="stroke:#038048;stroke-width:1.0;fill:none;"/><text fill="#000000" font-family="sans-serif" font-size="11" lengthAdjust="spacing" textLength="110" x="27" y="179.2104">autoPush : boolean</text><ellipse cx="18" cy="188.8047" rx="3" ry="3" style="stroke:#038048;stroke-width:1.0;fill:none;"/><text fill="#000000" font-family="sans-serif" font-size="11" lengthAdjust="spacing" textLength="77" x="27" y="192.0151">name : string</text><ellipse cx="18" cy="201.6094" rx="3" ry="3" style="stroke:#038048;stroke-width:1.0;fill:none;"/><text fill="#000000" font-family="sans-serif" font-size="11" lengthAdjust="spacing" textLength="62" x="27" y="204.8198">uid : string</text><!--MD5=[680d5112d2c67c3de15744b0ad7e4a6c]
class NodeOptions--><rect codeLine="9" fill="#FEFECE" filter="url(#fdcizwamxf39r)" height="65.6094" id="NodeOptions" style="stroke:#A80036;stroke-width:1.5;" width="111" x="33" y="7"/><ellipse cx="48" cy="23" fill="#B4A7E5" rx="11" ry="11" style="stroke:#A80036;stroke-width:1.0;"/><path d="M43.9219,18.7656 L43.9219,16.6094 L51.3125,16.6094 L51.3125,18.7656 L48.8438,18.7656 L48.8438,26.8438 L51.3125,26.8438 L51.3125,29 L43.9219,29 L43.9219,26.8438 L46.3906,26.8438 L46.3906,18.7656 L43.9219,18.7656 Z " fill="#000000"/><text fill="#000000" font-family="sans-serif" font-size="12" font-style="italic" lengthAdjust="spacing" textLength="79" x="62" y="27.1543">NodeOptions</text><line style="stroke:#A80036;stroke-width:1.5;" x1="34" x2="143" y1="39" y2="39"/><ellipse cx="44" cy="50" rx="3" ry="3" style="stroke:#038048;stroke-width:1.0;fill:none;"/><text fill="#000000" font-family="sans-serif" font-size="11" lengthAdjust="spacing" textLength="77" x="53" y="53.2104">name : string</text><ellipse cx="44" cy="62.8047" rx="3" ry="3" style="stroke:#038048;stroke-width:1.0;fill:none;"/><text fill="#000000" font-family="sans-serif" font-size="11" lengthAdjust="spacing" textLength="62" x="53" y="66.0151">uid : string</text><!--MD5=[3c1d6a837d595b4b12ceb2102c3bd2cd]
reverse link NodeOptions to CallbackNodeOptions--><path codeLine="13" d="M88.5,93.51 C88.5,106.64 88.5,120.47 88.5,132.76 " fill="none" id="NodeOptions-backto-CallbackNodeOptions" style="stroke:#A80036;stroke-width:1.0;"/><polygon fill="none" points="81.5,93.13,88.5,73.13,95.5,93.13,81.5,93.13" style="stroke:#A80036;stroke-width:1.0;"/><!--MD5=[605cbc959670da07c101bd2a92530e6e]
@startuml
skinparam BackgroundColor transparent
hide empty methods
hide empty fields
interface "CallbackNodeOptions" {
    +autoPush : boolean
    +name : string
    +uid : string
}
interface "NodeOptions" {
    +name : string
    +uid : string
}
"NodeOptions" <|- - "CallbackNodeOptions"
@enduml

PlantUML version 1.2021.14(Fri Nov 12 16:46:50 UTC 2021)
(GPL source distribution)
Java Runtime: OpenJDK Runtime Environment
JVM: OpenJDK 64-Bit Server VM
Default Encoding: UTF-8
Language: en
Country: null
--></g></svg>