<?xml version="1.0" encoding="us-ascii" standalone="no"?><svg xmlns="http://www.w3.org/2000/svg" xmlns:xlink="http://www.w3.org/1999/xlink" contentStyleType="text/css" height="230px" preserveAspectRatio="none" style="width:205px;height:230px;" version="1.1" viewBox="0 0 205 230" width="205px" zoomAndPan="magnify"><defs/><g><!--class CallbackSinkNode<In>--><g id="elem_CallbackSinkNode&lt;In&gt;"><rect codeLine="4" fill="#F1F1F1" height="32" id="CallbackSinkNode&lt;In&gt;" rx="2.5" ry="2.5" style="stroke:#181818;stroke-width:0.5;" width="191" x="7" y="99"/><ellipse cx="22" cy="115" fill="#ADD1B2" rx="11" ry="11" style="stroke:#181818;stroke-width:1.0;"/><path d="M24.9688,120.6406 Q24.3906,120.9375 23.75,121.0781 Q23.1094,121.2344 22.4063,121.2344 Q19.9063,121.2344 18.5781,119.5938 Q17.2656,117.9375 17.2656,114.8125 Q17.2656,111.6875 18.5781,110.0313 Q19.9063,108.375 22.4063,108.375 Q23.1094,108.375 23.75,108.5313 Q24.4063,108.6875 24.9688,108.9844 L24.9688,111.7031 Q24.3438,111.125 23.75,110.8594 Q23.1563,110.5781 22.5313,110.5781 Q21.1875,110.5781 20.5,111.6563 Q19.8125,112.7188 19.8125,114.8125 Q19.8125,116.9063 20.5,117.9844 Q21.1875,119.0469 22.5313,119.0469 Q23.1563,119.0469 23.75,118.7813 Q24.3438,118.5 24.9688,117.9219 L24.9688,120.6406 Z " fill="#000000"/><text fill="#000000" font-family="sans-serif" font-size="14" lengthAdjust="spacing" textLength="159" x="36" y="119.8467">CallbackSinkNode&lt;In&gt;</text></g><!--class SinkNode<In>--><g id="elem_SinkNode&lt;In&gt;"><rect codeLine="6" fill="#F1F1F1" height="32" id="SinkNode&lt;In&gt;" rx="2.5" ry="2.5" style="stroke:#181818;stroke-width:0.5;" width="136" x="34.5" y="7"/><ellipse cx="49.5" cy="23" fill="#A9DCDF" rx="11" ry="11" style="stroke:#181818;stroke-width:1.0;"/><path d="M49.6094,18.3438 L48.4531,23.4219 L50.7813,23.4219 L49.6094,18.3438 Z M48.125,16.1094 L51.1094,16.1094 L54.4688,28.5 L52.0156,28.5 L51.25,25.4375 L47.9688,25.4375 L47.2188,28.5 L44.7813,28.5 L48.125,16.1094 Z " fill="#000000"/><text fill="#000000" font-family="sans-serif" font-size="14" font-style="italic" lengthAdjust="spacing" textLength="104" x="63.5" y="27.8467">SinkNode&lt;In&gt;</text></g><!--class LoggingSinkNode<In>--><g id="elem_LoggingSinkNode&lt;In&gt;"><rect codeLine="9" fill="#F1F1F1" height="32" id="LoggingSinkNode&lt;In&gt;" rx="2.5" ry="2.5" style="stroke:#181818;stroke-width:0.5;" width="189" x="8" y="191"/><ellipse cx="23" cy="207" fill="#ADD1B2" rx="11" ry="11" style="stroke:#181818;stroke-width:1.0;"/><path d="M25.9688,212.6406 Q25.3906,212.9375 24.75,213.0781 Q24.1094,213.2344 23.4063,213.2344 Q20.9063,213.2344 19.5781,211.5938 Q18.2656,209.9375 18.2656,206.8125 Q18.2656,203.6875 19.5781,202.0313 Q20.9063,200.375 23.4063,200.375 Q24.1094,200.375 24.75,200.5313 Q25.4063,200.6875 25.9688,200.9844 L25.9688,203.7031 Q25.3438,203.125 24.75,202.8594 Q24.1563,202.5781 23.5313,202.5781 Q22.1875,202.5781 21.5,203.6563 Q20.8125,204.7188 20.8125,206.8125 Q20.8125,208.9063 21.5,209.9844 Q22.1875,211.0469 23.5313,211.0469 Q24.1563,211.0469 24.75,210.7813 Q25.3438,210.5 25.9688,209.9219 L25.9688,212.6406 Z " fill="#000000"/><text fill="#000000" font-family="sans-serif" font-size="14" lengthAdjust="spacing" textLength="157" x="37" y="211.8467">LoggingSinkNode&lt;In&gt;</text></g><!--reverse link SinkNode<In> to CallbackSinkNode<In>--><g id="link_SinkNode&lt;In&gt;_CallbackSinkNode&lt;In&gt;"><path codeLine="8" d="M102.5,59.61 C102.5,73.31 102.5,88.22 102.5,98.96 " fill="none" id="SinkNode&lt;In&gt;-backto-CallbackSinkNode&lt;In&gt;" style="stroke:#181818;stroke-width:1.0;"/><polygon fill="none" points="95.5,59.27,102.5,39.27,109.5,59.27,95.5,59.27" style="stroke:#181818;stroke-width:1.0;"/></g><!--reverse link CallbackSinkNode<In> to LoggingSinkNode<In>--><g id="link_CallbackSinkNode&lt;In&gt;_LoggingSinkNode&lt;In&gt;"><path codeLine="11" d="M102.5,151.61 C102.5,165.31 102.5,180.22 102.5,190.96 " fill="none" id="CallbackSinkNode&lt;In&gt;-backto-LoggingSinkNode&lt;In&gt;" style="stroke:#181818;stroke-width:1.0;"/><polygon fill="none" points="95.5,151.27,102.5,131.27,109.5,151.27,95.5,151.27" style="stroke:#181818;stroke-width:1.0;"/></g><!--SRC=[TOun3i8m34NtdiBgtXjK37H2GYoSm4rC6YMngpWC2BWxaG09GLYVlz__6Zolc3715armMSvi9ucIeMHahIVYqYtU4b1QomKIbKMiVgAJfrY9YQWA_OGnpjLrz1mEOcdSyQQ7QtVlSDOgDGLUoT_45nflm_17-6xRYtEUNKFLtl5KjhuU]--></g></svg>