<?xml version="1.0" encoding="UTF-8" standalone="no"?><svg xmlns="http://www.w3.org/2000/svg" xmlns:xlink="http://www.w3.org/1999/xlink" contentScriptType="application/ecmascript" contentStyleType="text/css" height="145px" preserveAspectRatio="none" style="width:380px;height:145px;background:#00000000;" version="1.1" viewBox="0 0 380 145" width="380px" zoomAndPan="magnify"><defs><filter height="300%" id="fthlz7kieruhc" width="300%" x="-1" y="-1"><feGaussianBlur result="blurOut" stdDeviation="2.0"/><feColorMatrix in="blurOut" result="blurOut2" type="matrix" values="0 0 0 0 0 0 0 0 0 0 0 0 0 0 0 0 0 0 .4 0"/><feOffset dx="4.0" dy="4.0" in="blurOut2" result="blurOut3"/><feBlend in="SourceGraphic" in2="blurOut3" mode="normal"/></filter></defs><g><!--MD5=[6ca7ed68d11791e77b122335e816879c]
class CellIdentificationNode<InOut>--><rect codeLine="4" fill="#FEFECE" filter="url(#fthlz7kieruhc)" height="32" id="CellIdentificationNode&lt;InOut&gt;" style="stroke:#A80036;stroke-width:1.5;" width="221" x="76" y="99"/><ellipse cx="91" cy="115" fill="#ADD1B2" rx="11" ry="11" style="stroke:#A80036;stroke-width:1.0;"/><path d="M93.9688,120.6406 Q93.3906,120.9375 92.75,121.0781 Q92.1094,121.2344 91.4063,121.2344 Q88.9063,121.2344 87.5781,119.5938 Q86.2656,117.9375 86.2656,114.8125 Q86.2656,111.6875 87.5781,110.0313 Q88.9063,108.375 91.4063,108.375 Q92.1094,108.375 92.75,108.5313 Q93.4063,108.6875 93.9688,108.9844 L93.9688,111.7031 Q93.3438,111.125 92.75,110.8594 Q92.1563,110.5781 91.5313,110.5781 Q90.1875,110.5781 89.5,111.6563 Q88.8125,112.7188 88.8125,114.8125 Q88.8125,116.9063 89.5,117.9844 Q90.1875,119.0469 91.5313,119.0469 Q92.1563,119.0469 92.75,118.7813 Q93.3438,118.5 93.9688,117.9219 L93.9688,120.6406 Z " fill="#000000"/><text fill="#000000" font-family="sans-serif" font-size="12" lengthAdjust="spacing" textLength="189" x="105" y="119.1543">CellIdentificationNode&lt;InOut&gt;</text><!--MD5=[5ee0ba2e13c098ddf7aec5a4aa62c115]
class RelativePositionProcessing<InOut, RelativeDistance>--><rect codeLine="6" fill="#FEFECE" filter="url(#fthlz7kieruhc)" height="32" id="RelativePositionProcessing&lt;InOut, RelativeDistance&gt;" style="stroke:#A80036;stroke-width:1.5;" width="359" x="7" y="7"/><ellipse cx="22" cy="23" fill="#A9DCDF" rx="11" ry="11" style="stroke:#A80036;stroke-width:1.0;"/><path d="M22.1094,18.3438 L20.9531,23.4219 L23.2813,23.4219 L22.1094,18.3438 Z M20.625,16.1094 L23.6094,16.1094 L26.9688,28.5 L24.5156,28.5 L23.75,25.4375 L20.4688,25.4375 L19.7188,28.5 L17.2813,28.5 L20.625,16.1094 Z " fill="#000000"/><text fill="#000000" font-family="sans-serif" font-size="12" font-style="italic" lengthAdjust="spacing" textLength="327" x="36" y="27.1543">RelativePositionProcessing&lt;InOut, RelativeDistance&gt;</text><!--MD5=[cc36d975d9eb323ab582d0e9fcc87c58]
reverse link RelativePositionProcessing<InOut, RelativeDistance> to CellIdentificationNode<InOut>--><path codeLine="8" d="M186.5,59.61 C186.5,73.31 186.5,88.22 186.5,98.96 " fill="none" id="RelativePositionProcessing&lt;InOut, RelativeDistance&gt;-backto-CellIdentificationNode&lt;InOut&gt;" style="stroke:#A80036;stroke-width:1.0;"/><polygon fill="none" points="179.5,59.27,186.5,39.27,193.5,59.27,179.5,59.27" style="stroke:#A80036;stroke-width:1.0;"/><!--MD5=[24bfe87561a8df1e942b1a4e2bbb1fff]
@startuml
skinparam BackgroundColor transparent
hide empty methods
hide empty fields
class "CellIdentificationNode<InOut>" {
}
abstract class "RelativePositionProcessing<InOut, RelativeDistance>" {
}
"RelativePositionProcessing<InOut, RelativeDistance>" <|- - "CellIdentificationNode<InOut>"
@enduml

PlantUML version 1.2021.14(Fri Nov 12 16:46:50 UTC 2021)
(GPL source distribution)
Java Runtime: OpenJDK Runtime Environment
JVM: OpenJDK 64-Bit Server VM
Default Encoding: UTF-8
Language: en
Country: null
--></g></svg>