<?xml version="1.0" encoding="us-ascii" standalone="no"?><svg xmlns="http://www.w3.org/2000/svg" xmlns:xlink="http://www.w3.org/1999/xlink" contentStyleType="text/css" height="138px" preserveAspectRatio="none" style="width:216px;height:138px;" version="1.1" viewBox="0 0 216 138" width="216px" zoomAndPan="magnify"><defs/><g><!--class ConcreteTypeDescriptor--><g id="elem_ConcreteTypeDescriptor"><rect codeLine="4" fill="#F1F1F1" height="32" id="ConcreteTypeDescriptor" rx="2.5" ry="2.5" style="stroke:#181818;stroke-width:0.5;" width="202" x="7" y="99"/><ellipse cx="22" cy="115" fill="#ADD1B2" rx="11" ry="11" style="stroke:#181818;stroke-width:1.0;"/><path d="M24.9688,120.6406 Q24.3906,120.9375 23.75,121.0781 Q23.1094,121.2344 22.4063,121.2344 Q19.9063,121.2344 18.5781,119.5938 Q17.2656,117.9375 17.2656,114.8125 Q17.2656,111.6875 18.5781,110.0313 Q19.9063,108.375 22.4063,108.375 Q23.1094,108.375 23.75,108.5313 Q24.4063,108.6875 24.9688,108.9844 L24.9688,111.7031 Q24.3438,111.125 23.75,110.8594 Q23.1563,110.5781 22.5313,110.5781 Q21.1875,110.5781 20.5,111.6563 Q19.8125,112.7188 19.8125,114.8125 Q19.8125,116.9063 20.5,117.9844 Q21.1875,119.0469 22.5313,119.0469 Q23.1563,119.0469 23.75,118.7813 Q24.3438,118.5 24.9688,117.9219 L24.9688,120.6406 Z " fill="#000000"/><text fill="#000000" font-family="sans-serif" font-size="14" lengthAdjust="spacing" textLength="170" x="36" y="119.8467">ConcreteTypeDescriptor</text></g><!--class TypeDescriptor--><g id="elem_TypeDescriptor"><rect codeLine="6" fill="#F1F1F1" height="32" id="TypeDescriptor" rx="2.5" ry="2.5" style="stroke:#181818;stroke-width:0.5;" width="138" x="39" y="7"/><ellipse cx="54" cy="23" fill="#A9DCDF" rx="11" ry="11" style="stroke:#181818;stroke-width:1.0;"/><path d="M54.1094,18.3438 L52.9531,23.4219 L55.2813,23.4219 L54.1094,18.3438 Z M52.625,16.1094 L55.6094,16.1094 L58.9688,28.5 L56.5156,28.5 L55.75,25.4375 L52.4688,25.4375 L51.7188,28.5 L49.2813,28.5 L52.625,16.1094 Z " fill="#000000"/><text fill="#000000" font-family="sans-serif" font-size="14" font-style="italic" lengthAdjust="spacing" textLength="106" x="68" y="27.8467">TypeDescriptor</text></g><!--reverse link TypeDescriptor to ConcreteTypeDescriptor--><g id="link_TypeDescriptor_ConcreteTypeDescriptor"><path codeLine="8" d="M108,59.61 C108,73.31 108,88.22 108,98.96 " fill="none" id="TypeDescriptor-backto-ConcreteTypeDescriptor" style="stroke:#181818;stroke-width:1.0;"/><polygon fill="none" points="101,59.27,108,39.27,115,59.27,101,59.27" style="stroke:#181818;stroke-width:1.0;"/></g><!--SRC=[TOmn3i8m303tlCBgtXymKPx01qnYQDJ4ZcmpLD2_au41gMMzEvqjcHigLZXZN1ugJqwJ555mHRQkY3tCEH5GRRv29PybsI-wPogTn89cC4p2KSdfkZQwa4NDpKK7U8KjuCtwDZfyswDc1q_lSVox_G00]--></g></svg>