<?xml version="1.0" encoding="us-ascii" standalone="no"?><svg xmlns="http://www.w3.org/2000/svg" xmlns:xlink="http://www.w3.org/1999/xlink" contentStyleType="text/css" height="230px" preserveAspectRatio="none" style="width:227px;height:230px;" version="1.1" viewBox="0 0 227 230" width="227px" zoomAndPan="magnify"><defs/><g><!--class DataServiceDriver<I, T>--><g id="elem_DataServiceDriver&lt;I, T&gt;"><rect codeLine="4" fill="#F1F1F1" height="32" id="DataServiceDriver&lt;I, T&gt;" rx="2.5" ry="2.5" style="stroke:#181818;stroke-width:0.5;" width="201" x="13" y="99"/><ellipse cx="28" cy="115" fill="#A9DCDF" rx="11" ry="11" style="stroke:#181818;stroke-width:1.0;"/><path d="M28.1094,110.3438 L26.9531,115.4219 L29.2813,115.4219 L28.1094,110.3438 Z M26.625,108.1094 L29.6094,108.1094 L32.9688,120.5 L30.5156,120.5 L29.75,117.4375 L26.4688,117.4375 L25.7188,120.5 L23.2813,120.5 L26.625,108.1094 Z " fill="#000000"/><text fill="#000000" font-family="sans-serif" font-size="14" font-style="italic" lengthAdjust="spacing" textLength="169" x="42" y="119.8467">DataServiceDriver&lt;I, T&gt;</text></g><!--class Service--><g id="elem_Service"><rect codeLine="6" fill="#F1F1F1" height="32" id="Service" rx="2.5" ry="2.5" style="stroke:#181818;stroke-width:0.5;" width="83" x="72" y="7"/><ellipse cx="87" cy="23" fill="#A9DCDF" rx="11" ry="11" style="stroke:#181818;stroke-width:1.0;"/><path d="M87.1094,18.3438 L85.9531,23.4219 L88.2813,23.4219 L87.1094,18.3438 Z M85.625,16.1094 L88.6094,16.1094 L91.9688,28.5 L89.5156,28.5 L88.75,25.4375 L85.4688,25.4375 L84.7188,28.5 L82.2813,28.5 L85.625,16.1094 Z " fill="#000000"/><text fill="#000000" font-family="sans-serif" font-size="14" font-style="italic" lengthAdjust="spacing" textLength="51" x="101" y="27.8467">Service</text></g><!--class MemoryDataService<I, T>--><g id="elem_MemoryDataService&lt;I, T&gt;"><rect codeLine="9" fill="#F1F1F1" height="32" id="MemoryDataService&lt;I, T&gt;" rx="2.5" ry="2.5" style="stroke:#181818;stroke-width:0.5;" width="213" x="7" y="191"/><ellipse cx="22" cy="207" fill="#ADD1B2" rx="11" ry="11" style="stroke:#181818;stroke-width:1.0;"/><path d="M24.9688,212.6406 Q24.3906,212.9375 23.75,213.0781 Q23.1094,213.2344 22.4063,213.2344 Q19.9063,213.2344 18.5781,211.5938 Q17.2656,209.9375 17.2656,206.8125 Q17.2656,203.6875 18.5781,202.0313 Q19.9063,200.375 22.4063,200.375 Q23.1094,200.375 23.75,200.5313 Q24.4063,200.6875 24.9688,200.9844 L24.9688,203.7031 Q24.3438,203.125 23.75,202.8594 Q23.1563,202.5781 22.5313,202.5781 Q21.1875,202.5781 20.5,203.6563 Q19.8125,204.7188 19.8125,206.8125 Q19.8125,208.9063 20.5,209.9844 Q21.1875,211.0469 22.5313,211.0469 Q23.1563,211.0469 23.75,210.7813 Q24.3438,210.5 24.9688,209.9219 L24.9688,212.6406 Z " fill="#000000"/><text fill="#000000" font-family="sans-serif" font-size="14" lengthAdjust="spacing" textLength="181" x="36" y="211.8467">MemoryDataService&lt;I, T&gt;</text></g><!--reverse link Service to DataServiceDriver<I, T>--><g id="link_Service_DataServiceDriver&lt;I, T&gt;"><path codeLine="8" d="M113.5,59.61 C113.5,73.31 113.5,88.22 113.5,98.96 " fill="none" id="Service-backto-DataServiceDriver&lt;I, T&gt;" style="stroke:#181818;stroke-width:1.0;"/><polygon fill="none" points="106.5,59.27,113.5,39.27,120.5,59.27,106.5,59.27" style="stroke:#181818;stroke-width:1.0;"/></g><!--reverse link DataServiceDriver<I, T> to MemoryDataService<I, T>--><g id="link_DataServiceDriver&lt;I, T&gt;_MemoryDataService&lt;I, T&gt;"><path codeLine="11" d="M113.5,151.61 C113.5,165.31 113.5,180.22 113.5,190.96 " fill="none" id="DataServiceDriver&lt;I, T&gt;-backto-MemoryDataService&lt;I, T&gt;" style="stroke:#181818;stroke-width:1.0;"/><polygon fill="none" points="106.5,151.27,113.5,131.27,120.5,151.27,106.5,151.27" style="stroke:#181818;stroke-width:1.0;"/></g><!--SRC=[TOwz3i8m38JtF8NLcRv1nG1T69ZW1KnYQDJyL8wfL07lJgHM8XBAwBlxpfT66oPaz710FJuuFeCvHXSPX36aR54GDLX3G7wI1Jp944qgfRibbnMyfSne0Uqm9MXw5BmGprPJptOcxauxkEuRUAdFNtWBhkRlwjvjMszI6tmc7tafKkMd-ewrl0P_0G00]--></g></svg>