<?xml version="1.0" encoding="us-ascii" standalone="no"?><svg xmlns="http://www.w3.org/2000/svg" xmlns:xlink="http://www.w3.org/1999/xlink" contentStyleType="text/css" height="138px" preserveAspectRatio="none" style="width:219px;height:138px;" version="1.1" viewBox="0 0 219 138" width="219px" zoomAndPan="magnify"><defs/><g><!--class DataServiceOptions<T>--><g id="elem_DataServiceOptions&lt;T&gt;"><rect codeLine="4" fill="#F1F1F1" height="32" id="DataServiceOptions&lt;T&gt;" rx="2.5" ry="2.5" style="stroke:#181818;stroke-width:0.5;" width="201" x="9" y="7"/><ellipse cx="24" cy="23" fill="#B4A7E5" rx="11" ry="11" style="stroke:#181818;stroke-width:1.0;"/><path d="M19.9219,18.7656 L19.9219,16.6094 L27.3125,16.6094 L27.3125,18.7656 L24.8438,18.7656 L24.8438,26.8438 L27.3125,26.8438 L27.3125,29 L19.9219,29 L19.9219,26.8438 L22.3906,26.8438 L22.3906,18.7656 L19.9219,18.7656 Z " fill="#000000"/><text fill="#000000" font-family="sans-serif" font-size="14" font-style="italic" lengthAdjust="spacing" textLength="169" x="38" y="27.8467">DataServiceOptions&lt;T&gt;</text></g><!--class TrajectoryServiceOptions--><g id="elem_TrajectoryServiceOptions"><rect codeLine="6" fill="#F1F1F1" height="32" id="TrajectoryServiceOptions" rx="2.5" ry="2.5" style="stroke:#181818;stroke-width:0.5;" width="205" x="7" y="99"/><ellipse cx="22" cy="115" fill="#B4A7E5" rx="11" ry="11" style="stroke:#181818;stroke-width:1.0;"/><path d="M17.9219,110.7656 L17.9219,108.6094 L25.3125,108.6094 L25.3125,110.7656 L22.8438,110.7656 L22.8438,118.8438 L25.3125,118.8438 L25.3125,121 L17.9219,121 L17.9219,118.8438 L20.3906,118.8438 L20.3906,110.7656 L17.9219,110.7656 Z " fill="#000000"/><text fill="#000000" font-family="sans-serif" font-size="14" font-style="italic" lengthAdjust="spacing" textLength="173" x="36" y="119.8467">TrajectoryServiceOptions</text></g><!--reverse link DataServiceOptions<T> to TrajectoryServiceOptions--><g id="link_DataServiceOptions&lt;T&gt;_TrajectoryServiceOptions"><path codeLine="8" d="M109.5,59.61 C109.5,73.31 109.5,88.22 109.5,98.96 " fill="none" id="DataServiceOptions&lt;T&gt;-backto-TrajectoryServiceOptions" style="stroke:#181818;stroke-width:1.0;"/><polygon fill="none" points="102.5,59.27,109.5,39.27,116.5,59.27,102.5,59.27" style="stroke:#181818;stroke-width:1.0;"/></g><!--SRC=[VOn13e9034NtdA9Xpms82sNlGYxGp1IfCEsaKqs8UdT9tC12j- -_zyl4aj4mmH73T3MzIppfh0PkA6MTIBmQEH9Gohv08XyrbYqQcEQLi3ZPW86Wxj3nGlRWGEVih5BQ_b33itflhTxmHi7Lbhtx5N-TjA-c-TD-0000]--></g></svg>