<?xml version="1.0" encoding="us-ascii" standalone="no"?><svg xmlns="http://www.w3.org/2000/svg" xmlns:xlink="http://www.w3.org/1999/xlink" contentStyleType="text/css" height="138px" preserveAspectRatio="none" style="width:208px;height:138px;" version="1.1" viewBox="0 0 208 138" width="208px" zoomAndPan="magnify"><defs/><g><!--class DataObjectService<T>--><g id="elem_DataObjectService&lt;T&gt;"><rect codeLine="4" fill="#F1F1F1" height="32" id="DataObjectService&lt;T&gt;" rx="2.5" ry="2.5" style="stroke:#181818;stroke-width:0.5;" width="192" x="8" y="99"/><ellipse cx="23" cy="115" fill="#ADD1B2" rx="11" ry="11" style="stroke:#181818;stroke-width:1.0;"/><path d="M25.9688,120.6406 Q25.3906,120.9375 24.75,121.0781 Q24.1094,121.2344 23.4063,121.2344 Q20.9063,121.2344 19.5781,119.5938 Q18.2656,117.9375 18.2656,114.8125 Q18.2656,111.6875 19.5781,110.0313 Q20.9063,108.375 23.4063,108.375 Q24.1094,108.375 24.75,108.5313 Q25.4063,108.6875 25.9688,108.9844 L25.9688,111.7031 Q25.3438,111.125 24.75,110.8594 Q24.1563,110.5781 23.5313,110.5781 Q22.1875,110.5781 21.5,111.6563 Q20.8125,112.7188 20.8125,114.8125 Q20.8125,116.9063 21.5,117.9844 Q22.1875,119.0469 23.5313,119.0469 Q24.1563,119.0469 24.75,118.7813 Q25.3438,118.5 25.9688,117.9219 L25.9688,120.6406 Z " fill="#000000"/><text fill="#000000" font-family="sans-serif" font-size="14" lengthAdjust="spacing" textLength="160" x="37" y="119.8467">DataObjectService&lt;T&gt;</text></g><!--class DataService<string, T>--><g id="elem_DataService&lt;string, T&gt;"><rect codeLine="6" fill="#F1F1F1" height="32" id="DataService&lt;string, T&gt;" rx="2.5" ry="2.5" style="stroke:#181818;stroke-width:0.5;" width="194" x="7" y="7"/><ellipse cx="22" cy="23" fill="#A9DCDF" rx="11" ry="11" style="stroke:#181818;stroke-width:1.0;"/><path d="M22.1094,18.3438 L20.9531,23.4219 L23.2813,23.4219 L22.1094,18.3438 Z M20.625,16.1094 L23.6094,16.1094 L26.9688,28.5 L24.5156,28.5 L23.75,25.4375 L20.4688,25.4375 L19.7188,28.5 L17.2813,28.5 L20.625,16.1094 Z " fill="#000000"/><text fill="#000000" font-family="sans-serif" font-size="14" font-style="italic" lengthAdjust="spacing" textLength="162" x="36" y="27.8467">DataService&lt;string, T&gt;</text></g><!--reverse link DataService<string, T> to DataObjectService<T>--><g id="link_DataService&lt;string, T&gt;_DataObjectService&lt;T&gt;"><path codeLine="8" d="M104,59.61 C104,73.31 104,88.22 104,98.96 " fill="none" id="DataService&lt;string, T&gt;-backto-DataObjectService&lt;T&gt;" style="stroke:#181818;stroke-width:1.0;"/><polygon fill="none" points="97,59.27,104,39.27,111,59.27,97,59.27" style="stroke:#181818;stroke-width:1.0;"/></g><!--SRC=[TOqx3i9030NxFOMLcjmWeW1w2hY0isiIa_r4jeE4WBkpJQGqQMT6x-d4UKR112Vqqo1boU5SOX4mmQnLKJOtSY2WDDiR4jbOWcxHWobMuYEgGdD1msl_96ytaXTxwkx71Zxkvx3NEkeDDkNQLCDvEC3QxihksxOx9ty0]--></g></svg>