<?xml version="1.0" encoding="UTF-8" standalone="no"?><svg xmlns="http://www.w3.org/2000/svg" xmlns:xlink="http://www.w3.org/1999/xlink" contentScriptType="application/ecmascript" contentStyleType="text/css" height="145px" preserveAspectRatio="none" style="width:156px;height:145px;background:#00000000;" version="1.1" viewBox="0 0 156 145" width="156px" zoomAndPan="magnify"><defs><filter height="300%" id="f1x96v14suffdg" width="300%" x="-1" y="-1"><feGaussianBlur result="blurOut" stdDeviation="2.0"/><feColorMatrix in="blurOut" result="blurOut2" type="matrix" values="0 0 0 0 0 0 0 0 0 0 0 0 0 0 0 0 0 0 .4 0"/><feOffset dx="4.0" dy="4.0" in="blurOut2" result="blurOut3"/><feBlend in="SourceGraphic" in2="blurOut3" mode="normal"/></filter></defs><g><!--MD5=[b714e43f0cea490da1ab103313ecf250]
class DataObject--><rect codeLine="4" fill="#FEFECE" filter="url(#f1x96v14suffdg)" height="32" id="DataObject" style="stroke:#A80036;stroke-width:1.5;" width="102" x="23.5" y="7"/><ellipse cx="38.5" cy="23" fill="#ADD1B2" rx="11" ry="11" style="stroke:#A80036;stroke-width:1.0;"/><path d="M41.4688,28.6406 Q40.8906,28.9375 40.25,29.0781 Q39.6094,29.2344 38.9063,29.2344 Q36.4063,29.2344 35.0781,27.5938 Q33.7656,25.9375 33.7656,22.8125 Q33.7656,19.6875 35.0781,18.0313 Q36.4063,16.375 38.9063,16.375 Q39.6094,16.375 40.25,16.5313 Q40.9063,16.6875 41.4688,16.9844 L41.4688,19.7031 Q40.8438,19.125 40.25,18.8594 Q39.6563,18.5781 39.0313,18.5781 Q37.6875,18.5781 37,19.6563 Q36.3125,20.7188 36.3125,22.8125 Q36.3125,24.9063 37,25.9844 Q37.6875,27.0469 39.0313,27.0469 Q39.6563,27.0469 40.25,26.7813 Q40.8438,26.5 41.4688,25.9219 L41.4688,28.6406 Z " fill="#000000"/><text fill="#000000" font-family="sans-serif" font-size="12" lengthAdjust="spacing" textLength="70" x="52.5" y="27.1543">DataObject</text><!--MD5=[457d44dd3880c8513c660a518493ac6e]
class ReferenceSpace--><rect codeLine="6" fill="#FEFECE" filter="url(#f1x96v14suffdg)" height="32" id="ReferenceSpace" style="stroke:#A80036;stroke-width:1.5;" width="135" x="7" y="99"/><ellipse cx="22" cy="115" fill="#ADD1B2" rx="11" ry="11" style="stroke:#A80036;stroke-width:1.0;"/><path d="M24.9688,120.6406 Q24.3906,120.9375 23.75,121.0781 Q23.1094,121.2344 22.4063,121.2344 Q19.9063,121.2344 18.5781,119.5938 Q17.2656,117.9375 17.2656,114.8125 Q17.2656,111.6875 18.5781,110.0313 Q19.9063,108.375 22.4063,108.375 Q23.1094,108.375 23.75,108.5313 Q24.4063,108.6875 24.9688,108.9844 L24.9688,111.7031 Q24.3438,111.125 23.75,110.8594 Q23.1563,110.5781 22.5313,110.5781 Q21.1875,110.5781 20.5,111.6563 Q19.8125,112.7188 19.8125,114.8125 Q19.8125,116.9063 20.5,117.9844 Q21.1875,119.0469 22.5313,119.0469 Q23.1563,119.0469 23.75,118.7813 Q24.3438,118.5 24.9688,117.9219 L24.9688,120.6406 Z " fill="#000000"/><text fill="#000000" font-family="sans-serif" font-size="12" lengthAdjust="spacing" textLength="103" x="36" y="119.1543">ReferenceSpace</text><!--MD5=[892e831a8e7c02144a9c781d3c85130e]
reverse link DataObject to ReferenceSpace--><path codeLine="8" d="M74.5,59.61 C74.5,73.31 74.5,88.22 74.5,98.96 " fill="none" id="DataObject-backto-ReferenceSpace" style="stroke:#A80036;stroke-width:1.0;"/><polygon fill="none" points="67.5,59.27,74.5,39.27,81.5,59.27,67.5,59.27" style="stroke:#A80036;stroke-width:1.0;"/><!--MD5=[33016c6c4b155fe6bf40b75abba9cd5b]
@startuml
skinparam BackgroundColor transparent
hide empty methods
hide empty fields
class "DataObject" {
}
class "ReferenceSpace" {
}
"DataObject" <|- - "ReferenceSpace"
@enduml

PlantUML version 1.2021.14(Fri Nov 12 16:46:50 UTC 2021)
(GPL source distribution)
Java Runtime: OpenJDK Runtime Environment
JVM: OpenJDK 64-Bit Server VM
Default Encoding: UTF-8
Language: en
Country: null
--></g></svg>