<?xml version="1.0" encoding="us-ascii" standalone="no"?><svg xmlns="http://www.w3.org/2000/svg" xmlns:xlink="http://www.w3.org/1999/xlink" contentStyleType="text/css" height="230px" preserveAspectRatio="none" style="width:219px;height:230px;" version="1.1" viewBox="0 0 219 230" width="219px" zoomAndPan="magnify"><defs/><g><!--class DataServiceOptions<T>--><g id="elem_DataServiceOptions&lt;T&gt;"><rect codeLine="4" fill="#F1F1F1" height="32" id="DataServiceOptions&lt;T&gt;" rx="2.5" ry="2.5" style="stroke:#181818;stroke-width:0.5;" width="201" x="9" y="99"/><ellipse cx="24" cy="115" fill="#B4A7E5" rx="11" ry="11" style="stroke:#181818;stroke-width:1.0;"/><path d="M19.9219,110.7656 L19.9219,108.6094 L27.3125,108.6094 L27.3125,110.7656 L24.8438,110.7656 L24.8438,118.8438 L27.3125,118.8438 L27.3125,121 L19.9219,121 L19.9219,118.8438 L22.3906,118.8438 L22.3906,110.7656 L19.9219,110.7656 Z " fill="#000000"/><text fill="#000000" font-family="sans-serif" font-size="14" font-style="italic" lengthAdjust="spacing" textLength="169" x="38" y="119.8467">DataServiceOptions&lt;T&gt;</text></g><!--class ServiceOptions--><g id="elem_ServiceOptions"><rect codeLine="6" fill="#F1F1F1" height="32" id="ServiceOptions" rx="2.5" ry="2.5" style="stroke:#181818;stroke-width:0.5;" width="136" x="41.5" y="7"/><ellipse cx="56.5" cy="23" fill="#B4A7E5" rx="11" ry="11" style="stroke:#181818;stroke-width:1.0;"/><path d="M52.4219,18.7656 L52.4219,16.6094 L59.8125,16.6094 L59.8125,18.7656 L57.3438,18.7656 L57.3438,26.8438 L59.8125,26.8438 L59.8125,29 L52.4219,29 L52.4219,26.8438 L54.8906,26.8438 L54.8906,18.7656 L52.4219,18.7656 Z " fill="#000000"/><text fill="#000000" font-family="sans-serif" font-size="14" font-style="italic" lengthAdjust="spacing" textLength="104" x="70.5" y="27.8467">ServiceOptions</text></g><!--class TrajectoryServiceOptions--><g id="elem_TrajectoryServiceOptions"><rect codeLine="9" fill="#F1F1F1" height="32" id="TrajectoryServiceOptions" rx="2.5" ry="2.5" style="stroke:#181818;stroke-width:0.5;" width="205" x="7" y="191"/><ellipse cx="22" cy="207" fill="#B4A7E5" rx="11" ry="11" style="stroke:#181818;stroke-width:1.0;"/><path d="M17.9219,202.7656 L17.9219,200.6094 L25.3125,200.6094 L25.3125,202.7656 L22.8438,202.7656 L22.8438,210.8438 L25.3125,210.8438 L25.3125,213 L17.9219,213 L17.9219,210.8438 L20.3906,210.8438 L20.3906,202.7656 L17.9219,202.7656 Z " fill="#000000"/><text fill="#000000" font-family="sans-serif" font-size="14" font-style="italic" lengthAdjust="spacing" textLength="173" x="36" y="211.8467">TrajectoryServiceOptions</text></g><!--reverse link ServiceOptions to DataServiceOptions<T>--><g id="link_ServiceOptions_DataServiceOptions&lt;T&gt;"><path codeLine="8" d="M109.5,59.61 C109.5,73.31 109.5,88.22 109.5,98.96 " fill="none" id="ServiceOptions-backto-DataServiceOptions&lt;T&gt;" style="stroke:#181818;stroke-width:1.0;"/><polygon fill="none" points="102.5,59.27,109.5,39.27,116.5,59.27,102.5,59.27" style="stroke:#181818;stroke-width:1.0;"/></g><!--reverse link DataServiceOptions<T> to TrajectoryServiceOptions--><g id="link_DataServiceOptions&lt;T&gt;_TrajectoryServiceOptions"><path codeLine="11" d="M109.5,151.61 C109.5,165.31 109.5,180.22 109.5,190.96 " fill="none" id="DataServiceOptions&lt;T&gt;-backto-TrajectoryServiceOptions" style="stroke:#181818;stroke-width:1.0;"/><polygon fill="none" points="102.5,151.27,109.5,131.27,116.5,151.27,102.5,151.27" style="stroke:#181818;stroke-width:1.0;"/></g><!--SRC=[TOun3i8m34NtdiBgtXjK3C3EG2zW9IuDRUpACPKguEvKwX84MT___-cdCV2CYX6EwCQRoeFzIIPHC4LEMqHirH0y0SNPLeXaW_YKepxGj970HjgZ8wZFQ7WbNOAZosn1EBNTeOPdzSvRtuqz_e7jgsbAmbpMATx9cUZwLrjujDkBsmy0]--></g></svg>