<?xml version="1.0" encoding="us-ascii" standalone="no"?><svg xmlns="http://www.w3.org/2000/svg" xmlns:xlink="http://www.w3.org/1999/xlink" contentStyleType="text/css" height="230px" preserveAspectRatio="none" style="width:218px;height:230px;" version="1.1" viewBox="0 0 218 230" width="218px" zoomAndPan="magnify"><defs/><g><!--class DataObjectService<T>--><g id="elem_DataObjectService&lt;T&gt;"><rect codeLine="4" fill="#F1F1F1" height="32" id="DataObjectService&lt;T&gt;" rx="2.5" ry="2.5" style="stroke:#181818;stroke-width:0.5;" width="192" x="13" y="99"/><ellipse cx="28" cy="115" fill="#ADD1B2" rx="11" ry="11" style="stroke:#181818;stroke-width:1.0;"/><path d="M30.9688,120.6406 Q30.3906,120.9375 29.75,121.0781 Q29.1094,121.2344 28.4063,121.2344 Q25.9063,121.2344 24.5781,119.5938 Q23.2656,117.9375 23.2656,114.8125 Q23.2656,111.6875 24.5781,110.0313 Q25.9063,108.375 28.4063,108.375 Q29.1094,108.375 29.75,108.5313 Q30.4063,108.6875 30.9688,108.9844 L30.9688,111.7031 Q30.3438,111.125 29.75,110.8594 Q29.1563,110.5781 28.5313,110.5781 Q27.1875,110.5781 26.5,111.6563 Q25.8125,112.7188 25.8125,114.8125 Q25.8125,116.9063 26.5,117.9844 Q27.1875,119.0469 28.5313,119.0469 Q29.1563,119.0469 29.75,118.7813 Q30.3438,118.5 30.9688,117.9219 L30.9688,120.6406 Z " fill="#000000"/><text fill="#000000" font-family="sans-serif" font-size="14" lengthAdjust="spacing" textLength="160" x="42" y="119.8467">DataObjectService&lt;T&gt;</text></g><!--class DataService<string, T>--><g id="elem_DataService&lt;string, T&gt;"><rect codeLine="6" fill="#F1F1F1" height="32" id="DataService&lt;string, T&gt;" rx="2.5" ry="2.5" style="stroke:#181818;stroke-width:0.5;" width="194" x="12" y="7"/><ellipse cx="27" cy="23" fill="#A9DCDF" rx="11" ry="11" style="stroke:#181818;stroke-width:1.0;"/><path d="M27.1094,18.3438 L25.9531,23.4219 L28.2813,23.4219 L27.1094,18.3438 Z M25.625,16.1094 L28.6094,16.1094 L31.9688,28.5 L29.5156,28.5 L28.75,25.4375 L25.4688,25.4375 L24.7188,28.5 L22.2813,28.5 L25.625,16.1094 Z " fill="#000000"/><text fill="#000000" font-family="sans-serif" font-size="14" font-style="italic" lengthAdjust="spacing" textLength="162" x="41" y="27.8467">DataService&lt;string, T&gt;</text></g><!--class CalibrationService<any>--><g id="elem_CalibrationService&lt;any&gt;"><rect codeLine="9" fill="#F1F1F1" height="32" id="CalibrationService&lt;any&gt;" rx="2.5" ry="2.5" style="stroke:#181818;stroke-width:0.5;" width="204" x="7" y="191"/><ellipse cx="22" cy="207" fill="#A9DCDF" rx="11" ry="11" style="stroke:#181818;stroke-width:1.0;"/><path d="M22.1094,202.3438 L20.9531,207.4219 L23.2813,207.4219 L22.1094,202.3438 Z M20.625,200.1094 L23.6094,200.1094 L26.9688,212.5 L24.5156,212.5 L23.75,209.4375 L20.4688,209.4375 L19.7188,212.5 L17.2813,212.5 L20.625,200.1094 Z " fill="#000000"/><text fill="#000000" font-family="sans-serif" font-size="14" font-style="italic" lengthAdjust="spacing" textLength="172" x="36" y="211.8467">CalibrationService&lt;any&gt;</text></g><!--reverse link DataService<string, T> to DataObjectService<T>--><g id="link_DataService&lt;string, T&gt;_DataObjectService&lt;T&gt;"><path codeLine="8" d="M109,59.61 C109,73.31 109,88.22 109,98.96 " fill="none" id="DataService&lt;string, T&gt;-backto-DataObjectService&lt;T&gt;" style="stroke:#181818;stroke-width:1.0;"/><polygon fill="none" points="102,59.27,109,39.27,116,59.27,102,59.27" style="stroke:#181818;stroke-width:1.0;"/></g><!--reverse link DataObjectService<T> to CalibrationService<any>--><g id="link_DataObjectService&lt;T&gt;_CalibrationService&lt;any&gt;"><path codeLine="11" d="M109,151.61 C109,165.31 109,180.22 109,190.96 " fill="none" id="DataObjectService&lt;T&gt;-backto-CalibrationService&lt;any&gt;" style="stroke:#181818;stroke-width:1.0;"/><polygon fill="none" points="102,151.27,109,131.27,116,151.27,102,151.27" style="stroke:#181818;stroke-width:1.0;"/></g><!--SRC=[TOun3i8m34NtdCBgJ6zGCL1s1hY0cvZMD76gn21LmDs9X2fLghh-z_o_yyWoOS809xHZd-9JN1jzJA099HT4ecPWHq1XqXa2wH1TNaTt9byIwp5dgCweUEaUPFLAwSMMcjknWhVv6knoARKAAtDn2c7f3x2ukx3vrFNEo6QWHSzTGkKeYuOohnUsZ_xxzov_]--></g></svg>