<?xml version="1.0" encoding="UTF-8" standalone="no"?><svg xmlns="http://www.w3.org/2000/svg" xmlns:xlink="http://www.w3.org/1999/xlink" contentScriptType="application/ecmascript" contentStyleType="text/css" height="237px" preserveAspectRatio="none" style="width:1285px;height:237px;background:#00000000;" version="1.1" viewBox="0 0 1285 237" width="1285px" zoomAndPan="magnify"><defs><filter height="300%" id="fzonn94hgy5js" width="300%" x="-1" y="-1"><feGaussianBlur result="blurOut" stdDeviation="2.0"/><feColorMatrix in="blurOut" result="blurOut2" type="matrix" values="0 0 0 0 0 0 0 0 0 0 0 0 0 0 0 0 0 0 .4 0"/><feOffset dx="4.0" dy="4.0" in="blurOut2" result="blurOut3"/><feBlend in="SourceGraphic" in2="blurOut3" mode="normal"/></filter></defs><g><!--MD5=[56778e99bf8b6cf989f5879aab54d3b1]
class DataService<I, T>--><rect codeLine="4" fill="#FEFECE" filter="url(#fzonn94hgy5js)" height="32" id="DataService&lt;I, T&gt;" style="stroke:#A80036;stroke-width:1.5;" width="146" x="583" y="99"/><ellipse cx="598" cy="115" fill="#A9DCDF" rx="11" ry="11" style="stroke:#A80036;stroke-width:1.0;"/><path d="M598.1094,110.3438 L596.9531,115.4219 L599.2813,115.4219 L598.1094,110.3438 Z M596.625,108.1094 L599.6094,108.1094 L602.9688,120.5 L600.5156,120.5 L599.75,117.4375 L596.4688,117.4375 L595.7188,120.5 L593.2813,120.5 L596.625,108.1094 Z " fill="#000000"/><text fill="#000000" font-family="sans-serif" font-size="12" font-style="italic" lengthAdjust="spacing" textLength="114" x="612" y="119.1543">DataService&lt;I, T&gt;</text><!--MD5=[dbb8b4f13c7b21394f9d757e58732f45]
class Service--><rect codeLine="6" fill="#FEFECE" filter="url(#fzonn94hgy5js)" height="32" id="Service" style="stroke:#A80036;stroke-width:1.5;" width="77" x="617.5" y="7"/><ellipse cx="632.5" cy="23" fill="#A9DCDF" rx="11" ry="11" style="stroke:#A80036;stroke-width:1.0;"/><path d="M632.6094,18.3438 L631.4531,23.4219 L633.7813,23.4219 L632.6094,18.3438 Z M631.125,16.1094 L634.1094,16.1094 L637.4688,28.5 L635.0156,28.5 L634.25,25.4375 L630.9688,25.4375 L630.2188,28.5 L627.7813,28.5 L631.125,16.1094 Z " fill="#000000"/><text fill="#000000" font-family="sans-serif" font-size="12" font-style="italic" lengthAdjust="spacing" textLength="45" x="646.5" y="27.1543">Service</text><!--MD5=[cc936ad24b85db67915427e6ffdd434a]
class DataObjectService<T>--><rect codeLine="9" fill="#FEFECE" filter="url(#fzonn94hgy5js)" height="32" id="DataObjectService&lt;T&gt;" style="stroke:#A80036;stroke-width:1.5;" width="174" x="7" y="191"/><ellipse cx="22" cy="207" fill="#ADD1B2" rx="11" ry="11" style="stroke:#A80036;stroke-width:1.0;"/><path d="M24.9688,212.6406 Q24.3906,212.9375 23.75,213.0781 Q23.1094,213.2344 22.4063,213.2344 Q19.9063,213.2344 18.5781,211.5938 Q17.2656,209.9375 17.2656,206.8125 Q17.2656,203.6875 18.5781,202.0313 Q19.9063,200.375 22.4063,200.375 Q23.1094,200.375 23.75,200.5313 Q24.4063,200.6875 24.9688,200.9844 L24.9688,203.7031 Q24.3438,203.125 23.75,202.8594 Q23.1563,202.5781 22.5313,202.5781 Q21.1875,202.5781 20.5,203.6563 Q19.8125,204.7188 19.8125,206.8125 Q19.8125,208.9063 20.5,209.9844 Q21.1875,211.0469 22.5313,211.0469 Q23.1563,211.0469 23.75,210.7813 Q24.3438,210.5 24.9688,209.9219 L24.9688,212.6406 Z " fill="#000000"/><text fill="#000000" font-family="sans-serif" font-size="12" lengthAdjust="spacing" textLength="142" x="36" y="211.1543">DataObjectService&lt;T&gt;</text><!--MD5=[2cb63121440fc9d2efbe3fd3aaa2ee9e]
class TrajectoryService<Trajectory>--><rect codeLine="12" fill="#FEFECE" filter="url(#fzonn94hgy5js)" height="32" id="TrajectoryService&lt;Trajectory&gt;" style="stroke:#A80036;stroke-width:1.5;" width="221" x="216.5" y="191"/><ellipse cx="231.5" cy="207" fill="#ADD1B2" rx="11" ry="11" style="stroke:#A80036;stroke-width:1.0;"/><path d="M234.4688,212.6406 Q233.8906,212.9375 233.25,213.0781 Q232.6094,213.2344 231.9063,213.2344 Q229.4063,213.2344 228.0781,211.5938 Q226.7656,209.9375 226.7656,206.8125 Q226.7656,203.6875 228.0781,202.0313 Q229.4063,200.375 231.9063,200.375 Q232.6094,200.375 233.25,200.5313 Q233.9063,200.6875 234.4688,200.9844 L234.4688,203.7031 Q233.8438,203.125 233.25,202.8594 Q232.6563,202.5781 232.0313,202.5781 Q230.6875,202.5781 230,203.6563 Q229.3125,204.7188 229.3125,206.8125 Q229.3125,208.9063 230,209.9844 Q230.6875,211.0469 232.0313,211.0469 Q232.6563,211.0469 233.25,210.7813 Q233.8438,210.5 234.4688,209.9219 L234.4688,212.6406 Z " fill="#000000"/><text fill="#000000" font-family="sans-serif" font-size="12" lengthAdjust="spacing" textLength="189" x="245.5" y="211.1543">TrajectoryService&lt;Trajectory&gt;</text><!--MD5=[70f8411ba81d4758804383c71b5ba3b6]
class NodeDataService<T>--><rect codeLine="15" fill="#FEFECE" filter="url(#fzonn94hgy5js)" height="32" id="NodeDataService&lt;T&gt;" style="stroke:#A80036;stroke-width:1.5;" width="167" x="472.5" y="191"/><ellipse cx="487.5" cy="207" fill="#ADD1B2" rx="11" ry="11" style="stroke:#A80036;stroke-width:1.0;"/><path d="M490.4688,212.6406 Q489.8906,212.9375 489.25,213.0781 Q488.6094,213.2344 487.9063,213.2344 Q485.4063,213.2344 484.0781,211.5938 Q482.7656,209.9375 482.7656,206.8125 Q482.7656,203.6875 484.0781,202.0313 Q485.4063,200.375 487.9063,200.375 Q488.6094,200.375 489.25,200.5313 Q489.9063,200.6875 490.4688,200.9844 L490.4688,203.7031 Q489.8438,203.125 489.25,202.8594 Q488.6563,202.5781 488.0313,202.5781 Q486.6875,202.5781 486,203.6563 Q485.3125,204.7188 485.3125,206.8125 Q485.3125,208.9063 486,209.9844 Q486.6875,211.0469 488.0313,211.0469 Q488.6563,211.0469 489.25,210.7813 Q489.8438,210.5 490.4688,209.9219 L490.4688,212.6406 Z " fill="#000000"/><text fill="#000000" font-family="sans-serif" font-size="12" lengthAdjust="spacing" textLength="135" x="501.5" y="211.1543">NodeDataService&lt;T&gt;</text><!--MD5=[9b99c8cb6d1b9f2e96dc2035eb577d27]
class KeyValueDataService--><rect codeLine="18" fill="#FEFECE" filter="url(#fzonn94hgy5js)" height="32" id="KeyValueDataService" style="stroke:#A80036;stroke-width:1.5;" width="163" x="674.5" y="191"/><ellipse cx="689.5" cy="207" fill="#ADD1B2" rx="11" ry="11" style="stroke:#A80036;stroke-width:1.0;"/><path d="M692.4688,212.6406 Q691.8906,212.9375 691.25,213.0781 Q690.6094,213.2344 689.9063,213.2344 Q687.4063,213.2344 686.0781,211.5938 Q684.7656,209.9375 684.7656,206.8125 Q684.7656,203.6875 686.0781,202.0313 Q687.4063,200.375 689.9063,200.375 Q690.6094,200.375 691.25,200.5313 Q691.9063,200.6875 692.4688,200.9844 L692.4688,203.7031 Q691.8438,203.125 691.25,202.8594 Q690.6563,202.5781 690.0313,202.5781 Q688.6875,202.5781 688,203.6563 Q687.3125,204.7188 687.3125,206.8125 Q687.3125,208.9063 688,209.9844 Q688.6875,211.0469 690.0313,211.0469 Q690.6563,211.0469 691.25,210.7813 Q691.8438,210.5 692.4688,209.9219 L692.4688,212.6406 Z " fill="#000000"/><text fill="#000000" font-family="sans-serif" font-size="12" lengthAdjust="spacing" textLength="131" x="703.5" y="211.1543">KeyValueDataService</text><!--MD5=[ef96f1da5b4f2901fba7aa449b0117fd]
class DataFrameService<T>--><rect codeLine="21" fill="#FEFECE" filter="url(#fzonn94hgy5js)" height="32" id="DataFrameService&lt;T&gt;" style="stroke:#A80036;stroke-width:1.5;" width="173" x="872.5" y="191"/><ellipse cx="887.5" cy="207" fill="#ADD1B2" rx="11" ry="11" style="stroke:#A80036;stroke-width:1.0;"/><path d="M890.4688,212.6406 Q889.8906,212.9375 889.25,213.0781 Q888.6094,213.2344 887.9063,213.2344 Q885.4063,213.2344 884.0781,211.5938 Q882.7656,209.9375 882.7656,206.8125 Q882.7656,203.6875 884.0781,202.0313 Q885.4063,200.375 887.9063,200.375 Q888.6094,200.375 889.25,200.5313 Q889.9063,200.6875 890.4688,200.9844 L890.4688,203.7031 Q889.8438,203.125 889.25,202.8594 Q888.6563,202.5781 888.0313,202.5781 Q886.6875,202.5781 886,203.6563 Q885.3125,204.7188 885.3125,206.8125 Q885.3125,208.9063 886,209.9844 Q886.6875,211.0469 888.0313,211.0469 Q888.6563,211.0469 889.25,210.7813 Q889.8438,210.5 890.4688,209.9219 L890.4688,212.6406 Z " fill="#000000"/><text fill="#000000" font-family="sans-serif" font-size="12" lengthAdjust="spacing" textLength="141" x="901.5" y="211.1543">DataFrameService&lt;T&gt;</text><!--MD5=[70fbb990fe6e46f3fe9e939fedd78cd7]
class DummyDataService<I, T>--><rect codeLine="24" fill="#FEFECE" filter="url(#fzonn94hgy5js)" height="32" id="DummyDataService&lt;I, T&gt;" style="stroke:#A80036;stroke-width:1.5;" width="190" x="1081" y="191"/><ellipse cx="1096" cy="207" fill="#ADD1B2" rx="11" ry="11" style="stroke:#A80036;stroke-width:1.0;"/><path d="M1098.9688,212.6406 Q1098.3906,212.9375 1097.75,213.0781 Q1097.1094,213.2344 1096.4063,213.2344 Q1093.9063,213.2344 1092.5781,211.5938 Q1091.2656,209.9375 1091.2656,206.8125 Q1091.2656,203.6875 1092.5781,202.0313 Q1093.9063,200.375 1096.4063,200.375 Q1097.1094,200.375 1097.75,200.5313 Q1098.4063,200.6875 1098.9688,200.9844 L1098.9688,203.7031 Q1098.3438,203.125 1097.75,202.8594 Q1097.1563,202.5781 1096.5313,202.5781 Q1095.1875,202.5781 1094.5,203.6563 Q1093.8125,204.7188 1093.8125,206.8125 Q1093.8125,208.9063 1094.5,209.9844 Q1095.1875,211.0469 1096.5313,211.0469 Q1097.1563,211.0469 1097.75,210.7813 Q1098.3438,210.5 1098.9688,209.9219 L1098.9688,212.6406 Z " fill="#000000"/><text fill="#000000" font-family="sans-serif" font-size="12" lengthAdjust="spacing" textLength="158" x="1110" y="211.1543">DummyDataService&lt;I, T&gt;</text><!--MD5=[97da2f35b32cfad258435b423ec52503]
reverse link Service to DataService<I, T>--><path codeLine="8" d="M656,59.61 C656,73.31 656,88.22 656,98.96 " fill="none" id="Service-backto-DataService&lt;I, T&gt;" style="stroke:#A80036;stroke-width:1.0;"/><polygon fill="none" points="649,59.27,656,39.27,663,59.27,649,59.27" style="stroke:#A80036;stroke-width:1.0;"/><!--MD5=[0700b1790f804a8ad751396c357a1153]
reverse link DataService<I, T> to DataObjectService<T>--><path codeLine="11" d="M562.85,130.92 C456.84,147.89 285.02,175.41 181.44,192 " fill="none" id="DataService&lt;I, T&gt;-backto-DataObjectService&lt;T&gt;" style="stroke:#A80036;stroke-width:1.0;"/><polygon fill="none" points="561.96,123.97,582.82,127.72,564.18,137.79,561.96,123.97" style="stroke:#A80036;stroke-width:1.0;"/><!--MD5=[44fdf3be49727d0a125f29e371f91240]
reverse link DataService<I, T> to TrajectoryService<Trajectory>--><path codeLine="14" d="M581.35,136.42 C520.71,153.01 436.58,176.02 381.97,190.96 " fill="none" id="DataService&lt;I, T&gt;-backto-TrajectoryService&lt;Trajectory&gt;" style="stroke:#A80036;stroke-width:1.0;"/><polygon fill="none" points="579.79,129.59,600.93,131.06,583.49,143.09,579.79,129.59" style="stroke:#A80036;stroke-width:1.0;"/><!--MD5=[47112fbf2ec883f6a552d96080229705]
reverse link DataService<I, T> to NodeDataService<T>--><path codeLine="17" d="M623.98,144.81 C606.93,160.16 586.66,178.41 572.71,190.96 " fill="none" id="DataService&lt;I, T&gt;-backto-NodeDataService&lt;T&gt;" style="stroke:#A80036;stroke-width:1.0;"/><polygon fill="none" points="619.49,139.44,639.04,131.27,628.85,149.85,619.49,139.44" style="stroke:#A80036;stroke-width:1.0;"/><!--MD5=[19e20e1307895988fa5f8111538ed825]
reverse link DataService<I, T> to KeyValueDataService--><path codeLine="20" d="M688.02,144.81 C705.07,160.16 725.34,178.41 739.29,190.96 " fill="none" id="DataService&lt;I, T&gt;-backto-KeyValueDataService" style="stroke:#A80036;stroke-width:1.0;"/><polygon fill="none" points="683.15,149.85,672.96,131.27,692.51,139.44,683.15,149.85" style="stroke:#A80036;stroke-width:1.0;"/><!--MD5=[f71745a404f2ff41a5368751e3c21ad8]
reverse link DataService<I, T> to DataFrameService<T>--><path codeLine="23" d="M726.22,136.86 C781.94,153.41 858.51,176.15 908.37,190.96 " fill="none" id="DataService&lt;I, T&gt;-backto-DataFrameService&lt;T&gt;" style="stroke:#A80036;stroke-width:1.0;"/><polygon fill="none" points="723.89,143.47,706.72,131.06,727.88,130.05,723.89,143.47" style="stroke:#A80036;stroke-width:1.0;"/><!--MD5=[40fc18199ba2d530da3da1188168cec0]
reverse link DataService<I, T> to DummyDataService<I, T>--><path codeLine="26" d="M748.85,132.07 C845.24,148.75 994.84,174.65 1089.01,190.94 " fill="none" id="DataService&lt;I, T&gt;-backto-DummyDataService&lt;I, T&gt;" style="stroke:#A80036;stroke-width:1.0;"/><polygon fill="none" points="747.64,138.96,729.13,128.66,750.03,125.17,747.64,138.96" style="stroke:#A80036;stroke-width:1.0;"/><!--MD5=[a9e96cdd30297033a071bf94bb1eb0d9]
@startuml
skinparam BackgroundColor transparent
hide empty methods
hide empty fields
abstract class "DataService<I, T>" {
}
abstract class "Service" {
}
"Service" <|- - "DataService<I, T>"
class "DataObjectService<T>" {
}
"DataService<I, T>" <|- - "DataObjectService<T>"
class "TrajectoryService<Trajectory>" {
}
"DataService<I, T>" <|- - "TrajectoryService<Trajectory>"
class "NodeDataService<T>" {
}
"DataService<I, T>" <|- - "NodeDataService<T>"
class "KeyValueDataService" {
}
"DataService<I, T>" <|- - "KeyValueDataService"
class "DataFrameService<T>" {
}
"DataService<I, T>" <|- - "DataFrameService<T>"
class "DummyDataService<I, T>" {
}
"DataService<I, T>" <|- - "DummyDataService<I, T>"
@enduml

PlantUML version 1.2021.14(Fri Nov 12 16:46:50 UTC 2021)
(GPL source distribution)
Java Runtime: OpenJDK Runtime Environment
JVM: OpenJDK 64-Bit Server VM
Default Encoding: UTF-8
Language: en
Country: null
--></g></svg>