<?xml version="1.0" encoding="UTF-8" standalone="no"?><svg xmlns="http://www.w3.org/2000/svg" xmlns:xlink="http://www.w3.org/1999/xlink" contentScriptType="application/ecmascript" contentStyleType="text/css" height="145px" preserveAspectRatio="none" style="width:207px;height:145px;background:#00000000;" version="1.1" viewBox="0 0 207 145" width="207px" zoomAndPan="magnify"><defs><filter height="300%" id="fn0g4034am5ik" width="300%" x="-1" y="-1"><feGaussianBlur result="blurOut" stdDeviation="2.0"/><feColorMatrix in="blurOut" result="blurOut2" type="matrix" values="0 0 0 0 0 0 0 0 0 0 0 0 0 0 0 0 0 0 .4 0"/><feOffset dx="4.0" dy="4.0" in="blurOut2" result="blurOut3"/><feBlend in="SourceGraphic" in2="blurOut3" mode="normal"/></filter></defs><g><!--MD5=[023c358314e6cf67fa3c0ec23c3a9856]
class DataServiceOptions<T>--><rect codeLine="4" fill="#FEFECE" filter="url(#fn0g4034am5ik)" height="32" id="DataServiceOptions&lt;T&gt;" style="stroke:#A80036;stroke-width:1.5;" width="180" x="10" y="7"/><ellipse cx="25" cy="23" fill="#B4A7E5" rx="11" ry="11" style="stroke:#A80036;stroke-width:1.0;"/><path d="M20.9219,18.7656 L20.9219,16.6094 L28.3125,16.6094 L28.3125,18.7656 L25.8438,18.7656 L25.8438,26.8438 L28.3125,26.8438 L28.3125,29 L20.9219,29 L20.9219,26.8438 L23.3906,26.8438 L23.3906,18.7656 L20.9219,18.7656 Z " fill="#000000"/><text fill="#000000" font-family="sans-serif" font-size="12" font-style="italic" lengthAdjust="spacing" textLength="148" x="39" y="27.1543">DataServiceOptions&lt;T&gt;</text><!--MD5=[7a0daa1b781e0c827fd29b05d2e438c0]
class TrajectoryServiceOptions--><rect codeLine="6" fill="#FEFECE" filter="url(#fn0g4034am5ik)" height="32" id="TrajectoryServiceOptions" style="stroke:#A80036;stroke-width:1.5;" width="186" x="7" y="99"/><ellipse cx="22" cy="115" fill="#B4A7E5" rx="11" ry="11" style="stroke:#A80036;stroke-width:1.0;"/><path d="M17.9219,110.7656 L17.9219,108.6094 L25.3125,108.6094 L25.3125,110.7656 L22.8438,110.7656 L22.8438,118.8438 L25.3125,118.8438 L25.3125,121 L17.9219,121 L17.9219,118.8438 L20.3906,118.8438 L20.3906,110.7656 L17.9219,110.7656 Z " fill="#000000"/><text fill="#000000" font-family="sans-serif" font-size="12" font-style="italic" lengthAdjust="spacing" textLength="154" x="36" y="119.1543">TrajectoryServiceOptions</text><!--MD5=[6bb3583c69cb31cacc5e453aa2f6fd78]
reverse link DataServiceOptions<T> to TrajectoryServiceOptions--><path codeLine="8" d="M100,59.61 C100,73.31 100,88.22 100,98.96 " fill="none" id="DataServiceOptions&lt;T&gt;-backto-TrajectoryServiceOptions" style="stroke:#A80036;stroke-width:1.0;"/><polygon fill="none" points="93,59.27,100,39.27,107,59.27,93,59.27" style="stroke:#A80036;stroke-width:1.0;"/><!--MD5=[843ed74d62cdbdb1e3f4aae9396db6d0]
@startuml
skinparam BackgroundColor transparent
hide empty methods
hide empty fields
interface "DataServiceOptions<T>" {
}
interface "TrajectoryServiceOptions" {
}
"DataServiceOptions<T>" <|- - "TrajectoryServiceOptions"
@enduml

PlantUML version 1.2021.14(Fri Nov 12 16:46:50 UTC 2021)
(GPL source distribution)
Java Runtime: OpenJDK Runtime Environment
JVM: OpenJDK 64-Bit Server VM
Default Encoding: UTF-8
Language: en
Country: null
--></g></svg>