<?xml version="1.0" encoding="us-ascii" standalone="no"?><svg xmlns="http://www.w3.org/2000/svg" xmlns:xlink="http://www.w3.org/1999/xlink" contentStyleType="text/css" height="230px" preserveAspectRatio="none" style="width:1386px;height:230px;" version="1.1" viewBox="0 0 1386 230" width="1386px" zoomAndPan="magnify"><defs/><g><!--class DataService<I, T>--><g id="elem_DataService&lt;I, T&gt;"><rect codeLine="4" fill="#F1F1F1" height="32" id="DataService&lt;I, T&gt;" rx="2.5" ry="2.5" style="stroke:#181818;stroke-width:0.5;" width="160" x="631" y="99"/><ellipse cx="646" cy="115" fill="#A9DCDF" rx="11" ry="11" style="stroke:#181818;stroke-width:1.0;"/><path d="M646.1094,110.3438 L644.9531,115.4219 L647.2813,115.4219 L646.1094,110.3438 Z M644.625,108.1094 L647.6094,108.1094 L650.9688,120.5 L648.5156,120.5 L647.75,117.4375 L644.4688,117.4375 L643.7188,120.5 L641.2813,120.5 L644.625,108.1094 Z " fill="#000000"/><text fill="#000000" font-family="sans-serif" font-size="14" font-style="italic" lengthAdjust="spacing" textLength="128" x="660" y="119.8467">DataService&lt;I, T&gt;</text></g><!--class Service--><g id="elem_Service"><rect codeLine="6" fill="#F1F1F1" height="32" id="Service" rx="2.5" ry="2.5" style="stroke:#181818;stroke-width:0.5;" width="83" x="669.5" y="7"/><ellipse cx="684.5" cy="23" fill="#A9DCDF" rx="11" ry="11" style="stroke:#181818;stroke-width:1.0;"/><path d="M684.6094,18.3438 L683.4531,23.4219 L685.7813,23.4219 L684.6094,18.3438 Z M683.125,16.1094 L686.1094,16.1094 L689.4688,28.5 L687.0156,28.5 L686.25,25.4375 L682.9688,25.4375 L682.2188,28.5 L679.7813,28.5 L683.125,16.1094 Z " fill="#000000"/><text fill="#000000" font-family="sans-serif" font-size="14" font-style="italic" lengthAdjust="spacing" textLength="51" x="698.5" y="27.8467">Service</text></g><!--class DataObjectService<T>--><g id="elem_DataObjectService&lt;T&gt;"><rect codeLine="9" fill="#F1F1F1" height="32" id="DataObjectService&lt;T&gt;" rx="2.5" ry="2.5" style="stroke:#181818;stroke-width:0.5;" width="192" x="7" y="191"/><ellipse cx="22" cy="207" fill="#ADD1B2" rx="11" ry="11" style="stroke:#181818;stroke-width:1.0;"/><path d="M24.9688,212.6406 Q24.3906,212.9375 23.75,213.0781 Q23.1094,213.2344 22.4063,213.2344 Q19.9063,213.2344 18.5781,211.5938 Q17.2656,209.9375 17.2656,206.8125 Q17.2656,203.6875 18.5781,202.0313 Q19.9063,200.375 22.4063,200.375 Q23.1094,200.375 23.75,200.5313 Q24.4063,200.6875 24.9688,200.9844 L24.9688,203.7031 Q24.3438,203.125 23.75,202.8594 Q23.1563,202.5781 22.5313,202.5781 Q21.1875,202.5781 20.5,203.6563 Q19.8125,204.7188 19.8125,206.8125 Q19.8125,208.9063 20.5,209.9844 Q21.1875,211.0469 22.5313,211.0469 Q23.1563,211.0469 23.75,210.7813 Q24.3438,210.5 24.9688,209.9219 L24.9688,212.6406 Z " fill="#000000"/><text fill="#000000" font-family="sans-serif" font-size="14" lengthAdjust="spacing" textLength="160" x="36" y="211.8467">DataObjectService&lt;T&gt;</text></g><!--class TrajectoryService<Trajectory>--><g id="elem_TrajectoryService&lt;Trajectory&gt;"><rect codeLine="12" fill="#F1F1F1" height="32" id="TrajectoryService&lt;Trajectory&gt;" rx="2.5" ry="2.5" style="stroke:#181818;stroke-width:0.5;" width="242" x="234" y="191"/><ellipse cx="249" cy="207" fill="#ADD1B2" rx="11" ry="11" style="stroke:#181818;stroke-width:1.0;"/><path d="M251.9688,212.6406 Q251.3906,212.9375 250.75,213.0781 Q250.1094,213.2344 249.4063,213.2344 Q246.9063,213.2344 245.5781,211.5938 Q244.2656,209.9375 244.2656,206.8125 Q244.2656,203.6875 245.5781,202.0313 Q246.9063,200.375 249.4063,200.375 Q250.1094,200.375 250.75,200.5313 Q251.4063,200.6875 251.9688,200.9844 L251.9688,203.7031 Q251.3438,203.125 250.75,202.8594 Q250.1563,202.5781 249.5313,202.5781 Q248.1875,202.5781 247.5,203.6563 Q246.8125,204.7188 246.8125,206.8125 Q246.8125,208.9063 247.5,209.9844 Q248.1875,211.0469 249.5313,211.0469 Q250.1563,211.0469 250.75,210.7813 Q251.3438,210.5 251.9688,209.9219 L251.9688,212.6406 Z " fill="#000000"/><text fill="#000000" font-family="sans-serif" font-size="14" lengthAdjust="spacing" textLength="210" x="263" y="211.8467">TrajectoryService&lt;Trajectory&gt;</text></g><!--class NodeDataService<T>--><g id="elem_NodeDataService&lt;T&gt;"><rect codeLine="15" fill="#F1F1F1" height="32" id="NodeDataService&lt;T&gt;" rx="2.5" ry="2.5" style="stroke:#181818;stroke-width:0.5;" width="184" x="511" y="191"/><ellipse cx="526" cy="207" fill="#ADD1B2" rx="11" ry="11" style="stroke:#181818;stroke-width:1.0;"/><path d="M528.9688,212.6406 Q528.3906,212.9375 527.75,213.0781 Q527.1094,213.2344 526.4063,213.2344 Q523.9063,213.2344 522.5781,211.5938 Q521.2656,209.9375 521.2656,206.8125 Q521.2656,203.6875 522.5781,202.0313 Q523.9063,200.375 526.4063,200.375 Q527.1094,200.375 527.75,200.5313 Q528.4063,200.6875 528.9688,200.9844 L528.9688,203.7031 Q528.3438,203.125 527.75,202.8594 Q527.1563,202.5781 526.5313,202.5781 Q525.1875,202.5781 524.5,203.6563 Q523.8125,204.7188 523.8125,206.8125 Q523.8125,208.9063 524.5,209.9844 Q525.1875,211.0469 526.5313,211.0469 Q527.1563,211.0469 527.75,210.7813 Q528.3438,210.5 528.9688,209.9219 L528.9688,212.6406 Z " fill="#000000"/><text fill="#000000" font-family="sans-serif" font-size="14" lengthAdjust="spacing" textLength="152" x="540" y="211.8467">NodeDataService&lt;T&gt;</text></g><!--class KeyValueDataService--><g id="elem_KeyValueDataService"><rect codeLine="18" fill="#F1F1F1" height="32" id="KeyValueDataService" rx="2.5" ry="2.5" style="stroke:#181818;stroke-width:0.5;" width="177" x="730.5" y="191"/><ellipse cx="745.5" cy="207" fill="#ADD1B2" rx="11" ry="11" style="stroke:#181818;stroke-width:1.0;"/><path d="M748.4688,212.6406 Q747.8906,212.9375 747.25,213.0781 Q746.6094,213.2344 745.9063,213.2344 Q743.4063,213.2344 742.0781,211.5938 Q740.7656,209.9375 740.7656,206.8125 Q740.7656,203.6875 742.0781,202.0313 Q743.4063,200.375 745.9063,200.375 Q746.6094,200.375 747.25,200.5313 Q747.9063,200.6875 748.4688,200.9844 L748.4688,203.7031 Q747.8438,203.125 747.25,202.8594 Q746.6563,202.5781 746.0313,202.5781 Q744.6875,202.5781 744,203.6563 Q743.3125,204.7188 743.3125,206.8125 Q743.3125,208.9063 744,209.9844 Q744.6875,211.0469 746.0313,211.0469 Q746.6563,211.0469 747.25,210.7813 Q747.8438,210.5 748.4688,209.9219 L748.4688,212.6406 Z " fill="#000000"/><text fill="#000000" font-family="sans-serif" font-size="14" lengthAdjust="spacing" textLength="145" x="759.5" y="211.8467">KeyValueDataService</text></g><!--class DataFrameService<T>--><g id="elem_DataFrameService&lt;T&gt;"><rect codeLine="21" fill="#F1F1F1" height="32" id="DataFrameService&lt;T&gt;" rx="2.5" ry="2.5" style="stroke:#181818;stroke-width:0.5;" width="190" x="943" y="191"/><ellipse cx="958" cy="207" fill="#ADD1B2" rx="11" ry="11" style="stroke:#181818;stroke-width:1.0;"/><path d="M960.9688,212.6406 Q960.3906,212.9375 959.75,213.0781 Q959.1094,213.2344 958.4063,213.2344 Q955.9063,213.2344 954.5781,211.5938 Q953.2656,209.9375 953.2656,206.8125 Q953.2656,203.6875 954.5781,202.0313 Q955.9063,200.375 958.4063,200.375 Q959.1094,200.375 959.75,200.5313 Q960.4063,200.6875 960.9688,200.9844 L960.9688,203.7031 Q960.3438,203.125 959.75,202.8594 Q959.1563,202.5781 958.5313,202.5781 Q957.1875,202.5781 956.5,203.6563 Q955.8125,204.7188 955.8125,206.8125 Q955.8125,208.9063 956.5,209.9844 Q957.1875,211.0469 958.5313,211.0469 Q959.1563,211.0469 959.75,210.7813 Q960.3438,210.5 960.9688,209.9219 L960.9688,212.6406 Z " fill="#000000"/><text fill="#000000" font-family="sans-serif" font-size="14" lengthAdjust="spacing" textLength="158" x="972" y="211.8467">DataFrameService&lt;T&gt;</text></g><!--class DummyDataService<I, T>--><g id="elem_DummyDataService&lt;I, T&gt;"><rect codeLine="24" fill="#F1F1F1" height="32" id="DummyDataService&lt;I, T&gt;" rx="2.5" ry="2.5" style="stroke:#181818;stroke-width:0.5;" width="211" x="1168.5" y="191"/><ellipse cx="1183.5" cy="207" fill="#ADD1B2" rx="11" ry="11" style="stroke:#181818;stroke-width:1.0;"/><path d="M1186.4688,212.6406 Q1185.8906,212.9375 1185.25,213.0781 Q1184.6094,213.2344 1183.9063,213.2344 Q1181.4063,213.2344 1180.0781,211.5938 Q1178.7656,209.9375 1178.7656,206.8125 Q1178.7656,203.6875 1180.0781,202.0313 Q1181.4063,200.375 1183.9063,200.375 Q1184.6094,200.375 1185.25,200.5313 Q1185.9063,200.6875 1186.4688,200.9844 L1186.4688,203.7031 Q1185.8438,203.125 1185.25,202.8594 Q1184.6563,202.5781 1184.0313,202.5781 Q1182.6875,202.5781 1182,203.6563 Q1181.3125,204.7188 1181.3125,206.8125 Q1181.3125,208.9063 1182,209.9844 Q1182.6875,211.0469 1184.0313,211.0469 Q1184.6563,211.0469 1185.25,210.7813 Q1185.8438,210.5 1186.4688,209.9219 L1186.4688,212.6406 Z " fill="#000000"/><text fill="#000000" font-family="sans-serif" font-size="14" lengthAdjust="spacing" textLength="179" x="1197.5" y="211.8467">DummyDataService&lt;I, T&gt;</text></g><!--reverse link Service to DataService<I, T>--><g id="link_Service_DataService&lt;I, T&gt;"><path codeLine="8" d="M711,59.61 C711,73.31 711,88.22 711,98.96 " fill="none" id="Service-backto-DataService&lt;I, T&gt;" style="stroke:#181818;stroke-width:1.0;"/><polygon fill="none" points="704,59.27,711,39.27,718,59.27,704,59.27" style="stroke:#181818;stroke-width:1.0;"/></g><!--reverse link DataService<I, T> to DataObjectService<T>--><g id="link_DataService&lt;I, T&gt;_DataObjectService&lt;T&gt;"><path codeLine="11" d="M610.78,130.83 C496.65,147.73 311.47,175.14 199.08,191.78 " fill="none" id="DataService&lt;I, T&gt;-backto-DataObjectService&lt;T&gt;" style="stroke:#181818;stroke-width:1.0;"/><polygon fill="none" points="610.08,123.86,630.89,127.86,612.13,137.71,610.08,123.86" style="stroke:#181818;stroke-width:1.0;"/></g><!--reverse link DataService<I, T> to TrajectoryService<Trajectory>--><g id="link_DataService&lt;I, T&gt;_TrajectoryService&lt;Trajectory&gt;"><path codeLine="14" d="M631.93,135.99 C566.2,152.61 474.09,175.89 414.48,190.96 " fill="none" id="DataService&lt;I, T&gt;-backto-TrajectoryService&lt;Trajectory&gt;" style="stroke:#181818;stroke-width:1.0;"/><polygon fill="none" points="630.31,129.18,651.41,131.06,633.74,142.75,630.31,129.18" style="stroke:#181818;stroke-width:1.0;"/></g><!--reverse link DataService<I, T> to NodeDataService<T>--><g id="link_DataService&lt;I, T&gt;_NodeDataService&lt;T&gt;"><path codeLine="17" d="M677.28,144.1 C658.68,159.6 636.34,178.21 621.05,190.96 " fill="none" id="DataService&lt;I, T&gt;-backto-NodeDataService&lt;T&gt;" style="stroke:#181818;stroke-width:1.0;"/><polygon fill="none" points="672.83,138.69,692.68,131.27,681.8,149.45,672.83,138.69" style="stroke:#181818;stroke-width:1.0;"/></g><!--reverse link DataService<I, T> to KeyValueDataService--><g id="link_DataService&lt;I, T&gt;_KeyValueDataService"><path codeLine="20" d="M744.72,144.1 C763.32,159.6 785.66,178.21 800.95,190.96 " fill="none" id="DataService&lt;I, T&gt;-backto-KeyValueDataService" style="stroke:#181818;stroke-width:1.0;"/><polygon fill="none" points="740.2,149.45,729.32,131.27,749.17,138.69,740.2,149.45" style="stroke:#181818;stroke-width:1.0;"/></g><!--reverse link DataService<I, T> to DataFrameService<T>--><g id="link_DataService&lt;I, T&gt;_DataFrameService&lt;T&gt;"><path codeLine="23" d="M785.2,136.42 C845.47,153.01 929.08,176.02 983.36,190.96 " fill="none" id="DataService&lt;I, T&gt;-backto-DataFrameService&lt;T&gt;" style="stroke:#181818;stroke-width:1.0;"/><polygon fill="none" points="783.16,143.12,765.73,131.06,786.87,129.62,783.16,143.12" style="stroke:#181818;stroke-width:1.0;"/></g><!--reverse link DataService<I, T> to DummyDataService<I, T>--><g id="link_DataService&lt;I, T&gt;_DummyDataService&lt;I, T&gt;"><path codeLine="26" d="M810.82,131.96 C915.27,148.65 1077.97,174.66 1180.14,191 " fill="none" id="DataService&lt;I, T&gt;-backto-DummyDataService&lt;I, T&gt;" style="stroke:#181818;stroke-width:1.0;"/><polygon fill="none" points="809.71,138.87,791.07,128.8,811.92,125.04,809.71,138.87" style="stroke:#181818;stroke-width:1.0;"/></g><!--SRC=[bPB13e8m38RlFCN2MTw0U51ZOapq8F5UjYe8OsGR9aHzTsTqiCY4U5p_Vb-Nfgh8gneaSB80MfobQ2gs5AMGH4keb8cmqa6MCoJ8QzqIZZeJJBcbKuwbgK2g34CreIKeHS8LQ3YWlEOKuysC9FEGt8B7eEtJyWxxLtoF8fyZSEpxz89KszmEy0tkRGF62XC9hqJ8jWkxogHv7BOZTeAXgvZ-iOUmiYssHoWRDvwo-H1tdsjp1_ZVEh-HJjTmtlwuW16Zdte2]--></g></svg>