<?xml version="1.0" encoding="UTF-8" standalone="no"?><svg xmlns="http://www.w3.org/2000/svg" xmlns:xlink="http://www.w3.org/1999/xlink" contentScriptType="application/ecmascript" contentStyleType="text/css" height="251px" preserveAspectRatio="none" style="width:273px;height:251px;background:#00000000;" version="1.1" viewBox="0 0 273 251" width="273px" zoomAndPan="magnify"><defs><filter height="300%" id="fxhbt2nf46cc9" width="300%" x="-1" y="-1"><feGaussianBlur result="blurOut" stdDeviation="2.0"/><feColorMatrix in="blurOut" result="blurOut2" type="matrix" values="0 0 0 0 0 0 0 0 0 0 0 0 0 0 0 0 0 0 .4 0"/><feOffset dx="4.0" dy="4.0" in="blurOut2" result="blurOut3"/><feBlend in="SourceGraphic" in2="blurOut3" mode="normal"/></filter></defs><g><!--MD5=[023c358314e6cf67fa3c0ec23c3a9856]
class DataServiceOptions<T>--><rect codeLine="4" fill="#FEFECE" filter="url(#fxhbt2nf46cc9)" height="65.6094" id="DataServiceOptions&lt;T&gt;" style="stroke:#A80036;stroke-width:1.5;" width="180" x="43" y="7"/><ellipse cx="58" cy="23" fill="#B4A7E5" rx="11" ry="11" style="stroke:#A80036;stroke-width:1.0;"/><path d="M53.9219,18.7656 L53.9219,16.6094 L61.3125,16.6094 L61.3125,18.7656 L58.8438,18.7656 L58.8438,26.8438 L61.3125,26.8438 L61.3125,29 L53.9219,29 L53.9219,26.8438 L56.3906,26.8438 L56.3906,18.7656 L53.9219,18.7656 Z " fill="#000000"/><text fill="#000000" font-family="sans-serif" font-size="12" font-style="italic" lengthAdjust="spacing" textLength="148" x="72" y="27.1543">DataServiceOptions&lt;T&gt;</text><line style="stroke:#A80036;stroke-width:1.5;" x1="44" x2="222" y1="39" y2="39"/><ellipse cx="54" cy="50" rx="3" ry="3" style="stroke:#038048;stroke-width:1.0;fill:none;"/><text fill="#000000" font-family="sans-serif" font-size="11" lengthAdjust="spacing" textLength="120" x="63" y="53.2104">deserialize : Function</text><ellipse cx="54" cy="62.8047" rx="3" ry="3" style="stroke:#038048;stroke-width:1.0;fill:none;"/><text fill="#000000" font-family="sans-serif" font-size="11" lengthAdjust="spacing" textLength="106" x="63" y="66.0151">serialize : Function</text><!--MD5=[7a0daa1b781e0c827fd29b05d2e438c0]
class TrajectoryServiceOptions--><rect codeLine="8" fill="#FEFECE" filter="url(#fxhbt2nf46cc9)" height="104.0234" id="TrajectoryServiceOptions" style="stroke:#A80036;stroke-width:1.5;" width="252" x="7" y="133"/><ellipse cx="51.75" cy="149" fill="#B4A7E5" rx="11" ry="11" style="stroke:#A80036;stroke-width:1.0;"/><path d="M47.6719,144.7656 L47.6719,142.6094 L55.0625,142.6094 L55.0625,144.7656 L52.5938,144.7656 L52.5938,152.8438 L55.0625,152.8438 L55.0625,155 L47.6719,155 L47.6719,152.8438 L50.1406,152.8438 L50.1406,144.7656 L47.6719,144.7656 Z " fill="#000000"/><text fill="#000000" font-family="sans-serif" font-size="12" font-style="italic" lengthAdjust="spacing" textLength="154" x="72.25" y="153.1543">TrajectoryServiceOptions</text><line style="stroke:#A80036;stroke-width:1.5;" x1="8" x2="258" y1="165" y2="165"/><ellipse cx="18" cy="176" rx="3" ry="3" style="stroke:#038048;stroke-width:1.0;fill:none;"/><text fill="#000000" font-family="sans-serif" font-size="11" lengthAdjust="spacing" textLength="107" x="27" y="179.2104">autoBind : boolean</text><ellipse cx="18" cy="188.8047" rx="3" ry="3" style="stroke:#038048;stroke-width:1.0;fill:none;"/><text fill="#000000" font-family="sans-serif" font-size="11" lengthAdjust="spacing" textLength="226" x="27" y="192.0151">dataService : Constructor&lt;DataObject&gt;</text><ellipse cx="18" cy="201.6094" rx="3" ry="3" style="stroke:#038048;stroke-width:1.0;fill:none;"/><text fill="#000000" font-family="sans-serif" font-size="11" lengthAdjust="spacing" textLength="117" x="27" y="204.8198">defaultUID : Function</text><ellipse cx="18" cy="214.4141" rx="3" ry="3" style="stroke:#038048;stroke-width:1.0;fill:none;"/><text fill="#000000" font-family="sans-serif" font-size="11" lengthAdjust="spacing" textLength="120" x="27" y="217.6245">deserialize : Function</text><ellipse cx="18" cy="227.2188" rx="3" ry="3" style="stroke:#038048;stroke-width:1.0;fill:none;"/><text fill="#000000" font-family="sans-serif" font-size="11" lengthAdjust="spacing" textLength="106" x="27" y="230.4292">serialize : Function</text><!--MD5=[6bb3583c69cb31cacc5e453aa2f6fd78]
reverse link DataServiceOptions<T> to TrajectoryServiceOptions--><path codeLine="15" d="M133,93.1 C133,106.08 133,119.99 133,132.93 " fill="none" id="DataServiceOptions&lt;T&gt;-backto-TrajectoryServiceOptions" style="stroke:#A80036;stroke-width:1.0;"/><polygon fill="none" points="126,93.09,133,73.09,140,93.09,126,93.09" style="stroke:#A80036;stroke-width:1.0;"/><!--MD5=[9c19bc822a772d4e11899e6eed162ee7]
@startuml
skinparam BackgroundColor transparent
hide empty methods
hide empty fields
interface "DataServiceOptions<T>" {
    +deserialize : Function
    +serialize : Function
}
interface "TrajectoryServiceOptions" {
    +autoBind : boolean
    +dataService : Constructor<DataObject>
    +defaultUID : Function
    +deserialize : Function
    +serialize : Function
}
"DataServiceOptions<T>" <|- - "TrajectoryServiceOptions"
@enduml

PlantUML version 1.2021.14(Fri Nov 12 16:46:50 UTC 2021)
(GPL source distribution)
Java Runtime: OpenJDK Runtime Environment
JVM: OpenJDK 64-Bit Server VM
Default Encoding: UTF-8
Language: en
Country: null
--></g></svg>