<?xml version="1.0" encoding="UTF-8" standalone="no"?><svg xmlns="http://www.w3.org/2000/svg" xmlns:xlink="http://www.w3.org/1999/xlink" contentScriptType="application/ecmascript" contentStyleType="text/css" height="145px" preserveAspectRatio="none" style="width:166px;height:145px;background:#00000000;" version="1.1" viewBox="0 0 166 145" width="166px" zoomAndPan="magnify"><defs><filter height="300%" id="f5d4p10ox18xk" width="300%" x="-1" y="-1"><feGaussianBlur result="blurOut" stdDeviation="2.0"/><feColorMatrix in="blurOut" result="blurOut2" type="matrix" values="0 0 0 0 0 0 0 0 0 0 0 0 0 0 0 0 0 0 .4 0"/><feOffset dx="4.0" dy="4.0" in="blurOut2" result="blurOut3"/><feBlend in="SourceGraphic" in2="blurOut3" mode="normal"/></filter></defs><g><!--MD5=[1182380c4c765c1b1c19ec976452f089]
class DataFrame--><rect codeLine="4" fill="#FEFECE" filter="url(#f5d4p10ox18xk)" height="32" id="DataFrame" style="stroke:#A80036;stroke-width:1.5;" width="101" x="29" y="7"/><ellipse cx="44" cy="23" fill="#ADD1B2" rx="11" ry="11" style="stroke:#A80036;stroke-width:1.0;"/><path d="M46.9688,28.6406 Q46.3906,28.9375 45.75,29.0781 Q45.1094,29.2344 44.4063,29.2344 Q41.9063,29.2344 40.5781,27.5938 Q39.2656,25.9375 39.2656,22.8125 Q39.2656,19.6875 40.5781,18.0313 Q41.9063,16.375 44.4063,16.375 Q45.1094,16.375 45.75,16.5313 Q46.4063,16.6875 46.9688,16.9844 L46.9688,19.7031 Q46.3438,19.125 45.75,18.8594 Q45.1563,18.5781 44.5313,18.5781 Q43.1875,18.5781 42.5,19.6563 Q41.8125,20.7188 41.8125,22.8125 Q41.8125,24.9063 42.5,25.9844 Q43.1875,27.0469 44.5313,27.0469 Q45.1563,27.0469 45.75,26.7813 Q46.3438,26.5 46.9688,25.9219 L46.9688,28.6406 Z " fill="#000000"/><text fill="#000000" font-family="sans-serif" font-size="12" lengthAdjust="spacing" textLength="69" x="58" y="27.1543">DataFrame</text><!--MD5=[a86f67652b916c8c448a1a09b54dd20f]
class SensorDataFrame--><rect codeLine="6" fill="#FEFECE" filter="url(#f5d4p10ox18xk)" height="32" id="SensorDataFrame" style="stroke:#A80036;stroke-width:1.5;" width="145" x="7" y="99"/><ellipse cx="22" cy="115" fill="#ADD1B2" rx="11" ry="11" style="stroke:#A80036;stroke-width:1.0;"/><path d="M24.9688,120.6406 Q24.3906,120.9375 23.75,121.0781 Q23.1094,121.2344 22.4063,121.2344 Q19.9063,121.2344 18.5781,119.5938 Q17.2656,117.9375 17.2656,114.8125 Q17.2656,111.6875 18.5781,110.0313 Q19.9063,108.375 22.4063,108.375 Q23.1094,108.375 23.75,108.5313 Q24.4063,108.6875 24.9688,108.9844 L24.9688,111.7031 Q24.3438,111.125 23.75,110.8594 Q23.1563,110.5781 22.5313,110.5781 Q21.1875,110.5781 20.5,111.6563 Q19.8125,112.7188 19.8125,114.8125 Q19.8125,116.9063 20.5,117.9844 Q21.1875,119.0469 22.5313,119.0469 Q23.1563,119.0469 23.75,118.7813 Q24.3438,118.5 24.9688,117.9219 L24.9688,120.6406 Z " fill="#000000"/><text fill="#000000" font-family="sans-serif" font-size="12" lengthAdjust="spacing" textLength="113" x="36" y="119.1543">SensorDataFrame</text><!--MD5=[052574c825057fcc61174dea1841cb04]
reverse link DataFrame to SensorDataFrame--><path codeLine="8" d="M79.5,59.61 C79.5,73.31 79.5,88.22 79.5,98.96 " fill="none" id="DataFrame-backto-SensorDataFrame" style="stroke:#A80036;stroke-width:1.0;"/><polygon fill="none" points="72.5,59.27,79.5,39.27,86.5,59.27,72.5,59.27" style="stroke:#A80036;stroke-width:1.0;"/><!--MD5=[6413cd1be5d0cec784a98b2a117b6596]
@startuml
skinparam BackgroundColor transparent
hide empty methods
hide empty fields
class "DataFrame" {
}
class "SensorDataFrame" {
}
"DataFrame" <|- - "SensorDataFrame"
@enduml

PlantUML version 1.2021.14(Fri Nov 12 16:46:50 UTC 2021)
(GPL source distribution)
Java Runtime: OpenJDK Runtime Environment
JVM: OpenJDK 64-Bit Server VM
Default Encoding: UTF-8
Language: en
Country: null
--></g></svg>