<?xml version="1.0" encoding="UTF-8" standalone="no"?><svg xmlns="http://www.w3.org/2000/svg" xmlns:xlink="http://www.w3.org/1999/xlink" contentScriptType="application/ecmascript" contentStyleType="text/css" height="145px" preserveAspectRatio="none" style="width:198px;height:145px;background:#00000000;" version="1.1" viewBox="0 0 198 145" width="198px" zoomAndPan="magnify"><defs><filter height="300%" id="fq2uytozzc1nm" width="300%" x="-1" y="-1"><feGaussianBlur result="blurOut" stdDeviation="2.0"/><feColorMatrix in="blurOut" result="blurOut2" type="matrix" values="0 0 0 0 0 0 0 0 0 0 0 0 0 0 0 0 0 0 .4 0"/><feOffset dx="4.0" dy="4.0" in="blurOut2" result="blurOut3"/><feBlend in="SourceGraphic" in2="blurOut3" mode="normal"/></filter></defs><g><!--MD5=[cc936ad24b85db67915427e6ffdd434a]
class DataObjectService<T>--><rect codeLine="4" fill="#FEFECE" filter="url(#fq2uytozzc1nm)" height="32" id="DataObjectService&lt;T&gt;" style="stroke:#A80036;stroke-width:1.5;" width="174" x="8.5" y="99"/><ellipse cx="23.5" cy="115" fill="#ADD1B2" rx="11" ry="11" style="stroke:#A80036;stroke-width:1.0;"/><path d="M26.4688,120.6406 Q25.8906,120.9375 25.25,121.0781 Q24.6094,121.2344 23.9063,121.2344 Q21.4063,121.2344 20.0781,119.5938 Q18.7656,117.9375 18.7656,114.8125 Q18.7656,111.6875 20.0781,110.0313 Q21.4063,108.375 23.9063,108.375 Q24.6094,108.375 25.25,108.5313 Q25.9063,108.6875 26.4688,108.9844 L26.4688,111.7031 Q25.8438,111.125 25.25,110.8594 Q24.6563,110.5781 24.0313,110.5781 Q22.6875,110.5781 22,111.6563 Q21.3125,112.7188 21.3125,114.8125 Q21.3125,116.9063 22,117.9844 Q22.6875,119.0469 24.0313,119.0469 Q24.6563,119.0469 25.25,118.7813 Q25.8438,118.5 26.4688,117.9219 L26.4688,120.6406 Z " fill="#000000"/><text fill="#000000" font-family="sans-serif" font-size="12" lengthAdjust="spacing" textLength="142" x="37.5" y="119.1543">DataObjectService&lt;T&gt;</text><!--MD5=[18960df9584e372fa553dc272932f385]
class DataService<string, T>--><rect codeLine="6" fill="#FEFECE" filter="url(#fq2uytozzc1nm)" height="32" id="DataService&lt;string, T&gt;" style="stroke:#A80036;stroke-width:1.5;" width="177" x="7" y="7"/><ellipse cx="22" cy="23" fill="#A9DCDF" rx="11" ry="11" style="stroke:#A80036;stroke-width:1.0;"/><path d="M22.1094,18.3438 L20.9531,23.4219 L23.2813,23.4219 L22.1094,18.3438 Z M20.625,16.1094 L23.6094,16.1094 L26.9688,28.5 L24.5156,28.5 L23.75,25.4375 L20.4688,25.4375 L19.7188,28.5 L17.2813,28.5 L20.625,16.1094 Z " fill="#000000"/><text fill="#000000" font-family="sans-serif" font-size="12" font-style="italic" lengthAdjust="spacing" textLength="145" x="36" y="27.1543">DataService&lt;string, T&gt;</text><!--MD5=[0df8eb629a7253f0d558ef7697ba2d5a]
reverse link DataService<string, T> to DataObjectService<T>--><path codeLine="8" d="M95.5,59.61 C95.5,73.31 95.5,88.22 95.5,98.96 " fill="none" id="DataService&lt;string, T&gt;-backto-DataObjectService&lt;T&gt;" style="stroke:#A80036;stroke-width:1.0;"/><polygon fill="none" points="88.5,59.27,95.5,39.27,102.5,59.27,88.5,59.27" style="stroke:#A80036;stroke-width:1.0;"/><!--MD5=[300950e4fd7de2e8d257bd2f16622f42]
@startuml
skinparam BackgroundColor transparent
hide empty methods
hide empty fields
class "DataObjectService<T>" {
}
abstract class "DataService<string, T>" {
}
"DataService<string, T>" <|- - "DataObjectService<T>"
@enduml

PlantUML version 1.2021.14(Fri Nov 12 16:46:50 UTC 2021)
(GPL source distribution)
Java Runtime: OpenJDK Runtime Environment
JVM: OpenJDK 64-Bit Server VM
Default Encoding: UTF-8
Language: en
Country: null
--></g></svg>