<?xml version="1.0" encoding="UTF-8" standalone="no"?><svg xmlns="http://www.w3.org/2000/svg" xmlns:xlink="http://www.w3.org/1999/xlink" contentScriptType="application/ecmascript" contentStyleType="text/css" height="848px" preserveAspectRatio="none" style="width:1320px;height:848px;background:#00000000;" version="1.1" viewBox="0 0 1320 848" width="1320px" zoomAndPan="magnify"><defs><filter height="300%" id="f1qy6zeefhcbdw" width="300%" x="-1" y="-1"><feGaussianBlur result="blurOut" stdDeviation="2.0"/><feColorMatrix in="blurOut" result="blurOut2" type="matrix" values="0 0 0 0 0 0 0 0 0 0 0 0 0 0 0 0 0 0 .4 0"/><feOffset dx="4.0" dy="4.0" in="blurOut2" result="blurOut3"/><feBlend in="SourceGraphic" in2="blurOut3" mode="normal"/></filter></defs><g><!--MD5=[a6134d6c7811d1be7cf9e5b9a22e1f63]
class DerivedUnit--><rect codeLine="4" fill="#FEFECE" filter="url(#f1qy6zeefhcbdw)" height="227.2656" id="DerivedUnit" style="stroke:#A80036;stroke-width:1.5;" width="409" x="453" y="269"/><ellipse cx="617.25" cy="285" fill="#ADD1B2" rx="11" ry="11" style="stroke:#A80036;stroke-width:1.0;"/><path d="M620.2188,290.6406 Q619.6406,290.9375 619,291.0781 Q618.3594,291.2344 617.6563,291.2344 Q615.1563,291.2344 613.8281,289.5938 Q612.5156,287.9375 612.5156,284.8125 Q612.5156,281.6875 613.8281,280.0313 Q615.1563,278.375 617.6563,278.375 Q618.3594,278.375 619,278.5313 Q619.6563,278.6875 620.2188,278.9844 L620.2188,281.7031 Q619.5938,281.125 619,280.8594 Q618.4063,280.5781 617.7813,280.5781 Q616.4375,280.5781 615.75,281.6563 Q615.0625,282.7188 615.0625,284.8125 Q615.0625,286.9063 615.75,287.9844 Q616.4375,289.0469 617.7813,289.0469 Q618.4063,289.0469 619,288.7813 Q619.5938,288.5 620.2188,287.9219 L620.2188,290.6406 Z " fill="#000000"/><text fill="#000000" font-family="sans-serif" font-size="12" lengthAdjust="spacing" textLength="72" x="637.75" y="289.1543">DerivedUnit</text><line style="stroke:#A80036;stroke-width:1.5;" x1="454" x2="861" y1="301" y2="301"/><ellipse cx="464" cy="312" rx="3" ry="3" style="stroke:#038048;stroke-width:1.0;fill:none;"/><text fill="#000000" font-family="sans-serif" font-size="11" lengthAdjust="spacing" text-decoration="underline" textLength="91" x="473" y="315.2104">UNKNOWN : Unit</text><polygon fill="none" points="464,319.8047,468,323.8047,464,327.8047,460,323.8047" style="stroke:#B38D22;stroke-width:1.0;"/><text fill="#000000" font-family="sans-serif" font-size="11" lengthAdjust="spacing" text-decoration="underline" textLength="150" x="473" y="328.0151">UNITS : Map&lt;string, Unit&gt;</text><polygon fill="none" points="464,332.6094,468,336.6094,464,340.6094,460,336.6094" style="stroke:#B38D22;stroke-width:1.0;"/><text fill="#000000" font-family="sans-serif" font-size="11" lengthAdjust="spacing" text-decoration="underline" textLength="197" x="473" y="340.8198">UNIT_BASES : Map&lt;string, string&gt;</text><line style="stroke:#A80036;stroke-width:1.5;" x1="454" x2="861" y1="347.4141" y2="347.4141"/><ellipse cx="464" cy="358.4141" fill="#84BE84" rx="3" ry="3" style="stroke:#038048;stroke-width:1.0;"/><text fill="#000000" font-family="sans-serif" font-size="11" lengthAdjust="spacing" textLength="274" x="473" y="361.6245">addUnit(unit: Unit, power: number) : DerivedUnit</text><ellipse cx="464" cy="371.2188" fill="#84BE84" rx="3" ry="3" style="stroke:#038048;stroke-width:1.0;"/><text fill="#000000" font-family="sans-serif" font-size="11" lengthAdjust="spacing" textLength="256" x="473" y="374.4292">convert&lt;T&gt;(value: T, target: string | Unit) : T</text><ellipse cx="464" cy="384.0234" fill="#84BE84" rx="3" ry="3" style="stroke:#038048;stroke-width:1.0;"/><text fill="#000000" font-family="sans-serif" font-size="11" lengthAdjust="spacing" text-decoration="underline" textLength="343" x="473" y="387.2339">convert&lt;T&gt;(value: T, from: string | Unit, to: string | Unit) : T</text><ellipse cx="464" cy="396.8281" fill="#84BE84" rx="3" ry="3" style="stroke:#038048;stroke-width:1.0;"/><text fill="#000000" font-family="sans-serif" font-size="11" lengthAdjust="spacing" textLength="326" x="473" y="400.0386">createBaseDefinition() : UnitFunctionDefinition&lt;any, any&gt;</text><ellipse cx="464" cy="409.6328" fill="#84BE84" rx="3" ry="3" style="stroke:#038048;stroke-width:1.0;"/><text fill="#000000" font-family="sans-serif" font-size="11" lengthAdjust="spacing" textLength="383" x="473" y="412.8433">createDefinition(targetUnit: Unit) : UnitFunctionDefinition&lt;any, any&gt;</text><ellipse cx="464" cy="422.4375" fill="#84BE84" rx="3" ry="3" style="stroke:#038048;stroke-width:1.0;"/><text fill="#000000" font-family="sans-serif" font-size="11" lengthAdjust="spacing" text-decoration="underline" textLength="293" x="473" y="425.6479">findByName(name: string, baseName: string) : Unit</text><ellipse cx="464" cy="435.2422" fill="#84BE84" rx="3" ry="3" style="stroke:#038048;stroke-width:1.0;"/><text fill="#000000" font-family="sans-serif" font-size="11" lengthAdjust="spacing" text-decoration="underline" textLength="159" x="473" y="438.4526">fromJSON&lt;T&gt;(json: any) : T</text><ellipse cx="464" cy="448.0469" fill="#84BE84" rx="3" ry="3" style="stroke:#038048;stroke-width:1.0;"/><text fill="#000000" font-family="sans-serif" font-size="11" lengthAdjust="spacing" text-decoration="underline" textLength="268" x="473" y="451.2573">registerUnit(unit: Unit, override: boolean) : Unit</text><ellipse cx="464" cy="460.8516" fill="#84BE84" rx="3" ry="3" style="stroke:#038048;stroke-width:1.0;"/><text fill="#000000" font-family="sans-serif" font-size="11" lengthAdjust="spacing" textLength="228" x="473" y="464.062">specifier(prefix: UnitPrefix) : DerivedUnit</text><ellipse cx="464" cy="473.6563" fill="#84BE84" rx="3" ry="3" style="stroke:#038048;stroke-width:1.0;"/><text fill="#000000" font-family="sans-serif" font-size="11" lengthAdjust="spacing" textLength="326" x="473" y="476.8667">swap(subunits: Unit[], options: UnitOptions) : DerivedUnit</text><polygon fill="#FFFF44" points="464,481.4609,468,485.4609,464,489.4609,460,485.4609" style="stroke:#B38D22;stroke-width:1.0;"/><text fill="#000000" font-family="sans-serif" font-size="11" lengthAdjust="spacing" textLength="183" x="473" y="489.6714">findByName(name: string) : Unit</text><!--MD5=[63a373d2559db13dd8cc7d36e037ebb1]
class Unit--><rect codeLine="20" fill="#FEFECE" filter="url(#f1qy6zeefhcbdw)" height="201.6563" id="Unit" style="stroke:#A80036;stroke-width:1.5;" width="409" x="453" y="7"/><ellipse cx="640.75" cy="23" fill="#ADD1B2" rx="11" ry="11" style="stroke:#A80036;stroke-width:1.0;"/><path d="M643.7188,28.6406 Q643.1406,28.9375 642.5,29.0781 Q641.8594,29.2344 641.1563,29.2344 Q638.6563,29.2344 637.3281,27.5938 Q636.0156,25.9375 636.0156,22.8125 Q636.0156,19.6875 637.3281,18.0313 Q638.6563,16.375 641.1563,16.375 Q641.8594,16.375 642.5,16.5313 Q643.1563,16.6875 643.7188,16.9844 L643.7188,19.7031 Q643.0938,19.125 642.5,18.8594 Q641.9063,18.5781 641.2813,18.5781 Q639.9375,18.5781 639.25,19.6563 Q638.5625,20.7188 638.5625,22.8125 Q638.5625,24.9063 639.25,25.9844 Q639.9375,27.0469 641.2813,27.0469 Q641.9063,27.0469 642.5,26.7813 Q643.0938,26.5 643.7188,25.9219 L643.7188,28.6406 Z " fill="#000000"/><text fill="#000000" font-family="sans-serif" font-size="12" lengthAdjust="spacing" textLength="25" x="661.25" y="27.1543">Unit</text><line style="stroke:#A80036;stroke-width:1.5;" x1="454" x2="861" y1="39" y2="39"/><ellipse cx="464" cy="50" rx="3" ry="3" style="stroke:#038048;stroke-width:1.0;fill:none;"/><text fill="#000000" font-family="sans-serif" font-size="11" lengthAdjust="spacing" text-decoration="underline" textLength="91" x="473" y="53.2104">UNKNOWN : Unit</text><polygon fill="none" points="464,57.8047,468,61.8047,464,65.8047,460,61.8047" style="stroke:#B38D22;stroke-width:1.0;"/><text fill="#000000" font-family="sans-serif" font-size="11" lengthAdjust="spacing" text-decoration="underline" textLength="150" x="473" y="66.0151">UNITS : Map&lt;string, Unit&gt;</text><polygon fill="none" points="464,70.6094,468,74.6094,464,78.6094,460,74.6094" style="stroke:#B38D22;stroke-width:1.0;"/><text fill="#000000" font-family="sans-serif" font-size="11" lengthAdjust="spacing" text-decoration="underline" textLength="197" x="473" y="78.8198">UNIT_BASES : Map&lt;string, string&gt;</text><line style="stroke:#A80036;stroke-width:1.5;" x1="454" x2="861" y1="85.4141" y2="85.4141"/><ellipse cx="464" cy="96.4141" fill="#84BE84" rx="3" ry="3" style="stroke:#038048;stroke-width:1.0;"/><text fill="#000000" font-family="sans-serif" font-size="11" lengthAdjust="spacing" textLength="256" x="473" y="99.6245">convert&lt;T&gt;(value: T, target: string | Unit) : T</text><ellipse cx="464" cy="109.2188" fill="#84BE84" rx="3" ry="3" style="stroke:#038048;stroke-width:1.0;"/><text fill="#000000" font-family="sans-serif" font-size="11" lengthAdjust="spacing" text-decoration="underline" textLength="343" x="473" y="112.4292">convert&lt;T&gt;(value: T, from: string | Unit, to: string | Unit) : T</text><ellipse cx="464" cy="122.0234" fill="#84BE84" rx="3" ry="3" style="stroke:#038048;stroke-width:1.0;"/><text fill="#000000" font-family="sans-serif" font-size="11" lengthAdjust="spacing" textLength="326" x="473" y="125.2339">createBaseDefinition() : UnitFunctionDefinition&lt;any, any&gt;</text><ellipse cx="464" cy="134.8281" fill="#84BE84" rx="3" ry="3" style="stroke:#038048;stroke-width:1.0;"/><text fill="#000000" font-family="sans-serif" font-size="11" lengthAdjust="spacing" textLength="383" x="473" y="138.0386">createDefinition(targetUnit: Unit) : UnitFunctionDefinition&lt;any, any&gt;</text><ellipse cx="464" cy="147.6328" fill="#84BE84" rx="3" ry="3" style="stroke:#038048;stroke-width:1.0;"/><text fill="#000000" font-family="sans-serif" font-size="11" lengthAdjust="spacing" text-decoration="underline" textLength="293" x="473" y="150.8433">findByName(name: string, baseName: string) : Unit</text><ellipse cx="464" cy="160.4375" fill="#84BE84" rx="3" ry="3" style="stroke:#038048;stroke-width:1.0;"/><text fill="#000000" font-family="sans-serif" font-size="11" lengthAdjust="spacing" text-decoration="underline" textLength="159" x="473" y="163.6479">fromJSON&lt;T&gt;(json: any) : T</text><ellipse cx="464" cy="173.2422" fill="#84BE84" rx="3" ry="3" style="stroke:#038048;stroke-width:1.0;"/><text fill="#000000" font-family="sans-serif" font-size="11" lengthAdjust="spacing" text-decoration="underline" textLength="268" x="473" y="176.4526">registerUnit(unit: Unit, override: boolean) : Unit</text><ellipse cx="464" cy="186.0469" fill="#84BE84" rx="3" ry="3" style="stroke:#038048;stroke-width:1.0;"/><text fill="#000000" font-family="sans-serif" font-size="11" lengthAdjust="spacing" textLength="185" x="473" y="189.2573">specifier(prefix: UnitPrefix) : Unit</text><polygon fill="#FFFF44" points="464,193.8516,468,197.8516,464,201.8516,460,197.8516" style="stroke:#B38D22;stroke-width:1.0;"/><text fill="#000000" font-family="sans-serif" font-size="11" lengthAdjust="spacing" textLength="183" x="473" y="202.062">findByName(name: string) : Unit</text><!--MD5=[b56e2887e95e058cddfb9691386c3049]
class AngularVelocityUnit--><rect codeLine="35" fill="#FEFECE" filter="url(#f1qy6zeefhcbdw)" height="278.4844" id="AngularVelocityUnit" style="stroke:#A80036;stroke-width:1.5;" width="409" x="9" y="556"/><ellipse cx="148.75" cy="572" fill="#ADD1B2" rx="11" ry="11" style="stroke:#A80036;stroke-width:1.0;"/><path d="M151.7188,577.6406 Q151.1406,577.9375 150.5,578.0781 Q149.8594,578.2344 149.1563,578.2344 Q146.6563,578.2344 145.3281,576.5938 Q144.0156,574.9375 144.0156,571.8125 Q144.0156,568.6875 145.3281,567.0313 Q146.6563,565.375 149.1563,565.375 Q149.8594,565.375 150.5,565.5313 Q151.1563,565.6875 151.7188,565.9844 L151.7188,568.7031 Q151.0938,568.125 150.5,567.8594 Q149.9063,567.5781 149.2813,567.5781 Q147.9375,567.5781 147.25,568.6563 Q146.5625,569.7188 146.5625,571.8125 Q146.5625,573.9063 147.25,574.9844 Q147.9375,576.0469 149.2813,576.0469 Q149.9063,576.0469 150.5,575.7813 Q151.0938,575.5 151.7188,574.9219 L151.7188,577.6406 Z " fill="#000000"/><text fill="#000000" font-family="sans-serif" font-size="12" lengthAdjust="spacing" textLength="121" x="169.25" y="576.1543">AngularVelocityUnit</text><line style="stroke:#A80036;stroke-width:1.5;" x1="10" x2="417" y1="588" y2="588"/><ellipse cx="20" cy="599" rx="3" ry="3" style="stroke:#038048;stroke-width:1.0;fill:none;"/><text fill="#000000" font-family="sans-serif" font-size="11" lengthAdjust="spacing" text-decoration="underline" textLength="197" x="29" y="602.2104">DEGREE_PER_MINUTE : DerivedUnit</text><ellipse cx="20" cy="611.8047" rx="3" ry="3" style="stroke:#038048;stroke-width:1.0;fill:none;"/><text fill="#000000" font-family="sans-serif" font-size="11" lengthAdjust="spacing" text-decoration="underline" textLength="203" x="29" y="615.0151">DEGREE_PER_SECOND : DerivedUnit</text><ellipse cx="20" cy="624.6094" rx="3" ry="3" style="stroke:#038048;stroke-width:1.0;fill:none;"/><text fill="#000000" font-family="sans-serif" font-size="11" lengthAdjust="spacing" text-decoration="underline" textLength="192" x="29" y="627.8198">RADIAN_PER_MINUTE : DerivedUnit</text><ellipse cx="20" cy="637.4141" rx="3" ry="3" style="stroke:#038048;stroke-width:1.0;fill:none;"/><text fill="#000000" font-family="sans-serif" font-size="11" lengthAdjust="spacing" text-decoration="underline" textLength="198" x="29" y="640.6245">RADIAN_PER_SECOND : DerivedUnit</text><ellipse cx="20" cy="650.2188" rx="3" ry="3" style="stroke:#038048;stroke-width:1.0;fill:none;"/><text fill="#000000" font-family="sans-serif" font-size="11" lengthAdjust="spacing" text-decoration="underline" textLength="91" x="29" y="653.4292">UNKNOWN : Unit</text><polygon fill="none" points="20,658.0234,24,662.0234,20,666.0234,16,662.0234" style="stroke:#B38D22;stroke-width:1.0;"/><text fill="#000000" font-family="sans-serif" font-size="11" lengthAdjust="spacing" text-decoration="underline" textLength="150" x="29" y="666.2339">UNITS : Map&lt;string, Unit&gt;</text><polygon fill="none" points="20,670.8281,24,674.8281,20,678.8281,16,674.8281" style="stroke:#B38D22;stroke-width:1.0;"/><text fill="#000000" font-family="sans-serif" font-size="11" lengthAdjust="spacing" text-decoration="underline" textLength="197" x="29" y="679.0386">UNIT_BASES : Map&lt;string, string&gt;</text><line style="stroke:#A80036;stroke-width:1.5;" x1="10" x2="417" y1="685.6328" y2="685.6328"/><ellipse cx="20" cy="696.6328" fill="#84BE84" rx="3" ry="3" style="stroke:#038048;stroke-width:1.0;"/><text fill="#000000" font-family="sans-serif" font-size="11" lengthAdjust="spacing" textLength="274" x="29" y="699.8433">addUnit(unit: Unit, power: number) : DerivedUnit</text><ellipse cx="20" cy="709.4375" fill="#84BE84" rx="3" ry="3" style="stroke:#038048;stroke-width:1.0;"/><text fill="#000000" font-family="sans-serif" font-size="11" lengthAdjust="spacing" textLength="256" x="29" y="712.6479">convert&lt;T&gt;(value: T, target: string | Unit) : T</text><ellipse cx="20" cy="722.2422" fill="#84BE84" rx="3" ry="3" style="stroke:#038048;stroke-width:1.0;"/><text fill="#000000" font-family="sans-serif" font-size="11" lengthAdjust="spacing" text-decoration="underline" textLength="343" x="29" y="725.4526">convert&lt;T&gt;(value: T, from: string | Unit, to: string | Unit) : T</text><ellipse cx="20" cy="735.0469" fill="#84BE84" rx="3" ry="3" style="stroke:#038048;stroke-width:1.0;"/><text fill="#000000" font-family="sans-serif" font-size="11" lengthAdjust="spacing" textLength="326" x="29" y="738.2573">createBaseDefinition() : UnitFunctionDefinition&lt;any, any&gt;</text><ellipse cx="20" cy="747.8516" fill="#84BE84" rx="3" ry="3" style="stroke:#038048;stroke-width:1.0;"/><text fill="#000000" font-family="sans-serif" font-size="11" lengthAdjust="spacing" textLength="383" x="29" y="751.062">createDefinition(targetUnit: Unit) : UnitFunctionDefinition&lt;any, any&gt;</text><ellipse cx="20" cy="760.6563" fill="#84BE84" rx="3" ry="3" style="stroke:#038048;stroke-width:1.0;"/><text fill="#000000" font-family="sans-serif" font-size="11" lengthAdjust="spacing" text-decoration="underline" textLength="293" x="29" y="763.8667">findByName(name: string, baseName: string) : Unit</text><ellipse cx="20" cy="773.4609" fill="#84BE84" rx="3" ry="3" style="stroke:#038048;stroke-width:1.0;"/><text fill="#000000" font-family="sans-serif" font-size="11" lengthAdjust="spacing" text-decoration="underline" textLength="159" x="29" y="776.6714">fromJSON&lt;T&gt;(json: any) : T</text><ellipse cx="20" cy="786.2656" fill="#84BE84" rx="3" ry="3" style="stroke:#038048;stroke-width:1.0;"/><text fill="#000000" font-family="sans-serif" font-size="11" lengthAdjust="spacing" text-decoration="underline" textLength="268" x="29" y="789.4761">registerUnit(unit: Unit, override: boolean) : Unit</text><ellipse cx="20" cy="799.0703" fill="#84BE84" rx="3" ry="3" style="stroke:#038048;stroke-width:1.0;"/><text fill="#000000" font-family="sans-serif" font-size="11" lengthAdjust="spacing" textLength="271" x="29" y="802.2808">specifier(prefix: UnitPrefix) : AngularVelocityUnit</text><ellipse cx="20" cy="811.875" fill="#84BE84" rx="3" ry="3" style="stroke:#038048;stroke-width:1.0;"/><text fill="#000000" font-family="sans-serif" font-size="11" lengthAdjust="spacing" textLength="326" x="29" y="815.0854">swap(subunits: Unit[], options: UnitOptions) : DerivedUnit</text><polygon fill="#FFFF44" points="20,819.6797,24,823.6797,20,827.6797,16,823.6797" style="stroke:#B38D22;stroke-width:1.0;"/><text fill="#000000" font-family="sans-serif" font-size="11" lengthAdjust="spacing" textLength="183" x="29" y="827.8901">findByName(name: string) : Unit</text><!--MD5=[b40efcfc98877d6073e3e433be7fb769]
class LinearVelocityUnit--><rect codeLine="56" fill="#FEFECE" filter="url(#f1qy6zeefhcbdw)" height="252.875" id="LinearVelocityUnit" style="stroke:#A80036;stroke-width:1.5;" width="409" x="453" y="568.5"/><ellipse cx="597.75" cy="584.5" fill="#ADD1B2" rx="11" ry="11" style="stroke:#A80036;stroke-width:1.0;"/><path d="M600.7188,590.1406 Q600.1406,590.4375 599.5,590.5781 Q598.8594,590.7344 598.1563,590.7344 Q595.6563,590.7344 594.3281,589.0938 Q593.0156,587.4375 593.0156,584.3125 Q593.0156,581.1875 594.3281,579.5313 Q595.6563,577.875 598.1563,577.875 Q598.8594,577.875 599.5,578.0313 Q600.1563,578.1875 600.7188,578.4844 L600.7188,581.2031 Q600.0938,580.625 599.5,580.3594 Q598.9063,580.0781 598.2813,580.0781 Q596.9375,580.0781 596.25,581.1563 Q595.5625,582.2188 595.5625,584.3125 Q595.5625,586.4063 596.25,587.4844 Q596.9375,588.5469 598.2813,588.5469 Q598.9063,588.5469 599.5,588.2813 Q600.0938,588 600.7188,587.4219 L600.7188,590.1406 Z " fill="#000000"/><text fill="#000000" font-family="sans-serif" font-size="12" lengthAdjust="spacing" textLength="111" x="618.25" y="588.6543">LinearVelocityUnit</text><line style="stroke:#A80036;stroke-width:1.5;" x1="454" x2="861" y1="600.5" y2="600.5"/><ellipse cx="464" cy="611.5" rx="3" ry="3" style="stroke:#038048;stroke-width:1.0;fill:none;"/><text fill="#000000" font-family="sans-serif" font-size="11" lengthAdjust="spacing" text-decoration="underline" textLength="228" x="473" y="614.7104">CENTIMETER_PER_SECOND : DerivedUnit</text><ellipse cx="464" cy="624.3047" rx="3" ry="3" style="stroke:#038048;stroke-width:1.0;fill:none;"/><text fill="#000000" font-family="sans-serif" font-size="11" lengthAdjust="spacing" text-decoration="underline" textLength="195" x="473" y="627.5151">METER_PER_SECOND : DerivedUnit</text><ellipse cx="464" cy="637.1094" rx="3" ry="3" style="stroke:#038048;stroke-width:1.0;fill:none;"/><text fill="#000000" font-family="sans-serif" font-size="11" lengthAdjust="spacing" text-decoration="underline" textLength="91" x="473" y="640.3198">UNKNOWN : Unit</text><polygon fill="none" points="464,644.9141,468,648.9141,464,652.9141,460,648.9141" style="stroke:#B38D22;stroke-width:1.0;"/><text fill="#000000" font-family="sans-serif" font-size="11" lengthAdjust="spacing" text-decoration="underline" textLength="150" x="473" y="653.1245">UNITS : Map&lt;string, Unit&gt;</text><polygon fill="none" points="464,657.7188,468,661.7188,464,665.7188,460,661.7188" style="stroke:#B38D22;stroke-width:1.0;"/><text fill="#000000" font-family="sans-serif" font-size="11" lengthAdjust="spacing" text-decoration="underline" textLength="197" x="473" y="665.9292">UNIT_BASES : Map&lt;string, string&gt;</text><line style="stroke:#A80036;stroke-width:1.5;" x1="454" x2="861" y1="672.5234" y2="672.5234"/><ellipse cx="464" cy="683.5234" fill="#84BE84" rx="3" ry="3" style="stroke:#038048;stroke-width:1.0;"/><text fill="#000000" font-family="sans-serif" font-size="11" lengthAdjust="spacing" textLength="274" x="473" y="686.7339">addUnit(unit: Unit, power: number) : DerivedUnit</text><ellipse cx="464" cy="696.3281" fill="#84BE84" rx="3" ry="3" style="stroke:#038048;stroke-width:1.0;"/><text fill="#000000" font-family="sans-serif" font-size="11" lengthAdjust="spacing" textLength="256" x="473" y="699.5386">convert&lt;T&gt;(value: T, target: string | Unit) : T</text><ellipse cx="464" cy="709.1328" fill="#84BE84" rx="3" ry="3" style="stroke:#038048;stroke-width:1.0;"/><text fill="#000000" font-family="sans-serif" font-size="11" lengthAdjust="spacing" text-decoration="underline" textLength="343" x="473" y="712.3433">convert&lt;T&gt;(value: T, from: string | Unit, to: string | Unit) : T</text><ellipse cx="464" cy="721.9375" fill="#84BE84" rx="3" ry="3" style="stroke:#038048;stroke-width:1.0;"/><text fill="#000000" font-family="sans-serif" font-size="11" lengthAdjust="spacing" textLength="326" x="473" y="725.1479">createBaseDefinition() : UnitFunctionDefinition&lt;any, any&gt;</text><ellipse cx="464" cy="734.7422" fill="#84BE84" rx="3" ry="3" style="stroke:#038048;stroke-width:1.0;"/><text fill="#000000" font-family="sans-serif" font-size="11" lengthAdjust="spacing" textLength="383" x="473" y="737.9526">createDefinition(targetUnit: Unit) : UnitFunctionDefinition&lt;any, any&gt;</text><ellipse cx="464" cy="747.5469" fill="#84BE84" rx="3" ry="3" style="stroke:#038048;stroke-width:1.0;"/><text fill="#000000" font-family="sans-serif" font-size="11" lengthAdjust="spacing" text-decoration="underline" textLength="293" x="473" y="750.7573">findByName(name: string, baseName: string) : Unit</text><ellipse cx="464" cy="760.3516" fill="#84BE84" rx="3" ry="3" style="stroke:#038048;stroke-width:1.0;"/><text fill="#000000" font-family="sans-serif" font-size="11" lengthAdjust="spacing" text-decoration="underline" textLength="159" x="473" y="763.562">fromJSON&lt;T&gt;(json: any) : T</text><ellipse cx="464" cy="773.1563" fill="#84BE84" rx="3" ry="3" style="stroke:#038048;stroke-width:1.0;"/><text fill="#000000" font-family="sans-serif" font-size="11" lengthAdjust="spacing" text-decoration="underline" textLength="268" x="473" y="776.3667">registerUnit(unit: Unit, override: boolean) : Unit</text><ellipse cx="464" cy="785.9609" fill="#84BE84" rx="3" ry="3" style="stroke:#038048;stroke-width:1.0;"/><text fill="#000000" font-family="sans-serif" font-size="11" lengthAdjust="spacing" textLength="263" x="473" y="789.1714">specifier(prefix: UnitPrefix) : LinearVelocityUnit</text><ellipse cx="464" cy="798.7656" fill="#84BE84" rx="3" ry="3" style="stroke:#038048;stroke-width:1.0;"/><text fill="#000000" font-family="sans-serif" font-size="11" lengthAdjust="spacing" textLength="326" x="473" y="801.9761">swap(subunits: Unit[], options: UnitOptions) : DerivedUnit</text><polygon fill="#FFFF44" points="464,806.5703,468,810.5703,464,814.5703,460,810.5703" style="stroke:#B38D22;stroke-width:1.0;"/><text fill="#000000" font-family="sans-serif" font-size="11" lengthAdjust="spacing" textLength="183" x="473" y="814.7808">findByName(name: string) : Unit</text><!--MD5=[107d1ec2bedc8e73dc6c808afbadb60a]
class AccelerationUnit--><rect codeLine="75" fill="#FEFECE" filter="url(#f1qy6zeefhcbdw)" height="252.875" id="AccelerationUnit" style="stroke:#A80036;stroke-width:1.5;" width="409" x="897" y="568.5"/><ellipse cx="1045.75" cy="584.5" fill="#ADD1B2" rx="11" ry="11" style="stroke:#A80036;stroke-width:1.0;"/><path d="M1048.7188,590.1406 Q1048.1406,590.4375 1047.5,590.5781 Q1046.8594,590.7344 1046.1563,590.7344 Q1043.6563,590.7344 1042.3281,589.0938 Q1041.0156,587.4375 1041.0156,584.3125 Q1041.0156,581.1875 1042.3281,579.5313 Q1043.6563,577.875 1046.1563,577.875 Q1046.8594,577.875 1047.5,578.0313 Q1048.1563,578.1875 1048.7188,578.4844 L1048.7188,581.2031 Q1048.0938,580.625 1047.5,580.3594 Q1046.9063,580.0781 1046.2813,580.0781 Q1044.9375,580.0781 1044.25,581.1563 Q1043.5625,582.2188 1043.5625,584.3125 Q1043.5625,586.4063 1044.25,587.4844 Q1044.9375,588.5469 1046.2813,588.5469 Q1046.9063,588.5469 1047.5,588.2813 Q1048.0938,588 1048.7188,587.4219 L1048.7188,590.1406 Z " fill="#000000"/><text fill="#000000" font-family="sans-serif" font-size="12" lengthAdjust="spacing" textLength="103" x="1066.25" y="588.6543">AccelerationUnit</text><line style="stroke:#A80036;stroke-width:1.5;" x1="898" x2="1305" y1="600.5" y2="600.5"/><ellipse cx="908" cy="611.5" rx="3" ry="3" style="stroke:#038048;stroke-width:1.0;fill:none;"/><text fill="#000000" font-family="sans-serif" font-size="11" lengthAdjust="spacing" text-decoration="underline" textLength="233" x="917" y="614.7104">GRAVITATIONAL_FORCE : AccelerationUnit</text><ellipse cx="908" cy="624.3047" rx="3" ry="3" style="stroke:#038048;stroke-width:1.0;fill:none;"/><text fill="#000000" font-family="sans-serif" font-size="11" lengthAdjust="spacing" text-decoration="underline" textLength="247" x="917" y="627.5151">METER_PER_SECOND_SQUARE : DerivedUnit</text><ellipse cx="908" cy="637.1094" rx="3" ry="3" style="stroke:#038048;stroke-width:1.0;fill:none;"/><text fill="#000000" font-family="sans-serif" font-size="11" lengthAdjust="spacing" text-decoration="underline" textLength="91" x="917" y="640.3198">UNKNOWN : Unit</text><polygon fill="none" points="908,644.9141,912,648.9141,908,652.9141,904,648.9141" style="stroke:#B38D22;stroke-width:1.0;"/><text fill="#000000" font-family="sans-serif" font-size="11" lengthAdjust="spacing" text-decoration="underline" textLength="150" x="917" y="653.1245">UNITS : Map&lt;string, Unit&gt;</text><polygon fill="none" points="908,657.7188,912,661.7188,908,665.7188,904,661.7188" style="stroke:#B38D22;stroke-width:1.0;"/><text fill="#000000" font-family="sans-serif" font-size="11" lengthAdjust="spacing" text-decoration="underline" textLength="197" x="917" y="665.9292">UNIT_BASES : Map&lt;string, string&gt;</text><line style="stroke:#A80036;stroke-width:1.5;" x1="898" x2="1305" y1="672.5234" y2="672.5234"/><ellipse cx="908" cy="683.5234" fill="#84BE84" rx="3" ry="3" style="stroke:#038048;stroke-width:1.0;"/><text fill="#000000" font-family="sans-serif" font-size="11" lengthAdjust="spacing" textLength="274" x="917" y="686.7339">addUnit(unit: Unit, power: number) : DerivedUnit</text><ellipse cx="908" cy="696.3281" fill="#84BE84" rx="3" ry="3" style="stroke:#038048;stroke-width:1.0;"/><text fill="#000000" font-family="sans-serif" font-size="11" lengthAdjust="spacing" textLength="256" x="917" y="699.5386">convert&lt;T&gt;(value: T, target: string | Unit) : T</text><ellipse cx="908" cy="709.1328" fill="#84BE84" rx="3" ry="3" style="stroke:#038048;stroke-width:1.0;"/><text fill="#000000" font-family="sans-serif" font-size="11" lengthAdjust="spacing" text-decoration="underline" textLength="343" x="917" y="712.3433">convert&lt;T&gt;(value: T, from: string | Unit, to: string | Unit) : T</text><ellipse cx="908" cy="721.9375" fill="#84BE84" rx="3" ry="3" style="stroke:#038048;stroke-width:1.0;"/><text fill="#000000" font-family="sans-serif" font-size="11" lengthAdjust="spacing" textLength="326" x="917" y="725.1479">createBaseDefinition() : UnitFunctionDefinition&lt;any, any&gt;</text><ellipse cx="908" cy="734.7422" fill="#84BE84" rx="3" ry="3" style="stroke:#038048;stroke-width:1.0;"/><text fill="#000000" font-family="sans-serif" font-size="11" lengthAdjust="spacing" textLength="383" x="917" y="737.9526">createDefinition(targetUnit: Unit) : UnitFunctionDefinition&lt;any, any&gt;</text><ellipse cx="908" cy="747.5469" fill="#84BE84" rx="3" ry="3" style="stroke:#038048;stroke-width:1.0;"/><text fill="#000000" font-family="sans-serif" font-size="11" lengthAdjust="spacing" text-decoration="underline" textLength="293" x="917" y="750.7573">findByName(name: string, baseName: string) : Unit</text><ellipse cx="908" cy="760.3516" fill="#84BE84" rx="3" ry="3" style="stroke:#038048;stroke-width:1.0;"/><text fill="#000000" font-family="sans-serif" font-size="11" lengthAdjust="spacing" text-decoration="underline" textLength="159" x="917" y="763.562">fromJSON&lt;T&gt;(json: any) : T</text><ellipse cx="908" cy="773.1563" fill="#84BE84" rx="3" ry="3" style="stroke:#038048;stroke-width:1.0;"/><text fill="#000000" font-family="sans-serif" font-size="11" lengthAdjust="spacing" text-decoration="underline" textLength="268" x="917" y="776.3667">registerUnit(unit: Unit, override: boolean) : Unit</text><ellipse cx="908" cy="785.9609" fill="#84BE84" rx="3" ry="3" style="stroke:#038048;stroke-width:1.0;"/><text fill="#000000" font-family="sans-serif" font-size="11" lengthAdjust="spacing" textLength="254" x="917" y="789.1714">specifier(prefix: UnitPrefix) : AccelerationUnit</text><ellipse cx="908" cy="798.7656" fill="#84BE84" rx="3" ry="3" style="stroke:#038048;stroke-width:1.0;"/><text fill="#000000" font-family="sans-serif" font-size="11" lengthAdjust="spacing" textLength="326" x="917" y="801.9761">swap(subunits: Unit[], options: UnitOptions) : DerivedUnit</text><polygon fill="#FFFF44" points="908,806.5703,912,810.5703,908,814.5703,904,810.5703" style="stroke:#B38D22;stroke-width:1.0;"/><text fill="#000000" font-family="sans-serif" font-size="11" lengthAdjust="spacing" textLength="183" x="917" y="814.7808">findByName(name: string) : Unit</text><!--MD5=[7d8b51b3e0e6b7a9007e79872f9f6dfc]
reverse link Unit to DerivedUnit--><path codeLine="34" d="M657.5,229.64 C657.5,242.73 657.5,256.01 657.5,268.99 " fill="none" id="Unit-backto-DerivedUnit" style="stroke:#A80036;stroke-width:1.0;"/><polygon fill="none" points="650.5,229.31,657.5,209.31,664.5,229.31,650.5,229.31" style="stroke:#A80036;stroke-width:1.0;"/><!--MD5=[7e7a5c5dd5551a846ec89795642a4f7d]
reverse link DerivedUnit to AngularVelocityUnit--><path codeLine="55" d="M480.15,507.53 C457.4,523.43 434.01,539.79 410.97,555.9 " fill="none" id="DerivedUnit-backto-AngularVelocityUnit" style="stroke:#A80036;stroke-width:1.0;"/><polygon fill="none" points="476.18,501.76,496.58,496.04,484.2,513.23,476.18,501.76" style="stroke:#A80036;stroke-width:1.0;"/><!--MD5=[59ed7b246c2ac880ff5c3a9b8ce3bb7d]
reverse link DerivedUnit to LinearVelocityUnit--><path codeLine="74" d="M657.5,516.16 C657.5,533.5 657.5,551.22 657.5,568.44 " fill="none" id="DerivedUnit-backto-LinearVelocityUnit" style="stroke:#A80036;stroke-width:1.0;"/><polygon fill="none" points="650.5,516.04,657.5,496.04,664.5,516.04,650.5,516.04" style="stroke:#A80036;stroke-width:1.0;"/><!--MD5=[3e65fefbab11d604ddfbdaf5ba7caa43]
reverse link DerivedUnit to AccelerationUnit--><path codeLine="93" d="M835.12,507.72 C863.71,527.71 893.32,548.42 921.96,568.44 " fill="none" id="DerivedUnit-backto-AccelerationUnit" style="stroke:#A80036;stroke-width:1.0;"/><polygon fill="none" points="830.8,513.23,818.42,496.04,838.82,501.76,830.8,513.23" style="stroke:#A80036;stroke-width:1.0;"/><!--MD5=[b4c88f19e6701822200e187befa6d959]
@startuml
skinparam BackgroundColor transparent
hide empty methods
hide empty fields
class "DerivedUnit" {
    {static} +UNKNOWN : Unit
    {static} #UNITS : Map<string, Unit>
    {static} #UNIT_BASES : Map<string, string>
    +addUnit(unit: Unit, power: number) : DerivedUnit
    +convert<T>(value: T, target: string | Unit) : T
    {static} +convert<T>(value: T, from: string | Unit, to: string | Unit) : T
    +createBaseDefinition() : UnitFunctionDefinition<any, any>
    +createDefinition(targetUnit: Unit) : UnitFunctionDefinition<any, any>
    {static} +findByName(name: string, baseName: string) : Unit
    {static} +fromJSON<T>(json: any) : T
    {static} +registerUnit(unit: Unit, override: boolean) : Unit
    +specifier(prefix: UnitPrefix) : DerivedUnit
    +swap(subunits: Unit[], options: UnitOptions) : DerivedUnit
    #findByName(name: string) : Unit
}
class "Unit" {
    {static} +UNKNOWN : Unit
    {static} #UNITS : Map<string, Unit>
    {static} #UNIT_BASES : Map<string, string>
    +convert<T>(value: T, target: string | Unit) : T
    {static} +convert<T>(value: T, from: string | Unit, to: string | Unit) : T
    +createBaseDefinition() : UnitFunctionDefinition<any, any>
    +createDefinition(targetUnit: Unit) : UnitFunctionDefinition<any, any>
    {static} +findByName(name: string, baseName: string) : Unit
    {static} +fromJSON<T>(json: any) : T
    {static} +registerUnit(unit: Unit, override: boolean) : Unit
    +specifier(prefix: UnitPrefix) : Unit
    #findByName(name: string) : Unit
}
"Unit" <|- - "DerivedUnit"
class "AngularVelocityUnit" {
    {static} +DEGREE_PER_MINUTE : DerivedUnit
    {static} +DEGREE_PER_SECOND : DerivedUnit
    {static} +RADIAN_PER_MINUTE : DerivedUnit
    {static} +RADIAN_PER_SECOND : DerivedUnit
    {static} +UNKNOWN : Unit
    {static} #UNITS : Map<string, Unit>
    {static} #UNIT_BASES : Map<string, string>
    +addUnit(unit: Unit, power: number) : DerivedUnit
    +convert<T>(value: T, target: string | Unit) : T
    {static} +convert<T>(value: T, from: string | Unit, to: string | Unit) : T
    +createBaseDefinition() : UnitFunctionDefinition<any, any>
    +createDefinition(targetUnit: Unit) : UnitFunctionDefinition<any, any>
    {static} +findByName(name: string, baseName: string) : Unit
    {static} +fromJSON<T>(json: any) : T
    {static} +registerUnit(unit: Unit, override: boolean) : Unit
    +specifier(prefix: UnitPrefix) : AngularVelocityUnit
    +swap(subunits: Unit[], options: UnitOptions) : DerivedUnit
    #findByName(name: string) : Unit
}
"DerivedUnit" <|- - "AngularVelocityUnit"
class "LinearVelocityUnit" {
    {static} +CENTIMETER_PER_SECOND : DerivedUnit
    {static} +METER_PER_SECOND : DerivedUnit
    {static} +UNKNOWN : Unit
    {static} #UNITS : Map<string, Unit>
    {static} #UNIT_BASES : Map<string, string>
    +addUnit(unit: Unit, power: number) : DerivedUnit
    +convert<T>(value: T, target: string | Unit) : T
    {static} +convert<T>(value: T, from: string | Unit, to: string | Unit) : T
    +createBaseDefinition() : UnitFunctionDefinition<any, any>
    +createDefinition(targetUnit: Unit) : UnitFunctionDefinition<any, any>
    {static} +findByName(name: string, baseName: string) : Unit
    {static} +fromJSON<T>(json: any) : T
    {static} +registerUnit(unit: Unit, override: boolean) : Unit
    +specifier(prefix: UnitPrefix) : LinearVelocityUnit
    +swap(subunits: Unit[], options: UnitOptions) : DerivedUnit
    #findByName(name: string) : Unit
}
"DerivedUnit" <|- - "LinearVelocityUnit"
class "AccelerationUnit" {
    {static} +GRAVITATIONAL_FORCE : AccelerationUnit
    {static} +METER_PER_SECOND_SQUARE : DerivedUnit
    {static} +UNKNOWN : Unit
    {static} #UNITS : Map<string, Unit>
    {static} #UNIT_BASES : Map<string, string>
    +addUnit(unit: Unit, power: number) : DerivedUnit
    +convert<T>(value: T, target: string | Unit) : T
    {static} +convert<T>(value: T, from: string | Unit, to: string | Unit) : T
    +createBaseDefinition() : UnitFunctionDefinition<any, any>
    +createDefinition(targetUnit: Unit) : UnitFunctionDefinition<any, any>
    {static} +findByName(name: string, baseName: string) : Unit
    {static} +fromJSON<T>(json: any) : T
    {static} +registerUnit(unit: Unit, override: boolean) : Unit
    +specifier(prefix: UnitPrefix) : AccelerationUnit
    +swap(subunits: Unit[], options: UnitOptions) : DerivedUnit
    #findByName(name: string) : Unit
}
"DerivedUnit" <|- - "AccelerationUnit"
@enduml

PlantUML version 1.2021.14(Fri Nov 12 16:46:50 UTC 2021)
(GPL source distribution)
Java Runtime: OpenJDK Runtime Environment
JVM: OpenJDK 64-Bit Server VM
Default Encoding: UTF-8
Language: en
Country: null
--></g></svg>