<?xml version="1.0" encoding="us-ascii" standalone="no"?><svg xmlns="http://www.w3.org/2000/svg" xmlns:xlink="http://www.w3.org/1999/xlink" contentStyleType="text/css" height="230px" preserveAspectRatio="none" style="width:546px;height:230px;" version="1.1" viewBox="0 0 546 230" width="546px" zoomAndPan="magnify"><defs/><g><!--class DerivedUnit--><g id="elem_DerivedUnit"><rect codeLine="4" fill="#F1F1F1" height="32" id="DerivedUnit" rx="2.5" ry="2.5" style="stroke:#181818;stroke-width:0.5;" width="112" x="227" y="99"/><ellipse cx="242" cy="115" fill="#ADD1B2" rx="11" ry="11" style="stroke:#181818;stroke-width:1.0;"/><path d="M244.9688,120.6406 Q244.3906,120.9375 243.75,121.0781 Q243.1094,121.2344 242.4063,121.2344 Q239.9063,121.2344 238.5781,119.5938 Q237.2656,117.9375 237.2656,114.8125 Q237.2656,111.6875 238.5781,110.0313 Q239.9063,108.375 242.4063,108.375 Q243.1094,108.375 243.75,108.5313 Q244.4063,108.6875 244.9688,108.9844 L244.9688,111.7031 Q244.3438,111.125 243.75,110.8594 Q243.1563,110.5781 242.5313,110.5781 Q241.1875,110.5781 240.5,111.6563 Q239.8125,112.7188 239.8125,114.8125 Q239.8125,116.9063 240.5,117.9844 Q241.1875,119.0469 242.5313,119.0469 Q243.1563,119.0469 243.75,118.7813 Q244.3438,118.5 244.9688,117.9219 L244.9688,120.6406 Z " fill="#000000"/><text fill="#000000" font-family="sans-serif" font-size="14" lengthAdjust="spacing" textLength="80" x="256" y="119.8467">DerivedUnit</text></g><!--class Unit--><g id="elem_Unit"><rect codeLine="6" fill="#F1F1F1" height="32" id="Unit" rx="2.5" ry="2.5" style="stroke:#181818;stroke-width:0.5;" width="59" x="253.5" y="7"/><ellipse cx="268.5" cy="23" fill="#ADD1B2" rx="11" ry="11" style="stroke:#181818;stroke-width:1.0;"/><path d="M271.4688,28.6406 Q270.8906,28.9375 270.25,29.0781 Q269.6094,29.2344 268.9063,29.2344 Q266.4063,29.2344 265.0781,27.5938 Q263.7656,25.9375 263.7656,22.8125 Q263.7656,19.6875 265.0781,18.0313 Q266.4063,16.375 268.9063,16.375 Q269.6094,16.375 270.25,16.5313 Q270.9063,16.6875 271.4688,16.9844 L271.4688,19.7031 Q270.8438,19.125 270.25,18.8594 Q269.6563,18.5781 269.0313,18.5781 Q267.6875,18.5781 267,19.6563 Q266.3125,20.7188 266.3125,22.8125 Q266.3125,24.9063 267,25.9844 Q267.6875,27.0469 269.0313,27.0469 Q269.6563,27.0469 270.25,26.7813 Q270.8438,26.5 271.4688,25.9219 L271.4688,28.6406 Z " fill="#000000"/><text fill="#000000" font-family="sans-serif" font-size="14" lengthAdjust="spacing" textLength="27" x="282.5" y="27.8467">Unit</text></g><!--class AngularVelocityUnit--><g id="elem_AngularVelocityUnit"><rect codeLine="9" fill="#F1F1F1" height="32" id="AngularVelocityUnit" rx="2.5" ry="2.5" style="stroke:#181818;stroke-width:0.5;" width="164" x="7" y="191"/><ellipse cx="22" cy="207" fill="#ADD1B2" rx="11" ry="11" style="stroke:#181818;stroke-width:1.0;"/><path d="M24.9688,212.6406 Q24.3906,212.9375 23.75,213.0781 Q23.1094,213.2344 22.4063,213.2344 Q19.9063,213.2344 18.5781,211.5938 Q17.2656,209.9375 17.2656,206.8125 Q17.2656,203.6875 18.5781,202.0313 Q19.9063,200.375 22.4063,200.375 Q23.1094,200.375 23.75,200.5313 Q24.4063,200.6875 24.9688,200.9844 L24.9688,203.7031 Q24.3438,203.125 23.75,202.8594 Q23.1563,202.5781 22.5313,202.5781 Q21.1875,202.5781 20.5,203.6563 Q19.8125,204.7188 19.8125,206.8125 Q19.8125,208.9063 20.5,209.9844 Q21.1875,211.0469 22.5313,211.0469 Q23.1563,211.0469 23.75,210.7813 Q24.3438,210.5 24.9688,209.9219 L24.9688,212.6406 Z " fill="#000000"/><text fill="#000000" font-family="sans-serif" font-size="14" lengthAdjust="spacing" textLength="132" x="36" y="211.8467">AngularVelocityUnit</text></g><!--class LinearVelocityUnit--><g id="elem_LinearVelocityUnit"><rect codeLine="12" fill="#F1F1F1" height="32" id="LinearVelocityUnit" rx="2.5" ry="2.5" style="stroke:#181818;stroke-width:0.5;" width="153" x="206.5" y="191"/><ellipse cx="221.5" cy="207" fill="#ADD1B2" rx="11" ry="11" style="stroke:#181818;stroke-width:1.0;"/><path d="M224.4688,212.6406 Q223.8906,212.9375 223.25,213.0781 Q222.6094,213.2344 221.9063,213.2344 Q219.4063,213.2344 218.0781,211.5938 Q216.7656,209.9375 216.7656,206.8125 Q216.7656,203.6875 218.0781,202.0313 Q219.4063,200.375 221.9063,200.375 Q222.6094,200.375 223.25,200.5313 Q223.9063,200.6875 224.4688,200.9844 L224.4688,203.7031 Q223.8438,203.125 223.25,202.8594 Q222.6563,202.5781 222.0313,202.5781 Q220.6875,202.5781 220,203.6563 Q219.3125,204.7188 219.3125,206.8125 Q219.3125,208.9063 220,209.9844 Q220.6875,211.0469 222.0313,211.0469 Q222.6563,211.0469 223.25,210.7813 Q223.8438,210.5 224.4688,209.9219 L224.4688,212.6406 Z " fill="#000000"/><text fill="#000000" font-family="sans-serif" font-size="14" lengthAdjust="spacing" textLength="121" x="235.5" y="211.8467">LinearVelocityUnit</text></g><!--class AccelerationUnit--><g id="elem_AccelerationUnit"><rect codeLine="15" fill="#F1F1F1" height="32" id="AccelerationUnit" rx="2.5" ry="2.5" style="stroke:#181818;stroke-width:0.5;" width="144" x="395" y="191"/><ellipse cx="410" cy="207" fill="#ADD1B2" rx="11" ry="11" style="stroke:#181818;stroke-width:1.0;"/><path d="M412.9688,212.6406 Q412.3906,212.9375 411.75,213.0781 Q411.1094,213.2344 410.4063,213.2344 Q407.9063,213.2344 406.5781,211.5938 Q405.2656,209.9375 405.2656,206.8125 Q405.2656,203.6875 406.5781,202.0313 Q407.9063,200.375 410.4063,200.375 Q411.1094,200.375 411.75,200.5313 Q412.4063,200.6875 412.9688,200.9844 L412.9688,203.7031 Q412.3438,203.125 411.75,202.8594 Q411.1563,202.5781 410.5313,202.5781 Q409.1875,202.5781 408.5,203.6563 Q407.8125,204.7188 407.8125,206.8125 Q407.8125,208.9063 408.5,209.9844 Q409.1875,211.0469 410.5313,211.0469 Q411.1563,211.0469 411.75,210.7813 Q412.3438,210.5 412.9688,209.9219 L412.9688,212.6406 Z " fill="#000000"/><text fill="#000000" font-family="sans-serif" font-size="14" lengthAdjust="spacing" textLength="112" x="424" y="211.8467">AccelerationUnit</text></g><!--reverse link Unit to DerivedUnit--><g id="link_Unit_DerivedUnit"><path codeLine="8" d="M283,59.61 C283,73.31 283,88.22 283,98.96 " fill="none" id="Unit-backto-DerivedUnit" style="stroke:#181818;stroke-width:1.0;"/><polygon fill="none" points="276,59.27,283,39.27,290,59.27,276,59.27" style="stroke:#181818;stroke-width:1.0;"/></g><!--reverse link DerivedUnit to AngularVelocityUnit--><g id="link_DerivedUnit_AngularVelocityUnit"><path codeLine="11" d="M232.33,139.51 C197.34,155.74 151.83,176.85 121.58,190.89 " fill="none" id="DerivedUnit-backto-AngularVelocityUnit" style="stroke:#181818;stroke-width:1.0;"/><polygon fill="none" points="229.44,133.13,250.53,131.06,235.33,145.83,229.44,133.13" style="stroke:#181818;stroke-width:1.0;"/></g><!--reverse link DerivedUnit to LinearVelocityUnit--><g id="link_DerivedUnit_LinearVelocityUnit"><path codeLine="14" d="M283,151.61 C283,165.31 283,180.22 283,190.96 " fill="none" id="DerivedUnit-backto-LinearVelocityUnit" style="stroke:#181818;stroke-width:1.0;"/><polygon fill="none" points="276,151.27,283,131.27,290,151.27,276,151.27" style="stroke:#181818;stroke-width:1.0;"/></g><!--reverse link DerivedUnit to AccelerationUnit--><g id="link_DerivedUnit_AccelerationUnit"><path codeLine="17" d="M331.98,139.96 C365.04,156.13 407.68,176.98 436.1,190.89 " fill="none" id="DerivedUnit-backto-AccelerationUnit" style="stroke:#181818;stroke-width:1.0;"/><polygon fill="none" points="328.69,146.14,313.8,131.06,334.84,133.56,328.69,146.14" style="stroke:#181818;stroke-width:1.0;"/></g><!--SRC=[ZOux3i8m343tdYBgtXkmy1bPORSIqrfDdCfnaQh2tQa4WHPLWirwVdvoQeax40Xc1xQj9VRizj57CIh0QLeXQz6GGuEXqy44r2QwD4SNGZyHwo4bKnvGw8hknAIb6OjxvX_m6ZUtgbhgMTrotNkGC_feIOVPvIB-3Ap9ENGandyxA-xx7slHeu1Iv1_FV9iF]--></g></svg>