<?xml version="1.0" encoding="UTF-8" standalone="no"?><svg xmlns="http://www.w3.org/2000/svg" xmlns:xlink="http://www.w3.org/1999/xlink" contentScriptType="application/ecmascript" contentStyleType="text/css" height="237px" preserveAspectRatio="none" style="width:522px;height:237px;background:#00000000;" version="1.1" viewBox="0 0 522 237" width="522px" zoomAndPan="magnify"><defs><filter height="300%" id="f131rbi7o4xnqq" width="300%" x="-1" y="-1"><feGaussianBlur result="blurOut" stdDeviation="2.0"/><feColorMatrix in="blurOut" result="blurOut2" type="matrix" values="0 0 0 0 0 0 0 0 0 0 0 0 0 0 0 0 0 0 .4 0"/><feOffset dx="4.0" dy="4.0" in="blurOut2" result="blurOut3"/><feBlend in="SourceGraphic" in2="blurOut3" mode="normal"/></filter></defs><g><!--MD5=[a6134d6c7811d1be7cf9e5b9a22e1f63]
class DerivedUnit--><rect codeLine="4" fill="#FEFECE" filter="url(#f131rbi7o4xnqq)" height="32" id="DerivedUnit" style="stroke:#A80036;stroke-width:1.5;" width="104" x="214.5" y="99"/><ellipse cx="229.5" cy="115" fill="#ADD1B2" rx="11" ry="11" style="stroke:#A80036;stroke-width:1.0;"/><path d="M232.4688,120.6406 Q231.8906,120.9375 231.25,121.0781 Q230.6094,121.2344 229.9063,121.2344 Q227.4063,121.2344 226.0781,119.5938 Q224.7656,117.9375 224.7656,114.8125 Q224.7656,111.6875 226.0781,110.0313 Q227.4063,108.375 229.9063,108.375 Q230.6094,108.375 231.25,108.5313 Q231.9063,108.6875 232.4688,108.9844 L232.4688,111.7031 Q231.8438,111.125 231.25,110.8594 Q230.6563,110.5781 230.0313,110.5781 Q228.6875,110.5781 228,111.6563 Q227.3125,112.7188 227.3125,114.8125 Q227.3125,116.9063 228,117.9844 Q228.6875,119.0469 230.0313,119.0469 Q230.6563,119.0469 231.25,118.7813 Q231.8438,118.5 232.4688,117.9219 L232.4688,120.6406 Z " fill="#000000"/><text fill="#000000" font-family="sans-serif" font-size="12" lengthAdjust="spacing" textLength="72" x="243.5" y="119.1543">DerivedUnit</text><!--MD5=[63a373d2559db13dd8cc7d36e037ebb1]
class Unit--><rect codeLine="6" fill="#FEFECE" filter="url(#f131rbi7o4xnqq)" height="32" id="Unit" style="stroke:#A80036;stroke-width:1.5;" width="57" x="238" y="7"/><ellipse cx="253" cy="23" fill="#ADD1B2" rx="11" ry="11" style="stroke:#A80036;stroke-width:1.0;"/><path d="M255.9688,28.6406 Q255.3906,28.9375 254.75,29.0781 Q254.1094,29.2344 253.4063,29.2344 Q250.9063,29.2344 249.5781,27.5938 Q248.2656,25.9375 248.2656,22.8125 Q248.2656,19.6875 249.5781,18.0313 Q250.9063,16.375 253.4063,16.375 Q254.1094,16.375 254.75,16.5313 Q255.4063,16.6875 255.9688,16.9844 L255.9688,19.7031 Q255.3438,19.125 254.75,18.8594 Q254.1563,18.5781 253.5313,18.5781 Q252.1875,18.5781 251.5,19.6563 Q250.8125,20.7188 250.8125,22.8125 Q250.8125,24.9063 251.5,25.9844 Q252.1875,27.0469 253.5313,27.0469 Q254.1563,27.0469 254.75,26.7813 Q255.3438,26.5 255.9688,25.9219 L255.9688,28.6406 Z " fill="#000000"/><text fill="#000000" font-family="sans-serif" font-size="12" lengthAdjust="spacing" textLength="25" x="267" y="27.1543">Unit</text><!--MD5=[b56e2887e95e058cddfb9691386c3049]
class AngularVelocityUnit--><rect codeLine="9" fill="#FEFECE" filter="url(#f131rbi7o4xnqq)" height="32" id="AngularVelocityUnit" style="stroke:#A80036;stroke-width:1.5;" width="153" x="7" y="191"/><ellipse cx="22" cy="207" fill="#ADD1B2" rx="11" ry="11" style="stroke:#A80036;stroke-width:1.0;"/><path d="M24.9688,212.6406 Q24.3906,212.9375 23.75,213.0781 Q23.1094,213.2344 22.4063,213.2344 Q19.9063,213.2344 18.5781,211.5938 Q17.2656,209.9375 17.2656,206.8125 Q17.2656,203.6875 18.5781,202.0313 Q19.9063,200.375 22.4063,200.375 Q23.1094,200.375 23.75,200.5313 Q24.4063,200.6875 24.9688,200.9844 L24.9688,203.7031 Q24.3438,203.125 23.75,202.8594 Q23.1563,202.5781 22.5313,202.5781 Q21.1875,202.5781 20.5,203.6563 Q19.8125,204.7188 19.8125,206.8125 Q19.8125,208.9063 20.5,209.9844 Q21.1875,211.0469 22.5313,211.0469 Q23.1563,211.0469 23.75,210.7813 Q24.3438,210.5 24.9688,209.9219 L24.9688,212.6406 Z " fill="#000000"/><text fill="#000000" font-family="sans-serif" font-size="12" lengthAdjust="spacing" textLength="121" x="36" y="211.1543">AngularVelocityUnit</text><!--MD5=[b40efcfc98877d6073e3e433be7fb769]
class LinearVelocityUnit--><rect codeLine="12" fill="#FEFECE" filter="url(#f131rbi7o4xnqq)" height="32" id="LinearVelocityUnit" style="stroke:#A80036;stroke-width:1.5;" width="143" x="195" y="191"/><ellipse cx="210" cy="207" fill="#ADD1B2" rx="11" ry="11" style="stroke:#A80036;stroke-width:1.0;"/><path d="M212.9688,212.6406 Q212.3906,212.9375 211.75,213.0781 Q211.1094,213.2344 210.4063,213.2344 Q207.9063,213.2344 206.5781,211.5938 Q205.2656,209.9375 205.2656,206.8125 Q205.2656,203.6875 206.5781,202.0313 Q207.9063,200.375 210.4063,200.375 Q211.1094,200.375 211.75,200.5313 Q212.4063,200.6875 212.9688,200.9844 L212.9688,203.7031 Q212.3438,203.125 211.75,202.8594 Q211.1563,202.5781 210.5313,202.5781 Q209.1875,202.5781 208.5,203.6563 Q207.8125,204.7188 207.8125,206.8125 Q207.8125,208.9063 208.5,209.9844 Q209.1875,211.0469 210.5313,211.0469 Q211.1563,211.0469 211.75,210.7813 Q212.3438,210.5 212.9688,209.9219 L212.9688,212.6406 Z " fill="#000000"/><text fill="#000000" font-family="sans-serif" font-size="12" lengthAdjust="spacing" textLength="111" x="224" y="211.1543">LinearVelocityUnit</text><!--MD5=[107d1ec2bedc8e73dc6c808afbadb60a]
class AccelerationUnit--><rect codeLine="15" fill="#FEFECE" filter="url(#f131rbi7o4xnqq)" height="32" id="AccelerationUnit" style="stroke:#A80036;stroke-width:1.5;" width="135" x="373" y="191"/><ellipse cx="388" cy="207" fill="#ADD1B2" rx="11" ry="11" style="stroke:#A80036;stroke-width:1.0;"/><path d="M390.9688,212.6406 Q390.3906,212.9375 389.75,213.0781 Q389.1094,213.2344 388.4063,213.2344 Q385.9063,213.2344 384.5781,211.5938 Q383.2656,209.9375 383.2656,206.8125 Q383.2656,203.6875 384.5781,202.0313 Q385.9063,200.375 388.4063,200.375 Q389.1094,200.375 389.75,200.5313 Q390.4063,200.6875 390.9688,200.9844 L390.9688,203.7031 Q390.3438,203.125 389.75,202.8594 Q389.1563,202.5781 388.5313,202.5781 Q387.1875,202.5781 386.5,203.6563 Q385.8125,204.7188 385.8125,206.8125 Q385.8125,208.9063 386.5,209.9844 Q387.1875,211.0469 388.5313,211.0469 Q389.1563,211.0469 389.75,210.7813 Q390.3438,210.5 390.9688,209.9219 L390.9688,212.6406 Z " fill="#000000"/><text fill="#000000" font-family="sans-serif" font-size="12" lengthAdjust="spacing" textLength="103" x="402" y="211.1543">AccelerationUnit</text><!--MD5=[7d8b51b3e0e6b7a9007e79872f9f6dfc]
reverse link Unit to DerivedUnit--><path codeLine="8" d="M266.5,59.61 C266.5,73.31 266.5,88.22 266.5,98.96 " fill="none" id="Unit-backto-DerivedUnit" style="stroke:#A80036;stroke-width:1.0;"/><polygon fill="none" points="259.5,59.27,266.5,39.27,273.5,59.27,259.5,59.27" style="stroke:#A80036;stroke-width:1.0;"/><!--MD5=[7e7a5c5dd5551a846ec89795642a4f7d]
reverse link DerivedUnit to AngularVelocityUnit--><path codeLine="11" d="M217.79,139.96 C184.9,156.13 142.5,176.98 114.23,190.89 " fill="none" id="DerivedUnit-backto-AngularVelocityUnit" style="stroke:#A80036;stroke-width:1.0;"/><polygon fill="none" points="214.83,133.61,235.87,131.06,221.01,146.17,214.83,133.61" style="stroke:#A80036;stroke-width:1.0;"/><!--MD5=[59ed7b246c2ac880ff5c3a9b8ce3bb7d]
reverse link DerivedUnit to LinearVelocityUnit--><path codeLine="14" d="M266.5,151.61 C266.5,165.31 266.5,180.22 266.5,190.96 " fill="none" id="DerivedUnit-backto-LinearVelocityUnit" style="stroke:#A80036;stroke-width:1.0;"/><polygon fill="none" points="259.5,151.27,266.5,131.27,273.5,151.27,259.5,151.27" style="stroke:#A80036;stroke-width:1.0;"/><!--MD5=[3e65fefbab11d604ddfbdaf5ba7caa43]
reverse link DerivedUnit to AccelerationUnit--><path codeLine="17" d="M313.7,140.41 C344.84,156.52 384.65,177.11 411.28,190.89 " fill="none" id="DerivedUnit-backto-AccelerationUnit" style="stroke:#A80036;stroke-width:1.0;"/><polygon fill="none" points="310.17,146.47,295.62,131.06,316.6,134.03,310.17,146.47" style="stroke:#A80036;stroke-width:1.0;"/><!--MD5=[64d4ec86b2c66e37e70d965d045c77d7]
@startuml
skinparam BackgroundColor transparent
hide empty methods
hide empty fields
class "DerivedUnit" {
}
class "Unit" {
}
"Unit" <|- - "DerivedUnit"
class "AngularVelocityUnit" {
}
"DerivedUnit" <|- - "AngularVelocityUnit"
class "LinearVelocityUnit" {
}
"DerivedUnit" <|- - "LinearVelocityUnit"
class "AccelerationUnit" {
}
"DerivedUnit" <|- - "AccelerationUnit"
@enduml

PlantUML version 1.2021.14(Fri Nov 12 16:46:50 UTC 2021)
(GPL source distribution)
Java Runtime: OpenJDK Runtime Environment
JVM: OpenJDK 64-Bit Server VM
Default Encoding: UTF-8
Language: en
Country: null
--></g></svg>