<?xml version="1.0" encoding="UTF-8" standalone="no"?><svg xmlns="http://www.w3.org/2000/svg" xmlns:xlink="http://www.w3.org/1999/xlink" contentScriptType="application/ecmascript" contentStyleType="text/css" height="345px" preserveAspectRatio="none" style="width:1170px;height:345px;background:#00000000;" version="1.1" viewBox="0 0 1170 345" width="1170px" zoomAndPan="magnify"><defs><filter height="300%" id="fj2nbpj2ahali" width="300%" x="-1" y="-1"><feGaussianBlur result="blurOut" stdDeviation="2.0"/><feColorMatrix in="blurOut" result="blurOut2" type="matrix" values="0 0 0 0 0 0 0 0 0 0 0 0 0 0 0 0 0 0 .4 0"/><feOffset dx="4.0" dy="4.0" in="blurOut2" result="blurOut3"/><feBlend in="SourceGraphic" in2="blurOut3" mode="normal"/></filter></defs><g><!--MD5=[2e3e9d812ecad44a698ffbd8b3f5e9db]
class Deserializer--><rect codeLine="4" fill="#FEFECE" filter="url(#fj2nbpj2ahali)" height="240.0703" id="Deserializer" style="stroke:#A80036;stroke-width:1.5;" width="1147" x="9" y="91"/><ellipse cx="542.25" cy="107" fill="#ADD1B2" rx="11" ry="11" style="stroke:#A80036;stroke-width:1.0;"/><path d="M545.2188,112.6406 Q544.6406,112.9375 544,113.0781 Q543.3594,113.2344 542.6563,113.2344 Q540.1563,113.2344 538.8281,111.5938 Q537.5156,109.9375 537.5156,106.8125 Q537.5156,103.6875 538.8281,102.0313 Q540.1563,100.375 542.6563,100.375 Q543.3594,100.375 544,100.5313 Q544.6563,100.6875 545.2188,100.9844 L545.2188,103.7031 Q544.5938,103.125 544,102.8594 Q543.4063,102.5781 542.7813,102.5781 Q541.4375,102.5781 540.75,103.6563 Q540.0625,104.7188 540.0625,106.8125 Q540.0625,108.9063 540.75,109.9844 Q541.4375,111.0469 542.7813,111.0469 Q543.4063,111.0469 544,110.7813 Q544.5938,110.5 545.2188,109.9219 L545.2188,112.6406 Z " fill="#000000"/><text fill="#000000" font-family="sans-serif" font-size="12" lengthAdjust="spacing" textLength="72" x="562.75" y="111.1543">Deserializer</text><line style="stroke:#A80036;stroke-width:1.5;" x1="10" x2="1155" y1="123" y2="123"/><ellipse cx="20" cy="134" rx="3" ry="3" style="stroke:#038048;stroke-width:1.0;fill:none;"/><text fill="#000000" font-family="sans-serif" font-size="11" lengthAdjust="spacing" textLength="189" x="29" y="137.2104">createKnownTypesMap : Function</text><ellipse cx="20" cy="146.8047" rx="3" ry="3" style="stroke:#038048;stroke-width:1.0;fill:none;"/><text fill="#000000" font-family="sans-serif" font-size="11" lengthAdjust="spacing" textLength="150" x="29" y="150.0151">getErrorHandler : Function</text><ellipse cx="20" cy="159.6094" rx="3" ry="3" style="stroke:#038048;stroke-width:1.0;fill:none;"/><text fill="#000000" font-family="sans-serif" font-size="11" lengthAdjust="spacing" textLength="153" x="29" y="162.8198">getTypeResolver : Function</text><ellipse cx="20" cy="172.4141" rx="3" ry="3" style="stroke:#038048;stroke-width:1.0;fill:none;"/><text fill="#000000" font-family="sans-serif" font-size="11" lengthAdjust="spacing" textLength="146" x="29" y="175.6245">instantiateType : Function</text><ellipse cx="20" cy="185.2188" rx="3" ry="3" style="stroke:#038048;stroke-width:1.0;fill:none;"/><text fill="#000000" font-family="sans-serif" font-size="11" lengthAdjust="spacing" textLength="167" x="29" y="188.4292">mergeKnownTypes : Function</text><ellipse cx="20" cy="198.0234" rx="3" ry="3" style="stroke:#038048;stroke-width:1.0;fill:none;"/><text fill="#000000" font-family="sans-serif" font-size="11" lengthAdjust="spacing" textLength="175" x="29" y="201.2339">retrievePreserveNull : Function</text><ellipse cx="20" cy="210.8281" rx="3" ry="3" style="stroke:#038048;stroke-width:1.0;fill:none;"/><text fill="#000000" font-family="sans-serif" font-size="11" lengthAdjust="spacing" textLength="208" x="29" y="214.0386">setDeserializationStrategy : Function</text><ellipse cx="20" cy="223.6328" rx="3" ry="3" style="stroke:#038048;stroke-width:1.0;fill:none;"/><text fill="#000000" font-family="sans-serif" font-size="11" lengthAdjust="spacing" textLength="150" x="29" y="226.8433">setErrorHandler : Function</text><ellipse cx="20" cy="236.4375" rx="3" ry="3" style="stroke:#038048;stroke-width:1.0;fill:none;"/><text fill="#000000" font-family="sans-serif" font-size="11" lengthAdjust="spacing" textLength="159" x="29" y="239.6479">setNameResolver : Function</text><ellipse cx="20" cy="249.2422" rx="3" ry="3" style="stroke:#038048;stroke-width:1.0;fill:none;"/><text fill="#000000" font-family="sans-serif" font-size="11" lengthAdjust="spacing" textLength="153" x="29" y="252.4526">setTypeResolver : Function</text><polygon fill="none" points="20,257.0469,24,261.0469,20,265.0469,16,261.0469" style="stroke:#B38D22;stroke-width:1.0;"/><text fill="#000000" font-family="sans-serif" font-size="11" lengthAdjust="spacing" textLength="534" x="29" y="265.2573">deserializationStrategy : Map&lt;Serializable&lt;any&gt;, DeserializerFn&lt;any, TypeDescriptor, any&gt;&gt;</text><polygon fill="none" points="20,269.8516,24,273.8516,20,277.8516,16,273.8516" style="stroke:#B38D22;stroke-width:1.0;"/><text fill="#000000" font-family="sans-serif" font-size="11" lengthAdjust="spacing" textLength="132" x="29" y="278.062">errorHandler : Function</text><polygon fill="none" points="20,282.6563,24,286.6563,20,290.6563,16,286.6563" style="stroke:#B38D22;stroke-width:1.0;"/><text fill="#000000" font-family="sans-serif" font-size="11" lengthAdjust="spacing" textLength="140" x="29" y="290.8667">nameResolver : Function</text><line style="stroke:#A80036;stroke-width:1.5;" x1="10" x2="1155" y1="297.4609" y2="297.4609"/><ellipse cx="20" cy="308.4609" fill="#84BE84" rx="3" ry="3" style="stroke:#038048;stroke-width:1.0;"/><text fill="#000000" font-family="sans-serif" font-size="11" lengthAdjust="spacing" textLength="1121" x="29" y="311.6714">convertSingleValue(sourceObject: any, typeDescriptor: TypeDescriptor, knownTypes: Map&lt;string, Serializable&lt;any&gt;&gt;, memberName: string, memberOptions: ObjectMemberMetadata, _: any) : any</text><polygon fill="#FFFF44" points="20,316.2656,24,320.2656,20,324.2656,16,320.2656" style="stroke:#B38D22;stroke-width:1.0;"/><text fill="#000000" font-family="sans-serif" font-size="11" lengthAdjust="spacing" textLength="689" x="29" y="324.4761">typeResolver(sourceObject: IndexedObject, knownTypes: Map&lt;string, Serializable&lt;any&gt;&gt;) : Function | ObjectConstructor</text><!--MD5=[b686c8024f66d07b04e17e899087e6a0]
class unknown--><rect codeLine="21" fill="#FEFECE" filter="url(#fj2nbpj2ahali)" height="23.9688" id="unknown" style="stroke:#A80036;stroke-width:1.5;" width="62" x="551.5" y="7"/><text fill="#000000" font-family="sans-serif" font-size="12" lengthAdjust="spacing" textLength="56" x="554.5" y="23.1387">unknown</text><!--MD5=[a2e4b7ecdd6c706dbb0ffda15414568c]
reverse link unknown to Deserializer--><path codeLine="23" d="M582.5,51.33 C582.5,62.76 582.5,76.47 582.5,90.97 " fill="none" id="unknown-backto-Deserializer" style="stroke:#A80036;stroke-width:1.0;"/><polygon fill="none" points="575.5,51.04,582.5,31.04,589.5,51.04,575.5,51.04" style="stroke:#A80036;stroke-width:1.0;"/><!--MD5=[0e54b8a24c0d82f35fe98db559482159]
@startuml
skinparam BackgroundColor transparent
hide empty methods
hide empty fields
class "Deserializer" {
    +createKnownTypesMap : Function
    +getErrorHandler : Function
    +getTypeResolver : Function
    +instantiateType : Function
    +mergeKnownTypes : Function
    +retrievePreserveNull : Function
    +setDeserializationStrategy : Function
    +setErrorHandler : Function
    +setNameResolver : Function
    +setTypeResolver : Function
    #deserializationStrategy : Map<Serializable<any>, DeserializerFn<any, TypeDescriptor, any>>
    #errorHandler : Function
    #nameResolver : Function
    +convertSingleValue(sourceObject: any, typeDescriptor: TypeDescriptor, knownTypes: Map<string, Serializable<any>>, memberName: string, memberOptions: ObjectMemberMetadata, _: any) : any
    #typeResolver(sourceObject: IndexedObject, knownTypes: Map<string, Serializable<any>>) : Function | ObjectConstructor
}
class "unknown"
hide "unknown" circle
"unknown" <|- - "Deserializer"
@enduml

PlantUML version 1.2021.14(Fri Nov 12 16:46:50 UTC 2021)
(GPL source distribution)
Java Runtime: OpenJDK Runtime Environment
JVM: OpenJDK 64-Bit Server VM
Default Encoding: UTF-8
Language: en
Country: null
--></g></svg>