<?xml version="1.0" encoding="us-ascii" standalone="no"?><svg xmlns="http://www.w3.org/2000/svg" xmlns:xlink="http://www.w3.org/1999/xlink" contentStyleType="text/css" height="138px" preserveAspectRatio="none" style="width:149px;height:138px;" version="1.1" viewBox="0 0 149 138" width="149px" zoomAndPan="magnify"><defs/><g><!--class DummyService--><g id="elem_DummyService"><rect codeLine="4" fill="#F1F1F1" height="32" id="DummyService" rx="2.5" ry="2.5" style="stroke:#181818;stroke-width:0.5;" width="135" x="7" y="99"/><ellipse cx="22" cy="115" fill="#ADD1B2" rx="11" ry="11" style="stroke:#181818;stroke-width:1.0;"/><path d="M24.9688,120.6406 Q24.3906,120.9375 23.75,121.0781 Q23.1094,121.2344 22.4063,121.2344 Q19.9063,121.2344 18.5781,119.5938 Q17.2656,117.9375 17.2656,114.8125 Q17.2656,111.6875 18.5781,110.0313 Q19.9063,108.375 22.4063,108.375 Q23.1094,108.375 23.75,108.5313 Q24.4063,108.6875 24.9688,108.9844 L24.9688,111.7031 Q24.3438,111.125 23.75,110.8594 Q23.1563,110.5781 22.5313,110.5781 Q21.1875,110.5781 20.5,111.6563 Q19.8125,112.7188 19.8125,114.8125 Q19.8125,116.9063 20.5,117.9844 Q21.1875,119.0469 22.5313,119.0469 Q23.1563,119.0469 23.75,118.7813 Q24.3438,118.5 24.9688,117.9219 L24.9688,120.6406 Z " fill="#000000"/><text fill="#000000" font-family="sans-serif" font-size="14" lengthAdjust="spacing" textLength="103" x="36" y="119.8467">DummyService</text></g><!--class Service--><g id="elem_Service"><rect codeLine="6" fill="#F1F1F1" height="32" id="Service" rx="2.5" ry="2.5" style="stroke:#181818;stroke-width:0.5;" width="83" x="33" y="7"/><ellipse cx="48" cy="23" fill="#A9DCDF" rx="11" ry="11" style="stroke:#181818;stroke-width:1.0;"/><path d="M48.1094,18.3438 L46.9531,23.4219 L49.2813,23.4219 L48.1094,18.3438 Z M46.625,16.1094 L49.6094,16.1094 L52.9688,28.5 L50.5156,28.5 L49.75,25.4375 L46.4688,25.4375 L45.7188,28.5 L43.2813,28.5 L46.625,16.1094 Z " fill="#000000"/><text fill="#000000" font-family="sans-serif" font-size="14" font-style="italic" lengthAdjust="spacing" textLength="51" x="62" y="27.8467">Service</text></g><!--reverse link Service to DummyService--><g id="link_Service_DummyService"><path codeLine="8" d="M74.5,59.61 C74.5,73.31 74.5,88.22 74.5,98.96 " fill="none" id="Service-backto-DummyService" style="stroke:#181818;stroke-width:1.0;"/><polygon fill="none" points="67.5,59.27,74.5,39.27,81.5,59.27,67.5,59.27" style="stroke:#181818;stroke-width:1.0;"/></g><!--SRC=[NOn13eCm30JlUON5dHzmWlw05xY9AH5nWcnJ2HN-tXmgjVIuCxkhIymh2ZBqw9U7b2s7eQGYO89Pgw9iRew1W7Yr7PXiBa5_qHGfLU8Jga9psvZtaUGPFJNmSgV3kzOpR_1fNEGtTKVR_itV]--></g></svg>