<?xml version="1.0" encoding="UTF-8" standalone="no"?><svg xmlns="http://www.w3.org/2000/svg" xmlns:xlink="http://www.w3.org/1999/xlink" contentScriptType="application/ecmascript" contentStyleType="text/css" height="145px" preserveAspectRatio="none" style="width:143px;height:145px;background:#00000000;" version="1.1" viewBox="0 0 143 145" width="143px" zoomAndPan="magnify"><defs><filter height="300%" id="ffflo8nwa6w0o" width="300%" x="-1" y="-1"><feGaussianBlur result="blurOut" stdDeviation="2.0"/><feColorMatrix in="blurOut" result="blurOut2" type="matrix" values="0 0 0 0 0 0 0 0 0 0 0 0 0 0 0 0 0 0 .4 0"/><feOffset dx="4.0" dy="4.0" in="blurOut2" result="blurOut3"/><feBlend in="SourceGraphic" in2="blurOut3" mode="normal"/></filter></defs><g><!--MD5=[20710f8634a6db84787011afa6dad98a]
class DummyService--><rect codeLine="4" fill="#FEFECE" filter="url(#ffflo8nwa6w0o)" height="32" id="DummyService" style="stroke:#A80036;stroke-width:1.5;" width="122" x="7" y="99"/><ellipse cx="22" cy="115" fill="#ADD1B2" rx="11" ry="11" style="stroke:#A80036;stroke-width:1.0;"/><path d="M24.9688,120.6406 Q24.3906,120.9375 23.75,121.0781 Q23.1094,121.2344 22.4063,121.2344 Q19.9063,121.2344 18.5781,119.5938 Q17.2656,117.9375 17.2656,114.8125 Q17.2656,111.6875 18.5781,110.0313 Q19.9063,108.375 22.4063,108.375 Q23.1094,108.375 23.75,108.5313 Q24.4063,108.6875 24.9688,108.9844 L24.9688,111.7031 Q24.3438,111.125 23.75,110.8594 Q23.1563,110.5781 22.5313,110.5781 Q21.1875,110.5781 20.5,111.6563 Q19.8125,112.7188 19.8125,114.8125 Q19.8125,116.9063 20.5,117.9844 Q21.1875,119.0469 22.5313,119.0469 Q23.1563,119.0469 23.75,118.7813 Q24.3438,118.5 24.9688,117.9219 L24.9688,120.6406 Z " fill="#000000"/><text fill="#000000" font-family="sans-serif" font-size="12" lengthAdjust="spacing" textLength="90" x="36" y="119.1543">DummyService</text><!--MD5=[dbb8b4f13c7b21394f9d757e58732f45]
class Service--><rect codeLine="6" fill="#FEFECE" filter="url(#ffflo8nwa6w0o)" height="32" id="Service" style="stroke:#A80036;stroke-width:1.5;" width="77" x="29.5" y="7"/><ellipse cx="44.5" cy="23" fill="#A9DCDF" rx="11" ry="11" style="stroke:#A80036;stroke-width:1.0;"/><path d="M44.6094,18.3438 L43.4531,23.4219 L45.7813,23.4219 L44.6094,18.3438 Z M43.125,16.1094 L46.1094,16.1094 L49.4688,28.5 L47.0156,28.5 L46.25,25.4375 L42.9688,25.4375 L42.2188,28.5 L39.7813,28.5 L43.125,16.1094 Z " fill="#000000"/><text fill="#000000" font-family="sans-serif" font-size="12" font-style="italic" lengthAdjust="spacing" textLength="45" x="58.5" y="27.1543">Service</text><!--MD5=[c7731a9f0795bda8d0a53a7cac2d2157]
reverse link Service to DummyService--><path codeLine="8" d="M68,59.61 C68,73.31 68,88.22 68,98.96 " fill="none" id="Service-backto-DummyService" style="stroke:#A80036;stroke-width:1.0;"/><polygon fill="none" points="61,59.27,68,39.27,75,59.27,61,59.27" style="stroke:#A80036;stroke-width:1.0;"/><!--MD5=[c61fe16791fe8a016e3f3cf651fba571]
@startuml
skinparam BackgroundColor transparent
hide empty methods
hide empty fields
class "DummyService" {
}
abstract class "Service" {
}
"Service" <|- - "DummyService"
@enduml

PlantUML version 1.2021.14(Fri Nov 12 16:46:50 UTC 2021)
(GPL source distribution)
Java Runtime: OpenJDK Runtime Environment
JVM: OpenJDK 64-Bit Server VM
Default Encoding: UTF-8
Language: en
Country: null
--></g></svg>