<?xml version="1.0" encoding="us-ascii" standalone="no"?><svg xmlns="http://www.w3.org/2000/svg" xmlns:xlink="http://www.w3.org/1999/xlink" contentStyleType="text/css" height="138px" preserveAspectRatio="none" style="width:438px;height:138px;" version="1.1" viewBox="0 0 438 138" width="438px" zoomAndPan="magnify"><defs/><g><!--class Edge<InOut>--><g id="elem_Edge&lt;InOut&gt;"><rect codeLine="4" fill="#F1F1F1" height="32" id="Edge&lt;InOut&gt;" rx="2.5" ry="2.5" style="stroke:#181818;stroke-width:0.5;" width="129" x="133.5" y="99"/><ellipse cx="148.5" cy="115" fill="#ADD1B2" rx="11" ry="11" style="stroke:#181818;stroke-width:1.0;"/><path d="M151.4688,120.6406 Q150.8906,120.9375 150.25,121.0781 Q149.6094,121.2344 148.9063,121.2344 Q146.4063,121.2344 145.0781,119.5938 Q143.7656,117.9375 143.7656,114.8125 Q143.7656,111.6875 145.0781,110.0313 Q146.4063,108.375 148.9063,108.375 Q149.6094,108.375 150.25,108.5313 Q150.9063,108.6875 151.4688,108.9844 L151.4688,111.7031 Q150.8438,111.125 150.25,110.8594 Q149.6563,110.5781 149.0313,110.5781 Q147.6875,110.5781 147,111.6563 Q146.3125,112.7188 146.3125,114.8125 Q146.3125,116.9063 147,117.9844 Q147.6875,119.0469 149.0313,119.0469 Q149.6563,119.0469 150.25,118.7813 Q150.8438,118.5 151.4688,117.9219 L151.4688,120.6406 Z " fill="#000000"/><text fill="#000000" font-family="sans-serif" font-size="14" lengthAdjust="spacing" textLength="97" x="162.5" y="119.8467">Edge&lt;InOut&gt;</text></g><!--class EventEmitter--><g id="elem_EventEmitter"><rect codeLine="6" fill="#F1F1F1" height="26.2969" id="EventEmitter" rx="2.5" ry="2.5" style="stroke:#181818;stroke-width:0.5;" width="94" x="7" y="10"/><text fill="#000000" font-family="sans-serif" font-size="14" lengthAdjust="spacing" textLength="88" x="10" y="27.9951">EventEmitter</text></g><!--class Inlet<InOut>--><g id="elem_Inlet&lt;InOut&gt;"><rect codeLine="9" fill="#F1F1F1" height="32" id="Inlet&lt;InOut&gt;" rx="2.5" ry="2.5" style="stroke:#181818;stroke-width:0.5;" width="124" x="136" y="7"/><ellipse cx="151" cy="23" fill="#B4A7E5" rx="11" ry="11" style="stroke:#181818;stroke-width:1.0;"/><path d="M146.9219,18.7656 L146.9219,16.6094 L154.3125,16.6094 L154.3125,18.7656 L151.8438,18.7656 L151.8438,26.8438 L154.3125,26.8438 L154.3125,29 L146.9219,29 L146.9219,26.8438 L149.3906,26.8438 L149.3906,18.7656 L146.9219,18.7656 Z " fill="#000000"/><text fill="#000000" font-family="sans-serif" font-size="14" font-style="italic" lengthAdjust="spacing" textLength="92" x="165" y="27.8467">Inlet&lt;InOut&gt;</text></g><!--class Outlet<InOut>--><g id="elem_Outlet&lt;InOut&gt;"><rect codeLine="12" fill="#F1F1F1" height="32" id="Outlet&lt;InOut&gt;" rx="2.5" ry="2.5" style="stroke:#181818;stroke-width:0.5;" width="136" x="295" y="7"/><ellipse cx="310" cy="23" fill="#B4A7E5" rx="11" ry="11" style="stroke:#181818;stroke-width:1.0;"/><path d="M305.9219,18.7656 L305.9219,16.6094 L313.3125,16.6094 L313.3125,18.7656 L310.8438,18.7656 L310.8438,26.8438 L313.3125,26.8438 L313.3125,29 L305.9219,29 L305.9219,26.8438 L308.3906,26.8438 L308.3906,18.7656 L305.9219,18.7656 Z " fill="#000000"/><text fill="#000000" font-family="sans-serif" font-size="14" font-style="italic" lengthAdjust="spacing" textLength="104" x="324" y="27.8467">Outlet&lt;InOut&gt;</text></g><!--reverse link EventEmitter to Edge<InOut>--><g id="link_EventEmitter_Edge&lt;InOut&gt;"><path codeLine="8" d="M90.64,46.9 C116.65,63.16 150.87,84.54 173.61,98.75 " fill="none" id="EventEmitter-backto-Edge&lt;InOut&gt;" style="stroke:#181818;stroke-width:1.0;"/><polygon fill="none" points="86.67,52.67,73.42,36.14,94.09,40.8,86.67,52.67" style="stroke:#181818;stroke-width:1.0;"/></g><!--reverse link Inlet<InOut> to Edge<InOut>--><g id="link_Inlet&lt;InOut&gt;_Edge&lt;InOut&gt;"><path codeLine="11" d="M198,59.61 C198,73.31 198,88.22 198,98.96 " fill="none" id="Inlet&lt;InOut&gt;-backto-Edge&lt;InOut&gt;" style="stroke:#181818;stroke-width:1.0;stroke-dasharray:7.0,7.0;"/><polygon fill="none" points="191,59.27,198,39.27,205,59.27,191,59.27" style="stroke:#181818;stroke-width:1.0;"/></g><!--reverse link Outlet<InOut> to Edge<InOut>--><g id="link_Outlet&lt;InOut&gt;_Edge&lt;InOut&gt;"><path codeLine="14" d="M317.41,48.87 C288,64.91 250.72,85.24 225.71,98.89 " fill="none" id="Outlet&lt;InOut&gt;-backto-Edge&lt;InOut&gt;" style="stroke:#181818;stroke-width:1.0;stroke-dasharray:7.0,7.0;"/><polygon fill="none" points="314.47,42.5,335.38,39.06,321.18,54.79,314.47,42.5" style="stroke:#181818;stroke-width:1.0;"/></g><!--SRC=[TSr12iCW48NXlQSOiazE85sqP95Lpo0wIIGw1fqKGjExLoYKQkZs6zu_QR6qggWyN9LUfXWsChVWGWIEYb8-8R6OhK50l_8E7daE9ltIQD5bqKwb14rl9fG3tJU-DF0Khwy_SgdtbXbZyvcN1jf6xL1KAe-sBQl2KhwCIkV2G0wvU5UHFBhk_pp3QL_PEV06]--></g></svg>