<?xml version="1.0" encoding="UTF-8" standalone="no"?><svg xmlns="http://www.w3.org/2000/svg" xmlns:xlink="http://www.w3.org/1999/xlink" contentScriptType="application/ecmascript" contentStyleType="text/css" height="145px" preserveAspectRatio="none" style="width:413px;height:145px;background:#00000000;" version="1.1" viewBox="0 0 413 145" width="413px" zoomAndPan="magnify"><defs><filter height="300%" id="f10uco4t8i9dgm" width="300%" x="-1" y="-1"><feGaussianBlur result="blurOut" stdDeviation="2.0"/><feColorMatrix in="blurOut" result="blurOut2" type="matrix" values="0 0 0 0 0 0 0 0 0 0 0 0 0 0 0 0 0 0 .4 0"/><feOffset dx="4.0" dy="4.0" in="blurOut2" result="blurOut3"/><feBlend in="SourceGraphic" in2="blurOut3" mode="normal"/></filter></defs><g><!--MD5=[1c41f27d2036472a314a798b2ee18c6a]
class Edge<InOut>--><rect codeLine="4" fill="#FEFECE" filter="url(#f10uco4t8i9dgm)" height="32" id="Edge&lt;InOut&gt;" style="stroke:#A80036;stroke-width:1.5;" width="117" x="126.5" y="99"/><ellipse cx="141.5" cy="115" fill="#ADD1B2" rx="11" ry="11" style="stroke:#A80036;stroke-width:1.0;"/><path d="M144.4688,120.6406 Q143.8906,120.9375 143.25,121.0781 Q142.6094,121.2344 141.9063,121.2344 Q139.4063,121.2344 138.0781,119.5938 Q136.7656,117.9375 136.7656,114.8125 Q136.7656,111.6875 138.0781,110.0313 Q139.4063,108.375 141.9063,108.375 Q142.6094,108.375 143.25,108.5313 Q143.9063,108.6875 144.4688,108.9844 L144.4688,111.7031 Q143.8438,111.125 143.25,110.8594 Q142.6563,110.5781 142.0313,110.5781 Q140.6875,110.5781 140,111.6563 Q139.3125,112.7188 139.3125,114.8125 Q139.3125,116.9063 140,117.9844 Q140.6875,119.0469 142.0313,119.0469 Q142.6563,119.0469 143.25,118.7813 Q143.8438,118.5 144.4688,117.9219 L144.4688,120.6406 Z " fill="#000000"/><text fill="#000000" font-family="sans-serif" font-size="12" lengthAdjust="spacing" textLength="85" x="155.5" y="119.1543">Edge&lt;InOut&gt;</text><!--MD5=[f00238d7d3b345818710a28959a0e6a6]
class EventEmitter--><rect codeLine="6" fill="#FEFECE" filter="url(#f10uco4t8i9dgm)" height="23.9688" id="EventEmitter" style="stroke:#A80036;stroke-width:1.5;" width="86" x="7" y="11"/><text fill="#000000" font-family="sans-serif" font-size="12" lengthAdjust="spacing" textLength="80" x="10" y="27.1387">EventEmitter</text><!--MD5=[8eaa99470a42ced68d6a3595dbcaacf2]
class Inlet<InOut>--><rect codeLine="9" fill="#FEFECE" filter="url(#f10uco4t8i9dgm)" height="32" id="Inlet&lt;InOut&gt;" style="stroke:#A80036;stroke-width:1.5;" width="113" x="128.5" y="7"/><ellipse cx="143.5" cy="23" fill="#B4A7E5" rx="11" ry="11" style="stroke:#A80036;stroke-width:1.0;"/><path d="M139.4219,18.7656 L139.4219,16.6094 L146.8125,16.6094 L146.8125,18.7656 L144.3438,18.7656 L144.3438,26.8438 L146.8125,26.8438 L146.8125,29 L139.4219,29 L139.4219,26.8438 L141.8906,26.8438 L141.8906,18.7656 L139.4219,18.7656 Z " fill="#000000"/><text fill="#000000" font-family="sans-serif" font-size="12" font-style="italic" lengthAdjust="spacing" textLength="81" x="157.5" y="27.1543">Inlet&lt;InOut&gt;</text><!--MD5=[bbfec488a2279765d2142c2b79e60d6d]
class Outlet<InOut>--><rect codeLine="12" fill="#FEFECE" filter="url(#f10uco4t8i9dgm)" height="32" id="Outlet&lt;InOut&gt;" style="stroke:#A80036;stroke-width:1.5;" width="122" x="277" y="7"/><ellipse cx="292" cy="23" fill="#B4A7E5" rx="11" ry="11" style="stroke:#A80036;stroke-width:1.0;"/><path d="M287.9219,18.7656 L287.9219,16.6094 L295.3125,16.6094 L295.3125,18.7656 L292.8438,18.7656 L292.8438,26.8438 L295.3125,26.8438 L295.3125,29 L287.9219,29 L287.9219,26.8438 L290.3906,26.8438 L290.3906,18.7656 L287.9219,18.7656 Z " fill="#000000"/><text fill="#000000" font-family="sans-serif" font-size="12" font-style="italic" lengthAdjust="spacing" textLength="90" x="306" y="27.1543">Outlet&lt;InOut&gt;</text><!--MD5=[1dd830524a03228c4d23e879edb2fa2f]
reverse link EventEmitter to Edge<InOut>--><path codeLine="8" d="M83.47,46.31 C108.09,62.72 140.89,84.59 162.46,98.97 " fill="none" id="EventEmitter-backto-Edge&lt;InOut&gt;" style="stroke:#A80036;stroke-width:1.0;"/><polygon fill="none" points="79.31,51.95,66.55,35.04,87.08,40.31,79.31,51.95" style="stroke:#A80036;stroke-width:1.0;"/><!--MD5=[53fb1dab818aed7d476cf8fd0658dedf]
reverse link Inlet<InOut> to Edge<InOut>--><path codeLine="11" d="M185,59.61 C185,73.31 185,88.22 185,98.96 " fill="none" id="Inlet&lt;InOut&gt;-backto-Edge&lt;InOut&gt;" style="stroke:#A80036;stroke-width:1.0;stroke-dasharray:7.0,7.0;"/><polygon fill="none" points="178,59.27,185,39.27,192,59.27,178,59.27" style="stroke:#A80036;stroke-width:1.0;"/><!--MD5=[49ccefbe8f751e8ad80ba0c427b59a72]
reverse link Outlet<InOut> to Edge<InOut>--><path codeLine="14" d="M294.94,49.33 C267.8,65.29 233.67,85.37 210.69,98.89 " fill="none" id="Outlet&lt;InOut&gt;-backto-Edge&lt;InOut&gt;" style="stroke:#A80036;stroke-width:1.0;stroke-dasharray:7.0,7.0;"/><polygon fill="none" points="291.6,43.17,312.39,39.06,298.7,55.24,291.6,43.17" style="stroke:#A80036;stroke-width:1.0;"/><!--MD5=[495eca0a3cf7912696493e97500928f5]
@startuml
skinparam BackgroundColor transparent
hide empty methods
hide empty fields
class "Edge<InOut>" {
}
class "EventEmitter"
hide "EventEmitter" circle
"EventEmitter" <|- - "Edge<InOut>"
interface "Inlet<InOut>" {
}
"Inlet<InOut>" <|.. "Edge<InOut>"
interface "Outlet<InOut>" {
}
"Outlet<InOut>" <|.. "Edge<InOut>"
@enduml

PlantUML version 1.2021.14(Fri Nov 12 16:46:50 UTC 2021)
(GPL source distribution)
Java Runtime: OpenJDK Runtime Environment
JVM: OpenJDK 64-Bit Server VM
Default Encoding: UTF-8
Language: en
Country: null
--></g></svg>