<?xml version="1.0" encoding="UTF-8" standalone="no"?><svg xmlns="http://www.w3.org/2000/svg" xmlns:xlink="http://www.w3.org/1999/xlink" contentScriptType="application/ecmascript" contentStyleType="text/css" height="276px" preserveAspectRatio="none" style="width:196px;height:276px;background:#00000000;" version="1.1" viewBox="0 0 196 276" width="196px" zoomAndPan="magnify"><defs><filter height="300%" id="f1j0cet9bbhqmp" width="300%" x="-1" y="-1"><feGaussianBlur result="blurOut" stdDeviation="2.0"/><feColorMatrix in="blurOut" result="blurOut2" type="matrix" values="0 0 0 0 0 0 0 0 0 0 0 0 0 0 0 0 0 0 .4 0"/><feOffset dx="4.0" dy="4.0" in="blurOut2" result="blurOut3"/><feBlend in="SourceGraphic" in2="blurOut3" mode="normal"/></filter></defs><g><!--MD5=[8726a706c9d59f336c83f8bb267871ac]
class EMAFilterOptions--><rect codeLine="4" fill="#FEFECE" filter="url(#f1j0cet9bbhqmp)" height="104.0234" id="EMAFilterOptions" style="stroke:#A80036;stroke-width:1.5;" width="147" x="21" y="158"/><ellipse cx="41.4" cy="174" fill="#B4A7E5" rx="11" ry="11" style="stroke:#A80036;stroke-width:1.0;"/><path d="M37.3219,169.7656 L37.3219,167.6094 L44.7125,167.6094 L44.7125,169.7656 L42.2438,169.7656 L42.2438,177.8438 L44.7125,177.8438 L44.7125,180 L37.3219,180 L37.3219,177.8438 L39.7906,177.8438 L39.7906,169.7656 L37.3219,169.7656 Z " fill="#000000"/><text fill="#000000" font-family="sans-serif" font-size="12" font-style="italic" lengthAdjust="spacing" textLength="103" x="56.6" y="178.1543">EMAFilterOptions</text><line style="stroke:#A80036;stroke-width:1.5;" x1="22" x2="167" y1="190" y2="190"/><ellipse cx="32" cy="201" rx="3" ry="3" style="stroke:#038048;stroke-width:1.0;fill:none;"/><text fill="#000000" font-family="sans-serif" font-size="11" lengthAdjust="spacing" textLength="87" x="41" y="204.2104">alpha : number</text><ellipse cx="32" cy="213.8047" rx="3" ry="3" style="stroke:#038048;stroke-width:1.0;fill:none;"/><text fill="#000000" font-family="sans-serif" font-size="11" lengthAdjust="spacing" textLength="121" x="41" y="217.0151">frameFilter : Function</text><ellipse cx="32" cy="226.6094" rx="3" ry="3" style="stroke:#038048;stroke-width:1.0;fill:none;"/><text fill="#000000" font-family="sans-serif" font-size="11" lengthAdjust="spacing" textLength="77" x="41" y="229.8198">name : string</text><ellipse cx="32" cy="239.4141" rx="3" ry="3" style="stroke:#038048;stroke-width:1.0;fill:none;"/><text fill="#000000" font-family="sans-serif" font-size="11" lengthAdjust="spacing" textLength="121" x="41" y="242.6245">objectFilter : Function</text><ellipse cx="32" cy="252.2188" rx="3" ry="3" style="stroke:#038048;stroke-width:1.0;fill:none;"/><text fill="#000000" font-family="sans-serif" font-size="11" lengthAdjust="spacing" textLength="62" x="41" y="255.4292">uid : string</text><!--MD5=[a64cc95f50a68f73795155817271a9ec]
class FilterProcessingOptions--><rect codeLine="11" fill="#FEFECE" filter="url(#f1j0cet9bbhqmp)" height="91.2188" id="FilterProcessingOptions" style="stroke:#A80036;stroke-width:1.5;" width="175" x="7" y="7"/><ellipse cx="22" cy="23" fill="#B4A7E5" rx="11" ry="11" style="stroke:#A80036;stroke-width:1.0;"/><path d="M17.9219,18.7656 L17.9219,16.6094 L25.3125,16.6094 L25.3125,18.7656 L22.8438,18.7656 L22.8438,26.8438 L25.3125,26.8438 L25.3125,29 L17.9219,29 L17.9219,26.8438 L20.3906,26.8438 L20.3906,18.7656 L17.9219,18.7656 Z " fill="#000000"/><text fill="#000000" font-family="sans-serif" font-size="12" font-style="italic" lengthAdjust="spacing" textLength="143" x="36" y="27.1543">FilterProcessingOptions</text><line style="stroke:#A80036;stroke-width:1.5;" x1="8" x2="181" y1="39" y2="39"/><ellipse cx="18" cy="50" rx="3" ry="3" style="stroke:#038048;stroke-width:1.0;fill:none;"/><text fill="#000000" font-family="sans-serif" font-size="11" lengthAdjust="spacing" textLength="121" x="27" y="53.2104">frameFilter : Function</text><ellipse cx="18" cy="62.8047" rx="3" ry="3" style="stroke:#038048;stroke-width:1.0;fill:none;"/><text fill="#000000" font-family="sans-serif" font-size="11" lengthAdjust="spacing" textLength="77" x="27" y="66.0151">name : string</text><ellipse cx="18" cy="75.6094" rx="3" ry="3" style="stroke:#038048;stroke-width:1.0;fill:none;"/><text fill="#000000" font-family="sans-serif" font-size="11" lengthAdjust="spacing" textLength="121" x="27" y="78.8198">objectFilter : Function</text><ellipse cx="18" cy="88.4141" rx="3" ry="3" style="stroke:#038048;stroke-width:1.0;fill:none;"/><text fill="#000000" font-family="sans-serif" font-size="11" lengthAdjust="spacing" textLength="62" x="27" y="91.6245">uid : string</text><!--MD5=[d322b2772fb0a25c8e97ed29276d43dd]
reverse link FilterProcessingOptions to EMAFilterOptions--><path codeLine="17" d="M94.5,118.2 C94.5,131.43 94.5,145.18 94.5,157.85 " fill="none" id="FilterProcessingOptions-backto-EMAFilterOptions" style="stroke:#A80036;stroke-width:1.0;"/><polygon fill="none" points="87.5,118.06,94.5,98.06,101.5,118.06,87.5,118.06" style="stroke:#A80036;stroke-width:1.0;"/><!--MD5=[619e1ee1cea50238c9bfb24b7edadcce]
@startuml
skinparam BackgroundColor transparent
hide empty methods
hide empty fields
interface "EMAFilterOptions" {
    +alpha : number
    +frameFilter : Function
    +name : string
    +objectFilter : Function
    +uid : string
}
interface "FilterProcessingOptions" {
    +frameFilter : Function
    +name : string
    +objectFilter : Function
    +uid : string
}
"FilterProcessingOptions" <|- - "EMAFilterOptions"
@enduml

PlantUML version 1.2021.14(Fri Nov 12 16:46:50 UTC 2021)
(GPL source distribution)
Java Runtime: OpenJDK Runtime Environment
JVM: OpenJDK 64-Bit Server VM
Default Encoding: UTF-8
Language: en
Country: null
--></g></svg>