<?xml version="1.0" encoding="UTF-8" standalone="no"?><svg xmlns="http://www.w3.org/2000/svg" xmlns:xlink="http://www.w3.org/1999/xlink" contentScriptType="application/ecmascript" contentStyleType="text/css" height="237px" preserveAspectRatio="none" style="width:834px;height:237px;background:#00000000;" version="1.1" viewBox="0 0 834 237" width="834px" zoomAndPan="magnify"><defs><filter height="300%" id="fw6f1bsu45z4h" width="300%" x="-1" y="-1"><feGaussianBlur result="blurOut" stdDeviation="2.0"/><feColorMatrix in="blurOut" result="blurOut2" type="matrix" values="0 0 0 0 0 0 0 0 0 0 0 0 0 0 0 0 0 0 .4 0"/><feOffset dx="4.0" dy="4.0" in="blurOut2" result="blurOut3"/><feBlend in="SourceGraphic" in2="blurOut3" mode="normal"/></filter></defs><g><!--MD5=[a64cc95f50a68f73795155817271a9ec]
class FilterProcessingOptions--><rect codeLine="4" fill="#FEFECE" filter="url(#fw6f1bsu45z4h)" height="32" id="FilterProcessingOptions" style="stroke:#A80036;stroke-width:1.5;" width="175" x="330" y="99"/><ellipse cx="345" cy="115" fill="#B4A7E5" rx="11" ry="11" style="stroke:#A80036;stroke-width:1.0;"/><path d="M340.9219,110.7656 L340.9219,108.6094 L348.3125,108.6094 L348.3125,110.7656 L345.8438,110.7656 L345.8438,118.8438 L348.3125,118.8438 L348.3125,121 L340.9219,121 L340.9219,118.8438 L343.3906,118.8438 L343.3906,110.7656 L340.9219,110.7656 Z " fill="#000000"/><text fill="#000000" font-family="sans-serif" font-size="12" font-style="italic" lengthAdjust="spacing" textLength="143" x="359" y="119.1543">FilterProcessingOptions</text><!--MD5=[b53bc0b3a71be57c62241e847c2a99d4]
class ObjectProcessingNodeOptions--><rect codeLine="6" fill="#FEFECE" filter="url(#fw6f1bsu45z4h)" height="32" id="ObjectProcessingNodeOptions" style="stroke:#A80036;stroke-width:1.5;" width="216" x="309.5" y="7"/><ellipse cx="324.5" cy="23" fill="#B4A7E5" rx="11" ry="11" style="stroke:#A80036;stroke-width:1.0;"/><path d="M320.4219,18.7656 L320.4219,16.6094 L327.8125,16.6094 L327.8125,18.7656 L325.3438,18.7656 L325.3438,26.8438 L327.8125,26.8438 L327.8125,29 L320.4219,29 L320.4219,26.8438 L322.8906,26.8438 L322.8906,18.7656 L320.4219,18.7656 Z " fill="#000000"/><text fill="#000000" font-family="sans-serif" font-size="12" font-style="italic" lengthAdjust="spacing" textLength="184" x="338.5" y="27.1543">ObjectProcessingNodeOptions</text><!--MD5=[c4db96a564bbd1d7ac8a63c7e7bdbb40]
class KalmanFilterOptions--><rect codeLine="9" fill="#FEFECE" filter="url(#fw6f1bsu45z4h)" height="32" id="KalmanFilterOptions" style="stroke:#A80036;stroke-width:1.5;" width="155" x="7" y="191"/><ellipse cx="22" cy="207" fill="#B4A7E5" rx="11" ry="11" style="stroke:#A80036;stroke-width:1.0;"/><path d="M17.9219,202.7656 L17.9219,200.6094 L25.3125,200.6094 L25.3125,202.7656 L22.8438,202.7656 L22.8438,210.8438 L25.3125,210.8438 L25.3125,213 L17.9219,213 L17.9219,210.8438 L20.3906,210.8438 L20.3906,202.7656 L17.9219,202.7656 Z " fill="#000000"/><text fill="#000000" font-family="sans-serif" font-size="12" font-style="italic" lengthAdjust="spacing" textLength="123" x="36" y="211.1543">KalmanFilterOptions</text><!--MD5=[b2b199c0672bc41b9b726c0aa663eb4b]
class LPFilterOptions--><rect codeLine="12" fill="#FEFECE" filter="url(#fw6f1bsu45z4h)" height="32" id="LPFilterOptions" style="stroke:#A80036;stroke-width:1.5;" width="123" x="197" y="191"/><ellipse cx="212" cy="207" fill="#B4A7E5" rx="11" ry="11" style="stroke:#A80036;stroke-width:1.0;"/><path d="M207.9219,202.7656 L207.9219,200.6094 L215.3125,200.6094 L215.3125,202.7656 L212.8438,202.7656 L212.8438,210.8438 L215.3125,210.8438 L215.3125,213 L207.9219,213 L207.9219,210.8438 L210.3906,210.8438 L210.3906,202.7656 L207.9219,202.7656 Z " fill="#000000"/><text fill="#000000" font-family="sans-serif" font-size="12" font-style="italic" lengthAdjust="spacing" textLength="91" x="226" y="211.1543">LPFilterOptions</text><!--MD5=[cbc93b11530cc764a6c96787e35d9a33]
class HPFilterOptions--><rect codeLine="15" fill="#FEFECE" filter="url(#fw6f1bsu45z4h)" height="32" id="HPFilterOptions" style="stroke:#A80036;stroke-width:1.5;" width="125" x="355" y="191"/><ellipse cx="370" cy="207" fill="#B4A7E5" rx="11" ry="11" style="stroke:#A80036;stroke-width:1.0;"/><path d="M365.9219,202.7656 L365.9219,200.6094 L373.3125,200.6094 L373.3125,202.7656 L370.8438,202.7656 L370.8438,210.8438 L373.3125,210.8438 L373.3125,213 L365.9219,213 L365.9219,210.8438 L368.3906,210.8438 L368.3906,202.7656 L365.9219,202.7656 Z " fill="#000000"/><text fill="#000000" font-family="sans-serif" font-size="12" font-style="italic" lengthAdjust="spacing" textLength="93" x="384" y="211.1543">HPFilterOptions</text><!--MD5=[514b7ac6ca7e8c36a95b27146726fbf9]
class SMAFilterOptions--><rect codeLine="18" fill="#FEFECE" filter="url(#fw6f1bsu45z4h)" height="32" id="SMAFilterOptions" style="stroke:#A80036;stroke-width:1.5;" width="135" x="515" y="191"/><ellipse cx="530" cy="207" fill="#B4A7E5" rx="11" ry="11" style="stroke:#A80036;stroke-width:1.0;"/><path d="M525.9219,202.7656 L525.9219,200.6094 L533.3125,200.6094 L533.3125,202.7656 L530.8438,202.7656 L530.8438,210.8438 L533.3125,210.8438 L533.3125,213 L525.9219,213 L525.9219,210.8438 L528.3906,210.8438 L528.3906,202.7656 L525.9219,202.7656 Z " fill="#000000"/><text fill="#000000" font-family="sans-serif" font-size="12" font-style="italic" lengthAdjust="spacing" textLength="103" x="544" y="211.1543">SMAFilterOptions</text><!--MD5=[8726a706c9d59f336c83f8bb267871ac]
class EMAFilterOptions--><rect codeLine="21" fill="#FEFECE" filter="url(#fw6f1bsu45z4h)" height="32" id="EMAFilterOptions" style="stroke:#A80036;stroke-width:1.5;" width="135" x="685" y="191"/><ellipse cx="700" cy="207" fill="#B4A7E5" rx="11" ry="11" style="stroke:#A80036;stroke-width:1.0;"/><path d="M695.9219,202.7656 L695.9219,200.6094 L703.3125,200.6094 L703.3125,202.7656 L700.8438,202.7656 L700.8438,210.8438 L703.3125,210.8438 L703.3125,213 L695.9219,213 L695.9219,210.8438 L698.3906,210.8438 L698.3906,202.7656 L695.9219,202.7656 Z " fill="#000000"/><text fill="#000000" font-family="sans-serif" font-size="12" font-style="italic" lengthAdjust="spacing" textLength="103" x="714" y="211.1543">EMAFilterOptions</text><!--MD5=[2622f437de93cf02aa23091e84eaf4f2]
reverse link ObjectProcessingNodeOptions to FilterProcessingOptions--><path codeLine="8" d="M417.5,59.61 C417.5,73.31 417.5,88.22 417.5,98.96 " fill="none" id="ObjectProcessingNodeOptions-backto-FilterProcessingOptions" style="stroke:#A80036;stroke-width:1.0;"/><polygon fill="none" points="410.5,59.27,417.5,39.27,424.5,59.27,410.5,59.27" style="stroke:#A80036;stroke-width:1.0;"/><!--MD5=[0c280a02e55ae8b1bee8cf8b8f5cf76b]
reverse link FilterProcessingOptions to KalmanFilterOptions--><path codeLine="11" d="M342.34,136.31 C280.94,152.91 195.54,175.99 140.14,190.96 " fill="none" id="FilterProcessingOptions-backto-KalmanFilterOptions" style="stroke:#A80036;stroke-width:1.0;"/><polygon fill="none" points="340.63,129.52,361.76,131.06,344.28,143.04,340.63,129.52" style="stroke:#A80036;stroke-width:1.0;"/><!--MD5=[ed4a6c5e7d849d8ba4d8e76294b3dd30]
reverse link FilterProcessingOptions to LPFilterOptions--><path codeLine="14" d="M373.16,141.1 C344.89,157.1 309.19,177.31 285.2,190.89 " fill="none" id="FilterProcessingOptions-backto-LPFilterOptions" style="stroke:#A80036;stroke-width:1.0;"/><polygon fill="none" points="370.03,134.82,390.89,131.06,376.93,147.01,370.03,134.82" style="stroke:#A80036;stroke-width:1.0;"/><!--MD5=[20d3ecd5d695debc0db424f3f099daea]
reverse link FilterProcessingOptions to HPFilterOptions--><path codeLine="17" d="M417.5,151.61 C417.5,165.31 417.5,180.22 417.5,190.96 " fill="none" id="FilterProcessingOptions-backto-HPFilterOptions" style="stroke:#A80036;stroke-width:1.0;"/><polygon fill="none" points="410.5,151.27,417.5,131.27,424.5,151.27,410.5,151.27" style="stroke:#A80036;stroke-width:1.0;"/><!--MD5=[ca91208510653f6423e467eeeb3d3a74]
reverse link FilterProcessingOptions to SMAFilterOptions--><path codeLine="20" d="M463.09,140.87 C492.5,156.91 529.78,177.24 554.79,190.89 " fill="none" id="FilterProcessingOptions-backto-SMAFilterOptions" style="stroke:#A80036;stroke-width:1.0;"/><polygon fill="none" points="459.32,146.79,445.12,131.06,466.03,134.5,459.32,146.79" style="stroke:#A80036;stroke-width:1.0;"/><!--MD5=[d322b2772fb0a25c8e97ed29276d43dd]
reverse link FilterProcessingOptions to EMAFilterOptions--><path codeLine="23" d="M493.11,136.31 C554.88,152.91 640.8,175.99 696.53,190.96 " fill="none" id="FilterProcessingOptions-backto-EMAFilterOptions" style="stroke:#A80036;stroke-width:1.0;"/><polygon fill="none" points="491.07,143.01,473.57,131.06,494.7,129.49,491.07,143.01" style="stroke:#A80036;stroke-width:1.0;"/><!--MD5=[6096ccc67e61b8a562cc4f9ace4da24a]
@startuml
skinparam BackgroundColor transparent
hide empty methods
hide empty fields
interface "FilterProcessingOptions" {
}
interface "ObjectProcessingNodeOptions" {
}
"ObjectProcessingNodeOptions" <|- - "FilterProcessingOptions"
interface "KalmanFilterOptions" {
}
"FilterProcessingOptions" <|- - "KalmanFilterOptions"
interface "LPFilterOptions" {
}
"FilterProcessingOptions" <|- - "LPFilterOptions"
interface "HPFilterOptions" {
}
"FilterProcessingOptions" <|- - "HPFilterOptions"
interface "SMAFilterOptions" {
}
"FilterProcessingOptions" <|- - "SMAFilterOptions"
interface "EMAFilterOptions" {
}
"FilterProcessingOptions" <|- - "EMAFilterOptions"
@enduml

PlantUML version 1.2021.14(Fri Nov 12 16:46:50 UTC 2021)
(GPL source distribution)
Java Runtime: OpenJDK Runtime Environment
JVM: OpenJDK 64-Bit Server VM
Default Encoding: UTF-8
Language: en
Country: null
--></g></svg>