<?xml version="1.0" encoding="UTF-8" standalone="no"?><svg xmlns="http://www.w3.org/2000/svg" xmlns:xlink="http://www.w3.org/1999/xlink" contentScriptType="application/ecmascript" contentStyleType="text/css" height="145px" preserveAspectRatio="none" style="width:244px;height:145px;background:#00000000;" version="1.1" viewBox="0 0 244 145" width="244px" zoomAndPan="magnify"><defs><filter height="300%" id="fz5wf8xq0wpyw" width="300%" x="-1" y="-1"><feGaussianBlur result="blurOut" stdDeviation="2.0"/><feColorMatrix in="blurOut" result="blurOut2" type="matrix" values="0 0 0 0 0 0 0 0 0 0 0 0 0 0 0 0 0 0 .4 0"/><feOffset dx="4.0" dy="4.0" in="blurOut2" result="blurOut3"/><feBlend in="SourceGraphic" in2="blurOut3" mode="normal"/></filter></defs><g><!--MD5=[9083499a8eeacf3b1700cfe65c31ab7c]
class FilterProcessingNode<InOut>--><rect codeLine="4" fill="#FEFECE" filter="url(#fz5wf8xq0wpyw)" height="32" id="FilterProcessingNode&lt;InOut&gt;" style="stroke:#A80036;stroke-width:1.5;" width="215" x="11" y="99"/><ellipse cx="26" cy="115" fill="#A9DCDF" rx="11" ry="11" style="stroke:#A80036;stroke-width:1.0;"/><path d="M26.1094,110.3438 L24.9531,115.4219 L27.2813,115.4219 L26.1094,110.3438 Z M24.625,108.1094 L27.6094,108.1094 L30.9688,120.5 L28.5156,120.5 L27.75,117.4375 L24.4688,117.4375 L23.7188,120.5 L21.2813,120.5 L24.625,108.1094 Z " fill="#000000"/><text fill="#000000" font-family="sans-serif" font-size="12" font-style="italic" lengthAdjust="spacing" textLength="183" x="40" y="119.1543">FilterProcessingNode&lt;InOut&gt;</text><!--MD5=[9ac6b26c9c0951042fc71ef94bb46580]
class ObjectProcessingNode<InOut>--><rect codeLine="6" fill="#FEFECE" filter="url(#fz5wf8xq0wpyw)" height="32" id="ObjectProcessingNode&lt;InOut&gt;" style="stroke:#A80036;stroke-width:1.5;" width="223" x="7" y="7"/><ellipse cx="22" cy="23" fill="#A9DCDF" rx="11" ry="11" style="stroke:#A80036;stroke-width:1.0;"/><path d="M22.1094,18.3438 L20.9531,23.4219 L23.2813,23.4219 L22.1094,18.3438 Z M20.625,16.1094 L23.6094,16.1094 L26.9688,28.5 L24.5156,28.5 L23.75,25.4375 L20.4688,25.4375 L19.7188,28.5 L17.2813,28.5 L20.625,16.1094 Z " fill="#000000"/><text fill="#000000" font-family="sans-serif" font-size="12" font-style="italic" lengthAdjust="spacing" textLength="191" x="36" y="27.1543">ObjectProcessingNode&lt;InOut&gt;</text><!--MD5=[7ad719a2cfa2312d5dae3d5f8e32a1d7]
reverse link ObjectProcessingNode<InOut> to FilterProcessingNode<InOut>--><path codeLine="8" d="M118.5,59.61 C118.5,73.31 118.5,88.22 118.5,98.96 " fill="none" id="ObjectProcessingNode&lt;InOut&gt;-backto-FilterProcessingNode&lt;InOut&gt;" style="stroke:#A80036;stroke-width:1.0;"/><polygon fill="none" points="111.5,59.27,118.5,39.27,125.5,59.27,111.5,59.27" style="stroke:#A80036;stroke-width:1.0;"/><!--MD5=[e41a499f09220a8d45f1f7b7b0bc1faa]
@startuml
skinparam BackgroundColor transparent
hide empty methods
hide empty fields
abstract class "FilterProcessingNode<InOut>" {
}
abstract class "ObjectProcessingNode<InOut>" {
}
"ObjectProcessingNode<InOut>" <|- - "FilterProcessingNode<InOut>"
@enduml

PlantUML version 1.2021.14(Fri Nov 12 16:46:50 UTC 2021)
(GPL source distribution)
Java Runtime: OpenJDK Runtime Environment
JVM: OpenJDK 64-Bit Server VM
Default Encoding: UTF-8
Language: en
Country: null
--></g></svg>