<?xml version="1.0" encoding="us-ascii" standalone="no"?><svg xmlns="http://www.w3.org/2000/svg" xmlns:xlink="http://www.w3.org/1999/xlink" contentStyleType="text/css" height="138px" preserveAspectRatio="none" style="width:265px;height:138px;" version="1.1" viewBox="0 0 265 138" width="265px" zoomAndPan="magnify"><defs/><g><!--class FilterProcessingNode<InOut>--><g id="elem_FilterProcessingNode&lt;InOut&gt;"><rect codeLine="4" fill="#F1F1F1" height="32" id="FilterProcessingNode&lt;InOut&gt;" rx="2.5" ry="2.5" style="stroke:#181818;stroke-width:0.5;" width="239" x="13" y="99"/><ellipse cx="28" cy="115" fill="#A9DCDF" rx="11" ry="11" style="stroke:#181818;stroke-width:1.0;"/><path d="M28.1094,110.3438 L26.9531,115.4219 L29.2813,115.4219 L28.1094,110.3438 Z M26.625,108.1094 L29.6094,108.1094 L32.9688,120.5 L30.5156,120.5 L29.75,117.4375 L26.4688,117.4375 L25.7188,120.5 L23.2813,120.5 L26.625,108.1094 Z " fill="#000000"/><text fill="#000000" font-family="sans-serif" font-size="14" font-style="italic" lengthAdjust="spacing" textLength="207" x="42" y="119.8467">FilterProcessingNode&lt;InOut&gt;</text></g><!--class ObjectProcessingNode<InOut>--><g id="elem_ObjectProcessingNode&lt;InOut&gt;"><rect codeLine="6" fill="#F1F1F1" height="32" id="ObjectProcessingNode&lt;InOut&gt;" rx="2.5" ry="2.5" style="stroke:#181818;stroke-width:0.5;" width="251" x="7" y="7"/><ellipse cx="22" cy="23" fill="#A9DCDF" rx="11" ry="11" style="stroke:#181818;stroke-width:1.0;"/><path d="M22.1094,18.3438 L20.9531,23.4219 L23.2813,23.4219 L22.1094,18.3438 Z M20.625,16.1094 L23.6094,16.1094 L26.9688,28.5 L24.5156,28.5 L23.75,25.4375 L20.4688,25.4375 L19.7188,28.5 L17.2813,28.5 L20.625,16.1094 Z " fill="#000000"/><text fill="#000000" font-family="sans-serif" font-size="14" font-style="italic" lengthAdjust="spacing" textLength="219" x="36" y="27.8467">ObjectProcessingNode&lt;InOut&gt;</text></g><!--reverse link ObjectProcessingNode<InOut> to FilterProcessingNode<InOut>--><g id="link_ObjectProcessingNode&lt;InOut&gt;_FilterProcessingNode&lt;InOut&gt;"><path codeLine="8" d="M132.5,59.61 C132.5,73.31 132.5,88.22 132.5,98.96 " fill="none" id="ObjectProcessingNode&lt;InOut&gt;-backto-FilterProcessingNode&lt;InOut&gt;" style="stroke:#181818;stroke-width:1.0;"/><polygon fill="none" points="125.5,59.27,132.5,39.27,139.5,59.27,125.5,59.27" style="stroke:#181818;stroke-width:1.0;"/></g><!--SRC=[VOqn3i8m34NtdiBgtXjK320XiL2ku2Qc3KtiodO71DoTZ4X8NT_xJz-Mn2ig5ZXYM2QLZUD9iYYu8bjLnDxCAH9GMVq9XNoMQB_edYXNWgFL9ZY4Z6RGdbDsqfjA8BF4qrKYzHSUDZ-qy6e-Vy4mFYZuJh2_wDzTj__w1G00]--></g></svg>