<?xml version="1.0" encoding="us-ascii" standalone="no"?><svg xmlns="http://www.w3.org/2000/svg" xmlns:xlink="http://www.w3.org/1999/xlink" contentStyleType="text/css" height="230px" preserveAspectRatio="none" style="width:891px;height:230px;" version="1.1" viewBox="0 0 891 230" width="891px" zoomAndPan="magnify"><defs/><g><!--class FilterProcessingOptions--><g id="elem_FilterProcessingOptions"><rect codeLine="4" fill="#F1F1F1" height="32" id="FilterProcessingOptions" rx="2.5" ry="2.5" style="stroke:#181818;stroke-width:0.5;" width="192" x="352" y="99"/><ellipse cx="367" cy="115" fill="#B4A7E5" rx="11" ry="11" style="stroke:#181818;stroke-width:1.0;"/><path d="M362.9219,110.7656 L362.9219,108.6094 L370.3125,108.6094 L370.3125,110.7656 L367.8438,110.7656 L367.8438,118.8438 L370.3125,118.8438 L370.3125,121 L362.9219,121 L362.9219,118.8438 L365.3906,118.8438 L365.3906,110.7656 L362.9219,110.7656 Z " fill="#000000"/><text fill="#000000" font-family="sans-serif" font-size="14" font-style="italic" lengthAdjust="spacing" textLength="160" x="381" y="119.8467">FilterProcessingOptions</text></g><!--class ObjectProcessingNodeOptions--><g id="elem_ObjectProcessingNodeOptions"><rect codeLine="6" fill="#F1F1F1" height="32" id="ObjectProcessingNodeOptions" rx="2.5" ry="2.5" style="stroke:#181818;stroke-width:0.5;" width="242" x="327" y="7"/><ellipse cx="342" cy="23" fill="#B4A7E5" rx="11" ry="11" style="stroke:#181818;stroke-width:1.0;"/><path d="M337.9219,18.7656 L337.9219,16.6094 L345.3125,16.6094 L345.3125,18.7656 L342.8438,18.7656 L342.8438,26.8438 L345.3125,26.8438 L345.3125,29 L337.9219,29 L337.9219,26.8438 L340.3906,26.8438 L340.3906,18.7656 L337.9219,18.7656 Z " fill="#000000"/><text fill="#000000" font-family="sans-serif" font-size="14" font-style="italic" lengthAdjust="spacing" textLength="210" x="356" y="27.8467">ObjectProcessingNodeOptions</text></g><!--class KalmanFilterOptions--><g id="elem_KalmanFilterOptions"><rect codeLine="9" fill="#F1F1F1" height="32" id="KalmanFilterOptions" rx="2.5" ry="2.5" style="stroke:#181818;stroke-width:0.5;" width="168" x="7" y="191"/><ellipse cx="22" cy="207" fill="#B4A7E5" rx="11" ry="11" style="stroke:#181818;stroke-width:1.0;"/><path d="M17.9219,202.7656 L17.9219,200.6094 L25.3125,200.6094 L25.3125,202.7656 L22.8438,202.7656 L22.8438,210.8438 L25.3125,210.8438 L25.3125,213 L17.9219,213 L17.9219,210.8438 L20.3906,210.8438 L20.3906,202.7656 L17.9219,202.7656 Z " fill="#000000"/><text fill="#000000" font-family="sans-serif" font-size="14" font-style="italic" lengthAdjust="spacing" textLength="136" x="36" y="211.8467">KalmanFilterOptions</text></g><!--class LPFilterOptions--><g id="elem_LPFilterOptions"><rect codeLine="12" fill="#F1F1F1" height="32" id="LPFilterOptions" rx="2.5" ry="2.5" style="stroke:#181818;stroke-width:0.5;" width="134" x="210" y="191"/><ellipse cx="225" cy="207" fill="#B4A7E5" rx="11" ry="11" style="stroke:#181818;stroke-width:1.0;"/><path d="M220.9219,202.7656 L220.9219,200.6094 L228.3125,200.6094 L228.3125,202.7656 L225.8438,202.7656 L225.8438,210.8438 L228.3125,210.8438 L228.3125,213 L220.9219,213 L220.9219,210.8438 L223.3906,210.8438 L223.3906,202.7656 L220.9219,202.7656 Z " fill="#000000"/><text fill="#000000" font-family="sans-serif" font-size="14" font-style="italic" lengthAdjust="spacing" textLength="102" x="239" y="211.8467">LPFilterOptions</text></g><!--class HPFilterOptions--><g id="elem_HPFilterOptions"><rect codeLine="15" fill="#F1F1F1" height="32" id="HPFilterOptions" rx="2.5" ry="2.5" style="stroke:#181818;stroke-width:0.5;" width="137" x="379.5" y="191"/><ellipse cx="394.5" cy="207" fill="#B4A7E5" rx="11" ry="11" style="stroke:#181818;stroke-width:1.0;"/><path d="M390.4219,202.7656 L390.4219,200.6094 L397.8125,200.6094 L397.8125,202.7656 L395.3438,202.7656 L395.3438,210.8438 L397.8125,210.8438 L397.8125,213 L390.4219,213 L390.4219,210.8438 L392.8906,210.8438 L392.8906,202.7656 L390.4219,202.7656 Z " fill="#000000"/><text fill="#000000" font-family="sans-serif" font-size="14" font-style="italic" lengthAdjust="spacing" textLength="105" x="408.5" y="211.8467">HPFilterOptions</text></g><!--class SMAFilterOptions--><g id="elem_SMAFilterOptions"><rect codeLine="18" fill="#F1F1F1" height="32" id="SMAFilterOptions" rx="2.5" ry="2.5" style="stroke:#181818;stroke-width:0.5;" width="149" x="551.5" y="191"/><ellipse cx="566.5" cy="207" fill="#B4A7E5" rx="11" ry="11" style="stroke:#181818;stroke-width:1.0;"/><path d="M562.4219,202.7656 L562.4219,200.6094 L569.8125,200.6094 L569.8125,202.7656 L567.3438,202.7656 L567.3438,210.8438 L569.8125,210.8438 L569.8125,213 L562.4219,213 L562.4219,210.8438 L564.8906,210.8438 L564.8906,202.7656 L562.4219,202.7656 Z " fill="#000000"/><text fill="#000000" font-family="sans-serif" font-size="14" font-style="italic" lengthAdjust="spacing" textLength="117" x="580.5" y="211.8467">SMAFilterOptions</text></g><!--class EMAFilterOptions--><g id="elem_EMAFilterOptions"><rect codeLine="21" fill="#F1F1F1" height="32" id="EMAFilterOptions" rx="2.5" ry="2.5" style="stroke:#181818;stroke-width:0.5;" width="149" x="735.5" y="191"/><ellipse cx="750.5" cy="207" fill="#B4A7E5" rx="11" ry="11" style="stroke:#181818;stroke-width:1.0;"/><path d="M746.4219,202.7656 L746.4219,200.6094 L753.8125,200.6094 L753.8125,202.7656 L751.3438,202.7656 L751.3438,210.8438 L753.8125,210.8438 L753.8125,213 L746.4219,213 L746.4219,210.8438 L748.8906,210.8438 L748.8906,202.7656 L746.4219,202.7656 Z " fill="#000000"/><text fill="#000000" font-family="sans-serif" font-size="14" font-style="italic" lengthAdjust="spacing" textLength="117" x="764.5" y="211.8467">EMAFilterOptions</text></g><!--reverse link ObjectProcessingNodeOptions to FilterProcessingOptions--><g id="link_ObjectProcessingNodeOptions_FilterProcessingOptions"><path codeLine="8" d="M448,59.61 C448,73.31 448,88.22 448,98.96 " fill="none" id="ObjectProcessingNodeOptions-backto-FilterProcessingOptions" style="stroke:#181818;stroke-width:1.0;"/><polygon fill="none" points="441,59.27,448,39.27,455,59.27,441,59.27" style="stroke:#181818;stroke-width:1.0;"/></g><!--reverse link FilterProcessingOptions to KalmanFilterOptions--><g id="link_FilterProcessingOptions_KalmanFilterOptions"><path codeLine="11" d="M368.7,135.99 C302.79,152.61 210.43,175.89 150.65,190.96 " fill="none" id="FilterProcessingOptions-backto-KalmanFilterOptions" style="stroke:#181818;stroke-width:1.0;"/><polygon fill="none" points="367.14,129.17,388.25,131.06,370.56,142.74,367.14,129.17" style="stroke:#181818;stroke-width:1.0;"/></g><!--reverse link FilterProcessingOptions to LPFilterOptions--><g id="link_FilterProcessingOptions_LPFilterOptions"><path codeLine="14" d="M401.62,140.41 C371.01,156.52 331.89,177.11 305.71,190.89 " fill="none" id="FilterProcessingOptions-backto-LPFilterOptions" style="stroke:#181818;stroke-width:1.0;"/><polygon fill="none" points="398.42,134.18,419.38,131.06,404.94,146.57,398.42,134.18" style="stroke:#181818;stroke-width:1.0;"/></g><!--reverse link FilterProcessingOptions to HPFilterOptions--><g id="link_FilterProcessingOptions_HPFilterOptions"><path codeLine="17" d="M448,151.61 C448,165.31 448,180.22 448,190.96 " fill="none" id="FilterProcessingOptions-backto-HPFilterOptions" style="stroke:#181818;stroke-width:1.0;"/><polygon fill="none" points="441,151.27,448,131.27,455,151.27,441,151.27" style="stroke:#181818;stroke-width:1.0;"/></g><!--reverse link FilterProcessingOptions to SMAFilterOptions--><g id="link_FilterProcessingOptions_SMAFilterOptions"><path codeLine="20" d="M495.83,140.18 C527.75,156.32 568.74,177.05 596.11,190.89 " fill="none" id="FilterProcessingOptions-backto-SMAFilterOptions" style="stroke:#181818;stroke-width:1.0;"/><polygon fill="none" points="492.48,146.34,477.79,131.06,498.8,133.84,492.48,146.34" style="stroke:#181818;stroke-width:1.0;"/></g><!--reverse link FilterProcessingOptions to EMAFilterOptions--><g id="link_FilterProcessingOptions_EMAFilterOptions"><path codeLine="23" d="M528.41,135.99 C595.25,152.61 688.9,175.89 749.51,190.96 " fill="none" id="FilterProcessingOptions-backto-EMAFilterOptions" style="stroke:#181818;stroke-width:1.0;"/><polygon fill="none" points="526.31,142.68,508.59,131.06,529.69,129.1,526.31,142.68" style="stroke:#181818;stroke-width:1.0;"/></g><!--SRC=[dOvD3e8m44RtdA9XpmtSgD6G-0E99wZj09LsIjfnOTIxIyB28iAYkydC-zutlbNOSSSDst3HrixUKMwjjewHu-Zx4o0bZPB0m7JqO0QeiTA7gqg1xZSA2Lp51R1qhtG_byuAy5vXNNIaBFgKFPDto1NN6mZwScShOSGk4wjNbisNXKK7hWt7WHmNpBuwoFy5G_6nZ93-Xa9X7YFC5uINqph2E4c5obsKSfBw0000]--></g></svg>