<?xml version="1.0" encoding="UTF-8" standalone="no"?><svg xmlns="http://www.w3.org/2000/svg" xmlns:xlink="http://www.w3.org/1999/xlink" contentScriptType="application/ecmascript" contentStyleType="text/css" height="478px" preserveAspectRatio="none" style="width:908px;height:478px;background:#00000000;" version="1.1" viewBox="0 0 908 478" width="908px" zoomAndPan="magnify"><defs><filter height="300%" id="fi30gytsvcy8w" width="300%" x="-1" y="-1"><feGaussianBlur result="blurOut" stdDeviation="2.0"/><feColorMatrix in="blurOut" result="blurOut2" type="matrix" values="0 0 0 0 0 0 0 0 0 0 0 0 0 0 0 0 0 0 .4 0"/><feOffset dx="4.0" dy="4.0" in="blurOut2" result="blurOut3"/><feBlend in="SourceGraphic" in2="blurOut3" mode="normal"/></filter></defs><g><!--MD5=[a64cc95f50a68f73795155817271a9ec]
class FilterProcessingOptions--><rect codeLine="4" fill="#FEFECE" filter="url(#fi30gytsvcy8w)" height="91.2188" id="FilterProcessingOptions" style="stroke:#A80036;stroke-width:1.5;" width="175" x="368" y="158"/><ellipse cx="383" cy="174" fill="#B4A7E5" rx="11" ry="11" style="stroke:#A80036;stroke-width:1.0;"/><path d="M378.9219,169.7656 L378.9219,167.6094 L386.3125,167.6094 L386.3125,169.7656 L383.8438,169.7656 L383.8438,177.8438 L386.3125,177.8438 L386.3125,180 L378.9219,180 L378.9219,177.8438 L381.3906,177.8438 L381.3906,169.7656 L378.9219,169.7656 Z " fill="#000000"/><text fill="#000000" font-family="sans-serif" font-size="12" font-style="italic" lengthAdjust="spacing" textLength="143" x="397" y="178.1543">FilterProcessingOptions</text><line style="stroke:#A80036;stroke-width:1.5;" x1="369" x2="542" y1="190" y2="190"/><ellipse cx="379" cy="201" rx="3" ry="3" style="stroke:#038048;stroke-width:1.0;fill:none;"/><text fill="#000000" font-family="sans-serif" font-size="11" lengthAdjust="spacing" textLength="121" x="388" y="204.2104">frameFilter : Function</text><ellipse cx="379" cy="213.8047" rx="3" ry="3" style="stroke:#038048;stroke-width:1.0;fill:none;"/><text fill="#000000" font-family="sans-serif" font-size="11" lengthAdjust="spacing" textLength="77" x="388" y="217.0151">name : string</text><ellipse cx="379" cy="226.6094" rx="3" ry="3" style="stroke:#038048;stroke-width:1.0;fill:none;"/><text fill="#000000" font-family="sans-serif" font-size="11" lengthAdjust="spacing" textLength="121" x="388" y="229.8198">objectFilter : Function</text><ellipse cx="379" cy="239.4141" rx="3" ry="3" style="stroke:#038048;stroke-width:1.0;fill:none;"/><text fill="#000000" font-family="sans-serif" font-size="11" lengthAdjust="spacing" textLength="62" x="388" y="242.6245">uid : string</text><!--MD5=[b53bc0b3a71be57c62241e847c2a99d4]
class ObjectProcessingNodeOptions--><rect codeLine="10" fill="#FEFECE" filter="url(#fi30gytsvcy8w)" height="91.2188" id="ObjectProcessingNodeOptions" style="stroke:#A80036;stroke-width:1.5;" width="216" x="347.5" y="7"/><ellipse cx="362.5" cy="23" fill="#B4A7E5" rx="11" ry="11" style="stroke:#A80036;stroke-width:1.0;"/><path d="M358.4219,18.7656 L358.4219,16.6094 L365.8125,16.6094 L365.8125,18.7656 L363.3438,18.7656 L363.3438,26.8438 L365.8125,26.8438 L365.8125,29 L358.4219,29 L358.4219,26.8438 L360.8906,26.8438 L360.8906,18.7656 L358.4219,18.7656 Z " fill="#000000"/><text fill="#000000" font-family="sans-serif" font-size="12" font-style="italic" lengthAdjust="spacing" textLength="184" x="376.5" y="27.1543">ObjectProcessingNodeOptions</text><line style="stroke:#A80036;stroke-width:1.5;" x1="348.5" x2="562.5" y1="39" y2="39"/><ellipse cx="358.5" cy="50" rx="3" ry="3" style="stroke:#038048;stroke-width:1.0;fill:none;"/><text fill="#000000" font-family="sans-serif" font-size="11" lengthAdjust="spacing" textLength="121" x="367.5" y="53.2104">frameFilter : Function</text><ellipse cx="358.5" cy="62.8047" rx="3" ry="3" style="stroke:#038048;stroke-width:1.0;fill:none;"/><text fill="#000000" font-family="sans-serif" font-size="11" lengthAdjust="spacing" textLength="77" x="367.5" y="66.0151">name : string</text><ellipse cx="358.5" cy="75.6094" rx="3" ry="3" style="stroke:#038048;stroke-width:1.0;fill:none;"/><text fill="#000000" font-family="sans-serif" font-size="11" lengthAdjust="spacing" textLength="121" x="367.5" y="78.8198">objectFilter : Function</text><ellipse cx="358.5" cy="88.4141" rx="3" ry="3" style="stroke:#038048;stroke-width:1.0;fill:none;"/><text fill="#000000" font-family="sans-serif" font-size="11" lengthAdjust="spacing" textLength="62" x="367.5" y="91.6245">uid : string</text><!--MD5=[c4db96a564bbd1d7ac8a63c7e7bdbb40]
class KalmanFilterOptions--><rect codeLine="17" fill="#FEFECE" filter="url(#fi30gytsvcy8w)" height="155.2422" id="KalmanFilterOptions" style="stroke:#A80036;stroke-width:1.5;" width="155" x="7" y="309"/><ellipse cx="22" cy="325" fill="#B4A7E5" rx="11" ry="11" style="stroke:#A80036;stroke-width:1.0;"/><path d="M17.9219,320.7656 L17.9219,318.6094 L25.3125,318.6094 L25.3125,320.7656 L22.8438,320.7656 L22.8438,328.8438 L25.3125,328.8438 L25.3125,331 L17.9219,331 L17.9219,328.8438 L20.3906,328.8438 L20.3906,320.7656 L17.9219,320.7656 Z " fill="#000000"/><text fill="#000000" font-family="sans-serif" font-size="12" font-style="italic" lengthAdjust="spacing" textLength="123" x="36" y="329.1543">KalmanFilterOptions</text><line style="stroke:#A80036;stroke-width:1.5;" x1="8" x2="161" y1="341" y2="341"/><ellipse cx="18" cy="352" rx="3" ry="3" style="stroke:#038048;stroke-width:1.0;fill:none;"/><text fill="#000000" font-family="sans-serif" font-size="11" lengthAdjust="spacing" textLength="118" x="27" y="355.2104">A : number | Vector3</text><ellipse cx="18" cy="364.8047" rx="3" ry="3" style="stroke:#038048;stroke-width:1.0;fill:none;"/><text fill="#000000" font-family="sans-serif" font-size="11" lengthAdjust="spacing" textLength="119" x="27" y="368.0151">B : number | Vector3</text><ellipse cx="18" cy="377.6094" rx="3" ry="3" style="stroke:#038048;stroke-width:1.0;fill:none;"/><text fill="#000000" font-family="sans-serif" font-size="11" lengthAdjust="spacing" textLength="119" x="27" y="380.8198">C : number | Vector3</text><ellipse cx="18" cy="390.4141" rx="3" ry="3" style="stroke:#038048;stroke-width:1.0;fill:none;"/><text fill="#000000" font-family="sans-serif" font-size="11" lengthAdjust="spacing" textLength="121" x="27" y="393.6245">frameFilter : Function</text><ellipse cx="18" cy="403.2188" rx="3" ry="3" style="stroke:#038048;stroke-width:1.0;fill:none;"/><text fill="#000000" font-family="sans-serif" font-size="11" lengthAdjust="spacing" textLength="77" x="27" y="406.4292">name : string</text><ellipse cx="18" cy="416.0234" rx="3" ry="3" style="stroke:#038048;stroke-width:1.0;fill:none;"/><text fill="#000000" font-family="sans-serif" font-size="11" lengthAdjust="spacing" textLength="121" x="27" y="419.2339">objectFilter : Function</text><ellipse cx="18" cy="428.8281" rx="3" ry="3" style="stroke:#038048;stroke-width:1.0;fill:none;"/><text fill="#000000" font-family="sans-serif" font-size="11" lengthAdjust="spacing" textLength="120" x="27" y="432.0386">Q : number | Vector3</text><ellipse cx="18" cy="441.6328" rx="3" ry="3" style="stroke:#038048;stroke-width:1.0;fill:none;"/><text fill="#000000" font-family="sans-serif" font-size="11" lengthAdjust="spacing" textLength="118" x="27" y="444.8433">R : number | Vector3</text><ellipse cx="18" cy="454.4375" rx="3" ry="3" style="stroke:#038048;stroke-width:1.0;fill:none;"/><text fill="#000000" font-family="sans-serif" font-size="11" lengthAdjust="spacing" textLength="62" x="27" y="457.6479">uid : string</text><!--MD5=[b2b199c0672bc41b9b726c0aa663eb4b]
class LPFilterOptions--><rect codeLine="29" fill="#FEFECE" filter="url(#fi30gytsvcy8w)" height="129.6328" id="LPFilterOptions" style="stroke:#A80036;stroke-width:1.5;" width="149" x="197" y="321.5"/><ellipse cx="223.7" cy="337.5" fill="#B4A7E5" rx="11" ry="11" style="stroke:#A80036;stroke-width:1.0;"/><path d="M219.6219,333.2656 L219.6219,331.1094 L227.0125,331.1094 L227.0125,333.2656 L224.5438,333.2656 L224.5438,341.3438 L227.0125,341.3438 L227.0125,343.5 L219.6219,343.5 L219.6219,341.3438 L222.0906,341.3438 L222.0906,333.2656 L219.6219,333.2656 Z " fill="#000000"/><text fill="#000000" font-family="sans-serif" font-size="12" font-style="italic" lengthAdjust="spacing" textLength="91" x="240.3" y="341.6543">LPFilterOptions</text><line style="stroke:#A80036;stroke-width:1.5;" x1="198" x2="345" y1="353.5" y2="353.5"/><ellipse cx="208" cy="364.5" rx="3" ry="3" style="stroke:#038048;stroke-width:1.0;fill:none;"/><text fill="#000000" font-family="sans-serif" font-size="11" lengthAdjust="spacing" textLength="87" x="217" y="367.7104">alpha : number</text><ellipse cx="208" cy="377.3047" rx="3" ry="3" style="stroke:#038048;stroke-width:1.0;fill:none;"/><text fill="#000000" font-family="sans-serif" font-size="11" lengthAdjust="spacing" textLength="90" x="217" y="380.5151">cutOff : number</text><ellipse cx="208" cy="390.1094" rx="3" ry="3" style="stroke:#038048;stroke-width:1.0;fill:none;"/><text fill="#000000" font-family="sans-serif" font-size="11" lengthAdjust="spacing" textLength="121" x="217" y="393.3198">frameFilter : Function</text><ellipse cx="208" cy="402.9141" rx="3" ry="3" style="stroke:#038048;stroke-width:1.0;fill:none;"/><text fill="#000000" font-family="sans-serif" font-size="11" lengthAdjust="spacing" textLength="77" x="217" y="406.1245">name : string</text><ellipse cx="208" cy="415.7188" rx="3" ry="3" style="stroke:#038048;stroke-width:1.0;fill:none;"/><text fill="#000000" font-family="sans-serif" font-size="11" lengthAdjust="spacing" textLength="121" x="217" y="418.9292">objectFilter : Function</text><ellipse cx="208" cy="428.5234" rx="3" ry="3" style="stroke:#038048;stroke-width:1.0;fill:none;"/><text fill="#000000" font-family="sans-serif" font-size="11" lengthAdjust="spacing" textLength="123" x="217" y="431.7339">sampleRate : number</text><ellipse cx="208" cy="441.3281" rx="3" ry="3" style="stroke:#038048;stroke-width:1.0;fill:none;"/><text fill="#000000" font-family="sans-serif" font-size="11" lengthAdjust="spacing" textLength="62" x="217" y="444.5386">uid : string</text><!--MD5=[cbc93b11530cc764a6c96787e35d9a33]
class HPFilterOptions--><rect codeLine="39" fill="#FEFECE" filter="url(#fi30gytsvcy8w)" height="116.8281" id="HPFilterOptions" style="stroke:#A80036;stroke-width:1.5;" width="149" x="381" y="328"/><ellipse cx="406.8" cy="344" fill="#B4A7E5" rx="11" ry="11" style="stroke:#A80036;stroke-width:1.0;"/><path d="M402.7219,339.7656 L402.7219,337.6094 L410.1125,337.6094 L410.1125,339.7656 L407.6438,339.7656 L407.6438,347.8438 L410.1125,347.8438 L410.1125,350 L402.7219,350 L402.7219,347.8438 L405.1906,347.8438 L405.1906,339.7656 L402.7219,339.7656 Z " fill="#000000"/><text fill="#000000" font-family="sans-serif" font-size="12" font-style="italic" lengthAdjust="spacing" textLength="93" x="423.2" y="348.1543">HPFilterOptions</text><line style="stroke:#A80036;stroke-width:1.5;" x1="382" x2="529" y1="360" y2="360"/><ellipse cx="392" cy="371" rx="3" ry="3" style="stroke:#038048;stroke-width:1.0;fill:none;"/><text fill="#000000" font-family="sans-serif" font-size="11" lengthAdjust="spacing" textLength="90" x="401" y="374.2104">cutOff : number</text><ellipse cx="392" cy="383.8047" rx="3" ry="3" style="stroke:#038048;stroke-width:1.0;fill:none;"/><text fill="#000000" font-family="sans-serif" font-size="11" lengthAdjust="spacing" textLength="121" x="401" y="387.0151">frameFilter : Function</text><ellipse cx="392" cy="396.6094" rx="3" ry="3" style="stroke:#038048;stroke-width:1.0;fill:none;"/><text fill="#000000" font-family="sans-serif" font-size="11" lengthAdjust="spacing" textLength="77" x="401" y="399.8198">name : string</text><ellipse cx="392" cy="409.4141" rx="3" ry="3" style="stroke:#038048;stroke-width:1.0;fill:none;"/><text fill="#000000" font-family="sans-serif" font-size="11" lengthAdjust="spacing" textLength="121" x="401" y="412.6245">objectFilter : Function</text><ellipse cx="392" cy="422.2188" rx="3" ry="3" style="stroke:#038048;stroke-width:1.0;fill:none;"/><text fill="#000000" font-family="sans-serif" font-size="11" lengthAdjust="spacing" textLength="123" x="401" y="425.4292">sampleRate : number</text><ellipse cx="392" cy="435.0234" rx="3" ry="3" style="stroke:#038048;stroke-width:1.0;fill:none;"/><text fill="#000000" font-family="sans-serif" font-size="11" lengthAdjust="spacing" textLength="62" x="401" y="438.2339">uid : string</text><!--MD5=[514b7ac6ca7e8c36a95b27146726fbf9]
class SMAFilterOptions--><rect codeLine="48" fill="#FEFECE" filter="url(#fi30gytsvcy8w)" height="116.8281" id="SMAFilterOptions" style="stroke:#A80036;stroke-width:1.5;" width="147" x="565" y="328"/><ellipse cx="585.4" cy="344" fill="#B4A7E5" rx="11" ry="11" style="stroke:#A80036;stroke-width:1.0;"/><path d="M581.3219,339.7656 L581.3219,337.6094 L588.7125,337.6094 L588.7125,339.7656 L586.2438,339.7656 L586.2438,347.8438 L588.7125,347.8438 L588.7125,350 L581.3219,350 L581.3219,347.8438 L583.7906,347.8438 L583.7906,339.7656 L581.3219,339.7656 Z " fill="#000000"/><text fill="#000000" font-family="sans-serif" font-size="12" font-style="italic" lengthAdjust="spacing" textLength="103" x="600.6" y="348.1543">SMAFilterOptions</text><line style="stroke:#A80036;stroke-width:1.5;" x1="566" x2="711" y1="360" y2="360"/><ellipse cx="576" cy="371" rx="3" ry="3" style="stroke:#038048;stroke-width:1.0;fill:none;"/><text fill="#000000" font-family="sans-serif" font-size="11" lengthAdjust="spacing" textLength="121" x="585" y="374.2104">frameFilter : Function</text><ellipse cx="576" cy="383.8047" rx="3" ry="3" style="stroke:#038048;stroke-width:1.0;fill:none;"/><text fill="#000000" font-family="sans-serif" font-size="11" lengthAdjust="spacing" textLength="105" x="585" y="387.0151">minTaps : number</text><ellipse cx="576" cy="396.6094" rx="3" ry="3" style="stroke:#038048;stroke-width:1.0;fill:none;"/><text fill="#000000" font-family="sans-serif" font-size="11" lengthAdjust="spacing" textLength="77" x="585" y="399.8198">name : string</text><ellipse cx="576" cy="409.4141" rx="3" ry="3" style="stroke:#038048;stroke-width:1.0;fill:none;"/><text fill="#000000" font-family="sans-serif" font-size="11" lengthAdjust="spacing" textLength="121" x="585" y="412.6245">objectFilter : Function</text><ellipse cx="576" cy="422.2188" rx="3" ry="3" style="stroke:#038048;stroke-width:1.0;fill:none;"/><text fill="#000000" font-family="sans-serif" font-size="11" lengthAdjust="spacing" textLength="81" x="585" y="425.4292">taps : number</text><ellipse cx="576" cy="435.0234" rx="3" ry="3" style="stroke:#038048;stroke-width:1.0;fill:none;"/><text fill="#000000" font-family="sans-serif" font-size="11" lengthAdjust="spacing" textLength="62" x="585" y="438.2339">uid : string</text><!--MD5=[8726a706c9d59f336c83f8bb267871ac]
class EMAFilterOptions--><rect codeLine="57" fill="#FEFECE" filter="url(#fi30gytsvcy8w)" height="104.0234" id="EMAFilterOptions" style="stroke:#A80036;stroke-width:1.5;" width="147" x="747" y="334.5"/><ellipse cx="767.4" cy="350.5" fill="#B4A7E5" rx="11" ry="11" style="stroke:#A80036;stroke-width:1.0;"/><path d="M763.3219,346.2656 L763.3219,344.1094 L770.7125,344.1094 L770.7125,346.2656 L768.2438,346.2656 L768.2438,354.3438 L770.7125,354.3438 L770.7125,356.5 L763.3219,356.5 L763.3219,354.3438 L765.7906,354.3438 L765.7906,346.2656 L763.3219,346.2656 Z " fill="#000000"/><text fill="#000000" font-family="sans-serif" font-size="12" font-style="italic" lengthAdjust="spacing" textLength="103" x="782.6" y="354.6543">EMAFilterOptions</text><line style="stroke:#A80036;stroke-width:1.5;" x1="748" x2="893" y1="366.5" y2="366.5"/><ellipse cx="758" cy="377.5" rx="3" ry="3" style="stroke:#038048;stroke-width:1.0;fill:none;"/><text fill="#000000" font-family="sans-serif" font-size="11" lengthAdjust="spacing" textLength="87" x="767" y="380.7104">alpha : number</text><ellipse cx="758" cy="390.3047" rx="3" ry="3" style="stroke:#038048;stroke-width:1.0;fill:none;"/><text fill="#000000" font-family="sans-serif" font-size="11" lengthAdjust="spacing" textLength="121" x="767" y="393.5151">frameFilter : Function</text><ellipse cx="758" cy="403.1094" rx="3" ry="3" style="stroke:#038048;stroke-width:1.0;fill:none;"/><text fill="#000000" font-family="sans-serif" font-size="11" lengthAdjust="spacing" textLength="77" x="767" y="406.3198">name : string</text><ellipse cx="758" cy="415.9141" rx="3" ry="3" style="stroke:#038048;stroke-width:1.0;fill:none;"/><text fill="#000000" font-family="sans-serif" font-size="11" lengthAdjust="spacing" textLength="121" x="767" y="419.1245">objectFilter : Function</text><ellipse cx="758" cy="428.7188" rx="3" ry="3" style="stroke:#038048;stroke-width:1.0;fill:none;"/><text fill="#000000" font-family="sans-serif" font-size="11" lengthAdjust="spacing" textLength="62" x="767" y="431.9292">uid : string</text><!--MD5=[2622f437de93cf02aa23091e84eaf4f2]
reverse link ObjectProcessingNodeOptions to FilterProcessingOptions--><path codeLine="16" d="M455.5,118.49 C455.5,131.76 455.5,145.45 455.5,157.83 " fill="none" id="ObjectProcessingNodeOptions-backto-FilterProcessingOptions" style="stroke:#A80036;stroke-width:1.0;"/><polygon fill="none" points="448.5,118.2,455.5,98.2,462.5,118.2,448.5,118.2" style="stroke:#A80036;stroke-width:1.0;"/><!--MD5=[0c280a02e55ae8b1bee8cf8b8f5cf76b]
reverse link FilterProcessingOptions to KalmanFilterOptions--><path codeLine="28" d="M348.54,236.19 C295.86,253.96 232.45,278.69 179.5,309 C173.71,312.31 167.91,315.97 162.18,319.84 " fill="none" id="FilterProcessingOptions-backto-KalmanFilterOptions" style="stroke:#A80036;stroke-width:1.0;"/><polygon fill="none" points="346.61,229.46,367.79,229.84,350.99,242.75,346.61,229.46" style="stroke:#A80036;stroke-width:1.0;"/><!--MD5=[ed4a6c5e7d849d8ba4d8e76294b3dd30]
reverse link FilterProcessingOptions to LPFilterOptions--><path codeLine="38" d="M395.71,263.32 C376.81,281.9 355.85,302.53 336.6,321.46 " fill="none" id="FilterProcessingOptions-backto-LPFilterOptions" style="stroke:#A80036;stroke-width:1.0;"/><polygon fill="none" points="390.85,258.28,410.02,249.24,400.67,268.26,390.85,258.28" style="stroke:#A80036;stroke-width:1.0;"/><!--MD5=[20d3ecd5d695debc0db424f3f099daea]
reverse link FilterProcessingOptions to HPFilterOptions--><path codeLine="47" d="M455.5,269.51 C455.5,288.6 455.5,309.34 455.5,327.93 " fill="none" id="FilterProcessingOptions-backto-HPFilterOptions" style="stroke:#A80036;stroke-width:1.0;"/><polygon fill="none" points="448.5,269.24,455.5,249.24,462.5,269.24,448.5,269.24" style="stroke:#A80036;stroke-width:1.0;"/><!--MD5=[ca91208510653f6423e467eeeb3d3a74]
reverse link FilterProcessingOptions to SMAFilterOptions--><path codeLine="56" d="M515.1,263.45 C536.02,284.14 559.49,307.35 580.3,327.93 " fill="none" id="FilterProcessingOptions-backto-SMAFilterOptions" style="stroke:#A80036;stroke-width:1.0;"/><polygon fill="none" points="510.03,268.28,500.74,249.24,519.88,258.33,510.03,268.28" style="stroke:#A80036;stroke-width:1.0;"/><!--MD5=[d322b2772fb0a25c8e97ed29276d43dd]
reverse link FilterProcessingOptions to EMAFilterOptions--><path codeLine="64" d="M562.24,235.92 C614.55,253.6 677.34,278.32 729.5,309 C741.78,316.22 754.04,325.11 765.42,334.23 " fill="none" id="FilterProcessingOptions-backto-EMAFilterOptions" style="stroke:#A80036;stroke-width:1.0;"/><polygon fill="none" points="559.92,242.53,543.12,229.61,564.31,229.23,559.92,242.53" style="stroke:#A80036;stroke-width:1.0;"/><!--MD5=[602e9c5413f7e9f72dd0cb6ca6f9f1a0]
@startuml
skinparam BackgroundColor transparent
hide empty methods
hide empty fields
interface "FilterProcessingOptions" {
    +frameFilter : Function
    +name : string
    +objectFilter : Function
    +uid : string
}
interface "ObjectProcessingNodeOptions" {
    +frameFilter : Function
    +name : string
    +objectFilter : Function
    +uid : string
}
"ObjectProcessingNodeOptions" <|- - "FilterProcessingOptions"
interface "KalmanFilterOptions" {
    +A : number | Vector3
    +B : number | Vector3
    +C : number | Vector3
    +frameFilter : Function
    +name : string
    +objectFilter : Function
    +Q : number | Vector3
    +R : number | Vector3
    +uid : string
}
"FilterProcessingOptions" <|- - "KalmanFilterOptions"
interface "LPFilterOptions" {
    +alpha : number
    +cutOff : number
    +frameFilter : Function
    +name : string
    +objectFilter : Function
    +sampleRate : number
    +uid : string
}
"FilterProcessingOptions" <|- - "LPFilterOptions"
interface "HPFilterOptions" {
    +cutOff : number
    +frameFilter : Function
    +name : string
    +objectFilter : Function
    +sampleRate : number
    +uid : string
}
"FilterProcessingOptions" <|- - "HPFilterOptions"
interface "SMAFilterOptions" {
    +frameFilter : Function
    +minTaps : number
    +name : string
    +objectFilter : Function
    +taps : number
    +uid : string
}
"FilterProcessingOptions" <|- - "SMAFilterOptions"
interface "EMAFilterOptions" {
    +alpha : number
    +frameFilter : Function
    +name : string
    +objectFilter : Function
    +uid : string
}
"FilterProcessingOptions" <|- - "EMAFilterOptions"
@enduml

PlantUML version 1.2021.14(Fri Nov 12 16:46:50 UTC 2021)
(GPL source distribution)
Java Runtime: OpenJDK Runtime Environment
JVM: OpenJDK 64-Bit Server VM
Default Encoding: UTF-8
Language: en
Country: null
--></g></svg>