<?xml version="1.0" encoding="us-ascii" standalone="no"?><svg xmlns="http://www.w3.org/2000/svg" xmlns:xlink="http://www.w3.org/1999/xlink" contentStyleType="text/css" height="138px" preserveAspectRatio="none" style="width:266px;height:138px;" version="1.1" viewBox="0 0 266 138" width="266px" zoomAndPan="magnify"><defs/><g><!--class FrameFilterNode<InOut>--><g id="elem_FrameFilterNode&lt;InOut&gt;"><rect codeLine="4" fill="#F1F1F1" height="32" id="FrameFilterNode&lt;InOut&gt;" rx="2.5" ry="2.5" style="stroke:#181818;stroke-width:0.5;" width="206" x="30" y="99"/><ellipse cx="45" cy="115" fill="#ADD1B2" rx="11" ry="11" style="stroke:#181818;stroke-width:1.0;"/><path d="M47.9688,120.6406 Q47.3906,120.9375 46.75,121.0781 Q46.1094,121.2344 45.4063,121.2344 Q42.9063,121.2344 41.5781,119.5938 Q40.2656,117.9375 40.2656,114.8125 Q40.2656,111.6875 41.5781,110.0313 Q42.9063,108.375 45.4063,108.375 Q46.1094,108.375 46.75,108.5313 Q47.4063,108.6875 47.9688,108.9844 L47.9688,111.7031 Q47.3438,111.125 46.75,110.8594 Q46.1563,110.5781 45.5313,110.5781 Q44.1875,110.5781 43.5,111.6563 Q42.8125,112.7188 42.8125,114.8125 Q42.8125,116.9063 43.5,117.9844 Q44.1875,119.0469 45.5313,119.0469 Q46.1563,119.0469 46.75,118.7813 Q47.3438,118.5 47.9688,117.9219 L47.9688,120.6406 Z " fill="#000000"/><text fill="#000000" font-family="sans-serif" font-size="14" lengthAdjust="spacing" textLength="174" x="59" y="119.8467">FrameFilterNode&lt;InOut&gt;</text></g><!--class ProcessingNode<InOut, InOut>--><g id="elem_ProcessingNode&lt;InOut, InOut&gt;"><rect codeLine="6" fill="#F1F1F1" height="32" id="ProcessingNode&lt;InOut, InOut&gt;" rx="2.5" ry="2.5" style="stroke:#181818;stroke-width:0.5;" width="252" x="7" y="7"/><ellipse cx="22" cy="23" fill="#A9DCDF" rx="11" ry="11" style="stroke:#181818;stroke-width:1.0;"/><path d="M22.1094,18.3438 L20.9531,23.4219 L23.2813,23.4219 L22.1094,18.3438 Z M20.625,16.1094 L23.6094,16.1094 L26.9688,28.5 L24.5156,28.5 L23.75,25.4375 L20.4688,25.4375 L19.7188,28.5 L17.2813,28.5 L20.625,16.1094 Z " fill="#000000"/><text fill="#000000" font-family="sans-serif" font-size="14" font-style="italic" lengthAdjust="spacing" textLength="220" x="36" y="27.8467">ProcessingNode&lt;InOut, InOut&gt;</text></g><!--reverse link ProcessingNode<InOut, InOut> to FrameFilterNode<InOut>--><g id="link_ProcessingNode&lt;InOut, InOut&gt;_FrameFilterNode&lt;InOut&gt;"><path codeLine="8" d="M133,59.61 C133,73.31 133,88.22 133,98.96 " fill="none" id="ProcessingNode&lt;InOut, InOut&gt;-backto-FrameFilterNode&lt;InOut&gt;" style="stroke:#181818;stroke-width:1.0;"/><polygon fill="none" points="126,59.27,133,39.27,140,59.27,126,59.27" style="stroke:#181818;stroke-width:1.0;"/></g><!--SRC=[XOqn3i8m34NtdCBgJ6zGCO1KYGMuGfgODcfYLxOx8E3kP42Y2sBz__ttTKwqUF453ZxCe_1AySYP1KmyQQsGp4qf8c1Px0u5RUAes-YMCDSaPAyAJLzbsATiA6UEs9teijg-WOTxEJzerGQ33tiL3gYQQFoYEzWk_Y3Tisr_Nhu1]--></g></svg>