<?xml version="1.0" encoding="us-ascii" standalone="no"?><svg xmlns="http://www.w3.org/2000/svg" xmlns:xlink="http://www.w3.org/1999/xlink" contentStyleType="text/css" height="230px" preserveAspectRatio="none" style="width:491px;height:230px;" version="1.1" viewBox="0 0 491 230" width="491px" zoomAndPan="magnify"><defs/><g><!--class FrameMergeNode<InOut>--><g id="elem_FrameMergeNode&lt;InOut&gt;"><rect codeLine="4" fill="#F1F1F1" height="32" id="FrameMergeNode&lt;InOut&gt;" rx="2.5" ry="2.5" style="stroke:#181818;stroke-width:0.5;" width="217" x="138" y="99"/><ellipse cx="153" cy="115" fill="#ADD1B2" rx="11" ry="11" style="stroke:#181818;stroke-width:1.0;"/><path d="M155.9688,120.6406 Q155.3906,120.9375 154.75,121.0781 Q154.1094,121.2344 153.4063,121.2344 Q150.9063,121.2344 149.5781,119.5938 Q148.2656,117.9375 148.2656,114.8125 Q148.2656,111.6875 149.5781,110.0313 Q150.9063,108.375 153.4063,108.375 Q154.1094,108.375 154.75,108.5313 Q155.4063,108.6875 155.9688,108.9844 L155.9688,111.7031 Q155.3438,111.125 154.75,110.8594 Q154.1563,110.5781 153.5313,110.5781 Q152.1875,110.5781 151.5,111.6563 Q150.8125,112.7188 150.8125,114.8125 Q150.8125,116.9063 151.5,117.9844 Q152.1875,119.0469 153.5313,119.0469 Q154.1563,119.0469 154.75,118.7813 Q155.3438,118.5 155.9688,117.9219 L155.9688,120.6406 Z " fill="#000000"/><text fill="#000000" font-family="sans-serif" font-size="14" lengthAdjust="spacing" textLength="185" x="167" y="119.8467">FrameMergeNode&lt;InOut&gt;</text></g><!--class MergeShape<InOut>--><g id="elem_MergeShape&lt;InOut&gt;"><rect codeLine="6" fill="#F1F1F1" height="32" id="MergeShape&lt;InOut&gt;" rx="2.5" ry="2.5" style="stroke:#181818;stroke-width:0.5;" width="182" x="155.5" y="7"/><ellipse cx="170.5" cy="23" fill="#A9DCDF" rx="11" ry="11" style="stroke:#181818;stroke-width:1.0;"/><path d="M170.6094,18.3438 L169.4531,23.4219 L171.7813,23.4219 L170.6094,18.3438 Z M169.125,16.1094 L172.1094,16.1094 L175.4688,28.5 L173.0156,28.5 L172.25,25.4375 L168.9688,25.4375 L168.2188,28.5 L165.7813,28.5 L169.125,16.1094 Z " fill="#000000"/><text fill="#000000" font-family="sans-serif" font-size="14" font-style="italic" lengthAdjust="spacing" textLength="150" x="184.5" y="27.8467">MergeShape&lt;InOut&gt;</text></g><!--class SourceMergeNode<InOut>--><g id="elem_SourceMergeNode&lt;InOut&gt;"><rect codeLine="9" fill="#F1F1F1" height="32" id="SourceMergeNode&lt;InOut&gt;" rx="2.5" ry="2.5" style="stroke:#181818;stroke-width:0.5;" width="223" x="7" y="191"/><ellipse cx="22" cy="207" fill="#ADD1B2" rx="11" ry="11" style="stroke:#181818;stroke-width:1.0;"/><path d="M24.9688,212.6406 Q24.3906,212.9375 23.75,213.0781 Q23.1094,213.2344 22.4063,213.2344 Q19.9063,213.2344 18.5781,211.5938 Q17.2656,209.9375 17.2656,206.8125 Q17.2656,203.6875 18.5781,202.0313 Q19.9063,200.375 22.4063,200.375 Q23.1094,200.375 23.75,200.5313 Q24.4063,200.6875 24.9688,200.9844 L24.9688,203.7031 Q24.3438,203.125 23.75,202.8594 Q23.1563,202.5781 22.5313,202.5781 Q21.1875,202.5781 20.5,203.6563 Q19.8125,204.7188 19.8125,206.8125 Q19.8125,208.9063 20.5,209.9844 Q21.1875,211.0469 22.5313,211.0469 Q23.1563,211.0469 23.75,210.7813 Q24.3438,210.5 24.9688,209.9219 L24.9688,212.6406 Z " fill="#000000"/><text fill="#000000" font-family="sans-serif" font-size="14" lengthAdjust="spacing" textLength="191" x="36" y="211.8467">SourceMergeNode&lt;InOut&gt;</text></g><!--class ObjectMergeNode<InOut>--><g id="elem_ObjectMergeNode&lt;InOut&gt;"><rect codeLine="12" fill="#F1F1F1" height="32" id="ObjectMergeNode&lt;InOut&gt;" rx="2.5" ry="2.5" style="stroke:#181818;stroke-width:0.5;" width="219" x="265" y="191"/><ellipse cx="280" cy="207" fill="#ADD1B2" rx="11" ry="11" style="stroke:#181818;stroke-width:1.0;"/><path d="M282.9688,212.6406 Q282.3906,212.9375 281.75,213.0781 Q281.1094,213.2344 280.4063,213.2344 Q277.9063,213.2344 276.5781,211.5938 Q275.2656,209.9375 275.2656,206.8125 Q275.2656,203.6875 276.5781,202.0313 Q277.9063,200.375 280.4063,200.375 Q281.1094,200.375 281.75,200.5313 Q282.4063,200.6875 282.9688,200.9844 L282.9688,203.7031 Q282.3438,203.125 281.75,202.8594 Q281.1563,202.5781 280.5313,202.5781 Q279.1875,202.5781 278.5,203.6563 Q277.8125,204.7188 277.8125,206.8125 Q277.8125,208.9063 278.5,209.9844 Q279.1875,211.0469 280.5313,211.0469 Q281.1563,211.0469 281.75,210.7813 Q282.3438,210.5 282.9688,209.9219 L282.9688,212.6406 Z " fill="#000000"/><text fill="#000000" font-family="sans-serif" font-size="14" lengthAdjust="spacing" textLength="187" x="294" y="211.8467">ObjectMergeNode&lt;InOut&gt;</text></g><!--reverse link MergeShape<InOut> to FrameMergeNode<InOut>--><g id="link_MergeShape&lt;InOut&gt;_FrameMergeNode&lt;InOut&gt;"><path codeLine="8" d="M246.5,59.61 C246.5,73.31 246.5,88.22 246.5,98.96 " fill="none" id="MergeShape&lt;InOut&gt;-backto-FrameMergeNode&lt;InOut&gt;" style="stroke:#181818;stroke-width:1.0;"/><polygon fill="none" points="239.5,59.27,246.5,39.27,253.5,59.27,239.5,59.27" style="stroke:#181818;stroke-width:1.0;"/></g><!--reverse link FrameMergeNode<InOut> to SourceMergeNode<InOut>--><g id="link_FrameMergeNode&lt;InOut&gt;_SourceMergeNode&lt;InOut&gt;"><path codeLine="11" d="M208.5,142.72 C186.13,158.45 158.66,177.76 139.99,190.89 " fill="none" id="FrameMergeNode&lt;InOut&gt;-backto-SourceMergeNode&lt;InOut&gt;" style="stroke:#181818;stroke-width:1.0;"/><polygon fill="none" points="204.69,136.84,225.08,131.06,212.74,148.29,204.69,136.84" style="stroke:#181818;stroke-width:1.0;"/></g><!--reverse link FrameMergeNode<InOut> to ObjectMergeNode<InOut>--><g id="link_FrameMergeNode&lt;InOut&gt;_ObjectMergeNode&lt;InOut&gt;"><path codeLine="14" d="M284.5,142.72 C306.87,158.45 334.34,177.76 353.01,190.89 " fill="none" id="FrameMergeNode&lt;InOut&gt;-backto-ObjectMergeNode&lt;InOut&gt;" style="stroke:#181818;stroke-width:1.0;"/><polygon fill="none" points="280.26,148.29,267.92,131.06,288.31,136.84,280.26,148.29" style="stroke:#181818;stroke-width:1.0;"/></g><!--SRC=[dOuz3i8m38NtdiBgtXjK320XCK27di1DJ5EQdofsXmguEn5G2IIoi3v_xtlcSV0JHdImHJNsCSnUxu8D4IIYvtGYBuKPD06vIHPm92Pe_epE0zcKA8lCKEwJZ8uKUpe5JVN1DxDiIhWMzm8xJbOby4QVL6jm-iP-vVMjgdBkTRaDSrIPwTnRBs-ckOgRxa9A_X5dcWy0]--></g></svg>