<?xml version="1.0" encoding="UTF-8" standalone="no"?><svg xmlns="http://www.w3.org/2000/svg" xmlns:xlink="http://www.w3.org/1999/xlink" contentScriptType="application/ecmascript" contentStyleType="text/css" height="145px" preserveAspectRatio="none" style="width:246px;height:145px;background:#00000000;" version="1.1" viewBox="0 0 246 145" width="246px" zoomAndPan="magnify"><defs><filter height="300%" id="f7qa01u5a5fmw" width="300%" x="-1" y="-1"><feGaussianBlur result="blurOut" stdDeviation="2.0"/><feColorMatrix in="blurOut" result="blurOut2" type="matrix" values="0 0 0 0 0 0 0 0 0 0 0 0 0 0 0 0 0 0 .4 0"/><feOffset dx="4.0" dy="4.0" in="blurOut2" result="blurOut3"/><feBlend in="SourceGraphic" in2="blurOut3" mode="normal"/></filter></defs><g><!--MD5=[87757af7630f6a8e22a5a7c1c0bc476c]
class FrameDelayNode<InOut>--><rect codeLine="4" fill="#FEFECE" filter="url(#f7qa01u5a5fmw)" height="32" id="FrameDelayNode&lt;InOut&gt;" style="stroke:#A80036;stroke-width:1.5;" width="191" x="24" y="99"/><ellipse cx="39" cy="115" fill="#ADD1B2" rx="11" ry="11" style="stroke:#A80036;stroke-width:1.0;"/><path d="M41.9688,120.6406 Q41.3906,120.9375 40.75,121.0781 Q40.1094,121.2344 39.4063,121.2344 Q36.9063,121.2344 35.5781,119.5938 Q34.2656,117.9375 34.2656,114.8125 Q34.2656,111.6875 35.5781,110.0313 Q36.9063,108.375 39.4063,108.375 Q40.1094,108.375 40.75,108.5313 Q41.4063,108.6875 41.9688,108.9844 L41.9688,111.7031 Q41.3438,111.125 40.75,110.8594 Q40.1563,110.5781 39.5313,110.5781 Q38.1875,110.5781 37.5,111.6563 Q36.8125,112.7188 36.8125,114.8125 Q36.8125,116.9063 37.5,117.9844 Q38.1875,119.0469 39.5313,119.0469 Q40.1563,119.0469 40.75,118.7813 Q41.3438,118.5 41.9688,117.9219 L41.9688,120.6406 Z " fill="#000000"/><text fill="#000000" font-family="sans-serif" font-size="12" lengthAdjust="spacing" textLength="159" x="53" y="119.1543">FrameDelayNode&lt;InOut&gt;</text><!--MD5=[135c2d0e6265299568c7bceea7232ff0]
class ProcessingNode<InOut, InOut>--><rect codeLine="6" fill="#FEFECE" filter="url(#f7qa01u5a5fmw)" height="32" id="ProcessingNode&lt;InOut, InOut&gt;" style="stroke:#A80036;stroke-width:1.5;" width="225" x="7" y="7"/><ellipse cx="22" cy="23" fill="#A9DCDF" rx="11" ry="11" style="stroke:#A80036;stroke-width:1.0;"/><path d="M22.1094,18.3438 L20.9531,23.4219 L23.2813,23.4219 L22.1094,18.3438 Z M20.625,16.1094 L23.6094,16.1094 L26.9688,28.5 L24.5156,28.5 L23.75,25.4375 L20.4688,25.4375 L19.7188,28.5 L17.2813,28.5 L20.625,16.1094 Z " fill="#000000"/><text fill="#000000" font-family="sans-serif" font-size="12" font-style="italic" lengthAdjust="spacing" textLength="193" x="36" y="27.1543">ProcessingNode&lt;InOut, InOut&gt;</text><!--MD5=[936d941edb2adecb32384f1794ad58af]
reverse link ProcessingNode<InOut, InOut> to FrameDelayNode<InOut>--><path codeLine="8" d="M119.5,59.61 C119.5,73.31 119.5,88.22 119.5,98.96 " fill="none" id="ProcessingNode&lt;InOut, InOut&gt;-backto-FrameDelayNode&lt;InOut&gt;" style="stroke:#A80036;stroke-width:1.0;"/><polygon fill="none" points="112.5,59.27,119.5,39.27,126.5,59.27,112.5,59.27" style="stroke:#A80036;stroke-width:1.0;"/><!--MD5=[a6b76b9f2bc058ffcd88a5250c63937c]
@startuml
skinparam BackgroundColor transparent
hide empty methods
hide empty fields
class "FrameDelayNode<InOut>" {
}
abstract class "ProcessingNode<InOut, InOut>" {
}
"ProcessingNode<InOut, InOut>" <|- - "FrameDelayNode<InOut>"
@enduml

PlantUML version 1.2021.14(Fri Nov 12 16:46:50 UTC 2021)
(GPL source distribution)
Java Runtime: OpenJDK Runtime Environment
JVM: OpenJDK 64-Bit Server VM
Default Encoding: UTF-8
Language: en
Country: null
--></g></svg>