<?xml version="1.0" encoding="us-ascii" standalone="no"?><svg xmlns="http://www.w3.org/2000/svg" xmlns:xlink="http://www.w3.org/1999/xlink" contentStyleType="text/css" height="138px" preserveAspectRatio="none" style="width:232px;height:138px;" version="1.1" viewBox="0 0 232 138" width="232px" zoomAndPan="magnify"><defs/><g><!--class FrameChunkNode<InOut>--><g id="elem_FrameChunkNode&lt;InOut&gt;"><rect codeLine="4" fill="#F1F1F1" height="32" id="FrameChunkNode&lt;InOut&gt;" rx="2.5" ry="2.5" style="stroke:#181818;stroke-width:0.5;" width="218" x="7" y="99"/><ellipse cx="22" cy="115" fill="#ADD1B2" rx="11" ry="11" style="stroke:#181818;stroke-width:1.0;"/><path d="M24.9688,120.6406 Q24.3906,120.9375 23.75,121.0781 Q23.1094,121.2344 22.4063,121.2344 Q19.9063,121.2344 18.5781,119.5938 Q17.2656,117.9375 17.2656,114.8125 Q17.2656,111.6875 18.5781,110.0313 Q19.9063,108.375 22.4063,108.375 Q23.1094,108.375 23.75,108.5313 Q24.4063,108.6875 24.9688,108.9844 L24.9688,111.7031 Q24.3438,111.125 23.75,110.8594 Q23.1563,110.5781 22.5313,110.5781 Q21.1875,110.5781 20.5,111.6563 Q19.8125,112.7188 19.8125,114.8125 Q19.8125,116.9063 20.5,117.9844 Q21.1875,119.0469 22.5313,119.0469 Q23.1563,119.0469 23.75,118.7813 Q24.3438,118.5 24.9688,117.9219 L24.9688,120.6406 Z " fill="#000000"/><text fill="#000000" font-family="sans-serif" font-size="14" lengthAdjust="spacing" textLength="186" x="36" y="119.8467">FrameChunkNode&lt;InOut&gt;</text></g><!--class Node<InOut, InOut>--><g id="elem_Node&lt;InOut, InOut&gt;"><rect codeLine="6" fill="#F1F1F1" height="32" id="Node&lt;InOut, InOut&gt;" rx="2.5" ry="2.5" style="stroke:#181818;stroke-width:0.5;" width="175" x="28.5" y="7"/><ellipse cx="43.5" cy="23" fill="#ADD1B2" rx="11" ry="11" style="stroke:#181818;stroke-width:1.0;"/><path d="M46.4688,28.6406 Q45.8906,28.9375 45.25,29.0781 Q44.6094,29.2344 43.9063,29.2344 Q41.4063,29.2344 40.0781,27.5938 Q38.7656,25.9375 38.7656,22.8125 Q38.7656,19.6875 40.0781,18.0313 Q41.4063,16.375 43.9063,16.375 Q44.6094,16.375 45.25,16.5313 Q45.9063,16.6875 46.4688,16.9844 L46.4688,19.7031 Q45.8438,19.125 45.25,18.8594 Q44.6563,18.5781 44.0313,18.5781 Q42.6875,18.5781 42,19.6563 Q41.3125,20.7188 41.3125,22.8125 Q41.3125,24.9063 42,25.9844 Q42.6875,27.0469 44.0313,27.0469 Q44.6563,27.0469 45.25,26.7813 Q45.8438,26.5 46.4688,25.9219 L46.4688,28.6406 Z " fill="#000000"/><text fill="#000000" font-family="sans-serif" font-size="14" lengthAdjust="spacing" textLength="143" x="57.5" y="27.8467">Node&lt;InOut, InOut&gt;</text></g><!--reverse link Node<InOut, InOut> to FrameChunkNode<InOut>--><g id="link_Node&lt;InOut, InOut&gt;_FrameChunkNode&lt;InOut&gt;"><path codeLine="8" d="M116,59.61 C116,73.31 116,88.22 116,98.96 " fill="none" id="Node&lt;InOut, InOut&gt;-backto-FrameChunkNode&lt;InOut&gt;" style="stroke:#181818;stroke-width:1.0;"/><polygon fill="none" points="109,59.27,116,39.27,123,59.27,109,59.27" style="stroke:#181818;stroke-width:1.0;"/></g><!--SRC=[AyxEp2j8B4hCLN1AJCvEByelpKjnpi_9Br8eAKhCAmPAfUQLS6LafgGgfEOMb5GgvAQMPEId52CBfMMcvW15adCIYuiLbDo0XgKwPvJcPVlbfwJQUERvbvROAIbKSzN2L234THIGfR5AsDJewk8o5000]--></g></svg>