<?xml version="1.0" encoding="us-ascii" standalone="no"?><svg xmlns="http://www.w3.org/2000/svg" xmlns:xlink="http://www.w3.org/1999/xlink" contentStyleType="text/css" height="138px" preserveAspectRatio="none" style="width:266px;height:138px;" version="1.1" viewBox="0 0 266 138" width="266px" zoomAndPan="magnify"><defs/><g><!--class FrameDelayNode<InOut>--><g id="elem_FrameDelayNode&lt;InOut&gt;"><rect codeLine="4" fill="#F1F1F1" height="32" id="FrameDelayNode&lt;InOut&gt;" rx="2.5" ry="2.5" style="stroke:#181818;stroke-width:0.5;" width="211" x="27.5" y="99"/><ellipse cx="42.5" cy="115" fill="#ADD1B2" rx="11" ry="11" style="stroke:#181818;stroke-width:1.0;"/><path d="M45.4688,120.6406 Q44.8906,120.9375 44.25,121.0781 Q43.6094,121.2344 42.9063,121.2344 Q40.4063,121.2344 39.0781,119.5938 Q37.7656,117.9375 37.7656,114.8125 Q37.7656,111.6875 39.0781,110.0313 Q40.4063,108.375 42.9063,108.375 Q43.6094,108.375 44.25,108.5313 Q44.9063,108.6875 45.4688,108.9844 L45.4688,111.7031 Q44.8438,111.125 44.25,110.8594 Q43.6563,110.5781 43.0313,110.5781 Q41.6875,110.5781 41,111.6563 Q40.3125,112.7188 40.3125,114.8125 Q40.3125,116.9063 41,117.9844 Q41.6875,119.0469 43.0313,119.0469 Q43.6563,119.0469 44.25,118.7813 Q44.8438,118.5 45.4688,117.9219 L45.4688,120.6406 Z " fill="#000000"/><text fill="#000000" font-family="sans-serif" font-size="14" lengthAdjust="spacing" textLength="179" x="56.5" y="119.8467">FrameDelayNode&lt;InOut&gt;</text></g><!--class ProcessingNode<InOut, InOut>--><g id="elem_ProcessingNode&lt;InOut, InOut&gt;"><rect codeLine="6" fill="#F1F1F1" height="32" id="ProcessingNode&lt;InOut, InOut&gt;" rx="2.5" ry="2.5" style="stroke:#181818;stroke-width:0.5;" width="252" x="7" y="7"/><ellipse cx="22" cy="23" fill="#A9DCDF" rx="11" ry="11" style="stroke:#181818;stroke-width:1.0;"/><path d="M22.1094,18.3438 L20.9531,23.4219 L23.2813,23.4219 L22.1094,18.3438 Z M20.625,16.1094 L23.6094,16.1094 L26.9688,28.5 L24.5156,28.5 L23.75,25.4375 L20.4688,25.4375 L19.7188,28.5 L17.2813,28.5 L20.625,16.1094 Z " fill="#000000"/><text fill="#000000" font-family="sans-serif" font-size="14" font-style="italic" lengthAdjust="spacing" textLength="220" x="36" y="27.8467">ProcessingNode&lt;InOut, InOut&gt;</text></g><!--reverse link ProcessingNode<InOut, InOut> to FrameDelayNode<InOut>--><g id="link_ProcessingNode&lt;InOut, InOut&gt;_FrameDelayNode&lt;InOut&gt;"><path codeLine="8" d="M133,59.61 C133,73.31 133,88.22 133,98.96 " fill="none" id="ProcessingNode&lt;InOut, InOut&gt;-backto-FrameDelayNode&lt;InOut&gt;" style="stroke:#181818;stroke-width:1.0;"/><polygon fill="none" points="126,59.27,133,39.27,140,59.27,126,59.27" style="stroke:#181818;stroke-width:1.0;"/></g><!--SRC=[XOqn3i8m34NtdCBgJ6zGCG12OW6kO1BJHatiAdQ72hWx6P3eWbZ_V_zz7IDFM3333ltO5vavx2L90Il8MYjYSqCC19GdMo2J3H9q7TqZfPhuXAhG7AkC3fHmEKkWxiINsRODFDpBuKshrHjyq6iHJwgH-o-wWVNY3z8zs_RNuni0]--></g></svg>