<?xml version="1.0" encoding="UTF-8" standalone="no"?><svg xmlns="http://www.w3.org/2000/svg" xmlns:xlink="http://www.w3.org/1999/xlink" contentScriptType="application/ecmascript" contentStyleType="text/css" height="237px" preserveAspectRatio="none" style="width:454px;height:237px;background:#00000000;" version="1.1" viewBox="0 0 454 237" width="454px" zoomAndPan="magnify"><defs><filter height="300%" id="f929vyt9e5gyk" width="300%" x="-1" y="-1"><feGaussianBlur result="blurOut" stdDeviation="2.0"/><feColorMatrix in="blurOut" result="blurOut2" type="matrix" values="0 0 0 0 0 0 0 0 0 0 0 0 0 0 0 0 0 0 .4 0"/><feOffset dx="4.0" dy="4.0" in="blurOut2" result="blurOut3"/><feBlend in="SourceGraphic" in2="blurOut3" mode="normal"/></filter></defs><g><!--MD5=[141a2e6d8ea8a7e5d43ad004068c18c9]
class FrameMergeNode<InOut>--><rect codeLine="4" fill="#FEFECE" filter="url(#f929vyt9e5gyk)" height="32" id="FrameMergeNode&lt;InOut&gt;" style="stroke:#A80036;stroke-width:1.5;" width="196" x="126.5" y="99"/><ellipse cx="141.5" cy="115" fill="#ADD1B2" rx="11" ry="11" style="stroke:#A80036;stroke-width:1.0;"/><path d="M144.4688,120.6406 Q143.8906,120.9375 143.25,121.0781 Q142.6094,121.2344 141.9063,121.2344 Q139.4063,121.2344 138.0781,119.5938 Q136.7656,117.9375 136.7656,114.8125 Q136.7656,111.6875 138.0781,110.0313 Q139.4063,108.375 141.9063,108.375 Q142.6094,108.375 143.25,108.5313 Q143.9063,108.6875 144.4688,108.9844 L144.4688,111.7031 Q143.8438,111.125 143.25,110.8594 Q142.6563,110.5781 142.0313,110.5781 Q140.6875,110.5781 140,111.6563 Q139.3125,112.7188 139.3125,114.8125 Q139.3125,116.9063 140,117.9844 Q140.6875,119.0469 142.0313,119.0469 Q142.6563,119.0469 143.25,118.7813 Q143.8438,118.5 144.4688,117.9219 L144.4688,120.6406 Z " fill="#000000"/><text fill="#000000" font-family="sans-serif" font-size="12" lengthAdjust="spacing" textLength="164" x="155.5" y="119.1543">FrameMergeNode&lt;InOut&gt;</text><!--MD5=[4a4367315437d3589fad77aa170f6467]
class MergeShape<InOut>--><rect codeLine="6" fill="#FEFECE" filter="url(#f929vyt9e5gyk)" height="32" id="MergeShape&lt;InOut&gt;" style="stroke:#A80036;stroke-width:1.5;" width="164" x="142.5" y="7"/><ellipse cx="157.5" cy="23" fill="#A9DCDF" rx="11" ry="11" style="stroke:#A80036;stroke-width:1.0;"/><path d="M157.6094,18.3438 L156.4531,23.4219 L158.7813,23.4219 L157.6094,18.3438 Z M156.125,16.1094 L159.1094,16.1094 L162.4688,28.5 L160.0156,28.5 L159.25,25.4375 L155.9688,25.4375 L155.2188,28.5 L152.7813,28.5 L156.125,16.1094 Z " fill="#000000"/><text fill="#000000" font-family="sans-serif" font-size="12" font-style="italic" lengthAdjust="spacing" textLength="132" x="171.5" y="27.1543">MergeShape&lt;InOut&gt;</text><!--MD5=[e0dda5b5009bac63810322092742ad9b]
class SourceMergeNode<InOut>--><rect codeLine="9" fill="#FEFECE" filter="url(#f929vyt9e5gyk)" height="32" id="SourceMergeNode&lt;InOut&gt;" style="stroke:#A80036;stroke-width:1.5;" width="201" x="7" y="191"/><ellipse cx="22" cy="207" fill="#ADD1B2" rx="11" ry="11" style="stroke:#A80036;stroke-width:1.0;"/><path d="M24.9688,212.6406 Q24.3906,212.9375 23.75,213.0781 Q23.1094,213.2344 22.4063,213.2344 Q19.9063,213.2344 18.5781,211.5938 Q17.2656,209.9375 17.2656,206.8125 Q17.2656,203.6875 18.5781,202.0313 Q19.9063,200.375 22.4063,200.375 Q23.1094,200.375 23.75,200.5313 Q24.4063,200.6875 24.9688,200.9844 L24.9688,203.7031 Q24.3438,203.125 23.75,202.8594 Q23.1563,202.5781 22.5313,202.5781 Q21.1875,202.5781 20.5,203.6563 Q19.8125,204.7188 19.8125,206.8125 Q19.8125,208.9063 20.5,209.9844 Q21.1875,211.0469 22.5313,211.0469 Q23.1563,211.0469 23.75,210.7813 Q24.3438,210.5 24.9688,209.9219 L24.9688,212.6406 Z " fill="#000000"/><text fill="#000000" font-family="sans-serif" font-size="12" lengthAdjust="spacing" textLength="169" x="36" y="211.1543">SourceMergeNode&lt;InOut&gt;</text><!--MD5=[943b477b6036b84e9a15595886afebc3]
class ObjectMergeNode<InOut>--><rect codeLine="12" fill="#FEFECE" filter="url(#f929vyt9e5gyk)" height="32" id="ObjectMergeNode&lt;InOut&gt;" style="stroke:#A80036;stroke-width:1.5;" width="197" x="243" y="191"/><ellipse cx="258" cy="207" fill="#ADD1B2" rx="11" ry="11" style="stroke:#A80036;stroke-width:1.0;"/><path d="M260.9688,212.6406 Q260.3906,212.9375 259.75,213.0781 Q259.1094,213.2344 258.4063,213.2344 Q255.9063,213.2344 254.5781,211.5938 Q253.2656,209.9375 253.2656,206.8125 Q253.2656,203.6875 254.5781,202.0313 Q255.9063,200.375 258.4063,200.375 Q259.1094,200.375 259.75,200.5313 Q260.4063,200.6875 260.9688,200.9844 L260.9688,203.7031 Q260.3438,203.125 259.75,202.8594 Q259.1563,202.5781 258.5313,202.5781 Q257.1875,202.5781 256.5,203.6563 Q255.8125,204.7188 255.8125,206.8125 Q255.8125,208.9063 256.5,209.9844 Q257.1875,211.0469 258.5313,211.0469 Q259.1563,211.0469 259.75,210.7813 Q260.3438,210.5 260.9688,209.9219 L260.9688,212.6406 Z " fill="#000000"/><text fill="#000000" font-family="sans-serif" font-size="12" lengthAdjust="spacing" textLength="165" x="272" y="211.1543">ObjectMergeNode&lt;InOut&gt;</text><!--MD5=[0fe2b73e9fa80cd0b5faba91cf947f0d]
reverse link MergeShape<InOut> to FrameMergeNode<InOut>--><path codeLine="8" d="M224.5,59.61 C224.5,73.31 224.5,88.22 224.5,98.96 " fill="none" id="MergeShape&lt;InOut&gt;-backto-FrameMergeNode&lt;InOut&gt;" style="stroke:#A80036;stroke-width:1.0;"/><polygon fill="none" points="217.5,59.27,224.5,39.27,231.5,59.27,217.5,59.27" style="stroke:#A80036;stroke-width:1.0;"/><!--MD5=[80b56218ef3a1088f53f8bc211857585]
reverse link FrameMergeNode<InOut> to SourceMergeNode<InOut>--><path codeLine="11" d="M188.85,143.42 C168.57,159.02 143.96,177.96 127.15,190.89 " fill="none" id="FrameMergeNode&lt;InOut&gt;-backto-SourceMergeNode&lt;InOut&gt;" style="stroke:#A80036;stroke-width:1.0;"/><polygon fill="none" points="184.8,137.71,204.92,131.06,193.33,148.81,184.8,137.71" style="stroke:#A80036;stroke-width:1.0;"/><!--MD5=[f341d586a20787445b2ac3a17c08cbc1]
reverse link FrameMergeNode<InOut> to ObjectMergeNode<InOut>--><path codeLine="14" d="M260.15,143.42 C280.43,159.02 305.04,177.96 321.85,190.89 " fill="none" id="FrameMergeNode&lt;InOut&gt;-backto-ObjectMergeNode&lt;InOut&gt;" style="stroke:#A80036;stroke-width:1.0;"/><polygon fill="none" points="255.67,148.81,244.08,131.06,264.2,137.71,255.67,148.81" style="stroke:#A80036;stroke-width:1.0;"/><!--MD5=[a1293a3759b1f270f5cc319939887856]
@startuml
skinparam BackgroundColor transparent
hide empty methods
hide empty fields
class "FrameMergeNode<InOut>" {
}
abstract class "MergeShape<InOut>" {
}
"MergeShape<InOut>" <|- - "FrameMergeNode<InOut>"
class "SourceMergeNode<InOut>" {
}
"FrameMergeNode<InOut>" <|- - "SourceMergeNode<InOut>"
class "ObjectMergeNode<InOut>" {
}
"FrameMergeNode<InOut>" <|- - "ObjectMergeNode<InOut>"
@enduml

PlantUML version 1.2021.14(Fri Nov 12 16:46:50 UTC 2021)
(GPL source distribution)
Java Runtime: OpenJDK Runtime Environment
JVM: OpenJDK 64-Bit Server VM
Default Encoding: UTF-8
Language: en
Country: null
--></g></svg>