<?xml version="1.0" encoding="UTF-8" standalone="no"?><svg xmlns="http://www.w3.org/2000/svg" xmlns:xlink="http://www.w3.org/1999/xlink" contentScriptType="application/ecmascript" contentStyleType="text/css" height="225px" preserveAspectRatio="none" style="width:173px;height:225px;background:#00000000;" version="1.1" viewBox="0 0 173 225" width="173px" zoomAndPan="magnify"><defs><filter height="300%" id="fhwqt9blfarz0" width="300%" x="-1" y="-1"><feGaussianBlur result="blurOut" stdDeviation="2.0"/><feColorMatrix in="blurOut" result="blurOut2" type="matrix" values="0 0 0 0 0 0 0 0 0 0 0 0 0 0 0 0 0 0 .4 0"/><feOffset dx="4.0" dy="4.0" in="blurOut2" result="blurOut3"/><feBlend in="SourceGraphic" in2="blurOut3" mode="normal"/></filter></defs><g><!--MD5=[f8be001ca6bb3f5272d1538c9e48ab28]
class FrameCloneOptions--><rect codeLine="4" fill="#FEFECE" filter="url(#fhwqt9blfarz0)" height="78.4141" id="FrameCloneOptions" style="stroke:#A80036;stroke-width:1.5;" width="152" x="7" y="133"/><ellipse cx="22" cy="149" fill="#B4A7E5" rx="11" ry="11" style="stroke:#A80036;stroke-width:1.0;"/><path d="M17.9219,144.7656 L17.9219,142.6094 L25.3125,142.6094 L25.3125,144.7656 L22.8438,144.7656 L22.8438,152.8438 L25.3125,152.8438 L25.3125,155 L17.9219,155 L17.9219,152.8438 L20.3906,152.8438 L20.3906,144.7656 L17.9219,144.7656 Z " fill="#000000"/><text fill="#000000" font-family="sans-serif" font-size="12" font-style="italic" lengthAdjust="spacing" textLength="120" x="36" y="153.1543">FrameCloneOptions</text><line style="stroke:#A80036;stroke-width:1.5;" x1="8" x2="158" y1="165" y2="165"/><ellipse cx="18" cy="176" rx="3" ry="3" style="stroke:#038048;stroke-width:1.0;fill:none;"/><text fill="#000000" font-family="sans-serif" font-size="11" lengthAdjust="spacing" textLength="77" x="27" y="179.2104">name : string</text><ellipse cx="18" cy="188.8047" rx="3" ry="3" style="stroke:#038048;stroke-width:1.0;fill:none;"/><text fill="#000000" font-family="sans-serif" font-size="11" lengthAdjust="spacing" textLength="95" x="27" y="192.0151">repack : boolean</text><ellipse cx="18" cy="201.6094" rx="3" ry="3" style="stroke:#038048;stroke-width:1.0;fill:none;"/><text fill="#000000" font-family="sans-serif" font-size="11" lengthAdjust="spacing" textLength="62" x="27" y="204.8198">uid : string</text><!--MD5=[680d5112d2c67c3de15744b0ad7e4a6c]
class NodeOptions--><rect codeLine="9" fill="#FEFECE" filter="url(#fhwqt9blfarz0)" height="65.6094" id="NodeOptions" style="stroke:#A80036;stroke-width:1.5;" width="111" x="27.5" y="7"/><ellipse cx="42.5" cy="23" fill="#B4A7E5" rx="11" ry="11" style="stroke:#A80036;stroke-width:1.0;"/><path d="M38.4219,18.7656 L38.4219,16.6094 L45.8125,16.6094 L45.8125,18.7656 L43.3438,18.7656 L43.3438,26.8438 L45.8125,26.8438 L45.8125,29 L38.4219,29 L38.4219,26.8438 L40.8906,26.8438 L40.8906,18.7656 L38.4219,18.7656 Z " fill="#000000"/><text fill="#000000" font-family="sans-serif" font-size="12" font-style="italic" lengthAdjust="spacing" textLength="79" x="56.5" y="27.1543">NodeOptions</text><line style="stroke:#A80036;stroke-width:1.5;" x1="28.5" x2="137.5" y1="39" y2="39"/><ellipse cx="38.5" cy="50" rx="3" ry="3" style="stroke:#038048;stroke-width:1.0;fill:none;"/><text fill="#000000" font-family="sans-serif" font-size="11" lengthAdjust="spacing" textLength="77" x="47.5" y="53.2104">name : string</text><ellipse cx="38.5" cy="62.8047" rx="3" ry="3" style="stroke:#038048;stroke-width:1.0;fill:none;"/><text fill="#000000" font-family="sans-serif" font-size="11" lengthAdjust="spacing" textLength="62" x="47.5" y="66.0151">uid : string</text><!--MD5=[3c50e1200fd005beb74a42a1218deb82]
reverse link NodeOptions to FrameCloneOptions--><path codeLine="13" d="M83,93.51 C83,106.64 83,120.47 83,132.76 " fill="none" id="NodeOptions-backto-FrameCloneOptions" style="stroke:#A80036;stroke-width:1.0;"/><polygon fill="none" points="76,93.13,83,73.13,90,93.13,76,93.13" style="stroke:#A80036;stroke-width:1.0;"/><!--MD5=[c143c1b74fdb8f258a105ddb3de677ae]
@startuml
skinparam BackgroundColor transparent
hide empty methods
hide empty fields
interface "FrameCloneOptions" {
    +name : string
    +repack : boolean
    +uid : string
}
interface "NodeOptions" {
    +name : string
    +uid : string
}
"NodeOptions" <|- - "FrameCloneOptions"
@enduml

PlantUML version 1.2021.14(Fri Nov 12 16:46:50 UTC 2021)
(GPL source distribution)
Java Runtime: OpenJDK Runtime Environment
JVM: OpenJDK 64-Bit Server VM
Default Encoding: UTF-8
Language: en
Country: null
--></g></svg>