<?xml version="1.0" encoding="UTF-8" standalone="no"?><svg xmlns="http://www.w3.org/2000/svg" xmlns:xlink="http://www.w3.org/1999/xlink" contentScriptType="application/ecmascript" contentStyleType="text/css" height="560px" preserveAspectRatio="none" style="width:735px;height:560px;background:#00000000;" version="1.1" viewBox="0 0 735 560" width="735px" zoomAndPan="magnify"><defs><filter height="300%" id="f1mg07y4md5a5r" width="300%" x="-1" y="-1"><feGaussianBlur result="blurOut" stdDeviation="2.0"/><feColorMatrix in="blurOut" result="blurOut2" type="matrix" values="0 0 0 0 0 0 0 0 0 0 0 0 0 0 0 0 0 0 .4 0"/><feOffset dx="4.0" dy="4.0" in="blurOut2" result="blurOut3"/><feBlend in="SourceGraphic" in2="blurOut3" mode="normal"/></filter></defs><g><!--MD5=[731ace5b4c0b312584f561ded23a1ed3]
class GeographicalPosition--><rect codeLine="4" fill="#FEFECE" filter="url(#f1mg07y4md5a5r)" height="265.6797" id="GeographicalPosition" style="stroke:#A80036;stroke-width:1.5;" width="712" x="9" y="281"/><ellipse cx="294.25" cy="297" fill="#ADD1B2" rx="11" ry="11" style="stroke:#A80036;stroke-width:1.0;"/><path d="M297.2188,302.6406 Q296.6406,302.9375 296,303.0781 Q295.3594,303.2344 294.6563,303.2344 Q292.1563,303.2344 290.8281,301.5938 Q289.5156,299.9375 289.5156,296.8125 Q289.5156,293.6875 290.8281,292.0313 Q292.1563,290.375 294.6563,290.375 Q295.3594,290.375 296,290.5313 Q296.6563,290.6875 297.2188,290.9844 L297.2188,293.7031 Q296.5938,293.125 296,292.8594 Q295.4063,292.5781 294.7813,292.5781 Q293.4375,292.5781 292.75,293.6563 Q292.0625,294.7188 292.0625,296.8125 Q292.0625,298.9063 292.75,299.9844 Q293.4375,301.0469 294.7813,301.0469 Q295.4063,301.0469 296,300.7813 Q296.5938,300.5 297.2188,299.9219 L297.2188,302.6406 Z " fill="#000000"/><text fill="#000000" font-family="sans-serif" font-size="12" lengthAdjust="spacing" textLength="133" x="314.75" y="301.1543">GeographicalPosition</text><line style="stroke:#A80036;stroke-width:1.5;" x1="10" x2="720" y1="313" y2="313"/><ellipse cx="20" cy="324" rx="3" ry="3" style="stroke:#038048;stroke-width:1.0;fill:none;"/><text fill="#000000" font-family="sans-serif" font-size="11" lengthAdjust="spacing" textLength="136" x="29" y="327.2104">orientation : Orientation</text><ellipse cx="20" cy="336.8047" rx="3" ry="3" style="stroke:#038048;stroke-width:1.0;fill:none;"/><text fill="#000000" font-family="sans-serif" font-size="11" lengthAdjust="spacing" textLength="154" x="29" y="340.0151">referenceSpaceUID : string</text><ellipse cx="20" cy="349.6094" rx="3" ry="3" style="stroke:#038048;stroke-width:1.0;fill:none;"/><text fill="#000000" font-family="sans-serif" font-size="11" lengthAdjust="spacing" textLength="117" x="29" y="352.8198">timestamp : number</text><ellipse cx="20" cy="362.4141" rx="3" ry="3" style="stroke:#038048;stroke-width:1.0;fill:none;"/><text fill="#000000" font-family="sans-serif" font-size="11" lengthAdjust="spacing" textLength="93" x="29" y="365.6245">unit : LengthUnit</text><ellipse cx="20" cy="375.2188" rx="3" ry="3" style="stroke:#038048;stroke-width:1.0;fill:none;"/><text fill="#000000" font-family="sans-serif" font-size="11" lengthAdjust="spacing" textLength="97" x="29" y="378.4292">velocity : Velocity</text><polygon fill="none" points="20,383.0234,24,387.0234,20,391.0234,16,387.0234" style="stroke:#B38D22;stroke-width:1.0;"/><text fill="#000000" font-family="sans-serif" font-size="11" lengthAdjust="spacing" textLength="90" x="29" y="391.2339">vector : Vector3</text><line style="stroke:#A80036;stroke-width:1.5;" x1="10" x2="720" y1="397.8281" y2="397.8281"/><ellipse cx="20" cy="408.8281" fill="#84BE84" rx="3" ry="3" style="stroke:#038048;stroke-width:1.0;"/><text fill="#000000" font-family="sans-serif" font-size="11" lengthAdjust="spacing" textLength="300" x="29" y="412.0386">angleTo(destination: GeographicalPosition) : number</text><ellipse cx="20" cy="421.6328" fill="#84BE84" rx="3" ry="3" style="stroke:#038048;stroke-width:1.0;"/><text fill="#000000" font-family="sans-serif" font-size="11" lengthAdjust="spacing" textLength="298" x="29" y="424.8433">bearing(destination: GeographicalPosition) : number</text><ellipse cx="20" cy="434.4375" fill="#84BE84" rx="3" ry="3" style="stroke:#038048;stroke-width:1.0;"/><text fill="#000000" font-family="sans-serif" font-size="11" lengthAdjust="spacing" textLength="170" x="29" y="437.6479">clone() : GeographicalPosition</text><ellipse cx="20" cy="447.2422" fill="#84BE84" rx="3" ry="3" style="stroke:#038048;stroke-width:1.0;"/><text fill="#000000" font-family="sans-serif" font-size="11" lengthAdjust="spacing" textLength="686" x="29" y="450.4526">destination(bearing: number, distance: number, bearingUnit: AngleUnit, distanceUnit: LengthUnit) : GeographicalPosition</text><ellipse cx="20" cy="460.0469" fill="#84BE84" rx="3" ry="3" style="stroke:#038048;stroke-width:1.0;"/><text fill="#000000" font-family="sans-serif" font-size="11" lengthAdjust="spacing" textLength="317" x="29" y="463.2573">distanceTo(destination: GeographicalPosition) : number</text><ellipse cx="20" cy="472.8516" fill="#84BE84" rx="3" ry="3" style="stroke:#038048;stroke-width:1.0;"/><text fill="#000000" font-family="sans-serif" font-size="11" lengthAdjust="spacing" textLength="276" x="29" y="476.062">equals(position: GeographicalPosition) : boolean</text><ellipse cx="20" cy="485.6563" fill="#84BE84" rx="3" ry="3" style="stroke:#038048;stroke-width:1.0;"/><text fill="#000000" font-family="sans-serif" font-size="11" lengthAdjust="spacing" textLength="386" x="29" y="488.8667">fromVector(vector: Vector3, unit: LengthUnit) : GeographicalPosition</text><ellipse cx="20" cy="498.4609" fill="#84BE84" rx="3" ry="3" style="stroke:#038048;stroke-width:1.0;"/><text fill="#000000" font-family="sans-serif" font-size="11" lengthAdjust="spacing" textLength="351" x="29" y="501.6714">fromVector(vector: Vector3, unit: GCS) : GeographicalPosition</text><ellipse cx="20" cy="511.2656" fill="#84BE84" rx="3" ry="3" style="stroke:#038048;stroke-width:1.0;"/><text fill="#000000" font-family="sans-serif" font-size="11" lengthAdjust="spacing" textLength="537" x="29" y="514.4761">setAccuracy(accuracy: number | Accuracy&lt;LengthUnit, any&gt;, unit: Unit) : GeographicalPosition</text><ellipse cx="20" cy="524.0703" fill="#84BE84" rx="3" ry="3" style="stroke:#038048;stroke-width:1.0;"/><text fill="#000000" font-family="sans-serif" font-size="11" lengthAdjust="spacing" textLength="206" x="29" y="527.2808">toVector3(unit: LengthUnit) : Vector3</text><ellipse cx="20" cy="536.875" fill="#84BE84" rx="3" ry="3" style="stroke:#038048;stroke-width:1.0;"/><text fill="#000000" font-family="sans-serif" font-size="11" lengthAdjust="spacing" textLength="171" x="29" y="540.0854">toVector3(unit: GCS) : Vector3</text><!--MD5=[6826b595e4f3c3e38e38238a73cd1685]
class Absolute3DPosition--><rect codeLine="23" fill="#FEFECE" filter="url(#f1mg07y4md5a5r)" height="214.4609" id="Absolute3DPosition" style="stroke:#A80036;stroke-width:1.5;" width="552" x="89" y="7"/><ellipse cx="299.75" cy="23" fill="#ADD1B2" rx="11" ry="11" style="stroke:#A80036;stroke-width:1.0;"/><path d="M302.7188,28.6406 Q302.1406,28.9375 301.5,29.0781 Q300.8594,29.2344 300.1563,29.2344 Q297.6563,29.2344 296.3281,27.5938 Q295.0156,25.9375 295.0156,22.8125 Q295.0156,19.6875 296.3281,18.0313 Q297.6563,16.375 300.1563,16.375 Q300.8594,16.375 301.5,16.5313 Q302.1563,16.6875 302.7188,16.9844 L302.7188,19.7031 Q302.0938,19.125 301.5,18.8594 Q300.9063,18.5781 300.2813,18.5781 Q298.9375,18.5781 298.25,19.6563 Q297.5625,20.7188 297.5625,22.8125 Q297.5625,24.9063 298.25,25.9844 Q298.9375,27.0469 300.2813,27.0469 Q300.9063,27.0469 301.5,26.7813 Q302.0938,26.5 302.7188,25.9219 L302.7188,28.6406 Z " fill="#000000"/><text fill="#000000" font-family="sans-serif" font-size="12" lengthAdjust="spacing" textLength="122" x="320.25" y="27.1543">Absolute3DPosition</text><line style="stroke:#A80036;stroke-width:1.5;" x1="90" x2="640" y1="39" y2="39"/><ellipse cx="100" cy="50" rx="3" ry="3" style="stroke:#038048;stroke-width:1.0;fill:none;"/><text fill="#000000" font-family="sans-serif" font-size="11" lengthAdjust="spacing" textLength="136" x="109" y="53.2104">orientation : Orientation</text><ellipse cx="100" cy="62.8047" rx="3" ry="3" style="stroke:#038048;stroke-width:1.0;fill:none;"/><text fill="#000000" font-family="sans-serif" font-size="11" lengthAdjust="spacing" textLength="154" x="109" y="66.0151">referenceSpaceUID : string</text><ellipse cx="100" cy="75.6094" rx="3" ry="3" style="stroke:#038048;stroke-width:1.0;fill:none;"/><text fill="#000000" font-family="sans-serif" font-size="11" lengthAdjust="spacing" textLength="117" x="109" y="78.8198">timestamp : number</text><ellipse cx="100" cy="88.4141" rx="3" ry="3" style="stroke:#038048;stroke-width:1.0;fill:none;"/><text fill="#000000" font-family="sans-serif" font-size="11" lengthAdjust="spacing" textLength="93" x="109" y="91.6245">unit : LengthUnit</text><ellipse cx="100" cy="101.2188" rx="3" ry="3" style="stroke:#038048;stroke-width:1.0;fill:none;"/><text fill="#000000" font-family="sans-serif" font-size="11" lengthAdjust="spacing" textLength="97" x="109" y="104.4292">velocity : Velocity</text><polygon fill="none" points="100,109.0234,104,113.0234,100,117.0234,96,113.0234" style="stroke:#B38D22;stroke-width:1.0;"/><text fill="#000000" font-family="sans-serif" font-size="11" lengthAdjust="spacing" textLength="90" x="109" y="117.2339">vector : Vector3</text><line style="stroke:#A80036;stroke-width:1.5;" x1="90" x2="640" y1="123.8281" y2="123.8281"/><ellipse cx="100" cy="134.8281" fill="#84BE84" rx="3" ry="3" style="stroke:#038048;stroke-width:1.0;"/><text fill="#000000" font-family="sans-serif" font-size="11" lengthAdjust="spacing" textLength="289" x="109" y="138.0386">angleTo(destination: Absolute2DPosition) : number</text><ellipse cx="100" cy="147.6328" fill="#84BE84" rx="3" ry="3" style="stroke:#038048;stroke-width:1.0;"/><text fill="#000000" font-family="sans-serif" font-size="11" lengthAdjust="spacing" textLength="159" x="109" y="150.8433">clone() : Absolute3DPosition</text><ellipse cx="100" cy="160.4375" fill="#84BE84" rx="3" ry="3" style="stroke:#038048;stroke-width:1.0;"/><text fill="#000000" font-family="sans-serif" font-size="11" lengthAdjust="spacing" textLength="479" x="109" y="163.6479">distanceTo(destination: Absolute3DPosition, distanceFunction: DistanceFn) : number</text><ellipse cx="100" cy="173.2422" fill="#84BE84" rx="3" ry="3" style="stroke:#038048;stroke-width:1.0;"/><text fill="#000000" font-family="sans-serif" font-size="11" lengthAdjust="spacing" textLength="265" x="109" y="176.4526">equals(position: Absolute3DPosition) : boolean</text><ellipse cx="100" cy="186.0469" fill="#84BE84" rx="3" ry="3" style="stroke:#038048;stroke-width:1.0;"/><text fill="#000000" font-family="sans-serif" font-size="11" lengthAdjust="spacing" textLength="375" x="109" y="189.2573">fromVector(vector: Vector3, unit: LengthUnit) : Absolute3DPosition</text><ellipse cx="100" cy="198.8516" fill="#84BE84" rx="3" ry="3" style="stroke:#038048;stroke-width:1.0;"/><text fill="#000000" font-family="sans-serif" font-size="11" lengthAdjust="spacing" textLength="526" x="109" y="202.062">setAccuracy(accuracy: number | Accuracy&lt;LengthUnit, any&gt;, unit: Unit) : Absolute3DPosition</text><ellipse cx="100" cy="211.6563" fill="#84BE84" rx="3" ry="3" style="stroke:#038048;stroke-width:1.0;"/><text fill="#000000" font-family="sans-serif" font-size="11" lengthAdjust="spacing" textLength="206" x="109" y="214.8667">toVector3(unit: LengthUnit) : Vector3</text><!--MD5=[69a637977c7b22c72087f495b4c42987]
reverse link Absolute3DPosition to GeographicalPosition--><path codeLine="38" d="M365,241.54 C365,254.57 365,267.83 365,280.92 " fill="none" id="Absolute3DPosition-backto-GeographicalPosition" style="stroke:#A80036;stroke-width:1.0;"/><polygon fill="none" points="358,241.32,365,221.32,372,241.32,358,241.32" style="stroke:#A80036;stroke-width:1.0;"/><!--MD5=[5610ce1b5c1f6f50e3fe89c75b24a2af]
@startuml
skinparam BackgroundColor transparent
hide empty methods
hide empty fields
class "GeographicalPosition" {
    +orientation : Orientation
    +referenceSpaceUID : string
    +timestamp : number
    +unit : LengthUnit
    +velocity : Velocity
    #vector : Vector3
    +angleTo(destination: GeographicalPosition) : number
    +bearing(destination: GeographicalPosition) : number
    +clone() : GeographicalPosition
    +destination(bearing: number, distance: number, bearingUnit: AngleUnit, distanceUnit: LengthUnit) : GeographicalPosition
    +distanceTo(destination: GeographicalPosition) : number
    +equals(position: GeographicalPosition) : boolean
    +fromVector(vector: Vector3, unit: LengthUnit) : GeographicalPosition
    +fromVector(vector: Vector3, unit: GCS) : GeographicalPosition
    +setAccuracy(accuracy: number | Accuracy<LengthUnit, any>, unit: Unit) : GeographicalPosition
    +toVector3(unit: LengthUnit) : Vector3
    +toVector3(unit: GCS) : Vector3
}
class "Absolute3DPosition" {
    +orientation : Orientation
    +referenceSpaceUID : string
    +timestamp : number
    +unit : LengthUnit
    +velocity : Velocity
    #vector : Vector3
    +angleTo(destination: Absolute2DPosition) : number
    +clone() : Absolute3DPosition
    +distanceTo(destination: Absolute3DPosition, distanceFunction: DistanceFn) : number
    +equals(position: Absolute3DPosition) : boolean
    +fromVector(vector: Vector3, unit: LengthUnit) : Absolute3DPosition
    +setAccuracy(accuracy: number | Accuracy<LengthUnit, any>, unit: Unit) : Absolute3DPosition
    +toVector3(unit: LengthUnit) : Vector3
}
"Absolute3DPosition" <|- - "GeographicalPosition"
@enduml

PlantUML version 1.2021.14(Fri Nov 12 16:46:50 UTC 2021)
(GPL source distribution)
Java Runtime: OpenJDK Runtime Environment
JVM: OpenJDK 64-Bit Server VM
Default Encoding: UTF-8
Language: en
Country: null
--></g></svg>