<?xml version="1.0" encoding="us-ascii" standalone="no"?><svg xmlns="http://www.w3.org/2000/svg" xmlns:xlink="http://www.w3.org/1999/xlink" contentStyleType="text/css" height="138px" preserveAspectRatio="none" style="width:192px;height:138px;" version="1.1" viewBox="0 0 192 138" width="192px" zoomAndPan="magnify"><defs/><g><!--class GeographicalPosition--><g id="elem_GeographicalPosition"><rect codeLine="4" fill="#F1F1F1" height="32" id="GeographicalPosition" rx="2.5" ry="2.5" style="stroke:#181818;stroke-width:0.5;" width="178" x="7" y="99"/><ellipse cx="22" cy="115" fill="#ADD1B2" rx="11" ry="11" style="stroke:#181818;stroke-width:1.0;"/><path d="M24.9688,120.6406 Q24.3906,120.9375 23.75,121.0781 Q23.1094,121.2344 22.4063,121.2344 Q19.9063,121.2344 18.5781,119.5938 Q17.2656,117.9375 17.2656,114.8125 Q17.2656,111.6875 18.5781,110.0313 Q19.9063,108.375 22.4063,108.375 Q23.1094,108.375 23.75,108.5313 Q24.4063,108.6875 24.9688,108.9844 L24.9688,111.7031 Q24.3438,111.125 23.75,110.8594 Q23.1563,110.5781 22.5313,110.5781 Q21.1875,110.5781 20.5,111.6563 Q19.8125,112.7188 19.8125,114.8125 Q19.8125,116.9063 20.5,117.9844 Q21.1875,119.0469 22.5313,119.0469 Q23.1563,119.0469 23.75,118.7813 Q24.3438,118.5 24.9688,117.9219 L24.9688,120.6406 Z " fill="#000000"/><text fill="#000000" font-family="sans-serif" font-size="14" lengthAdjust="spacing" textLength="146" x="36" y="119.8467">GeographicalPosition</text></g><!--class Absolute3DPosition--><g id="elem_Absolute3DPosition"><rect codeLine="6" fill="#F1F1F1" height="32" id="Absolute3DPosition" rx="2.5" ry="2.5" style="stroke:#181818;stroke-width:0.5;" width="168" x="12" y="7"/><ellipse cx="27" cy="23" fill="#ADD1B2" rx="11" ry="11" style="stroke:#181818;stroke-width:1.0;"/><path d="M29.9688,28.6406 Q29.3906,28.9375 28.75,29.0781 Q28.1094,29.2344 27.4063,29.2344 Q24.9063,29.2344 23.5781,27.5938 Q22.2656,25.9375 22.2656,22.8125 Q22.2656,19.6875 23.5781,18.0313 Q24.9063,16.375 27.4063,16.375 Q28.1094,16.375 28.75,16.5313 Q29.4063,16.6875 29.9688,16.9844 L29.9688,19.7031 Q29.3438,19.125 28.75,18.8594 Q28.1563,18.5781 27.5313,18.5781 Q26.1875,18.5781 25.5,19.6563 Q24.8125,20.7188 24.8125,22.8125 Q24.8125,24.9063 25.5,25.9844 Q26.1875,27.0469 27.5313,27.0469 Q28.1563,27.0469 28.75,26.7813 Q29.3438,26.5 29.9688,25.9219 L29.9688,28.6406 Z " fill="#000000"/><text fill="#000000" font-family="sans-serif" font-size="14" lengthAdjust="spacing" textLength="136" x="41" y="27.8467">Absolute3DPosition</text></g><!--reverse link Absolute3DPosition to GeographicalPosition--><g id="link_Absolute3DPosition_GeographicalPosition"><path codeLine="8" d="M96,59.61 C96,73.31 96,88.22 96,98.96 " fill="none" id="Absolute3DPosition-backto-GeographicalPosition" style="stroke:#181818;stroke-width:1.0;"/><polygon fill="none" points="89,59.27,96,39.27,103,59.27,89,59.27" style="stroke:#181818;stroke-width:1.0;"/></g><!--SRC=[TSmn3i8m38NXlQUmkdTYPQ4WiN85avZ6Qc97iJiWuExjWWGIhF_tz6ncgTYmm8XXdfek4e-QjO4t5Dk8nBl4aO1AzJiKygJHFjEDAMybP3I3_amwDQo90-QB6ZkhzF3eNk_1uMgQ5wVTwPj_mluv37y-Lm00]--></g></svg>