<?xml version="1.0" encoding="UTF-8" standalone="no"?><svg xmlns="http://www.w3.org/2000/svg" xmlns:xlink="http://www.w3.org/1999/xlink" contentScriptType="application/ecmascript" contentStyleType="text/css" height="145px" preserveAspectRatio="none" style="width:225px;height:145px;background:#00000000;" version="1.1" viewBox="0 0 225 145" width="225px" zoomAndPan="magnify"><defs><filter height="300%" id="f1ghw8yxd325h4" width="300%" x="-1" y="-1"><feGaussianBlur result="blurOut" stdDeviation="2.0"/><feColorMatrix in="blurOut" result="blurOut2" type="matrix" values="0 0 0 0 0 0 0 0 0 0 0 0 0 0 0 0 0 0 .4 0"/><feOffset dx="4.0" dy="4.0" in="blurOut2" result="blurOut3"/><feBlend in="SourceGraphic" in2="blurOut3" mode="normal"/></filter></defs><g><!--MD5=[2a548cb8dec8d6912fabe054d3c1cb37]
class GraphShapeNode<In, Out>--><rect codeLine="4" fill="#FEFECE" filter="url(#f1ghw8yxd325h4)" height="32" id="GraphShapeNode&lt;In, Out&gt;" style="stroke:#A80036;stroke-width:1.5;" width="204" x="7" y="99"/><ellipse cx="22" cy="115" fill="#A9DCDF" rx="11" ry="11" style="stroke:#A80036;stroke-width:1.0;"/><path d="M22.1094,110.3438 L20.9531,115.4219 L23.2813,115.4219 L22.1094,110.3438 Z M20.625,108.1094 L23.6094,108.1094 L26.9688,120.5 L24.5156,120.5 L23.75,117.4375 L20.4688,117.4375 L19.7188,120.5 L17.2813,120.5 L20.625,108.1094 Z " fill="#000000"/><text fill="#000000" font-family="sans-serif" font-size="12" font-style="italic" lengthAdjust="spacing" textLength="172" x="36" y="119.1543">GraphShapeNode&lt;In, Out&gt;</text><!--MD5=[1f35e560ec16ab5e3b805489929ed19a]
class Node<In, Out>--><rect codeLine="6" fill="#FEFECE" filter="url(#f1ghw8yxd325h4)" height="32" id="Node&lt;In, Out&gt;" style="stroke:#A80036;stroke-width:1.5;" width="126" x="46" y="7"/><ellipse cx="61" cy="23" fill="#ADD1B2" rx="11" ry="11" style="stroke:#A80036;stroke-width:1.0;"/><path d="M63.9688,28.6406 Q63.3906,28.9375 62.75,29.0781 Q62.1094,29.2344 61.4063,29.2344 Q58.9063,29.2344 57.5781,27.5938 Q56.2656,25.9375 56.2656,22.8125 Q56.2656,19.6875 57.5781,18.0313 Q58.9063,16.375 61.4063,16.375 Q62.1094,16.375 62.75,16.5313 Q63.4063,16.6875 63.9688,16.9844 L63.9688,19.7031 Q63.3438,19.125 62.75,18.8594 Q62.1563,18.5781 61.5313,18.5781 Q60.1875,18.5781 59.5,19.6563 Q58.8125,20.7188 58.8125,22.8125 Q58.8125,24.9063 59.5,25.9844 Q60.1875,27.0469 61.5313,27.0469 Q62.1563,27.0469 62.75,26.7813 Q63.3438,26.5 63.9688,25.9219 L63.9688,28.6406 Z " fill="#000000"/><text fill="#000000" font-family="sans-serif" font-size="12" lengthAdjust="spacing" textLength="94" x="75" y="27.1543">Node&lt;In, Out&gt;</text><!--MD5=[132b487927717f4c4bfd8e5df360bdaa]
reverse link Node<In, Out> to GraphShapeNode<In, Out>--><path codeLine="8" d="M109,59.61 C109,73.31 109,88.22 109,98.96 " fill="none" id="Node&lt;In, Out&gt;-backto-GraphShapeNode&lt;In, Out&gt;" style="stroke:#A80036;stroke-width:1.0;"/><polygon fill="none" points="102,59.27,109,39.27,116,59.27,102,59.27" style="stroke:#A80036;stroke-width:1.0;"/><!--MD5=[db678b8aa5131321ba1baf2058b791b7]
@startuml
skinparam BackgroundColor transparent
hide empty methods
hide empty fields
abstract class "GraphShapeNode<In, Out>" {
}
class "Node<In, Out>" {
}
"Node<In, Out>" <|- - "GraphShapeNode<In, Out>"
@enduml

PlantUML version 1.2021.14(Fri Nov 12 16:46:50 UTC 2021)
(GPL source distribution)
Java Runtime: OpenJDK Runtime Environment
JVM: OpenJDK 64-Bit Server VM
Default Encoding: UTF-8
Language: en
Country: null
--></g></svg>