<?xml version="1.0" encoding="UTF-8" standalone="no"?><svg xmlns="http://www.w3.org/2000/svg" xmlns:xlink="http://www.w3.org/1999/xlink" contentScriptType="application/ecmascript" contentStyleType="text/css" height="145px" preserveAspectRatio="none" style="width:262px;height:145px;background:#00000000;" version="1.1" viewBox="0 0 262 145" width="262px" zoomAndPan="magnify"><defs><filter height="300%" id="f1ox5y92nt3tsw" width="300%" x="-1" y="-1"><feGaussianBlur result="blurOut" stdDeviation="2.0"/><feColorMatrix in="blurOut" result="blurOut2" type="matrix" values="0 0 0 0 0 0 0 0 0 0 0 0 0 0 0 0 0 0 .4 0"/><feOffset dx="4.0" dy="4.0" in="blurOut2" result="blurOut3"/><feBlend in="SourceGraphic" in2="blurOut3" mode="normal"/></filter></defs><g><!--MD5=[ef388129b956dd7c37bb01e908c85b2c]
class GraphOptions--><rect codeLine="4" fill="#FEFECE" filter="url(#f1ox5y92nt3tsw)" height="32" id="GraphOptions" style="stroke:#A80036;stroke-width:1.5;" width="116" x="67.5" y="7"/><ellipse cx="82.5" cy="23" fill="#B4A7E5" rx="11" ry="11" style="stroke:#A80036;stroke-width:1.0;"/><path d="M78.4219,18.7656 L78.4219,16.6094 L85.8125,16.6094 L85.8125,18.7656 L83.3438,18.7656 L83.3438,26.8438 L85.8125,26.8438 L85.8125,29 L78.4219,29 L78.4219,26.8438 L80.8906,26.8438 L80.8906,18.7656 L78.4219,18.7656 Z " fill="#000000"/><text fill="#000000" font-family="sans-serif" font-size="12" font-style="italic" lengthAdjust="spacing" textLength="84" x="96.5" y="27.1543">GraphOptions</text><!--MD5=[750a855c05d2b7ad49837f4e65ee2dfb]
class PullOptions--><rect codeLine="6" fill="#FEFECE" filter="url(#f1ox5y92nt3tsw)" height="32" id="PullOptions" style="stroke:#A80036;stroke-width:1.5;" width="99" x="7" y="99"/><ellipse cx="22" cy="115" fill="#B4A7E5" rx="11" ry="11" style="stroke:#A80036;stroke-width:1.0;"/><path d="M17.9219,110.7656 L17.9219,108.6094 L25.3125,108.6094 L25.3125,110.7656 L22.8438,110.7656 L22.8438,118.8438 L25.3125,118.8438 L25.3125,121 L17.9219,121 L17.9219,118.8438 L20.3906,118.8438 L20.3906,110.7656 L17.9219,110.7656 Z " fill="#000000"/><text fill="#000000" font-family="sans-serif" font-size="12" font-style="italic" lengthAdjust="spacing" textLength="67" x="36" y="119.1543">PullOptions</text><!--MD5=[68925008f9f25f30b3298f61f07e6b3f]
class PushOptions--><rect codeLine="9" fill="#FEFECE" filter="url(#f1ox5y92nt3tsw)" height="32" id="PushOptions" style="stroke:#A80036;stroke-width:1.5;" width="107" x="141" y="99"/><ellipse cx="156" cy="115" fill="#B4A7E5" rx="11" ry="11" style="stroke:#A80036;stroke-width:1.0;"/><path d="M151.9219,110.7656 L151.9219,108.6094 L159.3125,108.6094 L159.3125,110.7656 L156.8438,110.7656 L156.8438,118.8438 L159.3125,118.8438 L159.3125,121 L151.9219,121 L151.9219,118.8438 L154.3906,118.8438 L154.3906,110.7656 L151.9219,110.7656 Z " fill="#000000"/><text fill="#000000" font-family="sans-serif" font-size="12" font-style="italic" lengthAdjust="spacing" textLength="75" x="170" y="119.1543">PushOptions</text><!--MD5=[77b1aa8a611d2765a2fb73cf2e47a384]
reverse link GraphOptions to PullOptions--><path codeLine="8" d="M101.57,55.21 C90.21,70.03 77.16,87.06 68.03,98.96 " fill="none" id="GraphOptions-backto-PullOptions" style="stroke:#A80036;stroke-width:1.0;"/><polygon fill="none" points="96.07,50.88,113.8,39.27,107.18,59.4,96.07,50.88" style="stroke:#A80036;stroke-width:1.0;"/><!--MD5=[9766709a6465d8f3813f82eefaa3f522]
reverse link GraphOptions to PushOptions--><path codeLine="11" d="M149.43,55.21 C160.79,70.03 173.84,87.06 182.97,98.96 " fill="none" id="GraphOptions-backto-PushOptions" style="stroke:#A80036;stroke-width:1.0;"/><polygon fill="none" points="143.82,59.4,137.2,39.27,154.93,50.88,143.82,59.4" style="stroke:#A80036;stroke-width:1.0;"/><!--MD5=[25cf3bd71056b36e2d27dd23bcbba00b]
@startuml
skinparam BackgroundColor transparent
hide empty methods
hide empty fields
interface "GraphOptions" {
}
interface "PullOptions" {
}
"GraphOptions" <|- - "PullOptions"
interface "PushOptions" {
}
"GraphOptions" <|- - "PushOptions"
@enduml

PlantUML version 1.2021.14(Fri Nov 12 16:46:50 UTC 2021)
(GPL source distribution)
Java Runtime: OpenJDK Runtime Environment
JVM: OpenJDK 64-Bit Server VM
Default Encoding: UTF-8
Language: en
Country: null
--></g></svg>