<?xml version="1.0" encoding="us-ascii" standalone="no"?><svg xmlns="http://www.w3.org/2000/svg" xmlns:xlink="http://www.w3.org/1999/xlink" contentStyleType="text/css" height="138px" preserveAspectRatio="none" style="width:275px;height:138px;" version="1.1" viewBox="0 0 275 138" width="275px" zoomAndPan="magnify"><defs/><g><!--class GraphOptions--><g id="elem_GraphOptions"><rect codeLine="4" fill="#F1F1F1" height="32" id="GraphOptions" rx="2.5" ry="2.5" style="stroke:#181818;stroke-width:0.5;" width="127" x="71.5" y="7"/><ellipse cx="86.5" cy="23" fill="#B4A7E5" rx="11" ry="11" style="stroke:#181818;stroke-width:1.0;"/><path d="M82.4219,18.7656 L82.4219,16.6094 L89.8125,16.6094 L89.8125,18.7656 L87.3438,18.7656 L87.3438,26.8438 L89.8125,26.8438 L89.8125,29 L82.4219,29 L82.4219,26.8438 L84.8906,26.8438 L84.8906,18.7656 L82.4219,18.7656 Z " fill="#000000"/><text fill="#000000" font-family="sans-serif" font-size="14" font-style="italic" lengthAdjust="spacing" textLength="95" x="100.5" y="27.8467">GraphOptions</text></g><!--class PullOptions--><g id="elem_PullOptions"><rect codeLine="6" fill="#F1F1F1" height="32" id="PullOptions" rx="2.5" ry="2.5" style="stroke:#181818;stroke-width:0.5;" width="108" x="7" y="99"/><ellipse cx="22" cy="115" fill="#B4A7E5" rx="11" ry="11" style="stroke:#181818;stroke-width:1.0;"/><path d="M17.9219,110.7656 L17.9219,108.6094 L25.3125,108.6094 L25.3125,110.7656 L22.8438,110.7656 L22.8438,118.8438 L25.3125,118.8438 L25.3125,121 L17.9219,121 L17.9219,118.8438 L20.3906,118.8438 L20.3906,110.7656 L17.9219,110.7656 Z " fill="#000000"/><text fill="#000000" font-family="sans-serif" font-size="14" font-style="italic" lengthAdjust="spacing" textLength="76" x="36" y="119.8467">PullOptions</text></g><!--class PushOptions--><g id="elem_PushOptions"><rect codeLine="9" fill="#F1F1F1" height="32" id="PushOptions" rx="2.5" ry="2.5" style="stroke:#181818;stroke-width:0.5;" width="118" x="150" y="99"/><ellipse cx="165" cy="115" fill="#B4A7E5" rx="11" ry="11" style="stroke:#181818;stroke-width:1.0;"/><path d="M160.9219,110.7656 L160.9219,108.6094 L168.3125,108.6094 L168.3125,110.7656 L165.8438,110.7656 L165.8438,118.8438 L168.3125,118.8438 L168.3125,121 L160.9219,121 L160.9219,118.8438 L163.3906,118.8438 L163.3906,110.7656 L160.9219,110.7656 Z " fill="#000000"/><text fill="#000000" font-family="sans-serif" font-size="14" font-style="italic" lengthAdjust="spacing" textLength="86" x="179" y="119.8467">PushOptions</text></g><!--reverse link GraphOptions to PullOptions--><g id="link_GraphOptions_PullOptions"><path codeLine="8" d="M109.74,54.73 C97.46,69.66 83.26,86.93 73.37,98.96 " fill="none" id="GraphOptions-backto-PullOptions" style="stroke:#181818;stroke-width:1.0;"/><polygon fill="none" points="104.34,50.27,122.45,39.27,115.15,59.16,104.34,50.27" style="stroke:#181818;stroke-width:1.0;"/></g><!--reverse link GraphOptions to PushOptions--><g id="link_GraphOptions_PushOptions"><path codeLine="11" d="M160.26,54.73 C172.54,69.66 186.74,86.93 196.63,98.96 " fill="none" id="GraphOptions-backto-PushOptions" style="stroke:#181818;stroke-width:1.0;"/><polygon fill="none" points="154.85,59.16,147.55,39.27,165.66,50.27,154.85,59.16" style="stroke:#181818;stroke-width:1.0;"/></g><!--SRC=[ZOkz4e8m381tdYB7pXiuwU08hv2ZmUPeqruI1azvTzcaJgxVZwqi5HKpN75U7res2RUIYe8hYXsAnBl8WO1ozITaybY2dT72b0x2ugGBpWJzNR76iJeNiHvUtNwMqvPIutxootiOsggzBVvpVwiF]--></g></svg>