<?xml version="1.0" encoding="UTF-8" standalone="no"?><svg xmlns="http://www.w3.org/2000/svg" xmlns:xlink="http://www.w3.org/1999/xlink" contentScriptType="application/ecmascript" contentStyleType="text/css" height="229px" preserveAspectRatio="none" style="width:256px;height:229px;background:#00000000;" version="1.1" viewBox="0 0 256 229" width="256px" zoomAndPan="magnify"><defs><filter height="300%" id="f99x1txih7buh" width="300%" x="-1" y="-1"><feGaussianBlur result="blurOut" stdDeviation="2.0"/><feColorMatrix in="blurOut" result="blurOut2" type="matrix" values="0 0 0 0 0 0 0 0 0 0 0 0 0 0 0 0 0 0 .4 0"/><feOffset dx="4.0" dy="4.0" in="blurOut2" result="blurOut3"/><feBlend in="SourceGraphic" in2="blurOut3" mode="normal"/></filter></defs><g><!--MD5=[54323c5910643495d668630485ab5d20]
class Graph<In, Out>--><rect codeLine="4" fill="#FEFECE" filter="url(#f99x1txih7buh)" height="32" id="Graph&lt;In, Out&gt;" style="stroke:#A80036;stroke-width:1.5;" width="131" x="59" y="91"/><ellipse cx="74" cy="107" fill="#B4A7E5" rx="11" ry="11" style="stroke:#A80036;stroke-width:1.0;"/><path d="M69.9219,102.7656 L69.9219,100.6094 L77.3125,100.6094 L77.3125,102.7656 L74.8438,102.7656 L74.8438,110.8438 L77.3125,110.8438 L77.3125,113 L69.9219,113 L69.9219,110.8438 L72.3906,110.8438 L72.3906,102.7656 L69.9219,102.7656 Z " fill="#000000"/><text fill="#000000" font-family="sans-serif" font-size="12" font-style="italic" lengthAdjust="spacing" textLength="99" x="88" y="111.1543">Graph&lt;In, Out&gt;</text><!--MD5=[170c92654dda4ed4637a63a10e48a1a3]
class GraphNode<In, Out>--><rect codeLine="6" fill="#FEFECE" filter="url(#f99x1txih7buh)" height="23.9688" id="GraphNode&lt;In, Out&gt;" style="stroke:#A80036;stroke-width:1.5;" width="138" x="55.5" y="7"/><text fill="#000000" font-family="sans-serif" font-size="12" lengthAdjust="spacing" textLength="132" x="58.5" y="23.1387">GraphNode&lt;In, Out&gt;</text><!--MD5=[f5b690753bb7c8c8fc1fd310f0e29185]
class Model<DataFrame, DataFrame>--><rect codeLine="9" fill="#FEFECE" filter="url(#f99x1txih7buh)" height="32" id="Model&lt;DataFrame, DataFrame&gt;" style="stroke:#A80036;stroke-width:1.5;" width="235" x="7" y="183"/><ellipse cx="22" cy="199" fill="#B4A7E5" rx="11" ry="11" style="stroke:#A80036;stroke-width:1.0;"/><path d="M17.9219,194.7656 L17.9219,192.6094 L25.3125,192.6094 L25.3125,194.7656 L22.8438,194.7656 L22.8438,202.8438 L25.3125,202.8438 L25.3125,205 L17.9219,205 L17.9219,202.8438 L20.3906,202.8438 L20.3906,194.7656 L17.9219,194.7656 Z " fill="#000000"/><text fill="#000000" font-family="sans-serif" font-size="12" font-style="italic" lengthAdjust="spacing" textLength="203" x="36" y="203.1543">Model&lt;DataFrame, DataFrame&gt;</text><!--MD5=[ea4247e916a756ea5f0a0dff0b98299f]
reverse link GraphNode<In, Out> to Graph<In, Out>--><path codeLine="8" d="M124.5,51.39 C124.5,64.91 124.5,80.08 124.5,91 " fill="none" id="GraphNode&lt;In, Out&gt;-backto-Graph&lt;In, Out&gt;" style="stroke:#A80036;stroke-width:1.0;"/><polygon fill="none" points="117.5,51.24,124.5,31.24,131.5,51.24,117.5,51.24" style="stroke:#A80036;stroke-width:1.0;"/><!--MD5=[ebb86369bffdf8fcc8e3bb2fb9b7748a]
reverse link Graph<In, Out> to Model<DataFrame, DataFrame>--><path codeLine="11" d="M124.5,143.61 C124.5,157.31 124.5,172.22 124.5,182.96 " fill="none" id="Graph&lt;In, Out&gt;-backto-Model&lt;DataFrame, DataFrame&gt;" style="stroke:#A80036;stroke-width:1.0;"/><polygon fill="none" points="117.5,143.27,124.5,123.27,131.5,143.27,117.5,143.27" style="stroke:#A80036;stroke-width:1.0;"/><!--MD5=[f2863da542bb6f4132135269f4c2c574]
@startuml
skinparam BackgroundColor transparent
hide empty methods
hide empty fields
interface "Graph<In, Out>" {
}
class "GraphNode<In, Out>"
hide "GraphNode<In, Out>" circle
"GraphNode<In, Out>" <|- - "Graph<In, Out>"
interface "Model<DataFrame, DataFrame>" {
}
"Graph<In, Out>" <|- - "Model<DataFrame, DataFrame>"
@enduml

PlantUML version 1.2021.14(Fri Nov 12 16:46:50 UTC 2021)
(GPL source distribution)
Java Runtime: OpenJDK Runtime Environment
JVM: OpenJDK 64-Bit Server VM
Default Encoding: UTF-8
Language: en
Country: null
--></g></svg>