<?xml version="1.0" encoding="us-ascii" standalone="no"?><svg xmlns="http://www.w3.org/2000/svg" xmlns:xlink="http://www.w3.org/1999/xlink" contentStyleType="text/css" height="138px" preserveAspectRatio="none" style="width:240px;height:138px;" version="1.1" viewBox="0 0 240 138" width="240px" zoomAndPan="magnify"><defs/><g><!--class GraphShapeNode<In, Out>--><g id="elem_GraphShapeNode&lt;In, Out&gt;"><rect codeLine="4" fill="#F1F1F1" height="32" id="GraphShapeNode&lt;In, Out&gt;" rx="2.5" ry="2.5" style="stroke:#181818;stroke-width:0.5;" width="226" x="7" y="99"/><ellipse cx="22" cy="115" fill="#A9DCDF" rx="11" ry="11" style="stroke:#181818;stroke-width:1.0;"/><path d="M22.1094,110.3438 L20.9531,115.4219 L23.2813,115.4219 L22.1094,110.3438 Z M20.625,108.1094 L23.6094,108.1094 L26.9688,120.5 L24.5156,120.5 L23.75,117.4375 L20.4688,117.4375 L19.7188,120.5 L17.2813,120.5 L20.625,108.1094 Z " fill="#000000"/><text fill="#000000" font-family="sans-serif" font-size="14" font-style="italic" lengthAdjust="spacing" textLength="194" x="36" y="119.8467">GraphShapeNode&lt;In, Out&gt;</text></g><!--class Node<In, Out>--><g id="elem_Node&lt;In, Out&gt;"><rect codeLine="6" fill="#F1F1F1" height="32" id="Node&lt;In, Out&gt;" rx="2.5" ry="2.5" style="stroke:#181818;stroke-width:0.5;" width="138" x="51" y="7"/><ellipse cx="66" cy="23" fill="#ADD1B2" rx="11" ry="11" style="stroke:#181818;stroke-width:1.0;"/><path d="M68.9688,28.6406 Q68.3906,28.9375 67.75,29.0781 Q67.1094,29.2344 66.4063,29.2344 Q63.9063,29.2344 62.5781,27.5938 Q61.2656,25.9375 61.2656,22.8125 Q61.2656,19.6875 62.5781,18.0313 Q63.9063,16.375 66.4063,16.375 Q67.1094,16.375 67.75,16.5313 Q68.4063,16.6875 68.9688,16.9844 L68.9688,19.7031 Q68.3438,19.125 67.75,18.8594 Q67.1563,18.5781 66.5313,18.5781 Q65.1875,18.5781 64.5,19.6563 Q63.8125,20.7188 63.8125,22.8125 Q63.8125,24.9063 64.5,25.9844 Q65.1875,27.0469 66.5313,27.0469 Q67.1563,27.0469 67.75,26.7813 Q68.3438,26.5 68.9688,25.9219 L68.9688,28.6406 Z " fill="#000000"/><text fill="#000000" font-family="sans-serif" font-size="14" lengthAdjust="spacing" textLength="106" x="80" y="27.8467">Node&lt;In, Out&gt;</text></g><!--reverse link Node<In, Out> to GraphShapeNode<In, Out>--><g id="link_Node&lt;In, Out&gt;_GraphShapeNode&lt;In, Out&gt;"><path codeLine="8" d="M120,59.61 C120,73.31 120,88.22 120,98.96 " fill="none" id="Node&lt;In, Out&gt;-backto-GraphShapeNode&lt;In, Out&gt;" style="stroke:#181818;stroke-width:1.0;"/><polygon fill="none" points="113,59.27,120,39.27,127,59.27,113,59.27" style="stroke:#181818;stroke-width:1.0;"/></g><!--SRC=[TOmn3W8n30JxlCAwcll1YG8AH0C5Bp298T4bTXJx2WJydHGK244xixCw9wxOiC06_Nnjid3OIfO6rf2rAs9pCGK2AjLkKCYY1Fr4bqIv4pnhRxo1pwWAmwvXZQU8bGuIQDhp2ewBhGUukwTxRtwORpOznl7_sGi0]--></g></svg>