<?xml version="1.0" encoding="us-ascii" standalone="no"?><svg xmlns="http://www.w3.org/2000/svg" xmlns:xlink="http://www.w3.org/1999/xlink" contentStyleType="text/css" height="224px" preserveAspectRatio="none" style="width:270px;height:224px;" version="1.1" viewBox="0 0 270 224" width="270px" zoomAndPan="magnify"><defs/><g><!--class Graph<In, Out>--><g id="elem_Graph&lt;In, Out&gt;"><rect codeLine="4" fill="#F1F1F1" height="32" id="Graph&lt;In, Out&gt;" rx="2.5" ry="2.5" style="stroke:#181818;stroke-width:0.5;" width="144" x="63" y="93"/><ellipse cx="78" cy="109" fill="#B4A7E5" rx="11" ry="11" style="stroke:#181818;stroke-width:1.0;"/><path d="M73.9219,104.7656 L73.9219,102.6094 L81.3125,102.6094 L81.3125,104.7656 L78.8438,104.7656 L78.8438,112.8438 L81.3125,112.8438 L81.3125,115 L73.9219,115 L73.9219,112.8438 L76.3906,112.8438 L76.3906,104.7656 L73.9219,104.7656 Z " fill="#000000"/><text fill="#000000" font-family="sans-serif" font-size="14" font-style="italic" lengthAdjust="spacing" textLength="112" x="92" y="113.8467">Graph&lt;In, Out&gt;</text></g><!--class GraphNode<In, Out>--><g id="elem_GraphNode&lt;In, Out&gt;"><rect codeLine="6" fill="#F1F1F1" height="26.2969" id="GraphNode&lt;In, Out&gt;" rx="2.5" ry="2.5" style="stroke:#181818;stroke-width:0.5;" width="154" x="58" y="7"/><text fill="#000000" font-family="sans-serif" font-size="14" lengthAdjust="spacing" textLength="148" x="61" y="24.9951">GraphNode&lt;In, Out&gt;</text></g><!--class Model<DataFrame, DataFrame>--><g id="elem_Model&lt;DataFrame, DataFrame&gt;"><rect codeLine="9" fill="#F1F1F1" height="32" id="Model&lt;DataFrame, DataFrame&gt;" rx="2.5" ry="2.5" style="stroke:#181818;stroke-width:0.5;" width="256" x="7" y="185"/><ellipse cx="22" cy="201" fill="#B4A7E5" rx="11" ry="11" style="stroke:#181818;stroke-width:1.0;"/><path d="M17.9219,196.7656 L17.9219,194.6094 L25.3125,194.6094 L25.3125,196.7656 L22.8438,196.7656 L22.8438,204.8438 L25.3125,204.8438 L25.3125,207 L17.9219,207 L17.9219,204.8438 L20.3906,204.8438 L20.3906,196.7656 L17.9219,196.7656 Z " fill="#000000"/><text fill="#000000" font-family="sans-serif" font-size="14" font-style="italic" lengthAdjust="spacing" textLength="224" x="36" y="205.8467">Model&lt;DataFrame, DataFrame&gt;</text></g><!--reverse link GraphNode<In, Out> to Graph<In, Out>--><g id="link_GraphNode&lt;In, Out&gt;_Graph&lt;In, Out&gt;"><path codeLine="8" d="M135,53.37 C135,66.88 135,81.92 135,92.79 " fill="none" id="GraphNode&lt;In, Out&gt;-backto-Graph&lt;In, Out&gt;" style="stroke:#181818;stroke-width:1.0;"/><polygon fill="none" points="128,53.1,135,33.1,142,53.1,128,53.1" style="stroke:#181818;stroke-width:1.0;"/></g><!--reverse link Graph<In, Out> to Model<DataFrame, DataFrame>--><g id="link_Graph&lt;In, Out&gt;_Model&lt;DataFrame, DataFrame&gt;"><path codeLine="11" d="M135,145.61 C135,159.31 135,174.22 135,184.96 " fill="none" id="Graph&lt;In, Out&gt;-backto-Model&lt;DataFrame, DataFrame&gt;" style="stroke:#181818;stroke-width:1.0;"/><polygon fill="none" points="128,145.27,135,125.27,142,145.27,128,145.27" style="stroke:#181818;stroke-width:1.0;"/></g><!--SRC=[VOyn3i8m34NtdCBgtDwWOW04Oe2UmKfS4ZLDAiST471t8hM2IgtOhF- -lxzJvyA0Z3tiKNTtZcCmX-WZWp26b145KTOP0ke7UK1FOgD9IwbrvBFYWX2tg0cAC-DWwqieeHbbLy1JlPNscDACRj7G3qzPMmIqO-r9RRBwLLMhKyiMr-ptzH45J_b1Ak4xpfLMFQV8VtiV]--></g></svg>