<?xml version="1.0" encoding="UTF-8" standalone="no"?><svg xmlns="http://www.w3.org/2000/svg" xmlns:xlink="http://www.w3.org/1999/xlink" contentScriptType="application/ecmascript" contentStyleType="text/css" height="204px" preserveAspectRatio="none" style="width:375px;height:204px;background:#00000000;" version="1.1" viewBox="0 0 375 204" width="375px" zoomAndPan="magnify"><defs><filter height="300%" id="f1a4udc8q4tf4" width="300%" x="-1" y="-1"><feGaussianBlur result="blurOut" stdDeviation="2.0"/><feColorMatrix in="blurOut" result="blurOut2" type="matrix" values="0 0 0 0 0 0 0 0 0 0 0 0 0 0 0 0 0 0 .4 0"/><feOffset dx="4.0" dy="4.0" in="blurOut2" result="blurOut3"/><feBlend in="SourceGraphic" in2="blurOut3" mode="normal"/></filter></defs><g><!--MD5=[ef388129b956dd7c37bb01e908c85b2c]
class GraphOptions--><rect codeLine="4" fill="#FEFECE" filter="url(#f1a4udc8q4tf4)" height="32" id="GraphOptions" style="stroke:#A80036;stroke-width:1.5;" width="116" x="136" y="7"/><ellipse cx="151" cy="23" fill="#B4A7E5" rx="11" ry="11" style="stroke:#A80036;stroke-width:1.0;"/><path d="M146.9219,18.7656 L146.9219,16.6094 L154.3125,16.6094 L154.3125,18.7656 L151.8438,18.7656 L151.8438,26.8438 L154.3125,26.8438 L154.3125,29 L146.9219,29 L146.9219,26.8438 L149.3906,26.8438 L149.3906,18.7656 L146.9219,18.7656 Z " fill="#000000"/><text fill="#000000" font-family="sans-serif" font-size="12" font-style="italic" lengthAdjust="spacing" textLength="84" x="165" y="27.1543">GraphOptions</text><!--MD5=[750a855c05d2b7ad49837f4e65ee2dfb]
class PullOptions--><rect codeLine="6" fill="#FEFECE" filter="url(#f1a4udc8q4tf4)" height="91.2188" id="PullOptions" style="stroke:#A80036;stroke-width:1.5;" width="180" x="7" y="99"/><ellipse cx="59.25" cy="115" fill="#B4A7E5" rx="11" ry="11" style="stroke:#A80036;stroke-width:1.0;"/><path d="M55.1719,110.7656 L55.1719,108.6094 L62.5625,108.6094 L62.5625,110.7656 L60.0938,110.7656 L60.0938,118.8438 L62.5625,118.8438 L62.5625,121 L55.1719,121 L55.1719,118.8438 L57.6406,118.8438 L57.6406,110.7656 L55.1719,110.7656 Z " fill="#000000"/><text fill="#000000" font-family="sans-serif" font-size="12" font-style="italic" lengthAdjust="spacing" textLength="67" x="79.75" y="119.1543">PullOptions</text><line style="stroke:#A80036;stroke-width:1.5;" x1="8" x2="186" y1="131" y2="131"/><ellipse cx="18" cy="142" rx="3" ry="3" style="stroke:#038048;stroke-width:1.0;fill:none;"/><text fill="#000000" font-family="sans-serif" font-size="11" lengthAdjust="spacing" textLength="87" x="27" y="145.2104">count : number</text><ellipse cx="18" cy="154.8047" rx="3" ry="3" style="stroke:#038048;stroke-width:1.0;fill:none;"/><text fill="#000000" font-family="sans-serif" font-size="11" lengthAdjust="spacing" textLength="154" x="27" y="158.0151">requestedObjects : string[]</text><ellipse cx="18" cy="167.6094" rx="3" ry="3" style="stroke:#038048;stroke-width:1.0;fill:none;"/><text fill="#000000" font-family="sans-serif" font-size="11" lengthAdjust="spacing" textLength="136" x="27" y="170.8198">sequentialPull : boolean</text><ellipse cx="18" cy="180.4141" rx="3" ry="3" style="stroke:#038048;stroke-width:1.0;fill:none;"/><text fill="#000000" font-family="sans-serif" font-size="11" lengthAdjust="spacing" textLength="113" x="27" y="183.6245">sourceNode : string</text><!--MD5=[68925008f9f25f30b3298f61f07e6b3f]
class PushOptions--><rect codeLine="13" fill="#FEFECE" filter="url(#f1a4udc8q4tf4)" height="65.6094" id="PushOptions" style="stroke:#A80036;stroke-width:1.5;" width="139" x="222.5" y="111.5"/><ellipse cx="251.9" cy="127.5" fill="#B4A7E5" rx="11" ry="11" style="stroke:#A80036;stroke-width:1.0;"/><path d="M247.8219,123.2656 L247.8219,121.1094 L255.2125,121.1094 L255.2125,123.2656 L252.7438,123.2656 L252.7438,131.3438 L255.2125,131.3438 L255.2125,133.5 L247.8219,133.5 L247.8219,131.3438 L250.2906,131.3438 L250.2906,123.2656 L247.8219,123.2656 Z " fill="#000000"/><text fill="#000000" font-family="sans-serif" font-size="12" font-style="italic" lengthAdjust="spacing" textLength="75" x="269.1" y="131.6543">PushOptions</text><line style="stroke:#A80036;stroke-width:1.5;" x1="223.5" x2="360.5" y1="143.5" y2="143.5"/><ellipse cx="233.5" cy="154.5" rx="3" ry="3" style="stroke:#038048;stroke-width:1.0;fill:none;"/><text fill="#000000" font-family="sans-serif" font-size="11" lengthAdjust="spacing" textLength="95" x="242.5" y="157.7104">lastNode : string</text><ellipse cx="233.5" cy="167.3047" rx="3" ry="3" style="stroke:#038048;stroke-width:1.0;fill:none;"/><text fill="#000000" font-family="sans-serif" font-size="11" lengthAdjust="spacing" textLength="113" x="242.5" y="170.5151">sourceNode : string</text><!--MD5=[77b1aa8a611d2765a2fb73cf2e47a384]
reverse link GraphOptions to PullOptions--><path codeLine="12" d="M168.87,54.96 C157.99,68.36 145.06,84.3 133.18,98.93 " fill="none" id="GraphOptions-backto-PullOptions" style="stroke:#A80036;stroke-width:1.0;"/><polygon fill="none" points="163.68,50.25,181.71,39.13,174.55,59.07,163.68,50.25" style="stroke:#A80036;stroke-width:1.0;"/><!--MD5=[9766709a6465d8f3813f82eefaa3f522]
reverse link GraphOptions to PushOptions--><path codeLine="17" d="M219.23,54.76 C233.48,72.15 251.28,93.85 265.71,111.44 " fill="none" id="GraphOptions-backto-PushOptions" style="stroke:#A80036;stroke-width:1.0;"/><polygon fill="none" points="213.68,59.04,206.41,39.13,224.51,50.16,213.68,59.04" style="stroke:#A80036;stroke-width:1.0;"/><!--MD5=[ea334793d7feee3e4bc85a81a14d32f5]
@startuml
skinparam BackgroundColor transparent
hide empty methods
hide empty fields
interface "GraphOptions" {
}
interface "PullOptions" {
    +count : number
    +requestedObjects : string[]
    +sequentialPull : boolean
    +sourceNode : string
}
"GraphOptions" <|- - "PullOptions"
interface "PushOptions" {
    +lastNode : string
    +sourceNode : string
}
"GraphOptions" <|- - "PushOptions"
@enduml

PlantUML version 1.2021.14(Fri Nov 12 16:46:50 UTC 2021)
(GPL source distribution)
Java Runtime: OpenJDK Runtime Environment
JVM: OpenJDK 64-Bit Server VM
Default Encoding: UTF-8
Language: en
Country: null
--></g></svg>