<?xml version="1.0" encoding="us-ascii" standalone="no"?><svg xmlns="http://www.w3.org/2000/svg" xmlns:xlink="http://www.w3.org/1999/xlink" contentStyleType="text/css" height="138px" preserveAspectRatio="none" style="width:249px;height:138px;" version="1.1" viewBox="0 0 249 138" width="249px" zoomAndPan="magnify"><defs/><g><!--class GravitySensor--><g id="elem_GravitySensor"><rect codeLine="4" fill="#F1F1F1" height="32" id="GravitySensor" rx="2.5" ry="2.5" style="stroke:#181818;stroke-width:0.5;" width="127" x="61" y="99"/><ellipse cx="76" cy="115" fill="#ADD1B2" rx="11" ry="11" style="stroke:#181818;stroke-width:1.0;"/><path d="M78.9688,120.6406 Q78.3906,120.9375 77.75,121.0781 Q77.1094,121.2344 76.4063,121.2344 Q73.9063,121.2344 72.5781,119.5938 Q71.2656,117.9375 71.2656,114.8125 Q71.2656,111.6875 72.5781,110.0313 Q73.9063,108.375 76.4063,108.375 Q77.1094,108.375 77.75,108.5313 Q78.4063,108.6875 78.9688,108.9844 L78.9688,111.7031 Q78.3438,111.125 77.75,110.8594 Q77.1563,110.5781 76.5313,110.5781 Q75.1875,110.5781 74.5,111.6563 Q73.8125,112.7188 73.8125,114.8125 Q73.8125,116.9063 74.5,117.9844 Q75.1875,119.0469 76.5313,119.0469 Q77.1563,119.0469 77.75,118.7813 Q78.3438,118.5 78.9688,117.9219 L78.9688,120.6406 Z " fill="#000000"/><text fill="#000000" font-family="sans-serif" font-size="14" lengthAdjust="spacing" textLength="95" x="90" y="119.8467">GravitySensor</text></g><!--class SensorObject<Acceleration>--><g id="elem_SensorObject&lt;Acceleration&gt;"><rect codeLine="6" fill="#F1F1F1" height="32" id="SensorObject&lt;Acceleration&gt;" rx="2.5" ry="2.5" style="stroke:#181818;stroke-width:0.5;" width="235" x="7" y="7"/><ellipse cx="22" cy="23" fill="#A9DCDF" rx="11" ry="11" style="stroke:#181818;stroke-width:1.0;"/><path d="M22.1094,18.3438 L20.9531,23.4219 L23.2813,23.4219 L22.1094,18.3438 Z M20.625,16.1094 L23.6094,16.1094 L26.9688,28.5 L24.5156,28.5 L23.75,25.4375 L20.4688,25.4375 L19.7188,28.5 L17.2813,28.5 L20.625,16.1094 Z " fill="#000000"/><text fill="#000000" font-family="sans-serif" font-size="14" font-style="italic" lengthAdjust="spacing" textLength="203" x="36" y="27.8467">SensorObject&lt;Acceleration&gt;</text></g><!--reverse link SensorObject<Acceleration> to GravitySensor--><g id="link_SensorObject&lt;Acceleration&gt;_GravitySensor"><path codeLine="8" d="M124.5,59.61 C124.5,73.31 124.5,88.22 124.5,98.96 " fill="none" id="SensorObject&lt;Acceleration&gt;-backto-GravitySensor" style="stroke:#181818;stroke-width:1.0;"/><polygon fill="none" points="117.5,59.27,124.5,39.27,131.5,59.27,117.5,59.27" style="stroke:#181818;stroke-width:1.0;"/></g><!--SRC=[VOqn3i8m34NtdCBgtXjKIC30oC09tCJGqCIkR8DK0NUdKXaG0-jxJ__Rc7b2nGexZED5vSPfBqKKN95jKSGUXfm8g4u-GoKV9DatEcSg2ua5pQ0vADwppoTY4stW4Lu1UrlMeiCdMTsnlrBqRXiZ5LBqBBnP-xz1zspRtvSt]--></g></svg>