<?xml version="1.0" encoding="UTF-8" standalone="no"?><svg xmlns="http://www.w3.org/2000/svg" xmlns:xlink="http://www.w3.org/1999/xlink" contentScriptType="application/ecmascript" contentStyleType="text/css" height="145px" preserveAspectRatio="none" style="width:135px;height:145px;background:#00000000;" version="1.1" viewBox="0 0 135 145" width="135px" zoomAndPan="magnify"><defs><filter height="300%" id="f7x4jboikktmo" width="300%" x="-1" y="-1"><feGaussianBlur result="blurOut" stdDeviation="2.0"/><feColorMatrix in="blurOut" result="blurOut2" type="matrix" values="0 0 0 0 0 0 0 0 0 0 0 0 0 0 0 0 0 0 .4 0"/><feOffset dx="4.0" dy="4.0" in="blurOut2" result="blurOut3"/><feBlend in="SourceGraphic" in2="blurOut3" mode="normal"/></filter></defs><g><!--MD5=[8eaa6a8ee8c6873283bef640c9b86333]
class Gyroscope--><rect codeLine="4" fill="#FEFECE" filter="url(#f7x4jboikktmo)" height="32" id="Gyroscope" style="stroke:#A80036;stroke-width:1.5;" width="98" x="15" y="99"/><ellipse cx="30" cy="115" fill="#ADD1B2" rx="11" ry="11" style="stroke:#A80036;stroke-width:1.0;"/><path d="M32.9688,120.6406 Q32.3906,120.9375 31.75,121.0781 Q31.1094,121.2344 30.4063,121.2344 Q27.9063,121.2344 26.5781,119.5938 Q25.2656,117.9375 25.2656,114.8125 Q25.2656,111.6875 26.5781,110.0313 Q27.9063,108.375 30.4063,108.375 Q31.1094,108.375 31.75,108.5313 Q32.4063,108.6875 32.9688,108.9844 L32.9688,111.7031 Q32.3438,111.125 31.75,110.8594 Q31.1563,110.5781 30.5313,110.5781 Q29.1875,110.5781 28.5,111.6563 Q27.8125,112.7188 27.8125,114.8125 Q27.8125,116.9063 28.5,117.9844 Q29.1875,119.0469 30.5313,119.0469 Q31.1563,119.0469 31.75,118.7813 Q32.3438,118.5 32.9688,117.9219 L32.9688,120.6406 Z " fill="#000000"/><text fill="#000000" font-family="sans-serif" font-size="12" lengthAdjust="spacing" textLength="66" x="44" y="119.1543">Gyroscope</text><!--MD5=[6eee01115da8f7fcb68946e8bd3dd2dd]
class SensorObject--><rect codeLine="6" fill="#FEFECE" filter="url(#f7x4jboikktmo)" height="32" id="SensorObject" style="stroke:#A80036;stroke-width:1.5;" width="114" x="7" y="7"/><ellipse cx="22" cy="23" fill="#A9DCDF" rx="11" ry="11" style="stroke:#A80036;stroke-width:1.0;"/><path d="M22.1094,18.3438 L20.9531,23.4219 L23.2813,23.4219 L22.1094,18.3438 Z M20.625,16.1094 L23.6094,16.1094 L26.9688,28.5 L24.5156,28.5 L23.75,25.4375 L20.4688,25.4375 L19.7188,28.5 L17.2813,28.5 L20.625,16.1094 Z " fill="#000000"/><text fill="#000000" font-family="sans-serif" font-size="12" font-style="italic" lengthAdjust="spacing" textLength="82" x="36" y="27.1543">SensorObject</text><!--MD5=[0004215bff94efde5c85503b812bf8aa]
reverse link SensorObject to Gyroscope--><path codeLine="8" d="M64,59.61 C64,73.31 64,88.22 64,98.96 " fill="none" id="SensorObject-backto-Gyroscope" style="stroke:#A80036;stroke-width:1.0;"/><polygon fill="none" points="57,59.27,64,39.27,71,59.27,57,59.27" style="stroke:#A80036;stroke-width:1.0;"/><!--MD5=[a4070d070c7babd21913a0fd44446f34]
@startuml
skinparam BackgroundColor transparent
hide empty methods
hide empty fields
class "Gyroscope" {
}
abstract class "SensorObject" {
}
"SensorObject" <|- - "Gyroscope"
@enduml

PlantUML version 1.2021.14(Fri Nov 12 16:46:50 UTC 2021)
(GPL source distribution)
Java Runtime: OpenJDK Runtime Environment
JVM: OpenJDK 64-Bit Server VM
Default Encoding: UTF-8
Language: en
Country: null
--></g></svg>