<?xml version="1.0" encoding="UTF-8" standalone="no"?><svg xmlns="http://www.w3.org/2000/svg" xmlns:xlink="http://www.w3.org/1999/xlink" contentScriptType="application/ecmascript" contentStyleType="text/css" height="145px" preserveAspectRatio="none" style="width:252px;height:145px;background:#00000000;" version="1.1" viewBox="0 0 252 145" width="252px" zoomAndPan="magnify"><defs><filter height="300%" id="f1ib6ihrw0do9s" width="300%" x="-1" y="-1"><feGaussianBlur result="blurOut" stdDeviation="2.0"/><feColorMatrix in="blurOut" result="blurOut2" type="matrix" values="0 0 0 0 0 0 0 0 0 0 0 0 0 0 0 0 0 0 .4 0"/><feOffset dx="4.0" dy="4.0" in="blurOut2" result="blurOut3"/><feBlend in="SourceGraphic" in2="blurOut3" mode="normal"/></filter></defs><g><!--MD5=[8eaa6a8ee8c6873283bef640c9b86333]
class Gyroscope--><rect codeLine="4" fill="#FEFECE" filter="url(#f1ib6ihrw0do9s)" height="32" id="Gyroscope" style="stroke:#A80036;stroke-width:1.5;" width="98" x="73.5" y="99"/><ellipse cx="88.5" cy="115" fill="#ADD1B2" rx="11" ry="11" style="stroke:#A80036;stroke-width:1.0;"/><path d="M91.4688,120.6406 Q90.8906,120.9375 90.25,121.0781 Q89.6094,121.2344 88.9063,121.2344 Q86.4063,121.2344 85.0781,119.5938 Q83.7656,117.9375 83.7656,114.8125 Q83.7656,111.6875 85.0781,110.0313 Q86.4063,108.375 88.9063,108.375 Q89.6094,108.375 90.25,108.5313 Q90.9063,108.6875 91.4688,108.9844 L91.4688,111.7031 Q90.8438,111.125 90.25,110.8594 Q89.6563,110.5781 89.0313,110.5781 Q87.6875,110.5781 87,111.6563 Q86.3125,112.7188 86.3125,114.8125 Q86.3125,116.9063 87,117.9844 Q87.6875,119.0469 89.0313,119.0469 Q89.6563,119.0469 90.25,118.7813 Q90.8438,118.5 91.4688,117.9219 L91.4688,120.6406 Z " fill="#000000"/><text fill="#000000" font-family="sans-serif" font-size="12" lengthAdjust="spacing" textLength="66" x="102.5" y="119.1543">Gyroscope</text><!--MD5=[0f09e7b0e84b69304354d9e2d51a03fe]
class SensorObject<AngularVelocity>--><rect codeLine="6" fill="#FEFECE" filter="url(#f1ib6ihrw0do9s)" height="32" id="SensorObject&lt;AngularVelocity&gt;" style="stroke:#A80036;stroke-width:1.5;" width="231" x="7" y="7"/><ellipse cx="22" cy="23" fill="#A9DCDF" rx="11" ry="11" style="stroke:#A80036;stroke-width:1.0;"/><path d="M22.1094,18.3438 L20.9531,23.4219 L23.2813,23.4219 L22.1094,18.3438 Z M20.625,16.1094 L23.6094,16.1094 L26.9688,28.5 L24.5156,28.5 L23.75,25.4375 L20.4688,25.4375 L19.7188,28.5 L17.2813,28.5 L20.625,16.1094 Z " fill="#000000"/><text fill="#000000" font-family="sans-serif" font-size="12" font-style="italic" lengthAdjust="spacing" textLength="199" x="36" y="27.1543">SensorObject&lt;AngularVelocity&gt;</text><!--MD5=[c38d8541c62673736e1933da838ac67c]
reverse link SensorObject<AngularVelocity> to Gyroscope--><path codeLine="8" d="M122.5,59.61 C122.5,73.31 122.5,88.22 122.5,98.96 " fill="none" id="SensorObject&lt;AngularVelocity&gt;-backto-Gyroscope" style="stroke:#A80036;stroke-width:1.0;"/><polygon fill="none" points="115.5,59.27,122.5,39.27,129.5,59.27,115.5,59.27" style="stroke:#A80036;stroke-width:1.0;"/><!--MD5=[af9d3583f36a467e68fd544c522cd314]
@startuml
skinparam BackgroundColor transparent
hide empty methods
hide empty fields
class "Gyroscope" {
}
abstract class "SensorObject<AngularVelocity>" {
}
"SensorObject<AngularVelocity>" <|- - "Gyroscope"
@enduml

PlantUML version 1.2021.14(Fri Nov 12 16:46:50 UTC 2021)
(GPL source distribution)
Java Runtime: OpenJDK Runtime Environment
JVM: OpenJDK 64-Bit Server VM
Default Encoding: UTF-8
Language: en
Country: null
--></g></svg>