<?xml version="1.0" encoding="us-ascii" standalone="no"?><svg xmlns="http://www.w3.org/2000/svg" xmlns:xlink="http://www.w3.org/1999/xlink" contentStyleType="text/css" height="138px" preserveAspectRatio="none" style="width:271px;height:138px;" version="1.1" viewBox="0 0 271 138" width="271px" zoomAndPan="magnify"><defs/><g><!--class Gyroscope--><g id="elem_Gyroscope"><rect codeLine="4" fill="#F1F1F1" height="32" id="Gyroscope" rx="2.5" ry="2.5" style="stroke:#181818;stroke-width:0.5;" width="107" x="82" y="99"/><ellipse cx="97" cy="115" fill="#ADD1B2" rx="11" ry="11" style="stroke:#181818;stroke-width:1.0;"/><path d="M99.9688,120.6406 Q99.3906,120.9375 98.75,121.0781 Q98.1094,121.2344 97.4063,121.2344 Q94.9063,121.2344 93.5781,119.5938 Q92.2656,117.9375 92.2656,114.8125 Q92.2656,111.6875 93.5781,110.0313 Q94.9063,108.375 97.4063,108.375 Q98.1094,108.375 98.75,108.5313 Q99.4063,108.6875 99.9688,108.9844 L99.9688,111.7031 Q99.3438,111.125 98.75,110.8594 Q98.1563,110.5781 97.5313,110.5781 Q96.1875,110.5781 95.5,111.6563 Q94.8125,112.7188 94.8125,114.8125 Q94.8125,116.9063 95.5,117.9844 Q96.1875,119.0469 97.5313,119.0469 Q98.1563,119.0469 98.75,118.7813 Q99.3438,118.5 99.9688,117.9219 L99.9688,120.6406 Z " fill="#000000"/><text fill="#000000" font-family="sans-serif" font-size="14" lengthAdjust="spacing" textLength="75" x="111" y="119.8467">Gyroscope</text></g><!--class SensorObject<AngularVelocity>--><g id="elem_SensorObject&lt;AngularVelocity&gt;"><rect codeLine="6" fill="#F1F1F1" height="32" id="SensorObject&lt;AngularVelocity&gt;" rx="2.5" ry="2.5" style="stroke:#181818;stroke-width:0.5;" width="257" x="7" y="7"/><ellipse cx="22" cy="23" fill="#A9DCDF" rx="11" ry="11" style="stroke:#181818;stroke-width:1.0;"/><path d="M22.1094,18.3438 L20.9531,23.4219 L23.2813,23.4219 L22.1094,18.3438 Z M20.625,16.1094 L23.6094,16.1094 L26.9688,28.5 L24.5156,28.5 L23.75,25.4375 L20.4688,25.4375 L19.7188,28.5 L17.2813,28.5 L20.625,16.1094 Z " fill="#000000"/><text fill="#000000" font-family="sans-serif" font-size="14" font-style="italic" lengthAdjust="spacing" textLength="225" x="36" y="27.8467">SensorObject&lt;AngularVelocity&gt;</text></g><!--reverse link SensorObject<AngularVelocity> to Gyroscope--><g id="link_SensorObject&lt;AngularVelocity&gt;_Gyroscope"><path codeLine="8" d="M135.5,59.61 C135.5,73.31 135.5,88.22 135.5,98.96 " fill="none" id="SensorObject&lt;AngularVelocity&gt;-backto-Gyroscope" style="stroke:#181818;stroke-width:1.0;"/><polygon fill="none" points="128.5,59.27,135.5,39.27,142.5,59.27,128.5,59.27" style="stroke:#181818;stroke-width:1.0;"/></g><!--SRC=[XOqz3i8m34RtdCBgtXjKIC30o834xgQc3KtYo7Q7g71tAi7GZVMzxqVda0iA9ZYXdqVX9GzdZYnWWbatHTdS50O2IiKg9BA91zsZHw2u4HzH5PfB5LRFXHfOtTjXhzkID_Zf6sLbkVPFyjOTyxX4b3j5zi7guLlvb-bURRl_-G00]--></g></svg>