<?xml version="1.0" encoding="UTF-8" standalone="no"?><svg xmlns="http://www.w3.org/2000/svg" xmlns:xlink="http://www.w3.org/1999/xlink" contentScriptType="application/ecmascript" contentStyleType="text/css" height="288px" preserveAspectRatio="none" style="width:196px;height:288px;background:#00000000;" version="1.1" viewBox="0 0 196 288" width="196px" zoomAndPan="magnify"><defs><filter height="300%" id="f1w17xaagbbnsb" width="300%" x="-1" y="-1"><feGaussianBlur result="blurOut" stdDeviation="2.0"/><feColorMatrix in="blurOut" result="blurOut2" type="matrix" values="0 0 0 0 0 0 0 0 0 0 0 0 0 0 0 0 0 0 .4 0"/><feOffset dx="4.0" dy="4.0" in="blurOut2" result="blurOut3"/><feBlend in="SourceGraphic" in2="blurOut3" mode="normal"/></filter></defs><g><!--MD5=[cbc93b11530cc764a6c96787e35d9a33]
class HPFilterOptions--><rect codeLine="4" fill="#FEFECE" filter="url(#f1w17xaagbbnsb)" height="116.8281" id="HPFilterOptions" style="stroke:#A80036;stroke-width:1.5;" width="149" x="20" y="158"/><ellipse cx="45.8" cy="174" fill="#B4A7E5" rx="11" ry="11" style="stroke:#A80036;stroke-width:1.0;"/><path d="M41.7219,169.7656 L41.7219,167.6094 L49.1125,167.6094 L49.1125,169.7656 L46.6438,169.7656 L46.6438,177.8438 L49.1125,177.8438 L49.1125,180 L41.7219,180 L41.7219,177.8438 L44.1906,177.8438 L44.1906,169.7656 L41.7219,169.7656 Z " fill="#000000"/><text fill="#000000" font-family="sans-serif" font-size="12" font-style="italic" lengthAdjust="spacing" textLength="93" x="62.2" y="178.1543">HPFilterOptions</text><line style="stroke:#A80036;stroke-width:1.5;" x1="21" x2="168" y1="190" y2="190"/><ellipse cx="31" cy="201" rx="3" ry="3" style="stroke:#038048;stroke-width:1.0;fill:none;"/><text fill="#000000" font-family="sans-serif" font-size="11" lengthAdjust="spacing" textLength="90" x="40" y="204.2104">cutOff : number</text><ellipse cx="31" cy="213.8047" rx="3" ry="3" style="stroke:#038048;stroke-width:1.0;fill:none;"/><text fill="#000000" font-family="sans-serif" font-size="11" lengthAdjust="spacing" textLength="121" x="40" y="217.0151">frameFilter : Function</text><ellipse cx="31" cy="226.6094" rx="3" ry="3" style="stroke:#038048;stroke-width:1.0;fill:none;"/><text fill="#000000" font-family="sans-serif" font-size="11" lengthAdjust="spacing" textLength="77" x="40" y="229.8198">name : string</text><ellipse cx="31" cy="239.4141" rx="3" ry="3" style="stroke:#038048;stroke-width:1.0;fill:none;"/><text fill="#000000" font-family="sans-serif" font-size="11" lengthAdjust="spacing" textLength="121" x="40" y="242.6245">objectFilter : Function</text><ellipse cx="31" cy="252.2188" rx="3" ry="3" style="stroke:#038048;stroke-width:1.0;fill:none;"/><text fill="#000000" font-family="sans-serif" font-size="11" lengthAdjust="spacing" textLength="123" x="40" y="255.4292">sampleRate : number</text><ellipse cx="31" cy="265.0234" rx="3" ry="3" style="stroke:#038048;stroke-width:1.0;fill:none;"/><text fill="#000000" font-family="sans-serif" font-size="11" lengthAdjust="spacing" textLength="62" x="40" y="268.2339">uid : string</text><!--MD5=[a64cc95f50a68f73795155817271a9ec]
class FilterProcessingOptions--><rect codeLine="12" fill="#FEFECE" filter="url(#f1w17xaagbbnsb)" height="91.2188" id="FilterProcessingOptions" style="stroke:#A80036;stroke-width:1.5;" width="175" x="7" y="7"/><ellipse cx="22" cy="23" fill="#B4A7E5" rx="11" ry="11" style="stroke:#A80036;stroke-width:1.0;"/><path d="M17.9219,18.7656 L17.9219,16.6094 L25.3125,16.6094 L25.3125,18.7656 L22.8438,18.7656 L22.8438,26.8438 L25.3125,26.8438 L25.3125,29 L17.9219,29 L17.9219,26.8438 L20.3906,26.8438 L20.3906,18.7656 L17.9219,18.7656 Z " fill="#000000"/><text fill="#000000" font-family="sans-serif" font-size="12" font-style="italic" lengthAdjust="spacing" textLength="143" x="36" y="27.1543">FilterProcessingOptions</text><line style="stroke:#A80036;stroke-width:1.5;" x1="8" x2="181" y1="39" y2="39"/><ellipse cx="18" cy="50" rx="3" ry="3" style="stroke:#038048;stroke-width:1.0;fill:none;"/><text fill="#000000" font-family="sans-serif" font-size="11" lengthAdjust="spacing" textLength="121" x="27" y="53.2104">frameFilter : Function</text><ellipse cx="18" cy="62.8047" rx="3" ry="3" style="stroke:#038048;stroke-width:1.0;fill:none;"/><text fill="#000000" font-family="sans-serif" font-size="11" lengthAdjust="spacing" textLength="77" x="27" y="66.0151">name : string</text><ellipse cx="18" cy="75.6094" rx="3" ry="3" style="stroke:#038048;stroke-width:1.0;fill:none;"/><text fill="#000000" font-family="sans-serif" font-size="11" lengthAdjust="spacing" textLength="121" x="27" y="78.8198">objectFilter : Function</text><ellipse cx="18" cy="88.4141" rx="3" ry="3" style="stroke:#038048;stroke-width:1.0;fill:none;"/><text fill="#000000" font-family="sans-serif" font-size="11" lengthAdjust="spacing" textLength="62" x="27" y="91.6245">uid : string</text><!--MD5=[20d3ecd5d695debc0db424f3f099daea]
reverse link FilterProcessingOptions to HPFilterOptions--><path codeLine="18" d="M94.5,118.61 C94.5,131.6 94.5,145.16 94.5,157.88 " fill="none" id="FilterProcessingOptions-backto-HPFilterOptions" style="stroke:#A80036;stroke-width:1.0;"/><polygon fill="none" points="87.5,118.2,94.5,98.2,101.5,118.2,87.5,118.2" style="stroke:#A80036;stroke-width:1.0;"/><!--MD5=[3ebb2a3debb65335b812740373e436ae]
@startuml
skinparam BackgroundColor transparent
hide empty methods
hide empty fields
interface "HPFilterOptions" {
    +cutOff : number
    +frameFilter : Function
    +name : string
    +objectFilter : Function
    +sampleRate : number
    +uid : string
}
interface "FilterProcessingOptions" {
    +frameFilter : Function
    +name : string
    +objectFilter : Function
    +uid : string
}
"FilterProcessingOptions" <|- - "HPFilterOptions"
@enduml

PlantUML version 1.2021.14(Fri Nov 12 16:46:50 UTC 2021)
(GPL source distribution)
Java Runtime: OpenJDK Runtime Environment
JVM: OpenJDK 64-Bit Server VM
Default Encoding: UTF-8
Language: en
Country: null
--></g></svg>