<?xml version="1.0" encoding="us-ascii" standalone="no"?><svg xmlns="http://www.w3.org/2000/svg" xmlns:xlink="http://www.w3.org/1999/xlink" contentStyleType="text/css" height="138px" preserveAspectRatio="none" style="width:206px;height:138px;" version="1.1" viewBox="0 0 206 138" width="206px" zoomAndPan="magnify"><defs/><g><!--class HPFilterOptions--><g id="elem_HPFilterOptions"><rect codeLine="4" fill="#F1F1F1" height="32" id="HPFilterOptions" rx="2.5" ry="2.5" style="stroke:#181818;stroke-width:0.5;" width="137" x="34.5" y="99"/><ellipse cx="49.5" cy="115" fill="#B4A7E5" rx="11" ry="11" style="stroke:#181818;stroke-width:1.0;"/><path d="M45.4219,110.7656 L45.4219,108.6094 L52.8125,108.6094 L52.8125,110.7656 L50.3438,110.7656 L50.3438,118.8438 L52.8125,118.8438 L52.8125,121 L45.4219,121 L45.4219,118.8438 L47.8906,118.8438 L47.8906,110.7656 L45.4219,110.7656 Z " fill="#000000"/><text fill="#000000" font-family="sans-serif" font-size="14" font-style="italic" lengthAdjust="spacing" textLength="105" x="63.5" y="119.8467">HPFilterOptions</text></g><!--class FilterProcessingOptions--><g id="elem_FilterProcessingOptions"><rect codeLine="6" fill="#F1F1F1" height="32" id="FilterProcessingOptions" rx="2.5" ry="2.5" style="stroke:#181818;stroke-width:0.5;" width="192" x="7" y="7"/><ellipse cx="22" cy="23" fill="#B4A7E5" rx="11" ry="11" style="stroke:#181818;stroke-width:1.0;"/><path d="M17.9219,18.7656 L17.9219,16.6094 L25.3125,16.6094 L25.3125,18.7656 L22.8438,18.7656 L22.8438,26.8438 L25.3125,26.8438 L25.3125,29 L17.9219,29 L17.9219,26.8438 L20.3906,26.8438 L20.3906,18.7656 L17.9219,18.7656 Z " fill="#000000"/><text fill="#000000" font-family="sans-serif" font-size="14" font-style="italic" lengthAdjust="spacing" textLength="160" x="36" y="27.8467">FilterProcessingOptions</text></g><!--reverse link FilterProcessingOptions to HPFilterOptions--><g id="link_FilterProcessingOptions_HPFilterOptions"><path codeLine="8" d="M103,59.61 C103,73.31 103,88.22 103,98.96 " fill="none" id="FilterProcessingOptions-backto-HPFilterOptions" style="stroke:#181818;stroke-width:1.0;"/><polygon fill="none" points="96,59.27,103,39.27,110,59.27,96,59.27" style="stroke:#181818;stroke-width:1.0;"/></g><!--SRC=[TSmn3i8m30NGlQUmklS6J22XRlGAKUAsLXCxiis0WBiJYQMeOlp_VNtRY6lGKE0SuhQet3bT98k2Qs1hXEpTIWa1I_K75FHLakshcJ2tXjXHvn0H-d6wKcxfLfs4hOTdzzxxLoULY6R4oy_klvvUmt0y_m00]--></g></svg>