<?xml version="1.0" encoding="us-ascii" standalone="no"?><svg xmlns="http://www.w3.org/2000/svg" xmlns:xlink="http://www.w3.org/1999/xlink" contentStyleType="text/css" height="138px" preserveAspectRatio="none" style="width:311px;height:138px;" version="1.1" viewBox="0 0 311 138" width="311px" zoomAndPan="magnify"><defs/><g><!--class HPFilterNode<InOut>--><g id="elem_HPFilterNode&lt;InOut&gt;"><rect codeLine="4" fill="#F1F1F1" height="32" id="HPFilterNode&lt;InOut&gt;" rx="2.5" ry="2.5" style="stroke:#181818;stroke-width:0.5;" width="182" x="64.5" y="99"/><ellipse cx="79.5" cy="115" fill="#ADD1B2" rx="11" ry="11" style="stroke:#181818;stroke-width:1.0;"/><path d="M82.4688,120.6406 Q81.8906,120.9375 81.25,121.0781 Q80.6094,121.2344 79.9063,121.2344 Q77.4063,121.2344 76.0781,119.5938 Q74.7656,117.9375 74.7656,114.8125 Q74.7656,111.6875 76.0781,110.0313 Q77.4063,108.375 79.9063,108.375 Q80.6094,108.375 81.25,108.5313 Q81.9063,108.6875 82.4688,108.9844 L82.4688,111.7031 Q81.8438,111.125 81.25,110.8594 Q80.6563,110.5781 80.0313,110.5781 Q78.6875,110.5781 78,111.6563 Q77.3125,112.7188 77.3125,114.8125 Q77.3125,116.9063 78,117.9844 Q78.6875,119.0469 80.0313,119.0469 Q80.6563,119.0469 81.25,118.7813 Q81.8438,118.5 82.4688,117.9219 L82.4688,120.6406 Z " fill="#000000"/><text fill="#000000" font-family="sans-serif" font-size="14" lengthAdjust="spacing" textLength="150" x="93.5" y="119.8467">HPFilterNode&lt;InOut&gt;</text></g><!--class PropertyFilterProcessingNode<InOut>--><g id="elem_PropertyFilterProcessingNode&lt;InOut&gt;"><rect codeLine="6" fill="#F1F1F1" height="32" id="PropertyFilterProcessingNode&lt;InOut&gt;" rx="2.5" ry="2.5" style="stroke:#181818;stroke-width:0.5;" width="297" x="7" y="7"/><ellipse cx="22" cy="23" fill="#A9DCDF" rx="11" ry="11" style="stroke:#181818;stroke-width:1.0;"/><path d="M22.1094,18.3438 L20.9531,23.4219 L23.2813,23.4219 L22.1094,18.3438 Z M20.625,16.1094 L23.6094,16.1094 L26.9688,28.5 L24.5156,28.5 L23.75,25.4375 L20.4688,25.4375 L19.7188,28.5 L17.2813,28.5 L20.625,16.1094 Z " fill="#000000"/><text fill="#000000" font-family="sans-serif" font-size="14" font-style="italic" lengthAdjust="spacing" textLength="265" x="36" y="27.8467">PropertyFilterProcessingNode&lt;InOut&gt;</text></g><!--reverse link PropertyFilterProcessingNode<InOut> to HPFilterNode<InOut>--><g id="link_PropertyFilterProcessingNode&lt;InOut&gt;_HPFilterNode&lt;InOut&gt;"><path codeLine="8" d="M155.5,59.61 C155.5,73.31 155.5,88.22 155.5,98.96 " fill="none" id="PropertyFilterProcessingNode&lt;InOut&gt;-backto-HPFilterNode&lt;InOut&gt;" style="stroke:#181818;stroke-width:1.0;"/><polygon fill="none" points="148.5,59.27,155.5,39.27,162.5,59.27,148.5,59.27" style="stroke:#181818;stroke-width:1.0;"/></g><!--SRC=[ZOsn3i8m34JtV8NLlNzGCO24O87-GaXC6pMnAziTAk3VYGG34WoCT_VkJgT4inTVOEl3D0Wl57USMS34azO8oToO8WAMsLOeQ2D7_RIk2NDrGlQgq1pwVSg6SkA8tP7EYsqQkBc7ynUjcy7W3VR2CugjBxogWAg9Xg_YVsHtRzlVxqy0]--></g></svg>