<?xml version="1.0" encoding="us-ascii" standalone="no"?><svg xmlns="http://www.w3.org/2000/svg" xmlns:xlink="http://www.w3.org/1999/xlink" contentStyleType="text/css" height="138px" preserveAspectRatio="none" style="width:184px;height:138px;" version="1.1" viewBox="0 0 184 138" width="184px" zoomAndPan="magnify"><defs/><g><!--class Humidity--><g id="elem_Humidity"><rect codeLine="4" fill="#F1F1F1" height="32" id="Humidity" rx="2.5" ry="2.5" style="stroke:#181818;stroke-width:0.5;" width="91" x="46.5" y="99"/><ellipse cx="61.5" cy="115" fill="#ADD1B2" rx="11" ry="11" style="stroke:#181818;stroke-width:1.0;"/><path d="M64.4688,120.6406 Q63.8906,120.9375 63.25,121.0781 Q62.6094,121.2344 61.9063,121.2344 Q59.4063,121.2344 58.0781,119.5938 Q56.7656,117.9375 56.7656,114.8125 Q56.7656,111.6875 58.0781,110.0313 Q59.4063,108.375 61.9063,108.375 Q62.6094,108.375 63.25,108.5313 Q63.9063,108.6875 64.4688,108.9844 L64.4688,111.7031 Q63.8438,111.125 63.25,110.8594 Q62.6563,110.5781 62.0313,110.5781 Q60.6875,110.5781 60,111.6563 Q59.3125,112.7188 59.3125,114.8125 Q59.3125,116.9063 60,117.9844 Q60.6875,119.0469 62.0313,119.0469 Q62.6563,119.0469 63.25,118.7813 Q63.8438,118.5 64.4688,117.9219 L64.4688,120.6406 Z " fill="#000000"/><text fill="#000000" font-family="sans-serif" font-size="14" lengthAdjust="spacing" textLength="59" x="75.5" y="119.8467">Humidity</text></g><!--class SensorValue<Unit>--><g id="elem_SensorValue&lt;Unit&gt;"><rect codeLine="6" fill="#F1F1F1" height="32" id="SensorValue&lt;Unit&gt;" rx="2.5" ry="2.5" style="stroke:#181818;stroke-width:0.5;" width="170" x="7" y="7"/><ellipse cx="22" cy="23" fill="#ADD1B2" rx="11" ry="11" style="stroke:#181818;stroke-width:1.0;"/><path d="M24.9688,28.6406 Q24.3906,28.9375 23.75,29.0781 Q23.1094,29.2344 22.4063,29.2344 Q19.9063,29.2344 18.5781,27.5938 Q17.2656,25.9375 17.2656,22.8125 Q17.2656,19.6875 18.5781,18.0313 Q19.9063,16.375 22.4063,16.375 Q23.1094,16.375 23.75,16.5313 Q24.4063,16.6875 24.9688,16.9844 L24.9688,19.7031 Q24.3438,19.125 23.75,18.8594 Q23.1563,18.5781 22.5313,18.5781 Q21.1875,18.5781 20.5,19.6563 Q19.8125,20.7188 19.8125,22.8125 Q19.8125,24.9063 20.5,25.9844 Q21.1875,27.0469 22.5313,27.0469 Q23.1563,27.0469 23.75,26.7813 Q24.3438,26.5 24.9688,25.9219 L24.9688,28.6406 Z " fill="#000000"/><text fill="#000000" font-family="sans-serif" font-size="14" lengthAdjust="spacing" textLength="138" x="36" y="27.8467">SensorValue&lt;Unit&gt;</text></g><!--reverse link SensorValue<Unit> to Humidity--><g id="link_SensorValue&lt;Unit&gt;_Humidity"><path codeLine="8" d="M92,59.61 C92,73.31 92,88.22 92,98.96 " fill="none" id="SensorValue&lt;Unit&gt;-backto-Humidity" style="stroke:#181818;stroke-width:1.0;"/><polygon fill="none" points="85,59.27,92,39.27,99,59.27,85,59.27" style="stroke:#181818;stroke-width:1.0;"/></g><!--SRC=[RSon2i90383XlKyHklSDYeDTt4Ntq4jjw5rIajnGr7Ut8487r- -7tnUM5GqBd75S7gPLqg1P3S9GV4yaqSoS2AYiiK6Xc3NvaIQclCkOqHtQIosSEBOMditxXrSILxjZhjJVXEFqhV-yVtNTuV81]--></g></svg>