<?xml version="1.0" encoding="us-ascii" standalone="no"?><svg xmlns="http://www.w3.org/2000/svg" xmlns:xlink="http://www.w3.org/1999/xlink" contentStyleType="text/css" height="138px" preserveAspectRatio="none" style="width:143px;height:138px;" version="1.1" viewBox="0 0 143 138" width="143px" zoomAndPan="magnify"><defs/><g><!--class Inlet<In>--><g id="elem_Inlet&lt;In&gt;"><rect codeLine="4" fill="#F1F1F1" height="32" id="Inlet&lt;In&gt;" rx="2.5" ry="2.5" style="stroke:#181818;stroke-width:0.5;" width="99" x="22" y="7"/><ellipse cx="37" cy="23" fill="#B4A7E5" rx="11" ry="11" style="stroke:#181818;stroke-width:1.0;"/><path d="M32.9219,18.7656 L32.9219,16.6094 L40.3125,16.6094 L40.3125,18.7656 L37.8438,18.7656 L37.8438,26.8438 L40.3125,26.8438 L40.3125,29 L32.9219,29 L32.9219,26.8438 L35.3906,26.8438 L35.3906,18.7656 L32.9219,18.7656 Z " fill="#000000"/><text fill="#000000" font-family="sans-serif" font-size="14" font-style="italic" lengthAdjust="spacing" textLength="67" x="51" y="27.8467">Inlet&lt;In&gt;</text></g><!--class Edge<InOut>--><g id="elem_Edge&lt;InOut&gt;"><rect codeLine="6" fill="#F1F1F1" height="32" id="Edge&lt;InOut&gt;" rx="2.5" ry="2.5" style="stroke:#181818;stroke-width:0.5;" width="129" x="7" y="99"/><ellipse cx="22" cy="115" fill="#ADD1B2" rx="11" ry="11" style="stroke:#181818;stroke-width:1.0;"/><path d="M24.9688,120.6406 Q24.3906,120.9375 23.75,121.0781 Q23.1094,121.2344 22.4063,121.2344 Q19.9063,121.2344 18.5781,119.5938 Q17.2656,117.9375 17.2656,114.8125 Q17.2656,111.6875 18.5781,110.0313 Q19.9063,108.375 22.4063,108.375 Q23.1094,108.375 23.75,108.5313 Q24.4063,108.6875 24.9688,108.9844 L24.9688,111.7031 Q24.3438,111.125 23.75,110.8594 Q23.1563,110.5781 22.5313,110.5781 Q21.1875,110.5781 20.5,111.6563 Q19.8125,112.7188 19.8125,114.8125 Q19.8125,116.9063 20.5,117.9844 Q21.1875,119.0469 22.5313,119.0469 Q23.1563,119.0469 23.75,118.7813 Q24.3438,118.5 24.9688,117.9219 L24.9688,120.6406 Z " fill="#000000"/><text fill="#000000" font-family="sans-serif" font-size="14" lengthAdjust="spacing" textLength="97" x="36" y="119.8467">Edge&lt;InOut&gt;</text></g><!--reverse link Inlet<In> to Edge<InOut>--><g id="link_Inlet&lt;In&gt;_Edge&lt;InOut&gt;"><path codeLine="8" d="M71.5,59.61 C71.5,73.31 71.5,88.22 71.5,98.96 " fill="none" id="Inlet&lt;In&gt;-backto-Edge&lt;InOut&gt;" style="stroke:#181818;stroke-width:1.0;stroke-dasharray:7.0,7.0;"/><polygon fill="none" points="64.5,59.27,71.5,39.27,78.5,59.27,64.5,59.27" style="stroke:#181818;stroke-width:1.0;"/></g><!--SRC=[LSen3eCm343HFQUmSW1EW1XQTM3g6Qp4G4JY8DiCgEtTcu41rlU_heat52pmmB3EKdUEpvghW0cojaHiRacHWCfc1nIofKQzqfGeDqbi91C60Zzo9kj77ZnytC-5ZAhWNt6cXk_TJhz-_RVhxiiV]--></g></svg>