<?xml version="1.0" encoding="UTF-8" standalone="no"?><svg xmlns="http://www.w3.org/2000/svg" xmlns:xlink="http://www.w3.org/1999/xlink" contentScriptType="application/ecmascript" contentStyleType="text/css" height="237px" preserveAspectRatio="none" style="width:227px;height:237px;background:#00000000;" version="1.1" viewBox="0 0 227 237" width="227px" zoomAndPan="magnify"><defs><filter height="300%" id="f1ofsb94zh856u" width="300%" x="-1" y="-1"><feGaussianBlur result="blurOut" stdDeviation="2.0"/><feColorMatrix in="blurOut" result="blurOut2" type="matrix" values="0 0 0 0 0 0 0 0 0 0 0 0 0 0 0 0 0 0 .4 0"/><feOffset dx="4.0" dy="4.0" in="blurOut2" result="blurOut3"/><feBlend in="SourceGraphic" in2="blurOut3" mode="normal"/></filter></defs><g><!--MD5=[c4db96a564bbd1d7ac8a63c7e7bdbb40]
class KalmanFilterOptions--><rect codeLine="4" fill="#FEFECE" filter="url(#f1ofsb94zh856u)" height="32" id="KalmanFilterOptions" style="stroke:#A80036;stroke-width:1.5;" width="155" x="32.5" y="99"/><ellipse cx="47.5" cy="115" fill="#B4A7E5" rx="11" ry="11" style="stroke:#A80036;stroke-width:1.0;"/><path d="M43.4219,110.7656 L43.4219,108.6094 L50.8125,108.6094 L50.8125,110.7656 L48.3438,110.7656 L48.3438,118.8438 L50.8125,118.8438 L50.8125,121 L43.4219,121 L43.4219,118.8438 L45.8906,118.8438 L45.8906,110.7656 L43.4219,110.7656 Z " fill="#000000"/><text fill="#000000" font-family="sans-serif" font-size="12" font-style="italic" lengthAdjust="spacing" textLength="123" x="61.5" y="119.1543">KalmanFilterOptions</text><!--MD5=[a64cc95f50a68f73795155817271a9ec]
class FilterProcessingOptions--><rect codeLine="6" fill="#FEFECE" filter="url(#f1ofsb94zh856u)" height="32" id="FilterProcessingOptions" style="stroke:#A80036;stroke-width:1.5;" width="175" x="22.5" y="7"/><ellipse cx="37.5" cy="23" fill="#B4A7E5" rx="11" ry="11" style="stroke:#A80036;stroke-width:1.0;"/><path d="M33.4219,18.7656 L33.4219,16.6094 L40.8125,16.6094 L40.8125,18.7656 L38.3438,18.7656 L38.3438,26.8438 L40.8125,26.8438 L40.8125,29 L33.4219,29 L33.4219,26.8438 L35.8906,26.8438 L35.8906,18.7656 L33.4219,18.7656 Z " fill="#000000"/><text fill="#000000" font-family="sans-serif" font-size="12" font-style="italic" lengthAdjust="spacing" textLength="143" x="51.5" y="27.1543">FilterProcessingOptions</text><!--MD5=[69934aa6e6c78199f1ba0ec95556b545]
class RelativePositionFilterOptions--><rect codeLine="9" fill="#FEFECE" filter="url(#f1ofsb94zh856u)" height="32" id="RelativePositionFilterOptions" style="stroke:#A80036;stroke-width:1.5;" width="206" x="7" y="191"/><ellipse cx="22" cy="207" fill="#B4A7E5" rx="11" ry="11" style="stroke:#A80036;stroke-width:1.0;"/><path d="M17.9219,202.7656 L17.9219,200.6094 L25.3125,200.6094 L25.3125,202.7656 L22.8438,202.7656 L22.8438,210.8438 L25.3125,210.8438 L25.3125,213 L17.9219,213 L17.9219,210.8438 L20.3906,210.8438 L20.3906,202.7656 L17.9219,202.7656 Z " fill="#000000"/><text fill="#000000" font-family="sans-serif" font-size="12" font-style="italic" lengthAdjust="spacing" textLength="174" x="36" y="211.1543">RelativePositionFilterOptions</text><!--MD5=[0c280a02e55ae8b1bee8cf8b8f5cf76b]
reverse link FilterProcessingOptions to KalmanFilterOptions--><path codeLine="8" d="M110,59.61 C110,73.31 110,88.22 110,98.96 " fill="none" id="FilterProcessingOptions-backto-KalmanFilterOptions" style="stroke:#A80036;stroke-width:1.0;"/><polygon fill="none" points="103,59.27,110,39.27,117,59.27,103,59.27" style="stroke:#A80036;stroke-width:1.0;"/><!--MD5=[672bd1f46b1868479599b73024a6166a]
reverse link KalmanFilterOptions to RelativePositionFilterOptions--><path codeLine="11" d="M110,151.61 C110,165.31 110,180.22 110,190.96 " fill="none" id="KalmanFilterOptions-backto-RelativePositionFilterOptions" style="stroke:#A80036;stroke-width:1.0;"/><polygon fill="none" points="103,151.27,110,131.27,117,151.27,103,151.27" style="stroke:#A80036;stroke-width:1.0;"/><!--MD5=[7ffb2adf70cdc0702b53e7718ae60284]
@startuml
skinparam BackgroundColor transparent
hide empty methods
hide empty fields
interface "KalmanFilterOptions" {
}
interface "FilterProcessingOptions" {
}
"FilterProcessingOptions" <|- - "KalmanFilterOptions"
interface "RelativePositionFilterOptions" {
}
"KalmanFilterOptions" <|- - "RelativePositionFilterOptions"
@enduml

PlantUML version 1.2021.14(Fri Nov 12 16:46:50 UTC 2021)
(GPL source distribution)
Java Runtime: OpenJDK Runtime Environment
JVM: OpenJDK 64-Bit Server VM
Default Encoding: UTF-8
Language: en
Country: null
--></g></svg>