<?xml version="1.0" encoding="UTF-8" standalone="no"?><svg xmlns="http://www.w3.org/2000/svg" xmlns:xlink="http://www.w3.org/1999/xlink" contentScriptType="application/ecmascript" contentStyleType="text/css" height="580px" preserveAspectRatio="none" style="width:227px;height:580px;background:#00000000;" version="1.1" viewBox="0 0 227 580" width="227px" zoomAndPan="magnify"><defs><filter height="300%" id="fblj1a53u6dl4" width="300%" x="-1" y="-1"><feGaussianBlur result="blurOut" stdDeviation="2.0"/><feColorMatrix in="blurOut" result="blurOut2" type="matrix" values="0 0 0 0 0 0 0 0 0 0 0 0 0 0 0 0 0 0 .4 0"/><feOffset dx="4.0" dy="4.0" in="blurOut2" result="blurOut3"/><feBlend in="SourceGraphic" in2="blurOut3" mode="normal"/></filter></defs><g><!--MD5=[c4db96a564bbd1d7ac8a63c7e7bdbb40]
class KalmanFilterOptions--><rect codeLine="4" fill="#FEFECE" filter="url(#fblj1a53u6dl4)" height="155.2422" id="KalmanFilterOptions" style="stroke:#A80036;stroke-width:1.5;" width="155" x="32.5" y="158"/><ellipse cx="47.5" cy="174" fill="#B4A7E5" rx="11" ry="11" style="stroke:#A80036;stroke-width:1.0;"/><path d="M43.4219,169.7656 L43.4219,167.6094 L50.8125,167.6094 L50.8125,169.7656 L48.3438,169.7656 L48.3438,177.8438 L50.8125,177.8438 L50.8125,180 L43.4219,180 L43.4219,177.8438 L45.8906,177.8438 L45.8906,169.7656 L43.4219,169.7656 Z " fill="#000000"/><text fill="#000000" font-family="sans-serif" font-size="12" font-style="italic" lengthAdjust="spacing" textLength="123" x="61.5" y="178.1543">KalmanFilterOptions</text><line style="stroke:#A80036;stroke-width:1.5;" x1="33.5" x2="186.5" y1="190" y2="190"/><ellipse cx="43.5" cy="201" rx="3" ry="3" style="stroke:#038048;stroke-width:1.0;fill:none;"/><text fill="#000000" font-family="sans-serif" font-size="11" lengthAdjust="spacing" textLength="118" x="52.5" y="204.2104">A : number | Vector3</text><ellipse cx="43.5" cy="213.8047" rx="3" ry="3" style="stroke:#038048;stroke-width:1.0;fill:none;"/><text fill="#000000" font-family="sans-serif" font-size="11" lengthAdjust="spacing" textLength="119" x="52.5" y="217.0151">B : number | Vector3</text><ellipse cx="43.5" cy="226.6094" rx="3" ry="3" style="stroke:#038048;stroke-width:1.0;fill:none;"/><text fill="#000000" font-family="sans-serif" font-size="11" lengthAdjust="spacing" textLength="119" x="52.5" y="229.8198">C : number | Vector3</text><ellipse cx="43.5" cy="239.4141" rx="3" ry="3" style="stroke:#038048;stroke-width:1.0;fill:none;"/><text fill="#000000" font-family="sans-serif" font-size="11" lengthAdjust="spacing" textLength="121" x="52.5" y="242.6245">frameFilter : Function</text><ellipse cx="43.5" cy="252.2188" rx="3" ry="3" style="stroke:#038048;stroke-width:1.0;fill:none;"/><text fill="#000000" font-family="sans-serif" font-size="11" lengthAdjust="spacing" textLength="77" x="52.5" y="255.4292">name : string</text><ellipse cx="43.5" cy="265.0234" rx="3" ry="3" style="stroke:#038048;stroke-width:1.0;fill:none;"/><text fill="#000000" font-family="sans-serif" font-size="11" lengthAdjust="spacing" textLength="121" x="52.5" y="268.2339">objectFilter : Function</text><ellipse cx="43.5" cy="277.8281" rx="3" ry="3" style="stroke:#038048;stroke-width:1.0;fill:none;"/><text fill="#000000" font-family="sans-serif" font-size="11" lengthAdjust="spacing" textLength="120" x="52.5" y="281.0386">Q : number | Vector3</text><ellipse cx="43.5" cy="290.6328" rx="3" ry="3" style="stroke:#038048;stroke-width:1.0;fill:none;"/><text fill="#000000" font-family="sans-serif" font-size="11" lengthAdjust="spacing" textLength="118" x="52.5" y="293.8433">R : number | Vector3</text><ellipse cx="43.5" cy="303.4375" rx="3" ry="3" style="stroke:#038048;stroke-width:1.0;fill:none;"/><text fill="#000000" font-family="sans-serif" font-size="11" lengthAdjust="spacing" textLength="62" x="52.5" y="306.6479">uid : string</text><!--MD5=[a64cc95f50a68f73795155817271a9ec]
class FilterProcessingOptions--><rect codeLine="15" fill="#FEFECE" filter="url(#fblj1a53u6dl4)" height="91.2188" id="FilterProcessingOptions" style="stroke:#A80036;stroke-width:1.5;" width="175" x="22.5" y="7"/><ellipse cx="37.5" cy="23" fill="#B4A7E5" rx="11" ry="11" style="stroke:#A80036;stroke-width:1.0;"/><path d="M33.4219,18.7656 L33.4219,16.6094 L40.8125,16.6094 L40.8125,18.7656 L38.3438,18.7656 L38.3438,26.8438 L40.8125,26.8438 L40.8125,29 L33.4219,29 L33.4219,26.8438 L35.8906,26.8438 L35.8906,18.7656 L33.4219,18.7656 Z " fill="#000000"/><text fill="#000000" font-family="sans-serif" font-size="12" font-style="italic" lengthAdjust="spacing" textLength="143" x="51.5" y="27.1543">FilterProcessingOptions</text><line style="stroke:#A80036;stroke-width:1.5;" x1="23.5" x2="196.5" y1="39" y2="39"/><ellipse cx="33.5" cy="50" rx="3" ry="3" style="stroke:#038048;stroke-width:1.0;fill:none;"/><text fill="#000000" font-family="sans-serif" font-size="11" lengthAdjust="spacing" textLength="121" x="42.5" y="53.2104">frameFilter : Function</text><ellipse cx="33.5" cy="62.8047" rx="3" ry="3" style="stroke:#038048;stroke-width:1.0;fill:none;"/><text fill="#000000" font-family="sans-serif" font-size="11" lengthAdjust="spacing" textLength="77" x="42.5" y="66.0151">name : string</text><ellipse cx="33.5" cy="75.6094" rx="3" ry="3" style="stroke:#038048;stroke-width:1.0;fill:none;"/><text fill="#000000" font-family="sans-serif" font-size="11" lengthAdjust="spacing" textLength="121" x="42.5" y="78.8198">objectFilter : Function</text><ellipse cx="33.5" cy="88.4141" rx="3" ry="3" style="stroke:#038048;stroke-width:1.0;fill:none;"/><text fill="#000000" font-family="sans-serif" font-size="11" lengthAdjust="spacing" textLength="62" x="42.5" y="91.6245">uid : string</text><!--MD5=[69934aa6e6c78199f1ba0ec95556b545]
class RelativePositionFilterOptions--><rect codeLine="22" fill="#FEFECE" filter="url(#fblj1a53u6dl4)" height="193.6563" id="RelativePositionFilterOptions" style="stroke:#A80036;stroke-width:1.5;" width="206" x="7" y="373"/><ellipse cx="22" cy="389" fill="#B4A7E5" rx="11" ry="11" style="stroke:#A80036;stroke-width:1.0;"/><path d="M17.9219,384.7656 L17.9219,382.6094 L25.3125,382.6094 L25.3125,384.7656 L22.8438,384.7656 L22.8438,392.8438 L25.3125,392.8438 L25.3125,395 L17.9219,395 L17.9219,392.8438 L20.3906,392.8438 L20.3906,384.7656 L17.9219,384.7656 Z " fill="#000000"/><text fill="#000000" font-family="sans-serif" font-size="12" font-style="italic" lengthAdjust="spacing" textLength="174" x="36" y="393.1543">RelativePositionFilterOptions</text><line style="stroke:#A80036;stroke-width:1.5;" x1="8" x2="212" y1="405" y2="405"/><ellipse cx="18" cy="416" rx="3" ry="3" style="stroke:#038048;stroke-width:1.0;fill:none;"/><text fill="#000000" font-family="sans-serif" font-size="11" lengthAdjust="spacing" textLength="118" x="27" y="419.2104">A : number | Vector3</text><ellipse cx="18" cy="428.8047" rx="3" ry="3" style="stroke:#038048;stroke-width:1.0;fill:none;"/><text fill="#000000" font-family="sans-serif" font-size="11" lengthAdjust="spacing" textLength="119" x="27" y="432.0151">B : number | Vector3</text><ellipse cx="18" cy="441.6094" rx="3" ry="3" style="stroke:#038048;stroke-width:1.0;fill:none;"/><text fill="#000000" font-family="sans-serif" font-size="11" lengthAdjust="spacing" textLength="119" x="27" y="444.8198">C : number | Vector3</text><ellipse cx="18" cy="454.4141" rx="3" ry="3" style="stroke:#038048;stroke-width:1.0;fill:none;"/><text fill="#000000" font-family="sans-serif" font-size="11" lengthAdjust="spacing" textLength="121" x="27" y="457.6245">frameFilter : Function</text><ellipse cx="18" cy="467.2188" rx="3" ry="3" style="stroke:#038048;stroke-width:1.0;fill:none;"/><text fill="#000000" font-family="sans-serif" font-size="11" lengthAdjust="spacing" textLength="166" x="27" y="470.4292">maxTimeDifference : number</text><ellipse cx="18" cy="480.0234" rx="3" ry="3" style="stroke:#038048;stroke-width:1.0;fill:none;"/><text fill="#000000" font-family="sans-serif" font-size="11" lengthAdjust="spacing" textLength="111" x="27" y="483.2339">maxValue : number</text><ellipse cx="18" cy="492.8281" rx="3" ry="3" style="stroke:#038048;stroke-width:1.0;fill:none;"/><text fill="#000000" font-family="sans-serif" font-size="11" lengthAdjust="spacing" textLength="108" x="27" y="496.0386">minValue : number</text><ellipse cx="18" cy="505.6328" rx="3" ry="3" style="stroke:#038048;stroke-width:1.0;fill:none;"/><text fill="#000000" font-family="sans-serif" font-size="11" lengthAdjust="spacing" textLength="77" x="27" y="508.8433">name : string</text><ellipse cx="18" cy="518.4375" rx="3" ry="3" style="stroke:#038048;stroke-width:1.0;fill:none;"/><text fill="#000000" font-family="sans-serif" font-size="11" lengthAdjust="spacing" textLength="121" x="27" y="521.6479">objectFilter : Function</text><ellipse cx="18" cy="531.2422" rx="3" ry="3" style="stroke:#038048;stroke-width:1.0;fill:none;"/><text fill="#000000" font-family="sans-serif" font-size="11" lengthAdjust="spacing" textLength="120" x="27" y="534.4526">Q : number | Vector3</text><ellipse cx="18" cy="544.0469" rx="3" ry="3" style="stroke:#038048;stroke-width:1.0;fill:none;"/><text fill="#000000" font-family="sans-serif" font-size="11" lengthAdjust="spacing" textLength="118" x="27" y="547.2573">R : number | Vector3</text><ellipse cx="18" cy="556.8516" rx="3" ry="3" style="stroke:#038048;stroke-width:1.0;fill:none;"/><text fill="#000000" font-family="sans-serif" font-size="11" lengthAdjust="spacing" textLength="62" x="27" y="560.062">uid : string</text><!--MD5=[0c280a02e55ae8b1bee8cf8b8f5cf76b]
reverse link FilterProcessingOptions to KalmanFilterOptions--><path codeLine="21" d="M110,118.26 C110,131.1 110,144.68 110,157.86 " fill="none" id="FilterProcessingOptions-backto-KalmanFilterOptions" style="stroke:#A80036;stroke-width:1.0;"/><polygon fill="none" points="103,118.24,110,98.24,117,118.24,103,118.24" style="stroke:#A80036;stroke-width:1.0;"/><!--MD5=[672bd1f46b1868479599b73024a6166a]
reverse link KalmanFilterOptions to RelativePositionFilterOptions--><path codeLine="36" d="M110,333.39 C110,346.42 110,359.79 110,372.82 " fill="none" id="KalmanFilterOptions-backto-RelativePositionFilterOptions" style="stroke:#A80036;stroke-width:1.0;"/><polygon fill="none" points="103,333.27,110,313.27,117,333.27,103,333.27" style="stroke:#A80036;stroke-width:1.0;"/><!--MD5=[cd9982116a9a653dcefb3f061bb289bc]
@startuml
skinparam BackgroundColor transparent
hide empty methods
hide empty fields
interface "KalmanFilterOptions" {
    +A : number | Vector3
    +B : number | Vector3
    +C : number | Vector3
    +frameFilter : Function
    +name : string
    +objectFilter : Function
    +Q : number | Vector3
    +R : number | Vector3
    +uid : string
}
interface "FilterProcessingOptions" {
    +frameFilter : Function
    +name : string
    +objectFilter : Function
    +uid : string
}
"FilterProcessingOptions" <|- - "KalmanFilterOptions"
interface "RelativePositionFilterOptions" {
    +A : number | Vector3
    +B : number | Vector3
    +C : number | Vector3
    +frameFilter : Function
    +maxTimeDifference : number
    +maxValue : number
    +minValue : number
    +name : string
    +objectFilter : Function
    +Q : number | Vector3
    +R : number | Vector3
    +uid : string
}
"KalmanFilterOptions" <|- - "RelativePositionFilterOptions"
@enduml

PlantUML version 1.2021.14(Fri Nov 12 16:46:50 UTC 2021)
(GPL source distribution)
Java Runtime: OpenJDK Runtime Environment
JVM: OpenJDK 64-Bit Server VM
Default Encoding: UTF-8
Language: en
Country: null
--></g></svg>