<?xml version="1.0" encoding="UTF-8" standalone="no"?><svg xmlns="http://www.w3.org/2000/svg" xmlns:xlink="http://www.w3.org/1999/xlink" contentScriptType="application/ecmascript" contentStyleType="text/css" height="145px" preserveAspectRatio="none" style="width:214px;height:145px;background:#00000000;" version="1.1" viewBox="0 0 214 145" width="214px" zoomAndPan="magnify"><defs><filter height="300%" id="f1sz74ojs5lo6w" width="300%" x="-1" y="-1"><feGaussianBlur result="blurOut" stdDeviation="2.0"/><feColorMatrix in="blurOut" result="blurOut2" type="matrix" values="0 0 0 0 0 0 0 0 0 0 0 0 0 0 0 0 0 0 .4 0"/><feOffset dx="4.0" dy="4.0" in="blurOut2" result="blurOut3"/><feBlend in="SourceGraphic" in2="blurOut3" mode="normal"/></filter></defs><g><!--MD5=[9b99c8cb6d1b9f2e96dc2035eb577d27]
class KeyValueDataService--><rect codeLine="4" fill="#FEFECE" filter="url(#f1sz74ojs5lo6w)" height="32" id="KeyValueDataService" style="stroke:#A80036;stroke-width:1.5;" width="163" x="22" y="99"/><ellipse cx="37" cy="115" fill="#ADD1B2" rx="11" ry="11" style="stroke:#A80036;stroke-width:1.0;"/><path d="M39.9688,120.6406 Q39.3906,120.9375 38.75,121.0781 Q38.1094,121.2344 37.4063,121.2344 Q34.9063,121.2344 33.5781,119.5938 Q32.2656,117.9375 32.2656,114.8125 Q32.2656,111.6875 33.5781,110.0313 Q34.9063,108.375 37.4063,108.375 Q38.1094,108.375 38.75,108.5313 Q39.4063,108.6875 39.9688,108.9844 L39.9688,111.7031 Q39.3438,111.125 38.75,110.8594 Q38.1563,110.5781 37.5313,110.5781 Q36.1875,110.5781 35.5,111.6563 Q34.8125,112.7188 34.8125,114.8125 Q34.8125,116.9063 35.5,117.9844 Q36.1875,119.0469 37.5313,119.0469 Q38.1563,119.0469 38.75,118.7813 Q39.3438,118.5 39.9688,117.9219 L39.9688,120.6406 Z " fill="#000000"/><text fill="#000000" font-family="sans-serif" font-size="12" lengthAdjust="spacing" textLength="131" x="51" y="119.1543">KeyValueDataService</text><!--MD5=[6659bacb303ca44747c0c2cf3f5db352]
class DataService<string, any>--><rect codeLine="6" fill="#FEFECE" filter="url(#f1sz74ojs5lo6w)" height="32" id="DataService&lt;string, any&gt;" style="stroke:#A80036;stroke-width:1.5;" width="193" x="7" y="7"/><ellipse cx="22" cy="23" fill="#A9DCDF" rx="11" ry="11" style="stroke:#A80036;stroke-width:1.0;"/><path d="M22.1094,18.3438 L20.9531,23.4219 L23.2813,23.4219 L22.1094,18.3438 Z M20.625,16.1094 L23.6094,16.1094 L26.9688,28.5 L24.5156,28.5 L23.75,25.4375 L20.4688,25.4375 L19.7188,28.5 L17.2813,28.5 L20.625,16.1094 Z " fill="#000000"/><text fill="#000000" font-family="sans-serif" font-size="12" font-style="italic" lengthAdjust="spacing" textLength="161" x="36" y="27.1543">DataService&lt;string, any&gt;</text><!--MD5=[8a7e17ffb7d179aae7fdda0e8b769759]
reverse link DataService<string, any> to KeyValueDataService--><path codeLine="8" d="M103.5,59.61 C103.5,73.31 103.5,88.22 103.5,98.96 " fill="none" id="DataService&lt;string, any&gt;-backto-KeyValueDataService" style="stroke:#A80036;stroke-width:1.0;"/><polygon fill="none" points="96.5,59.27,103.5,39.27,110.5,59.27,96.5,59.27" style="stroke:#A80036;stroke-width:1.0;"/><!--MD5=[763c639cda542090f2837068b7a93c11]
@startuml
skinparam BackgroundColor transparent
hide empty methods
hide empty fields
class "KeyValueDataService" {
}
abstract class "DataService<string, any>" {
}
"DataService<string, any>" <|- - "KeyValueDataService"
@enduml

PlantUML version 1.2021.14(Fri Nov 12 16:46:50 UTC 2021)
(GPL source distribution)
Java Runtime: OpenJDK Runtime Environment
JVM: OpenJDK 64-Bit Server VM
Default Encoding: UTF-8
Language: en
Country: null
--></g></svg>