<?xml version="1.0" encoding="us-ascii" standalone="no"?><svg xmlns="http://www.w3.org/2000/svg" xmlns:xlink="http://www.w3.org/1999/xlink" contentStyleType="text/css" height="138px" preserveAspectRatio="none" style="width:224px;height:138px;" version="1.1" viewBox="0 0 224 138" width="224px" zoomAndPan="magnify"><defs/><g><!--class KeyValueDataService--><g id="elem_KeyValueDataService"><rect codeLine="4" fill="#F1F1F1" height="32" id="KeyValueDataService" rx="2.5" ry="2.5" style="stroke:#181818;stroke-width:0.5;" width="177" x="23.5" y="99"/><ellipse cx="38.5" cy="115" fill="#ADD1B2" rx="11" ry="11" style="stroke:#181818;stroke-width:1.0;"/><path d="M41.4688,120.6406 Q40.8906,120.9375 40.25,121.0781 Q39.6094,121.2344 38.9063,121.2344 Q36.4063,121.2344 35.0781,119.5938 Q33.7656,117.9375 33.7656,114.8125 Q33.7656,111.6875 35.0781,110.0313 Q36.4063,108.375 38.9063,108.375 Q39.6094,108.375 40.25,108.5313 Q40.9063,108.6875 41.4688,108.9844 L41.4688,111.7031 Q40.8438,111.125 40.25,110.8594 Q39.6563,110.5781 39.0313,110.5781 Q37.6875,110.5781 37,111.6563 Q36.3125,112.7188 36.3125,114.8125 Q36.3125,116.9063 37,117.9844 Q37.6875,119.0469 39.0313,119.0469 Q39.6563,119.0469 40.25,118.7813 Q40.8438,118.5 41.4688,117.9219 L41.4688,120.6406 Z " fill="#000000"/><text fill="#000000" font-family="sans-serif" font-size="14" lengthAdjust="spacing" textLength="145" x="52.5" y="119.8467">KeyValueDataService</text></g><!--class DataService<string, any>--><g id="elem_DataService&lt;string, any&gt;"><rect codeLine="6" fill="#F1F1F1" height="32" id="DataService&lt;string, any&gt;" rx="2.5" ry="2.5" style="stroke:#181818;stroke-width:0.5;" width="210" x="7" y="7"/><ellipse cx="22" cy="23" fill="#A9DCDF" rx="11" ry="11" style="stroke:#181818;stroke-width:1.0;"/><path d="M22.1094,18.3438 L20.9531,23.4219 L23.2813,23.4219 L22.1094,18.3438 Z M20.625,16.1094 L23.6094,16.1094 L26.9688,28.5 L24.5156,28.5 L23.75,25.4375 L20.4688,25.4375 L19.7188,28.5 L17.2813,28.5 L20.625,16.1094 Z " fill="#000000"/><text fill="#000000" font-family="sans-serif" font-size="14" font-style="italic" lengthAdjust="spacing" textLength="178" x="36" y="27.8467">DataService&lt;string, any&gt;</text></g><!--reverse link DataService<string, any> to KeyValueDataService--><g id="link_DataService&lt;string, any&gt;_KeyValueDataService"><path codeLine="8" d="M112,59.61 C112,73.31 112,88.22 112,98.96 " fill="none" id="DataService&lt;string, any&gt;-backto-KeyValueDataService" style="stroke:#181818;stroke-width:1.0;"/><polygon fill="none" points="105,59.27,112,39.27,119,59.27,105,59.27" style="stroke:#181818;stroke-width:1.0;"/></g><!--SRC=[VOqn3i8m34NtdCBgJ6zGCG0R8nAxIKmRDN6gsAqKqTwTI31qGAplFVqle-S9CqOueHtxd6PsvnHI1it8KXMnci4x0egJ5eYaGtAoHqzFeH8RK0IQAvKxXfakg7YZl7XB3RpCPl0XTTCgVCDTq5NZkJy0SZb-wZ-wMzlszyyR]--></g></svg>