<?xml version="1.0" encoding="us-ascii" standalone="no"?><svg xmlns="http://www.w3.org/2000/svg" xmlns:xlink="http://www.w3.org/1999/xlink" contentStyleType="text/css" height="138px" preserveAspectRatio="none" style="width:121px;height:138px;" version="1.1" viewBox="0 0 121 138" width="121px" zoomAndPan="magnify"><defs/><g><!--class LengthUnit--><g id="elem_LengthUnit"><rect codeLine="4" fill="#F1F1F1" height="32" id="LengthUnit" rx="2.5" ry="2.5" style="stroke:#181818;stroke-width:0.5;" width="107" x="7" y="99"/><ellipse cx="22" cy="115" fill="#ADD1B2" rx="11" ry="11" style="stroke:#181818;stroke-width:1.0;"/><path d="M24.9688,120.6406 Q24.3906,120.9375 23.75,121.0781 Q23.1094,121.2344 22.4063,121.2344 Q19.9063,121.2344 18.5781,119.5938 Q17.2656,117.9375 17.2656,114.8125 Q17.2656,111.6875 18.5781,110.0313 Q19.9063,108.375 22.4063,108.375 Q23.1094,108.375 23.75,108.5313 Q24.4063,108.6875 24.9688,108.9844 L24.9688,111.7031 Q24.3438,111.125 23.75,110.8594 Q23.1563,110.5781 22.5313,110.5781 Q21.1875,110.5781 20.5,111.6563 Q19.8125,112.7188 19.8125,114.8125 Q19.8125,116.9063 20.5,117.9844 Q21.1875,119.0469 22.5313,119.0469 Q23.1563,119.0469 23.75,118.7813 Q24.3438,118.5 24.9688,117.9219 L24.9688,120.6406 Z " fill="#000000"/><text fill="#000000" font-family="sans-serif" font-size="14" lengthAdjust="spacing" textLength="75" x="36" y="119.8467">LengthUnit</text></g><!--class Unit--><g id="elem_Unit"><rect codeLine="6" fill="#F1F1F1" height="32" id="Unit" rx="2.5" ry="2.5" style="stroke:#181818;stroke-width:0.5;" width="59" x="31" y="7"/><ellipse cx="46" cy="23" fill="#ADD1B2" rx="11" ry="11" style="stroke:#181818;stroke-width:1.0;"/><path d="M48.9688,28.6406 Q48.3906,28.9375 47.75,29.0781 Q47.1094,29.2344 46.4063,29.2344 Q43.9063,29.2344 42.5781,27.5938 Q41.2656,25.9375 41.2656,22.8125 Q41.2656,19.6875 42.5781,18.0313 Q43.9063,16.375 46.4063,16.375 Q47.1094,16.375 47.75,16.5313 Q48.4063,16.6875 48.9688,16.9844 L48.9688,19.7031 Q48.3438,19.125 47.75,18.8594 Q47.1563,18.5781 46.5313,18.5781 Q45.1875,18.5781 44.5,19.6563 Q43.8125,20.7188 43.8125,22.8125 Q43.8125,24.9063 44.5,25.9844 Q45.1875,27.0469 46.5313,27.0469 Q47.1563,27.0469 47.75,26.7813 Q48.3438,26.5 48.9688,25.9219 L48.9688,28.6406 Z " fill="#000000"/><text fill="#000000" font-family="sans-serif" font-size="14" lengthAdjust="spacing" textLength="27" x="60" y="27.8467">Unit</text></g><!--reverse link Unit to LengthUnit--><g id="link_Unit_LengthUnit"><path codeLine="8" d="M60.5,59.61 C60.5,73.31 60.5,88.22 60.5,98.96 " fill="none" id="Unit-backto-LengthUnit" style="stroke:#181818;stroke-width:1.0;"/><polygon fill="none" points="53.5,59.27,60.5,39.27,67.5,59.27,53.5,59.27" style="stroke:#181818;stroke-width:1.0;"/></g><!--SRC=[LSen4a0m48NXtYbszBc1YbRh03ko92FPcEmg3EvEmQ1xyxrV9iypPenGOp-DEIricnHI1it8Sbt4MZXl2IZEka8aTSdAbmPFuP8-e0YKBV6ehcEl9Mp5yV0BzwnsOtxr2G00]--></g></svg>