<?xml version="1.0" encoding="UTF-8" standalone="no"?><svg xmlns="http://www.w3.org/2000/svg" xmlns:xlink="http://www.w3.org/1999/xlink" contentScriptType="application/ecmascript" contentStyleType="text/css" height="145px" preserveAspectRatio="none" style="width:121px;height:145px;background:#00000000;" version="1.1" viewBox="0 0 121 145" width="121px" zoomAndPan="magnify"><defs><filter height="300%" id="f2d470wfafipe" width="300%" x="-1" y="-1"><feGaussianBlur result="blurOut" stdDeviation="2.0"/><feColorMatrix in="blurOut" result="blurOut2" type="matrix" values="0 0 0 0 0 0 0 0 0 0 0 0 0 0 0 0 0 0 .4 0"/><feOffset dx="4.0" dy="4.0" in="blurOut2" result="blurOut3"/><feBlend in="SourceGraphic" in2="blurOut3" mode="normal"/></filter></defs><g><!--MD5=[d2673ecd7c9d4d7253e86462c259fcc3]
class LengthUnit--><rect codeLine="4" fill="#FEFECE" filter="url(#f2d470wfafipe)" height="32" id="LengthUnit" style="stroke:#A80036;stroke-width:1.5;" width="100" x="7" y="99"/><ellipse cx="22" cy="115" fill="#ADD1B2" rx="11" ry="11" style="stroke:#A80036;stroke-width:1.0;"/><path d="M24.9688,120.6406 Q24.3906,120.9375 23.75,121.0781 Q23.1094,121.2344 22.4063,121.2344 Q19.9063,121.2344 18.5781,119.5938 Q17.2656,117.9375 17.2656,114.8125 Q17.2656,111.6875 18.5781,110.0313 Q19.9063,108.375 22.4063,108.375 Q23.1094,108.375 23.75,108.5313 Q24.4063,108.6875 24.9688,108.9844 L24.9688,111.7031 Q24.3438,111.125 23.75,110.8594 Q23.1563,110.5781 22.5313,110.5781 Q21.1875,110.5781 20.5,111.6563 Q19.8125,112.7188 19.8125,114.8125 Q19.8125,116.9063 20.5,117.9844 Q21.1875,119.0469 22.5313,119.0469 Q23.1563,119.0469 23.75,118.7813 Q24.3438,118.5 24.9688,117.9219 L24.9688,120.6406 Z " fill="#000000"/><text fill="#000000" font-family="sans-serif" font-size="12" lengthAdjust="spacing" textLength="68" x="36" y="119.1543">LengthUnit</text><!--MD5=[63a373d2559db13dd8cc7d36e037ebb1]
class Unit--><rect codeLine="6" fill="#FEFECE" filter="url(#f2d470wfafipe)" height="32" id="Unit" style="stroke:#A80036;stroke-width:1.5;" width="57" x="28.5" y="7"/><ellipse cx="43.5" cy="23" fill="#ADD1B2" rx="11" ry="11" style="stroke:#A80036;stroke-width:1.0;"/><path d="M46.4688,28.6406 Q45.8906,28.9375 45.25,29.0781 Q44.6094,29.2344 43.9063,29.2344 Q41.4063,29.2344 40.0781,27.5938 Q38.7656,25.9375 38.7656,22.8125 Q38.7656,19.6875 40.0781,18.0313 Q41.4063,16.375 43.9063,16.375 Q44.6094,16.375 45.25,16.5313 Q45.9063,16.6875 46.4688,16.9844 L46.4688,19.7031 Q45.8438,19.125 45.25,18.8594 Q44.6563,18.5781 44.0313,18.5781 Q42.6875,18.5781 42,19.6563 Q41.3125,20.7188 41.3125,22.8125 Q41.3125,24.9063 42,25.9844 Q42.6875,27.0469 44.0313,27.0469 Q44.6563,27.0469 45.25,26.7813 Q45.8438,26.5 46.4688,25.9219 L46.4688,28.6406 Z " fill="#000000"/><text fill="#000000" font-family="sans-serif" font-size="12" lengthAdjust="spacing" textLength="25" x="57.5" y="27.1543">Unit</text><!--MD5=[2cd6138735d1eeb78e02d1b256b21f8d]
reverse link Unit to LengthUnit--><path codeLine="8" d="M57,59.61 C57,73.31 57,88.22 57,98.96 " fill="none" id="Unit-backto-LengthUnit" style="stroke:#A80036;stroke-width:1.0;"/><polygon fill="none" points="50,59.27,57,39.27,64,59.27,50,59.27" style="stroke:#A80036;stroke-width:1.0;"/><!--MD5=[72df882f7598444ec9442296b128946b]
@startuml
skinparam BackgroundColor transparent
hide empty methods
hide empty fields
class "LengthUnit" {
}
class "Unit" {
}
"Unit" <|- - "LengthUnit"
@enduml

PlantUML version 1.2021.14(Fri Nov 12 16:46:50 UTC 2021)
(GPL source distribution)
Java Runtime: OpenJDK Runtime Environment
JVM: OpenJDK 64-Bit Server VM
Default Encoding: UTF-8
Language: en
Country: null
--></g></svg>