<?xml version="1.0" encoding="UTF-8" standalone="no"?><svg xmlns="http://www.w3.org/2000/svg" xmlns:xlink="http://www.w3.org/1999/xlink" contentScriptType="application/ecmascript" contentStyleType="text/css" height="145px" preserveAspectRatio="none" style="width:243px;height:145px;background:#00000000;" version="1.1" viewBox="0 0 243 145" width="243px" zoomAndPan="magnify"><defs><filter height="300%" id="f6e8xjiwqbm82" width="300%" x="-1" y="-1"><feGaussianBlur result="blurOut" stdDeviation="2.0"/><feColorMatrix in="blurOut" result="blurOut2" type="matrix" values="0 0 0 0 0 0 0 0 0 0 0 0 0 0 0 0 0 0 .4 0"/><feOffset dx="4.0" dy="4.0" in="blurOut2" result="blurOut3"/><feBlend in="SourceGraphic" in2="blurOut3" mode="normal"/></filter></defs><g><!--MD5=[00f088da67dc824080015be72c0a3786]
class LinearVelocitySensor--><rect codeLine="4" fill="#FEFECE" filter="url(#f6e8xjiwqbm82)" height="32" id="LinearVelocitySensor" style="stroke:#A80036;stroke-width:1.5;" width="162" x="37" y="99"/><ellipse cx="52" cy="115" fill="#ADD1B2" rx="11" ry="11" style="stroke:#A80036;stroke-width:1.0;"/><path d="M54.9688,120.6406 Q54.3906,120.9375 53.75,121.0781 Q53.1094,121.2344 52.4063,121.2344 Q49.9063,121.2344 48.5781,119.5938 Q47.2656,117.9375 47.2656,114.8125 Q47.2656,111.6875 48.5781,110.0313 Q49.9063,108.375 52.4063,108.375 Q53.1094,108.375 53.75,108.5313 Q54.4063,108.6875 54.9688,108.9844 L54.9688,111.7031 Q54.3438,111.125 53.75,110.8594 Q53.1563,110.5781 52.5313,110.5781 Q51.1875,110.5781 50.5,111.6563 Q49.8125,112.7188 49.8125,114.8125 Q49.8125,116.9063 50.5,117.9844 Q51.1875,119.0469 52.5313,119.0469 Q53.1563,119.0469 53.75,118.7813 Q54.3438,118.5 54.9688,117.9219 L54.9688,120.6406 Z " fill="#000000"/><text fill="#000000" font-family="sans-serif" font-size="12" lengthAdjust="spacing" textLength="130" x="66" y="119.1543">LinearVelocitySensor</text><!--MD5=[f27efaf92c2e38d7ed0b3a66b5d94309]
class SensorObject<LinearVelocity>--><rect codeLine="6" fill="#FEFECE" filter="url(#f6e8xjiwqbm82)" height="32" id="SensorObject&lt;LinearVelocity&gt;" style="stroke:#A80036;stroke-width:1.5;" width="222" x="7" y="7"/><ellipse cx="22" cy="23" fill="#A9DCDF" rx="11" ry="11" style="stroke:#A80036;stroke-width:1.0;"/><path d="M22.1094,18.3438 L20.9531,23.4219 L23.2813,23.4219 L22.1094,18.3438 Z M20.625,16.1094 L23.6094,16.1094 L26.9688,28.5 L24.5156,28.5 L23.75,25.4375 L20.4688,25.4375 L19.7188,28.5 L17.2813,28.5 L20.625,16.1094 Z " fill="#000000"/><text fill="#000000" font-family="sans-serif" font-size="12" font-style="italic" lengthAdjust="spacing" textLength="190" x="36" y="27.1543">SensorObject&lt;LinearVelocity&gt;</text><!--MD5=[163e89ef6798b96651bf8715f4e67fb0]
reverse link SensorObject<LinearVelocity> to LinearVelocitySensor--><path codeLine="8" d="M118,59.61 C118,73.31 118,88.22 118,98.96 " fill="none" id="SensorObject&lt;LinearVelocity&gt;-backto-LinearVelocitySensor" style="stroke:#A80036;stroke-width:1.0;"/><polygon fill="none" points="111,59.27,118,39.27,125,59.27,111,59.27" style="stroke:#A80036;stroke-width:1.0;"/><!--MD5=[4ea5fce904951fcb751a092a206ad3fe]
@startuml
skinparam BackgroundColor transparent
hide empty methods
hide empty fields
class "LinearVelocitySensor" {
}
abstract class "SensorObject<LinearVelocity>" {
}
"SensorObject<LinearVelocity>" <|- - "LinearVelocitySensor"
@enduml

PlantUML version 1.2021.14(Fri Nov 12 16:46:50 UTC 2021)
(GPL source distribution)
Java Runtime: OpenJDK Runtime Environment
JVM: OpenJDK 64-Bit Server VM
Default Encoding: UTF-8
Language: en
Country: null
--></g></svg>