<?xml version="1.0" encoding="UTF-8" standalone="no"?><svg xmlns="http://www.w3.org/2000/svg" xmlns:xlink="http://www.w3.org/1999/xlink" contentScriptType="application/ecmascript" contentStyleType="text/css" height="145px" preserveAspectRatio="none" style="width:233px;height:145px;background:#00000000;" version="1.1" viewBox="0 0 233 145" width="233px" zoomAndPan="magnify"><defs><filter height="300%" id="ftcasr2h8x76q" width="300%" x="-1" y="-1"><feGaussianBlur result="blurOut" stdDeviation="2.0"/><feColorMatrix in="blurOut" result="blurOut2" type="matrix" values="0 0 0 0 0 0 0 0 0 0 0 0 0 0 0 0 0 0 .4 0"/><feOffset dx="4.0" dy="4.0" in="blurOut2" result="blurOut3"/><feBlend in="SourceGraphic" in2="blurOut3" mode="normal"/></filter></defs><g><!--MD5=[cb717750e6e9c1f23e1b17c7a2f007dd]
class LinearAccelerationSensor--><rect codeLine="4" fill="#FEFECE" filter="url(#ftcasr2h8x76q)" height="32" id="LinearAccelerationSensor" style="stroke:#A80036;stroke-width:1.5;" width="192" x="17" y="99"/><ellipse cx="32" cy="115" fill="#ADD1B2" rx="11" ry="11" style="stroke:#A80036;stroke-width:1.0;"/><path d="M34.9688,120.6406 Q34.3906,120.9375 33.75,121.0781 Q33.1094,121.2344 32.4063,121.2344 Q29.9063,121.2344 28.5781,119.5938 Q27.2656,117.9375 27.2656,114.8125 Q27.2656,111.6875 28.5781,110.0313 Q29.9063,108.375 32.4063,108.375 Q33.1094,108.375 33.75,108.5313 Q34.4063,108.6875 34.9688,108.9844 L34.9688,111.7031 Q34.3438,111.125 33.75,110.8594 Q33.1563,110.5781 32.5313,110.5781 Q31.1875,110.5781 30.5,111.6563 Q29.8125,112.7188 29.8125,114.8125 Q29.8125,116.9063 30.5,117.9844 Q31.1875,119.0469 32.5313,119.0469 Q33.1563,119.0469 33.75,118.7813 Q34.3438,118.5 34.9688,117.9219 L34.9688,120.6406 Z " fill="#000000"/><text fill="#000000" font-family="sans-serif" font-size="12" lengthAdjust="spacing" textLength="160" x="46" y="119.1543">LinearAccelerationSensor</text><!--MD5=[2673afe4007bbd444b239b2c0f055a36]
class SensorObject<Acceleration>--><rect codeLine="6" fill="#FEFECE" filter="url(#ftcasr2h8x76q)" height="32" id="SensorObject&lt;Acceleration&gt;" style="stroke:#A80036;stroke-width:1.5;" width="212" x="7" y="7"/><ellipse cx="22" cy="23" fill="#A9DCDF" rx="11" ry="11" style="stroke:#A80036;stroke-width:1.0;"/><path d="M22.1094,18.3438 L20.9531,23.4219 L23.2813,23.4219 L22.1094,18.3438 Z M20.625,16.1094 L23.6094,16.1094 L26.9688,28.5 L24.5156,28.5 L23.75,25.4375 L20.4688,25.4375 L19.7188,28.5 L17.2813,28.5 L20.625,16.1094 Z " fill="#000000"/><text fill="#000000" font-family="sans-serif" font-size="12" font-style="italic" lengthAdjust="spacing" textLength="180" x="36" y="27.1543">SensorObject&lt;Acceleration&gt;</text><!--MD5=[95a3aea9a9878ead83a52938f8ecdc91]
reverse link SensorObject<Acceleration> to LinearAccelerationSensor--><path codeLine="8" d="M113,59.61 C113,73.31 113,88.22 113,98.96 " fill="none" id="SensorObject&lt;Acceleration&gt;-backto-LinearAccelerationSensor" style="stroke:#A80036;stroke-width:1.0;"/><polygon fill="none" points="106,59.27,113,39.27,120,59.27,106,59.27" style="stroke:#A80036;stroke-width:1.0;"/><!--MD5=[eadac51b0a9cedc2fc990fd0c0428433]
@startuml
skinparam BackgroundColor transparent
hide empty methods
hide empty fields
class "LinearAccelerationSensor" {
}
abstract class "SensorObject<Acceleration>" {
}
"SensorObject<Acceleration>" <|- - "LinearAccelerationSensor"
@enduml

PlantUML version 1.2021.14(Fri Nov 12 16:46:50 UTC 2021)
(GPL source distribution)
Java Runtime: OpenJDK Runtime Environment
JVM: OpenJDK 64-Bit Server VM
Default Encoding: UTF-8
Language: en
Country: null
--></g></svg>