<?xml version="1.0" encoding="UTF-8" standalone="no"?><svg xmlns="http://www.w3.org/2000/svg" xmlns:xlink="http://www.w3.org/1999/xlink" contentScriptType="application/ecmascript" contentStyleType="text/css" height="145px" preserveAspectRatio="none" style="width:365px;height:145px;background:#00000000;" version="1.1" viewBox="0 0 365 145" width="365px" zoomAndPan="magnify"><defs><filter height="300%" id="f1p3p49nalchku" width="300%" x="-1" y="-1"><feGaussianBlur result="blurOut" stdDeviation="2.0"/><feColorMatrix in="blurOut" result="blurOut2" type="matrix" values="0 0 0 0 0 0 0 0 0 0 0 0 0 0 0 0 0 0 .4 0"/><feOffset dx="4.0" dy="4.0" in="blurOut2" result="blurOut3"/><feBlend in="SourceGraphic" in2="blurOut3" mode="normal"/></filter></defs><g><!--MD5=[00f088da67dc824080015be72c0a3786]
class LinearVelocitySensor--><rect codeLine="4" fill="#FEFECE" filter="url(#f1p3p49nalchku)" height="32" id="LinearVelocitySensor" style="stroke:#A80036;stroke-width:1.5;" width="162" x="98" y="99"/><ellipse cx="113" cy="115" fill="#ADD1B2" rx="11" ry="11" style="stroke:#A80036;stroke-width:1.0;"/><path d="M115.9688,120.6406 Q115.3906,120.9375 114.75,121.0781 Q114.1094,121.2344 113.4063,121.2344 Q110.9063,121.2344 109.5781,119.5938 Q108.2656,117.9375 108.2656,114.8125 Q108.2656,111.6875 109.5781,110.0313 Q110.9063,108.375 113.4063,108.375 Q114.1094,108.375 114.75,108.5313 Q115.4063,108.6875 115.9688,108.9844 L115.9688,111.7031 Q115.3438,111.125 114.75,110.8594 Q114.1563,110.5781 113.5313,110.5781 Q112.1875,110.5781 111.5,111.6563 Q110.8125,112.7188 110.8125,114.8125 Q110.8125,116.9063 111.5,117.9844 Q112.1875,119.0469 113.5313,119.0469 Q114.1563,119.0469 114.75,118.7813 Q115.3438,118.5 115.9688,117.9219 L115.9688,120.6406 Z " fill="#000000"/><text fill="#000000" font-family="sans-serif" font-size="12" lengthAdjust="spacing" textLength="130" x="127" y="119.1543">LinearVelocitySensor</text><!--MD5=[810fa426577d1912bf0a96e96afd18b5]
class SensorObject<SensorValue | Object | Orientation>--><rect codeLine="6" fill="#FEFECE" filter="url(#f1p3p49nalchku)" height="32" id="SensorObject&lt;SensorValue | Object | Orientation&gt;" style="stroke:#A80036;stroke-width:1.5;" width="344" x="7" y="7"/><ellipse cx="22" cy="23" fill="#A9DCDF" rx="11" ry="11" style="stroke:#A80036;stroke-width:1.0;"/><path d="M22.1094,18.3438 L20.9531,23.4219 L23.2813,23.4219 L22.1094,18.3438 Z M20.625,16.1094 L23.6094,16.1094 L26.9688,28.5 L24.5156,28.5 L23.75,25.4375 L20.4688,25.4375 L19.7188,28.5 L17.2813,28.5 L20.625,16.1094 Z " fill="#000000"/><text fill="#000000" font-family="sans-serif" font-size="12" font-style="italic" lengthAdjust="spacing" textLength="312" x="36" y="27.1543">SensorObject&lt;SensorValue | Object | Orientation&gt;</text><!--MD5=[71d1411e5e9e8cdd4426986c6a319ae0]
reverse link SensorObject<SensorValue | Object | Orientation> to LinearVelocitySensor--><path codeLine="8" d="M179,59.61 C179,73.31 179,88.22 179,98.96 " fill="none" id="SensorObject&lt;SensorValue | Object | Orientation&gt;-backto-LinearVelocitySensor" style="stroke:#A80036;stroke-width:1.0;"/><polygon fill="none" points="172,59.27,179,39.27,186,59.27,172,59.27" style="stroke:#A80036;stroke-width:1.0;"/><!--MD5=[16cd380bd9145574db796c60bee50138]
@startuml
skinparam BackgroundColor transparent
hide empty methods
hide empty fields
class "LinearVelocitySensor" {
}
abstract class "SensorObject<SensorValue | Object | Orientation>" {
}
"SensorObject<SensorValue | Object | Orientation>" <|- - "LinearVelocitySensor"
@enduml

PlantUML version 1.2021.14(Fri Nov 12 16:46:50 UTC 2021)
(GPL source distribution)
Java Runtime: OpenJDK Runtime Environment
JVM: OpenJDK 64-Bit Server VM
Default Encoding: UTF-8
Language: en
Country: null
--></g></svg>