<?xml version="1.0" encoding="us-ascii" standalone="no"?><svg xmlns="http://www.w3.org/2000/svg" xmlns:xlink="http://www.w3.org/1999/xlink" contentStyleType="text/css" height="138px" preserveAspectRatio="none" style="width:260px;height:138px;" version="1.1" viewBox="0 0 260 138" width="260px" zoomAndPan="magnify"><defs/><g><!--class LinearVelocitySensor--><g id="elem_LinearVelocitySensor"><rect codeLine="4" fill="#F1F1F1" height="32" id="LinearVelocitySensor" rx="2.5" ry="2.5" style="stroke:#181818;stroke-width:0.5;" width="175" x="42.5" y="99"/><ellipse cx="57.5" cy="115" fill="#ADD1B2" rx="11" ry="11" style="stroke:#181818;stroke-width:1.0;"/><path d="M60.4688,120.6406 Q59.8906,120.9375 59.25,121.0781 Q58.6094,121.2344 57.9063,121.2344 Q55.4063,121.2344 54.0781,119.5938 Q52.7656,117.9375 52.7656,114.8125 Q52.7656,111.6875 54.0781,110.0313 Q55.4063,108.375 57.9063,108.375 Q58.6094,108.375 59.25,108.5313 Q59.9063,108.6875 60.4688,108.9844 L60.4688,111.7031 Q59.8438,111.125 59.25,110.8594 Q58.6563,110.5781 58.0313,110.5781 Q56.6875,110.5781 56,111.6563 Q55.3125,112.7188 55.3125,114.8125 Q55.3125,116.9063 56,117.9844 Q56.6875,119.0469 58.0313,119.0469 Q58.6563,119.0469 59.25,118.7813 Q59.8438,118.5 60.4688,117.9219 L60.4688,120.6406 Z " fill="#000000"/><text fill="#000000" font-family="sans-serif" font-size="14" lengthAdjust="spacing" textLength="143" x="71.5" y="119.8467">LinearVelocitySensor</text></g><!--class SensorObject<LinearVelocity>--><g id="elem_SensorObject&lt;LinearVelocity&gt;"><rect codeLine="6" fill="#F1F1F1" height="32" id="SensorObject&lt;LinearVelocity&gt;" rx="2.5" ry="2.5" style="stroke:#181818;stroke-width:0.5;" width="246" x="7" y="7"/><ellipse cx="22" cy="23" fill="#A9DCDF" rx="11" ry="11" style="stroke:#181818;stroke-width:1.0;"/><path d="M22.1094,18.3438 L20.9531,23.4219 L23.2813,23.4219 L22.1094,18.3438 Z M20.625,16.1094 L23.6094,16.1094 L26.9688,28.5 L24.5156,28.5 L23.75,25.4375 L20.4688,25.4375 L19.7188,28.5 L17.2813,28.5 L20.625,16.1094 Z " fill="#000000"/><text fill="#000000" font-family="sans-serif" font-size="14" font-style="italic" lengthAdjust="spacing" textLength="214" x="36" y="27.8467">SensorObject&lt;LinearVelocity&gt;</text></g><!--reverse link SensorObject<LinearVelocity> to LinearVelocitySensor--><g id="link_SensorObject&lt;LinearVelocity&gt;_LinearVelocitySensor"><path codeLine="8" d="M130,59.61 C130,73.31 130,88.22 130,98.96 " fill="none" id="SensorObject&lt;LinearVelocity&gt;-backto-LinearVelocitySensor" style="stroke:#181818;stroke-width:1.0;"/><polygon fill="none" points="123,59.27,130,39.27,137,59.27,123,59.27" style="stroke:#181818;stroke-width:1.0;"/></g><!--SRC=[XOqz3i8m34RtdiBgtXjK3B0YCI2nkucXeObTsMQeWBiJgGmm8DRtlX-R4i-eM62BORget3Zk98k2Ax9LHUpDc281bTaNAEIZHFj4vqIvaf3H3DfzOa8zKPQGV3aIcsWBz-RPu61rD3Yyawix35SAtd_NDclZJwH_TDsFmnS0]--></g></svg>