<?xml version="1.0" encoding="UTF-8" standalone="no"?><svg xmlns="http://www.w3.org/2000/svg" xmlns:xlink="http://www.w3.org/1999/xlink" contentScriptType="application/ecmascript" contentStyleType="text/css" height="145px" preserveAspectRatio="none" style="width:365px;height:145px;background:#00000000;" version="1.1" viewBox="0 0 365 145" width="365px" zoomAndPan="magnify"><defs><filter height="300%" id="faxhbwtjqbx5q" width="300%" x="-1" y="-1"><feGaussianBlur result="blurOut" stdDeviation="2.0"/><feColorMatrix in="blurOut" result="blurOut2" type="matrix" values="0 0 0 0 0 0 0 0 0 0 0 0 0 0 0 0 0 0 .4 0"/><feOffset dx="4.0" dy="4.0" in="blurOut2" result="blurOut3"/><feBlend in="SourceGraphic" in2="blurOut3" mode="normal"/></filter></defs><g><!--MD5=[cb717750e6e9c1f23e1b17c7a2f007dd]
class LinearAccelerationSensor--><rect codeLine="4" fill="#FEFECE" filter="url(#faxhbwtjqbx5q)" height="32" id="LinearAccelerationSensor" style="stroke:#A80036;stroke-width:1.5;" width="192" x="83" y="99"/><ellipse cx="98" cy="115" fill="#ADD1B2" rx="11" ry="11" style="stroke:#A80036;stroke-width:1.0;"/><path d="M100.9688,120.6406 Q100.3906,120.9375 99.75,121.0781 Q99.1094,121.2344 98.4063,121.2344 Q95.9063,121.2344 94.5781,119.5938 Q93.2656,117.9375 93.2656,114.8125 Q93.2656,111.6875 94.5781,110.0313 Q95.9063,108.375 98.4063,108.375 Q99.1094,108.375 99.75,108.5313 Q100.4063,108.6875 100.9688,108.9844 L100.9688,111.7031 Q100.3438,111.125 99.75,110.8594 Q99.1563,110.5781 98.5313,110.5781 Q97.1875,110.5781 96.5,111.6563 Q95.8125,112.7188 95.8125,114.8125 Q95.8125,116.9063 96.5,117.9844 Q97.1875,119.0469 98.5313,119.0469 Q99.1563,119.0469 99.75,118.7813 Q100.3438,118.5 100.9688,117.9219 L100.9688,120.6406 Z " fill="#000000"/><text fill="#000000" font-family="sans-serif" font-size="12" lengthAdjust="spacing" textLength="160" x="112" y="119.1543">LinearAccelerationSensor</text><!--MD5=[810fa426577d1912bf0a96e96afd18b5]
class SensorObject<SensorValue | Object | Orientation>--><rect codeLine="6" fill="#FEFECE" filter="url(#faxhbwtjqbx5q)" height="32" id="SensorObject&lt;SensorValue | Object | Orientation&gt;" style="stroke:#A80036;stroke-width:1.5;" width="344" x="7" y="7"/><ellipse cx="22" cy="23" fill="#A9DCDF" rx="11" ry="11" style="stroke:#A80036;stroke-width:1.0;"/><path d="M22.1094,18.3438 L20.9531,23.4219 L23.2813,23.4219 L22.1094,18.3438 Z M20.625,16.1094 L23.6094,16.1094 L26.9688,28.5 L24.5156,28.5 L23.75,25.4375 L20.4688,25.4375 L19.7188,28.5 L17.2813,28.5 L20.625,16.1094 Z " fill="#000000"/><text fill="#000000" font-family="sans-serif" font-size="12" font-style="italic" lengthAdjust="spacing" textLength="312" x="36" y="27.1543">SensorObject&lt;SensorValue | Object | Orientation&gt;</text><!--MD5=[1cb6095e90908e359bd99f8e18bd14e3]
reverse link SensorObject<SensorValue | Object | Orientation> to LinearAccelerationSensor--><path codeLine="8" d="M179,59.61 C179,73.31 179,88.22 179,98.96 " fill="none" id="SensorObject&lt;SensorValue | Object | Orientation&gt;-backto-LinearAccelerationSensor" style="stroke:#A80036;stroke-width:1.0;"/><polygon fill="none" points="172,59.27,179,39.27,186,59.27,172,59.27" style="stroke:#A80036;stroke-width:1.0;"/><!--MD5=[7c78ba2bf1e42609e250501d5088bd74]
@startuml
skinparam BackgroundColor transparent
hide empty methods
hide empty fields
class "LinearAccelerationSensor" {
}
abstract class "SensorObject<SensorValue | Object | Orientation>" {
}
"SensorObject<SensorValue | Object | Orientation>" <|- - "LinearAccelerationSensor"
@enduml

PlantUML version 1.2021.14(Fri Nov 12 16:46:50 UTC 2021)
(GPL source distribution)
Java Runtime: OpenJDK Runtime Environment
JVM: OpenJDK 64-Bit Server VM
Default Encoding: UTF-8
Language: en
Country: null
--></g></svg>