<?xml version="1.0" encoding="UTF-8" standalone="no"?><svg xmlns="http://www.w3.org/2000/svg" xmlns:xlink="http://www.w3.org/1999/xlink" contentScriptType="application/ecmascript" contentStyleType="text/css" height="560px" preserveAspectRatio="none" style="width:432px;height:560px;background:#00000000;" version="1.1" viewBox="0 0 432 560" width="432px" zoomAndPan="magnify"><defs><filter height="300%" id="f7m3pgnp4onna" width="300%" x="-1" y="-1"><feGaussianBlur result="blurOut" stdDeviation="2.0"/><feColorMatrix in="blurOut" result="blurOut2" type="matrix" values="0 0 0 0 0 0 0 0 0 0 0 0 0 0 0 0 0 0 .4 0"/><feOffset dx="4.0" dy="4.0" in="blurOut2" result="blurOut3"/><feBlend in="SourceGraphic" in2="blurOut3" mode="normal"/></filter></defs><g><!--MD5=[b40efcfc98877d6073e3e433be7fb769]
class LinearVelocityUnit--><rect codeLine="4" fill="#FEFECE" filter="url(#f7m3pgnp4onna)" height="252.875" id="LinearVelocityUnit" style="stroke:#A80036;stroke-width:1.5;" width="409" x="9" y="294"/><ellipse cx="153.75" cy="310" fill="#ADD1B2" rx="11" ry="11" style="stroke:#A80036;stroke-width:1.0;"/><path d="M156.7188,315.6406 Q156.1406,315.9375 155.5,316.0781 Q154.8594,316.2344 154.1563,316.2344 Q151.6563,316.2344 150.3281,314.5938 Q149.0156,312.9375 149.0156,309.8125 Q149.0156,306.6875 150.3281,305.0313 Q151.6563,303.375 154.1563,303.375 Q154.8594,303.375 155.5,303.5313 Q156.1563,303.6875 156.7188,303.9844 L156.7188,306.7031 Q156.0938,306.125 155.5,305.8594 Q154.9063,305.5781 154.2813,305.5781 Q152.9375,305.5781 152.25,306.6563 Q151.5625,307.7188 151.5625,309.8125 Q151.5625,311.9063 152.25,312.9844 Q152.9375,314.0469 154.2813,314.0469 Q154.9063,314.0469 155.5,313.7813 Q156.0938,313.5 156.7188,312.9219 L156.7188,315.6406 Z " fill="#000000"/><text fill="#000000" font-family="sans-serif" font-size="12" lengthAdjust="spacing" textLength="111" x="174.25" y="314.1543">LinearVelocityUnit</text><line style="stroke:#A80036;stroke-width:1.5;" x1="10" x2="417" y1="326" y2="326"/><ellipse cx="20" cy="337" rx="3" ry="3" style="stroke:#038048;stroke-width:1.0;fill:none;"/><text fill="#000000" font-family="sans-serif" font-size="11" lengthAdjust="spacing" text-decoration="underline" textLength="228" x="29" y="340.2104">CENTIMETER_PER_SECOND : DerivedUnit</text><ellipse cx="20" cy="349.8047" rx="3" ry="3" style="stroke:#038048;stroke-width:1.0;fill:none;"/><text fill="#000000" font-family="sans-serif" font-size="11" lengthAdjust="spacing" text-decoration="underline" textLength="195" x="29" y="353.0151">METER_PER_SECOND : DerivedUnit</text><ellipse cx="20" cy="362.6094" rx="3" ry="3" style="stroke:#038048;stroke-width:1.0;fill:none;"/><text fill="#000000" font-family="sans-serif" font-size="11" lengthAdjust="spacing" text-decoration="underline" textLength="91" x="29" y="365.8198">UNKNOWN : Unit</text><polygon fill="none" points="20,370.4141,24,374.4141,20,378.4141,16,374.4141" style="stroke:#B38D22;stroke-width:1.0;"/><text fill="#000000" font-family="sans-serif" font-size="11" lengthAdjust="spacing" text-decoration="underline" textLength="150" x="29" y="378.6245">UNITS : Map&lt;string, Unit&gt;</text><polygon fill="none" points="20,383.2188,24,387.2188,20,391.2188,16,387.2188" style="stroke:#B38D22;stroke-width:1.0;"/><text fill="#000000" font-family="sans-serif" font-size="11" lengthAdjust="spacing" text-decoration="underline" textLength="197" x="29" y="391.4292">UNIT_BASES : Map&lt;string, string&gt;</text><line style="stroke:#A80036;stroke-width:1.5;" x1="10" x2="417" y1="398.0234" y2="398.0234"/><ellipse cx="20" cy="409.0234" fill="#84BE84" rx="3" ry="3" style="stroke:#038048;stroke-width:1.0;"/><text fill="#000000" font-family="sans-serif" font-size="11" lengthAdjust="spacing" textLength="274" x="29" y="412.2339">addUnit(unit: Unit, power: number) : DerivedUnit</text><ellipse cx="20" cy="421.8281" fill="#84BE84" rx="3" ry="3" style="stroke:#038048;stroke-width:1.0;"/><text fill="#000000" font-family="sans-serif" font-size="11" lengthAdjust="spacing" textLength="256" x="29" y="425.0386">convert&lt;T&gt;(value: T, target: string | Unit) : T</text><ellipse cx="20" cy="434.6328" fill="#84BE84" rx="3" ry="3" style="stroke:#038048;stroke-width:1.0;"/><text fill="#000000" font-family="sans-serif" font-size="11" lengthAdjust="spacing" text-decoration="underline" textLength="343" x="29" y="437.8433">convert&lt;T&gt;(value: T, from: string | Unit, to: string | Unit) : T</text><ellipse cx="20" cy="447.4375" fill="#84BE84" rx="3" ry="3" style="stroke:#038048;stroke-width:1.0;"/><text fill="#000000" font-family="sans-serif" font-size="11" lengthAdjust="spacing" textLength="326" x="29" y="450.6479">createBaseDefinition() : UnitFunctionDefinition&lt;any, any&gt;</text><ellipse cx="20" cy="460.2422" fill="#84BE84" rx="3" ry="3" style="stroke:#038048;stroke-width:1.0;"/><text fill="#000000" font-family="sans-serif" font-size="11" lengthAdjust="spacing" textLength="383" x="29" y="463.4526">createDefinition(targetUnit: Unit) : UnitFunctionDefinition&lt;any, any&gt;</text><ellipse cx="20" cy="473.0469" fill="#84BE84" rx="3" ry="3" style="stroke:#038048;stroke-width:1.0;"/><text fill="#000000" font-family="sans-serif" font-size="11" lengthAdjust="spacing" text-decoration="underline" textLength="293" x="29" y="476.2573">findByName(name: string, baseName: string) : Unit</text><ellipse cx="20" cy="485.8516" fill="#84BE84" rx="3" ry="3" style="stroke:#038048;stroke-width:1.0;"/><text fill="#000000" font-family="sans-serif" font-size="11" lengthAdjust="spacing" text-decoration="underline" textLength="159" x="29" y="489.062">fromJSON&lt;T&gt;(json: any) : T</text><ellipse cx="20" cy="498.6563" fill="#84BE84" rx="3" ry="3" style="stroke:#038048;stroke-width:1.0;"/><text fill="#000000" font-family="sans-serif" font-size="11" lengthAdjust="spacing" text-decoration="underline" textLength="268" x="29" y="501.8667">registerUnit(unit: Unit, override: boolean) : Unit</text><ellipse cx="20" cy="511.4609" fill="#84BE84" rx="3" ry="3" style="stroke:#038048;stroke-width:1.0;"/><text fill="#000000" font-family="sans-serif" font-size="11" lengthAdjust="spacing" textLength="263" x="29" y="514.6714">specifier(prefix: UnitPrefix) : LinearVelocityUnit</text><ellipse cx="20" cy="524.2656" fill="#84BE84" rx="3" ry="3" style="stroke:#038048;stroke-width:1.0;"/><text fill="#000000" font-family="sans-serif" font-size="11" lengthAdjust="spacing" textLength="326" x="29" y="527.4761">swap(subunits: Unit[], options: UnitOptions) : DerivedUnit</text><polygon fill="#FFFF44" points="20,532.0703,24,536.0703,20,540.0703,16,536.0703" style="stroke:#B38D22;stroke-width:1.0;"/><text fill="#000000" font-family="sans-serif" font-size="11" lengthAdjust="spacing" textLength="183" x="29" y="540.2808">findByName(name: string) : Unit</text><!--MD5=[a6134d6c7811d1be7cf9e5b9a22e1f63]
class DerivedUnit--><rect codeLine="22" fill="#FEFECE" filter="url(#f7m3pgnp4onna)" height="227.2656" id="DerivedUnit" style="stroke:#A80036;stroke-width:1.5;" width="409" x="9" y="7"/><ellipse cx="173.25" cy="23" fill="#ADD1B2" rx="11" ry="11" style="stroke:#A80036;stroke-width:1.0;"/><path d="M176.2188,28.6406 Q175.6406,28.9375 175,29.0781 Q174.3594,29.2344 173.6563,29.2344 Q171.1563,29.2344 169.8281,27.5938 Q168.5156,25.9375 168.5156,22.8125 Q168.5156,19.6875 169.8281,18.0313 Q171.1563,16.375 173.6563,16.375 Q174.3594,16.375 175,16.5313 Q175.6563,16.6875 176.2188,16.9844 L176.2188,19.7031 Q175.5938,19.125 175,18.8594 Q174.4063,18.5781 173.7813,18.5781 Q172.4375,18.5781 171.75,19.6563 Q171.0625,20.7188 171.0625,22.8125 Q171.0625,24.9063 171.75,25.9844 Q172.4375,27.0469 173.7813,27.0469 Q174.4063,27.0469 175,26.7813 Q175.5938,26.5 176.2188,25.9219 L176.2188,28.6406 Z " fill="#000000"/><text fill="#000000" font-family="sans-serif" font-size="12" lengthAdjust="spacing" textLength="72" x="193.75" y="27.1543">DerivedUnit</text><line style="stroke:#A80036;stroke-width:1.5;" x1="10" x2="417" y1="39" y2="39"/><ellipse cx="20" cy="50" rx="3" ry="3" style="stroke:#038048;stroke-width:1.0;fill:none;"/><text fill="#000000" font-family="sans-serif" font-size="11" lengthAdjust="spacing" text-decoration="underline" textLength="91" x="29" y="53.2104">UNKNOWN : Unit</text><polygon fill="none" points="20,57.8047,24,61.8047,20,65.8047,16,61.8047" style="stroke:#B38D22;stroke-width:1.0;"/><text fill="#000000" font-family="sans-serif" font-size="11" lengthAdjust="spacing" text-decoration="underline" textLength="150" x="29" y="66.0151">UNITS : Map&lt;string, Unit&gt;</text><polygon fill="none" points="20,70.6094,24,74.6094,20,78.6094,16,74.6094" style="stroke:#B38D22;stroke-width:1.0;"/><text fill="#000000" font-family="sans-serif" font-size="11" lengthAdjust="spacing" text-decoration="underline" textLength="197" x="29" y="78.8198">UNIT_BASES : Map&lt;string, string&gt;</text><line style="stroke:#A80036;stroke-width:1.5;" x1="10" x2="417" y1="85.4141" y2="85.4141"/><ellipse cx="20" cy="96.4141" fill="#84BE84" rx="3" ry="3" style="stroke:#038048;stroke-width:1.0;"/><text fill="#000000" font-family="sans-serif" font-size="11" lengthAdjust="spacing" textLength="274" x="29" y="99.6245">addUnit(unit: Unit, power: number) : DerivedUnit</text><ellipse cx="20" cy="109.2188" fill="#84BE84" rx="3" ry="3" style="stroke:#038048;stroke-width:1.0;"/><text fill="#000000" font-family="sans-serif" font-size="11" lengthAdjust="spacing" textLength="256" x="29" y="112.4292">convert&lt;T&gt;(value: T, target: string | Unit) : T</text><ellipse cx="20" cy="122.0234" fill="#84BE84" rx="3" ry="3" style="stroke:#038048;stroke-width:1.0;"/><text fill="#000000" font-family="sans-serif" font-size="11" lengthAdjust="spacing" text-decoration="underline" textLength="343" x="29" y="125.2339">convert&lt;T&gt;(value: T, from: string | Unit, to: string | Unit) : T</text><ellipse cx="20" cy="134.8281" fill="#84BE84" rx="3" ry="3" style="stroke:#038048;stroke-width:1.0;"/><text fill="#000000" font-family="sans-serif" font-size="11" lengthAdjust="spacing" textLength="326" x="29" y="138.0386">createBaseDefinition() : UnitFunctionDefinition&lt;any, any&gt;</text><ellipse cx="20" cy="147.6328" fill="#84BE84" rx="3" ry="3" style="stroke:#038048;stroke-width:1.0;"/><text fill="#000000" font-family="sans-serif" font-size="11" lengthAdjust="spacing" textLength="383" x="29" y="150.8433">createDefinition(targetUnit: Unit) : UnitFunctionDefinition&lt;any, any&gt;</text><ellipse cx="20" cy="160.4375" fill="#84BE84" rx="3" ry="3" style="stroke:#038048;stroke-width:1.0;"/><text fill="#000000" font-family="sans-serif" font-size="11" lengthAdjust="spacing" text-decoration="underline" textLength="293" x="29" y="163.6479">findByName(name: string, baseName: string) : Unit</text><ellipse cx="20" cy="173.2422" fill="#84BE84" rx="3" ry="3" style="stroke:#038048;stroke-width:1.0;"/><text fill="#000000" font-family="sans-serif" font-size="11" lengthAdjust="spacing" text-decoration="underline" textLength="159" x="29" y="176.4526">fromJSON&lt;T&gt;(json: any) : T</text><ellipse cx="20" cy="186.0469" fill="#84BE84" rx="3" ry="3" style="stroke:#038048;stroke-width:1.0;"/><text fill="#000000" font-family="sans-serif" font-size="11" lengthAdjust="spacing" text-decoration="underline" textLength="268" x="29" y="189.2573">registerUnit(unit: Unit, override: boolean) : Unit</text><ellipse cx="20" cy="198.8516" fill="#84BE84" rx="3" ry="3" style="stroke:#038048;stroke-width:1.0;"/><text fill="#000000" font-family="sans-serif" font-size="11" lengthAdjust="spacing" textLength="228" x="29" y="202.062">specifier(prefix: UnitPrefix) : DerivedUnit</text><ellipse cx="20" cy="211.6563" fill="#84BE84" rx="3" ry="3" style="stroke:#038048;stroke-width:1.0;"/><text fill="#000000" font-family="sans-serif" font-size="11" lengthAdjust="spacing" textLength="326" x="29" y="214.8667">swap(subunits: Unit[], options: UnitOptions) : DerivedUnit</text><polygon fill="#FFFF44" points="20,219.4609,24,223.4609,20,227.4609,16,223.4609" style="stroke:#B38D22;stroke-width:1.0;"/><text fill="#000000" font-family="sans-serif" font-size="11" lengthAdjust="spacing" textLength="183" x="29" y="227.6714">findByName(name: string) : Unit</text><!--MD5=[59ed7b246c2ac880ff5c3a9b8ce3bb7d]
reverse link DerivedUnit to LinearVelocityUnit--><path codeLine="38" d="M213.5,254.56 C213.5,267.66 213.5,280.93 213.5,293.96 " fill="none" id="DerivedUnit-backto-LinearVelocityUnit" style="stroke:#A80036;stroke-width:1.0;"/><polygon fill="none" points="206.5,254.16,213.5,234.16,220.5,254.16,206.5,254.16" style="stroke:#A80036;stroke-width:1.0;"/><!--MD5=[965596edc59d18d223c679474fa27f11]
@startuml
skinparam BackgroundColor transparent
hide empty methods
hide empty fields
class "LinearVelocityUnit" {
    {static} +CENTIMETER_PER_SECOND : DerivedUnit
    {static} +METER_PER_SECOND : DerivedUnit
    {static} +UNKNOWN : Unit
    {static} #UNITS : Map<string, Unit>
    {static} #UNIT_BASES : Map<string, string>
    +addUnit(unit: Unit, power: number) : DerivedUnit
    +convert<T>(value: T, target: string | Unit) : T
    {static} +convert<T>(value: T, from: string | Unit, to: string | Unit) : T
    +createBaseDefinition() : UnitFunctionDefinition<any, any>
    +createDefinition(targetUnit: Unit) : UnitFunctionDefinition<any, any>
    {static} +findByName(name: string, baseName: string) : Unit
    {static} +fromJSON<T>(json: any) : T
    {static} +registerUnit(unit: Unit, override: boolean) : Unit
    +specifier(prefix: UnitPrefix) : LinearVelocityUnit
    +swap(subunits: Unit[], options: UnitOptions) : DerivedUnit
    #findByName(name: string) : Unit
}
class "DerivedUnit" {
    {static} +UNKNOWN : Unit
    {static} #UNITS : Map<string, Unit>
    {static} #UNIT_BASES : Map<string, string>
    +addUnit(unit: Unit, power: number) : DerivedUnit
    +convert<T>(value: T, target: string | Unit) : T
    {static} +convert<T>(value: T, from: string | Unit, to: string | Unit) : T
    +createBaseDefinition() : UnitFunctionDefinition<any, any>
    +createDefinition(targetUnit: Unit) : UnitFunctionDefinition<any, any>
    {static} +findByName(name: string, baseName: string) : Unit
    {static} +fromJSON<T>(json: any) : T
    {static} +registerUnit(unit: Unit, override: boolean) : Unit
    +specifier(prefix: UnitPrefix) : DerivedUnit
    +swap(subunits: Unit[], options: UnitOptions) : DerivedUnit
    #findByName(name: string) : Unit
}
"DerivedUnit" <|- - "LinearVelocityUnit"
@enduml

PlantUML version 1.2021.14(Fri Nov 12 16:46:50 UTC 2021)
(GPL source distribution)
Java Runtime: OpenJDK Runtime Environment
JVM: OpenJDK 64-Bit Server VM
Default Encoding: UTF-8
Language: en
Country: null
--></g></svg>