<?xml version="1.0" encoding="us-ascii" standalone="no"?><svg xmlns="http://www.w3.org/2000/svg" xmlns:xlink="http://www.w3.org/1999/xlink" contentStyleType="text/css" height="138px" preserveAspectRatio="none" style="width:249px;height:138px;" version="1.1" viewBox="0 0 249 138" width="249px" zoomAndPan="magnify"><defs/><g><!--class LinearAccelerationSensor--><g id="elem_LinearAccelerationSensor"><rect codeLine="4" fill="#F1F1F1" height="32" id="LinearAccelerationSensor" rx="2.5" ry="2.5" style="stroke:#181818;stroke-width:0.5;" width="207" x="21" y="99"/><ellipse cx="36" cy="115" fill="#ADD1B2" rx="11" ry="11" style="stroke:#181818;stroke-width:1.0;"/><path d="M38.9688,120.6406 Q38.3906,120.9375 37.75,121.0781 Q37.1094,121.2344 36.4063,121.2344 Q33.9063,121.2344 32.5781,119.5938 Q31.2656,117.9375 31.2656,114.8125 Q31.2656,111.6875 32.5781,110.0313 Q33.9063,108.375 36.4063,108.375 Q37.1094,108.375 37.75,108.5313 Q38.4063,108.6875 38.9688,108.9844 L38.9688,111.7031 Q38.3438,111.125 37.75,110.8594 Q37.1563,110.5781 36.5313,110.5781 Q35.1875,110.5781 34.5,111.6563 Q33.8125,112.7188 33.8125,114.8125 Q33.8125,116.9063 34.5,117.9844 Q35.1875,119.0469 36.5313,119.0469 Q37.1563,119.0469 37.75,118.7813 Q38.3438,118.5 38.9688,117.9219 L38.9688,120.6406 Z " fill="#000000"/><text fill="#000000" font-family="sans-serif" font-size="14" lengthAdjust="spacing" textLength="175" x="50" y="119.8467">LinearAccelerationSensor</text></g><!--class SensorObject<Acceleration>--><g id="elem_SensorObject&lt;Acceleration&gt;"><rect codeLine="6" fill="#F1F1F1" height="32" id="SensorObject&lt;Acceleration&gt;" rx="2.5" ry="2.5" style="stroke:#181818;stroke-width:0.5;" width="235" x="7" y="7"/><ellipse cx="22" cy="23" fill="#A9DCDF" rx="11" ry="11" style="stroke:#181818;stroke-width:1.0;"/><path d="M22.1094,18.3438 L20.9531,23.4219 L23.2813,23.4219 L22.1094,18.3438 Z M20.625,16.1094 L23.6094,16.1094 L26.9688,28.5 L24.5156,28.5 L23.75,25.4375 L20.4688,25.4375 L19.7188,28.5 L17.2813,28.5 L20.625,16.1094 Z " fill="#000000"/><text fill="#000000" font-family="sans-serif" font-size="14" font-style="italic" lengthAdjust="spacing" textLength="203" x="36" y="27.8467">SensorObject&lt;Acceleration&gt;</text></g><!--reverse link SensorObject<Acceleration> to LinearAccelerationSensor--><g id="link_SensorObject&lt;Acceleration&gt;_LinearAccelerationSensor"><path codeLine="8" d="M124.5,59.61 C124.5,73.31 124.5,88.22 124.5,98.96 " fill="none" id="SensorObject&lt;Acceleration&gt;-backto-LinearAccelerationSensor" style="stroke:#181818;stroke-width:1.0;"/><polygon fill="none" points="117.5,59.27,124.5,39.27,131.5,59.27,117.5,59.27" style="stroke:#181818;stroke-width:1.0;"/></g><!--SRC=[VOqn3i9030JxUuMLFZ-8a80MYO8NE1T3ZjpPaUqK2FWx9uKYLTgTsLsR4i-eME24SNgeB3oS9Ok2Ax9LHEnXJ0C1bTbVKCX76MmRtHFbciICPj1S4XFgCKRAfEX9-4PieWsympTWRtKuElpjbLtx9qNljgN3wkyAtQTjTmv_]--></g></svg>