<?xml version="1.0" encoding="us-ascii" standalone="no"?><svg xmlns="http://www.w3.org/2000/svg" xmlns:xlink="http://www.w3.org/1999/xlink" contentStyleType="text/css" height="138px" preserveAspectRatio="none" style="width:248px;height:138px;" version="1.1" viewBox="0 0 248 138" width="248px" zoomAndPan="magnify"><defs/><g><!--class LocationBasedService<T, P>--><g id="elem_LocationBasedService&lt;T, P&gt;"><rect codeLine="4" fill="#F1F1F1" height="32" id="LocationBasedService&lt;T, P&gt;" rx="2.5" ry="2.5" style="stroke:#181818;stroke-width:0.5;" width="234" x="7" y="99"/><ellipse cx="22" cy="115" fill="#ADD1B2" rx="11" ry="11" style="stroke:#181818;stroke-width:1.0;"/><path d="M24.9688,120.6406 Q24.3906,120.9375 23.75,121.0781 Q23.1094,121.2344 22.4063,121.2344 Q19.9063,121.2344 18.5781,119.5938 Q17.2656,117.9375 17.2656,114.8125 Q17.2656,111.6875 18.5781,110.0313 Q19.9063,108.375 22.4063,108.375 Q23.1094,108.375 23.75,108.5313 Q24.4063,108.6875 24.9688,108.9844 L24.9688,111.7031 Q24.3438,111.125 23.75,110.8594 Q23.1563,110.5781 22.5313,110.5781 Q21.1875,110.5781 20.5,111.6563 Q19.8125,112.7188 19.8125,114.8125 Q19.8125,116.9063 20.5,117.9844 Q21.1875,119.0469 22.5313,119.0469 Q23.1563,119.0469 23.75,118.7813 Q24.3438,118.5 24.9688,117.9219 L24.9688,120.6406 Z " fill="#000000"/><text fill="#000000" font-family="sans-serif" font-size="14" lengthAdjust="spacing" textLength="202" x="36" y="119.8467">LocationBasedService&lt;T, P&gt;</text></g><!--class Service--><g id="elem_Service"><rect codeLine="6" fill="#F1F1F1" height="32" id="Service" rx="2.5" ry="2.5" style="stroke:#181818;stroke-width:0.5;" width="83" x="82.5" y="7"/><ellipse cx="97.5" cy="23" fill="#A9DCDF" rx="11" ry="11" style="stroke:#181818;stroke-width:1.0;"/><path d="M97.6094,18.3438 L96.4531,23.4219 L98.7813,23.4219 L97.6094,18.3438 Z M96.125,16.1094 L99.1094,16.1094 L102.4688,28.5 L100.0156,28.5 L99.25,25.4375 L95.9688,25.4375 L95.2188,28.5 L92.7813,28.5 L96.125,16.1094 Z " fill="#000000"/><text fill="#000000" font-family="sans-serif" font-size="14" font-style="italic" lengthAdjust="spacing" textLength="51" x="111.5" y="27.8467">Service</text></g><!--reverse link Service to LocationBasedService<T, P>--><g id="link_Service_LocationBasedService&lt;T, P&gt;"><path codeLine="8" d="M124,59.61 C124,73.31 124,88.22 124,98.96 " fill="none" id="Service-backto-LocationBasedService&lt;T, P&gt;" style="stroke:#181818;stroke-width:1.0;"/><polygon fill="none" points="117,59.27,124,39.27,131,59.27,117,59.27" style="stroke:#181818;stroke-width:1.0;"/></g><!--SRC=[VOmn3i8m34NtdCBgJ6zGCPIL0GakO193eoPs5Rj827htHg8IJ8p_lQUlO-G92sReqO_t8ZE7WoGfO0LPgo8sDyH0G7co9sIoGOB-ebkaL8bFg0hDKJnQ5EvHAPofFAAdxhA3qxw1briSNhLUUuEjtvAF_AxktRP_prO0]--></g></svg>