<?xml version="1.0" encoding="UTF-8" standalone="no"?><svg xmlns="http://www.w3.org/2000/svg" xmlns:xlink="http://www.w3.org/1999/xlink" contentScriptType="application/ecmascript" contentStyleType="text/css" height="145px" preserveAspectRatio="none" style="width:195px;height:145px;background:#00000000;" version="1.1" viewBox="0 0 195 145" width="195px" zoomAndPan="magnify"><defs><filter height="300%" id="f1g90t8qoye7ai" width="300%" x="-1" y="-1"><feGaussianBlur result="blurOut" stdDeviation="2.0"/><feColorMatrix in="blurOut" result="blurOut2" type="matrix" values="0 0 0 0 0 0 0 0 0 0 0 0 0 0 0 0 0 0 .4 0"/><feOffset dx="4.0" dy="4.0" in="blurOut2" result="blurOut3"/><feBlend in="SourceGraphic" in2="blurOut3" mode="normal"/></filter></defs><g><!--MD5=[e7f1040352c1dc2a694a3dab34171633]
class LoggingSinkNode<In>--><rect codeLine="4" fill="#FEFECE" filter="url(#f1g90t8qoye7ai)" height="32" id="LoggingSinkNode&lt;In&gt;" style="stroke:#A80036;stroke-width:1.5;" width="171" x="8.5" y="99"/><ellipse cx="23.5" cy="115" fill="#ADD1B2" rx="11" ry="11" style="stroke:#A80036;stroke-width:1.0;"/><path d="M26.4688,120.6406 Q25.8906,120.9375 25.25,121.0781 Q24.6094,121.2344 23.9063,121.2344 Q21.4063,121.2344 20.0781,119.5938 Q18.7656,117.9375 18.7656,114.8125 Q18.7656,111.6875 20.0781,110.0313 Q21.4063,108.375 23.9063,108.375 Q24.6094,108.375 25.25,108.5313 Q25.9063,108.6875 26.4688,108.9844 L26.4688,111.7031 Q25.8438,111.125 25.25,110.8594 Q24.6563,110.5781 24.0313,110.5781 Q22.6875,110.5781 22,111.6563 Q21.3125,112.7188 21.3125,114.8125 Q21.3125,116.9063 22,117.9844 Q22.6875,119.0469 24.0313,119.0469 Q24.6563,119.0469 25.25,118.7813 Q25.8438,118.5 26.4688,117.9219 L26.4688,120.6406 Z " fill="#000000"/><text fill="#000000" font-family="sans-serif" font-size="12" lengthAdjust="spacing" textLength="139" x="37.5" y="119.1543">LoggingSinkNode&lt;In&gt;</text><!--MD5=[cc12a55b7b1d4c7f3ffb9787ecda070f]
class CallbackSinkNode<In>--><rect codeLine="6" fill="#FEFECE" filter="url(#f1g90t8qoye7ai)" height="32" id="CallbackSinkNode&lt;In&gt;" style="stroke:#A80036;stroke-width:1.5;" width="174" x="7" y="7"/><ellipse cx="22" cy="23" fill="#ADD1B2" rx="11" ry="11" style="stroke:#A80036;stroke-width:1.0;"/><path d="M24.9688,28.6406 Q24.3906,28.9375 23.75,29.0781 Q23.1094,29.2344 22.4063,29.2344 Q19.9063,29.2344 18.5781,27.5938 Q17.2656,25.9375 17.2656,22.8125 Q17.2656,19.6875 18.5781,18.0313 Q19.9063,16.375 22.4063,16.375 Q23.1094,16.375 23.75,16.5313 Q24.4063,16.6875 24.9688,16.9844 L24.9688,19.7031 Q24.3438,19.125 23.75,18.8594 Q23.1563,18.5781 22.5313,18.5781 Q21.1875,18.5781 20.5,19.6563 Q19.8125,20.7188 19.8125,22.8125 Q19.8125,24.9063 20.5,25.9844 Q21.1875,27.0469 22.5313,27.0469 Q23.1563,27.0469 23.75,26.7813 Q24.3438,26.5 24.9688,25.9219 L24.9688,28.6406 Z " fill="#000000"/><text fill="#000000" font-family="sans-serif" font-size="12" lengthAdjust="spacing" textLength="142" x="36" y="27.1543">CallbackSinkNode&lt;In&gt;</text><!--MD5=[d6df32a212f5814fe78d96939b5d9b9d]
reverse link CallbackSinkNode<In> to LoggingSinkNode<In>--><path codeLine="8" d="M94,59.61 C94,73.31 94,88.22 94,98.96 " fill="none" id="CallbackSinkNode&lt;In&gt;-backto-LoggingSinkNode&lt;In&gt;" style="stroke:#A80036;stroke-width:1.0;"/><polygon fill="none" points="87,59.27,94,39.27,101,59.27,87,59.27" style="stroke:#A80036;stroke-width:1.0;"/><!--MD5=[943b67b141a2ccfa9154a94ee8a64bc4]
@startuml
skinparam BackgroundColor transparent
hide empty methods
hide empty fields
class "LoggingSinkNode<In>" {
}
class "CallbackSinkNode<In>" {
}
"CallbackSinkNode<In>" <|- - "LoggingSinkNode<In>"
@enduml

PlantUML version 1.2021.14(Fri Nov 12 16:46:50 UTC 2021)
(GPL source distribution)
Java Runtime: OpenJDK Runtime Environment
JVM: OpenJDK 64-Bit Server VM
Default Encoding: UTF-8
Language: en
Country: null
--></g></svg>