<?xml version="1.0" encoding="us-ascii" standalone="no"?><svg xmlns="http://www.w3.org/2000/svg" xmlns:xlink="http://www.w3.org/1999/xlink" contentStyleType="text/css" height="138px" preserveAspectRatio="none" style="width:311px;height:138px;" version="1.1" viewBox="0 0 311 138" width="311px" zoomAndPan="magnify"><defs/><g><!--class LPFilterNode<InOut>--><g id="elem_LPFilterNode&lt;InOut&gt;"><rect codeLine="4" fill="#F1F1F1" height="32" id="LPFilterNode&lt;InOut&gt;" rx="2.5" ry="2.5" style="stroke:#181818;stroke-width:0.5;" width="179" x="66" y="99"/><ellipse cx="81" cy="115" fill="#ADD1B2" rx="11" ry="11" style="stroke:#181818;stroke-width:1.0;"/><path d="M83.9688,120.6406 Q83.3906,120.9375 82.75,121.0781 Q82.1094,121.2344 81.4063,121.2344 Q78.9063,121.2344 77.5781,119.5938 Q76.2656,117.9375 76.2656,114.8125 Q76.2656,111.6875 77.5781,110.0313 Q78.9063,108.375 81.4063,108.375 Q82.1094,108.375 82.75,108.5313 Q83.4063,108.6875 83.9688,108.9844 L83.9688,111.7031 Q83.3438,111.125 82.75,110.8594 Q82.1563,110.5781 81.5313,110.5781 Q80.1875,110.5781 79.5,111.6563 Q78.8125,112.7188 78.8125,114.8125 Q78.8125,116.9063 79.5,117.9844 Q80.1875,119.0469 81.5313,119.0469 Q82.1563,119.0469 82.75,118.7813 Q83.3438,118.5 83.9688,117.9219 L83.9688,120.6406 Z " fill="#000000"/><text fill="#000000" font-family="sans-serif" font-size="14" lengthAdjust="spacing" textLength="147" x="95" y="119.8467">LPFilterNode&lt;InOut&gt;</text></g><!--class PropertyFilterProcessingNode<InOut>--><g id="elem_PropertyFilterProcessingNode&lt;InOut&gt;"><rect codeLine="6" fill="#F1F1F1" height="32" id="PropertyFilterProcessingNode&lt;InOut&gt;" rx="2.5" ry="2.5" style="stroke:#181818;stroke-width:0.5;" width="297" x="7" y="7"/><ellipse cx="22" cy="23" fill="#A9DCDF" rx="11" ry="11" style="stroke:#181818;stroke-width:1.0;"/><path d="M22.1094,18.3438 L20.9531,23.4219 L23.2813,23.4219 L22.1094,18.3438 Z M20.625,16.1094 L23.6094,16.1094 L26.9688,28.5 L24.5156,28.5 L23.75,25.4375 L20.4688,25.4375 L19.7188,28.5 L17.2813,28.5 L20.625,16.1094 Z " fill="#000000"/><text fill="#000000" font-family="sans-serif" font-size="14" font-style="italic" lengthAdjust="spacing" textLength="265" x="36" y="27.8467">PropertyFilterProcessingNode&lt;InOut&gt;</text></g><!--reverse link PropertyFilterProcessingNode<InOut> to LPFilterNode<InOut>--><g id="link_PropertyFilterProcessingNode&lt;InOut&gt;_LPFilterNode&lt;InOut&gt;"><path codeLine="8" d="M155.5,59.61 C155.5,73.31 155.5,88.22 155.5,98.96 " fill="none" id="PropertyFilterProcessingNode&lt;InOut&gt;-backto-LPFilterNode&lt;InOut&gt;" style="stroke:#181818;stroke-width:1.0;"/><polygon fill="none" points="148.5,59.27,155.5,39.27,162.5,59.27,148.5,59.27" style="stroke:#181818;stroke-width:1.0;"/></g><!--SRC=[ZOt12i8m44Jl-Ogbz_v1yQ0W2ABzXPYiRMYoMtQtXwB-km4z27hmE3DlPdHAD7ln1RO-J8FmGd77cGLCF6cDaCoDAI9WcMs5WZPor4_hcZ1N9sIl2isntwTiA2UEs1telDYcWPjxE7_HkXaCtc0lFAFO-iAh2gYQQFWg_aTszxRz_Vu4]--></g></svg>