<?xml version="1.0" encoding="UTF-8" standalone="no"?><svg xmlns="http://www.w3.org/2000/svg" xmlns:xlink="http://www.w3.org/1999/xlink" contentScriptType="application/ecmascript" contentStyleType="text/css" height="145px" preserveAspectRatio="none" style="width:196px;height:145px;background:#00000000;" version="1.1" viewBox="0 0 196 145" width="196px" zoomAndPan="magnify"><defs><filter height="300%" id="f1uuim5novtxe2" width="300%" x="-1" y="-1"><feGaussianBlur result="blurOut" stdDeviation="2.0"/><feColorMatrix in="blurOut" result="blurOut2" type="matrix" values="0 0 0 0 0 0 0 0 0 0 0 0 0 0 0 0 0 0 .4 0"/><feOffset dx="4.0" dy="4.0" in="blurOut2" result="blurOut3"/><feBlend in="SourceGraphic" in2="blurOut3" mode="normal"/></filter></defs><g><!--MD5=[b2b199c0672bc41b9b726c0aa663eb4b]
class LPFilterOptions--><rect codeLine="4" fill="#FEFECE" filter="url(#f1uuim5novtxe2)" height="32" id="LPFilterOptions" style="stroke:#A80036;stroke-width:1.5;" width="123" x="33" y="99"/><ellipse cx="48" cy="115" fill="#B4A7E5" rx="11" ry="11" style="stroke:#A80036;stroke-width:1.0;"/><path d="M43.9219,110.7656 L43.9219,108.6094 L51.3125,108.6094 L51.3125,110.7656 L48.8438,110.7656 L48.8438,118.8438 L51.3125,118.8438 L51.3125,121 L43.9219,121 L43.9219,118.8438 L46.3906,118.8438 L46.3906,110.7656 L43.9219,110.7656 Z " fill="#000000"/><text fill="#000000" font-family="sans-serif" font-size="12" font-style="italic" lengthAdjust="spacing" textLength="91" x="62" y="119.1543">LPFilterOptions</text><!--MD5=[a64cc95f50a68f73795155817271a9ec]
class FilterProcessingOptions--><rect codeLine="6" fill="#FEFECE" filter="url(#f1uuim5novtxe2)" height="32" id="FilterProcessingOptions" style="stroke:#A80036;stroke-width:1.5;" width="175" x="7" y="7"/><ellipse cx="22" cy="23" fill="#B4A7E5" rx="11" ry="11" style="stroke:#A80036;stroke-width:1.0;"/><path d="M17.9219,18.7656 L17.9219,16.6094 L25.3125,16.6094 L25.3125,18.7656 L22.8438,18.7656 L22.8438,26.8438 L25.3125,26.8438 L25.3125,29 L17.9219,29 L17.9219,26.8438 L20.3906,26.8438 L20.3906,18.7656 L17.9219,18.7656 Z " fill="#000000"/><text fill="#000000" font-family="sans-serif" font-size="12" font-style="italic" lengthAdjust="spacing" textLength="143" x="36" y="27.1543">FilterProcessingOptions</text><!--MD5=[ed4a6c5e7d849d8ba4d8e76294b3dd30]
reverse link FilterProcessingOptions to LPFilterOptions--><path codeLine="8" d="M94.5,59.61 C94.5,73.31 94.5,88.22 94.5,98.96 " fill="none" id="FilterProcessingOptions-backto-LPFilterOptions" style="stroke:#A80036;stroke-width:1.0;"/><polygon fill="none" points="87.5,59.27,94.5,39.27,101.5,59.27,87.5,59.27" style="stroke:#A80036;stroke-width:1.0;"/><!--MD5=[baaabb9c0b5cd196bdcce4d2231d87d4]
@startuml
skinparam BackgroundColor transparent
hide empty methods
hide empty fields
interface "LPFilterOptions" {
}
interface "FilterProcessingOptions" {
}
"FilterProcessingOptions" <|- - "LPFilterOptions"
@enduml

PlantUML version 1.2021.14(Fri Nov 12 16:46:50 UTC 2021)
(GPL source distribution)
Java Runtime: OpenJDK Runtime Environment
JVM: OpenJDK 64-Bit Server VM
Default Encoding: UTF-8
Language: en
Country: null
--></g></svg>