<?xml version="1.0" encoding="us-ascii" standalone="no"?><svg xmlns="http://www.w3.org/2000/svg" xmlns:xlink="http://www.w3.org/1999/xlink" contentStyleType="text/css" height="138px" preserveAspectRatio="none" style="width:206px;height:138px;" version="1.1" viewBox="0 0 206 138" width="206px" zoomAndPan="magnify"><defs/><g><!--class LuminanceIntensityUnit--><g id="elem_LuminanceIntensityUnit"><rect codeLine="4" fill="#F1F1F1" height="32" id="LuminanceIntensityUnit" rx="2.5" ry="2.5" style="stroke:#181818;stroke-width:0.5;" width="192" x="7" y="99"/><ellipse cx="22" cy="115" fill="#ADD1B2" rx="11" ry="11" style="stroke:#181818;stroke-width:1.0;"/><path d="M24.9688,120.6406 Q24.3906,120.9375 23.75,121.0781 Q23.1094,121.2344 22.4063,121.2344 Q19.9063,121.2344 18.5781,119.5938 Q17.2656,117.9375 17.2656,114.8125 Q17.2656,111.6875 18.5781,110.0313 Q19.9063,108.375 22.4063,108.375 Q23.1094,108.375 23.75,108.5313 Q24.4063,108.6875 24.9688,108.9844 L24.9688,111.7031 Q24.3438,111.125 23.75,110.8594 Q23.1563,110.5781 22.5313,110.5781 Q21.1875,110.5781 20.5,111.6563 Q19.8125,112.7188 19.8125,114.8125 Q19.8125,116.9063 20.5,117.9844 Q21.1875,119.0469 22.5313,119.0469 Q23.1563,119.0469 23.75,118.7813 Q24.3438,118.5 24.9688,117.9219 L24.9688,120.6406 Z " fill="#000000"/><text fill="#000000" font-family="sans-serif" font-size="14" lengthAdjust="spacing" textLength="160" x="36" y="119.8467">LuminanceIntensityUnit</text></g><!--class Unit--><g id="elem_Unit"><rect codeLine="6" fill="#F1F1F1" height="32" id="Unit" rx="2.5" ry="2.5" style="stroke:#181818;stroke-width:0.5;" width="59" x="73.5" y="7"/><ellipse cx="88.5" cy="23" fill="#ADD1B2" rx="11" ry="11" style="stroke:#181818;stroke-width:1.0;"/><path d="M91.4688,28.6406 Q90.8906,28.9375 90.25,29.0781 Q89.6094,29.2344 88.9063,29.2344 Q86.4063,29.2344 85.0781,27.5938 Q83.7656,25.9375 83.7656,22.8125 Q83.7656,19.6875 85.0781,18.0313 Q86.4063,16.375 88.9063,16.375 Q89.6094,16.375 90.25,16.5313 Q90.9063,16.6875 91.4688,16.9844 L91.4688,19.7031 Q90.8438,19.125 90.25,18.8594 Q89.6563,18.5781 89.0313,18.5781 Q87.6875,18.5781 87,19.6563 Q86.3125,20.7188 86.3125,22.8125 Q86.3125,24.9063 87,25.9844 Q87.6875,27.0469 89.0313,27.0469 Q89.6563,27.0469 90.25,26.7813 Q90.8438,26.5 91.4688,25.9219 L91.4688,28.6406 Z " fill="#000000"/><text fill="#000000" font-family="sans-serif" font-size="14" lengthAdjust="spacing" textLength="27" x="102.5" y="27.8467">Unit</text></g><!--reverse link Unit to LuminanceIntensityUnit--><g id="link_Unit_LuminanceIntensityUnit"><path codeLine="8" d="M103,59.61 C103,73.31 103,88.22 103,98.96 " fill="none" id="Unit-backto-LuminanceIntensityUnit" style="stroke:#181818;stroke-width:1.0;"/><polygon fill="none" points="96,59.27,103,39.27,110,59.27,96,59.27" style="stroke:#181818;stroke-width:1.0;"/></g><!--SRC=[TSkn3eCm30JGdQ-msFa39ZfLwjeFi1AtM2GN59i1jVnx6Lh1qktqxiucnSoLCmqSfcSj2-Abf5B9AyFsIk3Dg558ykmhPV6nH3lJGoNj4XARKNjRie8Hv0eNcFfwXtfBhsRxJGxunlxTTN-V7m00]--></g></svg>