<?xml version="1.0" encoding="UTF-8" standalone="no"?><svg xmlns="http://www.w3.org/2000/svg" xmlns:xlink="http://www.w3.org/1999/xlink" contentScriptType="application/ecmascript" contentStyleType="text/css" height="497px" preserveAspectRatio="none" style="width:432px;height:497px;background:#00000000;" version="1.1" viewBox="0 0 432 497" width="432px" zoomAndPan="magnify"><defs><filter height="300%" id="f1vc651lnlt5r6" width="300%" x="-1" y="-1"><feGaussianBlur result="blurOut" stdDeviation="2.0"/><feColorMatrix in="blurOut" result="blurOut2" type="matrix" values="0 0 0 0 0 0 0 0 0 0 0 0 0 0 0 0 0 0 .4 0"/><feOffset dx="4.0" dy="4.0" in="blurOut2" result="blurOut3"/><feBlend in="SourceGraphic" in2="blurOut3" mode="normal"/></filter></defs><g><!--MD5=[1eaab5e4feb33b99db0080ef39c20fa5]
class LuminanceIntensityUnit--><rect codeLine="4" fill="#FEFECE" filter="url(#f1vc651lnlt5r6)" height="214.4609" id="LuminanceIntensityUnit" style="stroke:#A80036;stroke-width:1.5;" width="409" x="9" y="269"/><ellipse cx="136.75" cy="285" fill="#ADD1B2" rx="11" ry="11" style="stroke:#A80036;stroke-width:1.0;"/><path d="M139.7188,290.6406 Q139.1406,290.9375 138.5,291.0781 Q137.8594,291.2344 137.1563,291.2344 Q134.6563,291.2344 133.3281,289.5938 Q132.0156,287.9375 132.0156,284.8125 Q132.0156,281.6875 133.3281,280.0313 Q134.6563,278.375 137.1563,278.375 Q137.8594,278.375 138.5,278.5313 Q139.1563,278.6875 139.7188,278.9844 L139.7188,281.7031 Q139.0938,281.125 138.5,280.8594 Q137.9063,280.5781 137.2813,280.5781 Q135.9375,280.5781 135.25,281.6563 Q134.5625,282.7188 134.5625,284.8125 Q134.5625,286.9063 135.25,287.9844 Q135.9375,289.0469 137.2813,289.0469 Q137.9063,289.0469 138.5,288.7813 Q139.0938,288.5 139.7188,287.9219 L139.7188,290.6406 Z " fill="#000000"/><text fill="#000000" font-family="sans-serif" font-size="12" lengthAdjust="spacing" textLength="145" x="157.25" y="289.1543">LuminanceIntensityUnit</text><line style="stroke:#A80036;stroke-width:1.5;" x1="10" x2="417" y1="301" y2="301"/><ellipse cx="20" cy="312" rx="3" ry="3" style="stroke:#038048;stroke-width:1.0;fill:none;"/><text fill="#000000" font-family="sans-serif" font-size="11" lengthAdjust="spacing" text-decoration="underline" textLength="194" x="29" y="315.2104">CANDELA : LuminanceIntensityUnit</text><ellipse cx="20" cy="324.8047" rx="3" ry="3" style="stroke:#038048;stroke-width:1.0;fill:none;"/><text fill="#000000" font-family="sans-serif" font-size="11" lengthAdjust="spacing" text-decoration="underline" textLength="91" x="29" y="328.0151">UNKNOWN : Unit</text><polygon fill="none" points="20,332.6094,24,336.6094,20,340.6094,16,336.6094" style="stroke:#B38D22;stroke-width:1.0;"/><text fill="#000000" font-family="sans-serif" font-size="11" lengthAdjust="spacing" text-decoration="underline" textLength="150" x="29" y="340.8198">UNITS : Map&lt;string, Unit&gt;</text><polygon fill="none" points="20,345.4141,24,349.4141,20,353.4141,16,349.4141" style="stroke:#B38D22;stroke-width:1.0;"/><text fill="#000000" font-family="sans-serif" font-size="11" lengthAdjust="spacing" text-decoration="underline" textLength="197" x="29" y="353.6245">UNIT_BASES : Map&lt;string, string&gt;</text><line style="stroke:#A80036;stroke-width:1.5;" x1="10" x2="417" y1="360.2188" y2="360.2188"/><ellipse cx="20" cy="371.2188" fill="#84BE84" rx="3" ry="3" style="stroke:#038048;stroke-width:1.0;"/><text fill="#000000" font-family="sans-serif" font-size="11" lengthAdjust="spacing" textLength="256" x="29" y="374.4292">convert&lt;T&gt;(value: T, target: string | Unit) : T</text><ellipse cx="20" cy="384.0234" fill="#84BE84" rx="3" ry="3" style="stroke:#038048;stroke-width:1.0;"/><text fill="#000000" font-family="sans-serif" font-size="11" lengthAdjust="spacing" text-decoration="underline" textLength="343" x="29" y="387.2339">convert&lt;T&gt;(value: T, from: string | Unit, to: string | Unit) : T</text><ellipse cx="20" cy="396.8281" fill="#84BE84" rx="3" ry="3" style="stroke:#038048;stroke-width:1.0;"/><text fill="#000000" font-family="sans-serif" font-size="11" lengthAdjust="spacing" textLength="326" x="29" y="400.0386">createBaseDefinition() : UnitFunctionDefinition&lt;any, any&gt;</text><ellipse cx="20" cy="409.6328" fill="#84BE84" rx="3" ry="3" style="stroke:#038048;stroke-width:1.0;"/><text fill="#000000" font-family="sans-serif" font-size="11" lengthAdjust="spacing" textLength="383" x="29" y="412.8433">createDefinition(targetUnit: Unit) : UnitFunctionDefinition&lt;any, any&gt;</text><ellipse cx="20" cy="422.4375" fill="#84BE84" rx="3" ry="3" style="stroke:#038048;stroke-width:1.0;"/><text fill="#000000" font-family="sans-serif" font-size="11" lengthAdjust="spacing" text-decoration="underline" textLength="293" x="29" y="425.6479">findByName(name: string, baseName: string) : Unit</text><ellipse cx="20" cy="435.2422" fill="#84BE84" rx="3" ry="3" style="stroke:#038048;stroke-width:1.0;"/><text fill="#000000" font-family="sans-serif" font-size="11" lengthAdjust="spacing" text-decoration="underline" textLength="159" x="29" y="438.4526">fromJSON&lt;T&gt;(json: any) : T</text><ellipse cx="20" cy="448.0469" fill="#84BE84" rx="3" ry="3" style="stroke:#038048;stroke-width:1.0;"/><text fill="#000000" font-family="sans-serif" font-size="11" lengthAdjust="spacing" text-decoration="underline" textLength="268" x="29" y="451.2573">registerUnit(unit: Unit, override: boolean) : Unit</text><ellipse cx="20" cy="460.8516" fill="#84BE84" rx="3" ry="3" style="stroke:#038048;stroke-width:1.0;"/><text fill="#000000" font-family="sans-serif" font-size="11" lengthAdjust="spacing" textLength="294" x="29" y="464.062">specifier(prefix: UnitPrefix) : LuminanceIntensityUnit</text><polygon fill="#FFFF44" points="20,468.6563,24,472.6563,20,476.6563,16,472.6563" style="stroke:#B38D22;stroke-width:1.0;"/><text fill="#000000" font-family="sans-serif" font-size="11" lengthAdjust="spacing" textLength="183" x="29" y="476.8667">findByName(name: string) : Unit</text><!--MD5=[63a373d2559db13dd8cc7d36e037ebb1]
class Unit--><rect codeLine="19" fill="#FEFECE" filter="url(#f1vc651lnlt5r6)" height="201.6563" id="Unit" style="stroke:#A80036;stroke-width:1.5;" width="409" x="9" y="7"/><ellipse cx="196.75" cy="23" fill="#ADD1B2" rx="11" ry="11" style="stroke:#A80036;stroke-width:1.0;"/><path d="M199.7188,28.6406 Q199.1406,28.9375 198.5,29.0781 Q197.8594,29.2344 197.1563,29.2344 Q194.6563,29.2344 193.3281,27.5938 Q192.0156,25.9375 192.0156,22.8125 Q192.0156,19.6875 193.3281,18.0313 Q194.6563,16.375 197.1563,16.375 Q197.8594,16.375 198.5,16.5313 Q199.1563,16.6875 199.7188,16.9844 L199.7188,19.7031 Q199.0938,19.125 198.5,18.8594 Q197.9063,18.5781 197.2813,18.5781 Q195.9375,18.5781 195.25,19.6563 Q194.5625,20.7188 194.5625,22.8125 Q194.5625,24.9063 195.25,25.9844 Q195.9375,27.0469 197.2813,27.0469 Q197.9063,27.0469 198.5,26.7813 Q199.0938,26.5 199.7188,25.9219 L199.7188,28.6406 Z " fill="#000000"/><text fill="#000000" font-family="sans-serif" font-size="12" lengthAdjust="spacing" textLength="25" x="217.25" y="27.1543">Unit</text><line style="stroke:#A80036;stroke-width:1.5;" x1="10" x2="417" y1="39" y2="39"/><ellipse cx="20" cy="50" rx="3" ry="3" style="stroke:#038048;stroke-width:1.0;fill:none;"/><text fill="#000000" font-family="sans-serif" font-size="11" lengthAdjust="spacing" text-decoration="underline" textLength="91" x="29" y="53.2104">UNKNOWN : Unit</text><polygon fill="none" points="20,57.8047,24,61.8047,20,65.8047,16,61.8047" style="stroke:#B38D22;stroke-width:1.0;"/><text fill="#000000" font-family="sans-serif" font-size="11" lengthAdjust="spacing" text-decoration="underline" textLength="150" x="29" y="66.0151">UNITS : Map&lt;string, Unit&gt;</text><polygon fill="none" points="20,70.6094,24,74.6094,20,78.6094,16,74.6094" style="stroke:#B38D22;stroke-width:1.0;"/><text fill="#000000" font-family="sans-serif" font-size="11" lengthAdjust="spacing" text-decoration="underline" textLength="197" x="29" y="78.8198">UNIT_BASES : Map&lt;string, string&gt;</text><line style="stroke:#A80036;stroke-width:1.5;" x1="10" x2="417" y1="85.4141" y2="85.4141"/><ellipse cx="20" cy="96.4141" fill="#84BE84" rx="3" ry="3" style="stroke:#038048;stroke-width:1.0;"/><text fill="#000000" font-family="sans-serif" font-size="11" lengthAdjust="spacing" textLength="256" x="29" y="99.6245">convert&lt;T&gt;(value: T, target: string | Unit) : T</text><ellipse cx="20" cy="109.2188" fill="#84BE84" rx="3" ry="3" style="stroke:#038048;stroke-width:1.0;"/><text fill="#000000" font-family="sans-serif" font-size="11" lengthAdjust="spacing" text-decoration="underline" textLength="343" x="29" y="112.4292">convert&lt;T&gt;(value: T, from: string | Unit, to: string | Unit) : T</text><ellipse cx="20" cy="122.0234" fill="#84BE84" rx="3" ry="3" style="stroke:#038048;stroke-width:1.0;"/><text fill="#000000" font-family="sans-serif" font-size="11" lengthAdjust="spacing" textLength="326" x="29" y="125.2339">createBaseDefinition() : UnitFunctionDefinition&lt;any, any&gt;</text><ellipse cx="20" cy="134.8281" fill="#84BE84" rx="3" ry="3" style="stroke:#038048;stroke-width:1.0;"/><text fill="#000000" font-family="sans-serif" font-size="11" lengthAdjust="spacing" textLength="383" x="29" y="138.0386">createDefinition(targetUnit: Unit) : UnitFunctionDefinition&lt;any, any&gt;</text><ellipse cx="20" cy="147.6328" fill="#84BE84" rx="3" ry="3" style="stroke:#038048;stroke-width:1.0;"/><text fill="#000000" font-family="sans-serif" font-size="11" lengthAdjust="spacing" text-decoration="underline" textLength="293" x="29" y="150.8433">findByName(name: string, baseName: string) : Unit</text><ellipse cx="20" cy="160.4375" fill="#84BE84" rx="3" ry="3" style="stroke:#038048;stroke-width:1.0;"/><text fill="#000000" font-family="sans-serif" font-size="11" lengthAdjust="spacing" text-decoration="underline" textLength="159" x="29" y="163.6479">fromJSON&lt;T&gt;(json: any) : T</text><ellipse cx="20" cy="173.2422" fill="#84BE84" rx="3" ry="3" style="stroke:#038048;stroke-width:1.0;"/><text fill="#000000" font-family="sans-serif" font-size="11" lengthAdjust="spacing" text-decoration="underline" textLength="268" x="29" y="176.4526">registerUnit(unit: Unit, override: boolean) : Unit</text><ellipse cx="20" cy="186.0469" fill="#84BE84" rx="3" ry="3" style="stroke:#038048;stroke-width:1.0;"/><text fill="#000000" font-family="sans-serif" font-size="11" lengthAdjust="spacing" textLength="185" x="29" y="189.2573">specifier(prefix: UnitPrefix) : Unit</text><polygon fill="#FFFF44" points="20,193.8516,24,197.8516,20,201.8516,16,197.8516" style="stroke:#B38D22;stroke-width:1.0;"/><text fill="#000000" font-family="sans-serif" font-size="11" lengthAdjust="spacing" textLength="183" x="29" y="202.062">findByName(name: string) : Unit</text><!--MD5=[679b27b3dc7a936d44b729a13b284c2c]
reverse link Unit to LuminanceIntensityUnit--><path codeLine="33" d="M213.5,229.51 C213.5,242.58 213.5,255.81 213.5,268.69 " fill="none" id="Unit-backto-LuminanceIntensityUnit" style="stroke:#A80036;stroke-width:1.0;"/><polygon fill="none" points="206.5,229.18,213.5,209.18,220.5,229.18,206.5,229.18" style="stroke:#A80036;stroke-width:1.0;"/><!--MD5=[e47d6e9eb33464b84d72c8e2838eca82]
@startuml
skinparam BackgroundColor transparent
hide empty methods
hide empty fields
class "LuminanceIntensityUnit" {
    {static} +CANDELA : LuminanceIntensityUnit
    {static} +UNKNOWN : Unit
    {static} #UNITS : Map<string, Unit>
    {static} #UNIT_BASES : Map<string, string>
    +convert<T>(value: T, target: string | Unit) : T
    {static} +convert<T>(value: T, from: string | Unit, to: string | Unit) : T
    +createBaseDefinition() : UnitFunctionDefinition<any, any>
    +createDefinition(targetUnit: Unit) : UnitFunctionDefinition<any, any>
    {static} +findByName(name: string, baseName: string) : Unit
    {static} +fromJSON<T>(json: any) : T
    {static} +registerUnit(unit: Unit, override: boolean) : Unit
    +specifier(prefix: UnitPrefix) : LuminanceIntensityUnit
    #findByName(name: string) : Unit
}
class "Unit" {
    {static} +UNKNOWN : Unit
    {static} #UNITS : Map<string, Unit>
    {static} #UNIT_BASES : Map<string, string>
    +convert<T>(value: T, target: string | Unit) : T
    {static} +convert<T>(value: T, from: string | Unit, to: string | Unit) : T
    +createBaseDefinition() : UnitFunctionDefinition<any, any>
    +createDefinition(targetUnit: Unit) : UnitFunctionDefinition<any, any>
    {static} +findByName(name: string, baseName: string) : Unit
    {static} +fromJSON<T>(json: any) : T
    {static} +registerUnit(unit: Unit, override: boolean) : Unit
    +specifier(prefix: UnitPrefix) : Unit
    #findByName(name: string) : Unit
}
"Unit" <|- - "LuminanceIntensityUnit"
@enduml

PlantUML version 1.2021.14(Fri Nov 12 16:46:50 UTC 2021)
(GPL source distribution)
Java Runtime: OpenJDK Runtime Environment
JVM: OpenJDK 64-Bit Server VM
Default Encoding: UTF-8
Language: en
Country: null
--></g></svg>