<?xml version="1.0" encoding="UTF-8" standalone="no"?><svg xmlns="http://www.w3.org/2000/svg" xmlns:xlink="http://www.w3.org/1999/xlink" contentScriptType="application/ecmascript" contentStyleType="text/css" height="145px" preserveAspectRatio="none" style="width:145px;height:145px;background:#00000000;" version="1.1" viewBox="0 0 145 145" width="145px" zoomAndPan="magnify"><defs><filter height="300%" id="fwhlvcf04laty" width="300%" x="-1" y="-1"><feGaussianBlur result="blurOut" stdDeviation="2.0"/><feColorMatrix in="blurOut" result="blurOut2" type="matrix" values="0 0 0 0 0 0 0 0 0 0 0 0 0 0 0 0 0 0 .4 0"/><feOffset dx="4.0" dy="4.0" in="blurOut2" result="blurOut3"/><feBlend in="SourceGraphic" in2="blurOut3" mode="normal"/></filter></defs><g><!--MD5=[18e8e937faaa1e872583bf326547b3d5]
class LuminanceUnit--><rect codeLine="4" fill="#FEFECE" filter="url(#fwhlvcf04laty)" height="32" id="LuminanceUnit" style="stroke:#A80036;stroke-width:1.5;" width="124" x="7" y="99"/><ellipse cx="22" cy="115" fill="#ADD1B2" rx="11" ry="11" style="stroke:#A80036;stroke-width:1.0;"/><path d="M24.9688,120.6406 Q24.3906,120.9375 23.75,121.0781 Q23.1094,121.2344 22.4063,121.2344 Q19.9063,121.2344 18.5781,119.5938 Q17.2656,117.9375 17.2656,114.8125 Q17.2656,111.6875 18.5781,110.0313 Q19.9063,108.375 22.4063,108.375 Q23.1094,108.375 23.75,108.5313 Q24.4063,108.6875 24.9688,108.9844 L24.9688,111.7031 Q24.3438,111.125 23.75,110.8594 Q23.1563,110.5781 22.5313,110.5781 Q21.1875,110.5781 20.5,111.6563 Q19.8125,112.7188 19.8125,114.8125 Q19.8125,116.9063 20.5,117.9844 Q21.1875,119.0469 22.5313,119.0469 Q23.1563,119.0469 23.75,118.7813 Q24.3438,118.5 24.9688,117.9219 L24.9688,120.6406 Z " fill="#000000"/><text fill="#000000" font-family="sans-serif" font-size="12" lengthAdjust="spacing" textLength="92" x="36" y="119.1543">LuminanceUnit</text><!--MD5=[63a373d2559db13dd8cc7d36e037ebb1]
class Unit--><rect codeLine="6" fill="#FEFECE" filter="url(#fwhlvcf04laty)" height="32" id="Unit" style="stroke:#A80036;stroke-width:1.5;" width="57" x="40.5" y="7"/><ellipse cx="55.5" cy="23" fill="#ADD1B2" rx="11" ry="11" style="stroke:#A80036;stroke-width:1.0;"/><path d="M58.4688,28.6406 Q57.8906,28.9375 57.25,29.0781 Q56.6094,29.2344 55.9063,29.2344 Q53.4063,29.2344 52.0781,27.5938 Q50.7656,25.9375 50.7656,22.8125 Q50.7656,19.6875 52.0781,18.0313 Q53.4063,16.375 55.9063,16.375 Q56.6094,16.375 57.25,16.5313 Q57.9063,16.6875 58.4688,16.9844 L58.4688,19.7031 Q57.8438,19.125 57.25,18.8594 Q56.6563,18.5781 56.0313,18.5781 Q54.6875,18.5781 54,19.6563 Q53.3125,20.7188 53.3125,22.8125 Q53.3125,24.9063 54,25.9844 Q54.6875,27.0469 56.0313,27.0469 Q56.6563,27.0469 57.25,26.7813 Q57.8438,26.5 58.4688,25.9219 L58.4688,28.6406 Z " fill="#000000"/><text fill="#000000" font-family="sans-serif" font-size="12" lengthAdjust="spacing" textLength="25" x="69.5" y="27.1543">Unit</text><!--MD5=[bcf3555b25512da9e0b6c80ae2df972b]
reverse link Unit to LuminanceUnit--><path codeLine="8" d="M69,59.61 C69,73.31 69,88.22 69,98.96 " fill="none" id="Unit-backto-LuminanceUnit" style="stroke:#A80036;stroke-width:1.0;"/><polygon fill="none" points="62,59.27,69,39.27,76,59.27,62,59.27" style="stroke:#A80036;stroke-width:1.0;"/><!--MD5=[e40e09e6f67589aabcdf7c72bd2580e1]
@startuml
skinparam BackgroundColor transparent
hide empty methods
hide empty fields
class "LuminanceUnit" {
}
class "Unit" {
}
"Unit" <|- - "LuminanceUnit"
@enduml

PlantUML version 1.2021.14(Fri Nov 12 16:46:50 UTC 2021)
(GPL source distribution)
Java Runtime: OpenJDK Runtime Environment
JVM: OpenJDK 64-Bit Server VM
Default Encoding: UTF-8
Language: en
Country: null
--></g></svg>