<?xml version="1.0" encoding="UTF-8" standalone="no"?><svg xmlns="http://www.w3.org/2000/svg" xmlns:xlink="http://www.w3.org/1999/xlink" contentScriptType="application/ecmascript" contentStyleType="text/css" height="145px" preserveAspectRatio="none" style="width:365px;height:145px;background:#00000000;" version="1.1" viewBox="0 0 365 145" width="365px" zoomAndPan="magnify"><defs><filter height="300%" id="f1h57yi1woqhoi" width="300%" x="-1" y="-1"><feGaussianBlur result="blurOut" stdDeviation="2.0"/><feColorMatrix in="blurOut" result="blurOut2" type="matrix" values="0 0 0 0 0 0 0 0 0 0 0 0 0 0 0 0 0 0 .4 0"/><feOffset dx="4.0" dy="4.0" in="blurOut2" result="blurOut3"/><feBlend in="SourceGraphic" in2="blurOut3" mode="normal"/></filter></defs><g><!--MD5=[7a092083ef05475327a6ade1ddb6357e]
class Magnetometer--><rect codeLine="4" fill="#FEFECE" filter="url(#f1h57yi1woqhoi)" height="32" id="Magnetometer" style="stroke:#A80036;stroke-width:1.5;" width="124" x="117" y="99"/><ellipse cx="132" cy="115" fill="#ADD1B2" rx="11" ry="11" style="stroke:#A80036;stroke-width:1.0;"/><path d="M134.9688,120.6406 Q134.3906,120.9375 133.75,121.0781 Q133.1094,121.2344 132.4063,121.2344 Q129.9063,121.2344 128.5781,119.5938 Q127.2656,117.9375 127.2656,114.8125 Q127.2656,111.6875 128.5781,110.0313 Q129.9063,108.375 132.4063,108.375 Q133.1094,108.375 133.75,108.5313 Q134.4063,108.6875 134.9688,108.9844 L134.9688,111.7031 Q134.3438,111.125 133.75,110.8594 Q133.1563,110.5781 132.5313,110.5781 Q131.1875,110.5781 130.5,111.6563 Q129.8125,112.7188 129.8125,114.8125 Q129.8125,116.9063 130.5,117.9844 Q131.1875,119.0469 132.5313,119.0469 Q133.1563,119.0469 133.75,118.7813 Q134.3438,118.5 134.9688,117.9219 L134.9688,120.6406 Z " fill="#000000"/><text fill="#000000" font-family="sans-serif" font-size="12" lengthAdjust="spacing" textLength="92" x="146" y="119.1543">Magnetometer</text><!--MD5=[810fa426577d1912bf0a96e96afd18b5]
class SensorObject<SensorValue | Object | Orientation>--><rect codeLine="6" fill="#FEFECE" filter="url(#f1h57yi1woqhoi)" height="32" id="SensorObject&lt;SensorValue | Object | Orientation&gt;" style="stroke:#A80036;stroke-width:1.5;" width="344" x="7" y="7"/><ellipse cx="22" cy="23" fill="#A9DCDF" rx="11" ry="11" style="stroke:#A80036;stroke-width:1.0;"/><path d="M22.1094,18.3438 L20.9531,23.4219 L23.2813,23.4219 L22.1094,18.3438 Z M20.625,16.1094 L23.6094,16.1094 L26.9688,28.5 L24.5156,28.5 L23.75,25.4375 L20.4688,25.4375 L19.7188,28.5 L17.2813,28.5 L20.625,16.1094 Z " fill="#000000"/><text fill="#000000" font-family="sans-serif" font-size="12" font-style="italic" lengthAdjust="spacing" textLength="312" x="36" y="27.1543">SensorObject&lt;SensorValue | Object | Orientation&gt;</text><!--MD5=[11734759314170e7673d30dcafb9ef72]
reverse link SensorObject<SensorValue | Object | Orientation> to Magnetometer--><path codeLine="8" d="M179,59.61 C179,73.31 179,88.22 179,98.96 " fill="none" id="SensorObject&lt;SensorValue | Object | Orientation&gt;-backto-Magnetometer" style="stroke:#A80036;stroke-width:1.0;"/><polygon fill="none" points="172,59.27,179,39.27,186,59.27,172,59.27" style="stroke:#A80036;stroke-width:1.0;"/><!--MD5=[6c80ffb28d27712c005fdb056676f39b]
@startuml
skinparam BackgroundColor transparent
hide empty methods
hide empty fields
class "Magnetometer" {
}
abstract class "SensorObject<SensorValue | Object | Orientation>" {
}
"SensorObject<SensorValue | Object | Orientation>" <|- - "Magnetometer"
@enduml

PlantUML version 1.2021.14(Fri Nov 12 16:46:50 UTC 2021)
(GPL source distribution)
Java Runtime: OpenJDK Runtime Environment
JVM: OpenJDK 64-Bit Server VM
Default Encoding: UTF-8
Language: en
Country: null
--></g></svg>