<?xml version="1.0" encoding="us-ascii" standalone="no"?><svg xmlns="http://www.w3.org/2000/svg" xmlns:xlink="http://www.w3.org/1999/xlink" contentStyleType="text/css" height="138px" preserveAspectRatio="none" style="width:184px;height:138px;" version="1.1" viewBox="0 0 184 138" width="184px" zoomAndPan="magnify"><defs/><g><!--class Magnetism--><g id="elem_Magnetism"><rect codeLine="4" fill="#F1F1F1" height="32" id="Magnetism" rx="2.5" ry="2.5" style="stroke:#181818;stroke-width:0.5;" width="108" x="38" y="99"/><ellipse cx="53" cy="115" fill="#ADD1B2" rx="11" ry="11" style="stroke:#181818;stroke-width:1.0;"/><path d="M55.9688,120.6406 Q55.3906,120.9375 54.75,121.0781 Q54.1094,121.2344 53.4063,121.2344 Q50.9063,121.2344 49.5781,119.5938 Q48.2656,117.9375 48.2656,114.8125 Q48.2656,111.6875 49.5781,110.0313 Q50.9063,108.375 53.4063,108.375 Q54.1094,108.375 54.75,108.5313 Q55.4063,108.6875 55.9688,108.9844 L55.9688,111.7031 Q55.3438,111.125 54.75,110.8594 Q54.1563,110.5781 53.5313,110.5781 Q52.1875,110.5781 51.5,111.6563 Q50.8125,112.7188 50.8125,114.8125 Q50.8125,116.9063 51.5,117.9844 Q52.1875,119.0469 53.5313,119.0469 Q54.1563,119.0469 54.75,118.7813 Q55.3438,118.5 55.9688,117.9219 L55.9688,120.6406 Z " fill="#000000"/><text fill="#000000" font-family="sans-serif" font-size="14" lengthAdjust="spacing" textLength="76" x="67" y="119.8467">Magnetism</text></g><!--class SensorValue<Unit>--><g id="elem_SensorValue&lt;Unit&gt;"><rect codeLine="6" fill="#F1F1F1" height="32" id="SensorValue&lt;Unit&gt;" rx="2.5" ry="2.5" style="stroke:#181818;stroke-width:0.5;" width="170" x="7" y="7"/><ellipse cx="22" cy="23" fill="#ADD1B2" rx="11" ry="11" style="stroke:#181818;stroke-width:1.0;"/><path d="M24.9688,28.6406 Q24.3906,28.9375 23.75,29.0781 Q23.1094,29.2344 22.4063,29.2344 Q19.9063,29.2344 18.5781,27.5938 Q17.2656,25.9375 17.2656,22.8125 Q17.2656,19.6875 18.5781,18.0313 Q19.9063,16.375 22.4063,16.375 Q23.1094,16.375 23.75,16.5313 Q24.4063,16.6875 24.9688,16.9844 L24.9688,19.7031 Q24.3438,19.125 23.75,18.8594 Q23.1563,18.5781 22.5313,18.5781 Q21.1875,18.5781 20.5,19.6563 Q19.8125,20.7188 19.8125,22.8125 Q19.8125,24.9063 20.5,25.9844 Q21.1875,27.0469 22.5313,27.0469 Q23.1563,27.0469 23.75,26.7813 Q24.3438,26.5 24.9688,25.9219 L24.9688,28.6406 Z " fill="#000000"/><text fill="#000000" font-family="sans-serif" font-size="14" lengthAdjust="spacing" textLength="138" x="36" y="27.8467">SensorValue&lt;Unit&gt;</text></g><!--reverse link SensorValue<Unit> to Magnetism--><g id="link_SensorValue&lt;Unit&gt;_Magnetism"><path codeLine="8" d="M92,59.61 C92,73.31 92,88.22 92,98.96 " fill="none" id="SensorValue&lt;Unit&gt;-backto-Magnetism" style="stroke:#181818;stroke-width:1.0;"/><polygon fill="none" points="85,59.27,92,39.27,99,59.27,85,59.27" style="stroke:#181818;stroke-width:1.0;"/></g><!--SRC=[RSon2eDG343HtQy8xlw1EDYvKwbxyAKQV2-H90xIzjyhb893rtFX-iAoec617iTbCjqaNJIhGHYA7uaagfaJ0PKrTYWKioO_quCf7p9cT8VwYfDGi9SQdjNxfpSILnimRzJUXQFxrd_UlfhclFa0]--></g></svg>