<?xml version="1.0" encoding="UTF-8" standalone="no"?><svg xmlns="http://www.w3.org/2000/svg" xmlns:xlink="http://www.w3.org/1999/xlink" contentScriptType="application/ecmascript" contentStyleType="text/css" height="145px" preserveAspectRatio="none" style="width:222px;height:145px;background:#00000000;" version="1.1" viewBox="0 0 222 145" width="222px" zoomAndPan="magnify"><defs><filter height="300%" id="fw6hm25u5wd1u" width="300%" x="-1" y="-1"><feGaussianBlur result="blurOut" stdDeviation="2.0"/><feColorMatrix in="blurOut" result="blurOut2" type="matrix" values="0 0 0 0 0 0 0 0 0 0 0 0 0 0 0 0 0 0 .4 0"/><feOffset dx="4.0" dy="4.0" in="blurOut2" result="blurOut3"/><feBlend in="SourceGraphic" in2="blurOut3" mode="normal"/></filter></defs><g><!--MD5=[7a092083ef05475327a6ade1ddb6357e]
class Magnetometer--><rect codeLine="4" fill="#FEFECE" filter="url(#fw6hm25u5wd1u)" height="32" id="Magnetometer" style="stroke:#A80036;stroke-width:1.5;" width="124" x="45.5" y="99"/><ellipse cx="60.5" cy="115" fill="#ADD1B2" rx="11" ry="11" style="stroke:#A80036;stroke-width:1.0;"/><path d="M63.4688,120.6406 Q62.8906,120.9375 62.25,121.0781 Q61.6094,121.2344 60.9063,121.2344 Q58.4063,121.2344 57.0781,119.5938 Q55.7656,117.9375 55.7656,114.8125 Q55.7656,111.6875 57.0781,110.0313 Q58.4063,108.375 60.9063,108.375 Q61.6094,108.375 62.25,108.5313 Q62.9063,108.6875 63.4688,108.9844 L63.4688,111.7031 Q62.8438,111.125 62.25,110.8594 Q61.6563,110.5781 61.0313,110.5781 Q59.6875,110.5781 59,111.6563 Q58.3125,112.7188 58.3125,114.8125 Q58.3125,116.9063 59,117.9844 Q59.6875,119.0469 61.0313,119.0469 Q61.6563,119.0469 62.25,118.7813 Q62.8438,118.5 63.4688,117.9219 L63.4688,120.6406 Z " fill="#000000"/><text fill="#000000" font-family="sans-serif" font-size="12" lengthAdjust="spacing" textLength="92" x="74.5" y="119.1543">Magnetometer</text><!--MD5=[38f6b0712440a8206696997b50f4ac2e]
class SensorObject<Magnetism>--><rect codeLine="6" fill="#FEFECE" filter="url(#fw6hm25u5wd1u)" height="32" id="SensorObject&lt;Magnetism&gt;" style="stroke:#A80036;stroke-width:1.5;" width="201" x="7" y="7"/><ellipse cx="22" cy="23" fill="#A9DCDF" rx="11" ry="11" style="stroke:#A80036;stroke-width:1.0;"/><path d="M22.1094,18.3438 L20.9531,23.4219 L23.2813,23.4219 L22.1094,18.3438 Z M20.625,16.1094 L23.6094,16.1094 L26.9688,28.5 L24.5156,28.5 L23.75,25.4375 L20.4688,25.4375 L19.7188,28.5 L17.2813,28.5 L20.625,16.1094 Z " fill="#000000"/><text fill="#000000" font-family="sans-serif" font-size="12" font-style="italic" lengthAdjust="spacing" textLength="169" x="36" y="27.1543">SensorObject&lt;Magnetism&gt;</text><!--MD5=[aff22b01f2acd89b4a684eaba48f1fe9]
reverse link SensorObject<Magnetism> to Magnetometer--><path codeLine="8" d="M107.5,59.61 C107.5,73.31 107.5,88.22 107.5,98.96 " fill="none" id="SensorObject&lt;Magnetism&gt;-backto-Magnetometer" style="stroke:#A80036;stroke-width:1.0;"/><polygon fill="none" points="100.5,59.27,107.5,39.27,114.5,59.27,100.5,59.27" style="stroke:#A80036;stroke-width:1.0;"/><!--MD5=[6ea031c0246d88db72a7d9c2bb85e315]
@startuml
skinparam BackgroundColor transparent
hide empty methods
hide empty fields
class "Magnetometer" {
}
abstract class "SensorObject<Magnetism>" {
}
"SensorObject<Magnetism>" <|- - "Magnetometer"
@enduml

PlantUML version 1.2021.14(Fri Nov 12 16:46:50 UTC 2021)
(GPL source distribution)
Java Runtime: OpenJDK Runtime Environment
JVM: OpenJDK 64-Bit Server VM
Default Encoding: UTF-8
Language: en
Country: null
--></g></svg>