<?xml version="1.0" encoding="us-ascii" standalone="no"?><svg xmlns="http://www.w3.org/2000/svg" xmlns:xlink="http://www.w3.org/1999/xlink" contentStyleType="text/css" height="138px" preserveAspectRatio="none" style="width:238px;height:138px;" version="1.1" viewBox="0 0 238 138" width="238px" zoomAndPan="magnify"><defs/><g><!--class Magnetometer--><g id="elem_Magnetometer"><rect codeLine="4" fill="#F1F1F1" height="32" id="Magnetometer" rx="2.5" ry="2.5" style="stroke:#181818;stroke-width:0.5;" width="134" x="52" y="99"/><ellipse cx="67" cy="115" fill="#ADD1B2" rx="11" ry="11" style="stroke:#181818;stroke-width:1.0;"/><path d="M69.9688,120.6406 Q69.3906,120.9375 68.75,121.0781 Q68.1094,121.2344 67.4063,121.2344 Q64.9063,121.2344 63.5781,119.5938 Q62.2656,117.9375 62.2656,114.8125 Q62.2656,111.6875 63.5781,110.0313 Q64.9063,108.375 67.4063,108.375 Q68.1094,108.375 68.75,108.5313 Q69.4063,108.6875 69.9688,108.9844 L69.9688,111.7031 Q69.3438,111.125 68.75,110.8594 Q68.1563,110.5781 67.5313,110.5781 Q66.1875,110.5781 65.5,111.6563 Q64.8125,112.7188 64.8125,114.8125 Q64.8125,116.9063 65.5,117.9844 Q66.1875,119.0469 67.5313,119.0469 Q68.1563,119.0469 68.75,118.7813 Q69.3438,118.5 69.9688,117.9219 L69.9688,120.6406 Z " fill="#000000"/><text fill="#000000" font-family="sans-serif" font-size="14" lengthAdjust="spacing" textLength="102" x="81" y="119.8467">Magnetometer</text></g><!--class SensorObject<Magnetism>--><g id="elem_SensorObject&lt;Magnetism&gt;"><rect codeLine="6" fill="#F1F1F1" height="32" id="SensorObject&lt;Magnetism&gt;" rx="2.5" ry="2.5" style="stroke:#181818;stroke-width:0.5;" width="224" x="7" y="7"/><ellipse cx="22" cy="23" fill="#A9DCDF" rx="11" ry="11" style="stroke:#181818;stroke-width:1.0;"/><path d="M22.1094,18.3438 L20.9531,23.4219 L23.2813,23.4219 L22.1094,18.3438 Z M20.625,16.1094 L23.6094,16.1094 L26.9688,28.5 L24.5156,28.5 L23.75,25.4375 L20.4688,25.4375 L19.7188,28.5 L17.2813,28.5 L20.625,16.1094 Z " fill="#000000"/><text fill="#000000" font-family="sans-serif" font-size="14" font-style="italic" lengthAdjust="spacing" textLength="192" x="36" y="27.8467">SensorObject&lt;Magnetism&gt;</text></g><!--reverse link SensorObject<Magnetism> to Magnetometer--><g id="link_SensorObject&lt;Magnetism&gt;_Magnetometer"><path codeLine="8" d="M119,59.61 C119,73.31 119,88.22 119,98.96 " fill="none" id="SensorObject&lt;Magnetism&gt;-backto-Magnetometer" style="stroke:#181818;stroke-width:1.0;"/><polygon fill="none" points="112,59.27,119,39.27,126,59.27,112,59.27" style="stroke:#181818;stroke-width:1.0;"/></g><!--SRC=[TOmn3i8m303tlCBgtXzK330Z1bxW9gODJUpADWC2_awaCY0arhlJsP9vHSKAUupBf7BZT90Y2gx8rXInXpad0gghtw6IpvBi6rqobKPYGJFeZZWnkRIEj8D7U0KShSsYmwSu4vleQRnIz67BizNT5l-tmxFlV_Pl]--></g></svg>