<?xml version="1.0" encoding="UTF-8" standalone="no"?><svg xmlns="http://www.w3.org/2000/svg" xmlns:xlink="http://www.w3.org/1999/xlink" contentScriptType="application/ecmascript" contentStyleType="text/css" height="147px" preserveAspectRatio="none" style="width:106px;height:147px;background:#00000000;" version="1.1" viewBox="0 0 106 147" width="106px" zoomAndPan="magnify"><defs><filter height="300%" id="f1wjynm7e06p8l" width="300%" x="-1" y="-1"><feGaussianBlur result="blurOut" stdDeviation="2.0"/><feColorMatrix in="blurOut" result="blurOut2" type="matrix" values="0 0 0 0 0 0 0 0 0 0 0 0 0 0 0 0 0 0 .4 0"/><feOffset dx="4.0" dy="4.0" in="blurOut2" result="blurOut3"/><feBlend in="SourceGraphic" in2="blurOut3" mode="normal"/></filter></defs><g><!--MD5=[c9d57e72579f5036e9f78a0f4b71b326]
class Matrix4--><rect codeLine="6" fill="#FEFECE" filter="url(#f1wjynm7e06p8l)" height="23.9688" id="Matrix4" style="stroke:#A80036;stroke-width:1.5;" width="51" x="13" y="17.27"/><text fill="#000000" font-family="sans-serif" font-size="12" lengthAdjust="spacing" textLength="45" x="16" y="33.4087">Matrix4</text><!--MD5=[b9d2ae19c81790848eb39c80825341ca]
class Pose--><rect codeLine="9" fill="#FEFECE" filter="url(#f1wjynm7e06p8l)" height="32" id="Pose" style="stroke:#A80036;stroke-width:1.5;" width="63" x="7" y="101.27"/><ellipse cx="22" cy="117.27" fill="#ADD1B2" rx="11" ry="11" style="stroke:#A80036;stroke-width:1.0;"/><path d="M24.9688,122.9106 Q24.3906,123.2075 23.75,123.3481 Q23.1094,123.5044 22.4063,123.5044 Q19.9063,123.5044 18.5781,121.8638 Q17.2656,120.2075 17.2656,117.0825 Q17.2656,113.9575 18.5781,112.3013 Q19.9063,110.645 22.4063,110.645 Q23.1094,110.645 23.75,110.8013 Q24.4063,110.9575 24.9688,111.2544 L24.9688,113.9731 Q24.3438,113.395 23.75,113.1294 Q23.1563,112.8481 22.5313,112.8481 Q21.1875,112.8481 20.5,113.9263 Q19.8125,114.9888 19.8125,117.0825 Q19.8125,119.1763 20.5,120.2544 Q21.1875,121.3169 22.5313,121.3169 Q23.1563,121.3169 23.75,121.0513 Q24.3438,120.77 24.9688,120.1919 L24.9688,122.9106 Z " fill="#000000"/><text fill="#000000" font-family="sans-serif" font-size="12" lengthAdjust="spacing" textLength="31" x="36" y="121.4243">Pose</text><!--MD5=[3ec86e7a447b10a9a07ef9e4df0c477f]
reverse link Matrix4 to Matrix4--><path codeLine="8" d="M75.62,12.78 C88.54,12.57 99,18.07 99,29.27 C99,45.94 75.84,49.98 55.84,41.38 " fill="none" id="Matrix4-backto-Matrix4" style="stroke:#A80036;stroke-width:1.0;"/><polygon fill="none" points="76.88,19.67,55.84,17.16,73.85,6,76.88,19.67" style="stroke:#A80036;stroke-width:1.0;"/><!--MD5=[df8658dda3566f76ea43a62863447678]
reverse link Matrix4 to Pose--><path codeLine="11" d="M38.5,61.66 C38.5,75.18 38.5,90.35 38.5,101.27 " fill="none" id="Matrix4-backto-Pose" style="stroke:#A80036;stroke-width:1.0;"/><polygon fill="none" points="31.5,61.51,38.5,41.51,45.5,61.51,31.5,61.51" style="stroke:#A80036;stroke-width:1.0;"/><!--MD5=[42004cda255d2d9ced59c190c3824330]
@startuml
skinparam BackgroundColor transparent
hide empty methods
hide empty fields
class "Matrix4" {
}
class "Matrix4"
hide "Matrix4" circle
"Matrix4" <|- - "Matrix4"
class "Pose" {
}
"Matrix4" <|- - "Pose"
@enduml

PlantUML version 1.2021.14(Fri Nov 12 16:46:50 UTC 2021)
(GPL source distribution)
Java Runtime: OpenJDK Runtime Environment
JVM: OpenJDK 64-Bit Server VM
Default Encoding: UTF-8
Language: en
Country: null
--></g></svg>