<?xml version="1.0" encoding="us-ascii" standalone="no"?><svg xmlns="http://www.w3.org/2000/svg" xmlns:xlink="http://www.w3.org/1999/xlink" contentStyleType="text/css" height="141px" preserveAspectRatio="none" style="width:110px;height:141px;" version="1.1" viewBox="0 0 110 141" width="110px" zoomAndPan="magnify"><defs/><g><!--class Matrix4--><g id="elem_Matrix4"><rect codeLine="6" fill="#F1F1F1" height="26.2969" id="Matrix4" rx="2.5" ry="2.5" style="stroke:#181818;stroke-width:0.5;" width="55" x="13" y="16.35"/><text fill="#000000" font-family="sans-serif" font-size="14" lengthAdjust="spacing" textLength="49" x="16" y="34.3451">Matrix4</text></g><!--class Pose--><g id="elem_Pose"><rect codeLine="9" fill="#F1F1F1" height="32" id="Pose" rx="2.5" ry="2.5" style="stroke:#181818;stroke-width:0.5;" width="67" x="7" y="102.35"/><ellipse cx="22" cy="118.35" fill="#ADD1B2" rx="11" ry="11" style="stroke:#181818;stroke-width:1.0;"/><path d="M24.9688,123.9906 Q24.3906,124.2875 23.75,124.4281 Q23.1094,124.5844 22.4063,124.5844 Q19.9063,124.5844 18.5781,122.9438 Q17.2656,121.2875 17.2656,118.1625 Q17.2656,115.0375 18.5781,113.3813 Q19.9063,111.725 22.4063,111.725 Q23.1094,111.725 23.75,111.8813 Q24.4063,112.0375 24.9688,112.3344 L24.9688,115.0531 Q24.3438,114.475 23.75,114.2094 Q23.1563,113.9281 22.5313,113.9281 Q21.1875,113.9281 20.5,115.0063 Q19.8125,116.0688 19.8125,118.1625 Q19.8125,120.2563 20.5,121.3344 Q21.1875,122.3969 22.5313,122.3969 Q23.1563,122.3969 23.75,122.1313 Q24.3438,121.85 24.9688,121.2719 L24.9688,123.9906 Z " fill="#000000"/><text fill="#000000" font-family="sans-serif" font-size="14" lengthAdjust="spacing" textLength="35" x="36" y="123.1967">Pose</text></g><!--reverse link Matrix4 to Matrix4--><g id="link_Matrix4_Matrix4"><path codeLine="8" d="M80.92,12.87 C93.3,13.24 103,18.74 103,29.35 C103,45.33 81,49.71 60.99,42.46 " fill="none" id="Matrix4-backto-Matrix4" style="stroke:#181818;stroke-width:1.0;"/><polygon fill="none" points="81.87,19.81,60.99,16.24,79.54,6,81.87,19.81" style="stroke:#181818;stroke-width:1.0;"/></g><!--reverse link Matrix4 to Pose--><g id="link_Matrix4_Pose"><path codeLine="11" d="M40.5,62.72 C40.5,76.23 40.5,91.27 40.5,102.14 " fill="none" id="Matrix4-backto-Pose" style="stroke:#181818;stroke-width:1.0;"/><polygon fill="none" points="33.5,62.45,40.5,42.45,47.5,62.45,33.5,62.45" style="stroke:#181818;stroke-width:1.0;"/></g><!--SRC=[NOmn3i8m34NtdCBgtesH2UPAlOAL66erYIlRI23AtQaeKgkkxx_tRUGweMA12yRnhlAewIfP55onsZ9HzJ1m8g0o-GiA-I39zkZ6b1SICvf1qw4hFqyDlCFdoDPgKo9hp1GsS9xRTgV_yrwCrh-Z-Lk-]--></g></svg>