<?xml version="1.0" encoding="UTF-8" standalone="no"?><svg xmlns="http://www.w3.org/2000/svg" xmlns:xlink="http://www.w3.org/1999/xlink" contentScriptType="application/ecmascript" contentStyleType="text/css" height="463px" preserveAspectRatio="none" style="width:1003px;height:463px;background:#00000000;" version="1.1" viewBox="0 0 1003 463" width="1003px" zoomAndPan="magnify"><defs><filter height="300%" id="f81qgwbrbhuq4" width="300%" x="-1" y="-1"><feGaussianBlur result="blurOut" stdDeviation="2.0"/><feColorMatrix in="blurOut" result="blurOut2" type="matrix" values="0 0 0 0 0 0 0 0 0 0 0 0 0 0 0 0 0 0 .4 0"/><feOffset dx="4.0" dy="4.0" in="blurOut2" result="blurOut3"/><feBlend in="SourceGraphic" in2="blurOut3" mode="normal"/></filter></defs><g><!--MD5=[f627c81427830b5190d21a5c6a35de66]
class MemberOptionsBase--><rect codeLine="4" fill="#FEFECE" filter="url(#f81qgwbrbhuq4)" height="129.6328" id="MemberOptionsBase" style="stroke:#A80036;stroke-width:1.5;" width="179" x="406.5" y="91"/><ellipse cx="430.95" cy="107" fill="#B4A7E5" rx="11" ry="11" style="stroke:#A80036;stroke-width:1.0;"/><path d="M426.8719,102.7656 L426.8719,100.6094 L434.2625,100.6094 L434.2625,102.7656 L431.7938,102.7656 L431.7938,110.8438 L434.2625,110.8438 L434.2625,113 L426.8719,113 L426.8719,110.8438 L429.3406,110.8438 L429.3406,102.7656 L426.8719,102.7656 Z " fill="#000000"/><text fill="#000000" font-family="sans-serif" font-size="12" font-style="italic" lengthAdjust="spacing" textLength="126" x="447.05" y="111.1543">MemberOptionsBase</text><line style="stroke:#A80036;stroke-width:1.5;" x1="407.5" x2="584.5" y1="123" y2="123"/><ellipse cx="417.5" cy="134" rx="3" ry="3" style="stroke:#038048;stroke-width:1.0;fill:none;"/><text fill="#000000" font-family="sans-serif" font-size="11" lengthAdjust="spacing" textLength="123" x="426.5" y="137.2104">constructor : Typelike</text><ellipse cx="417.5" cy="146.8047" rx="3" ry="3" style="stroke:#038048;stroke-width:1.0;fill:none;"/><text fill="#000000" font-family="sans-serif" font-size="11" lengthAdjust="spacing" textLength="125" x="426.5" y="150.0151">deserializer : Function</text><ellipse cx="417.5" cy="159.6094" rx="3" ry="3" style="stroke:#038048;stroke-width:1.0;fill:none;"/><text fill="#000000" font-family="sans-serif" font-size="11" lengthAdjust="spacing" textLength="153" x="426.5" y="162.8198">emitDefaultValue : boolean</text><ellipse cx="417.5" cy="172.4141" rx="3" ry="3" style="stroke:#038048;stroke-width:1.0;fill:none;"/><text fill="#000000" font-family="sans-serif" font-size="11" lengthAdjust="spacing" textLength="117" x="426.5" y="175.6245">isRequired : boolean</text><ellipse cx="417.5" cy="185.2188" rx="3" ry="3" style="stroke:#038048;stroke-width:1.0;fill:none;"/><text fill="#000000" font-family="sans-serif" font-size="11" lengthAdjust="spacing" textLength="77" x="426.5" y="188.4292">name : string</text><ellipse cx="417.5" cy="198.0234" rx="3" ry="3" style="stroke:#038048;stroke-width:1.0;fill:none;"/><text fill="#000000" font-family="sans-serif" font-size="11" lengthAdjust="spacing" textLength="129" x="426.5" y="201.2339">preserveNull : boolean</text><ellipse cx="417.5" cy="210.8281" rx="3" ry="3" style="stroke:#038048;stroke-width:1.0;fill:none;"/><text fill="#000000" font-family="sans-serif" font-size="11" lengthAdjust="spacing" textLength="111" x="426.5" y="214.0386">serializer : Function</text><!--MD5=[3e9ee27bdb7ccd981e1e9f8141a9c290]
class IJsonMemberOptions--><rect codeLine="13" fill="#FEFECE" filter="url(#f81qgwbrbhuq4)" height="23.9688" id="IJsonMemberOptions" style="stroke:#A80036;stroke-width:1.5;" width="133" x="429.5" y="7"/><text fill="#000000" font-family="sans-serif" font-size="12" lengthAdjust="spacing" textLength="127" x="432.5" y="23.1387">IJsonMemberOptions</text><!--MD5=[15176c50841b0f7b3aa98c1fc2094eb3]
class SerializableArrayMemberOptions--><rect codeLine="16" fill="#FEFECE" filter="url(#f81qgwbrbhuq4)" height="142.4375" id="SerializableArrayMemberOptions" style="stroke:#A80036;stroke-width:1.5;" width="232" x="7" y="294"/><ellipse cx="22" cy="310" fill="#B4A7E5" rx="11" ry="11" style="stroke:#A80036;stroke-width:1.0;"/><path d="M17.9219,305.7656 L17.9219,303.6094 L25.3125,303.6094 L25.3125,305.7656 L22.8438,305.7656 L22.8438,313.8438 L25.3125,313.8438 L25.3125,316 L17.9219,316 L17.9219,313.8438 L20.3906,313.8438 L20.3906,305.7656 L17.9219,305.7656 Z " fill="#000000"/><text fill="#000000" font-family="sans-serif" font-size="12" font-style="italic" lengthAdjust="spacing" textLength="200" x="36" y="314.1543">SerializableArrayMemberOptions</text><line style="stroke:#A80036;stroke-width:1.5;" x1="8" x2="238" y1="326" y2="326"/><ellipse cx="18" cy="337" rx="3" ry="3" style="stroke:#038048;stroke-width:1.0;fill:none;"/><text fill="#000000" font-family="sans-serif" font-size="11" lengthAdjust="spacing" textLength="123" x="27" y="340.2104">constructor : Typelike</text><ellipse cx="18" cy="349.8047" rx="3" ry="3" style="stroke:#038048;stroke-width:1.0;fill:none;"/><text fill="#000000" font-family="sans-serif" font-size="11" lengthAdjust="spacing" textLength="125" x="27" y="353.0151">deserializer : Function</text><ellipse cx="18" cy="362.6094" rx="3" ry="3" style="stroke:#038048;stroke-width:1.0;fill:none;"/><text fill="#000000" font-family="sans-serif" font-size="11" lengthAdjust="spacing" textLength="122" x="27" y="365.8198">dimensions : number</text><ellipse cx="18" cy="375.4141" rx="3" ry="3" style="stroke:#038048;stroke-width:1.0;fill:none;"/><text fill="#000000" font-family="sans-serif" font-size="11" lengthAdjust="spacing" textLength="153" x="27" y="378.6245">emitDefaultValue : boolean</text><ellipse cx="18" cy="388.2188" rx="3" ry="3" style="stroke:#038048;stroke-width:1.0;fill:none;"/><text fill="#000000" font-family="sans-serif" font-size="11" lengthAdjust="spacing" textLength="117" x="27" y="391.4292">isRequired : boolean</text><ellipse cx="18" cy="401.0234" rx="3" ry="3" style="stroke:#038048;stroke-width:1.0;fill:none;"/><text fill="#000000" font-family="sans-serif" font-size="11" lengthAdjust="spacing" textLength="77" x="27" y="404.2339">name : string</text><ellipse cx="18" cy="413.8281" rx="3" ry="3" style="stroke:#038048;stroke-width:1.0;fill:none;"/><text fill="#000000" font-family="sans-serif" font-size="11" lengthAdjust="spacing" textLength="129" x="27" y="417.0386">preserveNull : boolean</text><ellipse cx="18" cy="426.6328" rx="3" ry="3" style="stroke:#038048;stroke-width:1.0;fill:none;"/><text fill="#000000" font-family="sans-serif" font-size="11" lengthAdjust="spacing" textLength="111" x="27" y="429.8433">serializer : Function</text><!--MD5=[50a4a531bdd975bfe0683fb9bf772d86]
class SerializableMemberOptions--><rect codeLine="27" fill="#FEFECE" filter="url(#f81qgwbrbhuq4)" height="168.0469" id="SerializableMemberOptions" style="stroke:#A80036;stroke-width:1.5;" width="199" x="274.5" y="281"/><ellipse cx="289.5" cy="297" fill="#B4A7E5" rx="11" ry="11" style="stroke:#A80036;stroke-width:1.0;"/><path d="M285.4219,292.7656 L285.4219,290.6094 L292.8125,290.6094 L292.8125,292.7656 L290.3438,292.7656 L290.3438,300.8438 L292.8125,300.8438 L292.8125,303 L285.4219,303 L285.4219,300.8438 L287.8906,300.8438 L287.8906,292.7656 L285.4219,292.7656 Z " fill="#000000"/><text fill="#000000" font-family="sans-serif" font-size="12" font-style="italic" lengthAdjust="spacing" textLength="167" x="303.5" y="301.1543">SerializableMemberOptions</text><line style="stroke:#A80036;stroke-width:1.5;" x1="275.5" x2="472.5" y1="313" y2="313"/><ellipse cx="285.5" cy="324" rx="3" ry="3" style="stroke:#038048;stroke-width:1.0;fill:none;"/><text fill="#000000" font-family="sans-serif" font-size="11" lengthAdjust="spacing" textLength="123" x="294.5" y="327.2104">constructor : Typelike</text><ellipse cx="285.5" cy="336.8047" rx="3" ry="3" style="stroke:#038048;stroke-width:1.0;fill:none;"/><text fill="#000000" font-family="sans-serif" font-size="11" lengthAdjust="spacing" textLength="125" x="294.5" y="340.0151">deserializer : Function</text><ellipse cx="285.5" cy="349.6094" rx="3" ry="3" style="stroke:#038048;stroke-width:1.0;fill:none;"/><text fill="#000000" font-family="sans-serif" font-size="11" lengthAdjust="spacing" textLength="153" x="294.5" y="352.8198">emitDefaultValue : boolean</text><ellipse cx="285.5" cy="362.4141" rx="3" ry="3" style="stroke:#038048;stroke-width:1.0;fill:none;"/><text fill="#000000" font-family="sans-serif" font-size="11" lengthAdjust="spacing" textLength="132" x="294.5" y="365.6245">index : string | boolean</text><ellipse cx="285.5" cy="375.2188" rx="3" ry="3" style="stroke:#038048;stroke-width:1.0;fill:none;"/><text fill="#000000" font-family="sans-serif" font-size="11" lengthAdjust="spacing" textLength="117" x="294.5" y="378.4292">isRequired : boolean</text><ellipse cx="285.5" cy="388.0234" rx="3" ry="3" style="stroke:#038048;stroke-width:1.0;fill:none;"/><text fill="#000000" font-family="sans-serif" font-size="11" lengthAdjust="spacing" textLength="77" x="294.5" y="391.2339">name : string</text><ellipse cx="285.5" cy="400.8281" rx="3" ry="3" style="stroke:#038048;stroke-width:1.0;fill:none;"/><text fill="#000000" font-family="sans-serif" font-size="11" lengthAdjust="spacing" textLength="129" x="294.5" y="404.0386">preserveNull : boolean</text><ellipse cx="285.5" cy="413.6328" rx="3" ry="3" style="stroke:#038048;stroke-width:1.0;fill:none;"/><text fill="#000000" font-family="sans-serif" font-size="11" lengthAdjust="spacing" textLength="121" x="294.5" y="416.8433">primaryKey : boolean</text><ellipse cx="285.5" cy="426.4375" rx="3" ry="3" style="stroke:#038048;stroke-width:1.0;fill:none;"/><text fill="#000000" font-family="sans-serif" font-size="11" lengthAdjust="spacing" textLength="111" x="294.5" y="429.6479">serializer : Function</text><ellipse cx="285.5" cy="439.2422" rx="3" ry="3" style="stroke:#038048;stroke-width:1.0;fill:none;"/><text fill="#000000" font-family="sans-serif" font-size="11" lengthAdjust="spacing" textLength="95" x="294.5" y="442.4526">unique : boolean</text><!--MD5=[2c1de09005861cd8df4de94b5de21751]
class SerializableSetMemberOptions--><rect codeLine="40" fill="#FEFECE" filter="url(#f81qgwbrbhuq4)" height="129.6328" id="SerializableSetMemberOptions" style="stroke:#A80036;stroke-width:1.5;" width="220" x="509" y="300"/><ellipse cx="524" cy="316" fill="#B4A7E5" rx="11" ry="11" style="stroke:#A80036;stroke-width:1.0;"/><path d="M519.9219,311.7656 L519.9219,309.6094 L527.3125,309.6094 L527.3125,311.7656 L524.8438,311.7656 L524.8438,319.8438 L527.3125,319.8438 L527.3125,322 L519.9219,322 L519.9219,319.8438 L522.3906,319.8438 L522.3906,311.7656 L519.9219,311.7656 Z " fill="#000000"/><text fill="#000000" font-family="sans-serif" font-size="12" font-style="italic" lengthAdjust="spacing" textLength="188" x="538" y="320.1543">SerializableSetMemberOptions</text><line style="stroke:#A80036;stroke-width:1.5;" x1="510" x2="728" y1="332" y2="332"/><ellipse cx="520" cy="343" rx="3" ry="3" style="stroke:#038048;stroke-width:1.0;fill:none;"/><text fill="#000000" font-family="sans-serif" font-size="11" lengthAdjust="spacing" textLength="123" x="529" y="346.2104">constructor : Typelike</text><ellipse cx="520" cy="355.8047" rx="3" ry="3" style="stroke:#038048;stroke-width:1.0;fill:none;"/><text fill="#000000" font-family="sans-serif" font-size="11" lengthAdjust="spacing" textLength="125" x="529" y="359.0151">deserializer : Function</text><ellipse cx="520" cy="368.6094" rx="3" ry="3" style="stroke:#038048;stroke-width:1.0;fill:none;"/><text fill="#000000" font-family="sans-serif" font-size="11" lengthAdjust="spacing" textLength="153" x="529" y="371.8198">emitDefaultValue : boolean</text><ellipse cx="520" cy="381.4141" rx="3" ry="3" style="stroke:#038048;stroke-width:1.0;fill:none;"/><text fill="#000000" font-family="sans-serif" font-size="11" lengthAdjust="spacing" textLength="117" x="529" y="384.6245">isRequired : boolean</text><ellipse cx="520" cy="394.2188" rx="3" ry="3" style="stroke:#038048;stroke-width:1.0;fill:none;"/><text fill="#000000" font-family="sans-serif" font-size="11" lengthAdjust="spacing" textLength="77" x="529" y="397.4292">name : string</text><ellipse cx="520" cy="407.0234" rx="3" ry="3" style="stroke:#038048;stroke-width:1.0;fill:none;"/><text fill="#000000" font-family="sans-serif" font-size="11" lengthAdjust="spacing" textLength="129" x="529" y="410.2339">preserveNull : boolean</text><ellipse cx="520" cy="419.8281" rx="3" ry="3" style="stroke:#038048;stroke-width:1.0;fill:none;"/><text fill="#000000" font-family="sans-serif" font-size="11" lengthAdjust="spacing" textLength="111" x="529" y="423.0386">serializer : Function</text><!--MD5=[4b0ad9c60814c904e6f8592720812c13]
class SerializableMapMemberOptions--><rect codeLine="50" fill="#FEFECE" filter="url(#f81qgwbrbhuq4)" height="142.4375" id="SerializableMapMemberOptions" style="stroke:#A80036;stroke-width:1.5;" width="225" x="764.5" y="294"/><ellipse cx="779.5" cy="310" fill="#B4A7E5" rx="11" ry="11" style="stroke:#A80036;stroke-width:1.0;"/><path d="M775.4219,305.7656 L775.4219,303.6094 L782.8125,303.6094 L782.8125,305.7656 L780.3438,305.7656 L780.3438,313.8438 L782.8125,313.8438 L782.8125,316 L775.4219,316 L775.4219,313.8438 L777.8906,313.8438 L777.8906,305.7656 L775.4219,305.7656 Z " fill="#000000"/><text fill="#000000" font-family="sans-serif" font-size="12" font-style="italic" lengthAdjust="spacing" textLength="193" x="793.5" y="314.1543">SerializableMapMemberOptions</text><line style="stroke:#A80036;stroke-width:1.5;" x1="765.5" x2="988.5" y1="326" y2="326"/><ellipse cx="775.5" cy="337" rx="3" ry="3" style="stroke:#038048;stroke-width:1.0;fill:none;"/><text fill="#000000" font-family="sans-serif" font-size="11" lengthAdjust="spacing" textLength="123" x="784.5" y="340.2104">constructor : Typelike</text><ellipse cx="775.5" cy="349.8047" rx="3" ry="3" style="stroke:#038048;stroke-width:1.0;fill:none;"/><text fill="#000000" font-family="sans-serif" font-size="11" lengthAdjust="spacing" textLength="125" x="784.5" y="353.0151">deserializer : Function</text><ellipse cx="775.5" cy="362.6094" rx="3" ry="3" style="stroke:#038048;stroke-width:1.0;fill:none;"/><text fill="#000000" font-family="sans-serif" font-size="11" lengthAdjust="spacing" textLength="153" x="784.5" y="365.8198">emitDefaultValue : boolean</text><ellipse cx="775.5" cy="375.4141" rx="3" ry="3" style="stroke:#038048;stroke-width:1.0;fill:none;"/><text fill="#000000" font-family="sans-serif" font-size="11" lengthAdjust="spacing" textLength="117" x="784.5" y="378.6245">isRequired : boolean</text><ellipse cx="775.5" cy="388.2188" rx="3" ry="3" style="stroke:#038048;stroke-width:1.0;fill:none;"/><text fill="#000000" font-family="sans-serif" font-size="11" lengthAdjust="spacing" textLength="77" x="784.5" y="391.4292">name : string</text><ellipse cx="775.5" cy="401.0234" rx="3" ry="3" style="stroke:#038048;stroke-width:1.0;fill:none;"/><text fill="#000000" font-family="sans-serif" font-size="11" lengthAdjust="spacing" textLength="129" x="784.5" y="404.2339">preserveNull : boolean</text><ellipse cx="775.5" cy="413.8281" rx="3" ry="3" style="stroke:#038048;stroke-width:1.0;fill:none;"/><text fill="#000000" font-family="sans-serif" font-size="11" lengthAdjust="spacing" textLength="111" x="784.5" y="417.0386">serializer : Function</text><ellipse cx="775.5" cy="426.6328" rx="3" ry="3" style="stroke:#038048;stroke-width:1.0;fill:none;"/><text fill="#000000" font-family="sans-serif" font-size="11" lengthAdjust="spacing" textLength="106" x="784.5" y="429.8433">shape : MapShape</text><!--MD5=[37665f69ab5d268dea0377456b7be17d]
reverse link IJsonMemberOptions to MemberOptionsBase--><path codeLine="15" d="M496,51.18 C496,63.08 496,77.11 496,90.95 " fill="none" id="IJsonMemberOptions-backto-MemberOptionsBase" style="stroke:#A80036;stroke-width:1.0;"/><polygon fill="none" points="489,51.05,496,31.05,503,51.05,489,51.05" style="stroke:#A80036;stroke-width:1.0;"/><!--MD5=[62883e92593202d4a97ec02fdc9c0dd8]
reverse link MemberOptionsBase to SerializableArrayMemberOptions--><path codeLine="26" d="M388.37,210.65 C346.93,231.87 299.4,256.92 257,281 C249.74,285.12 242.31,289.44 234.85,293.85 " fill="none" id="MemberOptionsBase-backto-SerializableArrayMemberOptions" style="stroke:#A80036;stroke-width:1.0;"/><polygon fill="none" points="385.33,204.34,406.32,201.49,391.69,216.81,385.33,204.34" style="stroke:#A80036;stroke-width:1.0;"/><!--MD5=[581d9fdb0df57ddeb08c4e654dd5b0ca]
reverse link MemberOptionsBase to SerializableMemberOptions--><path codeLine="39" d="M448.05,238.36 C439.83,252.3 431.29,266.8 423.04,280.79 " fill="none" id="MemberOptionsBase-backto-SerializableMemberOptions" style="stroke:#A80036;stroke-width:1.0;"/><polygon fill="none" points="442.05,234.75,458.23,221.08,454.11,241.86,442.05,234.75" style="stroke:#A80036;stroke-width:1.0;"/><!--MD5=[71ff86877cfbba666467c3038d9ff7e6]
reverse link MemberOptionsBase to SerializableSetMemberOptions--><path codeLine="49" d="M544.29,238.27 C556.44,258.72 569.32,280.39 580.89,299.87 " fill="none" id="MemberOptionsBase-backto-SerializableSetMemberOptions" style="stroke:#A80036;stroke-width:1.0;"/><polygon fill="none" points="538.27,241.85,534.08,221.08,550.31,234.7,538.27,241.85" style="stroke:#A80036;stroke-width:1.0;"/><!--MD5=[0519664a9a78d9d76f96373fece0e826]
reverse link MemberOptionsBase to SerializableMapMemberOptions--><path codeLine="60" d="M603.61,206.97 C648.52,228.64 700.86,254.98 747,281 C754.23,285.08 761.62,289.39 769.01,293.81 " fill="none" id="MemberOptionsBase-backto-SerializableMapMemberOptions" style="stroke:#A80036;stroke-width:1.0;"/><polygon fill="none" points="600.52,213.25,585.51,198.29,606.57,200.62,600.52,213.25" style="stroke:#A80036;stroke-width:1.0;"/><!--MD5=[339322c794041c7fd07f2f1aa078d6a5]
@startuml
skinparam BackgroundColor transparent
hide empty methods
hide empty fields
interface "MemberOptionsBase" {
    +constructor : Typelike
    +deserializer : Function
    +emitDefaultValue : boolean
    +isRequired : boolean
    +name : string
    +preserveNull : boolean
    +serializer : Function
}
class "IJsonMemberOptions"
hide "IJsonMemberOptions" circle
"IJsonMemberOptions" <|- - "MemberOptionsBase"
interface "SerializableArrayMemberOptions" {
    +constructor : Typelike
    +deserializer : Function
    +dimensions : number
    +emitDefaultValue : boolean
    +isRequired : boolean
    +name : string
    +preserveNull : boolean
    +serializer : Function
}
"MemberOptionsBase" <|- - "SerializableArrayMemberOptions"
interface "SerializableMemberOptions" {
    +constructor : Typelike
    +deserializer : Function
    +emitDefaultValue : boolean
    +index : string | boolean
    +isRequired : boolean
    +name : string
    +preserveNull : boolean
    +primaryKey : boolean
    +serializer : Function
    +unique : boolean
}
"MemberOptionsBase" <|- - "SerializableMemberOptions"
interface "SerializableSetMemberOptions" {
    +constructor : Typelike
    +deserializer : Function
    +emitDefaultValue : boolean
    +isRequired : boolean
    +name : string
    +preserveNull : boolean
    +serializer : Function
}
"MemberOptionsBase" <|- - "SerializableSetMemberOptions"
interface "SerializableMapMemberOptions" {
    +constructor : Typelike
    +deserializer : Function
    +emitDefaultValue : boolean
    +isRequired : boolean
    +name : string
    +preserveNull : boolean
    +serializer : Function
    +shape : MapShape
}
"MemberOptionsBase" <|- - "SerializableMapMemberOptions"
@enduml

PlantUML version 1.2021.14(Fri Nov 12 16:46:50 UTC 2021)
(GPL source distribution)
Java Runtime: OpenJDK Runtime Environment
JVM: OpenJDK 64-Bit Server VM
Default Encoding: UTF-8
Language: en
Country: null
--></g></svg>