<?xml version="1.0" encoding="us-ascii" standalone="no"?><svg xmlns="http://www.w3.org/2000/svg" xmlns:xlink="http://www.w3.org/1999/xlink" contentStyleType="text/css" height="224px" preserveAspectRatio="none" style="width:1079px;height:224px;" version="1.1" viewBox="0 0 1079 224" width="1079px" zoomAndPan="magnify"><defs/><g><!--class MemberOptionsBase--><g id="elem_MemberOptionsBase"><rect codeLine="4" fill="#F1F1F1" height="32" id="MemberOptionsBase" rx="2.5" ry="2.5" style="stroke:#181818;stroke-width:0.5;" width="176" x="440" y="93"/><ellipse cx="455" cy="109" fill="#B4A7E5" rx="11" ry="11" style="stroke:#181818;stroke-width:1.0;"/><path d="M450.9219,104.7656 L450.9219,102.6094 L458.3125,102.6094 L458.3125,104.7656 L455.8438,104.7656 L455.8438,112.8438 L458.3125,112.8438 L458.3125,115 L450.9219,115 L450.9219,112.8438 L453.3906,112.8438 L453.3906,104.7656 L450.9219,104.7656 Z " fill="#000000"/><text fill="#000000" font-family="sans-serif" font-size="14" font-style="italic" lengthAdjust="spacing" textLength="144" x="469" y="113.8467">MemberOptionsBase</text></g><!--class IJsonMemberOptions--><g id="elem_IJsonMemberOptions"><rect codeLine="6" fill="#F1F1F1" height="26.2969" id="IJsonMemberOptions" rx="2.5" ry="2.5" style="stroke:#181818;stroke-width:0.5;" width="149" x="453.5" y="7"/><text fill="#000000" font-family="sans-serif" font-size="14" lengthAdjust="spacing" textLength="143" x="456.5" y="24.9951">IJsonMemberOptions</text></g><!--class SerializableMemberOptions--><g id="elem_SerializableMemberOptions"><rect codeLine="9" fill="#F1F1F1" height="32" id="SerializableMemberOptions" rx="2.5" ry="2.5" style="stroke:#181818;stroke-width:0.5;" width="218" x="7" y="185"/><ellipse cx="22" cy="201" fill="#B4A7E5" rx="11" ry="11" style="stroke:#181818;stroke-width:1.0;"/><path d="M17.9219,196.7656 L17.9219,194.6094 L25.3125,194.6094 L25.3125,196.7656 L22.8438,196.7656 L22.8438,204.8438 L25.3125,204.8438 L25.3125,207 L17.9219,207 L17.9219,204.8438 L20.3906,204.8438 L20.3906,196.7656 L17.9219,196.7656 Z " fill="#000000"/><text fill="#000000" font-family="sans-serif" font-size="14" font-style="italic" lengthAdjust="spacing" textLength="186" x="36" y="205.8467">SerializableMemberOptions</text></g><!--class SerializableArrayMemberOptions--><g id="elem_SerializableArrayMemberOptions"><rect codeLine="12" fill="#F1F1F1" height="32" id="SerializableArrayMemberOptions" rx="2.5" ry="2.5" style="stroke:#181818;stroke-width:0.5;" width="254" x="260" y="185"/><ellipse cx="275" cy="201" fill="#B4A7E5" rx="11" ry="11" style="stroke:#181818;stroke-width:1.0;"/><path d="M270.9219,196.7656 L270.9219,194.6094 L278.3125,194.6094 L278.3125,196.7656 L275.8438,196.7656 L275.8438,204.8438 L278.3125,204.8438 L278.3125,207 L270.9219,207 L270.9219,204.8438 L273.3906,204.8438 L273.3906,196.7656 L270.9219,196.7656 Z " fill="#000000"/><text fill="#000000" font-family="sans-serif" font-size="14" font-style="italic" lengthAdjust="spacing" textLength="222" x="289" y="205.8467">SerializableArrayMemberOptions</text></g><!--class SerializableSetMemberOptions--><g id="elem_SerializableSetMemberOptions"><rect codeLine="15" fill="#F1F1F1" height="32" id="SerializableSetMemberOptions" rx="2.5" ry="2.5" style="stroke:#181818;stroke-width:0.5;" width="241" x="549.5" y="185"/><ellipse cx="564.5" cy="201" fill="#B4A7E5" rx="11" ry="11" style="stroke:#181818;stroke-width:1.0;"/><path d="M560.4219,196.7656 L560.4219,194.6094 L567.8125,194.6094 L567.8125,196.7656 L565.3438,196.7656 L565.3438,204.8438 L567.8125,204.8438 L567.8125,207 L560.4219,207 L560.4219,204.8438 L562.8906,204.8438 L562.8906,196.7656 L560.4219,196.7656 Z " fill="#000000"/><text fill="#000000" font-family="sans-serif" font-size="14" font-style="italic" lengthAdjust="spacing" textLength="209" x="578.5" y="205.8467">SerializableSetMemberOptions</text></g><!--class SerializableMapMemberOptions--><g id="elem_SerializableMapMemberOptions"><rect codeLine="18" fill="#F1F1F1" height="32" id="SerializableMapMemberOptions" rx="2.5" ry="2.5" style="stroke:#181818;stroke-width:0.5;" width="247" x="825.5" y="185"/><ellipse cx="840.5" cy="201" fill="#B4A7E5" rx="11" ry="11" style="stroke:#181818;stroke-width:1.0;"/><path d="M836.4219,196.7656 L836.4219,194.6094 L843.8125,194.6094 L843.8125,196.7656 L841.3438,196.7656 L841.3438,204.8438 L843.8125,204.8438 L843.8125,207 L836.4219,207 L836.4219,204.8438 L838.8906,204.8438 L838.8906,196.7656 L836.4219,196.7656 Z " fill="#000000"/><text fill="#000000" font-family="sans-serif" font-size="14" font-style="italic" lengthAdjust="spacing" textLength="215" x="854.5" y="205.8467">SerializableMapMemberOptions</text></g><!--reverse link IJsonMemberOptions to MemberOptionsBase--><g id="link_IJsonMemberOptions_MemberOptionsBase"><path codeLine="8" d="M528,53.37 C528,66.88 528,81.92 528,92.79 " fill="none" id="IJsonMemberOptions-backto-MemberOptionsBase" style="stroke:#181818;stroke-width:1.0;"/><polygon fill="none" points="521,53.1,528,33.1,535,53.1,521,53.1" style="stroke:#181818;stroke-width:1.0;"/></g><!--reverse link MemberOptionsBase to SerializableMemberOptions--><g id="link_MemberOptionsBase_SerializableMemberOptions"><path codeLine="11" d="M439.42,129.35 C363.18,146 254.72,169.7 184.84,184.96 " fill="none" id="MemberOptionsBase-backto-SerializableMemberOptions" style="stroke:#181818;stroke-width:1.0;"/><polygon fill="none" points="438.01,122.49,459.04,125.06,441,136.17,438.01,122.49" style="stroke:#181818;stroke-width:1.0;"/></g><!--reverse link MemberOptionsBase to SerializableArrayMemberOptions--><g id="link_MemberOptionsBase_SerializableArrayMemberOptions"><path codeLine="14" d="M487.23,136.02 C462.4,151.87 431.54,171.57 410.68,184.89 " fill="none" id="MemberOptionsBase-backto-SerializableArrayMemberOptions" style="stroke:#181818;stroke-width:1.0;"/><polygon fill="none" points="483.78,129.92,504.4,125.06,491.31,141.73,483.78,129.92" style="stroke:#181818;stroke-width:1.0;"/></g><!--reverse link MemberOptionsBase to SerializableSetMemberOptions--><g id="link_MemberOptionsBase_SerializableSetMemberOptions"><path codeLine="17" d="M568.69,135.79 C593.76,151.68 625.04,171.5 646.15,184.89 " fill="none" id="MemberOptionsBase-backto-SerializableSetMemberOptions" style="stroke:#181818;stroke-width:1.0;"/><polygon fill="none" points="564.91,141.68,551.77,125.06,572.41,129.86,564.91,141.68" style="stroke:#181818;stroke-width:1.0;"/></g><!--reverse link MemberOptionsBase to SerializableMapMemberOptions--><g id="link_MemberOptionsBase_SerializableMapMemberOptions"><path codeLine="20" d="M618.51,129.35 C696.42,146 807.25,169.7 878.66,184.96 " fill="none" id="MemberOptionsBase-backto-SerializableMapMemberOptions" style="stroke:#181818;stroke-width:1.0;"/><polygon fill="none" points="616.56,136.09,598.47,125.06,619.49,122.4,616.56,136.09" style="stroke:#181818;stroke-width:1.0;"/></g><!--SRC=[dP0x3i8m44HxdsBbFZUW0IgG44LEi74sn8f_MfiYVEvEK9eGx2RjphwPqSH1ku2C5WweXXlxkskFtdY6nEZY995BejSj0TcGHh2KUj_6vQdJPAQBTecuGqKWBsGRucj8shjum4WIdk8jbC4OGPxEqRkV5pdRvHHGcfKXaTLshwhAfIsxrCGQZNvWOsY5VplbkiwsPR1alsV6SND6XYu5rPGsn_onnR4mRDzhpNu0]--></g></svg>