<?xml version="1.0" encoding="UTF-8" standalone="no"?><svg xmlns="http://www.w3.org/2000/svg" xmlns:xlink="http://www.w3.org/1999/xlink" contentScriptType="application/ecmascript" contentStyleType="text/css" height="229px" preserveAspectRatio="none" style="width:1003px;height:229px;background:#00000000;" version="1.1" viewBox="0 0 1003 229" width="1003px" zoomAndPan="magnify"><defs><filter height="300%" id="f2jj6b37edwle" width="300%" x="-1" y="-1"><feGaussianBlur result="blurOut" stdDeviation="2.0"/><feColorMatrix in="blurOut" result="blurOut2" type="matrix" values="0 0 0 0 0 0 0 0 0 0 0 0 0 0 0 0 0 0 .4 0"/><feOffset dx="4.0" dy="4.0" in="blurOut2" result="blurOut3"/><feBlend in="SourceGraphic" in2="blurOut3" mode="normal"/></filter></defs><g><!--MD5=[f627c81427830b5190d21a5c6a35de66]
class MemberOptionsBase--><rect codeLine="4" fill="#FEFECE" filter="url(#f2jj6b37edwle)" height="32" id="MemberOptionsBase" style="stroke:#A80036;stroke-width:1.5;" width="158" x="417" y="91"/><ellipse cx="432" cy="107" fill="#B4A7E5" rx="11" ry="11" style="stroke:#A80036;stroke-width:1.0;"/><path d="M427.9219,102.7656 L427.9219,100.6094 L435.3125,100.6094 L435.3125,102.7656 L432.8438,102.7656 L432.8438,110.8438 L435.3125,110.8438 L435.3125,113 L427.9219,113 L427.9219,110.8438 L430.3906,110.8438 L430.3906,102.7656 L427.9219,102.7656 Z " fill="#000000"/><text fill="#000000" font-family="sans-serif" font-size="12" font-style="italic" lengthAdjust="spacing" textLength="126" x="446" y="111.1543">MemberOptionsBase</text><!--MD5=[3e9ee27bdb7ccd981e1e9f8141a9c290]
class IJsonMemberOptions--><rect codeLine="6" fill="#FEFECE" filter="url(#f2jj6b37edwle)" height="23.9688" id="IJsonMemberOptions" style="stroke:#A80036;stroke-width:1.5;" width="133" x="429.5" y="7"/><text fill="#000000" font-family="sans-serif" font-size="12" lengthAdjust="spacing" textLength="127" x="432.5" y="23.1387">IJsonMemberOptions</text><!--MD5=[15176c50841b0f7b3aa98c1fc2094eb3]
class SerializableArrayMemberOptions--><rect codeLine="9" fill="#FEFECE" filter="url(#f2jj6b37edwle)" height="32" id="SerializableArrayMemberOptions" style="stroke:#A80036;stroke-width:1.5;" width="232" x="7" y="183"/><ellipse cx="22" cy="199" fill="#B4A7E5" rx="11" ry="11" style="stroke:#A80036;stroke-width:1.0;"/><path d="M17.9219,194.7656 L17.9219,192.6094 L25.3125,192.6094 L25.3125,194.7656 L22.8438,194.7656 L22.8438,202.8438 L25.3125,202.8438 L25.3125,205 L17.9219,205 L17.9219,202.8438 L20.3906,202.8438 L20.3906,194.7656 L17.9219,194.7656 Z " fill="#000000"/><text fill="#000000" font-family="sans-serif" font-size="12" font-style="italic" lengthAdjust="spacing" textLength="200" x="36" y="203.1543">SerializableArrayMemberOptions</text><!--MD5=[50a4a531bdd975bfe0683fb9bf772d86]
class SerializableMemberOptions--><rect codeLine="12" fill="#FEFECE" filter="url(#f2jj6b37edwle)" height="32" id="SerializableMemberOptions" style="stroke:#A80036;stroke-width:1.5;" width="199" x="274.5" y="183"/><ellipse cx="289.5" cy="199" fill="#B4A7E5" rx="11" ry="11" style="stroke:#A80036;stroke-width:1.0;"/><path d="M285.4219,194.7656 L285.4219,192.6094 L292.8125,192.6094 L292.8125,194.7656 L290.3438,194.7656 L290.3438,202.8438 L292.8125,202.8438 L292.8125,205 L285.4219,205 L285.4219,202.8438 L287.8906,202.8438 L287.8906,194.7656 L285.4219,194.7656 Z " fill="#000000"/><text fill="#000000" font-family="sans-serif" font-size="12" font-style="italic" lengthAdjust="spacing" textLength="167" x="303.5" y="203.1543">SerializableMemberOptions</text><!--MD5=[2c1de09005861cd8df4de94b5de21751]
class SerializableSetMemberOptions--><rect codeLine="15" fill="#FEFECE" filter="url(#f2jj6b37edwle)" height="32" id="SerializableSetMemberOptions" style="stroke:#A80036;stroke-width:1.5;" width="220" x="509" y="183"/><ellipse cx="524" cy="199" fill="#B4A7E5" rx="11" ry="11" style="stroke:#A80036;stroke-width:1.0;"/><path d="M519.9219,194.7656 L519.9219,192.6094 L527.3125,192.6094 L527.3125,194.7656 L524.8438,194.7656 L524.8438,202.8438 L527.3125,202.8438 L527.3125,205 L519.9219,205 L519.9219,202.8438 L522.3906,202.8438 L522.3906,194.7656 L519.9219,194.7656 Z " fill="#000000"/><text fill="#000000" font-family="sans-serif" font-size="12" font-style="italic" lengthAdjust="spacing" textLength="188" x="538" y="203.1543">SerializableSetMemberOptions</text><!--MD5=[4b0ad9c60814c904e6f8592720812c13]
class SerializableMapMemberOptions--><rect codeLine="18" fill="#FEFECE" filter="url(#f2jj6b37edwle)" height="32" id="SerializableMapMemberOptions" style="stroke:#A80036;stroke-width:1.5;" width="225" x="764.5" y="183"/><ellipse cx="779.5" cy="199" fill="#B4A7E5" rx="11" ry="11" style="stroke:#A80036;stroke-width:1.0;"/><path d="M775.4219,194.7656 L775.4219,192.6094 L782.8125,192.6094 L782.8125,194.7656 L780.3438,194.7656 L780.3438,202.8438 L782.8125,202.8438 L782.8125,205 L775.4219,205 L775.4219,202.8438 L777.8906,202.8438 L777.8906,194.7656 L775.4219,194.7656 Z " fill="#000000"/><text fill="#000000" font-family="sans-serif" font-size="12" font-style="italic" lengthAdjust="spacing" textLength="193" x="793.5" y="203.1543">SerializableMapMemberOptions</text><!--MD5=[37665f69ab5d268dea0377456b7be17d]
reverse link IJsonMemberOptions to MemberOptionsBase--><path codeLine="8" d="M496,51.39 C496,64.91 496,80.08 496,91 " fill="none" id="IJsonMemberOptions-backto-MemberOptionsBase" style="stroke:#A80036;stroke-width:1.0;"/><polygon fill="none" points="489,51.24,496,31.24,503,51.24,489,51.24" style="stroke:#A80036;stroke-width:1.0;"/><!--MD5=[62883e92593202d4a97ec02fdc9c0dd8]
reverse link MemberOptionsBase to SerializableArrayMemberOptions--><path codeLine="11" d="M414.04,127.78 C345.11,144.41 248.05,167.83 185.32,182.96 " fill="none" id="MemberOptionsBase-backto-SerializableArrayMemberOptions" style="stroke:#A80036;stroke-width:1.0;"/><polygon fill="none" points="412.48,120.95,433.57,123.06,415.77,134.56,412.48,120.95" style="stroke:#A80036;stroke-width:1.0;"/><!--MD5=[581d9fdb0df57ddeb08c4e654dd5b0ca]
reverse link MemberOptionsBase to SerializableMemberOptions--><path codeLine="14" d="M459.46,134.95 C438.2,150.64 412.19,169.83 394.49,182.89 " fill="none" id="MemberOptionsBase-backto-SerializableMemberOptions" style="stroke:#A80036;stroke-width:1.0;"/><polygon fill="none" points="455.33,129.3,475.58,123.06,463.64,140.57,455.33,129.3" style="stroke:#A80036;stroke-width:1.0;"/><!--MD5=[71ff86877cfbba666467c3038d9ff7e6]
reverse link MemberOptionsBase to SerializableSetMemberOptions--><path codeLine="17" d="M532.84,134.95 C554.27,150.64 580.5,169.83 598.35,182.89 " fill="none" id="MemberOptionsBase-backto-SerializableSetMemberOptions" style="stroke:#A80036;stroke-width:1.0;"/><polygon fill="none" points="528.59,140.52,516.59,123.06,536.86,129.22,528.59,140.52" style="stroke:#A80036;stroke-width:1.0;"/><!--MD5=[0519664a9a78d9d76f96373fece0e826]
reverse link MemberOptionsBase to SerializableMapMemberOptions--><path codeLine="20" d="M579.27,127.67 C649.7,144.31 749.13,167.8 813.34,182.96 " fill="none" id="MemberOptionsBase-backto-SerializableMapMemberOptions" style="stroke:#A80036;stroke-width:1.0;"/><polygon fill="none" points="577.63,134.47,559.77,123.06,580.84,120.85,577.63,134.47" style="stroke:#A80036;stroke-width:1.0;"/><!--MD5=[be4f68665c6a12896ffbdae4293eedc4]
@startuml
skinparam BackgroundColor transparent
hide empty methods
hide empty fields
interface "MemberOptionsBase" {
}
class "IJsonMemberOptions"
hide "IJsonMemberOptions" circle
"IJsonMemberOptions" <|- - "MemberOptionsBase"
interface "SerializableArrayMemberOptions" {
}
"MemberOptionsBase" <|- - "SerializableArrayMemberOptions"
interface "SerializableMemberOptions" {
}
"MemberOptionsBase" <|- - "SerializableMemberOptions"
interface "SerializableSetMemberOptions" {
}
"MemberOptionsBase" <|- - "SerializableSetMemberOptions"
interface "SerializableMapMemberOptions" {
}
"MemberOptionsBase" <|- - "SerializableMapMemberOptions"
@enduml

PlantUML version 1.2021.14(Fri Nov 12 16:46:50 UTC 2021)
(GPL source distribution)
Java Runtime: OpenJDK Runtime Environment
JVM: OpenJDK 64-Bit Server VM
Default Encoding: UTF-8
Language: en
Country: null
--></g></svg>