<?xml version="1.0" encoding="us-ascii" standalone="no"?><svg xmlns="http://www.w3.org/2000/svg" xmlns:xlink="http://www.w3.org/1999/xlink" contentStyleType="text/css" height="230px" preserveAspectRatio="none" style="width:430px;height:230px;" version="1.1" viewBox="0 0 430 230" width="430px" zoomAndPan="magnify"><defs/><g><!--class MemoryBufferNode<InOut>--><g id="elem_MemoryBufferNode&lt;InOut&gt;"><rect codeLine="4" fill="#F1F1F1" height="32" id="MemoryBufferNode&lt;InOut&gt;" rx="2.5" ry="2.5" style="stroke:#181818;stroke-width:0.5;" width="226" x="99" y="99"/><ellipse cx="114" cy="115" fill="#ADD1B2" rx="11" ry="11" style="stroke:#181818;stroke-width:1.0;"/><path d="M116.9688,120.6406 Q116.3906,120.9375 115.75,121.0781 Q115.1094,121.2344 114.4063,121.2344 Q111.9063,121.2344 110.5781,119.5938 Q109.2656,117.9375 109.2656,114.8125 Q109.2656,111.6875 110.5781,110.0313 Q111.9063,108.375 114.4063,108.375 Q115.1094,108.375 115.75,108.5313 Q116.4063,108.6875 116.9688,108.9844 L116.9688,111.7031 Q116.3438,111.125 115.75,110.8594 Q115.1563,110.5781 114.5313,110.5781 Q113.1875,110.5781 112.5,111.6563 Q111.8125,112.7188 111.8125,114.8125 Q111.8125,116.9063 112.5,117.9844 Q113.1875,119.0469 114.5313,119.0469 Q115.1563,119.0469 115.75,118.7813 Q116.3438,118.5 116.9688,117.9219 L116.9688,120.6406 Z " fill="#000000"/><text fill="#000000" font-family="sans-serif" font-size="14" lengthAdjust="spacing" textLength="194" x="128" y="119.8467">MemoryBufferNode&lt;InOut&gt;</text></g><!--class BufferNode<InOut>--><g id="elem_BufferNode&lt;InOut&gt;"><rect codeLine="6" fill="#F1F1F1" height="32" id="BufferNode&lt;InOut&gt;" rx="2.5" ry="2.5" style="stroke:#181818;stroke-width:0.5;" width="171" x="126.5" y="7"/><ellipse cx="141.5" cy="23" fill="#ADD1B2" rx="11" ry="11" style="stroke:#181818;stroke-width:1.0;"/><path d="M144.4688,28.6406 Q143.8906,28.9375 143.25,29.0781 Q142.6094,29.2344 141.9063,29.2344 Q139.4063,29.2344 138.0781,27.5938 Q136.7656,25.9375 136.7656,22.8125 Q136.7656,19.6875 138.0781,18.0313 Q139.4063,16.375 141.9063,16.375 Q142.6094,16.375 143.25,16.5313 Q143.9063,16.6875 144.4688,16.9844 L144.4688,19.7031 Q143.8438,19.125 143.25,18.8594 Q142.6563,18.5781 142.0313,18.5781 Q140.6875,18.5781 140,19.6563 Q139.3125,20.7188 139.3125,22.8125 Q139.3125,24.9063 140,25.9844 Q140.6875,27.0469 142.0313,27.0469 Q142.6563,27.0469 143.25,26.7813 Q143.8438,26.5 144.4688,25.9219 L144.4688,28.6406 Z " fill="#000000"/><text fill="#000000" font-family="sans-serif" font-size="14" lengthAdjust="spacing" textLength="139" x="155.5" y="27.8467">BufferNode&lt;InOut&gt;</text></g><!--class ThrottleNode<InOut>--><g id="elem_ThrottleNode&lt;InOut&gt;"><rect codeLine="9" fill="#F1F1F1" height="32" id="ThrottleNode&lt;InOut&gt;" rx="2.5" ry="2.5" style="stroke:#181818;stroke-width:0.5;" width="184" x="7" y="191"/><ellipse cx="22" cy="207" fill="#ADD1B2" rx="11" ry="11" style="stroke:#181818;stroke-width:1.0;"/><path d="M24.9688,212.6406 Q24.3906,212.9375 23.75,213.0781 Q23.1094,213.2344 22.4063,213.2344 Q19.9063,213.2344 18.5781,211.5938 Q17.2656,209.9375 17.2656,206.8125 Q17.2656,203.6875 18.5781,202.0313 Q19.9063,200.375 22.4063,200.375 Q23.1094,200.375 23.75,200.5313 Q24.4063,200.6875 24.9688,200.9844 L24.9688,203.7031 Q24.3438,203.125 23.75,202.8594 Q23.1563,202.5781 22.5313,202.5781 Q21.1875,202.5781 20.5,203.6563 Q19.8125,204.7188 19.8125,206.8125 Q19.8125,208.9063 20.5,209.9844 Q21.1875,211.0469 22.5313,211.0469 Q23.1563,211.0469 23.75,210.7813 Q24.3438,210.5 24.9688,209.9219 L24.9688,212.6406 Z " fill="#000000"/><text fill="#000000" font-family="sans-serif" font-size="14" lengthAdjust="spacing" textLength="152" x="36" y="211.8467">ThrottleNode&lt;InOut&gt;</text></g><!--class TimeSyncNode<InOut>--><g id="elem_TimeSyncNode&lt;InOut&gt;"><rect codeLine="12" fill="#F1F1F1" height="32" id="TimeSyncNode&lt;InOut&gt;" rx="2.5" ry="2.5" style="stroke:#181818;stroke-width:0.5;" width="197" x="226.5" y="191"/><ellipse cx="241.5" cy="207" fill="#ADD1B2" rx="11" ry="11" style="stroke:#181818;stroke-width:1.0;"/><path d="M244.4688,212.6406 Q243.8906,212.9375 243.25,213.0781 Q242.6094,213.2344 241.9063,213.2344 Q239.4063,213.2344 238.0781,211.5938 Q236.7656,209.9375 236.7656,206.8125 Q236.7656,203.6875 238.0781,202.0313 Q239.4063,200.375 241.9063,200.375 Q242.6094,200.375 243.25,200.5313 Q243.9063,200.6875 244.4688,200.9844 L244.4688,203.7031 Q243.8438,203.125 243.25,202.8594 Q242.6563,202.5781 242.0313,202.5781 Q240.6875,202.5781 240,203.6563 Q239.3125,204.7188 239.3125,206.8125 Q239.3125,208.9063 240,209.9844 Q240.6875,211.0469 242.0313,211.0469 Q242.6563,211.0469 243.25,210.7813 Q243.8438,210.5 244.4688,209.9219 L244.4688,212.6406 Z " fill="#000000"/><text fill="#000000" font-family="sans-serif" font-size="14" lengthAdjust="spacing" textLength="165" x="255.5" y="211.8467">TimeSyncNode&lt;InOut&gt;</text></g><!--reverse link BufferNode<InOut> to MemoryBufferNode<InOut>--><g id="link_BufferNode&lt;InOut&gt;_MemoryBufferNode&lt;InOut&gt;"><path codeLine="8" d="M212,59.61 C212,73.31 212,88.22 212,98.96 " fill="none" id="BufferNode&lt;InOut&gt;-backto-MemoryBufferNode&lt;InOut&gt;" style="stroke:#181818;stroke-width:1.0;"/><polygon fill="none" points="205,59.27,212,39.27,219,59.27,205,59.27" style="stroke:#181818;stroke-width:1.0;"/></g><!--reverse link MemoryBufferNode<InOut> to ThrottleNode<InOut>--><g id="link_MemoryBufferNode&lt;InOut&gt;_ThrottleNode&lt;InOut&gt;"><path codeLine="11" d="M177.27,143.66 C157.75,159.21 134.13,178.02 117.98,190.89 " fill="none" id="MemoryBufferNode&lt;InOut&gt;-backto-ThrottleNode&lt;InOut&gt;" style="stroke:#181818;stroke-width:1.0;"/><polygon fill="none" points="173.08,138.05,193.09,131.06,181.8,149,173.08,138.05" style="stroke:#181818;stroke-width:1.0;"/></g><!--reverse link MemoryBufferNode<InOut> to TimeSyncNode<InOut>--><g id="link_MemoryBufferNode&lt;InOut&gt;_TimeSyncNode&lt;InOut&gt;"><path codeLine="14" d="M246.73,143.66 C266.25,159.21 289.87,178.02 306.02,190.89 " fill="none" id="MemoryBufferNode&lt;InOut&gt;-backto-TimeSyncNode&lt;InOut&gt;" style="stroke:#181818;stroke-width:1.0;"/><polygon fill="none" points="242.2,149,230.91,131.06,250.92,138.05,242.2,149" style="stroke:#181818;stroke-width:1.0;"/></g><!--SRC=[bSwn3i8W40RWlKz1klSD6eSwEQY3lW21GqY1QuvZ8EgxsyJKc0Y3w__V_-NIxE8YIGOnIJNV27FKU_H8Wad6j5OGkRDEWu2mS141sA9Etv5nuDT4UPcIw8yGaCgKZG4weORn4C-PTxsuTy_jfj7Myl4n36rq0w-MaDd3BzbyvmtNXX_K1RYKgFv7AyCN]--></g></svg>