<?xml version="1.0" encoding="UTF-8" standalone="no"?><svg xmlns="http://www.w3.org/2000/svg" xmlns:xlink="http://www.w3.org/1999/xlink" contentScriptType="application/ecmascript" contentStyleType="text/css" height="145px" preserveAspectRatio="none" style="width:214px;height:145px;background:#00000000;" version="1.1" viewBox="0 0 214 145" width="214px" zoomAndPan="magnify"><defs><filter height="300%" id="f1mx7f6c3ok7lk" width="300%" x="-1" y="-1"><feGaussianBlur result="blurOut" stdDeviation="2.0"/><feColorMatrix in="blurOut" result="blurOut2" type="matrix" values="0 0 0 0 0 0 0 0 0 0 0 0 0 0 0 0 0 0 .4 0"/><feOffset dx="4.0" dy="4.0" in="blurOut2" result="blurOut3"/><feBlend in="SourceGraphic" in2="blurOut3" mode="normal"/></filter></defs><g><!--MD5=[82a64caa9ea03dece7f2eb2529d2496d]
class MemoryDataService<I, T>--><rect codeLine="4" fill="#FEFECE" filter="url(#f1mx7f6c3ok7lk)" height="32" id="MemoryDataService&lt;I, T&gt;" style="stroke:#A80036;stroke-width:1.5;" width="193" x="7" y="99"/><ellipse cx="22" cy="115" fill="#ADD1B2" rx="11" ry="11" style="stroke:#A80036;stroke-width:1.0;"/><path d="M24.9688,120.6406 Q24.3906,120.9375 23.75,121.0781 Q23.1094,121.2344 22.4063,121.2344 Q19.9063,121.2344 18.5781,119.5938 Q17.2656,117.9375 17.2656,114.8125 Q17.2656,111.6875 18.5781,110.0313 Q19.9063,108.375 22.4063,108.375 Q23.1094,108.375 23.75,108.5313 Q24.4063,108.6875 24.9688,108.9844 L24.9688,111.7031 Q24.3438,111.125 23.75,110.8594 Q23.1563,110.5781 22.5313,110.5781 Q21.1875,110.5781 20.5,111.6563 Q19.8125,112.7188 19.8125,114.8125 Q19.8125,116.9063 20.5,117.9844 Q21.1875,119.0469 22.5313,119.0469 Q23.1563,119.0469 23.75,118.7813 Q24.3438,118.5 24.9688,117.9219 L24.9688,120.6406 Z " fill="#000000"/><text fill="#000000" font-family="sans-serif" font-size="12" lengthAdjust="spacing" textLength="161" x="36" y="119.1543">MemoryDataService&lt;I, T&gt;</text><!--MD5=[c76d0fce5d3661eb136e4d7eaf503103]
class DataServiceDriver<I, T>--><rect codeLine="6" fill="#FEFECE" filter="url(#f1mx7f6c3ok7lk)" height="32" id="DataServiceDriver&lt;I, T&gt;" style="stroke:#A80036;stroke-width:1.5;" width="182" x="12.5" y="7"/><ellipse cx="27.5" cy="23" fill="#A9DCDF" rx="11" ry="11" style="stroke:#A80036;stroke-width:1.0;"/><path d="M27.6094,18.3438 L26.4531,23.4219 L28.7813,23.4219 L27.6094,18.3438 Z M26.125,16.1094 L29.1094,16.1094 L32.4688,28.5 L30.0156,28.5 L29.25,25.4375 L25.9688,25.4375 L25.2188,28.5 L22.7813,28.5 L26.125,16.1094 Z " fill="#000000"/><text fill="#000000" font-family="sans-serif" font-size="12" font-style="italic" lengthAdjust="spacing" textLength="150" x="41.5" y="27.1543">DataServiceDriver&lt;I, T&gt;</text><!--MD5=[2cf44a30e36fa772474fc10d0c274669]
reverse link DataServiceDriver<I, T> to MemoryDataService<I, T>--><path codeLine="8" d="M103.5,59.61 C103.5,73.31 103.5,88.22 103.5,98.96 " fill="none" id="DataServiceDriver&lt;I, T&gt;-backto-MemoryDataService&lt;I, T&gt;" style="stroke:#A80036;stroke-width:1.0;"/><polygon fill="none" points="96.5,59.27,103.5,39.27,110.5,59.27,96.5,59.27" style="stroke:#A80036;stroke-width:1.0;"/><!--MD5=[24beec8378397cb1d8daf9a5cb6a93bd]
@startuml
skinparam BackgroundColor transparent
hide empty methods
hide empty fields
class "MemoryDataService<I, T>" {
}
abstract class "DataServiceDriver<I, T>" {
}
"DataServiceDriver<I, T>" <|- - "MemoryDataService<I, T>"
@enduml

PlantUML version 1.2021.14(Fri Nov 12 16:46:50 UTC 2021)
(GPL source distribution)
Java Runtime: OpenJDK Runtime Environment
JVM: OpenJDK 64-Bit Server VM
Default Encoding: UTF-8
Language: en
Country: null
--></g></svg>