<?xml version="1.0" encoding="UTF-8" standalone="no"?><svg xmlns="http://www.w3.org/2000/svg" xmlns:xlink="http://www.w3.org/1999/xlink" contentScriptType="application/ecmascript" contentStyleType="text/css" height="237px" preserveAspectRatio="none" style="width:398px;height:237px;background:#00000000;" version="1.1" viewBox="0 0 398 237" width="398px" zoomAndPan="magnify"><defs><filter height="300%" id="f3ugvt1k0k4tq" width="300%" x="-1" y="-1"><feGaussianBlur result="blurOut" stdDeviation="2.0"/><feColorMatrix in="blurOut" result="blurOut2" type="matrix" values="0 0 0 0 0 0 0 0 0 0 0 0 0 0 0 0 0 0 .4 0"/><feOffset dx="4.0" dy="4.0" in="blurOut2" result="blurOut3"/><feBlend in="SourceGraphic" in2="blurOut3" mode="normal"/></filter></defs><g><!--MD5=[cbfe4adf4cb417016e13f6623ce80221]
class MemoryBufferNode<InOut>--><rect codeLine="4" fill="#FEFECE" filter="url(#f3ugvt1k0k4tq)" height="32" id="MemoryBufferNode&lt;InOut&gt;" style="stroke:#A80036;stroke-width:1.5;" width="203" x="92" y="99"/><ellipse cx="107" cy="115" fill="#ADD1B2" rx="11" ry="11" style="stroke:#A80036;stroke-width:1.0;"/><path d="M109.9688,120.6406 Q109.3906,120.9375 108.75,121.0781 Q108.1094,121.2344 107.4063,121.2344 Q104.9063,121.2344 103.5781,119.5938 Q102.2656,117.9375 102.2656,114.8125 Q102.2656,111.6875 103.5781,110.0313 Q104.9063,108.375 107.4063,108.375 Q108.1094,108.375 108.75,108.5313 Q109.4063,108.6875 109.9688,108.9844 L109.9688,111.7031 Q109.3438,111.125 108.75,110.8594 Q108.1563,110.5781 107.5313,110.5781 Q106.1875,110.5781 105.5,111.6563 Q104.8125,112.7188 104.8125,114.8125 Q104.8125,116.9063 105.5,117.9844 Q106.1875,119.0469 107.5313,119.0469 Q108.1563,119.0469 108.75,118.7813 Q109.3438,118.5 109.9688,117.9219 L109.9688,120.6406 Z " fill="#000000"/><text fill="#000000" font-family="sans-serif" font-size="12" lengthAdjust="spacing" textLength="171" x="121" y="119.1543">MemoryBufferNode&lt;InOut&gt;</text><!--MD5=[de208f4723c96b89531bbea246460187]
class BufferNode<InOut>--><rect codeLine="6" fill="#FEFECE" filter="url(#f3ugvt1k0k4tq)" height="32" id="BufferNode&lt;InOut&gt;" style="stroke:#A80036;stroke-width:1.5;" width="155" x="116" y="7"/><ellipse cx="131" cy="23" fill="#ADD1B2" rx="11" ry="11" style="stroke:#A80036;stroke-width:1.0;"/><path d="M133.9688,28.6406 Q133.3906,28.9375 132.75,29.0781 Q132.1094,29.2344 131.4063,29.2344 Q128.9063,29.2344 127.5781,27.5938 Q126.2656,25.9375 126.2656,22.8125 Q126.2656,19.6875 127.5781,18.0313 Q128.9063,16.375 131.4063,16.375 Q132.1094,16.375 132.75,16.5313 Q133.4063,16.6875 133.9688,16.9844 L133.9688,19.7031 Q133.3438,19.125 132.75,18.8594 Q132.1563,18.5781 131.5313,18.5781 Q130.1875,18.5781 129.5,19.6563 Q128.8125,20.7188 128.8125,22.8125 Q128.8125,24.9063 129.5,25.9844 Q130.1875,27.0469 131.5313,27.0469 Q132.1563,27.0469 132.75,26.7813 Q133.3438,26.5 133.9688,25.9219 L133.9688,28.6406 Z " fill="#000000"/><text fill="#000000" font-family="sans-serif" font-size="12" lengthAdjust="spacing" textLength="123" x="145" y="27.1543">BufferNode&lt;InOut&gt;</text><!--MD5=[09dc82c2c4dbd5d3bd1cc86770b2526d]
class ThrottleNode<InOut>--><rect codeLine="9" fill="#FEFECE" filter="url(#f3ugvt1k0k4tq)" height="32" id="ThrottleNode&lt;InOut&gt;" style="stroke:#A80036;stroke-width:1.5;" width="167" x="7" y="191"/><ellipse cx="22" cy="207" fill="#ADD1B2" rx="11" ry="11" style="stroke:#A80036;stroke-width:1.0;"/><path d="M24.9688,212.6406 Q24.3906,212.9375 23.75,213.0781 Q23.1094,213.2344 22.4063,213.2344 Q19.9063,213.2344 18.5781,211.5938 Q17.2656,209.9375 17.2656,206.8125 Q17.2656,203.6875 18.5781,202.0313 Q19.9063,200.375 22.4063,200.375 Q23.1094,200.375 23.75,200.5313 Q24.4063,200.6875 24.9688,200.9844 L24.9688,203.7031 Q24.3438,203.125 23.75,202.8594 Q23.1563,202.5781 22.5313,202.5781 Q21.1875,202.5781 20.5,203.6563 Q19.8125,204.7188 19.8125,206.8125 Q19.8125,208.9063 20.5,209.9844 Q21.1875,211.0469 22.5313,211.0469 Q23.1563,211.0469 23.75,210.7813 Q24.3438,210.5 24.9688,209.9219 L24.9688,212.6406 Z " fill="#000000"/><text fill="#000000" font-family="sans-serif" font-size="12" lengthAdjust="spacing" textLength="135" x="36" y="211.1543">ThrottleNode&lt;InOut&gt;</text><!--MD5=[fa8c5d5c8201bf7c8c2892d0149b49db]
class TimeSyncNode<InOut>--><rect codeLine="12" fill="#FEFECE" filter="url(#f3ugvt1k0k4tq)" height="32" id="TimeSyncNode&lt;InOut&gt;" style="stroke:#A80036;stroke-width:1.5;" width="176" x="208.5" y="191"/><ellipse cx="223.5" cy="207" fill="#ADD1B2" rx="11" ry="11" style="stroke:#A80036;stroke-width:1.0;"/><path d="M226.4688,212.6406 Q225.8906,212.9375 225.25,213.0781 Q224.6094,213.2344 223.9063,213.2344 Q221.4063,213.2344 220.0781,211.5938 Q218.7656,209.9375 218.7656,206.8125 Q218.7656,203.6875 220.0781,202.0313 Q221.4063,200.375 223.9063,200.375 Q224.6094,200.375 225.25,200.5313 Q225.9063,200.6875 226.4688,200.9844 L226.4688,203.7031 Q225.8438,203.125 225.25,202.8594 Q224.6563,202.5781 224.0313,202.5781 Q222.6875,202.5781 222,203.6563 Q221.3125,204.7188 221.3125,206.8125 Q221.3125,208.9063 222,209.9844 Q222.6875,211.0469 224.0313,211.0469 Q224.6563,211.0469 225.25,210.7813 Q225.8438,210.5 226.4688,209.9219 L226.4688,212.6406 Z " fill="#000000"/><text fill="#000000" font-family="sans-serif" font-size="12" lengthAdjust="spacing" textLength="144" x="237.5" y="211.1543">TimeSyncNode&lt;InOut&gt;</text><!--MD5=[b42b280cf03fc9fd4fcf3fcc0a3c2d34]
reverse link BufferNode<InOut> to MemoryBufferNode<InOut>--><path codeLine="8" d="M193.5,59.61 C193.5,73.31 193.5,88.22 193.5,98.96 " fill="none" id="BufferNode&lt;InOut&gt;-backto-MemoryBufferNode&lt;InOut&gt;" style="stroke:#A80036;stroke-width:1.0;"/><polygon fill="none" points="186.5,59.27,193.5,39.27,200.5,59.27,186.5,59.27" style="stroke:#A80036;stroke-width:1.0;"/><!--MD5=[0e4e84f10b423da36be043577420d528]
reverse link MemoryBufferNode<InOut> to ThrottleNode<InOut>--><path codeLine="11" d="M160.8,144.58 C143.17,159.97 122.15,178.34 107.71,190.96 " fill="none" id="MemoryBufferNode&lt;InOut&gt;-backto-ThrottleNode&lt;InOut&gt;" style="stroke:#A80036;stroke-width:1.0;"/><polygon fill="none" points="156.36,139.16,176.03,131.27,165.57,149.7,156.36,139.16" style="stroke:#A80036;stroke-width:1.0;"/><!--MD5=[dc4b89fa804d938fa578ab134fd86d77]
reverse link MemoryBufferNode<InOut> to TimeSyncNode<InOut>--><path codeLine="14" d="M226.2,144.58 C243.83,159.97 264.85,178.34 279.29,190.96 " fill="none" id="MemoryBufferNode&lt;InOut&gt;-backto-TimeSyncNode&lt;InOut&gt;" style="stroke:#A80036;stroke-width:1.0;"/><polygon fill="none" points="221.43,149.7,210.97,131.27,230.64,139.16,221.43,149.7" style="stroke:#A80036;stroke-width:1.0;"/><!--MD5=[4d302471f509a9f3fb2a35a76385928c]
@startuml
skinparam BackgroundColor transparent
hide empty methods
hide empty fields
class "MemoryBufferNode<InOut>" {
}
class "BufferNode<InOut>" {
}
"BufferNode<InOut>" <|- - "MemoryBufferNode<InOut>"
class "ThrottleNode<InOut>" {
}
"MemoryBufferNode<InOut>" <|- - "ThrottleNode<InOut>"
class "TimeSyncNode<InOut>" {
}
"MemoryBufferNode<InOut>" <|- - "TimeSyncNode<InOut>"
@enduml

PlantUML version 1.2021.14(Fri Nov 12 16:46:50 UTC 2021)
(GPL source distribution)
Java Runtime: OpenJDK Runtime Environment
JVM: OpenJDK 64-Bit Server VM
Default Encoding: UTF-8
Language: en
Country: null
--></g></svg>