<?xml version="1.0" encoding="us-ascii" standalone="no"?><svg xmlns="http://www.w3.org/2000/svg" xmlns:xlink="http://www.w3.org/1999/xlink" contentStyleType="text/css" height="230px" preserveAspectRatio="none" style="width:211px;height:230px;" version="1.1" viewBox="0 0 211 230" width="211px" zoomAndPan="magnify"><defs/><g><!--class MergeShapeOptions--><g id="elem_MergeShapeOptions"><rect codeLine="4" fill="#F1F1F1" height="32" id="MergeShapeOptions" rx="2.5" ry="2.5" style="stroke:#181818;stroke-width:0.5;" width="173" x="19" y="99"/><ellipse cx="34" cy="115" fill="#B4A7E5" rx="11" ry="11" style="stroke:#181818;stroke-width:1.0;"/><path d="M29.9219,110.7656 L29.9219,108.6094 L37.3125,108.6094 L37.3125,110.7656 L34.8438,110.7656 L34.8438,118.8438 L37.3125,118.8438 L37.3125,121 L29.9219,121 L29.9219,118.8438 L32.3906,118.8438 L32.3906,110.7656 L29.9219,110.7656 Z " fill="#000000"/><text fill="#000000" font-family="sans-serif" font-size="14" font-style="italic" lengthAdjust="spacing" textLength="141" x="48" y="119.8467">MergeShapeOptions</text></g><!--class ProcessingNodeOptions--><g id="elem_ProcessingNodeOptions"><rect codeLine="6" fill="#F1F1F1" height="32" id="ProcessingNodeOptions" rx="2.5" ry="2.5" style="stroke:#181818;stroke-width:0.5;" width="197" x="7" y="7"/><ellipse cx="22" cy="23" fill="#B4A7E5" rx="11" ry="11" style="stroke:#181818;stroke-width:1.0;"/><path d="M17.9219,18.7656 L17.9219,16.6094 L25.3125,16.6094 L25.3125,18.7656 L22.8438,18.7656 L22.8438,26.8438 L25.3125,26.8438 L25.3125,29 L17.9219,29 L17.9219,26.8438 L20.3906,26.8438 L20.3906,18.7656 L17.9219,18.7656 Z " fill="#000000"/><text fill="#000000" font-family="sans-serif" font-size="14" font-style="italic" lengthAdjust="spacing" textLength="165" x="36" y="27.8467">ProcessingNodeOptions</text></g><!--class ObjectMergeOptions--><g id="elem_ObjectMergeOptions"><rect codeLine="9" fill="#F1F1F1" height="32" id="ObjectMergeOptions" rx="2.5" ry="2.5" style="stroke:#181818;stroke-width:0.5;" width="174" x="18.5" y="191"/><ellipse cx="33.5" cy="207" fill="#B4A7E5" rx="11" ry="11" style="stroke:#181818;stroke-width:1.0;"/><path d="M29.4219,202.7656 L29.4219,200.6094 L36.8125,200.6094 L36.8125,202.7656 L34.3438,202.7656 L34.3438,210.8438 L36.8125,210.8438 L36.8125,213 L29.4219,213 L29.4219,210.8438 L31.8906,210.8438 L31.8906,202.7656 L29.4219,202.7656 Z " fill="#000000"/><text fill="#000000" font-family="sans-serif" font-size="14" font-style="italic" lengthAdjust="spacing" textLength="142" x="47.5" y="211.8467">ObjectMergeOptions</text></g><!--reverse link ProcessingNodeOptions to MergeShapeOptions--><g id="link_ProcessingNodeOptions_MergeShapeOptions"><path codeLine="8" d="M105.5,59.61 C105.5,73.31 105.5,88.22 105.5,98.96 " fill="none" id="ProcessingNodeOptions-backto-MergeShapeOptions" style="stroke:#181818;stroke-width:1.0;"/><polygon fill="none" points="98.5,59.27,105.5,39.27,112.5,59.27,98.5,59.27" style="stroke:#181818;stroke-width:1.0;"/></g><!--reverse link MergeShapeOptions to ObjectMergeOptions--><g id="link_MergeShapeOptions_ObjectMergeOptions"><path codeLine="11" d="M105.5,151.61 C105.5,165.31 105.5,180.22 105.5,190.96 " fill="none" id="MergeShapeOptions-backto-ObjectMergeOptions" style="stroke:#181818;stroke-width:1.0;"/><polygon fill="none" points="98.5,151.27,105.5,131.27,112.5,151.27,98.5,151.27" style="stroke:#181818;stroke-width:1.0;"/></g><!--SRC=[TOun3i8m40JxlC9AdnzGGGr1uWN6ljX7uZlhV1G8-3iHD8vasjtPqPOPALknoUojcuFmdVo15nQZOgci5P1s4JqOI5aV9e56zgME9eHbJP0KPB8EJ7y42N29DiEO5PbARvxTkoREmWvAGGedzblgNxTx3KDBNMl7wmsSVfcji_7evsiiFW00]--></g></svg>