<?xml version="1.0" encoding="UTF-8" standalone="no"?><svg xmlns="http://www.w3.org/2000/svg" xmlns:xlink="http://www.w3.org/1999/xlink" contentScriptType="application/ecmascript" contentStyleType="text/css" height="237px" preserveAspectRatio="none" style="width:246px;height:237px;background:#00000000;" version="1.1" viewBox="0 0 246 237" width="246px" zoomAndPan="magnify"><defs><filter height="300%" id="f1juwukgzqi7zv" width="300%" x="-1" y="-1"><feGaussianBlur result="blurOut" stdDeviation="2.0"/><feColorMatrix in="blurOut" result="blurOut2" type="matrix" values="0 0 0 0 0 0 0 0 0 0 0 0 0 0 0 0 0 0 .4 0"/><feOffset dx="4.0" dy="4.0" in="blurOut2" result="blurOut3"/><feBlend in="SourceGraphic" in2="blurOut3" mode="normal"/></filter></defs><g><!--MD5=[4a4367315437d3589fad77aa170f6467]
class MergeShape<InOut>--><rect codeLine="4" fill="#FEFECE" filter="url(#f1juwukgzqi7zv)" height="32" id="MergeShape&lt;InOut&gt;" style="stroke:#A80036;stroke-width:1.5;" width="164" x="37.5" y="99"/><ellipse cx="52.5" cy="115" fill="#A9DCDF" rx="11" ry="11" style="stroke:#A80036;stroke-width:1.0;"/><path d="M52.6094,110.3438 L51.4531,115.4219 L53.7813,115.4219 L52.6094,110.3438 Z M51.125,108.1094 L54.1094,108.1094 L57.4688,120.5 L55.0156,120.5 L54.25,117.4375 L50.9688,117.4375 L50.2188,120.5 L47.7813,120.5 L51.125,108.1094 Z " fill="#000000"/><text fill="#000000" font-family="sans-serif" font-size="12" font-style="italic" lengthAdjust="spacing" textLength="132" x="66.5" y="119.1543">MergeShape&lt;InOut&gt;</text><!--MD5=[135c2d0e6265299568c7bceea7232ff0]
class ProcessingNode<InOut, InOut>--><rect codeLine="6" fill="#FEFECE" filter="url(#f1juwukgzqi7zv)" height="32" id="ProcessingNode&lt;InOut, InOut&gt;" style="stroke:#A80036;stroke-width:1.5;" width="225" x="7" y="7"/><ellipse cx="22" cy="23" fill="#A9DCDF" rx="11" ry="11" style="stroke:#A80036;stroke-width:1.0;"/><path d="M22.1094,18.3438 L20.9531,23.4219 L23.2813,23.4219 L22.1094,18.3438 Z M20.625,16.1094 L23.6094,16.1094 L26.9688,28.5 L24.5156,28.5 L23.75,25.4375 L20.4688,25.4375 L19.7188,28.5 L17.2813,28.5 L20.625,16.1094 Z " fill="#000000"/><text fill="#000000" font-family="sans-serif" font-size="12" font-style="italic" lengthAdjust="spacing" textLength="193" x="36" y="27.1543">ProcessingNode&lt;InOut, InOut&gt;</text><!--MD5=[141a2e6d8ea8a7e5d43ad004068c18c9]
class FrameMergeNode<InOut>--><rect codeLine="9" fill="#FEFECE" filter="url(#f1juwukgzqi7zv)" height="32" id="FrameMergeNode&lt;InOut&gt;" style="stroke:#A80036;stroke-width:1.5;" width="196" x="21.5" y="191"/><ellipse cx="36.5" cy="207" fill="#ADD1B2" rx="11" ry="11" style="stroke:#A80036;stroke-width:1.0;"/><path d="M39.4688,212.6406 Q38.8906,212.9375 38.25,213.0781 Q37.6094,213.2344 36.9063,213.2344 Q34.4063,213.2344 33.0781,211.5938 Q31.7656,209.9375 31.7656,206.8125 Q31.7656,203.6875 33.0781,202.0313 Q34.4063,200.375 36.9063,200.375 Q37.6094,200.375 38.25,200.5313 Q38.9063,200.6875 39.4688,200.9844 L39.4688,203.7031 Q38.8438,203.125 38.25,202.8594 Q37.6563,202.5781 37.0313,202.5781 Q35.6875,202.5781 35,203.6563 Q34.3125,204.7188 34.3125,206.8125 Q34.3125,208.9063 35,209.9844 Q35.6875,211.0469 37.0313,211.0469 Q37.6563,211.0469 38.25,210.7813 Q38.8438,210.5 39.4688,209.9219 L39.4688,212.6406 Z " fill="#000000"/><text fill="#000000" font-family="sans-serif" font-size="12" lengthAdjust="spacing" textLength="164" x="50.5" y="211.1543">FrameMergeNode&lt;InOut&gt;</text><!--MD5=[ff299742642d5f63778c3eb2f4bd57b5]
reverse link ProcessingNode<InOut, InOut> to MergeShape<InOut>--><path codeLine="8" d="M119.5,59.61 C119.5,73.31 119.5,88.22 119.5,98.96 " fill="none" id="ProcessingNode&lt;InOut, InOut&gt;-backto-MergeShape&lt;InOut&gt;" style="stroke:#A80036;stroke-width:1.0;"/><polygon fill="none" points="112.5,59.27,119.5,39.27,126.5,59.27,112.5,59.27" style="stroke:#A80036;stroke-width:1.0;"/><!--MD5=[0fe2b73e9fa80cd0b5faba91cf947f0d]
reverse link MergeShape<InOut> to FrameMergeNode<InOut>--><path codeLine="11" d="M119.5,151.61 C119.5,165.31 119.5,180.22 119.5,190.96 " fill="none" id="MergeShape&lt;InOut&gt;-backto-FrameMergeNode&lt;InOut&gt;" style="stroke:#A80036;stroke-width:1.0;"/><polygon fill="none" points="112.5,151.27,119.5,131.27,126.5,151.27,112.5,151.27" style="stroke:#A80036;stroke-width:1.0;"/><!--MD5=[ffef664c83f25f795a0d2204e3ce6910]
@startuml
skinparam BackgroundColor transparent
hide empty methods
hide empty fields
abstract class "MergeShape<InOut>" {
}
abstract class "ProcessingNode<InOut, InOut>" {
}
"ProcessingNode<InOut, InOut>" <|- - "MergeShape<InOut>"
class "FrameMergeNode<InOut>" {
}
"MergeShape<InOut>" <|- - "FrameMergeNode<InOut>"
@enduml

PlantUML version 1.2021.14(Fri Nov 12 16:46:50 UTC 2021)
(GPL source distribution)
Java Runtime: OpenJDK Runtime Environment
JVM: OpenJDK 64-Bit Server VM
Default Encoding: UTF-8
Language: en
Country: null
--></g></svg>