<?xml version="1.0" encoding="UTF-8" standalone="no"?><svg xmlns="http://www.w3.org/2000/svg" xmlns:xlink="http://www.w3.org/1999/xlink" contentScriptType="application/ecmascript" contentStyleType="text/css" height="237px" preserveAspectRatio="none" style="width:198px;height:237px;background:#00000000;" version="1.1" viewBox="0 0 198 237" width="198px" zoomAndPan="magnify"><defs><filter height="300%" id="f5lpmcwr4qu7d" width="300%" x="-1" y="-1"><feGaussianBlur result="blurOut" stdDeviation="2.0"/><feColorMatrix in="blurOut" result="blurOut2" type="matrix" values="0 0 0 0 0 0 0 0 0 0 0 0 0 0 0 0 0 0 .4 0"/><feOffset dx="4.0" dy="4.0" in="blurOut2" result="blurOut3"/><feBlend in="SourceGraphic" in2="blurOut3" mode="normal"/></filter></defs><g><!--MD5=[7f977e29ea97c8721704c7294b857227]
class MergeShapeOptions--><rect codeLine="4" fill="#FEFECE" filter="url(#f5lpmcwr4qu7d)" height="32" id="MergeShapeOptions" style="stroke:#A80036;stroke-width:1.5;" width="157" x="17" y="99"/><ellipse cx="32" cy="115" fill="#B4A7E5" rx="11" ry="11" style="stroke:#A80036;stroke-width:1.0;"/><path d="M27.9219,110.7656 L27.9219,108.6094 L35.3125,108.6094 L35.3125,110.7656 L32.8438,110.7656 L32.8438,118.8438 L35.3125,118.8438 L35.3125,121 L27.9219,121 L27.9219,118.8438 L30.3906,118.8438 L30.3906,110.7656 L27.9219,110.7656 Z " fill="#000000"/><text fill="#000000" font-family="sans-serif" font-size="12" font-style="italic" lengthAdjust="spacing" textLength="125" x="46" y="119.1543">MergeShapeOptions</text><!--MD5=[f2c00490a58e4d2420fdf06e183a4b13]
class ProcessingNodeOptions--><rect codeLine="6" fill="#FEFECE" filter="url(#f5lpmcwr4qu7d)" height="32" id="ProcessingNodeOptions" style="stroke:#A80036;stroke-width:1.5;" width="177" x="7" y="7"/><ellipse cx="22" cy="23" fill="#B4A7E5" rx="11" ry="11" style="stroke:#A80036;stroke-width:1.0;"/><path d="M17.9219,18.7656 L17.9219,16.6094 L25.3125,16.6094 L25.3125,18.7656 L22.8438,18.7656 L22.8438,26.8438 L25.3125,26.8438 L25.3125,29 L17.9219,29 L17.9219,26.8438 L20.3906,26.8438 L20.3906,18.7656 L17.9219,18.7656 Z " fill="#000000"/><text fill="#000000" font-family="sans-serif" font-size="12" font-style="italic" lengthAdjust="spacing" textLength="145" x="36" y="27.1543">ProcessingNodeOptions</text><!--MD5=[b4c9791fdc43e27f4752af748eba7fb9]
class ObjectMergeOptions--><rect codeLine="9" fill="#FEFECE" filter="url(#f5lpmcwr4qu7d)" height="32" id="ObjectMergeOptions" style="stroke:#A80036;stroke-width:1.5;" width="156" x="17.5" y="191"/><ellipse cx="32.5" cy="207" fill="#B4A7E5" rx="11" ry="11" style="stroke:#A80036;stroke-width:1.0;"/><path d="M28.4219,202.7656 L28.4219,200.6094 L35.8125,200.6094 L35.8125,202.7656 L33.3438,202.7656 L33.3438,210.8438 L35.8125,210.8438 L35.8125,213 L28.4219,213 L28.4219,210.8438 L30.8906,210.8438 L30.8906,202.7656 L28.4219,202.7656 Z " fill="#000000"/><text fill="#000000" font-family="sans-serif" font-size="12" font-style="italic" lengthAdjust="spacing" textLength="124" x="46.5" y="211.1543">ObjectMergeOptions</text><!--MD5=[92995e265f0d5469e7a4e6a7d4042a05]
reverse link ProcessingNodeOptions to MergeShapeOptions--><path codeLine="8" d="M95.5,59.61 C95.5,73.31 95.5,88.22 95.5,98.96 " fill="none" id="ProcessingNodeOptions-backto-MergeShapeOptions" style="stroke:#A80036;stroke-width:1.0;"/><polygon fill="none" points="88.5,59.27,95.5,39.27,102.5,59.27,88.5,59.27" style="stroke:#A80036;stroke-width:1.0;"/><!--MD5=[67bab153c3d185cc88e734e8c9e1d0bd]
reverse link MergeShapeOptions to ObjectMergeOptions--><path codeLine="11" d="M95.5,151.61 C95.5,165.31 95.5,180.22 95.5,190.96 " fill="none" id="MergeShapeOptions-backto-ObjectMergeOptions" style="stroke:#A80036;stroke-width:1.0;"/><polygon fill="none" points="88.5,151.27,95.5,131.27,102.5,151.27,88.5,151.27" style="stroke:#A80036;stroke-width:1.0;"/><!--MD5=[a0b0132daac32bd15262d6e861772656]
@startuml
skinparam BackgroundColor transparent
hide empty methods
hide empty fields
interface "MergeShapeOptions" {
}
interface "ProcessingNodeOptions" {
}
"ProcessingNodeOptions" <|- - "MergeShapeOptions"
interface "ObjectMergeOptions" {
}
"MergeShapeOptions" <|- - "ObjectMergeOptions"
@enduml

PlantUML version 1.2021.14(Fri Nov 12 16:46:50 UTC 2021)
(GPL source distribution)
Java Runtime: OpenJDK Runtime Environment
JVM: OpenJDK 64-Bit Server VM
Default Encoding: UTF-8
Language: en
Country: null
--></g></svg>