<?xml version="1.0" encoding="UTF-8" standalone="no"?><svg xmlns="http://www.w3.org/2000/svg" xmlns:xlink="http://www.w3.org/1999/xlink" contentScriptType="application/ecmascript" contentStyleType="text/css" height="516px" preserveAspectRatio="none" style="width:198px;height:516px;background:#00000000;" version="1.1" viewBox="0 0 198 516" width="198px" zoomAndPan="magnify"><defs><filter height="300%" id="f7sgb28kyfuqa" width="300%" x="-1" y="-1"><feGaussianBlur result="blurOut" stdDeviation="2.0"/><feColorMatrix in="blurOut" result="blurOut2" type="matrix" values="0 0 0 0 0 0 0 0 0 0 0 0 0 0 0 0 0 0 .4 0"/><feOffset dx="4.0" dy="4.0" in="blurOut2" result="blurOut3"/><feBlend in="SourceGraphic" in2="blurOut3" mode="normal"/></filter></defs><g><!--MD5=[7f977e29ea97c8721704c7294b857227]
class MergeShapeOptions--><rect codeLine="4" fill="#FEFECE" filter="url(#f7sgb28kyfuqa)" height="142.4375" id="MergeShapeOptions" style="stroke:#A80036;stroke-width:1.5;" width="157" x="17" y="145"/><ellipse cx="32" cy="161" fill="#B4A7E5" rx="11" ry="11" style="stroke:#A80036;stroke-width:1.0;"/><path d="M27.9219,156.7656 L27.9219,154.6094 L35.3125,154.6094 L35.3125,156.7656 L32.8438,156.7656 L32.8438,164.8438 L35.3125,164.8438 L35.3125,167 L27.9219,167 L27.9219,164.8438 L30.3906,164.8438 L30.3906,156.7656 L27.9219,156.7656 Z " fill="#000000"/><text fill="#000000" font-family="sans-serif" font-size="12" font-style="italic" lengthAdjust="spacing" textLength="125" x="46" y="165.1543">MergeShapeOptions</text><line style="stroke:#A80036;stroke-width:1.5;" x1="18" x2="173" y1="177" y2="177"/><ellipse cx="28" cy="188" rx="3" ry="3" style="stroke:#038048;stroke-width:1.0;fill:none;"/><text fill="#000000" font-family="sans-serif" font-size="11" lengthAdjust="spacing" textLength="130" x="37" y="191.2104">checkInterval : number</text><ellipse cx="28" cy="200.8047" rx="3" ry="3" style="stroke:#038048;stroke-width:1.0;fill:none;"/><text fill="#000000" font-family="sans-serif" font-size="11" lengthAdjust="spacing" textLength="121" x="37" y="204.0151">frameFilter : Function</text><ellipse cx="28" cy="213.6094" rx="3" ry="3" style="stroke:#038048;stroke-width:1.0;fill:none;"/><text fill="#000000" font-family="sans-serif" font-size="11" lengthAdjust="spacing" textLength="113" x="37" y="216.8198">maxCount : number</text><ellipse cx="28" cy="226.4141" rx="3" ry="3" style="stroke:#038048;stroke-width:1.0;fill:none;"/><text fill="#000000" font-family="sans-serif" font-size="11" lengthAdjust="spacing" textLength="110" x="37" y="229.6245">minCount : number</text><ellipse cx="28" cy="239.2188" rx="3" ry="3" style="stroke:#038048;stroke-width:1.0;fill:none;"/><text fill="#000000" font-family="sans-serif" font-size="11" lengthAdjust="spacing" textLength="77" x="37" y="242.4292">name : string</text><ellipse cx="28" cy="252.0234" rx="3" ry="3" style="stroke:#038048;stroke-width:1.0;fill:none;"/><text fill="#000000" font-family="sans-serif" font-size="11" lengthAdjust="spacing" textLength="99" x="37" y="255.2339">timeout : number</text><ellipse cx="28" cy="264.8281" rx="3" ry="3" style="stroke:#038048;stroke-width:1.0;fill:none;"/><text fill="#000000" font-family="sans-serif" font-size="11" lengthAdjust="spacing" textLength="127" x="37" y="268.0386">timeoutUnit : TimeUnit</text><ellipse cx="28" cy="277.6328" rx="3" ry="3" style="stroke:#038048;stroke-width:1.0;fill:none;"/><text fill="#000000" font-family="sans-serif" font-size="11" lengthAdjust="spacing" textLength="62" x="37" y="280.8433">uid : string</text><!--MD5=[f2c00490a58e4d2420fdf06e183a4b13]
class ProcessingNodeOptions--><rect codeLine="14" fill="#FEFECE" filter="url(#f7sgb28kyfuqa)" height="78.4141" id="ProcessingNodeOptions" style="stroke:#A80036;stroke-width:1.5;" width="177" x="7" y="7"/><ellipse cx="22" cy="23" fill="#B4A7E5" rx="11" ry="11" style="stroke:#A80036;stroke-width:1.0;"/><path d="M17.9219,18.7656 L17.9219,16.6094 L25.3125,16.6094 L25.3125,18.7656 L22.8438,18.7656 L22.8438,26.8438 L25.3125,26.8438 L25.3125,29 L17.9219,29 L17.9219,26.8438 L20.3906,26.8438 L20.3906,18.7656 L17.9219,18.7656 Z " fill="#000000"/><text fill="#000000" font-family="sans-serif" font-size="12" font-style="italic" lengthAdjust="spacing" textLength="145" x="36" y="27.1543">ProcessingNodeOptions</text><line style="stroke:#A80036;stroke-width:1.5;" x1="8" x2="183" y1="39" y2="39"/><ellipse cx="18" cy="50" rx="3" ry="3" style="stroke:#038048;stroke-width:1.0;fill:none;"/><text fill="#000000" font-family="sans-serif" font-size="11" lengthAdjust="spacing" textLength="121" x="27" y="53.2104">frameFilter : Function</text><ellipse cx="18" cy="62.8047" rx="3" ry="3" style="stroke:#038048;stroke-width:1.0;fill:none;"/><text fill="#000000" font-family="sans-serif" font-size="11" lengthAdjust="spacing" textLength="77" x="27" y="66.0151">name : string</text><ellipse cx="18" cy="75.6094" rx="3" ry="3" style="stroke:#038048;stroke-width:1.0;fill:none;"/><text fill="#000000" font-family="sans-serif" font-size="11" lengthAdjust="spacing" textLength="62" x="27" y="78.8198">uid : string</text><!--MD5=[b4c9791fdc43e27f4752af748eba7fb9]
class ObjectMergeOptions--><rect codeLine="20" fill="#FEFECE" filter="url(#f7sgb28kyfuqa)" height="155.2422" id="ObjectMergeOptions" style="stroke:#A80036;stroke-width:1.5;" width="156" x="17.5" y="347"/><ellipse cx="32.5" cy="363" fill="#B4A7E5" rx="11" ry="11" style="stroke:#A80036;stroke-width:1.0;"/><path d="M28.4219,358.7656 L28.4219,356.6094 L35.8125,356.6094 L35.8125,358.7656 L33.3438,358.7656 L33.3438,366.8438 L35.8125,366.8438 L35.8125,369 L28.4219,369 L28.4219,366.8438 L30.8906,366.8438 L30.8906,358.7656 L28.4219,358.7656 Z " fill="#000000"/><text fill="#000000" font-family="sans-serif" font-size="12" font-style="italic" lengthAdjust="spacing" textLength="124" x="46.5" y="367.1543">ObjectMergeOptions</text><line style="stroke:#A80036;stroke-width:1.5;" x1="18.5" x2="172.5" y1="379" y2="379"/><ellipse cx="28.5" cy="390" rx="3" ry="3" style="stroke:#038048;stroke-width:1.0;fill:none;"/><text fill="#000000" font-family="sans-serif" font-size="11" lengthAdjust="spacing" textLength="130" x="37.5" y="393.2104">checkInterval : number</text><ellipse cx="28.5" cy="402.8047" rx="3" ry="3" style="stroke:#038048;stroke-width:1.0;fill:none;"/><text fill="#000000" font-family="sans-serif" font-size="11" lengthAdjust="spacing" textLength="121" x="37.5" y="406.0151">frameFilter : Function</text><ellipse cx="28.5" cy="415.6094" rx="3" ry="3" style="stroke:#038048;stroke-width:1.0;fill:none;"/><text fill="#000000" font-family="sans-serif" font-size="11" lengthAdjust="spacing" textLength="113" x="37.5" y="418.8198">maxCount : number</text><ellipse cx="28.5" cy="428.4141" rx="3" ry="3" style="stroke:#038048;stroke-width:1.0;fill:none;"/><text fill="#000000" font-family="sans-serif" font-size="11" lengthAdjust="spacing" textLength="110" x="37.5" y="431.6245">minCount : number</text><ellipse cx="28.5" cy="441.2188" rx="3" ry="3" style="stroke:#038048;stroke-width:1.0;fill:none;"/><text fill="#000000" font-family="sans-serif" font-size="11" lengthAdjust="spacing" textLength="77" x="37.5" y="444.4292">name : string</text><ellipse cx="28.5" cy="454.0234" rx="3" ry="3" style="stroke:#038048;stroke-width:1.0;fill:none;"/><text fill="#000000" font-family="sans-serif" font-size="11" lengthAdjust="spacing" textLength="121" x="37.5" y="457.2339">objectFilter : Function</text><ellipse cx="28.5" cy="466.8281" rx="3" ry="3" style="stroke:#038048;stroke-width:1.0;fill:none;"/><text fill="#000000" font-family="sans-serif" font-size="11" lengthAdjust="spacing" textLength="99" x="37.5" y="470.0386">timeout : number</text><ellipse cx="28.5" cy="479.6328" rx="3" ry="3" style="stroke:#038048;stroke-width:1.0;fill:none;"/><text fill="#000000" font-family="sans-serif" font-size="11" lengthAdjust="spacing" textLength="127" x="37.5" y="482.8433">timeoutUnit : TimeUnit</text><ellipse cx="28.5" cy="492.4375" rx="3" ry="3" style="stroke:#038048;stroke-width:1.0;fill:none;"/><text fill="#000000" font-family="sans-serif" font-size="11" lengthAdjust="spacing" textLength="62" x="37.5" y="495.6479">uid : string</text><!--MD5=[92995e265f0d5469e7a4e6a7d4042a05]
reverse link ProcessingNodeOptions to MergeShapeOptions--><path codeLine="19" d="M95.5,105.51 C95.5,118.25 95.5,131.85 95.5,144.98 " fill="none" id="ProcessingNodeOptions-backto-MergeShapeOptions" style="stroke:#A80036;stroke-width:1.0;"/><polygon fill="none" points="88.5,105.12,95.5,85.12,102.5,105.12,88.5,105.12" style="stroke:#A80036;stroke-width:1.0;"/><!--MD5=[67bab153c3d185cc88e734e8c9e1d0bd]
reverse link MergeShapeOptions to ObjectMergeOptions--><path codeLine="31" d="M95.5,307.45 C95.5,320.57 95.5,333.96 95.5,346.77 " fill="none" id="MergeShapeOptions-backto-ObjectMergeOptions" style="stroke:#A80036;stroke-width:1.0;"/><polygon fill="none" points="88.5,307.2,95.5,287.2,102.5,307.2,88.5,307.2" style="stroke:#A80036;stroke-width:1.0;"/><!--MD5=[49bed33fb7521bbbab7b60bc38df7cec]
@startuml
skinparam BackgroundColor transparent
hide empty methods
hide empty fields
interface "MergeShapeOptions" {
    +checkInterval : number
    +frameFilter : Function
    +maxCount : number
    +minCount : number
    +name : string
    +timeout : number
    +timeoutUnit : TimeUnit
    +uid : string
}
interface "ProcessingNodeOptions" {
    +frameFilter : Function
    +name : string
    +uid : string
}
"ProcessingNodeOptions" <|- - "MergeShapeOptions"
interface "ObjectMergeOptions" {
    +checkInterval : number
    +frameFilter : Function
    +maxCount : number
    +minCount : number
    +name : string
    +objectFilter : Function
    +timeout : number
    +timeoutUnit : TimeUnit
    +uid : string
}
"MergeShapeOptions" <|- - "ObjectMergeOptions"
@enduml

PlantUML version 1.2021.14(Fri Nov 12 16:46:50 UTC 2021)
(GPL source distribution)
Java Runtime: OpenJDK Runtime Environment
JVM: OpenJDK 64-Bit Server VM
Default Encoding: UTF-8
Language: en
Country: null
--></g></svg>