<?xml version="1.0" encoding="us-ascii" standalone="no"?><svg xmlns="http://www.w3.org/2000/svg" xmlns:xlink="http://www.w3.org/1999/xlink" contentStyleType="text/css" height="138px" preserveAspectRatio="none" style="width:158px;height:138px;" version="1.1" viewBox="0 0 158 138" width="158px" zoomAndPan="magnify"><defs/><g><!--class Model<In, Out>--><g id="elem_Model&lt;In, Out&gt;"><rect codeLine="4" fill="#F1F1F1" height="32" id="Model&lt;In, Out&gt;" rx="2.5" ry="2.5" style="stroke:#181818;stroke-width:0.5;" width="144" x="7" y="99"/><ellipse cx="22" cy="115" fill="#B4A7E5" rx="11" ry="11" style="stroke:#181818;stroke-width:1.0;"/><path d="M17.9219,110.7656 L17.9219,108.6094 L25.3125,108.6094 L25.3125,110.7656 L22.8438,110.7656 L22.8438,118.8438 L25.3125,118.8438 L25.3125,121 L17.9219,121 L17.9219,118.8438 L20.3906,118.8438 L20.3906,110.7656 L17.9219,110.7656 Z " fill="#000000"/><text fill="#000000" font-family="sans-serif" font-size="14" font-style="italic" lengthAdjust="spacing" textLength="112" x="36" y="119.8467">Model&lt;In, Out&gt;</text></g><!--class Graph<In, Out>--><g id="elem_Graph&lt;In, Out&gt;"><rect codeLine="6" fill="#F1F1F1" height="32" id="Graph&lt;In, Out&gt;" rx="2.5" ry="2.5" style="stroke:#181818;stroke-width:0.5;" width="144" x="7" y="7"/><ellipse cx="22" cy="23" fill="#B4A7E5" rx="11" ry="11" style="stroke:#181818;stroke-width:1.0;"/><path d="M17.9219,18.7656 L17.9219,16.6094 L25.3125,16.6094 L25.3125,18.7656 L22.8438,18.7656 L22.8438,26.8438 L25.3125,26.8438 L25.3125,29 L17.9219,29 L17.9219,26.8438 L20.3906,26.8438 L20.3906,18.7656 L17.9219,18.7656 Z " fill="#000000"/><text fill="#000000" font-family="sans-serif" font-size="14" font-style="italic" lengthAdjust="spacing" textLength="112" x="36" y="27.8467">Graph&lt;In, Out&gt;</text></g><!--reverse link Graph<In, Out> to Model<In, Out>--><g id="link_Graph&lt;In, Out&gt;_Model&lt;In, Out&gt;"><path codeLine="8" d="M79,59.61 C79,73.31 79,88.22 79,98.96 " fill="none" id="Graph&lt;In, Out&gt;-backto-Model&lt;In, Out&gt;" style="stroke:#181818;stroke-width:1.0;"/><polygon fill="none" points="72,59.27,79,39.27,86,59.27,72,59.27" style="stroke:#181818;stroke-width:1.0;"/></g><!--SRC=[PSmn3eCm343HdLDOpEK6g4Cx80RKCrZ4a8Z4ZXmpeBPtXn71-f_qon8uesA25uxBhBAoUqiK1LFaSX2nLJuu0ahPDaXaNbmvfobGF4fW8vrm9AW7SHJRdX_mMUrPmxVwdxbJpFx2jzZ-ckPssW40]--></g></svg>