<?xml version="1.0" encoding="UTF-8" standalone="no"?><svg xmlns="http://www.w3.org/2000/svg" xmlns:xlink="http://www.w3.org/1999/xlink" contentScriptType="application/ecmascript" contentStyleType="text/css" height="145px" preserveAspectRatio="none" style="width:152px;height:145px;background:#00000000;" version="1.1" viewBox="0 0 152 145" width="152px" zoomAndPan="magnify"><defs><filter height="300%" id="f34he7mx9dvny" width="300%" x="-1" y="-1"><feGaussianBlur result="blurOut" stdDeviation="2.0"/><feColorMatrix in="blurOut" result="blurOut2" type="matrix" values="0 0 0 0 0 0 0 0 0 0 0 0 0 0 0 0 0 0 .4 0"/><feOffset dx="4.0" dy="4.0" in="blurOut2" result="blurOut3"/><feBlend in="SourceGraphic" in2="blurOut3" mode="normal"/></filter></defs><g><!--MD5=[298a7c550ddd075bd1f568d122c5a1aa]
class Model<In, Out>--><rect codeLine="4" fill="#FEFECE" filter="url(#f34he7mx9dvny)" height="32" id="Model&lt;In, Out&gt;" style="stroke:#A80036;stroke-width:1.5;" width="130" x="7.5" y="99"/><ellipse cx="22.5" cy="115" fill="#B4A7E5" rx="11" ry="11" style="stroke:#A80036;stroke-width:1.0;"/><path d="M18.4219,110.7656 L18.4219,108.6094 L25.8125,108.6094 L25.8125,110.7656 L23.3438,110.7656 L23.3438,118.8438 L25.8125,118.8438 L25.8125,121 L18.4219,121 L18.4219,118.8438 L20.8906,118.8438 L20.8906,110.7656 L18.4219,110.7656 Z " fill="#000000"/><text fill="#000000" font-family="sans-serif" font-size="12" font-style="italic" lengthAdjust="spacing" textLength="98" x="36.5" y="119.1543">Model&lt;In, Out&gt;</text><!--MD5=[54323c5910643495d668630485ab5d20]
class Graph<In, Out>--><rect codeLine="6" fill="#FEFECE" filter="url(#f34he7mx9dvny)" height="32" id="Graph&lt;In, Out&gt;" style="stroke:#A80036;stroke-width:1.5;" width="131" x="7" y="7"/><ellipse cx="22" cy="23" fill="#B4A7E5" rx="11" ry="11" style="stroke:#A80036;stroke-width:1.0;"/><path d="M17.9219,18.7656 L17.9219,16.6094 L25.3125,16.6094 L25.3125,18.7656 L22.8438,18.7656 L22.8438,26.8438 L25.3125,26.8438 L25.3125,29 L17.9219,29 L17.9219,26.8438 L20.3906,26.8438 L20.3906,18.7656 L17.9219,18.7656 Z " fill="#000000"/><text fill="#000000" font-family="sans-serif" font-size="12" font-style="italic" lengthAdjust="spacing" textLength="99" x="36" y="27.1543">Graph&lt;In, Out&gt;</text><!--MD5=[be34630ccbc1ea33a6c2991b81ed7bb5]
reverse link Graph<In, Out> to Model<In, Out>--><path codeLine="8" d="M72.5,59.61 C72.5,73.31 72.5,88.22 72.5,98.96 " fill="none" id="Graph&lt;In, Out&gt;-backto-Model&lt;In, Out&gt;" style="stroke:#A80036;stroke-width:1.0;"/><polygon fill="none" points="65.5,59.27,72.5,39.27,79.5,59.27,65.5,59.27" style="stroke:#A80036;stroke-width:1.0;"/><!--MD5=[997afb1402e59623a74fd6c8b6415b24]
@startuml
skinparam BackgroundColor transparent
hide empty methods
hide empty fields
interface "Model<In, Out>" {
}
interface "Graph<In, Out>" {
}
"Graph<In, Out>" <|- - "Model<In, Out>"
@enduml

PlantUML version 1.2021.14(Fri Nov 12 16:46:50 UTC 2021)
(GPL source distribution)
Java Runtime: OpenJDK Runtime Environment
JVM: OpenJDK 64-Bit Server VM
Default Encoding: UTF-8
Language: en
Country: null
--></g></svg>