<?xml version="1.0" encoding="UTF-8" standalone="no"?><svg xmlns="http://www.w3.org/2000/svg" xmlns:xlink="http://www.w3.org/1999/xlink" contentScriptType="application/ecmascript" contentStyleType="text/css" height="145px" preserveAspectRatio="none" style="width:237px;height:145px;background:#00000000;" version="1.1" viewBox="0 0 237 145" width="237px" zoomAndPan="magnify"><defs><filter height="300%" id="f1xmv1jf1vu8wu" width="300%" x="-1" y="-1"><feGaussianBlur result="blurOut" stdDeviation="2.0"/><feColorMatrix in="blurOut" result="blurOut2" type="matrix" values="0 0 0 0 0 0 0 0 0 0 0 0 0 0 0 0 0 0 .4 0"/><feOffset dx="4.0" dy="4.0" in="blurOut2" result="blurOut3"/><feBlend in="SourceGraphic" in2="blurOut3" mode="normal"/></filter></defs><g><!--MD5=[dcbb06bf6d85dfb234cc4f7d2171bc43]
class MultilaterationOptions--><rect codeLine="4" fill="#FEFECE" filter="url(#f1xmv1jf1vu8wu)" height="32" id="MultilaterationOptions" style="stroke:#A80036;stroke-width:1.5;" width="168" x="31" y="99"/><ellipse cx="46" cy="115" fill="#B4A7E5" rx="11" ry="11" style="stroke:#A80036;stroke-width:1.0;"/><path d="M41.9219,110.7656 L41.9219,108.6094 L49.3125,108.6094 L49.3125,110.7656 L46.8438,110.7656 L46.8438,118.8438 L49.3125,118.8438 L49.3125,121 L41.9219,121 L41.9219,118.8438 L44.3906,118.8438 L44.3906,110.7656 L41.9219,110.7656 Z " fill="#000000"/><text fill="#000000" font-family="sans-serif" font-size="12" font-style="italic" lengthAdjust="spacing" textLength="136" x="60" y="119.1543">MultilaterationOptions</text><!--MD5=[b53bc0b3a71be57c62241e847c2a99d4]
class ObjectProcessingNodeOptions--><rect codeLine="6" fill="#FEFECE" filter="url(#f1xmv1jf1vu8wu)" height="32" id="ObjectProcessingNodeOptions" style="stroke:#A80036;stroke-width:1.5;" width="216" x="7" y="7"/><ellipse cx="22" cy="23" fill="#B4A7E5" rx="11" ry="11" style="stroke:#A80036;stroke-width:1.0;"/><path d="M17.9219,18.7656 L17.9219,16.6094 L25.3125,16.6094 L25.3125,18.7656 L22.8438,18.7656 L22.8438,26.8438 L25.3125,26.8438 L25.3125,29 L17.9219,29 L17.9219,26.8438 L20.3906,26.8438 L20.3906,18.7656 L17.9219,18.7656 Z " fill="#000000"/><text fill="#000000" font-family="sans-serif" font-size="12" font-style="italic" lengthAdjust="spacing" textLength="184" x="36" y="27.1543">ObjectProcessingNodeOptions</text><!--MD5=[bee8a5cd30965e14bc0c448644c2589e]
reverse link ObjectProcessingNodeOptions to MultilaterationOptions--><path codeLine="8" d="M115,59.61 C115,73.31 115,88.22 115,98.96 " fill="none" id="ObjectProcessingNodeOptions-backto-MultilaterationOptions" style="stroke:#A80036;stroke-width:1.0;"/><polygon fill="none" points="108,59.27,115,39.27,122,59.27,108,59.27" style="stroke:#A80036;stroke-width:1.0;"/><!--MD5=[36616a1d8a316d0f15f9b8b9d20aa457]
@startuml
skinparam BackgroundColor transparent
hide empty methods
hide empty fields
interface "MultilaterationOptions" {
}
interface "ObjectProcessingNodeOptions" {
}
"ObjectProcessingNodeOptions" <|- - "MultilaterationOptions"
@enduml

PlantUML version 1.2021.14(Fri Nov 12 16:46:50 UTC 2021)
(GPL source distribution)
Java Runtime: OpenJDK Runtime Environment
JVM: OpenJDK 64-Bit Server VM
Default Encoding: UTF-8
Language: en
Country: null
--></g></svg>