<?xml version="1.0" encoding="us-ascii" standalone="no"?><svg xmlns="http://www.w3.org/2000/svg" xmlns:xlink="http://www.w3.org/1999/xlink" contentStyleType="text/css" height="138px" preserveAspectRatio="none" style="width:256px;height:138px;" version="1.1" viewBox="0 0 256 138" width="256px" zoomAndPan="magnify"><defs/><g><!--class MultilaterationOptions--><g id="elem_MultilaterationOptions"><rect codeLine="4" fill="#F1F1F1" height="32" id="MultilaterationOptions" rx="2.5" ry="2.5" style="stroke:#181818;stroke-width:0.5;" width="181" x="37.5" y="99"/><ellipse cx="52.5" cy="115" fill="#B4A7E5" rx="11" ry="11" style="stroke:#181818;stroke-width:1.0;"/><path d="M48.4219,110.7656 L48.4219,108.6094 L55.8125,108.6094 L55.8125,110.7656 L53.3438,110.7656 L53.3438,118.8438 L55.8125,118.8438 L55.8125,121 L48.4219,121 L48.4219,118.8438 L50.8906,118.8438 L50.8906,110.7656 L48.4219,110.7656 Z " fill="#000000"/><text fill="#000000" font-family="sans-serif" font-size="14" font-style="italic" lengthAdjust="spacing" textLength="149" x="66.5" y="119.8467">MultilaterationOptions</text></g><!--class ObjectProcessingNodeOptions--><g id="elem_ObjectProcessingNodeOptions"><rect codeLine="6" fill="#F1F1F1" height="32" id="ObjectProcessingNodeOptions" rx="2.5" ry="2.5" style="stroke:#181818;stroke-width:0.5;" width="242" x="7" y="7"/><ellipse cx="22" cy="23" fill="#B4A7E5" rx="11" ry="11" style="stroke:#181818;stroke-width:1.0;"/><path d="M17.9219,18.7656 L17.9219,16.6094 L25.3125,16.6094 L25.3125,18.7656 L22.8438,18.7656 L22.8438,26.8438 L25.3125,26.8438 L25.3125,29 L17.9219,29 L17.9219,26.8438 L20.3906,26.8438 L20.3906,18.7656 L17.9219,18.7656 Z " fill="#000000"/><text fill="#000000" font-family="sans-serif" font-size="14" font-style="italic" lengthAdjust="spacing" textLength="210" x="36" y="27.8467">ObjectProcessingNodeOptions</text></g><!--reverse link ObjectProcessingNodeOptions to MultilaterationOptions--><g id="link_ObjectProcessingNodeOptions_MultilaterationOptions"><path codeLine="8" d="M128,59.61 C128,73.31 128,88.22 128,98.96 " fill="none" id="ObjectProcessingNodeOptions-backto-MultilaterationOptions" style="stroke:#181818;stroke-width:1.0;"/><polygon fill="none" points="121,59.27,128,39.27,135,59.27,121,59.27" style="stroke:#181818;stroke-width:1.0;"/></g><!--SRC=[VOqn3i9030JxlC9AdnzGGGtX2-REIKpkxCZd517mTuuk5D2ijBCZRPbP5ZJCSCGmZwQhn9CcDN13ANKYyMRYI41vyGqo-QInxD70b2fXSR810q5xNfDpmjhHMQLVFbbQU3IllTRVxXJyQXge59Rnef6-tF_6uTbrFx_U]--></g></svg>