<?xml version="1.0" encoding="UTF-8" standalone="no"?><svg xmlns="http://www.w3.org/2000/svg" xmlns:xlink="http://www.w3.org/1999/xlink" contentScriptType="application/ecmascript" contentStyleType="text/css" height="145px" preserveAspectRatio="none" style="width:380px;height:145px;background:#00000000;" version="1.1" viewBox="0 0 380 145" width="380px" zoomAndPan="magnify"><defs><filter height="300%" id="f1e8a9r4elbqjq" width="300%" x="-1" y="-1"><feGaussianBlur result="blurOut" stdDeviation="2.0"/><feColorMatrix in="blurOut" result="blurOut2" type="matrix" values="0 0 0 0 0 0 0 0 0 0 0 0 0 0 0 0 0 0 .4 0"/><feOffset dx="4.0" dy="4.0" in="blurOut2" result="blurOut3"/><feBlend in="SourceGraphic" in2="blurOut3" mode="normal"/></filter></defs><g><!--MD5=[ea0196c07330cea4578b4760011abaa5]
class MultilaterationNode<InOut>--><rect codeLine="4" fill="#FEFECE" filter="url(#f1e8a9r4elbqjq)" height="32" id="MultilaterationNode&lt;InOut&gt;" style="stroke:#A80036;stroke-width:1.5;" width="208" x="82.5" y="99"/><ellipse cx="97.5" cy="115" fill="#ADD1B2" rx="11" ry="11" style="stroke:#A80036;stroke-width:1.0;"/><path d="M100.4688,120.6406 Q99.8906,120.9375 99.25,121.0781 Q98.6094,121.2344 97.9063,121.2344 Q95.4063,121.2344 94.0781,119.5938 Q92.7656,117.9375 92.7656,114.8125 Q92.7656,111.6875 94.0781,110.0313 Q95.4063,108.375 97.9063,108.375 Q98.6094,108.375 99.25,108.5313 Q99.9063,108.6875 100.4688,108.9844 L100.4688,111.7031 Q99.8438,111.125 99.25,110.8594 Q98.6563,110.5781 98.0313,110.5781 Q96.6875,110.5781 96,111.6563 Q95.3125,112.7188 95.3125,114.8125 Q95.3125,116.9063 96,117.9844 Q96.6875,119.0469 98.0313,119.0469 Q98.6563,119.0469 99.25,118.7813 Q99.8438,118.5 100.4688,117.9219 L100.4688,120.6406 Z " fill="#000000"/><text fill="#000000" font-family="sans-serif" font-size="12" lengthAdjust="spacing" textLength="176" x="111.5" y="119.1543">MultilaterationNode&lt;InOut&gt;</text><!--MD5=[5ee0ba2e13c098ddf7aec5a4aa62c115]
class RelativePositionProcessing<InOut, RelativeDistance>--><rect codeLine="6" fill="#FEFECE" filter="url(#f1e8a9r4elbqjq)" height="32" id="RelativePositionProcessing&lt;InOut, RelativeDistance&gt;" style="stroke:#A80036;stroke-width:1.5;" width="359" x="7" y="7"/><ellipse cx="22" cy="23" fill="#A9DCDF" rx="11" ry="11" style="stroke:#A80036;stroke-width:1.0;"/><path d="M22.1094,18.3438 L20.9531,23.4219 L23.2813,23.4219 L22.1094,18.3438 Z M20.625,16.1094 L23.6094,16.1094 L26.9688,28.5 L24.5156,28.5 L23.75,25.4375 L20.4688,25.4375 L19.7188,28.5 L17.2813,28.5 L20.625,16.1094 Z " fill="#000000"/><text fill="#000000" font-family="sans-serif" font-size="12" font-style="italic" lengthAdjust="spacing" textLength="327" x="36" y="27.1543">RelativePositionProcessing&lt;InOut, RelativeDistance&gt;</text><!--MD5=[1a3746f4894f6cbfeb7bc9bc7709dc58]
reverse link RelativePositionProcessing<InOut, RelativeDistance> to MultilaterationNode<InOut>--><path codeLine="8" d="M186.5,59.61 C186.5,73.31 186.5,88.22 186.5,98.96 " fill="none" id="RelativePositionProcessing&lt;InOut, RelativeDistance&gt;-backto-MultilaterationNode&lt;InOut&gt;" style="stroke:#A80036;stroke-width:1.0;"/><polygon fill="none" points="179.5,59.27,186.5,39.27,193.5,59.27,179.5,59.27" style="stroke:#A80036;stroke-width:1.0;"/><!--MD5=[15445a09c50604cf5d882f50456c8e79]
@startuml
skinparam BackgroundColor transparent
hide empty methods
hide empty fields
class "MultilaterationNode<InOut>" {
}
abstract class "RelativePositionProcessing<InOut, RelativeDistance>" {
}
"RelativePositionProcessing<InOut, RelativeDistance>" <|- - "MultilaterationNode<InOut>"
@enduml

PlantUML version 1.2021.14(Fri Nov 12 16:46:50 UTC 2021)
(GPL source distribution)
Java Runtime: OpenJDK Runtime Environment
JVM: OpenJDK 64-Bit Server VM
Default Encoding: UTF-8
Language: en
Country: null
--></g></svg>