<?xml version="1.0" encoding="UTF-8" standalone="no"?><svg xmlns="http://www.w3.org/2000/svg" xmlns:xlink="http://www.w3.org/1999/xlink" contentScriptType="application/ecmascript" contentStyleType="text/css" height="340px" preserveAspectRatio="none" style="width:237px;height:340px;background:#00000000;" version="1.1" viewBox="0 0 237 340" width="237px" zoomAndPan="magnify"><defs><filter height="300%" id="f1odrly3mobv47" width="300%" x="-1" y="-1"><feGaussianBlur result="blurOut" stdDeviation="2.0"/><feColorMatrix in="blurOut" result="blurOut2" type="matrix" values="0 0 0 0 0 0 0 0 0 0 0 0 0 0 0 0 0 0 .4 0"/><feOffset dx="4.0" dy="4.0" in="blurOut2" result="blurOut3"/><feBlend in="SourceGraphic" in2="blurOut3" mode="normal"/></filter></defs><g><!--MD5=[dcbb06bf6d85dfb234cc4f7d2171bc43]
class MultilaterationOptions--><rect codeLine="4" fill="#FEFECE" filter="url(#f1odrly3mobv47)" height="168.0469" id="MultilaterationOptions" style="stroke:#A80036;stroke-width:1.5;" width="170" x="30" y="158"/><ellipse cx="45.9" cy="174" fill="#B4A7E5" rx="11" ry="11" style="stroke:#A80036;stroke-width:1.0;"/><path d="M41.8219,169.7656 L41.8219,167.6094 L49.2125,167.6094 L49.2125,169.7656 L46.7438,169.7656 L46.7438,177.8438 L49.2125,177.8438 L49.2125,180 L41.8219,180 L41.8219,177.8438 L44.2906,177.8438 L44.2906,169.7656 L41.8219,169.7656 Z " fill="#000000"/><text fill="#000000" font-family="sans-serif" font-size="12" font-style="italic" lengthAdjust="spacing" textLength="136" x="60.1" y="178.1543">MultilaterationOptions</text><line style="stroke:#A80036;stroke-width:1.5;" x1="31" x2="199" y1="190" y2="190"/><ellipse cx="41" cy="201" rx="3" ry="3" style="stroke:#038048;stroke-width:1.0;fill:none;"/><text fill="#000000" font-family="sans-serif" font-size="11" lengthAdjust="spacing" textLength="121" x="50" y="204.2104">frameFilter : Function</text><ellipse cx="41" cy="213.8047" rx="3" ry="3" style="stroke:#038048;stroke-width:1.0;fill:none;"/><text fill="#000000" font-family="sans-serif" font-size="11" lengthAdjust="spacing" textLength="139" x="50" y="217.0151">incrementStep : number</text><ellipse cx="41" cy="226.6094" rx="3" ry="3" style="stroke:#038048;stroke-width:1.0;fill:none;"/><text fill="#000000" font-family="sans-serif" font-size="11" lengthAdjust="spacing" textLength="134" x="50" y="229.8198">maxIterations : number</text><ellipse cx="41" cy="239.4141" rx="3" ry="3" style="stroke:#038048;stroke-width:1.0;fill:none;"/><text fill="#000000" font-family="sans-serif" font-size="11" lengthAdjust="spacing" textLength="144" x="50" y="242.6245">maxReferences : number</text><ellipse cx="41" cy="252.2188" rx="3" ry="3" style="stroke:#038048;stroke-width:1.0;fill:none;"/><text fill="#000000" font-family="sans-serif" font-size="11" lengthAdjust="spacing" textLength="141" x="50" y="255.4292">minReferences : number</text><ellipse cx="41" cy="265.0234" rx="3" ry="3" style="stroke:#038048;stroke-width:1.0;fill:none;"/><text fill="#000000" font-family="sans-serif" font-size="11" lengthAdjust="spacing" textLength="77" x="50" y="268.2339">name : string</text><ellipse cx="41" cy="277.8281" rx="3" ry="3" style="stroke:#038048;stroke-width:1.0;fill:none;"/><text fill="#000000" font-family="sans-serif" font-size="11" lengthAdjust="spacing" textLength="123" x="50" y="281.0386">nlsFunction : Function</text><ellipse cx="41" cy="290.6328" rx="3" ry="3" style="stroke:#038048;stroke-width:1.0;fill:none;"/><text fill="#000000" font-family="sans-serif" font-size="11" lengthAdjust="spacing" textLength="121" x="50" y="293.8433">objectFilter : Function</text><ellipse cx="41" cy="303.4375" rx="3" ry="3" style="stroke:#038048;stroke-width:1.0;fill:none;"/><text fill="#000000" font-family="sans-serif" font-size="11" lengthAdjust="spacing" textLength="110" x="50" y="306.6479">preferNls : boolean</text><ellipse cx="41" cy="316.2422" rx="3" ry="3" style="stroke:#038048;stroke-width:1.0;fill:none;"/><text fill="#000000" font-family="sans-serif" font-size="11" lengthAdjust="spacing" textLength="62" x="50" y="319.4526">uid : string</text><!--MD5=[b53bc0b3a71be57c62241e847c2a99d4]
class ObjectProcessingNodeOptions--><rect codeLine="16" fill="#FEFECE" filter="url(#f1odrly3mobv47)" height="91.2188" id="ObjectProcessingNodeOptions" style="stroke:#A80036;stroke-width:1.5;" width="216" x="7" y="7"/><ellipse cx="22" cy="23" fill="#B4A7E5" rx="11" ry="11" style="stroke:#A80036;stroke-width:1.0;"/><path d="M17.9219,18.7656 L17.9219,16.6094 L25.3125,16.6094 L25.3125,18.7656 L22.8438,18.7656 L22.8438,26.8438 L25.3125,26.8438 L25.3125,29 L17.9219,29 L17.9219,26.8438 L20.3906,26.8438 L20.3906,18.7656 L17.9219,18.7656 Z " fill="#000000"/><text fill="#000000" font-family="sans-serif" font-size="12" font-style="italic" lengthAdjust="spacing" textLength="184" x="36" y="27.1543">ObjectProcessingNodeOptions</text><line style="stroke:#A80036;stroke-width:1.5;" x1="8" x2="222" y1="39" y2="39"/><ellipse cx="18" cy="50" rx="3" ry="3" style="stroke:#038048;stroke-width:1.0;fill:none;"/><text fill="#000000" font-family="sans-serif" font-size="11" lengthAdjust="spacing" textLength="121" x="27" y="53.2104">frameFilter : Function</text><ellipse cx="18" cy="62.8047" rx="3" ry="3" style="stroke:#038048;stroke-width:1.0;fill:none;"/><text fill="#000000" font-family="sans-serif" font-size="11" lengthAdjust="spacing" textLength="77" x="27" y="66.0151">name : string</text><ellipse cx="18" cy="75.6094" rx="3" ry="3" style="stroke:#038048;stroke-width:1.0;fill:none;"/><text fill="#000000" font-family="sans-serif" font-size="11" lengthAdjust="spacing" textLength="121" x="27" y="78.8198">objectFilter : Function</text><ellipse cx="18" cy="88.4141" rx="3" ry="3" style="stroke:#038048;stroke-width:1.0;fill:none;"/><text fill="#000000" font-family="sans-serif" font-size="11" lengthAdjust="spacing" textLength="62" x="27" y="91.6245">uid : string</text><!--MD5=[bee8a5cd30965e14bc0c448644c2589e]
reverse link ObjectProcessingNodeOptions to MultilaterationOptions--><path codeLine="22" d="M115,118.77 C115,131.41 115,144.81 115,157.92 " fill="none" id="ObjectProcessingNodeOptions-backto-MultilaterationOptions" style="stroke:#A80036;stroke-width:1.0;"/><polygon fill="none" points="108,118.41,115,98.41,122,118.41,108,118.41" style="stroke:#A80036;stroke-width:1.0;"/><!--MD5=[529a16692c10eb4e51185ef0f0fb2b22]
@startuml
skinparam BackgroundColor transparent
hide empty methods
hide empty fields
interface "MultilaterationOptions" {
    +frameFilter : Function
    +incrementStep : number
    +maxIterations : number
    +maxReferences : number
    +minReferences : number
    +name : string
    +nlsFunction : Function
    +objectFilter : Function
    +preferNls : boolean
    +uid : string
}
interface "ObjectProcessingNodeOptions" {
    +frameFilter : Function
    +name : string
    +objectFilter : Function
    +uid : string
}
"ObjectProcessingNodeOptions" <|- - "MultilaterationOptions"
@enduml

PlantUML version 1.2021.14(Fri Nov 12 16:46:50 UTC 2021)
(GPL source distribution)
Java Runtime: OpenJDK Runtime Environment
JVM: OpenJDK 64-Bit Server VM
Default Encoding: UTF-8
Language: en
Country: null
--></g></svg>