<?xml version="1.0" encoding="UTF-8" standalone="no"?><svg xmlns="http://www.w3.org/2000/svg" xmlns:xlink="http://www.w3.org/1999/xlink" contentScriptType="application/ecmascript" contentStyleType="text/css" height="857px" preserveAspectRatio="none" style="width:714px;height:857px;background:#00000000;" version="1.1" viewBox="0 0 714 857" width="714px" zoomAndPan="magnify"><defs><filter height="300%" id="f1d9kso7xwbxkz" width="300%" x="-1" y="-1"><feGaussianBlur result="blurOut" stdDeviation="2.0"/><feColorMatrix in="blurOut" result="blurOut2" type="matrix" values="0 0 0 0 0 0 0 0 0 0 0 0 0 0 0 0 0 0 .4 0"/><feOffset dx="4.0" dy="4.0" in="blurOut2" result="blurOut3"/><feBlend in="SourceGraphic" in2="blurOut3" mode="normal"/></filter></defs><g><!--MD5=[1f35e560ec16ab5e3b805489929ed19a]
class Node<In, Out>--><rect codeLine="5" fill="#FEFECE" filter="url(#f1d9kso7xwbxkz)" height="32" id="Node&lt;In, Out&gt;" style="stroke:#A80036;stroke-width:1.5;" width="126" x="205" y="409"/><ellipse cx="220" cy="425" fill="#ADD1B2" rx="11" ry="11" style="stroke:#A80036;stroke-width:1.0;"/><path d="M222.9688,430.6406 Q222.3906,430.9375 221.75,431.0781 Q221.1094,431.2344 220.4063,431.2344 Q217.9063,431.2344 216.5781,429.5938 Q215.2656,427.9375 215.2656,424.8125 Q215.2656,421.6875 216.5781,420.0313 Q217.9063,418.375 220.4063,418.375 Q221.1094,418.375 221.75,418.5313 Q222.4063,418.6875 222.9688,418.9844 L222.9688,421.7031 Q222.3438,421.125 221.75,420.8594 Q221.1563,420.5781 220.5313,420.5781 Q219.1875,420.5781 218.5,421.6563 Q217.8125,422.7188 217.8125,424.8125 Q217.8125,426.9063 218.5,427.9844 Q219.1875,429.0469 220.5313,429.0469 Q221.1563,429.0469 221.75,428.7813 Q222.3438,428.5 222.9688,427.9219 L222.9688,430.6406 Z " fill="#000000"/><text fill="#000000" font-family="sans-serif" font-size="12" lengthAdjust="spacing" textLength="94" x="234" y="429.1543">Node&lt;In, Out&gt;</text><!--MD5=[170c92654dda4ed4637a63a10e48a1a3]
class GraphNode<In, Out>--><rect codeLine="7" fill="#FEFECE" filter="url(#f1d9kso7xwbxkz)" height="23.9688" id="GraphNode&lt;In, Out&gt;" style="stroke:#A80036;stroke-width:1.5;" width="138" x="7" y="413"/><text fill="#000000" font-family="sans-serif" font-size="12" lengthAdjust="spacing" textLength="132" x="10" y="429.1387">GraphNode&lt;In, Out&gt;</text><!--MD5=[03f896312f5a88d7ebc773b69c4c83f6]
class SinkNode<DataFrame>--><rect codeLine="10" fill="#FEFECE" filter="url(#f1d9kso7xwbxkz)" height="32" id="SinkNode&lt;DataFrame&gt;" style="stroke:#A80036;stroke-width:1.5;" width="180" x="455.5" y="7"/><ellipse cx="470.5" cy="23" fill="#A9DCDF" rx="11" ry="11" style="stroke:#A80036;stroke-width:1.0;"/><path d="M470.6094,18.3438 L469.4531,23.4219 L471.7813,23.4219 L470.6094,18.3438 Z M469.125,16.1094 L472.1094,16.1094 L475.4688,28.5 L473.0156,28.5 L472.25,25.4375 L468.9688,25.4375 L468.2188,28.5 L465.7813,28.5 L469.125,16.1094 Z " fill="#000000"/><text fill="#000000" font-family="sans-serif" font-size="12" font-style="italic" lengthAdjust="spacing" textLength="148" x="484.5" y="27.1543">SinkNode&lt;DataFrame&gt;</text><!--MD5=[e5f875f82b3930ebdc4ff05751a1280a]
class SourceNode<DataFrame>--><rect codeLine="13" fill="#FEFECE" filter="url(#f1d9kso7xwbxkz)" height="32" id="SourceNode&lt;DataFrame&gt;" style="stroke:#A80036;stroke-width:1.5;" width="198" x="446.5" y="74"/><ellipse cx="461.5" cy="90" fill="#A9DCDF" rx="11" ry="11" style="stroke:#A80036;stroke-width:1.0;"/><path d="M461.6094,85.3438 L460.4531,90.4219 L462.7813,90.4219 L461.6094,85.3438 Z M460.125,83.1094 L463.1094,83.1094 L466.4688,95.5 L464.0156,95.5 L463.25,92.4375 L459.9688,92.4375 L459.2188,95.5 L456.7813,95.5 L460.125,83.1094 Z " fill="#000000"/><text fill="#000000" font-family="sans-serif" font-size="12" font-style="italic" lengthAdjust="spacing" textLength="166" x="475.5" y="94.1543">SourceNode&lt;DataFrame&gt;</text><!--MD5=[a8bb081b5e3ac259779e78b844e55417]
class BalanceNode<InOut>--><rect codeLine="16" fill="#FEFECE" filter="url(#f1d9kso7xwbxkz)" height="32" id="BalanceNode&lt;InOut&gt;" style="stroke:#A80036;stroke-width:1.5;" width="168" x="461.5" y="141"/><ellipse cx="476.5" cy="157" fill="#ADD1B2" rx="11" ry="11" style="stroke:#A80036;stroke-width:1.0;"/><path d="M479.4688,162.6406 Q478.8906,162.9375 478.25,163.0781 Q477.6094,163.2344 476.9063,163.2344 Q474.4063,163.2344 473.0781,161.5938 Q471.7656,159.9375 471.7656,156.8125 Q471.7656,153.6875 473.0781,152.0313 Q474.4063,150.375 476.9063,150.375 Q477.6094,150.375 478.25,150.5313 Q478.9063,150.6875 479.4688,150.9844 L479.4688,153.7031 Q478.8438,153.125 478.25,152.8594 Q477.6563,152.5781 477.0313,152.5781 Q475.6875,152.5781 475,153.6563 Q474.3125,154.7188 474.3125,156.8125 Q474.3125,158.9063 475,159.9844 Q475.6875,161.0469 477.0313,161.0469 Q477.6563,161.0469 478.25,160.7813 Q478.8438,160.5 479.4688,159.9219 L479.4688,162.6406 Z " fill="#000000"/><text fill="#000000" font-family="sans-serif" font-size="12" lengthAdjust="spacing" textLength="136" x="490.5" y="161.1543">BalanceNode&lt;InOut&gt;</text><!--MD5=[b4666188cfc8b763e60c6f943dbb6792]
class TimedPullNode<InOut>--><rect codeLine="19" fill="#FEFECE" filter="url(#f1d9kso7xwbxkz)" height="32" id="TimedPullNode&lt;InOut&gt;" style="stroke:#A80036;stroke-width:1.5;" width="177" x="457" y="208"/><ellipse cx="472" cy="224" fill="#ADD1B2" rx="11" ry="11" style="stroke:#A80036;stroke-width:1.0;"/><path d="M474.9688,229.6406 Q474.3906,229.9375 473.75,230.0781 Q473.1094,230.2344 472.4063,230.2344 Q469.9063,230.2344 468.5781,228.5938 Q467.2656,226.9375 467.2656,223.8125 Q467.2656,220.6875 468.5781,219.0313 Q469.9063,217.375 472.4063,217.375 Q473.1094,217.375 473.75,217.5313 Q474.4063,217.6875 474.9688,217.9844 L474.9688,220.7031 Q474.3438,220.125 473.75,219.8594 Q473.1563,219.5781 472.5313,219.5781 Q471.1875,219.5781 470.5,220.6563 Q469.8125,221.7188 469.8125,223.8125 Q469.8125,225.9063 470.5,226.9844 Q471.1875,228.0469 472.5313,228.0469 Q473.1563,228.0469 473.75,227.7813 Q474.3438,227.5 474.9688,226.9219 L474.9688,229.6406 Z " fill="#000000"/><text fill="#000000" font-family="sans-serif" font-size="12" lengthAdjust="spacing" textLength="145" x="486" y="228.1543">TimedPullNode&lt;InOut&gt;</text><!--MD5=[4d3f355e1cb2a7292a59b88e9dfa8575]
class FrameFlattenNode<InOut>--><rect codeLine="22" fill="#FEFECE" filter="url(#f1d9kso7xwbxkz)" height="32" id="FrameFlattenNode&lt;InOut&gt;" style="stroke:#A80036;stroke-width:1.5;" width="201" x="445" y="275"/><ellipse cx="460" cy="291" fill="#ADD1B2" rx="11" ry="11" style="stroke:#A80036;stroke-width:1.0;"/><path d="M462.9688,296.6406 Q462.3906,296.9375 461.75,297.0781 Q461.1094,297.2344 460.4063,297.2344 Q457.9063,297.2344 456.5781,295.5938 Q455.2656,293.9375 455.2656,290.8125 Q455.2656,287.6875 456.5781,286.0313 Q457.9063,284.375 460.4063,284.375 Q461.1094,284.375 461.75,284.5313 Q462.4063,284.6875 462.9688,284.9844 L462.9688,287.7031 Q462.3438,287.125 461.75,286.8594 Q461.1563,286.5781 460.5313,286.5781 Q459.1875,286.5781 458.5,287.6563 Q457.8125,288.7188 457.8125,290.8125 Q457.8125,292.9063 458.5,293.9844 Q459.1875,295.0469 460.5313,295.0469 Q461.1563,295.0469 461.75,294.7813 Q462.3438,294.5 462.9688,293.9219 L462.9688,296.6406 Z " fill="#000000"/><text fill="#000000" font-family="sans-serif" font-size="12" lengthAdjust="spacing" textLength="169" x="474" y="295.1543">FrameFlattenNode&lt;InOut&gt;</text><!--MD5=[ce78c125914c70c55342f015eed851a8]
class FrameChunkNode<InOut>--><rect codeLine="25" fill="#FEFECE" filter="url(#f1d9kso7xwbxkz)" height="32" id="FrameChunkNode&lt;InOut&gt;" style="stroke:#A80036;stroke-width:1.5;" width="196" x="447.5" y="342"/><ellipse cx="462.5" cy="358" fill="#ADD1B2" rx="11" ry="11" style="stroke:#A80036;stroke-width:1.0;"/><path d="M465.4688,363.6406 Q464.8906,363.9375 464.25,364.0781 Q463.6094,364.2344 462.9063,364.2344 Q460.4063,364.2344 459.0781,362.5938 Q457.7656,360.9375 457.7656,357.8125 Q457.7656,354.6875 459.0781,353.0313 Q460.4063,351.375 462.9063,351.375 Q463.6094,351.375 464.25,351.5313 Q464.9063,351.6875 465.4688,351.9844 L465.4688,354.7031 Q464.8438,354.125 464.25,353.8594 Q463.6563,353.5781 463.0313,353.5781 Q461.6875,353.5781 461,354.6563 Q460.3125,355.7188 460.3125,357.8125 Q460.3125,359.9063 461,360.9844 Q461.6875,362.0469 463.0313,362.0469 Q463.6563,362.0469 464.25,361.7813 Q464.8438,361.5 465.4688,360.9219 L465.4688,363.6406 Z " fill="#000000"/><text fill="#000000" font-family="sans-serif" font-size="12" lengthAdjust="spacing" textLength="164" x="476.5" y="362.1543">FrameChunkNode&lt;InOut&gt;</text><!--MD5=[54733ab05bae8161425106c115541927]
class FrameCloneNode<InOut>--><rect codeLine="28" fill="#FEFECE" filter="url(#f1d9kso7xwbxkz)" height="32" id="FrameCloneNode&lt;InOut&gt;" style="stroke:#A80036;stroke-width:1.5;" width="192" x="449.5" y="409"/><ellipse cx="464.5" cy="425" fill="#ADD1B2" rx="11" ry="11" style="stroke:#A80036;stroke-width:1.0;"/><path d="M467.4688,430.6406 Q466.8906,430.9375 466.25,431.0781 Q465.6094,431.2344 464.9063,431.2344 Q462.4063,431.2344 461.0781,429.5938 Q459.7656,427.9375 459.7656,424.8125 Q459.7656,421.6875 461.0781,420.0313 Q462.4063,418.375 464.9063,418.375 Q465.6094,418.375 466.25,418.5313 Q466.9063,418.6875 467.4688,418.9844 L467.4688,421.7031 Q466.8438,421.125 466.25,420.8594 Q465.6563,420.5781 465.0313,420.5781 Q463.6875,420.5781 463,421.6563 Q462.3125,422.7188 462.3125,424.8125 Q462.3125,426.9063 463,427.9844 Q463.6875,429.0469 465.0313,429.0469 Q465.6563,429.0469 466.25,428.7813 Q466.8438,428.5 467.4688,427.9219 L467.4688,430.6406 Z " fill="#000000"/><text fill="#000000" font-family="sans-serif" font-size="12" lengthAdjust="spacing" textLength="160" x="478.5" y="429.1543">FrameCloneNode&lt;InOut&gt;</text><!--MD5=[de208f4723c96b89531bbea246460187]
class BufferNode<InOut>--><rect codeLine="31" fill="#FEFECE" filter="url(#f1d9kso7xwbxkz)" height="32" id="BufferNode&lt;InOut&gt;" style="stroke:#A80036;stroke-width:1.5;" width="155" x="468" y="476"/><ellipse cx="483" cy="492" fill="#ADD1B2" rx="11" ry="11" style="stroke:#A80036;stroke-width:1.0;"/><path d="M485.9688,497.6406 Q485.3906,497.9375 484.75,498.0781 Q484.1094,498.2344 483.4063,498.2344 Q480.9063,498.2344 479.5781,496.5938 Q478.2656,494.9375 478.2656,491.8125 Q478.2656,488.6875 479.5781,487.0313 Q480.9063,485.375 483.4063,485.375 Q484.1094,485.375 484.75,485.5313 Q485.4063,485.6875 485.9688,485.9844 L485.9688,488.7031 Q485.3438,488.125 484.75,487.8594 Q484.1563,487.5781 483.5313,487.5781 Q482.1875,487.5781 481.5,488.6563 Q480.8125,489.7188 480.8125,491.8125 Q480.8125,493.9063 481.5,494.9844 Q482.1875,496.0469 483.5313,496.0469 Q484.1563,496.0469 484.75,495.7813 Q485.3438,495.5 485.9688,494.9219 L485.9688,497.6406 Z " fill="#000000"/><text fill="#000000" font-family="sans-serif" font-size="12" lengthAdjust="spacing" textLength="123" x="497" y="496.1543">BufferNode&lt;InOut&gt;</text><!--MD5=[494678b2b121b2444c97971288cf2a66]
class ProcessingNode<DataFrame, DataFrame>--><rect codeLine="34" fill="#FEFECE" filter="url(#f1d9kso7xwbxkz)" height="32" id="ProcessingNode&lt;DataFrame, DataFrame&gt;" style="stroke:#A80036;stroke-width:1.5;" width="297" x="397" y="543"/><ellipse cx="412" cy="559" fill="#A9DCDF" rx="11" ry="11" style="stroke:#A80036;stroke-width:1.0;"/><path d="M412.1094,554.3438 L410.9531,559.4219 L413.2813,559.4219 L412.1094,554.3438 Z M410.625,552.1094 L413.6094,552.1094 L416.9688,564.5 L414.5156,564.5 L413.75,561.4375 L410.4688,561.4375 L409.7188,564.5 L407.2813,564.5 L410.625,552.1094 Z " fill="#000000"/><text fill="#000000" font-family="sans-serif" font-size="12" font-style="italic" lengthAdjust="spacing" textLength="265" x="426" y="563.1543">ProcessingNode&lt;DataFrame, DataFrame&gt;</text><!--MD5=[1b1ddfcaee985bb106ae4ceba1d1dace]
class WorkerNode<In, Out>--><rect codeLine="37" fill="#FEFECE" filter="url(#f1d9kso7xwbxkz)" height="32" id="WorkerNode&lt;In, Out&gt;" style="stroke:#A80036;stroke-width:1.5;" width="170" x="460.5" y="610"/><ellipse cx="475.5" cy="626" fill="#ADD1B2" rx="11" ry="11" style="stroke:#A80036;stroke-width:1.0;"/><path d="M478.4688,631.6406 Q477.8906,631.9375 477.25,632.0781 Q476.6094,632.2344 475.9063,632.2344 Q473.4063,632.2344 472.0781,630.5938 Q470.7656,628.9375 470.7656,625.8125 Q470.7656,622.6875 472.0781,621.0313 Q473.4063,619.375 475.9063,619.375 Q476.6094,619.375 477.25,619.5313 Q477.9063,619.6875 478.4688,619.9844 L478.4688,622.7031 Q477.8438,622.125 477.25,621.8594 Q476.6563,621.5781 476.0313,621.5781 Q474.6875,621.5781 474,622.6563 Q473.3125,623.7188 473.3125,625.8125 Q473.3125,627.9063 474,628.9844 Q474.6875,630.0469 476.0313,630.0469 Q476.6563,630.0469 477.25,629.7813 Q477.8438,629.5 478.4688,628.9219 L478.4688,631.6406 Z " fill="#000000"/><text fill="#000000" font-family="sans-serif" font-size="12" lengthAdjust="spacing" textLength="138" x="489.5" y="630.1543">WorkerNode&lt;In, Out&gt;</text><!--MD5=[0f2a77721e99c940ad3627d52b42bd63]
class CallbackNode<InOut>--><rect codeLine="40" fill="#FEFECE" filter="url(#f1d9kso7xwbxkz)" height="32" id="CallbackNode&lt;InOut&gt;" style="stroke:#A80036;stroke-width:1.5;" width="170" x="460.5" y="677"/><ellipse cx="475.5" cy="693" fill="#ADD1B2" rx="11" ry="11" style="stroke:#A80036;stroke-width:1.0;"/><path d="M478.4688,698.6406 Q477.8906,698.9375 477.25,699.0781 Q476.6094,699.2344 475.9063,699.2344 Q473.4063,699.2344 472.0781,697.5938 Q470.7656,695.9375 470.7656,692.8125 Q470.7656,689.6875 472.0781,688.0313 Q473.4063,686.375 475.9063,686.375 Q476.6094,686.375 477.25,686.5313 Q477.9063,686.6875 478.4688,686.9844 L478.4688,689.7031 Q477.8438,689.125 477.25,688.8594 Q476.6563,688.5781 476.0313,688.5781 Q474.6875,688.5781 474,689.6563 Q473.3125,690.7188 473.3125,692.8125 Q473.3125,694.9063 474,695.9844 Q474.6875,697.0469 476.0313,697.0469 Q476.6563,697.0469 477.25,696.7813 Q477.8438,696.5 478.4688,695.9219 L478.4688,698.6406 Z " fill="#000000"/><text fill="#000000" font-family="sans-serif" font-size="12" lengthAdjust="spacing" textLength="138" x="489.5" y="697.1543">CallbackNode&lt;InOut&gt;</text><!--MD5=[737a787b3dad17050287ad26261bc383]
class RemoteNode<In, Out, S>--><rect codeLine="43" fill="#FEFECE" filter="url(#f1d9kso7xwbxkz)" height="32" id="RemoteNode&lt;In, Out, S&gt;" style="stroke:#A80036;stroke-width:1.5;" width="190" x="450.5" y="744"/><ellipse cx="465.5" cy="760" fill="#ADD1B2" rx="11" ry="11" style="stroke:#A80036;stroke-width:1.0;"/><path d="M468.4688,765.6406 Q467.8906,765.9375 467.25,766.0781 Q466.6094,766.2344 465.9063,766.2344 Q463.4063,766.2344 462.0781,764.5938 Q460.7656,762.9375 460.7656,759.8125 Q460.7656,756.6875 462.0781,755.0313 Q463.4063,753.375 465.9063,753.375 Q466.6094,753.375 467.25,753.5313 Q467.9063,753.6875 468.4688,753.9844 L468.4688,756.7031 Q467.8438,756.125 467.25,755.8594 Q466.6563,755.5781 466.0313,755.5781 Q464.6875,755.5781 464,756.6563 Q463.3125,757.7188 463.3125,759.8125 Q463.3125,761.9063 464,762.9844 Q464.6875,764.0469 466.0313,764.0469 Q466.6563,764.0469 467.25,763.7813 Q467.8438,763.5 468.4688,762.9219 L468.4688,765.6406 Z " fill="#000000"/><text fill="#000000" font-family="sans-serif" font-size="12" lengthAdjust="spacing" textLength="158" x="479.5" y="764.1543">RemoteNode&lt;In, Out, S&gt;</text><!--MD5=[c5fdfad0b8def12e58f090f4783bf65d]
class GraphShapeNode<DataFrame, DataFrame>--><rect codeLine="46" fill="#FEFECE" filter="url(#f1d9kso7xwbxkz)" height="32" id="GraphShapeNode&lt;DataFrame, DataFrame&gt;" style="stroke:#A80036;stroke-width:1.5;" width="309" x="391" y="811"/><ellipse cx="406" cy="827" fill="#A9DCDF" rx="11" ry="11" style="stroke:#A80036;stroke-width:1.0;"/><path d="M406.1094,822.3438 L404.9531,827.4219 L407.2813,827.4219 L406.1094,822.3438 Z M404.625,820.1094 L407.6094,820.1094 L410.9688,832.5 L408.5156,832.5 L407.75,829.4375 L404.4688,829.4375 L403.7188,832.5 L401.2813,832.5 L404.625,820.1094 Z " fill="#000000"/><text fill="#000000" font-family="sans-serif" font-size="12" font-style="italic" lengthAdjust="spacing" textLength="277" x="420" y="831.1543">GraphShapeNode&lt;DataFrame, DataFrame&gt;</text><!--MD5=[cb478422dbd1c66cebb18434837c2350]
reverse link GraphNode<In, Out> to Node<In, Out>--><path codeLine="9" d="M165.12,425 C178.52,425 192.1,425 204.79,425 " fill="none" id="GraphNode&lt;In, Out&gt;-backto-Node&lt;In, Out&gt;" style="stroke:#A80036;stroke-width:1.0;"/><polygon fill="none" points="165.06,432,145.06,425,165.06,418,165.06,432" style="stroke:#A80036;stroke-width:1.0;"/><!--MD5=[d209b161df1f2b967621a214677e0544]
reverse link Node<In, Out> to SinkNode<DataFrame>--><path codeLine="12" d="M269.73,388.52 C273.31,314.12 292.48,144.46 391,56 C408.65,40.16 432.03,31.27 455.21,26.44 " fill="none" id="Node&lt;In, Out&gt;-backto-SinkNode&lt;DataFrame&gt;" style="stroke:#A80036;stroke-width:1.0;"/><polygon fill="none" points="276.72,388.98,269.05,408.73,262.73,388.5,276.72,388.98" style="stroke:#A80036;stroke-width:1.0;"/><!--MD5=[87e8ac3b6c929d438ae53c4fc7bb588f]
reverse link Node<In, Out> to SourceNode<DataFrame>--><path codeLine="15" d="M272.79,388.62 C281.49,324.6 308.91,192.05 391,123 C406.65,109.84 426.3,101.56 446.27,96.43 " fill="none" id="Node&lt;In, Out&gt;-backto-SourceNode&lt;DataFrame&gt;" style="stroke:#A80036;stroke-width:1.0;"/><polygon fill="none" points="279.7,389.84,270.37,408.86,265.8,388.17,279.7,389.84" style="stroke:#A80036;stroke-width:1.0;"/><!--MD5=[d3449f1d74362a5d83e0a5cf55028e6a]
reverse link Node<In, Out> to BalanceNode<InOut>--><path codeLine="18" d="M277.31,389.06 C291.36,336.75 324.96,240.4 391,190 C411.04,174.7 436.64,166.15 461.17,161.47 " fill="none" id="Node&lt;In, Out&gt;-backto-BalanceNode&lt;InOut&gt;" style="stroke:#A80036;stroke-width:1.0;"/><polygon fill="none" points="284.02,391.1,272.38,408.81,270.43,387.71,284.02,391.1" style="stroke:#A80036;stroke-width:1.0;"/><!--MD5=[a2e0e2a19816198d6b8f0f217a108963]
reverse link Node<In, Out> to TimedPullNode<InOut>--><path codeLine="21" d="M284.42,390.67 C303.66,351.92 340.32,290.01 391,257 C410.53,244.28 434.14,236.38 456.92,231.49 " fill="none" id="Node&lt;In, Out&gt;-backto-TimedPullNode&lt;InOut&gt;" style="stroke:#A80036;stroke-width:1.0;"/><polygon fill="none" points="290.73,393.69,275.86,408.78,278.08,387.7,290.73,393.69" style="stroke:#A80036;stroke-width:1.0;"/><!--MD5=[13d6106f5cce1656d1a4efcd09462e5b]
reverse link Node<In, Out> to FrameFlattenNode<InOut>--><path codeLine="24" d="M297.48,394.52 C320.54,371.67 355.02,341.45 391,324 C407.68,315.91 426.32,309.79 444.72,305.16 " fill="none" id="Node&lt;In, Out&gt;-backto-FrameFlattenNode&lt;InOut&gt;" style="stroke:#A80036;stroke-width:1.0;"/><polygon fill="none" points="302.42,399.48,283.45,408.91,292.4,389.71,302.42,399.48" style="stroke:#A80036;stroke-width:1.0;"/><!--MD5=[bdd2270da11dce3d8725da1c0da3428a]
reverse link Node<In, Out> to FrameChunkNode<InOut>--><path codeLine="27" d="M343.15,403.57 C358.9,399.23 375.46,394.83 391,391 C415.08,385.06 441.44,379.17 465.41,374.05 " fill="none" id="Node&lt;In, Out&gt;-backto-FrameChunkNode&lt;InOut&gt;" style="stroke:#A80036;stroke-width:1.0;"/><polygon fill="none" points="344.92,410.34,323.78,408.98,341.16,396.86,344.92,410.34" style="stroke:#A80036;stroke-width:1.0;"/><!--MD5=[fa8c254744769420e5a0e8ca210377ce]
reverse link Node<In, Out> to FrameCloneNode<InOut>--><path codeLine="30" d="M351.21,425 C382.06,425 417.36,425 449.29,425 " fill="none" id="Node&lt;In, Out&gt;-backto-FrameCloneNode&lt;InOut&gt;" style="stroke:#A80036;stroke-width:1.0;"/><polygon fill="none" points="351.17,432,331.17,425,351.17,418,351.17,432" style="stroke:#A80036;stroke-width:1.0;"/><!--MD5=[ad4e0d6da1daff60ce166bc86e632602]
reverse link Node<In, Out> to BufferNode<InOut>--><path codeLine="33" d="M343.15,446.43 C358.9,450.77 375.46,455.17 391,459 C415.88,465.13 443.18,471.21 467.78,476.45 " fill="none" id="Node&lt;In, Out&gt;-backto-BufferNode&lt;InOut&gt;" style="stroke:#A80036;stroke-width:1.0;"/><polygon fill="none" points="341.16,453.14,323.78,441.02,344.92,439.66,341.16,453.14" style="stroke:#A80036;stroke-width:1.0;"/><!--MD5=[de7185d8b0206985bb037e3ad0abcada]
reverse link Node<In, Out> to ProcessingNode<DataFrame, DataFrame>--><path codeLine="36" d="M297.48,455.48 C320.54,478.33 355.02,508.55 391,526 C405.47,533.02 421.42,538.56 437.41,542.92 " fill="none" id="Node&lt;In, Out&gt;-backto-ProcessingNode&lt;DataFrame, DataFrame&gt;" style="stroke:#A80036;stroke-width:1.0;"/><polygon fill="none" points="292.4,460.29,283.45,441.09,302.42,450.52,292.4,460.29" style="stroke:#A80036;stroke-width:1.0;"/><!--MD5=[86fb9cc9f9f5ae738d284d10f59d580b]
reverse link Node<In, Out> to WorkerNode<In, Out>--><path codeLine="39" d="M284.42,459.33 C303.66,498.08 340.32,559.99 391,593 C411.44,606.31 436.35,614.35 460.11,619.17 " fill="none" id="Node&lt;In, Out&gt;-backto-WorkerNode&lt;In, Out&gt;" style="stroke:#A80036;stroke-width:1.0;"/><polygon fill="none" points="278.08,462.3,275.86,441.22,290.73,456.31,278.08,462.3" style="stroke:#A80036;stroke-width:1.0;"/><!--MD5=[0f6bbc6b7afa79f1dba084fa2c1a6b5c]
reverse link Node<In, Out> to CallbackNode<InOut>--><path codeLine="42" d="M277.31,460.94 C291.36,513.25 324.96,609.6 391,660 C410.83,675.13 436.09,683.66 460.37,688.38 " fill="none" id="Node&lt;In, Out&gt;-backto-CallbackNode&lt;InOut&gt;" style="stroke:#A80036;stroke-width:1.0;"/><polygon fill="none" points="270.43,462.29,272.38,441.19,284.02,458.9,270.43,462.29" style="stroke:#A80036;stroke-width:1.0;"/><!--MD5=[cb641fd8c96077eb4b918ba4d584317f]
reverse link Node<In, Out> to RemoteNode<In, Out, S>--><path codeLine="45" d="M272.79,461.38 C281.49,525.4 308.91,657.95 391,727 C407.69,741.04 428.94,749.52 450.27,754.56 " fill="none" id="Node&lt;In, Out&gt;-backto-RemoteNode&lt;In, Out, S&gt;" style="stroke:#A80036;stroke-width:1.0;"/><polygon fill="none" points="265.8,461.83,270.37,441.14,279.7,460.16,265.8,461.83" style="stroke:#A80036;stroke-width:1.0;"/><!--MD5=[0317c4b2a52ab74c0b80503167ef4e72]
reverse link Node<In, Out> to GraphShapeNode<DataFrame, DataFrame>--><path codeLine="48" d="M269.73,461.48 C273.31,535.88 292.48,705.54 391,794 C398.61,800.83 407.28,806.37 416.54,810.84 " fill="none" id="Node&lt;In, Out&gt;-backto-GraphShapeNode&lt;DataFrame, DataFrame&gt;" style="stroke:#A80036;stroke-width:1.0;"/><polygon fill="none" points="262.73,461.5,269.05,441.27,276.72,461.02,262.73,461.5" style="stroke:#A80036;stroke-width:1.0;"/><!--MD5=[1f43576624d74ba6b85f354846c1c8d0]
@startuml
skinparam BackgroundColor transparent
left to right direction
hide empty methods
hide empty fields
class "Node<In, Out>" {
}
class "GraphNode<In, Out>"
hide "GraphNode<In, Out>" circle
"GraphNode<In, Out>" <|- - "Node<In, Out>"
abstract class "SinkNode<DataFrame>" {
}
"Node<In, Out>" <|- - "SinkNode<DataFrame>"
abstract class "SourceNode<DataFrame>" {
}
"Node<In, Out>" <|- - "SourceNode<DataFrame>"
class "BalanceNode<InOut>" {
}
"Node<In, Out>" <|- - "BalanceNode<InOut>"
class "TimedPullNode<InOut>" {
}
"Node<In, Out>" <|- - "TimedPullNode<InOut>"
class "FrameFlattenNode<InOut>" {
}
"Node<In, Out>" <|- - "FrameFlattenNode<InOut>"
class "FrameChunkNode<InOut>" {
}
"Node<In, Out>" <|- - "FrameChunkNode<InOut>"
class "FrameCloneNode<InOut>" {
}
"Node<In, Out>" <|- - "FrameCloneNode<InOut>"
class "BufferNode<InOut>" {
}
"Node<In, Out>" <|- - "BufferNode<InOut>"
abstract class "ProcessingNode<DataFrame, DataFrame>" {
}
"Node<In, Out>" <|- - "ProcessingNode<DataFrame, DataFrame>"
class "WorkerNode<In, Out>" {
}
"Node<In, Out>" <|- - "WorkerNode<In, Out>"
class "CallbackNode<InOut>" {
}
"Node<In, Out>" <|- - "CallbackNode<InOut>"
class "RemoteNode<In, Out, S>" {
}
"Node<In, Out>" <|- - "RemoteNode<In, Out, S>"
abstract class "GraphShapeNode<DataFrame, DataFrame>" {
}
"Node<In, Out>" <|- - "GraphShapeNode<DataFrame, DataFrame>"
@enduml

PlantUML version 1.2021.14(Fri Nov 12 16:46:50 UTC 2021)
(GPL source distribution)
Java Runtime: OpenJDK Runtime Environment
JVM: OpenJDK 64-Bit Server VM
Default Encoding: UTF-8
Language: en
Country: null
--></g></svg>