<?xml version="1.0" encoding="us-ascii" standalone="no"?><svg xmlns="http://www.w3.org/2000/svg" xmlns:xlink="http://www.w3.org/1999/xlink" contentStyleType="text/css" height="582px" preserveAspectRatio="none" style="width:408px;height:582px;" version="1.1" viewBox="0 0 408 582" width="408px" zoomAndPan="magnify"><defs/><g><!--class NodeOptions--><g id="elem_NodeOptions"><rect codeLine="5" fill="#F1F1F1" height="32" id="NodeOptions" rx="2.5" ry="2.5" style="stroke:#181818;stroke-width:0.5;" width="123" x="7" y="275"/><ellipse cx="22" cy="291" fill="#B4A7E5" rx="11" ry="11" style="stroke:#181818;stroke-width:1.0;"/><path d="M17.9219,286.7656 L17.9219,284.6094 L25.3125,284.6094 L25.3125,286.7656 L22.8438,286.7656 L22.8438,294.8438 L25.3125,294.8438 L25.3125,297 L17.9219,297 L17.9219,294.8438 L20.3906,294.8438 L20.3906,286.7656 L17.9219,286.7656 Z " fill="#000000"/><text fill="#000000" font-family="sans-serif" font-size="14" font-style="italic" lengthAdjust="spacing" textLength="91" x="36" y="295.8467">NodeOptions</text></g><!--class SinkNodeOptions--><g id="elem_SinkNodeOptions"><rect codeLine="7" fill="#F1F1F1" height="32" id="SinkNodeOptions" rx="2.5" ry="2.5" style="stroke:#181818;stroke-width:0.5;" width="152" x="219.5" y="7"/><ellipse cx="234.5" cy="23" fill="#B4A7E5" rx="11" ry="11" style="stroke:#181818;stroke-width:1.0;"/><path d="M230.4219,18.7656 L230.4219,16.6094 L237.8125,16.6094 L237.8125,18.7656 L235.3438,18.7656 L235.3438,26.8438 L237.8125,26.8438 L237.8125,29 L230.4219,29 L230.4219,26.8438 L232.8906,26.8438 L232.8906,18.7656 L230.4219,18.7656 Z " fill="#000000"/><text fill="#000000" font-family="sans-serif" font-size="14" font-style="italic" lengthAdjust="spacing" textLength="120" x="248.5" y="27.8467">SinkNodeOptions</text></g><!--class SourceNodeOptions--><g id="elem_SourceNodeOptions"><rect codeLine="10" fill="#F1F1F1" height="32" id="SourceNodeOptions" rx="2.5" ry="2.5" style="stroke:#181818;stroke-width:0.5;" width="172" x="209.5" y="74"/><ellipse cx="224.5" cy="90" fill="#B4A7E5" rx="11" ry="11" style="stroke:#181818;stroke-width:1.0;"/><path d="M220.4219,85.7656 L220.4219,83.6094 L227.8125,83.6094 L227.8125,85.7656 L225.3438,85.7656 L225.3438,93.8438 L227.8125,93.8438 L227.8125,96 L220.4219,96 L220.4219,93.8438 L222.8906,93.8438 L222.8906,85.7656 L220.4219,85.7656 Z " fill="#000000"/><text fill="#000000" font-family="sans-serif" font-size="14" font-style="italic" lengthAdjust="spacing" textLength="140" x="238.5" y="94.8467">SourceNodeOptions</text></g><!--class TimedPullOptions--><g id="elem_TimedPullOptions"><rect codeLine="13" fill="#F1F1F1" height="32" id="TimedPullOptions" rx="2.5" ry="2.5" style="stroke:#181818;stroke-width:0.5;" width="151" x="220" y="141"/><ellipse cx="235" cy="157" fill="#B4A7E5" rx="11" ry="11" style="stroke:#181818;stroke-width:1.0;"/><path d="M230.9219,152.7656 L230.9219,150.6094 L238.3125,150.6094 L238.3125,152.7656 L235.8438,152.7656 L235.8438,160.8438 L238.3125,160.8438 L238.3125,163 L230.9219,163 L230.9219,160.8438 L233.3906,160.8438 L233.3906,152.7656 L230.9219,152.7656 Z " fill="#000000"/><text fill="#000000" font-family="sans-serif" font-size="14" font-style="italic" lengthAdjust="spacing" textLength="119" x="249" y="161.8467">TimedPullOptions</text></g><!--class FrameCloneOptions--><g id="elem_FrameCloneOptions"><rect codeLine="16" fill="#F1F1F1" height="32" id="FrameCloneOptions" rx="2.5" ry="2.5" style="stroke:#181818;stroke-width:0.5;" width="168" x="211.5" y="208"/><ellipse cx="226.5" cy="224" fill="#B4A7E5" rx="11" ry="11" style="stroke:#181818;stroke-width:1.0;"/><path d="M222.4219,219.7656 L222.4219,217.6094 L229.8125,217.6094 L229.8125,219.7656 L227.3438,219.7656 L227.3438,227.8438 L229.8125,227.8438 L229.8125,230 L222.4219,230 L222.4219,227.8438 L224.8906,227.8438 L224.8906,219.7656 L222.4219,219.7656 Z " fill="#000000"/><text fill="#000000" font-family="sans-serif" font-size="14" font-style="italic" lengthAdjust="spacing" textLength="136" x="240.5" y="228.8467">FrameCloneOptions</text></g><!--class BufferOptions--><g id="elem_BufferOptions"><rect codeLine="19" fill="#F1F1F1" height="32" id="BufferOptions" rx="2.5" ry="2.5" style="stroke:#181818;stroke-width:0.5;" width="126" x="232.5" y="275"/><ellipse cx="247.5" cy="291" fill="#B4A7E5" rx="11" ry="11" style="stroke:#181818;stroke-width:1.0;"/><path d="M243.4219,286.7656 L243.4219,284.6094 L250.8125,284.6094 L250.8125,286.7656 L248.3438,286.7656 L248.3438,294.8438 L250.8125,294.8438 L250.8125,297 L243.4219,297 L243.4219,294.8438 L245.8906,294.8438 L245.8906,286.7656 L243.4219,286.7656 Z " fill="#000000"/><text fill="#000000" font-family="sans-serif" font-size="14" font-style="italic" lengthAdjust="spacing" textLength="94" x="261.5" y="295.8467">BufferOptions</text></g><!--class ProcessingNodeOptions--><g id="elem_ProcessingNodeOptions"><rect codeLine="22" fill="#F1F1F1" height="32" id="ProcessingNodeOptions" rx="2.5" ry="2.5" style="stroke:#181818;stroke-width:0.5;" width="197" x="197" y="342"/><ellipse cx="212" cy="358" fill="#B4A7E5" rx="11" ry="11" style="stroke:#181818;stroke-width:1.0;"/><path d="M207.9219,353.7656 L207.9219,351.6094 L215.3125,351.6094 L215.3125,353.7656 L212.8438,353.7656 L212.8438,361.8438 L215.3125,361.8438 L215.3125,364 L207.9219,364 L207.9219,361.8438 L210.3906,361.8438 L210.3906,353.7656 L207.9219,353.7656 Z " fill="#000000"/><text fill="#000000" font-family="sans-serif" font-size="14" font-style="italic" lengthAdjust="spacing" textLength="165" x="226" y="362.8467">ProcessingNodeOptions</text></g><!--class WorkerNodeOptions--><g id="elem_WorkerNodeOptions"><rect codeLine="25" fill="#F1F1F1" height="32" id="WorkerNodeOptions" rx="2.5" ry="2.5" style="stroke:#181818;stroke-width:0.5;" width="173" x="209" y="409"/><ellipse cx="224" cy="425" fill="#B4A7E5" rx="11" ry="11" style="stroke:#181818;stroke-width:1.0;"/><path d="M219.9219,420.7656 L219.9219,418.6094 L227.3125,418.6094 L227.3125,420.7656 L224.8438,420.7656 L224.8438,428.8438 L227.3125,428.8438 L227.3125,431 L219.9219,431 L219.9219,428.8438 L222.3906,428.8438 L222.3906,420.7656 L219.9219,420.7656 Z " fill="#000000"/><text fill="#000000" font-family="sans-serif" font-size="14" font-style="italic" lengthAdjust="spacing" textLength="141" x="238" y="429.8467">WorkerNodeOptions</text></g><!--class CallbackNodeOptions--><g id="elem_CallbackNodeOptions"><rect codeLine="28" fill="#F1F1F1" height="32" id="CallbackNodeOptions" rx="2.5" ry="2.5" style="stroke:#181818;stroke-width:0.5;" width="180" x="205.5" y="476"/><ellipse cx="220.5" cy="492" fill="#B4A7E5" rx="11" ry="11" style="stroke:#181818;stroke-width:1.0;"/><path d="M216.4219,487.7656 L216.4219,485.6094 L223.8125,485.6094 L223.8125,487.7656 L221.3438,487.7656 L221.3438,495.8438 L223.8125,495.8438 L223.8125,498 L216.4219,498 L216.4219,495.8438 L218.8906,495.8438 L218.8906,487.7656 L216.4219,487.7656 Z " fill="#000000"/><text fill="#000000" font-family="sans-serif" font-size="14" font-style="italic" lengthAdjust="spacing" textLength="148" x="234.5" y="496.8467">CallbackNodeOptions</text></g><!--class RemoteNodeOptions<S>--><g id="elem_RemoteNodeOptions&lt;S&gt;"><rect codeLine="31" fill="#F1F1F1" height="32" id="RemoteNodeOptions&lt;S&gt;" rx="2.5" ry="2.5" style="stroke:#181818;stroke-width:0.5;" width="211" x="190" y="543"/><ellipse cx="205" cy="559" fill="#B4A7E5" rx="11" ry="11" style="stroke:#181818;stroke-width:1.0;"/><path d="M200.9219,554.7656 L200.9219,552.6094 L208.3125,552.6094 L208.3125,554.7656 L205.8438,554.7656 L205.8438,562.8438 L208.3125,562.8438 L208.3125,565 L200.9219,565 L200.9219,562.8438 L203.3906,562.8438 L203.3906,554.7656 L200.9219,554.7656 Z " fill="#000000"/><text fill="#000000" font-family="sans-serif" font-size="14" font-style="italic" lengthAdjust="spacing" textLength="179" x="219" y="563.8467">RemoteNodeOptions&lt;S&gt;</text></g><!--reverse link NodeOptions to SinkNodeOptions--><g id="link_NodeOptions_SinkNodeOptions"><path codeLine="9" d="M78.32,255.49 C92.89,204.1 126.85,109.34 190,56 C198.58,48.76 208.75,43.1 219.33,38.68 " fill="none" id="NodeOptions-backto-SinkNodeOptions" style="stroke:#181818;stroke-width:1.0;"/><polygon fill="none" points="85.06,257.36,73.16,274.89,71.53,253.77,85.06,257.36" style="stroke:#181818;stroke-width:1.0;"/></g><!--reverse link NodeOptions to SourceNodeOptions--><g id="link_NodeOptions_SourceNodeOptions"><path codeLine="12" d="M85.47,256.95 C104.98,218.95 141.47,158.18 190,123 C199.63,116.02 210.78,110.48 222.15,106.1 " fill="none" id="NodeOptions-backto-SourceNodeOptions" style="stroke:#181818;stroke-width:1.0;"/><polygon fill="none" points="91.73,260.09,76.63,274.96,79.16,253.92,91.73,260.09" style="stroke:#181818;stroke-width:1.0;"/></g><!--reverse link NodeOptions to TimedPullOptions--><g id="link_NodeOptions_TimedPullOptions"><path codeLine="15" d="M99.15,260.37 C122.13,238.14 155.75,208.79 190,190 C202.34,183.23 216.28,177.61 229.86,173.05 " fill="none" id="NodeOptions-backto-TimedPullOptions" style="stroke:#181818;stroke-width:1.0;"/><polygon fill="none" points="103.85,265.56,84.74,274.72,93.97,255.64,103.85,265.56" style="stroke:#181818;stroke-width:1.0;"/></g><!--reverse link NodeOptions to FrameCloneOptions--><g id="link_NodeOptions_FrameCloneOptions"><path codeLine="18" d="M142.99,269.12 C174.83,259.64 211.41,248.74 240.66,240.03 " fill="none" id="NodeOptions-backto-FrameCloneOptions" style="stroke:#181818;stroke-width:1.0;"/><polygon fill="none" points="144.56,275.95,123.39,274.95,140.56,262.54,144.56,275.95" style="stroke:#181818;stroke-width:1.0;"/></g><!--reverse link NodeOptions to BufferOptions--><g id="link_NodeOptions_BufferOptions"><path codeLine="21" d="M150.12,291 C177.14,291 206.83,291 232.23,291 " fill="none" id="NodeOptions-backto-BufferOptions" style="stroke:#181818;stroke-width:1.0;"/><polygon fill="none" points="150.09,298,130.09,291,150.09,284,150.09,298" style="stroke:#181818;stroke-width:1.0;"/></g><!--reverse link NodeOptions to ProcessingNodeOptions--><g id="link_NodeOptions_ProcessingNodeOptions"><path codeLine="24" d="M142.99,312.88 C174.83,322.36 211.41,333.26 240.66,341.97 " fill="none" id="NodeOptions-backto-ProcessingNodeOptions" style="stroke:#181818;stroke-width:1.0;"/><polygon fill="none" points="140.56,319.46,123.39,307.05,144.56,306.05,140.56,319.46" style="stroke:#181818;stroke-width:1.0;"/></g><!--reverse link NodeOptions to WorkerNodeOptions--><g id="link_NodeOptions_WorkerNodeOptions"><path codeLine="27" d="M99.25,321.23 C122.29,343.19 155.92,372.22 190,391 C203.03,398.18 217.83,404.14 232.1,408.96 " fill="none" id="NodeOptions-backto-WorkerNodeOptions" style="stroke:#181818;stroke-width:1.0;"/><polygon fill="none" points="94.18,326.06,84.8,307.06,103.98,316.07,94.18,326.06" style="stroke:#181818;stroke-width:1.0;"/></g><!--reverse link NodeOptions to CallbackNodeOptions--><g id="link_NodeOptions_CallbackNodeOptions"><path codeLine="30" d="M85.86,325.32 C105.54,363.06 142,422.99 190,458 C200.25,465.48 212.23,471.36 224.34,475.98 " fill="none" id="NodeOptions-backto-CallbackNodeOptions" style="stroke:#181818;stroke-width:1.0;"/><polygon fill="none" points="79.47,328.18,76.8,307.16,92,321.93,79.47,328.18" style="stroke:#181818;stroke-width:1.0;"/></g><!--reverse link NodeOptions to RemoteNodeOptions<S>--><g id="link_NodeOptions_RemoteNodeOptions&lt;S&gt;"><path codeLine="33" d="M78.52,326.64 C93.27,377.79 127.39,471.74 190,525 C198.86,532.54 209.44,538.42 220.4,543 " fill="none" id="NodeOptions-backto-RemoteNodeOptions&lt;S&gt;" style="stroke:#181818;stroke-width:1.0;"/><polygon fill="none" points="71.67,328.14,73.21,307.01,85.19,324.48,71.67,328.14" style="stroke:#181818;stroke-width:1.0;"/></g><!--SRC=[ZTAnRiCW483XtK-1ikSDeWwnr36DcagPAHpsoS1Pntc8qhvxtUqi7Dahz_C90MN0F5gsoPoj6pgcAVkM8h4HjhdC8yZIH0XYX0nZrulnoE04AJSzUZ2GHdcO1DAJBtef8CHv1RC01-l072xauMFytreEvjdywjaDyr3DbpjEFyTZ7IuGcjZ1FgPADVI52VnrYd7JgKhDlCyt2ssal7sUEjNGUGe1U1DPPXguCZae1NEtwtRMSmtUYGVWNLYTQgYrCNxFdsyNjHPhx1CIYNxLq-tjjRPQ_m40]--></g></svg>