<?xml version="1.0" encoding="us-ascii" standalone="no"?><svg xmlns="http://www.w3.org/2000/svg" xmlns:xlink="http://www.w3.org/1999/xlink" contentStyleType="text/css" height="850px" preserveAspectRatio="none" style="width:764px;height:850px;" version="1.1" viewBox="0 0 764 850" width="764px" zoomAndPan="magnify"><defs/><g><!--class Node<In, Out>--><g id="elem_Node&lt;In, Out&gt;"><rect codeLine="5" fill="#F1F1F1" height="32" id="Node&lt;In, Out&gt;" rx="2.5" ry="2.5" style="stroke:#181818;stroke-width:0.5;" width="138" x="221" y="409"/><ellipse cx="236" cy="425" fill="#ADD1B2" rx="11" ry="11" style="stroke:#181818;stroke-width:1.0;"/><path d="M238.9688,430.6406 Q238.3906,430.9375 237.75,431.0781 Q237.1094,431.2344 236.4063,431.2344 Q233.9063,431.2344 232.5781,429.5938 Q231.2656,427.9375 231.2656,424.8125 Q231.2656,421.6875 232.5781,420.0313 Q233.9063,418.375 236.4063,418.375 Q237.1094,418.375 237.75,418.5313 Q238.4063,418.6875 238.9688,418.9844 L238.9688,421.7031 Q238.3438,421.125 237.75,420.8594 Q237.1563,420.5781 236.5313,420.5781 Q235.1875,420.5781 234.5,421.6563 Q233.8125,422.7188 233.8125,424.8125 Q233.8125,426.9063 234.5,427.9844 Q235.1875,429.0469 236.5313,429.0469 Q237.1563,429.0469 237.75,428.7813 Q238.3438,428.5 238.9688,427.9219 L238.9688,430.6406 Z " fill="#000000"/><text fill="#000000" font-family="sans-serif" font-size="14" lengthAdjust="spacing" textLength="106" x="250" y="429.8467">Node&lt;In, Out&gt;</text></g><!--class GraphNode<In, Out>--><g id="elem_GraphNode&lt;In, Out&gt;"><rect codeLine="7" fill="#F1F1F1" height="26.2969" id="GraphNode&lt;In, Out&gt;" rx="2.5" ry="2.5" style="stroke:#181818;stroke-width:0.5;" width="154" x="7" y="412"/><text fill="#000000" font-family="sans-serif" font-size="14" lengthAdjust="spacing" textLength="148" x="10" y="429.9951">GraphNode&lt;In, Out&gt;</text></g><!--class SinkNode<DataFrame>--><g id="elem_SinkNode&lt;DataFrame&gt;"><rect codeLine="10" fill="#F1F1F1" height="32" id="SinkNode&lt;DataFrame&gt;" rx="2.5" ry="2.5" style="stroke:#181818;stroke-width:0.5;" width="198" x="489" y="7"/><ellipse cx="504" cy="23" fill="#A9DCDF" rx="11" ry="11" style="stroke:#181818;stroke-width:1.0;"/><path d="M504.1094,18.3438 L502.9531,23.4219 L505.2813,23.4219 L504.1094,18.3438 Z M502.625,16.1094 L505.6094,16.1094 L508.9688,28.5 L506.5156,28.5 L505.75,25.4375 L502.4688,25.4375 L501.7188,28.5 L499.2813,28.5 L502.625,16.1094 Z " fill="#000000"/><text fill="#000000" font-family="sans-serif" font-size="14" font-style="italic" lengthAdjust="spacing" textLength="166" x="518" y="27.8467">SinkNode&lt;DataFrame&gt;</text></g><!--class SourceNode<DataFrame>--><g id="elem_SourceNode&lt;DataFrame&gt;"><rect codeLine="13" fill="#F1F1F1" height="32" id="SourceNode&lt;DataFrame&gt;" rx="2.5" ry="2.5" style="stroke:#181818;stroke-width:0.5;" width="218" x="479" y="74"/><ellipse cx="494" cy="90" fill="#A9DCDF" rx="11" ry="11" style="stroke:#181818;stroke-width:1.0;"/><path d="M494.1094,85.3438 L492.9531,90.4219 L495.2813,90.4219 L494.1094,85.3438 Z M492.625,83.1094 L495.6094,83.1094 L498.9688,95.5 L496.5156,95.5 L495.75,92.4375 L492.4688,92.4375 L491.7188,95.5 L489.2813,95.5 L492.625,83.1094 Z " fill="#000000"/><text fill="#000000" font-family="sans-serif" font-size="14" font-style="italic" lengthAdjust="spacing" textLength="186" x="508" y="94.8467">SourceNode&lt;DataFrame&gt;</text></g><!--class BalanceNode<InOut>--><g id="elem_BalanceNode&lt;InOut&gt;"><rect codeLine="16" fill="#F1F1F1" height="32" id="BalanceNode&lt;InOut&gt;" rx="2.5" ry="2.5" style="stroke:#181818;stroke-width:0.5;" width="185" x="495.5" y="141"/><ellipse cx="510.5" cy="157" fill="#ADD1B2" rx="11" ry="11" style="stroke:#181818;stroke-width:1.0;"/><path d="M513.4688,162.6406 Q512.8906,162.9375 512.25,163.0781 Q511.6094,163.2344 510.9063,163.2344 Q508.4063,163.2344 507.0781,161.5938 Q505.7656,159.9375 505.7656,156.8125 Q505.7656,153.6875 507.0781,152.0313 Q508.4063,150.375 510.9063,150.375 Q511.6094,150.375 512.25,150.5313 Q512.9063,150.6875 513.4688,150.9844 L513.4688,153.7031 Q512.8438,153.125 512.25,152.8594 Q511.6563,152.5781 511.0313,152.5781 Q509.6875,152.5781 509,153.6563 Q508.3125,154.7188 508.3125,156.8125 Q508.3125,158.9063 509,159.9844 Q509.6875,161.0469 511.0313,161.0469 Q511.6563,161.0469 512.25,160.7813 Q512.8438,160.5 513.4688,159.9219 L513.4688,162.6406 Z " fill="#000000"/><text fill="#000000" font-family="sans-serif" font-size="14" lengthAdjust="spacing" textLength="153" x="524.5" y="161.8467">BalanceNode&lt;InOut&gt;</text></g><!--class TimedPullNode<InOut>--><g id="elem_TimedPullNode&lt;InOut&gt;"><rect codeLine="19" fill="#F1F1F1" height="32" id="TimedPullNode&lt;InOut&gt;" rx="2.5" ry="2.5" style="stroke:#181818;stroke-width:0.5;" width="197" x="489.5" y="208"/><ellipse cx="504.5" cy="224" fill="#ADD1B2" rx="11" ry="11" style="stroke:#181818;stroke-width:1.0;"/><path d="M507.4688,229.6406 Q506.8906,229.9375 506.25,230.0781 Q505.6094,230.2344 504.9063,230.2344 Q502.4063,230.2344 501.0781,228.5938 Q499.7656,226.9375 499.7656,223.8125 Q499.7656,220.6875 501.0781,219.0313 Q502.4063,217.375 504.9063,217.375 Q505.6094,217.375 506.25,217.5313 Q506.9063,217.6875 507.4688,217.9844 L507.4688,220.7031 Q506.8438,220.125 506.25,219.8594 Q505.6563,219.5781 505.0313,219.5781 Q503.6875,219.5781 503,220.6563 Q502.3125,221.7188 502.3125,223.8125 Q502.3125,225.9063 503,226.9844 Q503.6875,228.0469 505.0313,228.0469 Q505.6563,228.0469 506.25,227.7813 Q506.8438,227.5 507.4688,226.9219 L507.4688,229.6406 Z " fill="#000000"/><text fill="#000000" font-family="sans-serif" font-size="14" lengthAdjust="spacing" textLength="165" x="518.5" y="228.8467">TimedPullNode&lt;InOut&gt;</text></g><!--class FrameFlattenNode<InOut>--><g id="elem_FrameFlattenNode&lt;InOut&gt;"><rect codeLine="22" fill="#F1F1F1" height="32" id="FrameFlattenNode&lt;InOut&gt;" rx="2.5" ry="2.5" style="stroke:#181818;stroke-width:0.5;" width="220" x="478" y="275"/><ellipse cx="493" cy="291" fill="#ADD1B2" rx="11" ry="11" style="stroke:#181818;stroke-width:1.0;"/><path d="M495.9688,296.6406 Q495.3906,296.9375 494.75,297.0781 Q494.1094,297.2344 493.4063,297.2344 Q490.9063,297.2344 489.5781,295.5938 Q488.2656,293.9375 488.2656,290.8125 Q488.2656,287.6875 489.5781,286.0313 Q490.9063,284.375 493.4063,284.375 Q494.1094,284.375 494.75,284.5313 Q495.4063,284.6875 495.9688,284.9844 L495.9688,287.7031 Q495.3438,287.125 494.75,286.8594 Q494.1563,286.5781 493.5313,286.5781 Q492.1875,286.5781 491.5,287.6563 Q490.8125,288.7188 490.8125,290.8125 Q490.8125,292.9063 491.5,293.9844 Q492.1875,295.0469 493.5313,295.0469 Q494.1563,295.0469 494.75,294.7813 Q495.3438,294.5 495.9688,293.9219 L495.9688,296.6406 Z " fill="#000000"/><text fill="#000000" font-family="sans-serif" font-size="14" lengthAdjust="spacing" textLength="188" x="507" y="295.8467">FrameFlattenNode&lt;InOut&gt;</text></g><!--class FrameChunkNode<InOut>--><g id="elem_FrameChunkNode&lt;InOut&gt;"><rect codeLine="25" fill="#F1F1F1" height="32" id="FrameChunkNode&lt;InOut&gt;" rx="2.5" ry="2.5" style="stroke:#181818;stroke-width:0.5;" width="218" x="479" y="342"/><ellipse cx="494" cy="358" fill="#ADD1B2" rx="11" ry="11" style="stroke:#181818;stroke-width:1.0;"/><path d="M496.9688,363.6406 Q496.3906,363.9375 495.75,364.0781 Q495.1094,364.2344 494.4063,364.2344 Q491.9063,364.2344 490.5781,362.5938 Q489.2656,360.9375 489.2656,357.8125 Q489.2656,354.6875 490.5781,353.0313 Q491.9063,351.375 494.4063,351.375 Q495.1094,351.375 495.75,351.5313 Q496.4063,351.6875 496.9688,351.9844 L496.9688,354.7031 Q496.3438,354.125 495.75,353.8594 Q495.1563,353.5781 494.5313,353.5781 Q493.1875,353.5781 492.5,354.6563 Q491.8125,355.7188 491.8125,357.8125 Q491.8125,359.9063 492.5,360.9844 Q493.1875,362.0469 494.5313,362.0469 Q495.1563,362.0469 495.75,361.7813 Q496.3438,361.5 496.9688,360.9219 L496.9688,363.6406 Z " fill="#000000"/><text fill="#000000" font-family="sans-serif" font-size="14" lengthAdjust="spacing" textLength="186" x="508" y="362.8467">FrameChunkNode&lt;InOut&gt;</text></g><!--class FrameCloneNode<InOut>--><g id="elem_FrameCloneNode&lt;InOut&gt;"><rect codeLine="28" fill="#F1F1F1" height="32" id="FrameCloneNode&lt;InOut&gt;" rx="2.5" ry="2.5" style="stroke:#181818;stroke-width:0.5;" width="213" x="481.5" y="409"/><ellipse cx="496.5" cy="425" fill="#ADD1B2" rx="11" ry="11" style="stroke:#181818;stroke-width:1.0;"/><path d="M499.4688,430.6406 Q498.8906,430.9375 498.25,431.0781 Q497.6094,431.2344 496.9063,431.2344 Q494.4063,431.2344 493.0781,429.5938 Q491.7656,427.9375 491.7656,424.8125 Q491.7656,421.6875 493.0781,420.0313 Q494.4063,418.375 496.9063,418.375 Q497.6094,418.375 498.25,418.5313 Q498.9063,418.6875 499.4688,418.9844 L499.4688,421.7031 Q498.8438,421.125 498.25,420.8594 Q497.6563,420.5781 497.0313,420.5781 Q495.6875,420.5781 495,421.6563 Q494.3125,422.7188 494.3125,424.8125 Q494.3125,426.9063 495,427.9844 Q495.6875,429.0469 497.0313,429.0469 Q497.6563,429.0469 498.25,428.7813 Q498.8438,428.5 499.4688,427.9219 L499.4688,430.6406 Z " fill="#000000"/><text fill="#000000" font-family="sans-serif" font-size="14" lengthAdjust="spacing" textLength="181" x="510.5" y="429.8467">FrameCloneNode&lt;InOut&gt;</text></g><!--class BufferNode<InOut>--><g id="elem_BufferNode&lt;InOut&gt;"><rect codeLine="31" fill="#F1F1F1" height="32" id="BufferNode&lt;InOut&gt;" rx="2.5" ry="2.5" style="stroke:#181818;stroke-width:0.5;" width="171" x="502.5" y="476"/><ellipse cx="517.5" cy="492" fill="#ADD1B2" rx="11" ry="11" style="stroke:#181818;stroke-width:1.0;"/><path d="M520.4688,497.6406 Q519.8906,497.9375 519.25,498.0781 Q518.6094,498.2344 517.9063,498.2344 Q515.4063,498.2344 514.0781,496.5938 Q512.7656,494.9375 512.7656,491.8125 Q512.7656,488.6875 514.0781,487.0313 Q515.4063,485.375 517.9063,485.375 Q518.6094,485.375 519.25,485.5313 Q519.9063,485.6875 520.4688,485.9844 L520.4688,488.7031 Q519.8438,488.125 519.25,487.8594 Q518.6563,487.5781 518.0313,487.5781 Q516.6875,487.5781 516,488.6563 Q515.3125,489.7188 515.3125,491.8125 Q515.3125,493.9063 516,494.9844 Q516.6875,496.0469 518.0313,496.0469 Q518.6563,496.0469 519.25,495.7813 Q519.8438,495.5 520.4688,494.9219 L520.4688,497.6406 Z " fill="#000000"/><text fill="#000000" font-family="sans-serif" font-size="14" lengthAdjust="spacing" textLength="139" x="531.5" y="496.8467">BufferNode&lt;InOut&gt;</text></g><!--class ProcessingNode<DataFrame, DataFrame>--><g id="elem_ProcessingNode&lt;DataFrame, DataFrame&gt;"><rect codeLine="34" fill="#F1F1F1" height="32" id="ProcessingNode&lt;DataFrame, DataFrame&gt;" rx="2.5" ry="2.5" style="stroke:#181818;stroke-width:0.5;" width="326" x="425" y="543"/><ellipse cx="440" cy="559" fill="#A9DCDF" rx="11" ry="11" style="stroke:#181818;stroke-width:1.0;"/><path d="M440.1094,554.3438 L438.9531,559.4219 L441.2813,559.4219 L440.1094,554.3438 Z M438.625,552.1094 L441.6094,552.1094 L444.9688,564.5 L442.5156,564.5 L441.75,561.4375 L438.4688,561.4375 L437.7188,564.5 L435.2813,564.5 L438.625,552.1094 Z " fill="#000000"/><text fill="#000000" font-family="sans-serif" font-size="14" font-style="italic" lengthAdjust="spacing" textLength="294" x="454" y="563.8467">ProcessingNode&lt;DataFrame, DataFrame&gt;</text></g><!--class WorkerNode<In, Out>--><g id="elem_WorkerNode&lt;In, Out&gt;"><rect codeLine="37" fill="#F1F1F1" height="32" id="WorkerNode&lt;In, Out&gt;" rx="2.5" ry="2.5" style="stroke:#181818;stroke-width:0.5;" width="187" x="494.5" y="610"/><ellipse cx="509.5" cy="626" fill="#ADD1B2" rx="11" ry="11" style="stroke:#181818;stroke-width:1.0;"/><path d="M512.4688,631.6406 Q511.8906,631.9375 511.25,632.0781 Q510.6094,632.2344 509.9063,632.2344 Q507.4063,632.2344 506.0781,630.5938 Q504.7656,628.9375 504.7656,625.8125 Q504.7656,622.6875 506.0781,621.0313 Q507.4063,619.375 509.9063,619.375 Q510.6094,619.375 511.25,619.5313 Q511.9063,619.6875 512.4688,619.9844 L512.4688,622.7031 Q511.8438,622.125 511.25,621.8594 Q510.6563,621.5781 510.0313,621.5781 Q508.6875,621.5781 508,622.6563 Q507.3125,623.7188 507.3125,625.8125 Q507.3125,627.9063 508,628.9844 Q508.6875,630.0469 510.0313,630.0469 Q510.6563,630.0469 511.25,629.7813 Q511.8438,629.5 512.4688,628.9219 L512.4688,631.6406 Z " fill="#000000"/><text fill="#000000" font-family="sans-serif" font-size="14" lengthAdjust="spacing" textLength="155" x="523.5" y="630.8467">WorkerNode&lt;In, Out&gt;</text></g><!--class CallbackNode<InOut>--><g id="elem_CallbackNode&lt;InOut&gt;"><rect codeLine="40" fill="#F1F1F1" height="32" id="CallbackNode&lt;InOut&gt;" rx="2.5" ry="2.5" style="stroke:#181818;stroke-width:0.5;" width="187" x="494.5" y="677"/><ellipse cx="509.5" cy="693" fill="#ADD1B2" rx="11" ry="11" style="stroke:#181818;stroke-width:1.0;"/><path d="M512.4688,698.6406 Q511.8906,698.9375 511.25,699.0781 Q510.6094,699.2344 509.9063,699.2344 Q507.4063,699.2344 506.0781,697.5938 Q504.7656,695.9375 504.7656,692.8125 Q504.7656,689.6875 506.0781,688.0313 Q507.4063,686.375 509.9063,686.375 Q510.6094,686.375 511.25,686.5313 Q511.9063,686.6875 512.4688,686.9844 L512.4688,689.7031 Q511.8438,689.125 511.25,688.8594 Q510.6563,688.5781 510.0313,688.5781 Q508.6875,688.5781 508,689.6563 Q507.3125,690.7188 507.3125,692.8125 Q507.3125,694.9063 508,695.9844 Q508.6875,697.0469 510.0313,697.0469 Q510.6563,697.0469 511.25,696.7813 Q511.8438,696.5 512.4688,695.9219 L512.4688,698.6406 Z " fill="#000000"/><text fill="#000000" font-family="sans-serif" font-size="14" lengthAdjust="spacing" textLength="155" x="523.5" y="697.8467">CallbackNode&lt;InOut&gt;</text></g><!--class RemoteNode<In, Out, S>--><g id="elem_RemoteNode&lt;In, Out, S&gt;"><rect codeLine="43" fill="#F1F1F1" height="32" id="RemoteNode&lt;In, Out, S&gt;" rx="2.5" ry="2.5" style="stroke:#181818;stroke-width:0.5;" width="210" x="483" y="744"/><ellipse cx="498" cy="760" fill="#ADD1B2" rx="11" ry="11" style="stroke:#181818;stroke-width:1.0;"/><path d="M500.9688,765.6406 Q500.3906,765.9375 499.75,766.0781 Q499.1094,766.2344 498.4063,766.2344 Q495.9063,766.2344 494.5781,764.5938 Q493.2656,762.9375 493.2656,759.8125 Q493.2656,756.6875 494.5781,755.0313 Q495.9063,753.375 498.4063,753.375 Q499.1094,753.375 499.75,753.5313 Q500.4063,753.6875 500.9688,753.9844 L500.9688,756.7031 Q500.3438,756.125 499.75,755.8594 Q499.1563,755.5781 498.5313,755.5781 Q497.1875,755.5781 496.5,756.6563 Q495.8125,757.7188 495.8125,759.8125 Q495.8125,761.9063 496.5,762.9844 Q497.1875,764.0469 498.5313,764.0469 Q499.1563,764.0469 499.75,763.7813 Q500.3438,763.5 500.9688,762.9219 L500.9688,765.6406 Z " fill="#000000"/><text fill="#000000" font-family="sans-serif" font-size="14" lengthAdjust="spacing" textLength="178" x="512" y="764.8467">RemoteNode&lt;In, Out, S&gt;</text></g><!--class GraphShapeNode<DataFrame, DataFrame>--><g id="elem_GraphShapeNode&lt;DataFrame, DataFrame&gt;"><rect codeLine="46" fill="#F1F1F1" height="32" id="GraphShapeNode&lt;DataFrame, DataFrame&gt;" rx="2.5" ry="2.5" style="stroke:#181818;stroke-width:0.5;" width="338" x="419" y="811"/><ellipse cx="434" cy="827" fill="#A9DCDF" rx="11" ry="11" style="stroke:#181818;stroke-width:1.0;"/><path d="M434.1094,822.3438 L432.9531,827.4219 L435.2813,827.4219 L434.1094,822.3438 Z M432.625,820.1094 L435.6094,820.1094 L438.9688,832.5 L436.5156,832.5 L435.75,829.4375 L432.4688,829.4375 L431.7188,832.5 L429.2813,832.5 L432.625,820.1094 Z " fill="#000000"/><text fill="#000000" font-family="sans-serif" font-size="14" font-style="italic" lengthAdjust="spacing" textLength="306" x="448" y="831.8467">GraphShapeNode&lt;DataFrame, DataFrame&gt;</text></g><!--reverse link GraphNode<In, Out> to Node<In, Out>--><g id="link_GraphNode&lt;In, Out&gt;_Node&lt;In, Out&gt;"><path codeLine="9" d="M181.32,425 C194.69,425 208.19,425 220.9,425 " fill="none" id="GraphNode&lt;In, Out&gt;-backto-Node&lt;In, Out&gt;" style="stroke:#181818;stroke-width:1.0;"/><polygon fill="none" points="181.25,432,161.25,425,181.25,418,181.25,432" style="stroke:#181818;stroke-width:1.0;"/></g><!--reverse link Node<In, Out> to SinkNode<DataFrame>--><g id="link_Node&lt;In, Out&gt;_SinkNode&lt;DataFrame&gt;"><path codeLine="12" d="M292.25,388.32 C296.89,313.57 318.56,143.28 419,56 C438.29,39.23 463.59,30.01 488.67,25.15 " fill="none" id="Node&lt;In, Out&gt;-backto-SinkNode&lt;DataFrame&gt;" style="stroke:#181818;stroke-width:1.0;"/><polygon fill="none" points="299.23,389,291.27,408.64,285.24,388.32,299.23,389" style="stroke:#181818;stroke-width:1.0;"/></g><!--reverse link Node<In, Out> to SourceNode<DataFrame>--><g id="link_Node&lt;In, Out&gt;_SourceNode&lt;DataFrame&gt;"><path codeLine="15" d="M295.37,388.85 C305.14,324.69 334.95,191.24 419,123 C436.08,109.14 457.32,100.53 478.89,95.3 " fill="none" id="Node&lt;In, Out&gt;-backto-SourceNode&lt;DataFrame&gt;" style="stroke:#181818;stroke-width:1.0;"/><polygon fill="none" points="302.29,389.9,292.65,408.77,288.42,388.01,302.29,389.9" style="stroke:#181818;stroke-width:1.0;"/></g><!--reverse link Node<In, Out> to BalanceNode<InOut>--><g id="link_Node&lt;In, Out&gt;_BalanceNode&lt;InOut&gt;"><path codeLine="18" d="M300.03,389.23 C315.24,336.76 351.16,239.78 419,190 C440.93,173.91 468.64,165.11 495.21,160.44 " fill="none" id="Node&lt;In, Out&gt;-backto-BalanceNode&lt;InOut&gt;" style="stroke:#181818;stroke-width:1.0;"/><polygon fill="none" points="306.74,391.25,294.75,408.72,293.22,387.59,306.74,391.25" style="stroke:#181818;stroke-width:1.0;"/></g><!--reverse link Node<In, Out> to TimedPullNode<InOut>--><g id="link_Node&lt;In, Out&gt;_TimedPullNode&lt;InOut&gt;"><path codeLine="21" d="M307.22,391.06 C327.64,352.19 366.51,289.67 419,257 C439.94,243.96 464.97,235.91 489.22,230.98 " fill="none" id="Node&lt;In, Out&gt;-backto-TimedPullNode&lt;InOut&gt;" style="stroke:#181818;stroke-width:1.0;"/><polygon fill="none" points="313.47,394.21,298.24,408.95,300.95,387.93,313.47,394.21" style="stroke:#181818;stroke-width:1.0;"/></g><!--reverse link Node<In, Out> to FrameFlattenNode<InOut>--><g id="link_Node&lt;In, Out&gt;_FrameFlattenNode&lt;InOut&gt;"><path codeLine="24" d="M320.72,394.71 C345.03,371.75 381.42,341.28 419,324 C437.36,315.56 457.83,309.27 477.97,304.59 " fill="none" id="Node&lt;In, Out&gt;-backto-FrameFlattenNode&lt;InOut&gt;" style="stroke:#181818;stroke-width:1.0;"/><polygon fill="none" points="325.47,399.85,306.28,408.83,315.69,389.84,325.47,399.85" style="stroke:#181818;stroke-width:1.0;"/></g><!--reverse link Node<In, Out> to FrameChunkNode<InOut>--><g id="link_Node&lt;In, Out&gt;_FrameChunkNode&lt;InOut&gt;"><path codeLine="27" d="M367.72,403.74 C384.57,399.32 402.34,394.84 419,391 C445.07,384.98 473.57,379.12 499.57,374.04 " fill="none" id="Node&lt;In, Out&gt;-backto-FrameChunkNode&lt;InOut&gt;" style="stroke:#181818;stroke-width:1.0;"/><polygon fill="none" points="369.27,410.57,348.15,408.96,365.67,397.05,369.27,410.57" style="stroke:#181818;stroke-width:1.0;"/></g><!--reverse link Node<In, Out> to FrameCloneNode<InOut>--><g id="link_Node&lt;In, Out&gt;_FrameCloneNode&lt;InOut&gt;"><path codeLine="30" d="M379.59,425 C411.59,425 448.04,425 481.35,425 " fill="none" id="Node&lt;In, Out&gt;-backto-FrameCloneNode&lt;InOut&gt;" style="stroke:#181818;stroke-width:1.0;"/><polygon fill="none" points="379.28,432,359.28,425,379.28,418,379.28,432" style="stroke:#181818;stroke-width:1.0;"/></g><!--reverse link Node<In, Out> to BufferNode<InOut>--><g id="link_Node&lt;In, Out&gt;_BufferNode&lt;InOut&gt;"><path codeLine="33" d="M367.72,446.26 C384.57,450.68 402.34,455.16 419,459 C445.94,465.22 475.47,471.27 502.17,476.46 " fill="none" id="Node&lt;In, Out&gt;-backto-BufferNode&lt;InOut&gt;" style="stroke:#181818;stroke-width:1.0;"/><polygon fill="none" points="365.67,452.95,348.15,441.04,369.27,439.43,365.67,452.95" style="stroke:#181818;stroke-width:1.0;"/></g><!--reverse link Node<In, Out> to ProcessingNode<DataFrame, DataFrame>--><g id="link_Node&lt;In, Out&gt;_ProcessingNode&lt;DataFrame, DataFrame&gt;"><path codeLine="36" d="M320.72,455.29 C345.03,478.25 381.42,508.72 419,526 C434.26,533.02 450.96,538.54 467.74,542.9 " fill="none" id="Node&lt;In, Out&gt;-backto-ProcessingNode&lt;DataFrame, DataFrame&gt;" style="stroke:#181818;stroke-width:1.0;"/><polygon fill="none" points="315.69,460.16,306.28,441.17,325.47,450.15,315.69,460.16" style="stroke:#181818;stroke-width:1.0;"/></g><!--reverse link Node<In, Out> to WorkerNode<In, Out>--><g id="link_Node&lt;In, Out&gt;_WorkerNode&lt;In, Out&gt;"><path codeLine="39" d="M307.22,458.94 C327.64,497.81 366.51,560.33 419,593 C441.46,606.98 468.61,615.23 494.47,620.04 " fill="none" id="Node&lt;In, Out&gt;-backto-WorkerNode&lt;In, Out&gt;" style="stroke:#181818;stroke-width:1.0;"/><polygon fill="none" points="300.95,462.07,298.24,441.05,313.47,455.79,300.95,462.07" style="stroke:#181818;stroke-width:1.0;"/></g><!--reverse link Node<In, Out> to CallbackNode<InOut>--><g id="link_Node&lt;In, Out&gt;_CallbackNode&lt;InOut&gt;"><path codeLine="42" d="M300.03,460.77 C315.24,513.24 351.16,610.22 419,660 C440.69,675.91 468.04,684.7 494.34,689.41 " fill="none" id="Node&lt;In, Out&gt;-backto-CallbackNode&lt;InOut&gt;" style="stroke:#181818;stroke-width:1.0;"/><polygon fill="none" points="293.22,462.41,294.75,441.28,306.74,458.75,293.22,462.41" style="stroke:#181818;stroke-width:1.0;"/></g><!--reverse link Node<In, Out> to RemoteNode<In, Out, S>--><g id="link_Node&lt;In, Out&gt;_RemoteNode&lt;In, Out, S&gt;"><path codeLine="45" d="M295.37,461.15 C305.14,525.31 334.95,658.76 419,727 C437.11,741.71 459.92,750.5 482.83,755.62 " fill="none" id="Node&lt;In, Out&gt;-backto-RemoteNode&lt;In, Out, S&gt;" style="stroke:#181818;stroke-width:1.0;"/><polygon fill="none" points="288.42,461.99,292.65,441.23,302.29,460.1,288.42,461.99" style="stroke:#181818;stroke-width:1.0;"/></g><!--reverse link Node<In, Out> to GraphShapeNode<DataFrame, DataFrame>--><g id="link_Node&lt;In, Out&gt;_GraphShapeNode&lt;DataFrame, DataFrame&gt;"><path codeLine="48" d="M292.25,461.68 C296.89,536.43 318.56,706.72 419,794 C426.85,800.82 435.7,806.4 445.12,810.94 " fill="none" id="Node&lt;In, Out&gt;-backto-GraphShapeNode&lt;DataFrame, DataFrame&gt;" style="stroke:#181818;stroke-width:1.0;"/><polygon fill="none" points="285.24,461.68,291.27,441.36,299.23,461,285.24,461.68" style="stroke:#181818;stroke-width:1.0;"/></g><!--SRC=[dPH1ReCm44Ntd6B4cjmWwY9KgR9fer2fwuaPmCBOo1uMLTkx5wKu3S6fd6uz_p-F_zXshTGzMknWWwAjhHbqcHjbBB15xSOIQKuKLGnimCgwOIYb9S7IwAIH9G5rFRz3HzoOqbqkLPBKk28KEWVfiobflTCPl0pyaC97ykKhJnRxPbx-mOGg8AGLYf9WRVsvMbtlbE3HZMSH3DDsXTJjIVA8ZDlnw3IramPf8VcIQGOhw1vgqE0JsQ12FPLt-ZUmC2kWzg1NsL6v7vIAH0Nr7dPgSgkGcNGaxvPbXioROOeu4hWmp77AQBeBTsquZs6eAhAnKrY85xTaRuqWvwIkvuFF8ExIHFbzys_6jkT-BbzTc1sIUrIEIXt7xo4oYP3SemxK6QPBMmR5dxGRZaMuf_-WQB2d_uKRvVy6]--></g></svg>