<?xml version="1.0" encoding="UTF-8" standalone="no"?><svg xmlns="http://www.w3.org/2000/svg" xmlns:xlink="http://www.w3.org/1999/xlink" contentScriptType="application/ecmascript" contentStyleType="text/css" height="1159px" preserveAspectRatio="none" style="width:379px;height:1159px;background:#00000000;" version="1.1" viewBox="0 0 379 1159" width="379px" zoomAndPan="magnify"><defs><filter height="300%" id="f7lgbrrajtg3h" width="300%" x="-1" y="-1"><feGaussianBlur result="blurOut" stdDeviation="2.0"/><feColorMatrix in="blurOut" result="blurOut2" type="matrix" values="0 0 0 0 0 0 0 0 0 0 0 0 0 0 0 0 0 0 .4 0"/><feOffset dx="4.0" dy="4.0" in="blurOut2" result="blurOut3"/><feBlend in="SourceGraphic" in2="blurOut3" mode="normal"/></filter></defs><g><!--MD5=[680d5112d2c67c3de15744b0ad7e4a6c]
class NodeOptions--><rect codeLine="5" fill="#FEFECE" filter="url(#f7lgbrrajtg3h)" height="65.6094" id="NodeOptions" style="stroke:#A80036;stroke-width:1.5;" width="111" x="7" y="517.5"/><ellipse cx="22" cy="533.5" fill="#B4A7E5" rx="11" ry="11" style="stroke:#A80036;stroke-width:1.0;"/><path d="M17.9219,529.2656 L17.9219,527.1094 L25.3125,527.1094 L25.3125,529.2656 L22.8438,529.2656 L22.8438,537.3438 L25.3125,537.3438 L25.3125,539.5 L17.9219,539.5 L17.9219,537.3438 L20.3906,537.3438 L20.3906,529.2656 L17.9219,529.2656 Z " fill="#000000"/><text fill="#000000" font-family="sans-serif" font-size="12" font-style="italic" lengthAdjust="spacing" textLength="79" x="36" y="537.6543">NodeOptions</text><line style="stroke:#A80036;stroke-width:1.5;" x1="8" x2="117" y1="549.5" y2="549.5"/><ellipse cx="18" cy="560.5" rx="3" ry="3" style="stroke:#038048;stroke-width:1.0;fill:none;"/><text fill="#000000" font-family="sans-serif" font-size="11" lengthAdjust="spacing" textLength="77" x="27" y="563.7104">name : string</text><ellipse cx="18" cy="573.3047" rx="3" ry="3" style="stroke:#038048;stroke-width:1.0;fill:none;"/><text fill="#000000" font-family="sans-serif" font-size="11" lengthAdjust="spacing" textLength="62" x="27" y="576.5151">uid : string</text><!--MD5=[3a45af97e6b535177081653004ae69d4]
class SinkNodeOptions--><rect codeLine="9" fill="#FEFECE" filter="url(#f7lgbrrajtg3h)" height="91.2188" id="SinkNodeOptions" style="stroke:#A80036;stroke-width:1.5;" width="173" x="185" y="7"/><ellipse cx="216.2" cy="23" fill="#B4A7E5" rx="11" ry="11" style="stroke:#A80036;stroke-width:1.0;"/><path d="M212.1219,18.7656 L212.1219,16.6094 L219.5125,16.6094 L219.5125,18.7656 L217.0438,18.7656 L217.0438,26.8438 L219.5125,26.8438 L219.5125,29 L212.1219,29 L212.1219,26.8438 L214.5906,26.8438 L214.5906,18.7656 L212.1219,18.7656 Z " fill="#000000"/><text fill="#000000" font-family="sans-serif" font-size="12" font-style="italic" lengthAdjust="spacing" textLength="105" x="233.8" y="27.1543">SinkNodeOptions</text><line style="stroke:#A80036;stroke-width:1.5;" x1="186" x2="357" y1="39" y2="39"/><ellipse cx="196" cy="50" rx="3" ry="3" style="stroke:#038048;stroke-width:1.0;fill:none;"/><text fill="#000000" font-family="sans-serif" font-size="11" lengthAdjust="spacing" textLength="147" x="205" y="53.2104">completedEvent : boolean</text><ellipse cx="196" cy="62.8047" rx="3" ry="3" style="stroke:#038048;stroke-width:1.0;fill:none;"/><text fill="#000000" font-family="sans-serif" font-size="11" lengthAdjust="spacing" textLength="77" x="205" y="66.0151">name : string</text><ellipse cx="196" cy="75.6094" rx="3" ry="3" style="stroke:#038048;stroke-width:1.0;fill:none;"/><text fill="#000000" font-family="sans-serif" font-size="11" lengthAdjust="spacing" textLength="124" x="205" y="78.8198">persistence : boolean</text><ellipse cx="196" cy="88.4141" rx="3" ry="3" style="stroke:#038048;stroke-width:1.0;fill:none;"/><text fill="#000000" font-family="sans-serif" font-size="11" lengthAdjust="spacing" textLength="62" x="205" y="91.6245">uid : string</text><!--MD5=[2ce794d34c3bd0dbd6544d1249e177ac]
class SourceNodeOptions--><rect codeLine="16" fill="#FEFECE" filter="url(#f7lgbrrajtg3h)" height="91.2188" id="SourceNodeOptions" style="stroke:#A80036;stroke-width:1.5;" width="155" x="194" y="133"/><ellipse cx="209" cy="149" fill="#B4A7E5" rx="11" ry="11" style="stroke:#A80036;stroke-width:1.0;"/><path d="M204.9219,144.7656 L204.9219,142.6094 L212.3125,142.6094 L212.3125,144.7656 L209.8438,144.7656 L209.8438,152.8438 L212.3125,152.8438 L212.3125,155 L204.9219,155 L204.9219,152.8438 L207.3906,152.8438 L207.3906,144.7656 L204.9219,144.7656 Z " fill="#000000"/><text fill="#000000" font-family="sans-serif" font-size="12" font-style="italic" lengthAdjust="spacing" textLength="123" x="223" y="153.1543">SourceNodeOptions</text><line style="stroke:#A80036;stroke-width:1.5;" x1="195" x2="348" y1="165" y2="165"/><ellipse cx="205" cy="176" rx="3" ry="3" style="stroke:#038048;stroke-width:1.0;fill:none;"/><text fill="#000000" font-family="sans-serif" font-size="11" lengthAdjust="spacing" textLength="77" x="214" y="179.2104">name : string</text><ellipse cx="205" cy="188.8047" rx="3" ry="3" style="stroke:#038048;stroke-width:1.0;fill:none;"/><text fill="#000000" font-family="sans-serif" font-size="11" lengthAdjust="spacing" textLength="124" x="214" y="192.0151">persistence : boolean</text><ellipse cx="205" cy="201.6094" rx="3" ry="3" style="stroke:#038048;stroke-width:1.0;fill:none;"/><text fill="#000000" font-family="sans-serif" font-size="11" lengthAdjust="spacing" textLength="113" x="214" y="204.8198">source : DataObject</text><ellipse cx="205" cy="214.4141" rx="3" ry="3" style="stroke:#038048;stroke-width:1.0;fill:none;"/><text fill="#000000" font-family="sans-serif" font-size="11" lengthAdjust="spacing" textLength="62" x="214" y="217.6245">uid : string</text><!--MD5=[83be0607d484f2706c877cdeb5ff6723]
class TimedPullOptions--><rect codeLine="23" fill="#FEFECE" filter="url(#f7lgbrrajtg3h)" height="104.0234" id="TimedPullOptions" style="stroke:#A80036;stroke-width:1.5;" width="166" x="188.5" y="259.5"/><ellipse cx="217" cy="275.5" fill="#B4A7E5" rx="11" ry="11" style="stroke:#A80036;stroke-width:1.0;"/><path d="M212.9219,271.2656 L212.9219,269.1094 L220.3125,269.1094 L220.3125,271.2656 L217.8438,271.2656 L217.8438,279.3438 L220.3125,279.3438 L220.3125,281.5 L212.9219,281.5 L212.9219,279.3438 L215.3906,279.3438 L215.3906,271.2656 L212.9219,271.2656 Z " fill="#000000"/><text fill="#000000" font-family="sans-serif" font-size="12" font-style="italic" lengthAdjust="spacing" textLength="104" x="234" y="279.6543">TimedPullOptions</text><line style="stroke:#A80036;stroke-width:1.5;" x1="189.5" x2="353.5" y1="291.5" y2="291.5"/><ellipse cx="199.5" cy="302.5" rx="3" ry="3" style="stroke:#038048;stroke-width:1.0;fill:none;"/><text fill="#000000" font-family="sans-serif" font-size="11" lengthAdjust="spacing" textLength="110" x="208.5" y="305.7104">autoStart : boolean</text><ellipse cx="199.5" cy="315.3047" rx="3" ry="3" style="stroke:#038048;stroke-width:1.0;fill:none;"/><text fill="#000000" font-family="sans-serif" font-size="11" lengthAdjust="spacing" textLength="77" x="208.5" y="318.5151">name : string</text><ellipse cx="199.5" cy="328.1094" rx="3" ry="3" style="stroke:#038048;stroke-width:1.0;fill:none;"/><text fill="#000000" font-family="sans-serif" font-size="11" lengthAdjust="spacing" textLength="140" x="208.5" y="331.3198">pullOptions : PullOptions</text><ellipse cx="199.5" cy="340.9141" rx="3" ry="3" style="stroke:#038048;stroke-width:1.0;fill:none;"/><text fill="#000000" font-family="sans-serif" font-size="11" lengthAdjust="spacing" textLength="118" x="208.5" y="344.1245">throttlePull : boolean</text><ellipse cx="199.5" cy="353.7188" rx="3" ry="3" style="stroke:#038048;stroke-width:1.0;fill:none;"/><text fill="#000000" font-family="sans-serif" font-size="11" lengthAdjust="spacing" textLength="62" x="208.5" y="356.9292">uid : string</text><!--MD5=[f8be001ca6bb3f5272d1538c9e48ab28]
class FrameCloneOptions--><rect codeLine="31" fill="#FEFECE" filter="url(#f7lgbrrajtg3h)" height="78.4141" id="FrameCloneOptions" style="stroke:#A80036;stroke-width:1.5;" width="152" x="195.5" y="398.5"/><ellipse cx="210.5" cy="414.5" fill="#B4A7E5" rx="11" ry="11" style="stroke:#A80036;stroke-width:1.0;"/><path d="M206.4219,410.2656 L206.4219,408.1094 L213.8125,408.1094 L213.8125,410.2656 L211.3438,410.2656 L211.3438,418.3438 L213.8125,418.3438 L213.8125,420.5 L206.4219,420.5 L206.4219,418.3438 L208.8906,418.3438 L208.8906,410.2656 L206.4219,410.2656 Z " fill="#000000"/><text fill="#000000" font-family="sans-serif" font-size="12" font-style="italic" lengthAdjust="spacing" textLength="120" x="224.5" y="418.6543">FrameCloneOptions</text><line style="stroke:#A80036;stroke-width:1.5;" x1="196.5" x2="346.5" y1="430.5" y2="430.5"/><ellipse cx="206.5" cy="441.5" rx="3" ry="3" style="stroke:#038048;stroke-width:1.0;fill:none;"/><text fill="#000000" font-family="sans-serif" font-size="11" lengthAdjust="spacing" textLength="77" x="215.5" y="444.7104">name : string</text><ellipse cx="206.5" cy="454.3047" rx="3" ry="3" style="stroke:#038048;stroke-width:1.0;fill:none;"/><text fill="#000000" font-family="sans-serif" font-size="11" lengthAdjust="spacing" textLength="95" x="215.5" y="457.5151">repack : boolean</text><ellipse cx="206.5" cy="467.1094" rx="3" ry="3" style="stroke:#038048;stroke-width:1.0;fill:none;"/><text fill="#000000" font-family="sans-serif" font-size="11" lengthAdjust="spacing" textLength="62" x="215.5" y="470.3198">uid : string</text><!--MD5=[0d1b020772f5726128739ee6808d9f3f]
class BufferOptions--><rect codeLine="37" fill="#FEFECE" filter="url(#f7lgbrrajtg3h)" height="78.4141" id="BufferOptions" style="stroke:#A80036;stroke-width:1.5;" width="115" x="214" y="511.5"/><ellipse cx="229" cy="527.5" fill="#B4A7E5" rx="11" ry="11" style="stroke:#A80036;stroke-width:1.0;"/><path d="M224.9219,523.2656 L224.9219,521.1094 L232.3125,521.1094 L232.3125,523.2656 L229.8438,523.2656 L229.8438,531.3438 L232.3125,531.3438 L232.3125,533.5 L224.9219,533.5 L224.9219,531.3438 L227.3906,531.3438 L227.3906,523.2656 L224.9219,523.2656 Z " fill="#000000"/><text fill="#000000" font-family="sans-serif" font-size="12" font-style="italic" lengthAdjust="spacing" textLength="83" x="243" y="531.6543">BufferOptions</text><line style="stroke:#A80036;stroke-width:1.5;" x1="215" x2="328" y1="543.5" y2="543.5"/><ellipse cx="225" cy="554.5" rx="3" ry="3" style="stroke:#038048;stroke-width:1.0;fill:none;"/><text fill="#000000" font-family="sans-serif" font-size="11" lengthAdjust="spacing" textLength="77" x="234" y="557.7104">name : string</text><ellipse cx="225" cy="567.3047" rx="3" ry="3" style="stroke:#038048;stroke-width:1.0;fill:none;"/><text fill="#000000" font-family="sans-serif" font-size="11" lengthAdjust="spacing" textLength="86" x="234" y="570.5151">service : string</text><ellipse cx="225" cy="580.1094" rx="3" ry="3" style="stroke:#038048;stroke-width:1.0;fill:none;"/><text fill="#000000" font-family="sans-serif" font-size="11" lengthAdjust="spacing" textLength="62" x="234" y="583.3198">uid : string</text><!--MD5=[f2c00490a58e4d2420fdf06e183a4b13]
class ProcessingNodeOptions--><rect codeLine="43" fill="#FEFECE" filter="url(#f7lgbrrajtg3h)" height="78.4141" id="ProcessingNodeOptions" style="stroke:#A80036;stroke-width:1.5;" width="177" x="183" y="624.5"/><ellipse cx="198" cy="640.5" fill="#B4A7E5" rx="11" ry="11" style="stroke:#A80036;stroke-width:1.0;"/><path d="M193.9219,636.2656 L193.9219,634.1094 L201.3125,634.1094 L201.3125,636.2656 L198.8438,636.2656 L198.8438,644.3438 L201.3125,644.3438 L201.3125,646.5 L193.9219,646.5 L193.9219,644.3438 L196.3906,644.3438 L196.3906,636.2656 L193.9219,636.2656 Z " fill="#000000"/><text fill="#000000" font-family="sans-serif" font-size="12" font-style="italic" lengthAdjust="spacing" textLength="145" x="212" y="644.6543">ProcessingNodeOptions</text><line style="stroke:#A80036;stroke-width:1.5;" x1="184" x2="359" y1="656.5" y2="656.5"/><ellipse cx="194" cy="667.5" rx="3" ry="3" style="stroke:#038048;stroke-width:1.0;fill:none;"/><text fill="#000000" font-family="sans-serif" font-size="11" lengthAdjust="spacing" textLength="121" x="203" y="670.7104">frameFilter : Function</text><ellipse cx="194" cy="680.3047" rx="3" ry="3" style="stroke:#038048;stroke-width:1.0;fill:none;"/><text fill="#000000" font-family="sans-serif" font-size="11" lengthAdjust="spacing" textLength="77" x="203" y="683.5151">name : string</text><ellipse cx="194" cy="693.1094" rx="3" ry="3" style="stroke:#038048;stroke-width:1.0;fill:none;"/><text fill="#000000" font-family="sans-serif" font-size="11" lengthAdjust="spacing" textLength="62" x="203" y="696.3198">uid : string</text><!--MD5=[e60fd3637eea70808d3203857e2cd282]
class WorkerNodeOptions--><rect codeLine="49" fill="#FEFECE" filter="url(#f7lgbrrajtg3h)" height="180.8516" id="WorkerNodeOptions" style="stroke:#A80036;stroke-width:1.5;" width="177" x="183" y="738"/><ellipse cx="207.45" cy="754" fill="#B4A7E5" rx="11" ry="11" style="stroke:#A80036;stroke-width:1.0;"/><path d="M203.3719,749.7656 L203.3719,747.6094 L210.7625,747.6094 L210.7625,749.7656 L208.2938,749.7656 L208.2938,757.8438 L210.7625,757.8438 L210.7625,760 L203.3719,760 L203.3719,757.8438 L205.8406,757.8438 L205.8406,749.7656 L203.3719,749.7656 Z " fill="#000000"/><text fill="#000000" font-family="sans-serif" font-size="12" font-style="italic" lengthAdjust="spacing" textLength="124" x="223.55" y="758.1543">WorkerNodeOptions</text><line style="stroke:#A80036;stroke-width:1.5;" x1="184" x2="359" y1="770" y2="770"/><ellipse cx="194" cy="781" rx="3" ry="3" style="stroke:#038048;stroke-width:1.0;fill:none;"/><text fill="#000000" font-family="sans-serif" font-size="11" lengthAdjust="spacing" textLength="58" x="203" y="784.2104">args : any</text><ellipse cx="194" cy="793.8047" rx="3" ry="3" style="stroke:#038048;stroke-width:1.0;fill:none;"/><text fill="#000000" font-family="sans-serif" font-size="11" lengthAdjust="spacing" textLength="95" x="203" y="797.0151">directory : string</text><ellipse cx="194" cy="806.6094" rx="3" ry="3" style="stroke:#038048;stroke-width:1.0;fill:none;"/><text fill="#000000" font-family="sans-serif" font-size="11" lengthAdjust="spacing" textLength="97" x="203" y="809.8198">imports : string[]</text><ellipse cx="194" cy="819.4141" rx="3" ry="3" style="stroke:#038048;stroke-width:1.0;fill:none;"/><text fill="#000000" font-family="sans-serif" font-size="11" lengthAdjust="spacing" textLength="77" x="203" y="822.6245">name : string</text><ellipse cx="194" cy="832.2188" rx="3" ry="3" style="stroke:#038048;stroke-width:1.0;fill:none;"/><text fill="#000000" font-family="sans-serif" font-size="11" lengthAdjust="spacing" textLength="131" x="203" y="835.4292">optimizedPull : boolean</text><ellipse cx="194" cy="845.0234" rx="3" ry="3" style="stroke:#038048;stroke-width:1.0;fill:none;"/><text fill="#000000" font-family="sans-serif" font-size="11" lengthAdjust="spacing" textLength="151" x="203" y="848.2339">poolConcurrency : number</text><ellipse cx="194" cy="857.8281" rx="3" ry="3" style="stroke:#038048;stroke-width:1.0;fill:none;"/><text fill="#000000" font-family="sans-serif" font-size="11" lengthAdjust="spacing" textLength="103" x="203" y="861.0386">poolSize : number</text><ellipse cx="194" cy="870.6328" rx="3" ry="3" style="stroke:#038048;stroke-width:1.0;fill:none;"/><text fill="#000000" font-family="sans-serif" font-size="11" lengthAdjust="spacing" textLength="110" x="203" y="873.8433">services : Service[]</text><ellipse cx="194" cy="883.4375" rx="3" ry="3" style="stroke:#038048;stroke-width:1.0;fill:none;"/><text fill="#000000" font-family="sans-serif" font-size="11" lengthAdjust="spacing" textLength="113" x="203" y="886.6479">typescript : boolean</text><ellipse cx="194" cy="896.2422" rx="3" ry="3" style="stroke:#038048;stroke-width:1.0;fill:none;"/><text fill="#000000" font-family="sans-serif" font-size="11" lengthAdjust="spacing" textLength="62" x="203" y="899.4526">uid : string</text><ellipse cx="194" cy="909.0469" rx="3" ry="3" style="stroke:#038048;stroke-width:1.0;fill:none;"/><text fill="#000000" font-family="sans-serif" font-size="11" lengthAdjust="spacing" textLength="84" x="203" y="912.2573">worker : string</text><!--MD5=[3fd93ac0a6f13d12a5a4eab79a4cef08]
class CallbackNodeOptions--><rect codeLine="63" fill="#FEFECE" filter="url(#f7lgbrrajtg3h)" height="78.4141" id="CallbackNodeOptions" style="stroke:#A80036;stroke-width:1.5;" width="163" x="190" y="954.5"/><ellipse cx="205" cy="970.5" fill="#B4A7E5" rx="11" ry="11" style="stroke:#A80036;stroke-width:1.0;"/><path d="M200.9219,966.2656 L200.9219,964.1094 L208.3125,964.1094 L208.3125,966.2656 L205.8438,966.2656 L205.8438,974.3438 L208.3125,974.3438 L208.3125,976.5 L200.9219,976.5 L200.9219,974.3438 L203.3906,974.3438 L203.3906,966.2656 L200.9219,966.2656 Z " fill="#000000"/><text fill="#000000" font-family="sans-serif" font-size="12" font-style="italic" lengthAdjust="spacing" textLength="131" x="219" y="974.6543">CallbackNodeOptions</text><line style="stroke:#A80036;stroke-width:1.5;" x1="191" x2="352" y1="986.5" y2="986.5"/><ellipse cx="201" cy="997.5" rx="3" ry="3" style="stroke:#038048;stroke-width:1.0;fill:none;"/><text fill="#000000" font-family="sans-serif" font-size="11" lengthAdjust="spacing" textLength="110" x="210" y="1000.7104">autoPush : boolean</text><ellipse cx="201" cy="1010.3047" rx="3" ry="3" style="stroke:#038048;stroke-width:1.0;fill:none;"/><text fill="#000000" font-family="sans-serif" font-size="11" lengthAdjust="spacing" textLength="77" x="210" y="1013.5151">name : string</text><ellipse cx="201" cy="1023.1094" rx="3" ry="3" style="stroke:#038048;stroke-width:1.0;fill:none;"/><text fill="#000000" font-family="sans-serif" font-size="11" lengthAdjust="spacing" textLength="62" x="210" y="1026.3198">uid : string</text><!--MD5=[27233f9f0dbea12209f7bde4d6298590]
class RemoteNodeOptions<S>--><rect codeLine="69" fill="#FEFECE" filter="url(#f7lgbrrajtg3h)" height="78.4141" id="RemoteNodeOptions&lt;S&gt;" style="stroke:#A80036;stroke-width:1.5;" width="187" x="178" y="1067.5"/><ellipse cx="193" cy="1083.5" fill="#B4A7E5" rx="11" ry="11" style="stroke:#A80036;stroke-width:1.0;"/><path d="M188.9219,1079.2656 L188.9219,1077.1094 L196.3125,1077.1094 L196.3125,1079.2656 L193.8438,1079.2656 L193.8438,1087.3438 L196.3125,1087.3438 L196.3125,1089.5 L188.9219,1089.5 L188.9219,1087.3438 L191.3906,1087.3438 L191.3906,1079.2656 L188.9219,1079.2656 Z " fill="#000000"/><text fill="#000000" font-family="sans-serif" font-size="12" font-style="italic" lengthAdjust="spacing" textLength="155" x="207" y="1087.6543">RemoteNodeOptions&lt;S&gt;</text><line style="stroke:#A80036;stroke-width:1.5;" x1="179" x2="364" y1="1099.5" y2="1099.5"/><ellipse cx="189" cy="1110.5" rx="3" ry="3" style="stroke:#038048;stroke-width:1.0;fill:none;"/><text fill="#000000" font-family="sans-serif" font-size="11" lengthAdjust="spacing" textLength="77" x="198" y="1113.7104">name : string</text><ellipse cx="189" cy="1123.3047" rx="3" ry="3" style="stroke:#038048;stroke-width:1.0;fill:none;"/><text fill="#000000" font-family="sans-serif" font-size="11" lengthAdjust="spacing" textLength="144" x="198" y="1126.5151">service : Serializable&lt;S&gt;</text><ellipse cx="189" cy="1136.1094" rx="3" ry="3" style="stroke:#038048;stroke-width:1.0;fill:none;"/><text fill="#000000" font-family="sans-serif" font-size="11" lengthAdjust="spacing" textLength="62" x="198" y="1139.3198">uid : string</text><!--MD5=[c53316f3a39552c4811e64290afb8ef0]
reverse link NodeOptions to SinkNodeOptions--><path codeLine="15" d="M65.72,496.98 C71.78,409.55 94.29,233.97 178,115.5 C182.37,109.31 187.56,103.55 193.21,98.22 " fill="none" id="NodeOptions-backto-SinkNodeOptions" style="stroke:#A80036;stroke-width:1.0;"/><polygon fill="none" points="72.69,497.68,64.51,517.22,58.72,496.84,72.69,497.68" style="stroke:#A80036;stroke-width:1.0;"/><!--MD5=[e0b43980086d53d1d51463422aa604a9]
reverse link NodeOptions to SourceNodeOptions--><path codeLine="22" d="M72.82,497.53 C86.53,431.82 117.38,318.99 178,241.5 C182.79,235.38 188.34,229.63 194.3,224.29 " fill="none" id="NodeOptions-backto-SourceNodeOptions" style="stroke:#A80036;stroke-width:1.0;"/><polygon fill="none" points="79.61,499.23,68.87,517.5,65.88,496.52,79.61,499.23" style="stroke:#A80036;stroke-width:1.0;"/><!--MD5=[1105cad5d254e400c85940db4c44d412]
reverse link NodeOptions to TimedPullOptions--><path codeLine="30" d="M91.32,500.02 C112.39,464.37 143.51,416.7 178,380.5 C183.53,374.7 189.59,369.03 195.88,363.58 " fill="none" id="NodeOptions-backto-TimedPullOptions" style="stroke:#A80036;stroke-width:1.0;"/><polygon fill="none" points="97.33,503.62,81.26,517.44,85.2,496.62,97.33,503.62" style="stroke:#A80036;stroke-width:1.0;"/><!--MD5=[3c50e1200fd005beb74a42a1218deb82]
reverse link NodeOptions to FrameCloneOptions--><path codeLine="36" d="M135.89,510.98 C156.26,499.86 178.4,487.78 198.74,476.67 " fill="none" id="NodeOptions-backto-FrameCloneOptions" style="stroke:#A80036;stroke-width:1.0;"/><polygon fill="none" points="139.07,517.22,118.16,520.66,132.36,504.94,139.07,517.22" style="stroke:#A80036;stroke-width:1.0;"/><!--MD5=[dd25f74341b8e10f30f599ef54a5fb70]
reverse link NodeOptions to BufferOptions--><path codeLine="42" d="M138.34,550.5 C163.2,550.5 190.46,550.5 213.73,550.5 " fill="none" id="NodeOptions-backto-BufferOptions" style="stroke:#A80036;stroke-width:1.0;"/><polygon fill="none" points="138.16,557.5,118.16,550.5,138.16,543.5,138.16,557.5" style="stroke:#A80036;stroke-width:1.0;"/><!--MD5=[2939fe06d48eeea86f491218d2cd7cda]
reverse link NodeOptions to ProcessingNodeOptions--><path codeLine="48" d="M135.89,590.02 C156.26,601.14 178.4,613.22 198.74,624.33 " fill="none" id="NodeOptions-backto-ProcessingNodeOptions" style="stroke:#A80036;stroke-width:1.0;"/><polygon fill="none" points="132.36,596.06,118.16,580.34,139.07,583.78,132.36,596.06" style="stroke:#A80036;stroke-width:1.0;"/><!--MD5=[48c0d8a6b2c3f0f54862db08996383d2]
reverse link NodeOptions to WorkerNodeOptions--><path codeLine="62" d="M95.53,600.8 C117.76,634.94 148.56,680.75 178,719.5 C182.58,725.53 187.38,731.67 192.28,737.8 " fill="none" id="NodeOptions-backto-WorkerNodeOptions" style="stroke:#A80036;stroke-width:1.0;"/><polygon fill="none" points="89.41,604.23,84.43,583.63,101.17,596.63,89.41,604.23" style="stroke:#A80036;stroke-width:1.0;"/><!--MD5=[3c1d6a837d595b4b12ceb2102c3bd2cd]
reverse link NodeOptions to CallbackNodeOptions--><path codeLine="68" d="M67.34,603.82 C75.53,683.68 100.83,835.71 178,936.5 C182.93,942.94 188.82,948.83 195.19,954.16 " fill="none" id="NodeOptions-backto-CallbackNodeOptions" style="stroke:#A80036;stroke-width:1.0;"/><polygon fill="none" points="60.36,604.33,65.49,583.77,74.3,603.04,60.36,604.33" style="stroke:#A80036;stroke-width:1.0;"/><!--MD5=[004460c898643e7d72b774807f5c1a44]
reverse link NodeOptions to RemoteNodeOptions<S>--><path codeLine="74" d="M62.76,603.91 C64.02,701.56 79.05,911.5 178,1049.5 C182.73,1056.09 188.47,1062.08 194.77,1067.47 " fill="none" id="NodeOptions-backto-RemoteNodeOptions&lt;S&gt;" style="stroke:#A80036;stroke-width:1.0;"/><polygon fill="none" points="55.76,603.79,62.68,583.76,69.76,603.74,55.76,603.79" style="stroke:#A80036;stroke-width:1.0;"/><!--MD5=[683662ac65f74f611a7dbafda79648da]
@startuml
skinparam BackgroundColor transparent
left to right direction
hide empty methods
hide empty fields
interface "NodeOptions" {
    +name : string
    +uid : string
}
interface "SinkNodeOptions" {
    +completedEvent : boolean
    +name : string
    +persistence : boolean
    +uid : string
}
"NodeOptions" <|- - "SinkNodeOptions"
interface "SourceNodeOptions" {
    +name : string
    +persistence : boolean
    +source : DataObject
    +uid : string
}
"NodeOptions" <|- - "SourceNodeOptions"
interface "TimedPullOptions" {
    +autoStart : boolean
    +name : string
    +pullOptions : PullOptions
    +throttlePull : boolean
    +uid : string
}
"NodeOptions" <|- - "TimedPullOptions"
interface "FrameCloneOptions" {
    +name : string
    +repack : boolean
    +uid : string
}
"NodeOptions" <|- - "FrameCloneOptions"
interface "BufferOptions" {
    +name : string
    +service : string
    +uid : string
}
"NodeOptions" <|- - "BufferOptions"
interface "ProcessingNodeOptions" {
    +frameFilter : Function
    +name : string
    +uid : string
}
"NodeOptions" <|- - "ProcessingNodeOptions"
interface "WorkerNodeOptions" {
    +args : any
    +directory : string
    +imports : string[]
    +name : string
    +optimizedPull : boolean
    +poolConcurrency : number
    +poolSize : number
    +services : Service[]
    +typescript : boolean
    +uid : string
    +worker : string
}
"NodeOptions" <|- - "WorkerNodeOptions"
interface "CallbackNodeOptions" {
    +autoPush : boolean
    +name : string
    +uid : string
}
"NodeOptions" <|- - "CallbackNodeOptions"
interface "RemoteNodeOptions<S>" {
    +name : string
    +service : Serializable<S>
    +uid : string
}
"NodeOptions" <|- - "RemoteNodeOptions<S>"
@enduml

PlantUML version 1.2021.14(Fri Nov 12 16:46:50 UTC 2021)
(GPL source distribution)
Java Runtime: OpenJDK Runtime Environment
JVM: OpenJDK 64-Bit Server VM
Default Encoding: UTF-8
Language: en
Country: null
--></g></svg>