<?xml version="1.0" encoding="UTF-8" standalone="no"?><svg xmlns="http://www.w3.org/2000/svg" xmlns:xlink="http://www.w3.org/1999/xlink" contentScriptType="application/ecmascript" contentStyleType="text/css" height="589px" preserveAspectRatio="none" style="width:379px;height:589px;background:#00000000;" version="1.1" viewBox="0 0 379 589" width="379px" zoomAndPan="magnify"><defs><filter height="300%" id="f5gz82piyzsvi" width="300%" x="-1" y="-1"><feGaussianBlur result="blurOut" stdDeviation="2.0"/><feColorMatrix in="blurOut" result="blurOut2" type="matrix" values="0 0 0 0 0 0 0 0 0 0 0 0 0 0 0 0 0 0 .4 0"/><feOffset dx="4.0" dy="4.0" in="blurOut2" result="blurOut3"/><feBlend in="SourceGraphic" in2="blurOut3" mode="normal"/></filter></defs><g><!--MD5=[680d5112d2c67c3de15744b0ad7e4a6c]
class NodeOptions--><rect codeLine="5" fill="#FEFECE" filter="url(#f5gz82piyzsvi)" height="32" id="NodeOptions" style="stroke:#A80036;stroke-width:1.5;" width="111" x="7" y="275"/><ellipse cx="22" cy="291" fill="#B4A7E5" rx="11" ry="11" style="stroke:#A80036;stroke-width:1.0;"/><path d="M17.9219,286.7656 L17.9219,284.6094 L25.3125,284.6094 L25.3125,286.7656 L22.8438,286.7656 L22.8438,294.8438 L25.3125,294.8438 L25.3125,297 L17.9219,297 L17.9219,294.8438 L20.3906,294.8438 L20.3906,286.7656 L17.9219,286.7656 Z " fill="#000000"/><text fill="#000000" font-family="sans-serif" font-size="12" font-style="italic" lengthAdjust="spacing" textLength="79" x="36" y="295.1543">NodeOptions</text><!--MD5=[3a45af97e6b535177081653004ae69d4]
class SinkNodeOptions--><rect codeLine="7" fill="#FEFECE" filter="url(#f5gz82piyzsvi)" height="32" id="SinkNodeOptions" style="stroke:#A80036;stroke-width:1.5;" width="137" x="203" y="7"/><ellipse cx="218" cy="23" fill="#B4A7E5" rx="11" ry="11" style="stroke:#A80036;stroke-width:1.0;"/><path d="M213.9219,18.7656 L213.9219,16.6094 L221.3125,16.6094 L221.3125,18.7656 L218.8438,18.7656 L218.8438,26.8438 L221.3125,26.8438 L221.3125,29 L213.9219,29 L213.9219,26.8438 L216.3906,26.8438 L216.3906,18.7656 L213.9219,18.7656 Z " fill="#000000"/><text fill="#000000" font-family="sans-serif" font-size="12" font-style="italic" lengthAdjust="spacing" textLength="105" x="232" y="27.1543">SinkNodeOptions</text><!--MD5=[2ce794d34c3bd0dbd6544d1249e177ac]
class SourceNodeOptions--><rect codeLine="10" fill="#FEFECE" filter="url(#f5gz82piyzsvi)" height="32" id="SourceNodeOptions" style="stroke:#A80036;stroke-width:1.5;" width="155" x="194" y="74"/><ellipse cx="209" cy="90" fill="#B4A7E5" rx="11" ry="11" style="stroke:#A80036;stroke-width:1.0;"/><path d="M204.9219,85.7656 L204.9219,83.6094 L212.3125,83.6094 L212.3125,85.7656 L209.8438,85.7656 L209.8438,93.8438 L212.3125,93.8438 L212.3125,96 L204.9219,96 L204.9219,93.8438 L207.3906,93.8438 L207.3906,85.7656 L204.9219,85.7656 Z " fill="#000000"/><text fill="#000000" font-family="sans-serif" font-size="12" font-style="italic" lengthAdjust="spacing" textLength="123" x="223" y="94.1543">SourceNodeOptions</text><!--MD5=[83be0607d484f2706c877cdeb5ff6723]
class TimedPullOptions--><rect codeLine="13" fill="#FEFECE" filter="url(#f5gz82piyzsvi)" height="32" id="TimedPullOptions" style="stroke:#A80036;stroke-width:1.5;" width="136" x="203.5" y="141"/><ellipse cx="218.5" cy="157" fill="#B4A7E5" rx="11" ry="11" style="stroke:#A80036;stroke-width:1.0;"/><path d="M214.4219,152.7656 L214.4219,150.6094 L221.8125,150.6094 L221.8125,152.7656 L219.3438,152.7656 L219.3438,160.8438 L221.8125,160.8438 L221.8125,163 L214.4219,163 L214.4219,160.8438 L216.8906,160.8438 L216.8906,152.7656 L214.4219,152.7656 Z " fill="#000000"/><text fill="#000000" font-family="sans-serif" font-size="12" font-style="italic" lengthAdjust="spacing" textLength="104" x="232.5" y="161.1543">TimedPullOptions</text><!--MD5=[f8be001ca6bb3f5272d1538c9e48ab28]
class FrameCloneOptions--><rect codeLine="16" fill="#FEFECE" filter="url(#f5gz82piyzsvi)" height="32" id="FrameCloneOptions" style="stroke:#A80036;stroke-width:1.5;" width="152" x="195.5" y="208"/><ellipse cx="210.5" cy="224" fill="#B4A7E5" rx="11" ry="11" style="stroke:#A80036;stroke-width:1.0;"/><path d="M206.4219,219.7656 L206.4219,217.6094 L213.8125,217.6094 L213.8125,219.7656 L211.3438,219.7656 L211.3438,227.8438 L213.8125,227.8438 L213.8125,230 L206.4219,230 L206.4219,227.8438 L208.8906,227.8438 L208.8906,219.7656 L206.4219,219.7656 Z " fill="#000000"/><text fill="#000000" font-family="sans-serif" font-size="12" font-style="italic" lengthAdjust="spacing" textLength="120" x="224.5" y="228.1543">FrameCloneOptions</text><!--MD5=[0d1b020772f5726128739ee6808d9f3f]
class BufferOptions--><rect codeLine="19" fill="#FEFECE" filter="url(#f5gz82piyzsvi)" height="32" id="BufferOptions" style="stroke:#A80036;stroke-width:1.5;" width="115" x="214" y="275"/><ellipse cx="229" cy="291" fill="#B4A7E5" rx="11" ry="11" style="stroke:#A80036;stroke-width:1.0;"/><path d="M224.9219,286.7656 L224.9219,284.6094 L232.3125,284.6094 L232.3125,286.7656 L229.8438,286.7656 L229.8438,294.8438 L232.3125,294.8438 L232.3125,297 L224.9219,297 L224.9219,294.8438 L227.3906,294.8438 L227.3906,286.7656 L224.9219,286.7656 Z " fill="#000000"/><text fill="#000000" font-family="sans-serif" font-size="12" font-style="italic" lengthAdjust="spacing" textLength="83" x="243" y="295.1543">BufferOptions</text><!--MD5=[f2c00490a58e4d2420fdf06e183a4b13]
class ProcessingNodeOptions--><rect codeLine="22" fill="#FEFECE" filter="url(#f5gz82piyzsvi)" height="32" id="ProcessingNodeOptions" style="stroke:#A80036;stroke-width:1.5;" width="177" x="183" y="342"/><ellipse cx="198" cy="358" fill="#B4A7E5" rx="11" ry="11" style="stroke:#A80036;stroke-width:1.0;"/><path d="M193.9219,353.7656 L193.9219,351.6094 L201.3125,351.6094 L201.3125,353.7656 L198.8438,353.7656 L198.8438,361.8438 L201.3125,361.8438 L201.3125,364 L193.9219,364 L193.9219,361.8438 L196.3906,361.8438 L196.3906,353.7656 L193.9219,353.7656 Z " fill="#000000"/><text fill="#000000" font-family="sans-serif" font-size="12" font-style="italic" lengthAdjust="spacing" textLength="145" x="212" y="362.1543">ProcessingNodeOptions</text><!--MD5=[e60fd3637eea70808d3203857e2cd282]
class WorkerNodeOptions--><rect codeLine="25" fill="#FEFECE" filter="url(#f5gz82piyzsvi)" height="32" id="WorkerNodeOptions" style="stroke:#A80036;stroke-width:1.5;" width="156" x="193.5" y="409"/><ellipse cx="208.5" cy="425" fill="#B4A7E5" rx="11" ry="11" style="stroke:#A80036;stroke-width:1.0;"/><path d="M204.4219,420.7656 L204.4219,418.6094 L211.8125,418.6094 L211.8125,420.7656 L209.3438,420.7656 L209.3438,428.8438 L211.8125,428.8438 L211.8125,431 L204.4219,431 L204.4219,428.8438 L206.8906,428.8438 L206.8906,420.7656 L204.4219,420.7656 Z " fill="#000000"/><text fill="#000000" font-family="sans-serif" font-size="12" font-style="italic" lengthAdjust="spacing" textLength="124" x="222.5" y="429.1543">WorkerNodeOptions</text><!--MD5=[3fd93ac0a6f13d12a5a4eab79a4cef08]
class CallbackNodeOptions--><rect codeLine="28" fill="#FEFECE" filter="url(#f5gz82piyzsvi)" height="32" id="CallbackNodeOptions" style="stroke:#A80036;stroke-width:1.5;" width="163" x="190" y="476"/><ellipse cx="205" cy="492" fill="#B4A7E5" rx="11" ry="11" style="stroke:#A80036;stroke-width:1.0;"/><path d="M200.9219,487.7656 L200.9219,485.6094 L208.3125,485.6094 L208.3125,487.7656 L205.8438,487.7656 L205.8438,495.8438 L208.3125,495.8438 L208.3125,498 L200.9219,498 L200.9219,495.8438 L203.3906,495.8438 L203.3906,487.7656 L200.9219,487.7656 Z " fill="#000000"/><text fill="#000000" font-family="sans-serif" font-size="12" font-style="italic" lengthAdjust="spacing" textLength="131" x="219" y="496.1543">CallbackNodeOptions</text><!--MD5=[27233f9f0dbea12209f7bde4d6298590]
class RemoteNodeOptions<S>--><rect codeLine="31" fill="#FEFECE" filter="url(#f5gz82piyzsvi)" height="32" id="RemoteNodeOptions&lt;S&gt;" style="stroke:#A80036;stroke-width:1.5;" width="187" x="178" y="543"/><ellipse cx="193" cy="559" fill="#B4A7E5" rx="11" ry="11" style="stroke:#A80036;stroke-width:1.0;"/><path d="M188.9219,554.7656 L188.9219,552.6094 L196.3125,552.6094 L196.3125,554.7656 L193.8438,554.7656 L193.8438,562.8438 L196.3125,562.8438 L196.3125,565 L188.9219,565 L188.9219,562.8438 L191.3906,562.8438 L191.3906,554.7656 L188.9219,554.7656 Z " fill="#000000"/><text fill="#000000" font-family="sans-serif" font-size="12" font-style="italic" lengthAdjust="spacing" textLength="155" x="207" y="563.1543">RemoteNodeOptions&lt;S&gt;</text><!--MD5=[c53316f3a39552c4811e64290afb8ef0]
reverse link NodeOptions to SinkNodeOptions--><path codeLine="9" d="M71.81,255.09 C85.45,203.95 117.32,110.31 178,56 C185.75,49.06 195.06,43.56 204.74,39.2 " fill="none" id="NodeOptions-backto-SinkNodeOptions" style="stroke:#A80036;stroke-width:1.0;"/><polygon fill="none" points="78.55,257.03,66.92,274.74,64.96,253.65,78.55,257.03" style="stroke:#A80036;stroke-width:1.0;"/><!--MD5=[e0b43980086d53d1d51463422aa604a9]
reverse link NodeOptions to SourceNodeOptions--><path codeLine="12" d="M78.89,256.42 C97.35,218.65 131.69,158.76 178,123 C186.91,116.12 197.37,110.6 207.99,106.18 " fill="none" id="NodeOptions-backto-SourceNodeOptions" style="stroke:#A80036;stroke-width:1.0;"/><polygon fill="none" points="85.2,259.45,70.4,274.61,72.52,253.53,85.2,259.45" style="stroke:#A80036;stroke-width:1.0;"/><!--MD5=[1105cad5d254e400c85940db4c44d412]
reverse link NodeOptions to TimedPullOptions--><path codeLine="15" d="M91.91,260.33 C113.7,238.28 145.48,209.18 178,190 C189.31,183.33 202.18,177.69 214.66,173.06 " fill="none" id="NodeOptions-backto-TimedPullOptions" style="stroke:#A80036;stroke-width:1.0;"/><polygon fill="none" points="96.83,265.3,77.94,274.89,86.73,255.61,96.83,265.3" style="stroke:#A80036;stroke-width:1.0;"/><!--MD5=[3c50e1200fd005beb74a42a1218deb82]
reverse link NodeOptions to FrameCloneOptions--><path codeLine="18" d="M132.37,268.71 C161.35,259.33 194.44,248.62 220.96,240.03 " fill="none" id="NodeOptions-backto-FrameCloneOptions" style="stroke:#A80036;stroke-width:1.0;"/><polygon fill="none" points="134.27,275.45,113.08,274.95,129.95,262.13,134.27,275.45" style="stroke:#A80036;stroke-width:1.0;"/><!--MD5=[dd25f74341b8e10f30f599ef54a5fb70]
reverse link NodeOptions to BufferOptions--><path codeLine="21" d="M138.34,291 C163.2,291 190.46,291 213.73,291 " fill="none" id="NodeOptions-backto-BufferOptions" style="stroke:#A80036;stroke-width:1.0;"/><polygon fill="none" points="138.16,298,118.16,291,138.16,284,138.16,298" style="stroke:#A80036;stroke-width:1.0;"/><!--MD5=[2939fe06d48eeea86f491218d2cd7cda]
reverse link NodeOptions to ProcessingNodeOptions--><path codeLine="24" d="M132.37,313.29 C161.35,322.67 194.44,333.38 220.96,341.97 " fill="none" id="NodeOptions-backto-ProcessingNodeOptions" style="stroke:#A80036;stroke-width:1.0;"/><polygon fill="none" points="129.95,319.87,113.08,307.05,134.27,306.55,129.95,319.87" style="stroke:#A80036;stroke-width:1.0;"/><!--MD5=[48c0d8a6b2c3f0f54862db08996383d2]
reverse link NodeOptions to WorkerNodeOptions--><path codeLine="27" d="M92.39,321.63 C114.23,343.36 145.85,371.94 178,391 C189.92,398.07 203.56,404.07 216.63,408.96 " fill="none" id="NodeOptions-backto-WorkerNodeOptions" style="stroke:#A80036;stroke-width:1.0;"/><polygon fill="none" points="87.31,326.45,78.35,307.25,97.33,316.67,87.31,326.45" style="stroke:#A80036;stroke-width:1.0;"/><!--MD5=[3c1d6a837d595b4b12ceb2102c3bd2cd]
reverse link NodeOptions to CallbackNodeOptions--><path codeLine="30" d="M79.14,325.55 C97.73,363.04 132.11,422.31 178,458 C187.45,465.35 198.65,471.23 209.94,475.88 " fill="none" id="NodeOptions-backto-CallbackNodeOptions" style="stroke:#A80036;stroke-width:1.0;"/><polygon fill="none" points="72.7,328.32,70.46,307.25,85.35,322.32,72.7,328.32" style="stroke:#A80036;stroke-width:1.0;"/><!--MD5=[004460c898643e7d72b774807f5c1a44]
reverse link NodeOptions to RemoteNodeOptions<S>--><path codeLine="33" d="M71.93,326.68 C85.7,377.51 117.74,470.64 178,525 C186.26,532.45 196.29,538.31 206.65,542.9 " fill="none" id="NodeOptions-backto-RemoteNodeOptions&lt;S&gt;" style="stroke:#A80036;stroke-width:1.0;"/><polygon fill="none" points="65.11,328.26,66.98,307.15,78.68,324.82,65.11,328.26" style="stroke:#A80036;stroke-width:1.0;"/><!--MD5=[d8fbb07a5d85c2b346ceed813d961735]
@startuml
skinparam BackgroundColor transparent
left to right direction
hide empty methods
hide empty fields
interface "NodeOptions" {
}
interface "SinkNodeOptions" {
}
"NodeOptions" <|- - "SinkNodeOptions"
interface "SourceNodeOptions" {
}
"NodeOptions" <|- - "SourceNodeOptions"
interface "TimedPullOptions" {
}
"NodeOptions" <|- - "TimedPullOptions"
interface "FrameCloneOptions" {
}
"NodeOptions" <|- - "FrameCloneOptions"
interface "BufferOptions" {
}
"NodeOptions" <|- - "BufferOptions"
interface "ProcessingNodeOptions" {
}
"NodeOptions" <|- - "ProcessingNodeOptions"
interface "WorkerNodeOptions" {
}
"NodeOptions" <|- - "WorkerNodeOptions"
interface "CallbackNodeOptions" {
}
"NodeOptions" <|- - "CallbackNodeOptions"
interface "RemoteNodeOptions<S>" {
}
"NodeOptions" <|- - "RemoteNodeOptions<S>"
@enduml

PlantUML version 1.2021.14(Fri Nov 12 16:46:50 UTC 2021)
(GPL source distribution)
Java Runtime: OpenJDK Runtime Environment
JVM: OpenJDK 64-Bit Server VM
Default Encoding: UTF-8
Language: en
Country: null
--></g></svg>