<?xml version="1.0" encoding="us-ascii" standalone="no"?><svg xmlns="http://www.w3.org/2000/svg" xmlns:xlink="http://www.w3.org/1999/xlink" contentStyleType="text/css" height="138px" preserveAspectRatio="none" style="width:464px;height:138px;" version="1.1" viewBox="0 0 464 138" width="464px" zoomAndPan="magnify"><defs/><g><!--class ObjectMergeOptions--><g id="elem_ObjectMergeOptions"><rect codeLine="4" fill="#F1F1F1" height="32" id="ObjectMergeOptions" rx="2.5" ry="2.5" style="stroke:#181818;stroke-width:0.5;" width="174" x="127.5" y="99"/><ellipse cx="142.5" cy="115" fill="#B4A7E5" rx="11" ry="11" style="stroke:#181818;stroke-width:1.0;"/><path d="M138.4219,110.7656 L138.4219,108.6094 L145.8125,108.6094 L145.8125,110.7656 L143.3438,110.7656 L143.3438,118.8438 L145.8125,118.8438 L145.8125,121 L138.4219,121 L138.4219,118.8438 L140.8906,118.8438 L140.8906,110.7656 L138.4219,110.7656 Z " fill="#000000"/><text fill="#000000" font-family="sans-serif" font-size="14" font-style="italic" lengthAdjust="spacing" textLength="142" x="156.5" y="119.8467">ObjectMergeOptions</text></g><!--class MergeShapeOptions--><g id="elem_MergeShapeOptions"><rect codeLine="6" fill="#F1F1F1" height="32" id="MergeShapeOptions" rx="2.5" ry="2.5" style="stroke:#181818;stroke-width:0.5;" width="173" x="7" y="7"/><ellipse cx="22" cy="23" fill="#B4A7E5" rx="11" ry="11" style="stroke:#181818;stroke-width:1.0;"/><path d="M17.9219,18.7656 L17.9219,16.6094 L25.3125,16.6094 L25.3125,18.7656 L22.8438,18.7656 L22.8438,26.8438 L25.3125,26.8438 L25.3125,29 L17.9219,29 L17.9219,26.8438 L20.3906,26.8438 L20.3906,18.7656 L17.9219,18.7656 Z " fill="#000000"/><text fill="#000000" font-family="sans-serif" font-size="14" font-style="italic" lengthAdjust="spacing" textLength="141" x="36" y="27.8467">MergeShapeOptions</text></g><!--class ObjectProcessingNodeOptions--><g id="elem_ObjectProcessingNodeOptions"><rect codeLine="9" fill="#F1F1F1" height="32" id="ObjectProcessingNodeOptions" rx="2.5" ry="2.5" style="stroke:#181818;stroke-width:0.5;" width="242" x="215.5" y="7"/><ellipse cx="230.5" cy="23" fill="#B4A7E5" rx="11" ry="11" style="stroke:#181818;stroke-width:1.0;"/><path d="M226.4219,18.7656 L226.4219,16.6094 L233.8125,16.6094 L233.8125,18.7656 L231.3438,18.7656 L231.3438,26.8438 L233.8125,26.8438 L233.8125,29 L226.4219,29 L226.4219,26.8438 L228.8906,26.8438 L228.8906,18.7656 L226.4219,18.7656 Z " fill="#000000"/><text fill="#000000" font-family="sans-serif" font-size="14" font-style="italic" lengthAdjust="spacing" textLength="210" x="244.5" y="27.8467">ObjectProcessingNodeOptions</text></g><!--reverse link MergeShapeOptions to ObjectMergeOptions--><g id="link_MergeShapeOptions_ObjectMergeOptions"><path codeLine="8" d="M130.05,51.19 C151.08,66.83 176.71,85.89 194.18,98.89 " fill="none" id="MergeShapeOptions-backto-ObjectMergeOptions" style="stroke:#181818;stroke-width:1.0;"/><polygon fill="none" points="125.62,56.62,113.75,39.06,133.98,45.38,125.62,56.62" style="stroke:#181818;stroke-width:1.0;"/></g><!--reverse link ObjectProcessingNodeOptions to ObjectMergeOptions--><g id="link_ObjectProcessingNodeOptions_ObjectMergeOptions"><path codeLine="11" d="M299.96,50.95 C278.7,66.64 252.69,85.83 234.99,98.89 " fill="none" id="ObjectProcessingNodeOptions-backto-ObjectMergeOptions" style="stroke:#181818;stroke-width:1.0;"/><polygon fill="none" points="295.83,45.3,316.08,39.06,304.14,56.57,295.83,45.3" style="stroke:#181818;stroke-width:1.0;"/></g><!--SRC=[VOqn3i8m34NtdiBgtXimmGn5uWGcSTFGneuSTq30tQcO2XJMzv_UBqFaZ8e9jkY6e3Antyae2gR8PPw8hUgZ9w2KxGg9h1TVbgYBDCuaif5sw0ZgzdmXPtlIG6ssA5ngk5MFfV8QJptcTsEDR-vDizhylZogE2ebSZY8_oZ_DNv-F040]--></g></svg>