<?xml version="1.0" encoding="us-ascii" standalone="no"?><svg xmlns="http://www.w3.org/2000/svg" xmlns:xlink="http://www.w3.org/1999/xlink" contentStyleType="text/css" height="132px" preserveAspectRatio="none" style="width:158px;height:132px;" version="1.1" viewBox="0 0 158 132" width="158px" zoomAndPan="magnify"><defs/><g><!--class ObjectMetadata--><g id="elem_ObjectMetadata"><rect codeLine="4" fill="#F1F1F1" height="32" id="ObjectMetadata" rx="2.5" ry="2.5" style="stroke:#181818;stroke-width:0.5;" width="141" x="8.5" y="93"/><ellipse cx="23.5" cy="109" fill="#B4A7E5" rx="11" ry="11" style="stroke:#181818;stroke-width:1.0;"/><path d="M19.4219,104.7656 L19.4219,102.6094 L26.8125,102.6094 L26.8125,104.7656 L24.3438,104.7656 L24.3438,112.8438 L26.8125,112.8438 L26.8125,115 L19.4219,115 L19.4219,112.8438 L21.8906,112.8438 L21.8906,104.7656 L19.4219,104.7656 Z " fill="#000000"/><text fill="#000000" font-family="sans-serif" font-size="14" font-style="italic" lengthAdjust="spacing" textLength="109" x="37.5" y="113.8467">ObjectMetadata</text></g><!--class JsonObjectMetadata--><g id="elem_JsonObjectMetadata"><rect codeLine="6" fill="#F1F1F1" height="26.2969" id="JsonObjectMetadata" rx="2.5" ry="2.5" style="stroke:#181818;stroke-width:0.5;" width="144" x="7" y="7"/><text fill="#000000" font-family="sans-serif" font-size="14" lengthAdjust="spacing" textLength="138" x="10" y="24.9951">JsonObjectMetadata</text></g><!--reverse link JsonObjectMetadata to ObjectMetadata--><g id="link_JsonObjectMetadata_ObjectMetadata"><path codeLine="8" d="M79,53.37 C79,66.88 79,81.92 79,92.79 " fill="none" id="JsonObjectMetadata-backto-ObjectMetadata" style="stroke:#181818;stroke-width:1.0;"/><polygon fill="none" points="72,53.1,79,33.1,86,53.1,72,53.1" style="stroke:#181818;stroke-width:1.0;"/></g><!--SRC=[RSqn3i8m38NXFQUmilS6JB0X8SvW7BSDJPpADWCgtBsLM11q_J_fFPkopAXOuOWq3TeUaawjD0LN5Dk8nSEO4mFNsPzGsSUMx3lrcSjMiZXhZyGGhxSxar_OCQ5ZX2My0nKqWtYs9Z_ysTeJeAnKEEpQuTLrVrSh]--></g></svg>