<?xml version="1.0" encoding="us-ascii" standalone="no"?><svg xmlns="http://www.w3.org/2000/svg" xmlns:xlink="http://www.w3.org/1999/xlink" contentStyleType="text/css" height="448px" preserveAspectRatio="none" style="width:779px;height:448px;" version="1.1" viewBox="0 0 779 448" width="779px" zoomAndPan="magnify"><defs/><g><!--class ObjectProcessingNodeOptions--><g id="elem_ObjectProcessingNodeOptions"><rect codeLine="5" fill="#F1F1F1" height="32" id="ObjectProcessingNodeOptions" rx="2.5" ry="2.5" style="stroke:#181818;stroke-width:0.5;" width="242" x="264" y="208"/><ellipse cx="279" cy="224" fill="#B4A7E5" rx="11" ry="11" style="stroke:#181818;stroke-width:1.0;"/><path d="M274.9219,219.7656 L274.9219,217.6094 L282.3125,217.6094 L282.3125,219.7656 L279.8438,219.7656 L279.8438,227.8438 L282.3125,227.8438 L282.3125,230 L274.9219,230 L274.9219,227.8438 L277.3906,227.8438 L277.3906,219.7656 L274.9219,219.7656 Z " fill="#000000"/><text fill="#000000" font-family="sans-serif" font-size="14" font-style="italic" lengthAdjust="spacing" textLength="210" x="293" y="228.8467">ObjectProcessingNodeOptions</text></g><!--class ProcessingNodeOptions--><g id="elem_ProcessingNodeOptions"><rect codeLine="7" fill="#F1F1F1" height="32" id="ProcessingNodeOptions" rx="2.5" ry="2.5" style="stroke:#181818;stroke-width:0.5;" width="197" x="7" y="208"/><ellipse cx="22" cy="224" fill="#B4A7E5" rx="11" ry="11" style="stroke:#181818;stroke-width:1.0;"/><path d="M17.9219,219.7656 L17.9219,217.6094 L25.3125,217.6094 L25.3125,219.7656 L22.8438,219.7656 L22.8438,227.8438 L25.3125,227.8438 L25.3125,230 L17.9219,230 L17.9219,227.8438 L20.3906,227.8438 L20.3906,219.7656 L17.9219,219.7656 Z " fill="#000000"/><text fill="#000000" font-family="sans-serif" font-size="14" font-style="italic" lengthAdjust="spacing" textLength="165" x="36" y="228.8467">ProcessingNodeOptions</text></g><!--class ObjectMergeOptions--><g id="elem_ObjectMergeOptions"><rect codeLine="10" fill="#F1F1F1" height="32" id="ObjectMergeOptions" rx="2.5" ry="2.5" style="stroke:#181818;stroke-width:0.5;" width="174" x="582" y="7"/><ellipse cx="597" cy="23" fill="#B4A7E5" rx="11" ry="11" style="stroke:#181818;stroke-width:1.0;"/><path d="M592.9219,18.7656 L592.9219,16.6094 L600.3125,16.6094 L600.3125,18.7656 L597.8438,18.7656 L597.8438,26.8438 L600.3125,26.8438 L600.3125,29 L592.9219,29 L592.9219,26.8438 L595.3906,26.8438 L595.3906,18.7656 L592.9219,18.7656 Z " fill="#000000"/><text fill="#000000" font-family="sans-serif" font-size="14" font-style="italic" lengthAdjust="spacing" textLength="142" x="611" y="27.8467">ObjectMergeOptions</text></g><!--class SpaceConversionOptions--><g id="elem_SpaceConversionOptions"><rect codeLine="13" fill="#F1F1F1" height="32" id="SpaceConversionOptions" rx="2.5" ry="2.5" style="stroke:#181818;stroke-width:0.5;" width="206" x="566" y="74"/><ellipse cx="581" cy="90" fill="#B4A7E5" rx="11" ry="11" style="stroke:#181818;stroke-width:1.0;"/><path d="M576.9219,85.7656 L576.9219,83.6094 L584.3125,83.6094 L584.3125,85.7656 L581.8438,85.7656 L581.8438,93.8438 L584.3125,93.8438 L584.3125,96 L576.9219,96 L576.9219,93.8438 L579.3906,93.8438 L579.3906,85.7656 L576.9219,85.7656 Z " fill="#000000"/><text fill="#000000" font-family="sans-serif" font-size="14" font-style="italic" lengthAdjust="spacing" textLength="174" x="595" y="94.8467">SpaceConversionOptions</text></g><!--class FilterProcessingOptions--><g id="elem_FilterProcessingOptions"><rect codeLine="16" fill="#F1F1F1" height="32" id="FilterProcessingOptions" rx="2.5" ry="2.5" style="stroke:#181818;stroke-width:0.5;" width="192" x="573" y="141"/><ellipse cx="588" cy="157" fill="#B4A7E5" rx="11" ry="11" style="stroke:#181818;stroke-width:1.0;"/><path d="M583.9219,152.7656 L583.9219,150.6094 L591.3125,150.6094 L591.3125,152.7656 L588.8438,152.7656 L588.8438,160.8438 L591.3125,160.8438 L591.3125,163 L583.9219,163 L583.9219,160.8438 L586.3906,160.8438 L586.3906,152.7656 L583.9219,152.7656 Z " fill="#000000"/><text fill="#000000" font-family="sans-serif" font-size="14" font-style="italic" lengthAdjust="spacing" textLength="160" x="602" y="161.8467">FilterProcessingOptions</text></g><!--class MultilaterationOptions--><g id="elem_MultilaterationOptions"><rect codeLine="19" fill="#F1F1F1" height="32" id="MultilaterationOptions" rx="2.5" ry="2.5" style="stroke:#181818;stroke-width:0.5;" width="181" x="578.5" y="208"/><ellipse cx="593.5" cy="224" fill="#B4A7E5" rx="11" ry="11" style="stroke:#181818;stroke-width:1.0;"/><path d="M589.4219,219.7656 L589.4219,217.6094 L596.8125,217.6094 L596.8125,219.7656 L594.3438,219.7656 L594.3438,227.8438 L596.8125,227.8438 L596.8125,230 L589.4219,230 L589.4219,227.8438 L591.8906,227.8438 L591.8906,219.7656 L589.4219,219.7656 Z " fill="#000000"/><text fill="#000000" font-family="sans-serif" font-size="14" font-style="italic" lengthAdjust="spacing" textLength="149" x="607.5" y="228.8467">MultilaterationOptions</text></g><!--class AccuracyModifierOptions--><g id="elem_AccuracyModifierOptions"><rect codeLine="22" fill="#F1F1F1" height="32" id="AccuracyModifierOptions" rx="2.5" ry="2.5" style="stroke:#181818;stroke-width:0.5;" width="203" x="567.5" y="275"/><ellipse cx="582.5" cy="291" fill="#B4A7E5" rx="11" ry="11" style="stroke:#181818;stroke-width:1.0;"/><path d="M578.4219,286.7656 L578.4219,284.6094 L585.8125,284.6094 L585.8125,286.7656 L583.3438,286.7656 L583.3438,294.8438 L585.8125,294.8438 L585.8125,297 L578.4219,297 L578.4219,294.8438 L580.8906,294.8438 L580.8906,286.7656 L578.4219,286.7656 Z " fill="#000000"/><text fill="#000000" font-family="sans-serif" font-size="14" font-style="italic" lengthAdjust="spacing" textLength="171" x="596.5" y="295.8467">AccuracyModifierOptions</text></g><!--class CellIdentificationOptions--><g id="elem_CellIdentificationOptions"><rect codeLine="25" fill="#F1F1F1" height="32" id="CellIdentificationOptions" rx="2.5" ry="2.5" style="stroke:#181818;stroke-width:0.5;" width="198" x="570" y="342"/><ellipse cx="585" cy="358" fill="#B4A7E5" rx="11" ry="11" style="stroke:#181818;stroke-width:1.0;"/><path d="M580.9219,353.7656 L580.9219,351.6094 L588.3125,351.6094 L588.3125,353.7656 L585.8438,353.7656 L585.8438,361.8438 L588.3125,361.8438 L588.3125,364 L580.9219,364 L580.9219,361.8438 L583.3906,361.8438 L583.3906,353.7656 L580.9219,353.7656 Z " fill="#000000"/><text fill="#000000" font-family="sans-serif" font-size="14" font-style="italic" lengthAdjust="spacing" textLength="166" x="599" y="362.8467">CellIdentificationOptions</text></g><!--class CalibrationOptions--><g id="elem_CalibrationOptions"><rect codeLine="28" fill="#F1F1F1" height="32" id="CalibrationOptions" rx="2.5" ry="2.5" style="stroke:#181818;stroke-width:0.5;" width="157" x="590.5" y="409"/><ellipse cx="605.5" cy="425" fill="#B4A7E5" rx="11" ry="11" style="stroke:#181818;stroke-width:1.0;"/><path d="M601.4219,420.7656 L601.4219,418.6094 L608.8125,418.6094 L608.8125,420.7656 L606.3438,420.7656 L606.3438,428.8438 L608.8125,428.8438 L608.8125,431 L601.4219,431 L601.4219,428.8438 L603.8906,428.8438 L603.8906,420.7656 L601.4219,420.7656 Z " fill="#000000"/><text fill="#000000" font-family="sans-serif" font-size="14" font-style="italic" lengthAdjust="spacing" textLength="125" x="619.5" y="429.8467">CalibrationOptions</text></g><!--reverse link ProcessingNodeOptions to ObjectProcessingNodeOptions--><g id="link_ProcessingNodeOptions_ObjectProcessingNodeOptions"><path codeLine="9" d="M224.47,224 C237.45,224 250.69,224 263.7,224 " fill="none" id="ProcessingNodeOptions-backto-ObjectProcessingNodeOptions" style="stroke:#181818;stroke-width:1.0;"/><polygon fill="none" points="224.34,231,204.34,224,224.34,217,224.34,231" style="stroke:#181818;stroke-width:1.0;"/></g><!--reverse link ObjectProcessingNodeOptions to ObjectMergeOptions--><g id="link_ObjectProcessingNodeOptions_ObjectMergeOptions"><path codeLine="12" d="M412.11,192.32 C444.57,154.82 503.38,92.85 566,56 C577.63,49.16 590.85,43.54 603.83,39.01 " fill="none" id="ObjectProcessingNodeOptions-backto-ObjectMergeOptions" style="stroke:#181818;stroke-width:1.0;"/><polygon fill="none" points="417.4,196.9,399.13,207.64,406.71,187.86,417.4,196.9" style="stroke:#181818;stroke-width:1.0;"/></g><!--reverse link ObjectProcessingNodeOptions to SpaceConversionOptions--><g id="link_ObjectProcessingNodeOptions_SpaceConversionOptions"><path codeLine="15" d="M428.28,197.11 C463.99,175.17 517.02,144.41 566,123 C580.5,116.66 596.61,110.9 611.67,106.02 " fill="none" id="ObjectProcessingNodeOptions-backto-SpaceConversionOptions" style="stroke:#181818;stroke-width:1.0;"/><polygon fill="none" points="431.5,203.35,410.82,207.98,424.1,191.46,431.5,203.35" style="stroke:#181818;stroke-width:1.0;"/></g><!--reverse link ObjectProcessingNodeOptions to FilterProcessingOptions--><g id="link_ObjectProcessingNodeOptions_FilterProcessingOptions"><path codeLine="18" d="M473.04,203.32 C514.08,193.57 562.3,182.11 600.52,173.03 " fill="none" id="ObjectProcessingNodeOptions-backto-FilterProcessingOptions" style="stroke:#181818;stroke-width:1.0;"/><polygon fill="none" points="474.62,210.14,453.55,207.95,471.39,196.52,474.62,210.14" style="stroke:#181818;stroke-width:1.0;"/></g><!--reverse link ObjectProcessingNodeOptions to MultilaterationOptions--><g id="link_ObjectProcessingNodeOptions_MultilaterationOptions"><path codeLine="21" d="M526.05,224 C543.87,224 561.72,224 578.44,224 " fill="none" id="ObjectProcessingNodeOptions-backto-MultilaterationOptions" style="stroke:#181818;stroke-width:1.0;"/><polygon fill="none" points="526,231,506,224,526,217,526,231" style="stroke:#181818;stroke-width:1.0;"/></g><!--reverse link ObjectProcessingNodeOptions to AccuracyModifierOptions--><g id="link_ObjectProcessingNodeOptions_AccuracyModifierOptions"><path codeLine="24" d="M473.04,244.68 C514.08,254.43 562.3,265.89 600.52,274.97 " fill="none" id="ObjectProcessingNodeOptions-backto-AccuracyModifierOptions" style="stroke:#181818;stroke-width:1.0;"/><polygon fill="none" points="471.39,251.48,453.55,240.05,474.62,237.86,471.39,251.48" style="stroke:#181818;stroke-width:1.0;"/></g><!--reverse link ObjectProcessingNodeOptions to CellIdentificationOptions--><g id="link_ObjectProcessingNodeOptions_CellIdentificationOptions"><path codeLine="27" d="M428.28,250.89 C463.99,272.83 517.02,303.59 566,325 C580.5,331.34 596.61,337.1 611.67,341.98 " fill="none" id="ObjectProcessingNodeOptions-backto-CellIdentificationOptions" style="stroke:#181818;stroke-width:1.0;"/><polygon fill="none" points="424.1,256.54,410.82,240.02,431.5,244.65,424.1,256.54" style="stroke:#181818;stroke-width:1.0;"/></g><!--reverse link ObjectProcessingNodeOptions to CalibrationOptions--><g id="link_ObjectProcessingNodeOptions_CalibrationOptions"><path codeLine="30" d="M412.11,255.68 C444.57,293.18 503.38,355.15 566,392 C577.63,398.84 590.85,404.46 603.83,408.99 " fill="none" id="ObjectProcessingNodeOptions-backto-CalibrationOptions" style="stroke:#181818;stroke-width:1.0;"/><polygon fill="none" points="406.71,260.14,399.13,240.36,417.4,251.1,406.71,260.14" style="stroke:#181818;stroke-width:1.0;"/></g><!--SRC=[dPB1Ri8m38RlVOg8Es-morPf4eUEINk2aBYjHnfNZek4jhqxvaGOf59xIcBx_pyxSZfY72tRmRnPT-oOfkXh2iH6sCQaAOXI1MZ521d6hXVZaS49Kgnwz61W6ELi1f2UVCf3BKBG24O1Rgq3izaVlbNvoUGW9OpT1tdOZrUhj34_rLzUErDLohtyRhVpaCTc6k3kd_jibpdZJfjRVurwr1HFm4cJY-qB-XpnZa7lDvV5Z9913ccc81YilgsicQEWpn6lparitRaXZxeml9XHCiWXDOImyxh9Mk7MZLAsk0FPW8ULd_L4Um40]--></g></svg>