<?xml version="1.0" encoding="UTF-8" standalone="no"?><svg xmlns="http://www.w3.org/2000/svg" xmlns:xlink="http://www.w3.org/1999/xlink" contentScriptType="application/ecmascript" contentStyleType="text/css" height="478px" preserveAspectRatio="none" style="width:1249px;height:478px;background:#00000000;" version="1.1" viewBox="0 0 1249 478" width="1249px" zoomAndPan="magnify"><defs><filter height="300%" id="f1k37d1y01re0n" width="300%" x="-1" y="-1"><feGaussianBlur result="blurOut" stdDeviation="2.0"/><feColorMatrix in="blurOut" result="blurOut2" type="matrix" values="0 0 0 0 0 0 0 0 0 0 0 0 0 0 0 0 0 0 .4 0"/><feOffset dx="4.0" dy="4.0" in="blurOut2" result="blurOut3"/><feBlend in="SourceGraphic" in2="blurOut3" mode="normal"/></filter></defs><g><!--MD5=[b53bc0b3a71be57c62241e847c2a99d4]
class ObjectProcessingNodeOptions--><rect codeLine="4" fill="#FEFECE" filter="url(#f1k37d1y01re0n)" height="91.2188" id="ObjectProcessingNodeOptions" style="stroke:#A80036;stroke-width:1.5;" width="216" x="502" y="145"/><ellipse cx="517" cy="161" fill="#B4A7E5" rx="11" ry="11" style="stroke:#A80036;stroke-width:1.0;"/><path d="M512.9219,156.7656 L512.9219,154.6094 L520.3125,154.6094 L520.3125,156.7656 L517.8438,156.7656 L517.8438,164.8438 L520.3125,164.8438 L520.3125,167 L512.9219,167 L512.9219,164.8438 L515.3906,164.8438 L515.3906,156.7656 L512.9219,156.7656 Z " fill="#000000"/><text fill="#000000" font-family="sans-serif" font-size="12" font-style="italic" lengthAdjust="spacing" textLength="184" x="531" y="165.1543">ObjectProcessingNodeOptions</text><line style="stroke:#A80036;stroke-width:1.5;" x1="503" x2="717" y1="177" y2="177"/><ellipse cx="513" cy="188" rx="3" ry="3" style="stroke:#038048;stroke-width:1.0;fill:none;"/><text fill="#000000" font-family="sans-serif" font-size="11" lengthAdjust="spacing" textLength="121" x="522" y="191.2104">frameFilter : Function</text><ellipse cx="513" cy="200.8047" rx="3" ry="3" style="stroke:#038048;stroke-width:1.0;fill:none;"/><text fill="#000000" font-family="sans-serif" font-size="11" lengthAdjust="spacing" textLength="77" x="522" y="204.0151">name : string</text><ellipse cx="513" cy="213.6094" rx="3" ry="3" style="stroke:#038048;stroke-width:1.0;fill:none;"/><text fill="#000000" font-family="sans-serif" font-size="11" lengthAdjust="spacing" textLength="121" x="522" y="216.8198">objectFilter : Function</text><ellipse cx="513" cy="226.4141" rx="3" ry="3" style="stroke:#038048;stroke-width:1.0;fill:none;"/><text fill="#000000" font-family="sans-serif" font-size="11" lengthAdjust="spacing" textLength="62" x="522" y="229.6245">uid : string</text><!--MD5=[f2c00490a58e4d2420fdf06e183a4b13]
class ProcessingNodeOptions--><rect codeLine="10" fill="#FEFECE" filter="url(#f1k37d1y01re0n)" height="78.4141" id="ProcessingNodeOptions" style="stroke:#A80036;stroke-width:1.5;" width="177" x="521.5" y="7"/><ellipse cx="536.5" cy="23" fill="#B4A7E5" rx="11" ry="11" style="stroke:#A80036;stroke-width:1.0;"/><path d="M532.4219,18.7656 L532.4219,16.6094 L539.8125,16.6094 L539.8125,18.7656 L537.3438,18.7656 L537.3438,26.8438 L539.8125,26.8438 L539.8125,29 L532.4219,29 L532.4219,26.8438 L534.8906,26.8438 L534.8906,18.7656 L532.4219,18.7656 Z " fill="#000000"/><text fill="#000000" font-family="sans-serif" font-size="12" font-style="italic" lengthAdjust="spacing" textLength="145" x="550.5" y="27.1543">ProcessingNodeOptions</text><line style="stroke:#A80036;stroke-width:1.5;" x1="522.5" x2="697.5" y1="39" y2="39"/><ellipse cx="532.5" cy="50" rx="3" ry="3" style="stroke:#038048;stroke-width:1.0;fill:none;"/><text fill="#000000" font-family="sans-serif" font-size="11" lengthAdjust="spacing" textLength="121" x="541.5" y="53.2104">frameFilter : Function</text><ellipse cx="532.5" cy="62.8047" rx="3" ry="3" style="stroke:#038048;stroke-width:1.0;fill:none;"/><text fill="#000000" font-family="sans-serif" font-size="11" lengthAdjust="spacing" textLength="77" x="541.5" y="66.0151">name : string</text><ellipse cx="532.5" cy="75.6094" rx="3" ry="3" style="stroke:#038048;stroke-width:1.0;fill:none;"/><text fill="#000000" font-family="sans-serif" font-size="11" lengthAdjust="spacing" textLength="62" x="541.5" y="78.8198">uid : string</text><!--MD5=[b4c9791fdc43e27f4752af748eba7fb9]
class ObjectMergeOptions--><rect codeLine="16" fill="#FEFECE" filter="url(#f1k37d1y01re0n)" height="155.2422" id="ObjectMergeOptions" style="stroke:#A80036;stroke-width:1.5;" width="156" x="7" y="302.5"/><ellipse cx="22" cy="318.5" fill="#B4A7E5" rx="11" ry="11" style="stroke:#A80036;stroke-width:1.0;"/><path d="M17.9219,314.2656 L17.9219,312.1094 L25.3125,312.1094 L25.3125,314.2656 L22.8438,314.2656 L22.8438,322.3438 L25.3125,322.3438 L25.3125,324.5 L17.9219,324.5 L17.9219,322.3438 L20.3906,322.3438 L20.3906,314.2656 L17.9219,314.2656 Z " fill="#000000"/><text fill="#000000" font-family="sans-serif" font-size="12" font-style="italic" lengthAdjust="spacing" textLength="124" x="36" y="322.6543">ObjectMergeOptions</text><line style="stroke:#A80036;stroke-width:1.5;" x1="8" x2="162" y1="334.5" y2="334.5"/><ellipse cx="18" cy="345.5" rx="3" ry="3" style="stroke:#038048;stroke-width:1.0;fill:none;"/><text fill="#000000" font-family="sans-serif" font-size="11" lengthAdjust="spacing" textLength="130" x="27" y="348.7104">checkInterval : number</text><ellipse cx="18" cy="358.3047" rx="3" ry="3" style="stroke:#038048;stroke-width:1.0;fill:none;"/><text fill="#000000" font-family="sans-serif" font-size="11" lengthAdjust="spacing" textLength="121" x="27" y="361.5151">frameFilter : Function</text><ellipse cx="18" cy="371.1094" rx="3" ry="3" style="stroke:#038048;stroke-width:1.0;fill:none;"/><text fill="#000000" font-family="sans-serif" font-size="11" lengthAdjust="spacing" textLength="113" x="27" y="374.3198">maxCount : number</text><ellipse cx="18" cy="383.9141" rx="3" ry="3" style="stroke:#038048;stroke-width:1.0;fill:none;"/><text fill="#000000" font-family="sans-serif" font-size="11" lengthAdjust="spacing" textLength="110" x="27" y="387.1245">minCount : number</text><ellipse cx="18" cy="396.7188" rx="3" ry="3" style="stroke:#038048;stroke-width:1.0;fill:none;"/><text fill="#000000" font-family="sans-serif" font-size="11" lengthAdjust="spacing" textLength="77" x="27" y="399.9292">name : string</text><ellipse cx="18" cy="409.5234" rx="3" ry="3" style="stroke:#038048;stroke-width:1.0;fill:none;"/><text fill="#000000" font-family="sans-serif" font-size="11" lengthAdjust="spacing" textLength="121" x="27" y="412.7339">objectFilter : Function</text><ellipse cx="18" cy="422.3281" rx="3" ry="3" style="stroke:#038048;stroke-width:1.0;fill:none;"/><text fill="#000000" font-family="sans-serif" font-size="11" lengthAdjust="spacing" textLength="99" x="27" y="425.5386">timeout : number</text><ellipse cx="18" cy="435.1328" rx="3" ry="3" style="stroke:#038048;stroke-width:1.0;fill:none;"/><text fill="#000000" font-family="sans-serif" font-size="11" lengthAdjust="spacing" textLength="127" x="27" y="438.3433">timeoutUnit : TimeUnit</text><ellipse cx="18" cy="447.9375" rx="3" ry="3" style="stroke:#038048;stroke-width:1.0;fill:none;"/><text fill="#000000" font-family="sans-serif" font-size="11" lengthAdjust="spacing" textLength="62" x="27" y="451.1479">uid : string</text><!--MD5=[7183395f106fe9f17d6415420f8540f1]
class SpaceConversionOptions--><rect codeLine="28" fill="#FEFECE" filter="url(#f1k37d1y01re0n)" height="104.0234" id="SpaceConversionOptions" style="stroke:#A80036;stroke-width:1.5;" width="185" x="198.5" y="328"/><ellipse cx="213.5" cy="344" fill="#B4A7E5" rx="11" ry="11" style="stroke:#A80036;stroke-width:1.0;"/><path d="M209.4219,339.7656 L209.4219,337.6094 L216.8125,337.6094 L216.8125,339.7656 L214.3438,339.7656 L214.3438,347.8438 L216.8125,347.8438 L216.8125,350 L209.4219,350 L209.4219,347.8438 L211.8906,347.8438 L211.8906,339.7656 L209.4219,339.7656 Z " fill="#000000"/><text fill="#000000" font-family="sans-serif" font-size="12" font-style="italic" lengthAdjust="spacing" textLength="153" x="227.5" y="348.1543">SpaceConversionOptions</text><line style="stroke:#A80036;stroke-width:1.5;" x1="199.5" x2="382.5" y1="360" y2="360"/><ellipse cx="209.5" cy="371" rx="3" ry="3" style="stroke:#038048;stroke-width:1.0;fill:none;"/><text fill="#000000" font-family="sans-serif" font-size="11" lengthAdjust="spacing" textLength="121" x="218.5" y="374.2104">frameFilter : Function</text><ellipse cx="209.5" cy="383.8047" rx="3" ry="3" style="stroke:#038048;stroke-width:1.0;fill:none;"/><text fill="#000000" font-family="sans-serif" font-size="11" lengthAdjust="spacing" textLength="99" x="218.5" y="387.0151">inverse : boolean</text><ellipse cx="209.5" cy="396.6094" rx="3" ry="3" style="stroke:#038048;stroke-width:1.0;fill:none;"/><text fill="#000000" font-family="sans-serif" font-size="11" lengthAdjust="spacing" textLength="77" x="218.5" y="399.8198">name : string</text><ellipse cx="209.5" cy="409.4141" rx="3" ry="3" style="stroke:#038048;stroke-width:1.0;fill:none;"/><text fill="#000000" font-family="sans-serif" font-size="11" lengthAdjust="spacing" textLength="121" x="218.5" y="412.6245">objectFilter : Function</text><ellipse cx="209.5" cy="422.2188" rx="3" ry="3" style="stroke:#038048;stroke-width:1.0;fill:none;"/><text fill="#000000" font-family="sans-serif" font-size="11" lengthAdjust="spacing" textLength="62" x="218.5" y="425.4292">uid : string</text><!--MD5=[a64cc95f50a68f73795155817271a9ec]
class FilterProcessingOptions--><rect codeLine="36" fill="#FEFECE" filter="url(#f1k37d1y01re0n)" height="91.2188" id="FilterProcessingOptions" style="stroke:#A80036;stroke-width:1.5;" width="175" x="418.5" y="334.5"/><ellipse cx="433.5" cy="350.5" fill="#B4A7E5" rx="11" ry="11" style="stroke:#A80036;stroke-width:1.0;"/><path d="M429.4219,346.2656 L429.4219,344.1094 L436.8125,344.1094 L436.8125,346.2656 L434.3438,346.2656 L434.3438,354.3438 L436.8125,354.3438 L436.8125,356.5 L429.4219,356.5 L429.4219,354.3438 L431.8906,354.3438 L431.8906,346.2656 L429.4219,346.2656 Z " fill="#000000"/><text fill="#000000" font-family="sans-serif" font-size="12" font-style="italic" lengthAdjust="spacing" textLength="143" x="447.5" y="354.6543">FilterProcessingOptions</text><line style="stroke:#A80036;stroke-width:1.5;" x1="419.5" x2="592.5" y1="366.5" y2="366.5"/><ellipse cx="429.5" cy="377.5" rx="3" ry="3" style="stroke:#038048;stroke-width:1.0;fill:none;"/><text fill="#000000" font-family="sans-serif" font-size="11" lengthAdjust="spacing" textLength="121" x="438.5" y="380.7104">frameFilter : Function</text><ellipse cx="429.5" cy="390.3047" rx="3" ry="3" style="stroke:#038048;stroke-width:1.0;fill:none;"/><text fill="#000000" font-family="sans-serif" font-size="11" lengthAdjust="spacing" textLength="77" x="438.5" y="393.5151">name : string</text><ellipse cx="429.5" cy="403.1094" rx="3" ry="3" style="stroke:#038048;stroke-width:1.0;fill:none;"/><text fill="#000000" font-family="sans-serif" font-size="11" lengthAdjust="spacing" textLength="121" x="438.5" y="406.3198">objectFilter : Function</text><ellipse cx="429.5" cy="415.9141" rx="3" ry="3" style="stroke:#038048;stroke-width:1.0;fill:none;"/><text fill="#000000" font-family="sans-serif" font-size="11" lengthAdjust="spacing" textLength="62" x="438.5" y="419.1245">uid : string</text><!--MD5=[dcbb06bf6d85dfb234cc4f7d2171bc43]
class MultilaterationOptions--><rect codeLine="43" fill="#FEFECE" filter="url(#f1k37d1y01re0n)" height="168.0469" id="MultilaterationOptions" style="stroke:#A80036;stroke-width:1.5;" width="170" x="629" y="296"/><ellipse cx="644.9" cy="312" fill="#B4A7E5" rx="11" ry="11" style="stroke:#A80036;stroke-width:1.0;"/><path d="M640.8219,307.7656 L640.8219,305.6094 L648.2125,305.6094 L648.2125,307.7656 L645.7438,307.7656 L645.7438,315.8438 L648.2125,315.8438 L648.2125,318 L640.8219,318 L640.8219,315.8438 L643.2906,315.8438 L643.2906,307.7656 L640.8219,307.7656 Z " fill="#000000"/><text fill="#000000" font-family="sans-serif" font-size="12" font-style="italic" lengthAdjust="spacing" textLength="136" x="659.1" y="316.1543">MultilaterationOptions</text><line style="stroke:#A80036;stroke-width:1.5;" x1="630" x2="798" y1="328" y2="328"/><ellipse cx="640" cy="339" rx="3" ry="3" style="stroke:#038048;stroke-width:1.0;fill:none;"/><text fill="#000000" font-family="sans-serif" font-size="11" lengthAdjust="spacing" textLength="121" x="649" y="342.2104">frameFilter : Function</text><ellipse cx="640" cy="351.8047" rx="3" ry="3" style="stroke:#038048;stroke-width:1.0;fill:none;"/><text fill="#000000" font-family="sans-serif" font-size="11" lengthAdjust="spacing" textLength="139" x="649" y="355.0151">incrementStep : number</text><ellipse cx="640" cy="364.6094" rx="3" ry="3" style="stroke:#038048;stroke-width:1.0;fill:none;"/><text fill="#000000" font-family="sans-serif" font-size="11" lengthAdjust="spacing" textLength="134" x="649" y="367.8198">maxIterations : number</text><ellipse cx="640" cy="377.4141" rx="3" ry="3" style="stroke:#038048;stroke-width:1.0;fill:none;"/><text fill="#000000" font-family="sans-serif" font-size="11" lengthAdjust="spacing" textLength="144" x="649" y="380.6245">maxReferences : number</text><ellipse cx="640" cy="390.2188" rx="3" ry="3" style="stroke:#038048;stroke-width:1.0;fill:none;"/><text fill="#000000" font-family="sans-serif" font-size="11" lengthAdjust="spacing" textLength="141" x="649" y="393.4292">minReferences : number</text><ellipse cx="640" cy="403.0234" rx="3" ry="3" style="stroke:#038048;stroke-width:1.0;fill:none;"/><text fill="#000000" font-family="sans-serif" font-size="11" lengthAdjust="spacing" textLength="77" x="649" y="406.2339">name : string</text><ellipse cx="640" cy="415.8281" rx="3" ry="3" style="stroke:#038048;stroke-width:1.0;fill:none;"/><text fill="#000000" font-family="sans-serif" font-size="11" lengthAdjust="spacing" textLength="123" x="649" y="419.0386">nlsFunction : Function</text><ellipse cx="640" cy="428.6328" rx="3" ry="3" style="stroke:#038048;stroke-width:1.0;fill:none;"/><text fill="#000000" font-family="sans-serif" font-size="11" lengthAdjust="spacing" textLength="121" x="649" y="431.8433">objectFilter : Function</text><ellipse cx="640" cy="441.4375" rx="3" ry="3" style="stroke:#038048;stroke-width:1.0;fill:none;"/><text fill="#000000" font-family="sans-serif" font-size="11" lengthAdjust="spacing" textLength="110" x="649" y="444.6479">preferNls : boolean</text><ellipse cx="640" cy="454.2422" rx="3" ry="3" style="stroke:#038048;stroke-width:1.0;fill:none;"/><text fill="#000000" font-family="sans-serif" font-size="11" lengthAdjust="spacing" textLength="62" x="649" y="457.4526">uid : string</text><!--MD5=[55474b353eeff7ab16250fb690321adf]
class AccuracyModifierOptions--><rect codeLine="56" fill="#FEFECE" filter="url(#f1k37d1y01re0n)" height="155.2422" id="AccuracyModifierOptions" style="stroke:#A80036;stroke-width:1.5;" width="184" x="834" y="302.5"/><ellipse cx="849" cy="318.5" fill="#B4A7E5" rx="11" ry="11" style="stroke:#A80036;stroke-width:1.0;"/><path d="M844.9219,314.2656 L844.9219,312.1094 L852.3125,312.1094 L852.3125,314.2656 L849.8438,314.2656 L849.8438,322.3438 L852.3125,322.3438 L852.3125,324.5 L844.9219,324.5 L844.9219,322.3438 L847.3906,322.3438 L847.3906,314.2656 L844.9219,314.2656 Z " fill="#000000"/><text fill="#000000" font-family="sans-serif" font-size="12" font-style="italic" lengthAdjust="spacing" textLength="152" x="863" y="322.6543">AccuracyModifierOptions</text><line style="stroke:#A80036;stroke-width:1.5;" x1="835" x2="1017" y1="334.5" y2="334.5"/><ellipse cx="845" cy="345.5" rx="3" ry="3" style="stroke:#038048;stroke-width:1.0;fill:none;"/><text fill="#000000" font-family="sans-serif" font-size="11" lengthAdjust="spacing" textLength="126" x="854" y="348.7104">defaultValue : number</text><ellipse cx="845" cy="358.3047" rx="3" ry="3" style="stroke:#038048;stroke-width:1.0;fill:none;"/><text fill="#000000" font-family="sans-serif" font-size="11" lengthAdjust="spacing" textLength="121" x="854" y="361.5151">frameFilter : Function</text><ellipse cx="845" cy="371.1094" rx="3" ry="3" style="stroke:#038048;stroke-width:1.0;fill:none;"/><text fill="#000000" font-family="sans-serif" font-size="11" lengthAdjust="spacing" textLength="116" x="854" y="374.3198">magnitude : number</text><ellipse cx="845" cy="383.9141" rx="3" ry="3" style="stroke:#038048;stroke-width:1.0;fill:none;"/><text fill="#000000" font-family="sans-serif" font-size="11" lengthAdjust="spacing" textLength="77" x="854" y="387.1245">name : string</text><ellipse cx="845" cy="396.7188" rx="3" ry="3" style="stroke:#038048;stroke-width:1.0;fill:none;"/><text fill="#000000" font-family="sans-serif" font-size="11" lengthAdjust="spacing" textLength="121" x="854" y="399.9292">objectFilter : Function</text><ellipse cx="845" cy="409.5234" rx="3" ry="3" style="stroke:#038048;stroke-width:1.0;fill:none;"/><text fill="#000000" font-family="sans-serif" font-size="11" lengthAdjust="spacing" textLength="89" x="854" y="412.7339">offset : number</text><ellipse cx="845" cy="422.3281" rx="3" ry="3" style="stroke:#038048;stroke-width:1.0;fill:none;"/><text fill="#000000" font-family="sans-serif" font-size="11" lengthAdjust="spacing" textLength="127" x="854" y="425.5386">offsetUnit : LengthUnit</text><ellipse cx="845" cy="435.1328" rx="3" ry="3" style="stroke:#038048;stroke-width:1.0;fill:none;"/><text fill="#000000" font-family="sans-serif" font-size="11" lengthAdjust="spacing" textLength="62" x="854" y="438.3433">uid : string</text><ellipse cx="845" cy="447.9375" rx="3" ry="3" style="stroke:#038048;stroke-width:1.0;fill:none;"/><text fill="#000000" font-family="sans-serif" font-size="11" lengthAdjust="spacing" textLength="86" x="854" y="451.1479">value : number</text><!--MD5=[8b8517d8b4b8aa5528948bb5cc5f88a3]
class CellIdentificationOptions--><rect codeLine="68" fill="#FEFECE" filter="url(#f1k37d1y01re0n)" height="104.0234" id="CellIdentificationOptions" style="stroke:#A80036;stroke-width:1.5;" width="182" x="1053" y="328"/><ellipse cx="1068" cy="344" fill="#B4A7E5" rx="11" ry="11" style="stroke:#A80036;stroke-width:1.0;"/><path d="M1063.9219,339.7656 L1063.9219,337.6094 L1071.3125,337.6094 L1071.3125,339.7656 L1068.8438,339.7656 L1068.8438,347.8438 L1071.3125,347.8438 L1071.3125,350 L1063.9219,350 L1063.9219,347.8438 L1066.3906,347.8438 L1066.3906,339.7656 L1063.9219,339.7656 Z " fill="#000000"/><text fill="#000000" font-family="sans-serif" font-size="12" font-style="italic" lengthAdjust="spacing" textLength="150" x="1082" y="348.1543">CellIdentificationOptions</text><line style="stroke:#A80036;stroke-width:1.5;" x1="1054" x2="1234" y1="360" y2="360"/><ellipse cx="1064" cy="371" rx="3" ry="3" style="stroke:#038048;stroke-width:1.0;fill:none;"/><text fill="#000000" font-family="sans-serif" font-size="11" lengthAdjust="spacing" textLength="121" x="1073" y="374.2104">frameFilter : Function</text><ellipse cx="1064" cy="383.8047" rx="3" ry="3" style="stroke:#038048;stroke-width:1.0;fill:none;"/><text fill="#000000" font-family="sans-serif" font-size="11" lengthAdjust="spacing" textLength="129" x="1073" y="387.0151">maxDistance : number</text><ellipse cx="1064" cy="396.6094" rx="3" ry="3" style="stroke:#038048;stroke-width:1.0;fill:none;"/><text fill="#000000" font-family="sans-serif" font-size="11" lengthAdjust="spacing" textLength="77" x="1073" y="399.8198">name : string</text><ellipse cx="1064" cy="409.4141" rx="3" ry="3" style="stroke:#038048;stroke-width:1.0;fill:none;"/><text fill="#000000" font-family="sans-serif" font-size="11" lengthAdjust="spacing" textLength="121" x="1073" y="412.6245">objectFilter : Function</text><ellipse cx="1064" cy="422.2188" rx="3" ry="3" style="stroke:#038048;stroke-width:1.0;fill:none;"/><text fill="#000000" font-family="sans-serif" font-size="11" lengthAdjust="spacing" textLength="62" x="1073" y="425.4292">uid : string</text><!--MD5=[cbb42a2b064200c86501b3f71f35c9d6]
reverse link ProcessingNodeOptions to ObjectProcessingNodeOptions--><path codeLine="15" d="M610,105.21 C610,118.45 610,132.32 610,144.89 " fill="none" id="ProcessingNodeOptions-backto-ObjectProcessingNodeOptions" style="stroke:#A80036;stroke-width:1.0;"/><polygon fill="none" points="603,105.19,610,85.19,617,105.19,603,105.19" style="stroke:#A80036;stroke-width:1.0;"/><!--MD5=[82c721290a55323b50ceff049e21bb13]
reverse link ObjectProcessingNodeOptions to ObjectMergeOptions--><path codeLine="27" d="M482.13,206.49 C393.78,220.63 275.6,247.24 181,296 C174.93,299.13 168.92,302.72 163.05,306.61 " fill="none" id="ObjectProcessingNodeOptions-backto-ObjectMergeOptions" style="stroke:#A80036;stroke-width:1.0;"/><polygon fill="none" points="481.09,199.57,501.93,203.45,483.22,213.4,481.09,199.57" style="stroke:#A80036;stroke-width:1.0;"/><!--MD5=[e70c1b9e5e4417c063a1a8777c6611ed]
reverse link ObjectProcessingNodeOptions to SpaceConversionOptions--><path codeLine="35" d="M493.45,245.07 C462.77,260.43 430.12,277.95 401,296 C385.55,305.58 369.57,316.79 354.75,327.81 " fill="none" id="ObjectProcessingNodeOptions-backto-SpaceConversionOptions" style="stroke:#A80036;stroke-width:1.0;"/><polygon fill="none" points="490.72,238.61,511.75,236.03,496.91,251.16,490.72,238.61" style="stroke:#A80036;stroke-width:1.0;"/><!--MD5=[2622f437de93cf02aa23091e84eaf4f2]
reverse link ObjectProcessingNodeOptions to FilterProcessingOptions--><path codeLine="42" d="M575.36,253.94 C560.74,280.31 544.05,310.4 530.71,334.46 " fill="none" id="ObjectProcessingNodeOptions-backto-FilterProcessingOptions" style="stroke:#A80036;stroke-width:1.0;"/><polygon fill="none" points="569.27,250.51,585.09,236.41,581.51,257.3,569.27,250.51" style="stroke:#A80036;stroke-width:1.0;"/><!--MD5=[bee8a5cd30965e14bc0c448644c2589e]
reverse link ObjectProcessingNodeOptions to MultilaterationOptions--><path codeLine="55" d="M644.67,254.01 C652.13,267.45 660.11,281.85 667.92,295.92 " fill="none" id="ObjectProcessingNodeOptions-backto-MultilaterationOptions" style="stroke:#A80036;stroke-width:1.0;"/><polygon fill="none" points="638.49,257.3,634.91,236.41,650.73,250.51,638.49,257.3" style="stroke:#A80036;stroke-width:1.0;"/><!--MD5=[6eb700add1db1bb88e45709b6a493fc9]
reverse link ObjectProcessingNodeOptions to AccuracyModifierOptions--><path codeLine="67" d="M725.46,245.09 C755.85,260.46 788.18,277.97 817,296 C822.54,299.47 828.16,303.15 833.76,306.96 " fill="none" id="ObjectProcessingNodeOptions-backto-AccuracyModifierOptions" style="stroke:#A80036;stroke-width:1.0;"/><polygon fill="none" points="722.11,251.24,707.33,236.06,728.36,238.71,722.11,251.24" style="stroke:#A80036;stroke-width:1.0;"/><!--MD5=[ef8eebbbebd94bfd0c7c30c9ebbfb974]
reverse link ObjectProcessingNodeOptions to CellIdentificationOptions--><path codeLine="75" d="M738.15,208.71 C825.28,223.77 941.44,250.57 1036,296 C1053.58,304.45 1071.05,316.07 1086.65,327.95 " fill="none" id="ObjectProcessingNodeOptions-backto-CellIdentificationOptions" style="stroke:#A80036;stroke-width:1.0;"/><polygon fill="none" points="736.92,215.6,718.35,205.4,739.23,201.79,736.92,215.6" style="stroke:#A80036;stroke-width:1.0;"/><!--MD5=[53c273377ee0107fa465a98fdd9ef34b]
@startuml
skinparam BackgroundColor transparent
hide empty methods
hide empty fields
interface "ObjectProcessingNodeOptions" {
    +frameFilter : Function
    +name : string
    +objectFilter : Function
    +uid : string
}
interface "ProcessingNodeOptions" {
    +frameFilter : Function
    +name : string
    +uid : string
}
"ProcessingNodeOptions" <|- - "ObjectProcessingNodeOptions"
interface "ObjectMergeOptions" {
    +checkInterval : number
    +frameFilter : Function
    +maxCount : number
    +minCount : number
    +name : string
    +objectFilter : Function
    +timeout : number
    +timeoutUnit : TimeUnit
    +uid : string
}
"ObjectProcessingNodeOptions" <|- - "ObjectMergeOptions"
interface "SpaceConversionOptions" {
    +frameFilter : Function
    +inverse : boolean
    +name : string
    +objectFilter : Function
    +uid : string
}
"ObjectProcessingNodeOptions" <|- - "SpaceConversionOptions"
interface "FilterProcessingOptions" {
    +frameFilter : Function
    +name : string
    +objectFilter : Function
    +uid : string
}
"ObjectProcessingNodeOptions" <|- - "FilterProcessingOptions"
interface "MultilaterationOptions" {
    +frameFilter : Function
    +incrementStep : number
    +maxIterations : number
    +maxReferences : number
    +minReferences : number
    +name : string
    +nlsFunction : Function
    +objectFilter : Function
    +preferNls : boolean
    +uid : string
}
"ObjectProcessingNodeOptions" <|- - "MultilaterationOptions"
interface "AccuracyModifierOptions" {
    +defaultValue : number
    +frameFilter : Function
    +magnitude : number
    +name : string
    +objectFilter : Function
    +offset : number
    +offsetUnit : LengthUnit
    +uid : string
    +value : number
}
"ObjectProcessingNodeOptions" <|- - "AccuracyModifierOptions"
interface "CellIdentificationOptions" {
    +frameFilter : Function
    +maxDistance : number
    +name : string
    +objectFilter : Function
    +uid : string
}
"ObjectProcessingNodeOptions" <|- - "CellIdentificationOptions"
@enduml

PlantUML version 1.2021.14(Fri Nov 12 16:46:50 UTC 2021)
(GPL source distribution)
Java Runtime: OpenJDK Runtime Environment
JVM: OpenJDK 64-Bit Server VM
Default Encoding: UTF-8
Language: en
Country: null
--></g></svg>