<?xml version="1.0" encoding="us-ascii" standalone="no"?><svg xmlns="http://www.w3.org/2000/svg" xmlns:xlink="http://www.w3.org/1999/xlink" contentStyleType="text/css" height="230px" preserveAspectRatio="none" style="width:1344px;height:230px;" version="1.1" viewBox="0 0 1344 230" width="1344px" zoomAndPan="magnify"><defs/><g><!--class ObjectProcessingNodeOptions--><g id="elem_ObjectProcessingNodeOptions"><rect codeLine="4" fill="#F1F1F1" height="32" id="ObjectProcessingNodeOptions" rx="2.5" ry="2.5" style="stroke:#181818;stroke-width:0.5;" width="242" x="543" y="99"/><ellipse cx="558" cy="115" fill="#B4A7E5" rx="11" ry="11" style="stroke:#181818;stroke-width:1.0;"/><path d="M553.9219,110.7656 L553.9219,108.6094 L561.3125,108.6094 L561.3125,110.7656 L558.8438,110.7656 L558.8438,118.8438 L561.3125,118.8438 L561.3125,121 L553.9219,121 L553.9219,118.8438 L556.3906,118.8438 L556.3906,110.7656 L553.9219,110.7656 Z " fill="#000000"/><text fill="#000000" font-family="sans-serif" font-size="14" font-style="italic" lengthAdjust="spacing" textLength="210" x="572" y="119.8467">ObjectProcessingNodeOptions</text></g><!--class ProcessingNodeOptions--><g id="elem_ProcessingNodeOptions"><rect codeLine="6" fill="#F1F1F1" height="32" id="ProcessingNodeOptions" rx="2.5" ry="2.5" style="stroke:#181818;stroke-width:0.5;" width="197" x="565.5" y="7"/><ellipse cx="580.5" cy="23" fill="#B4A7E5" rx="11" ry="11" style="stroke:#181818;stroke-width:1.0;"/><path d="M576.4219,18.7656 L576.4219,16.6094 L583.8125,16.6094 L583.8125,18.7656 L581.3438,18.7656 L581.3438,26.8438 L583.8125,26.8438 L583.8125,29 L576.4219,29 L576.4219,26.8438 L578.8906,26.8438 L578.8906,18.7656 L576.4219,18.7656 Z " fill="#000000"/><text fill="#000000" font-family="sans-serif" font-size="14" font-style="italic" lengthAdjust="spacing" textLength="165" x="594.5" y="27.8467">ProcessingNodeOptions</text></g><!--class ObjectMergeOptions--><g id="elem_ObjectMergeOptions"><rect codeLine="9" fill="#F1F1F1" height="32" id="ObjectMergeOptions" rx="2.5" ry="2.5" style="stroke:#181818;stroke-width:0.5;" width="174" x="7" y="191"/><ellipse cx="22" cy="207" fill="#B4A7E5" rx="11" ry="11" style="stroke:#181818;stroke-width:1.0;"/><path d="M17.9219,202.7656 L17.9219,200.6094 L25.3125,200.6094 L25.3125,202.7656 L22.8438,202.7656 L22.8438,210.8438 L25.3125,210.8438 L25.3125,213 L17.9219,213 L17.9219,210.8438 L20.3906,210.8438 L20.3906,202.7656 L17.9219,202.7656 Z " fill="#000000"/><text fill="#000000" font-family="sans-serif" font-size="14" font-style="italic" lengthAdjust="spacing" textLength="142" x="36" y="211.8467">ObjectMergeOptions</text></g><!--class SpaceConversionOptions--><g id="elem_SpaceConversionOptions"><rect codeLine="12" fill="#F1F1F1" height="32" id="SpaceConversionOptions" rx="2.5" ry="2.5" style="stroke:#181818;stroke-width:0.5;" width="206" x="216" y="191"/><ellipse cx="231" cy="207" fill="#B4A7E5" rx="11" ry="11" style="stroke:#181818;stroke-width:1.0;"/><path d="M226.9219,202.7656 L226.9219,200.6094 L234.3125,200.6094 L234.3125,202.7656 L231.8438,202.7656 L231.8438,210.8438 L234.3125,210.8438 L234.3125,213 L226.9219,213 L226.9219,210.8438 L229.3906,210.8438 L229.3906,202.7656 L226.9219,202.7656 Z " fill="#000000"/><text fill="#000000" font-family="sans-serif" font-size="14" font-style="italic" lengthAdjust="spacing" textLength="174" x="245" y="211.8467">SpaceConversionOptions</text></g><!--class FilterProcessingOptions--><g id="elem_FilterProcessingOptions"><rect codeLine="15" fill="#F1F1F1" height="32" id="FilterProcessingOptions" rx="2.5" ry="2.5" style="stroke:#181818;stroke-width:0.5;" width="192" x="457" y="191"/><ellipse cx="472" cy="207" fill="#B4A7E5" rx="11" ry="11" style="stroke:#181818;stroke-width:1.0;"/><path d="M467.9219,202.7656 L467.9219,200.6094 L475.3125,200.6094 L475.3125,202.7656 L472.8438,202.7656 L472.8438,210.8438 L475.3125,210.8438 L475.3125,213 L467.9219,213 L467.9219,210.8438 L470.3906,210.8438 L470.3906,202.7656 L467.9219,202.7656 Z " fill="#000000"/><text fill="#000000" font-family="sans-serif" font-size="14" font-style="italic" lengthAdjust="spacing" textLength="160" x="486" y="211.8467">FilterProcessingOptions</text></g><!--class MultilaterationOptions--><g id="elem_MultilaterationOptions"><rect codeLine="18" fill="#F1F1F1" height="32" id="MultilaterationOptions" rx="2.5" ry="2.5" style="stroke:#181818;stroke-width:0.5;" width="181" x="684.5" y="191"/><ellipse cx="699.5" cy="207" fill="#B4A7E5" rx="11" ry="11" style="stroke:#181818;stroke-width:1.0;"/><path d="M695.4219,202.7656 L695.4219,200.6094 L702.8125,200.6094 L702.8125,202.7656 L700.3438,202.7656 L700.3438,210.8438 L702.8125,210.8438 L702.8125,213 L695.4219,213 L695.4219,210.8438 L697.8906,210.8438 L697.8906,202.7656 L695.4219,202.7656 Z " fill="#000000"/><text fill="#000000" font-family="sans-serif" font-size="14" font-style="italic" lengthAdjust="spacing" textLength="149" x="713.5" y="211.8467">MultilaterationOptions</text></g><!--class AccuracyModifierOptions--><g id="elem_AccuracyModifierOptions"><rect codeLine="21" fill="#F1F1F1" height="32" id="AccuracyModifierOptions" rx="2.5" ry="2.5" style="stroke:#181818;stroke-width:0.5;" width="203" x="900.5" y="191"/><ellipse cx="915.5" cy="207" fill="#B4A7E5" rx="11" ry="11" style="stroke:#181818;stroke-width:1.0;"/><path d="M911.4219,202.7656 L911.4219,200.6094 L918.8125,200.6094 L918.8125,202.7656 L916.3438,202.7656 L916.3438,210.8438 L918.8125,210.8438 L918.8125,213 L911.4219,213 L911.4219,210.8438 L913.8906,210.8438 L913.8906,202.7656 L911.4219,202.7656 Z " fill="#000000"/><text fill="#000000" font-family="sans-serif" font-size="14" font-style="italic" lengthAdjust="spacing" textLength="171" x="929.5" y="211.8467">AccuracyModifierOptions</text></g><!--class CellIdentificationOptions--><g id="elem_CellIdentificationOptions"><rect codeLine="24" fill="#F1F1F1" height="32" id="CellIdentificationOptions" rx="2.5" ry="2.5" style="stroke:#181818;stroke-width:0.5;" width="198" x="1139" y="191"/><ellipse cx="1154" cy="207" fill="#B4A7E5" rx="11" ry="11" style="stroke:#181818;stroke-width:1.0;"/><path d="M1149.9219,202.7656 L1149.9219,200.6094 L1157.3125,200.6094 L1157.3125,202.7656 L1154.8438,202.7656 L1154.8438,210.8438 L1157.3125,210.8438 L1157.3125,213 L1149.9219,213 L1149.9219,210.8438 L1152.3906,210.8438 L1152.3906,202.7656 L1149.9219,202.7656 Z " fill="#000000"/><text fill="#000000" font-family="sans-serif" font-size="14" font-style="italic" lengthAdjust="spacing" textLength="166" x="1168" y="211.8467">CellIdentificationOptions</text></g><!--reverse link ProcessingNodeOptions to ObjectProcessingNodeOptions--><g id="link_ProcessingNodeOptions_ObjectProcessingNodeOptions"><path codeLine="8" d="M664,59.61 C664,73.31 664,88.22 664,98.96 " fill="none" id="ProcessingNodeOptions-backto-ObjectProcessingNodeOptions" style="stroke:#181818;stroke-width:1.0;"/><polygon fill="none" points="657,59.27,664,39.27,671,59.27,657,59.27" style="stroke:#181818;stroke-width:1.0;"/></g><!--reverse link ObjectProcessingNodeOptions to ObjectMergeOptions--><g id="link_ObjectProcessingNodeOptions_ObjectMergeOptions"><path codeLine="11" d="M548.93,134.17 C440.33,151.32 279.87,176.65 181.39,192.2 " fill="none" id="ObjectProcessingNodeOptions-backto-ObjectMergeOptions" style="stroke:#181818;stroke-width:1.0;"/><polygon fill="none" points="548.07,127.22,568.92,131.01,550.25,141.05,548.07,127.22" style="stroke:#181818;stroke-width:1.0;"/></g><!--reverse link ObjectProcessingNodeOptions to SpaceConversionOptions--><g id="link_ObjectProcessingNodeOptions_SpaceConversionOptions"><path codeLine="14" d="M586.54,136.21 C522.9,152.81 434.16,175.96 376.65,190.96 " fill="none" id="ObjectProcessingNodeOptions-backto-SpaceConversionOptions" style="stroke:#181818;stroke-width:1.0;"/><polygon fill="none" points="585.14,129.34,606.25,131.06,588.67,142.89,585.14,129.34" style="stroke:#181818;stroke-width:1.0;"/></g><!--reverse link ObjectProcessingNodeOptions to FilterProcessingOptions--><g id="link_ObjectProcessingNodeOptions_FilterProcessingOptions"><path codeLine="17" d="M629.6,143.89 C610.47,159.4 587.43,178.09 571.64,190.89 " fill="none" id="ObjectProcessingNodeOptions-backto-FilterProcessingOptions" style="stroke:#181818;stroke-width:1.0;"/><polygon fill="none" points="625.48,138.22,645.42,131.06,634.29,149.1,625.48,138.22" style="stroke:#181818;stroke-width:1.0;"/></g><!--reverse link ObjectProcessingNodeOptions to MultilaterationOptions--><g id="link_ObjectProcessingNodeOptions_MultilaterationOptions"><path codeLine="20" d="M698.4,143.89 C717.53,159.4 740.57,178.09 756.36,190.89 " fill="none" id="ObjectProcessingNodeOptions-backto-MultilaterationOptions" style="stroke:#181818;stroke-width:1.0;"/><polygon fill="none" points="693.71,149.1,682.58,131.06,702.52,138.22,693.71,149.1" style="stroke:#181818;stroke-width:1.0;"/></g><!--reverse link ObjectProcessingNodeOptions to AccuracyModifierOptions--><g id="link_ObjectProcessingNodeOptions_AccuracyModifierOptions"><path codeLine="23" d="M740.29,136.31 C802.61,152.91 889.3,175.99 945.52,190.96 " fill="none" id="ObjectProcessingNodeOptions-backto-AccuracyModifierOptions" style="stroke:#181818;stroke-width:1.0;"/><polygon fill="none" points="738.1,142.97,720.57,131.06,741.7,129.45,738.1,142.97" style="stroke:#181818;stroke-width:1.0;"/></g><!--reverse link ObjectProcessingNodeOptions to CellIdentificationOptions--><g id="link_ObjectProcessingNodeOptions_CellIdentificationOptions"><path codeLine="26" d="M779.69,134.14 C886.16,150.83 1042.24,175.31 1141.98,190.94 " fill="none" id="ObjectProcessingNodeOptions-backto-CellIdentificationOptions" style="stroke:#181818;stroke-width:1.0;"/><polygon fill="none" points="778.43,141.03,759.75,131.01,780.59,127.2,778.43,141.03" style="stroke:#181818;stroke-width:1.0;"/></g><!--SRC=[dPBD2i8m383lFaNnxXjuqO7WOIhu1BMDCzer8yq4KT_TtAnA1_FKDZ_Vbq3J1MDdsRPcQTsbOUgZhoWG6s4RawOWokI47WoqdTnC2t8Yd_BG4I5e1AC07wq3CzqUpk1an-GW9OpDXZniEq6AQMhkasTUEr1LoiqVizcmv7UO6hZveWzEcJi-UdFqljEZedW5JfeSZI_qvueL1hs_AQCT9K0kgViW6Ao-hVopHw4_LooSwzcwMqqUzSFmQ4S9a4ig267jzSTgXVjlbJBY1G00]--></g></svg>