<?xml version="1.0" encoding="us-ascii" standalone="no"?><svg xmlns="http://www.w3.org/2000/svg" xmlns:xlink="http://www.w3.org/1999/xlink" contentStyleType="text/css" height="230px" preserveAspectRatio="none" style="width:1823px;height:230px;" version="1.1" viewBox="0 0 1823 230" width="1823px" zoomAndPan="magnify"><defs/><g><!--class ObjectProcessingNode<InOut>--><g id="elem_ObjectProcessingNode&lt;InOut&gt;"><rect codeLine="4" fill="#F1F1F1" height="32" id="ObjectProcessingNode&lt;InOut&gt;" rx="2.5" ry="2.5" style="stroke:#181818;stroke-width:0.5;" width="251" x="780" y="99"/><ellipse cx="795" cy="115" fill="#A9DCDF" rx="11" ry="11" style="stroke:#181818;stroke-width:1.0;"/><path d="M795.1094,110.3438 L793.9531,115.4219 L796.2813,115.4219 L795.1094,110.3438 Z M793.625,108.1094 L796.6094,108.1094 L799.9688,120.5 L797.5156,120.5 L796.75,117.4375 L793.4688,117.4375 L792.7188,120.5 L790.2813,120.5 L793.625,108.1094 Z " fill="#000000"/><text fill="#000000" font-family="sans-serif" font-size="14" font-style="italic" lengthAdjust="spacing" textLength="219" x="809" y="119.8467">ObjectProcessingNode&lt;InOut&gt;</text></g><!--class ProcessingNode<InOut, InOut>--><g id="elem_ProcessingNode&lt;InOut, InOut&gt;"><rect codeLine="6" fill="#F1F1F1" height="32" id="ProcessingNode&lt;InOut, InOut&gt;" rx="2.5" ry="2.5" style="stroke:#181818;stroke-width:0.5;" width="252" x="779.5" y="7"/><ellipse cx="794.5" cy="23" fill="#A9DCDF" rx="11" ry="11" style="stroke:#181818;stroke-width:1.0;"/><path d="M794.6094,18.3438 L793.4531,23.4219 L795.7813,23.4219 L794.6094,18.3438 Z M793.125,16.1094 L796.1094,16.1094 L799.4688,28.5 L797.0156,28.5 L796.25,25.4375 L792.9688,25.4375 L792.2188,28.5 L789.7813,28.5 L793.125,16.1094 Z " fill="#000000"/><text fill="#000000" font-family="sans-serif" font-size="14" font-style="italic" lengthAdjust="spacing" textLength="220" x="808.5" y="27.8467">ProcessingNode&lt;InOut, InOut&gt;</text></g><!--class UnitConversionNode<InOut>--><g id="elem_UnitConversionNode&lt;InOut&gt;"><rect codeLine="9" fill="#F1F1F1" height="32" id="UnitConversionNode&lt;InOut&gt;" rx="2.5" ry="2.5" style="stroke:#181818;stroke-width:0.5;" width="235" x="7" y="191"/><ellipse cx="22" cy="207" fill="#ADD1B2" rx="11" ry="11" style="stroke:#181818;stroke-width:1.0;"/><path d="M24.9688,212.6406 Q24.3906,212.9375 23.75,213.0781 Q23.1094,213.2344 22.4063,213.2344 Q19.9063,213.2344 18.5781,211.5938 Q17.2656,209.9375 17.2656,206.8125 Q17.2656,203.6875 18.5781,202.0313 Q19.9063,200.375 22.4063,200.375 Q23.1094,200.375 23.75,200.5313 Q24.4063,200.6875 24.9688,200.9844 L24.9688,203.7031 Q24.3438,203.125 23.75,202.8594 Q23.1563,202.5781 22.5313,202.5781 Q21.1875,202.5781 20.5,203.6563 Q19.8125,204.7188 19.8125,206.8125 Q19.8125,208.9063 20.5,209.9844 Q21.1875,211.0469 22.5313,211.0469 Q23.1563,211.0469 23.75,210.7813 Q24.3438,210.5 24.9688,209.9219 L24.9688,212.6406 Z " fill="#000000"/><text fill="#000000" font-family="sans-serif" font-size="14" lengthAdjust="spacing" textLength="203" x="36" y="211.8467">UnitConversionNode&lt;InOut&gt;</text></g><!--class ReferenceSpaceConversionNode<InOut>--><g id="elem_ReferenceSpaceConversionNode&lt;InOut&gt;"><rect codeLine="12" fill="#F1F1F1" height="32" id="ReferenceSpaceConversionNode&lt;InOut&gt;" rx="2.5" ry="2.5" style="stroke:#181818;stroke-width:0.5;" width="323" x="277" y="191"/><ellipse cx="292" cy="207" fill="#ADD1B2" rx="11" ry="11" style="stroke:#181818;stroke-width:1.0;"/><path d="M294.9688,212.6406 Q294.3906,212.9375 293.75,213.0781 Q293.1094,213.2344 292.4063,213.2344 Q289.9063,213.2344 288.5781,211.5938 Q287.2656,209.9375 287.2656,206.8125 Q287.2656,203.6875 288.5781,202.0313 Q289.9063,200.375 292.4063,200.375 Q293.1094,200.375 293.75,200.5313 Q294.4063,200.6875 294.9688,200.9844 L294.9688,203.7031 Q294.3438,203.125 293.75,202.8594 Q293.1563,202.5781 292.5313,202.5781 Q291.1875,202.5781 290.5,203.6563 Q289.8125,204.7188 289.8125,206.8125 Q289.8125,208.9063 290.5,209.9844 Q291.1875,211.0469 292.5313,211.0469 Q293.1563,211.0469 293.75,210.7813 Q294.3438,210.5 294.9688,209.9219 L294.9688,212.6406 Z " fill="#000000"/><text fill="#000000" font-family="sans-serif" font-size="14" lengthAdjust="spacing" textLength="291" x="306" y="211.8467">ReferenceSpaceConversionNode&lt;InOut&gt;</text></g><!--class FilterProcessingNode<InOut>--><g id="elem_FilterProcessingNode&lt;InOut&gt;"><rect codeLine="15" fill="#F1F1F1" height="32" id="FilterProcessingNode&lt;InOut&gt;" rx="2.5" ry="2.5" style="stroke:#181818;stroke-width:0.5;" width="239" x="635" y="191"/><ellipse cx="650" cy="207" fill="#A9DCDF" rx="11" ry="11" style="stroke:#181818;stroke-width:1.0;"/><path d="M650.1094,202.3438 L648.9531,207.4219 L651.2813,207.4219 L650.1094,202.3438 Z M648.625,200.1094 L651.6094,200.1094 L654.9688,212.5 L652.5156,212.5 L651.75,209.4375 L648.4688,209.4375 L647.7188,212.5 L645.2813,212.5 L648.625,200.1094 Z " fill="#000000"/><text fill="#000000" font-family="sans-serif" font-size="14" font-style="italic" lengthAdjust="spacing" textLength="207" x="664" y="211.8467">FilterProcessingNode&lt;InOut&gt;</text></g><!--class PropertyFilterProcessingNode<InOut>--><g id="elem_PropertyFilterProcessingNode&lt;InOut&gt;"><rect codeLine="18" fill="#F1F1F1" height="32" id="PropertyFilterProcessingNode&lt;InOut&gt;" rx="2.5" ry="2.5" style="stroke:#181818;stroke-width:0.5;" width="297" x="909" y="191"/><ellipse cx="924" cy="207" fill="#A9DCDF" rx="11" ry="11" style="stroke:#181818;stroke-width:1.0;"/><path d="M924.1094,202.3438 L922.9531,207.4219 L925.2813,207.4219 L924.1094,202.3438 Z M922.625,200.1094 L925.6094,200.1094 L928.9688,212.5 L926.5156,212.5 L925.75,209.4375 L922.4688,209.4375 L921.7188,212.5 L919.2813,212.5 L922.625,200.1094 Z " fill="#000000"/><text fill="#000000" font-family="sans-serif" font-size="14" font-style="italic" lengthAdjust="spacing" textLength="265" x="938" y="211.8467">PropertyFilterProcessingNode&lt;InOut&gt;</text></g><!--class RelativePositionProcessing<InOut, R>--><g id="elem_RelativePositionProcessing&lt;InOut, R&gt;"><rect codeLine="21" fill="#F1F1F1" height="32" id="RelativePositionProcessing&lt;InOut, R&gt;" rx="2.5" ry="2.5" style="stroke:#181818;stroke-width:0.5;" width="294" x="1241.5" y="191"/><ellipse cx="1256.5" cy="207" fill="#A9DCDF" rx="11" ry="11" style="stroke:#181818;stroke-width:1.0;"/><path d="M1256.6094,202.3438 L1255.4531,207.4219 L1257.7813,207.4219 L1256.6094,202.3438 Z M1255.125,200.1094 L1258.1094,200.1094 L1261.4688,212.5 L1259.0156,212.5 L1258.25,209.4375 L1254.9688,209.4375 L1254.2188,212.5 L1251.7813,212.5 L1255.125,200.1094 Z " fill="#000000"/><text fill="#000000" font-family="sans-serif" font-size="14" font-style="italic" lengthAdjust="spacing" textLength="262" x="1270.5" y="211.8467">RelativePositionProcessing&lt;InOut, R&gt;</text></g><!--class AccuracyModifierNode<InOut>--><g id="elem_AccuracyModifierNode&lt;InOut&gt;"><rect codeLine="24" fill="#F1F1F1" height="32" id="AccuracyModifierNode&lt;InOut&gt;" rx="2.5" ry="2.5" style="stroke:#181818;stroke-width:0.5;" width="246" x="1570.5" y="191"/><ellipse cx="1585.5" cy="207" fill="#ADD1B2" rx="11" ry="11" style="stroke:#181818;stroke-width:1.0;"/><path d="M1588.4688,212.6406 Q1587.8906,212.9375 1587.25,213.0781 Q1586.6094,213.2344 1585.9063,213.2344 Q1583.4063,213.2344 1582.0781,211.5938 Q1580.7656,209.9375 1580.7656,206.8125 Q1580.7656,203.6875 1582.0781,202.0313 Q1583.4063,200.375 1585.9063,200.375 Q1586.6094,200.375 1587.25,200.5313 Q1587.9063,200.6875 1588.4688,200.9844 L1588.4688,203.7031 Q1587.8438,203.125 1587.25,202.8594 Q1586.6563,202.5781 1586.0313,202.5781 Q1584.6875,202.5781 1584,203.6563 Q1583.3125,204.7188 1583.3125,206.8125 Q1583.3125,208.9063 1584,209.9844 Q1584.6875,211.0469 1586.0313,211.0469 Q1586.6563,211.0469 1587.25,210.7813 Q1587.8438,210.5 1588.4688,209.9219 L1588.4688,212.6406 Z " fill="#000000"/><text fill="#000000" font-family="sans-serif" font-size="14" lengthAdjust="spacing" textLength="214" x="1599.5" y="211.8467">AccuracyModifierNode&lt;InOut&gt;</text></g><!--reverse link ProcessingNode<InOut, InOut> to ObjectProcessingNode<InOut>--><g id="link_ProcessingNode&lt;InOut, InOut&gt;_ObjectProcessingNode&lt;InOut&gt;"><path codeLine="8" d="M905.5,59.61 C905.5,73.31 905.5,88.22 905.5,98.96 " fill="none" id="ProcessingNode&lt;InOut, InOut&gt;-backto-ObjectProcessingNode&lt;InOut&gt;" style="stroke:#181818;stroke-width:1.0;"/><polygon fill="none" points="898.5,59.27,905.5,39.27,912.5,59.27,898.5,59.27" style="stroke:#181818;stroke-width:1.0;"/></g><!--reverse link ObjectProcessingNode<InOut> to UnitConversionNode<InOut>--><g id="link_ObjectProcessingNode&lt;InOut&gt;_UnitConversionNode&lt;InOut&gt;"><path codeLine="11" d="M759.49,132.83 C609.98,150.05 380.47,176.5 242.18,192.44 " fill="none" id="ObjectProcessingNode&lt;InOut&gt;-backto-UnitConversionNode&lt;InOut&gt;" style="stroke:#181818;stroke-width:1.0;"/><polygon fill="none" points="758.92,125.85,779.59,130.51,760.52,139.75,758.92,125.85" style="stroke:#181818;stroke-width:1.0;"/></g><!--reverse link ObjectProcessingNode<InOut> to ReferenceSpaceConversionNode<InOut>--><g id="link_ObjectProcessingNode&lt;InOut&gt;_ReferenceSpaceConversionNode&lt;InOut&gt;"><path codeLine="14" d="M807.84,134.82 C721.33,151.49 596.67,175.52 516.62,190.94 " fill="none" id="ObjectProcessingNode&lt;InOut&gt;-backto-ReferenceSpaceConversionNode&lt;InOut&gt;" style="stroke:#181818;stroke-width:1.0;"/><polygon fill="none" points="806.63,127.92,827.6,131.01,809.28,141.67,806.63,127.92" style="stroke:#181818;stroke-width:1.0;"/></g><!--reverse link ObjectProcessingNode<InOut> to FilterProcessingNode<InOut>--><g id="link_ObjectProcessingNode&lt;InOut&gt;_FilterProcessingNode&lt;InOut&gt;"><path codeLine="17" d="M863,141.33 C836.22,157.29 802.53,177.37 779.86,190.89 " fill="none" id="ObjectProcessingNode&lt;InOut&gt;-backto-FilterProcessingNode&lt;InOut&gt;" style="stroke:#181818;stroke-width:1.0;"/><polygon fill="none" points="859.46,135.29,880.23,131.06,866.63,147.32,859.46,135.29" style="stroke:#181818;stroke-width:1.0;"/></g><!--reverse link ObjectProcessingNode<InOut> to PropertyFilterProcessingNode<InOut>--><g id="link_ObjectProcessingNode&lt;InOut&gt;_PropertyFilterProcessingNode&lt;InOut&gt;"><path codeLine="20" d="M948.28,141.33 C975.24,157.29 1009.15,177.37 1031.98,190.89 " fill="none" id="ObjectProcessingNode&lt;InOut&gt;-backto-PropertyFilterProcessingNode&lt;InOut&gt;" style="stroke:#181818;stroke-width:1.0;"/><polygon fill="none" points="944.58,147.28,930.94,131.06,951.72,135.23,944.58,147.28" style="stroke:#181818;stroke-width:1.0;"/></g><!--reverse link ObjectProcessingNode<InOut> to RelativePositionProcessing<InOut, R>--><g id="link_ObjectProcessingNode&lt;InOut&gt;_RelativePositionProcessing&lt;InOut, R&gt;"><path codeLine="23" d="M1005.94,134.72 C1095.44,151.39 1224.73,175.48 1307.7,190.94 " fill="none" id="ObjectProcessingNode&lt;InOut&gt;-backto-RelativePositionProcessing&lt;InOut, R&gt;" style="stroke:#181818;stroke-width:1.0;"/><polygon fill="none" points="1004.45,141.56,986.07,131.01,1007.02,127.8,1004.45,141.56" style="stroke:#181818;stroke-width:1.0;"/></g><!--reverse link ObjectProcessingNode<InOut> to AccuracyModifierNode<InOut>--><g id="link_ObjectProcessingNode&lt;InOut&gt;_AccuracyModifierNode&lt;InOut&gt;"><path codeLine="26" d="M1051.29,132.65 C1200.58,149.7 1430.07,175.91 1570.49,191.95 " fill="none" id="ObjectProcessingNode&lt;InOut&gt;-backto-AccuracyModifierNode&lt;InOut&gt;" style="stroke:#181818;stroke-width:1.0;"/><polygon fill="none" points="1050.31,139.58,1031.23,130.36,1051.9,125.68,1050.31,139.58" style="stroke:#181818;stroke-width:1.0;"/></g><!--SRC=[hLFRIWCn47tVhmXzjdzG12q8FcZBYX-G9jDsR7PccPajBEg_6z35mjQuNbudSouv9z43Kkl5D-xQXyDEkAEuvCJYJ3nfFWAoQeyH73IjzQu1stFKqz4M8UM9tsZ617CXULKtMssU8DXQE80gqkwU8onkQTNPvSmzLwyZmBdL2tUA-6PbyJAVbtMh3wb7Gbio7K4KcKREojxVPRwc64Hgs4AEBy13wmFyKMuAsIZH6qm6KgXWYdA9v5o7BOZr_w8yXMpae8Ra3O-mPaNB0Nt2XkTI_oZs2Mn3uLSXTDbAVySHywUGNrswHF86]--></g></svg>