<?xml version="1.0" encoding="us-ascii" standalone="no"?><svg xmlns="http://www.w3.org/2000/svg" xmlns:xlink="http://www.w3.org/1999/xlink" contentStyleType="text/css" height="448px" preserveAspectRatio="none" style="width:960px;height:448px;" version="1.1" viewBox="0 0 960 448" width="960px" zoomAndPan="magnify"><defs/><g><!--class ObjectProcessingNode<InOut>--><g id="elem_ObjectProcessingNode&lt;InOut&gt;"><rect codeLine="5" fill="#F1F1F1" height="32" id="ObjectProcessingNode&lt;InOut&gt;" rx="2.5" ry="2.5" style="stroke:#181818;stroke-width:0.5;" width="251" x="319" y="208"/><ellipse cx="334" cy="224" fill="#A9DCDF" rx="11" ry="11" style="stroke:#181818;stroke-width:1.0;"/><path d="M334.1094,219.3438 L332.9531,224.4219 L335.2813,224.4219 L334.1094,219.3438 Z M332.625,217.1094 L335.6094,217.1094 L338.9688,229.5 L336.5156,229.5 L335.75,226.4375 L332.4688,226.4375 L331.7188,229.5 L329.2813,229.5 L332.625,217.1094 Z " fill="#000000"/><text fill="#000000" font-family="sans-serif" font-size="14" font-style="italic" lengthAdjust="spacing" textLength="219" x="348" y="228.8467">ObjectProcessingNode&lt;InOut&gt;</text></g><!--class ProcessingNode<InOut, InOut>--><g id="elem_ProcessingNode&lt;InOut, InOut&gt;"><rect codeLine="7" fill="#F1F1F1" height="32" id="ProcessingNode&lt;InOut, InOut&gt;" rx="2.5" ry="2.5" style="stroke:#181818;stroke-width:0.5;" width="252" x="7" y="208"/><ellipse cx="22" cy="224" fill="#A9DCDF" rx="11" ry="11" style="stroke:#181818;stroke-width:1.0;"/><path d="M22.1094,219.3438 L20.9531,224.4219 L23.2813,224.4219 L22.1094,219.3438 Z M20.625,217.1094 L23.6094,217.1094 L26.9688,229.5 L24.5156,229.5 L23.75,226.4375 L20.4688,226.4375 L19.7188,229.5 L17.2813,229.5 L20.625,217.1094 Z " fill="#000000"/><text fill="#000000" font-family="sans-serif" font-size="14" font-style="italic" lengthAdjust="spacing" textLength="220" x="36" y="228.8467">ProcessingNode&lt;InOut, InOut&gt;</text></g><!--class UnitConversionNode<InOut>--><g id="elem_UnitConversionNode&lt;InOut&gt;"><rect codeLine="10" fill="#F1F1F1" height="32" id="UnitConversionNode&lt;InOut&gt;" rx="2.5" ry="2.5" style="stroke:#181818;stroke-width:0.5;" width="235" x="674" y="7"/><ellipse cx="689" cy="23" fill="#ADD1B2" rx="11" ry="11" style="stroke:#181818;stroke-width:1.0;"/><path d="M691.9688,28.6406 Q691.3906,28.9375 690.75,29.0781 Q690.1094,29.2344 689.4063,29.2344 Q686.9063,29.2344 685.5781,27.5938 Q684.2656,25.9375 684.2656,22.8125 Q684.2656,19.6875 685.5781,18.0313 Q686.9063,16.375 689.4063,16.375 Q690.1094,16.375 690.75,16.5313 Q691.4063,16.6875 691.9688,16.9844 L691.9688,19.7031 Q691.3438,19.125 690.75,18.8594 Q690.1563,18.5781 689.5313,18.5781 Q688.1875,18.5781 687.5,19.6563 Q686.8125,20.7188 686.8125,22.8125 Q686.8125,24.9063 687.5,25.9844 Q688.1875,27.0469 689.5313,27.0469 Q690.1563,27.0469 690.75,26.7813 Q691.3438,26.5 691.9688,25.9219 L691.9688,28.6406 Z " fill="#000000"/><text fill="#000000" font-family="sans-serif" font-size="14" lengthAdjust="spacing" textLength="203" x="703" y="27.8467">UnitConversionNode&lt;InOut&gt;</text></g><!--class ReferenceSpaceConversionNode<InOut>--><g id="elem_ReferenceSpaceConversionNode&lt;InOut&gt;"><rect codeLine="13" fill="#F1F1F1" height="32" id="ReferenceSpaceConversionNode&lt;InOut&gt;" rx="2.5" ry="2.5" style="stroke:#181818;stroke-width:0.5;" width="323" x="630" y="74"/><ellipse cx="645" cy="90" fill="#ADD1B2" rx="11" ry="11" style="stroke:#181818;stroke-width:1.0;"/><path d="M647.9688,95.6406 Q647.3906,95.9375 646.75,96.0781 Q646.1094,96.2344 645.4063,96.2344 Q642.9063,96.2344 641.5781,94.5938 Q640.2656,92.9375 640.2656,89.8125 Q640.2656,86.6875 641.5781,85.0313 Q642.9063,83.375 645.4063,83.375 Q646.1094,83.375 646.75,83.5313 Q647.4063,83.6875 647.9688,83.9844 L647.9688,86.7031 Q647.3438,86.125 646.75,85.8594 Q646.1563,85.5781 645.5313,85.5781 Q644.1875,85.5781 643.5,86.6563 Q642.8125,87.7188 642.8125,89.8125 Q642.8125,91.9063 643.5,92.9844 Q644.1875,94.0469 645.5313,94.0469 Q646.1563,94.0469 646.75,93.7813 Q647.3438,93.5 647.9688,92.9219 L647.9688,95.6406 Z " fill="#000000"/><text fill="#000000" font-family="sans-serif" font-size="14" lengthAdjust="spacing" textLength="291" x="659" y="94.8467">ReferenceSpaceConversionNode&lt;InOut&gt;</text></g><!--class FilterProcessingNode<InOut>--><g id="elem_FilterProcessingNode&lt;InOut&gt;"><rect codeLine="16" fill="#F1F1F1" height="32" id="FilterProcessingNode&lt;InOut&gt;" rx="2.5" ry="2.5" style="stroke:#181818;stroke-width:0.5;" width="239" x="672" y="141"/><ellipse cx="687" cy="157" fill="#A9DCDF" rx="11" ry="11" style="stroke:#181818;stroke-width:1.0;"/><path d="M687.1094,152.3438 L685.9531,157.4219 L688.2813,157.4219 L687.1094,152.3438 Z M685.625,150.1094 L688.6094,150.1094 L691.9688,162.5 L689.5156,162.5 L688.75,159.4375 L685.4688,159.4375 L684.7188,162.5 L682.2813,162.5 L685.625,150.1094 Z " fill="#000000"/><text fill="#000000" font-family="sans-serif" font-size="14" font-style="italic" lengthAdjust="spacing" textLength="207" x="701" y="161.8467">FilterProcessingNode&lt;InOut&gt;</text></g><!--class PropertyFilterProcessingNode<InOut>--><g id="elem_PropertyFilterProcessingNode&lt;InOut&gt;"><rect codeLine="19" fill="#F1F1F1" height="32" id="PropertyFilterProcessingNode&lt;InOut&gt;" rx="2.5" ry="2.5" style="stroke:#181818;stroke-width:0.5;" width="297" x="643" y="208"/><ellipse cx="658" cy="224" fill="#A9DCDF" rx="11" ry="11" style="stroke:#181818;stroke-width:1.0;"/><path d="M658.1094,219.3438 L656.9531,224.4219 L659.2813,224.4219 L658.1094,219.3438 Z M656.625,217.1094 L659.6094,217.1094 L662.9688,229.5 L660.5156,229.5 L659.75,226.4375 L656.4688,226.4375 L655.7188,229.5 L653.2813,229.5 L656.625,217.1094 Z " fill="#000000"/><text fill="#000000" font-family="sans-serif" font-size="14" font-style="italic" lengthAdjust="spacing" textLength="265" x="672" y="228.8467">PropertyFilterProcessingNode&lt;InOut&gt;</text></g><!--class RelativePositionProcessing<InOut, R>--><g id="elem_RelativePositionProcessing&lt;InOut, R&gt;"><rect codeLine="22" fill="#F1F1F1" height="32" id="RelativePositionProcessing&lt;InOut, R&gt;" rx="2.5" ry="2.5" style="stroke:#181818;stroke-width:0.5;" width="294" x="644.5" y="275"/><ellipse cx="659.5" cy="291" fill="#A9DCDF" rx="11" ry="11" style="stroke:#181818;stroke-width:1.0;"/><path d="M659.6094,286.3438 L658.4531,291.4219 L660.7813,291.4219 L659.6094,286.3438 Z M658.125,284.1094 L661.1094,284.1094 L664.4688,296.5 L662.0156,296.5 L661.25,293.4375 L657.9688,293.4375 L657.2188,296.5 L654.7813,296.5 L658.125,284.1094 Z " fill="#000000"/><text fill="#000000" font-family="sans-serif" font-size="14" font-style="italic" lengthAdjust="spacing" textLength="262" x="673.5" y="295.8467">RelativePositionProcessing&lt;InOut, R&gt;</text></g><!--class AccuracyModifierNode<InOut>--><g id="elem_AccuracyModifierNode&lt;InOut&gt;"><rect codeLine="25" fill="#F1F1F1" height="32" id="AccuracyModifierNode&lt;InOut&gt;" rx="2.5" ry="2.5" style="stroke:#181818;stroke-width:0.5;" width="246" x="668.5" y="342"/><ellipse cx="683.5" cy="358" fill="#ADD1B2" rx="11" ry="11" style="stroke:#181818;stroke-width:1.0;"/><path d="M686.4688,363.6406 Q685.8906,363.9375 685.25,364.0781 Q684.6094,364.2344 683.9063,364.2344 Q681.4063,364.2344 680.0781,362.5938 Q678.7656,360.9375 678.7656,357.8125 Q678.7656,354.6875 680.0781,353.0313 Q681.4063,351.375 683.9063,351.375 Q684.6094,351.375 685.25,351.5313 Q685.9063,351.6875 686.4688,351.9844 L686.4688,354.7031 Q685.8438,354.125 685.25,353.8594 Q684.6563,353.5781 684.0313,353.5781 Q682.6875,353.5781 682,354.6563 Q681.3125,355.7188 681.3125,357.8125 Q681.3125,359.9063 682,360.9844 Q682.6875,362.0469 684.0313,362.0469 Q684.6563,362.0469 685.25,361.7813 Q685.8438,361.5 686.4688,360.9219 L686.4688,363.6406 Z " fill="#000000"/><text fill="#000000" font-family="sans-serif" font-size="14" lengthAdjust="spacing" textLength="214" x="697.5" y="362.8467">AccuracyModifierNode&lt;InOut&gt;</text></g><!--class CalibrationNode<DataObject>--><g id="elem_CalibrationNode&lt;DataObject&gt;"><rect codeLine="28" fill="#F1F1F1" height="32" id="CalibrationNode&lt;DataObject&gt;" rx="2.5" ry="2.5" style="stroke:#181818;stroke-width:0.5;" width="242" x="670.5" y="409"/><ellipse cx="685.5" cy="425" fill="#ADD1B2" rx="11" ry="11" style="stroke:#181818;stroke-width:1.0;"/><path d="M688.4688,430.6406 Q687.8906,430.9375 687.25,431.0781 Q686.6094,431.2344 685.9063,431.2344 Q683.4063,431.2344 682.0781,429.5938 Q680.7656,427.9375 680.7656,424.8125 Q680.7656,421.6875 682.0781,420.0313 Q683.4063,418.375 685.9063,418.375 Q686.6094,418.375 687.25,418.5313 Q687.9063,418.6875 688.4688,418.9844 L688.4688,421.7031 Q687.8438,421.125 687.25,420.8594 Q686.6563,420.5781 686.0313,420.5781 Q684.6875,420.5781 684,421.6563 Q683.3125,422.7188 683.3125,424.8125 Q683.3125,426.9063 684,427.9844 Q684.6875,429.0469 686.0313,429.0469 Q686.6563,429.0469 687.25,428.7813 Q687.8438,428.5 688.4688,427.9219 L688.4688,430.6406 Z " fill="#000000"/><text fill="#000000" font-family="sans-serif" font-size="14" lengthAdjust="spacing" textLength="210" x="699.5" y="429.8467">CalibrationNode&lt;DataObject&gt;</text></g><!--reverse link ProcessingNode<InOut, InOut> to ObjectProcessingNode<InOut>--><g id="link_ProcessingNode&lt;InOut, InOut&gt;_ObjectProcessingNode&lt;InOut&gt;"><path codeLine="9" d="M279.83,224 C292.89,224 306.03,224 318.89,224 " fill="none" id="ProcessingNode&lt;InOut, InOut&gt;-backto-ObjectProcessingNode&lt;InOut&gt;" style="stroke:#181818;stroke-width:1.0;"/><polygon fill="none" points="279.44,231,259.44,224,279.44,217,279.44,231" style="stroke:#181818;stroke-width:1.0;"/></g><!--reverse link ObjectProcessingNode<InOut> to UnitConversionNode<InOut>--><g id="link_ObjectProcessingNode&lt;InOut&gt;_UnitConversionNode&lt;InOut&gt;"><path codeLine="12" d="M470.8,192.29 C503.38,153.76 563.72,89.72 630,56 C643.82,48.97 659.03,43.44 674.41,39.08 " fill="none" id="ObjectProcessingNode&lt;InOut&gt;-backto-UnitConversionNode&lt;InOut&gt;" style="stroke:#181818;stroke-width:1.0;"/><polygon fill="none" points="476.17,196.78,458.05,207.77,465.37,187.88,476.17,196.78" style="stroke:#181818;stroke-width:1.0;"/></g><!--reverse link ObjectProcessingNode<InOut> to ReferenceSpaceConversionNode<InOut>--><g id="link_ObjectProcessingNode&lt;InOut&gt;_ReferenceSpaceConversionNode&lt;InOut&gt;"><path codeLine="15" d="M486.61,196.82 C522.93,173.97 578.04,142.07 630,123 C648.69,116.14 669.16,110.56 689.04,106.08 " fill="none" id="ObjectProcessingNode&lt;InOut&gt;-backto-ReferenceSpaceConversionNode&lt;InOut&gt;" style="stroke:#181818;stroke-width:1.0;"/><polygon fill="none" points="490.07,202.92,469.45,207.82,482.51,191.13,490.07,202.92" style="stroke:#181818;stroke-width:1.0;"/></g><!--reverse link ObjectProcessingNode<InOut> to FilterProcessingNode<InOut>--><g id="link_ObjectProcessingNode&lt;InOut&gt;_FilterProcessingNode&lt;InOut&gt;"><path codeLine="18" d="M547.9,204.11 C598.97,194.2 659.91,182.36 707.94,173.03 " fill="none" id="ObjectProcessingNode&lt;InOut&gt;-backto-FilterProcessingNode&lt;InOut&gt;" style="stroke:#181818;stroke-width:1.0;"/><polygon fill="none" points="549.1,211.01,528.14,207.95,546.43,197.27,549.1,211.01" style="stroke:#181818;stroke-width:1.0;"/></g><!--reverse link ObjectProcessingNode<InOut> to PropertyFilterProcessingNode<InOut>--><g id="link_ObjectProcessingNode&lt;InOut&gt;_PropertyFilterProcessingNode&lt;InOut&gt;"><path codeLine="21" d="M590.27,224 C607.68,224 625.47,224 642.92,224 " fill="none" id="ObjectProcessingNode&lt;InOut&gt;-backto-PropertyFilterProcessingNode&lt;InOut&gt;" style="stroke:#181818;stroke-width:1.0;"/><polygon fill="none" points="590.05,231,570.05,224,590.05,217,590.05,231" style="stroke:#181818;stroke-width:1.0;"/></g><!--reverse link ObjectProcessingNode<InOut> to RelativePositionProcessing<InOut, R>--><g id="link_ObjectProcessingNode&lt;InOut&gt;_RelativePositionProcessing&lt;InOut, R&gt;"><path codeLine="24" d="M547.9,243.89 C598.97,253.8 659.91,265.64 707.94,274.97 " fill="none" id="ObjectProcessingNode&lt;InOut&gt;-backto-RelativePositionProcessing&lt;InOut, R&gt;" style="stroke:#181818;stroke-width:1.0;"/><polygon fill="none" points="546.43,250.73,528.14,240.05,549.1,236.99,546.43,250.73" style="stroke:#181818;stroke-width:1.0;"/></g><!--reverse link ObjectProcessingNode<InOut> to AccuracyModifierNode<InOut>--><g id="link_ObjectProcessingNode&lt;InOut&gt;_AccuracyModifierNode&lt;InOut&gt;"><path codeLine="27" d="M486.61,251.18 C522.93,274.03 578.04,305.93 630,325 C648.69,331.86 669.16,337.44 689.04,341.92 " fill="none" id="ObjectProcessingNode&lt;InOut&gt;-backto-AccuracyModifierNode&lt;InOut&gt;" style="stroke:#181818;stroke-width:1.0;"/><polygon fill="none" points="482.51,256.87,469.45,240.18,490.07,245.08,482.51,256.87" style="stroke:#181818;stroke-width:1.0;"/></g><!--reverse link ObjectProcessingNode<InOut> to CalibrationNode<DataObject>--><g id="link_ObjectProcessingNode&lt;InOut&gt;_CalibrationNode&lt;DataObject&gt;"><path codeLine="30" d="M470.8,255.71 C503.38,294.24 563.72,358.28 630,392 C643.82,399.03 659.03,404.56 674.41,408.92 " fill="none" id="ObjectProcessingNode&lt;InOut&gt;-backto-CalibrationNode&lt;DataObject&gt;" style="stroke:#181818;stroke-width:1.0;"/><polygon fill="none" points="465.37,260.12,458.05,240.23,476.17,251.22,465.37,260.12" style="stroke:#181818;stroke-width:1.0;"/></g><!--SRC=[hPF1JiCm343l_Ofev-qF9YHMXCG1DXNn0MxYjcPfKZdkf0huTu96nQIEq05NntxFiPEm9zS1GwiseFSr-zwPt5lFIXXSY4Ve9BDOYHAlcEf6b256BUHTrf11XMqdWsfH6c_2QQWYj342POWiBKfR244jjkLpBD-nrnW2kVh16rpVkMqlLmlrahrD2iwbBjLfnGyfwzVLAktDFbLFZYJtxe0SulqcdQLxFsg-HuoI0YkCOzNus876F-hcm2OJlIKho8aLp36d8ETss27By2_cER191mLQ43hWpWVwUBnVPUDpAIuQ-mpQkF1hhVlOod3l3SLFmR-wT0eoYdAmL3B8kFyR43YYBn2b8Ey0]--></g></svg>