<?xml version="1.0" encoding="UTF-8" standalone="no"?><svg xmlns="http://www.w3.org/2000/svg" xmlns:xlink="http://www.w3.org/1999/xlink" contentScriptType="application/ecmascript" contentStyleType="text/css" height="378px" preserveAspectRatio="none" style="width:429px;height:378px;background:#00000000;" version="1.1" viewBox="0 0 429 378" width="429px" zoomAndPan="magnify"><defs><filter height="300%" id="fhra7xoz0q2ln" width="300%" x="-1" y="-1"><feGaussianBlur result="blurOut" stdDeviation="2.0"/><feColorMatrix in="blurOut" result="blurOut2" type="matrix" values="0 0 0 0 0 0 0 0 0 0 0 0 0 0 0 0 0 0 .4 0"/><feOffset dx="4.0" dy="4.0" in="blurOut2" result="blurOut3"/><feBlend in="SourceGraphic" in2="blurOut3" mode="normal"/></filter></defs><g><!--MD5=[b4c9791fdc43e27f4752af748eba7fb9]
class ObjectMergeOptions--><rect codeLine="4" fill="#FEFECE" filter="url(#fhra7xoz0q2ln)" height="155.2422" id="ObjectMergeOptions" style="stroke:#A80036;stroke-width:1.5;" width="156" x="118.5" y="209"/><ellipse cx="133.5" cy="225" fill="#B4A7E5" rx="11" ry="11" style="stroke:#A80036;stroke-width:1.0;"/><path d="M129.4219,220.7656 L129.4219,218.6094 L136.8125,218.6094 L136.8125,220.7656 L134.3438,220.7656 L134.3438,228.8438 L136.8125,228.8438 L136.8125,231 L129.4219,231 L129.4219,228.8438 L131.8906,228.8438 L131.8906,220.7656 L129.4219,220.7656 Z " fill="#000000"/><text fill="#000000" font-family="sans-serif" font-size="12" font-style="italic" lengthAdjust="spacing" textLength="124" x="147.5" y="229.1543">ObjectMergeOptions</text><line style="stroke:#A80036;stroke-width:1.5;" x1="119.5" x2="273.5" y1="241" y2="241"/><ellipse cx="129.5" cy="252" rx="3" ry="3" style="stroke:#038048;stroke-width:1.0;fill:none;"/><text fill="#000000" font-family="sans-serif" font-size="11" lengthAdjust="spacing" textLength="130" x="138.5" y="255.2104">checkInterval : number</text><ellipse cx="129.5" cy="264.8047" rx="3" ry="3" style="stroke:#038048;stroke-width:1.0;fill:none;"/><text fill="#000000" font-family="sans-serif" font-size="11" lengthAdjust="spacing" textLength="121" x="138.5" y="268.0151">frameFilter : Function</text><ellipse cx="129.5" cy="277.6094" rx="3" ry="3" style="stroke:#038048;stroke-width:1.0;fill:none;"/><text fill="#000000" font-family="sans-serif" font-size="11" lengthAdjust="spacing" textLength="113" x="138.5" y="280.8198">maxCount : number</text><ellipse cx="129.5" cy="290.4141" rx="3" ry="3" style="stroke:#038048;stroke-width:1.0;fill:none;"/><text fill="#000000" font-family="sans-serif" font-size="11" lengthAdjust="spacing" textLength="110" x="138.5" y="293.6245">minCount : number</text><ellipse cx="129.5" cy="303.2188" rx="3" ry="3" style="stroke:#038048;stroke-width:1.0;fill:none;"/><text fill="#000000" font-family="sans-serif" font-size="11" lengthAdjust="spacing" textLength="77" x="138.5" y="306.4292">name : string</text><ellipse cx="129.5" cy="316.0234" rx="3" ry="3" style="stroke:#038048;stroke-width:1.0;fill:none;"/><text fill="#000000" font-family="sans-serif" font-size="11" lengthAdjust="spacing" textLength="121" x="138.5" y="319.2339">objectFilter : Function</text><ellipse cx="129.5" cy="328.8281" rx="3" ry="3" style="stroke:#038048;stroke-width:1.0;fill:none;"/><text fill="#000000" font-family="sans-serif" font-size="11" lengthAdjust="spacing" textLength="99" x="138.5" y="332.0386">timeout : number</text><ellipse cx="129.5" cy="341.6328" rx="3" ry="3" style="stroke:#038048;stroke-width:1.0;fill:none;"/><text fill="#000000" font-family="sans-serif" font-size="11" lengthAdjust="spacing" textLength="127" x="138.5" y="344.8433">timeoutUnit : TimeUnit</text><ellipse cx="129.5" cy="354.4375" rx="3" ry="3" style="stroke:#038048;stroke-width:1.0;fill:none;"/><text fill="#000000" font-family="sans-serif" font-size="11" lengthAdjust="spacing" textLength="62" x="138.5" y="357.6479">uid : string</text><!--MD5=[7f977e29ea97c8721704c7294b857227]
class MergeShapeOptions--><rect codeLine="15" fill="#FEFECE" filter="url(#fhra7xoz0q2ln)" height="142.4375" id="MergeShapeOptions" style="stroke:#A80036;stroke-width:1.5;" width="157" x="7" y="7"/><ellipse cx="22" cy="23" fill="#B4A7E5" rx="11" ry="11" style="stroke:#A80036;stroke-width:1.0;"/><path d="M17.9219,18.7656 L17.9219,16.6094 L25.3125,16.6094 L25.3125,18.7656 L22.8438,18.7656 L22.8438,26.8438 L25.3125,26.8438 L25.3125,29 L17.9219,29 L17.9219,26.8438 L20.3906,26.8438 L20.3906,18.7656 L17.9219,18.7656 Z " fill="#000000"/><text fill="#000000" font-family="sans-serif" font-size="12" font-style="italic" lengthAdjust="spacing" textLength="125" x="36" y="27.1543">MergeShapeOptions</text><line style="stroke:#A80036;stroke-width:1.5;" x1="8" x2="163" y1="39" y2="39"/><ellipse cx="18" cy="50" rx="3" ry="3" style="stroke:#038048;stroke-width:1.0;fill:none;"/><text fill="#000000" font-family="sans-serif" font-size="11" lengthAdjust="spacing" textLength="130" x="27" y="53.2104">checkInterval : number</text><ellipse cx="18" cy="62.8047" rx="3" ry="3" style="stroke:#038048;stroke-width:1.0;fill:none;"/><text fill="#000000" font-family="sans-serif" font-size="11" lengthAdjust="spacing" textLength="121" x="27" y="66.0151">frameFilter : Function</text><ellipse cx="18" cy="75.6094" rx="3" ry="3" style="stroke:#038048;stroke-width:1.0;fill:none;"/><text fill="#000000" font-family="sans-serif" font-size="11" lengthAdjust="spacing" textLength="113" x="27" y="78.8198">maxCount : number</text><ellipse cx="18" cy="88.4141" rx="3" ry="3" style="stroke:#038048;stroke-width:1.0;fill:none;"/><text fill="#000000" font-family="sans-serif" font-size="11" lengthAdjust="spacing" textLength="110" x="27" y="91.6245">minCount : number</text><ellipse cx="18" cy="101.2188" rx="3" ry="3" style="stroke:#038048;stroke-width:1.0;fill:none;"/><text fill="#000000" font-family="sans-serif" font-size="11" lengthAdjust="spacing" textLength="77" x="27" y="104.4292">name : string</text><ellipse cx="18" cy="114.0234" rx="3" ry="3" style="stroke:#038048;stroke-width:1.0;fill:none;"/><text fill="#000000" font-family="sans-serif" font-size="11" lengthAdjust="spacing" textLength="99" x="27" y="117.2339">timeout : number</text><ellipse cx="18" cy="126.8281" rx="3" ry="3" style="stroke:#038048;stroke-width:1.0;fill:none;"/><text fill="#000000" font-family="sans-serif" font-size="11" lengthAdjust="spacing" textLength="127" x="27" y="130.0386">timeoutUnit : TimeUnit</text><ellipse cx="18" cy="139.6328" rx="3" ry="3" style="stroke:#038048;stroke-width:1.0;fill:none;"/><text fill="#000000" font-family="sans-serif" font-size="11" lengthAdjust="spacing" textLength="62" x="27" y="142.8433">uid : string</text><!--MD5=[b53bc0b3a71be57c62241e847c2a99d4]
class ObjectProcessingNodeOptions--><rect codeLine="26" fill="#FEFECE" filter="url(#fhra7xoz0q2ln)" height="91.2188" id="ObjectProcessingNodeOptions" style="stroke:#A80036;stroke-width:1.5;" width="216" x="199.5" y="32.5"/><ellipse cx="214.5" cy="48.5" fill="#B4A7E5" rx="11" ry="11" style="stroke:#A80036;stroke-width:1.0;"/><path d="M210.4219,44.2656 L210.4219,42.1094 L217.8125,42.1094 L217.8125,44.2656 L215.3438,44.2656 L215.3438,52.3438 L217.8125,52.3438 L217.8125,54.5 L210.4219,54.5 L210.4219,52.3438 L212.8906,52.3438 L212.8906,44.2656 L210.4219,44.2656 Z " fill="#000000"/><text fill="#000000" font-family="sans-serif" font-size="12" font-style="italic" lengthAdjust="spacing" textLength="184" x="228.5" y="52.6543">ObjectProcessingNodeOptions</text><line style="stroke:#A80036;stroke-width:1.5;" x1="200.5" x2="414.5" y1="64.5" y2="64.5"/><ellipse cx="210.5" cy="75.5" rx="3" ry="3" style="stroke:#038048;stroke-width:1.0;fill:none;"/><text fill="#000000" font-family="sans-serif" font-size="11" lengthAdjust="spacing" textLength="121" x="219.5" y="78.7104">frameFilter : Function</text><ellipse cx="210.5" cy="88.3047" rx="3" ry="3" style="stroke:#038048;stroke-width:1.0;fill:none;"/><text fill="#000000" font-family="sans-serif" font-size="11" lengthAdjust="spacing" textLength="77" x="219.5" y="91.5151">name : string</text><ellipse cx="210.5" cy="101.1094" rx="3" ry="3" style="stroke:#038048;stroke-width:1.0;fill:none;"/><text fill="#000000" font-family="sans-serif" font-size="11" lengthAdjust="spacing" textLength="121" x="219.5" y="104.3198">objectFilter : Function</text><ellipse cx="210.5" cy="113.9141" rx="3" ry="3" style="stroke:#038048;stroke-width:1.0;fill:none;"/><text fill="#000000" font-family="sans-serif" font-size="11" lengthAdjust="spacing" textLength="62" x="219.5" y="117.1245">uid : string</text><!--MD5=[67bab153c3d185cc88e734e8c9e1d0bd]
reverse link MergeShapeOptions to ObjectMergeOptions--><path codeLine="25" d="M132.86,167.11 C140.31,180.97 147.96,195.2 155.26,208.77 " fill="none" id="MergeShapeOptions-backto-ObjectMergeOptions" style="stroke:#A80036;stroke-width:1.0;"/><polygon fill="none" points="126.54,170.13,123.23,149.2,138.87,163.5,126.54,170.13" style="stroke:#A80036;stroke-width:1.0;"/><!--MD5=[82c721290a55323b50ceff049e21bb13]
reverse link ObjectProcessingNodeOptions to ObjectMergeOptions--><path codeLine="32" d="M273.95,141.41 C262.52,162.67 249.62,186.68 237.66,208.92 " fill="none" id="ObjectProcessingNodeOptions-backto-ObjectMergeOptions" style="stroke:#A80036;stroke-width:1.0;"/><polygon fill="none" points="267.92,137.86,283.55,123.55,280.25,144.48,267.92,137.86" style="stroke:#A80036;stroke-width:1.0;"/><!--MD5=[700fd48a1311d2a18fc5a7983de2db3d]
@startuml
skinparam BackgroundColor transparent
hide empty methods
hide empty fields
interface "ObjectMergeOptions" {
    +checkInterval : number
    +frameFilter : Function
    +maxCount : number
    +minCount : number
    +name : string
    +objectFilter : Function
    +timeout : number
    +timeoutUnit : TimeUnit
    +uid : string
}
interface "MergeShapeOptions" {
    +checkInterval : number
    +frameFilter : Function
    +maxCount : number
    +minCount : number
    +name : string
    +timeout : number
    +timeoutUnit : TimeUnit
    +uid : string
}
"MergeShapeOptions" <|- - "ObjectMergeOptions"
interface "ObjectProcessingNodeOptions" {
    +frameFilter : Function
    +name : string
    +objectFilter : Function
    +uid : string
}
"ObjectProcessingNodeOptions" <|- - "ObjectMergeOptions"
@enduml

PlantUML version 1.2021.14(Fri Nov 12 16:46:50 UTC 2021)
(GPL source distribution)
Java Runtime: OpenJDK Runtime Environment
JVM: OpenJDK 64-Bit Server VM
Default Encoding: UTF-8
Language: en
Country: null
--></g></svg>