<?xml version="1.0" encoding="us-ascii" standalone="no"?><svg xmlns="http://www.w3.org/2000/svg" xmlns:xlink="http://www.w3.org/1999/xlink" contentStyleType="text/css" height="132px" preserveAspectRatio="none" style="width:212px;height:132px;" version="1.1" viewBox="0 0 212 132" width="212px" zoomAndPan="magnify"><defs/><g><!--class ObjectMemberMetadata--><g id="elem_ObjectMemberMetadata"><rect codeLine="4" fill="#F1F1F1" height="32" id="ObjectMemberMetadata" rx="2.5" ry="2.5" style="stroke:#181818;stroke-width:0.5;" width="198" x="7" y="93"/><ellipse cx="22" cy="109" fill="#B4A7E5" rx="11" ry="11" style="stroke:#181818;stroke-width:1.0;"/><path d="M17.9219,104.7656 L17.9219,102.6094 L25.3125,102.6094 L25.3125,104.7656 L22.8438,104.7656 L22.8438,112.8438 L25.3125,112.8438 L25.3125,115 L17.9219,115 L17.9219,112.8438 L20.3906,112.8438 L20.3906,104.7656 L17.9219,104.7656 Z " fill="#000000"/><text fill="#000000" font-family="sans-serif" font-size="14" font-style="italic" lengthAdjust="spacing" textLength="166" x="36" y="113.8467">ObjectMemberMetadata</text></g><!--class JsonMemberMetadata--><g id="elem_JsonMemberMetadata"><rect codeLine="6" fill="#F1F1F1" height="26.2969" id="JsonMemberMetadata" rx="2.5" ry="2.5" style="stroke:#181818;stroke-width:0.5;" width="156" x="28" y="7"/><text fill="#000000" font-family="sans-serif" font-size="14" lengthAdjust="spacing" textLength="150" x="31" y="24.9951">JsonMemberMetadata</text></g><!--reverse link JsonMemberMetadata to ObjectMemberMetadata--><g id="link_JsonMemberMetadata_ObjectMemberMetadata"><path codeLine="8" d="M106,51.1 C106,66.69 106,75.82 106,92.79 " fill="none" id="JsonMemberMetadata-backto-ObjectMemberMetadata" style="stroke:#181818;stroke-width:1.0;"/><polygon fill="none" points="106,33.1,100,51.1,112,51.1,106,33.1" style="stroke:#181818;stroke-width:1.0;"/></g><!--SRC=[TSqn3i8m38NXFQUmilS6JB0XLPp1TLmQcZYLRGPKk3kLM10gw_z9xzcSPK752aUa-QhjBkdKIbDmHR6DM3nCEJ5mNVm1bNrgoRxJcBbi9OkpZaWCyJBScBpdEh3sx9ZGCS8QNe4Aca4yMvCV_Ypk2L1MAXnsxV3ikZ-7Rm00]--></g></svg>