<?xml version="1.0" encoding="us-ascii" standalone="no"?><svg xmlns="http://www.w3.org/2000/svg" xmlns:xlink="http://www.w3.org/1999/xlink" contentStyleType="text/css" height="138px" preserveAspectRatio="none" style="width:184px;height:138px;" version="1.1" viewBox="0 0 184 138" width="184px" zoomAndPan="magnify"><defs/><g><!--class ObjectMetadata--><g id="elem_ObjectMetadata"><rect codeLine="4" fill="#F1F1F1" height="32" id="ObjectMetadata" rx="2.5" ry="2.5" style="stroke:#181818;stroke-width:0.5;" width="141" x="21.5" y="99"/><ellipse cx="36.5" cy="115" fill="#B4A7E5" rx="11" ry="11" style="stroke:#181818;stroke-width:1.0;"/><path d="M32.4219,110.7656 L32.4219,108.6094 L39.8125,108.6094 L39.8125,110.7656 L37.3438,110.7656 L37.3438,118.8438 L39.8125,118.8438 L39.8125,121 L32.4219,121 L32.4219,118.8438 L34.8906,118.8438 L34.8906,110.7656 L32.4219,110.7656 Z " fill="#000000"/><text fill="#000000" font-family="sans-serif" font-size="14" font-style="italic" lengthAdjust="spacing" textLength="109" x="50.5" y="119.8467">ObjectMetadata</text></g><!--class JsonObjectMetadata--><g id="elem_JsonObjectMetadata"><rect codeLine="6" fill="#F1F1F1" height="32" id="JsonObjectMetadata" rx="2.5" ry="2.5" style="stroke:#181818;stroke-width:0.5;" width="170" x="7" y="7"/><ellipse cx="22" cy="23" fill="#ADD1B2" rx="11" ry="11" style="stroke:#181818;stroke-width:1.0;"/><path d="M24.9688,28.6406 Q24.3906,28.9375 23.75,29.0781 Q23.1094,29.2344 22.4063,29.2344 Q19.9063,29.2344 18.5781,27.5938 Q17.2656,25.9375 17.2656,22.8125 Q17.2656,19.6875 18.5781,18.0313 Q19.9063,16.375 22.4063,16.375 Q23.1094,16.375 23.75,16.5313 Q24.4063,16.6875 24.9688,16.9844 L24.9688,19.7031 Q24.3438,19.125 23.75,18.8594 Q23.1563,18.5781 22.5313,18.5781 Q21.1875,18.5781 20.5,19.6563 Q19.8125,20.7188 19.8125,22.8125 Q19.8125,24.9063 20.5,25.9844 Q21.1875,27.0469 22.5313,27.0469 Q23.1563,27.0469 23.75,26.7813 Q24.3438,26.5 24.9688,25.9219 L24.9688,28.6406 Z " fill="#000000"/><text fill="#000000" font-family="sans-serif" font-size="14" lengthAdjust="spacing" textLength="138" x="36" y="27.8467">JsonObjectMetadata</text></g><!--reverse link JsonObjectMetadata to ObjectMetadata--><g id="link_JsonObjectMetadata_ObjectMetadata"><path codeLine="8" d="M92,59.61 C92,73.31 92,88.22 92,98.96 " fill="none" id="JsonObjectMetadata-backto-ObjectMetadata" style="stroke:#181818;stroke-width:1.0;"/><polygon fill="none" points="85,59.27,92,39.27,99,59.27,85,59.27" style="stroke:#181818;stroke-width:1.0;"/></g><!--SRC=[RSmn3i8m343HFQUmilS6dM13Gfp1JLmQcjYLRGRKzkvqHABhVzAtkV22YWqkcEQdoflpLQeek2BRGSGUff89g2t-WKO-IRRVD1QgHodif2CcWlWONfJyJeuP7IEiOG-feXd4cmcVyIdqMzVztRu0]--></g></svg>