<?xml version="1.0" encoding="UTF-8" standalone="no"?><svg xmlns="http://www.w3.org/2000/svg" xmlns:xlink="http://www.w3.org/1999/xlink" contentScriptType="application/ecmascript" contentStyleType="text/css" height="237px" preserveAspectRatio="none" style="width:1669px;height:237px;background:#00000000;" version="1.1" viewBox="0 0 1669 237" width="1669px" zoomAndPan="magnify"><defs><filter height="300%" id="f1b6vmyjqe90n2" width="300%" x="-1" y="-1"><feGaussianBlur result="blurOut" stdDeviation="2.0"/><feColorMatrix in="blurOut" result="blurOut2" type="matrix" values="0 0 0 0 0 0 0 0 0 0 0 0 0 0 0 0 0 0 .4 0"/><feOffset dx="4.0" dy="4.0" in="blurOut2" result="blurOut3"/><feBlend in="SourceGraphic" in2="blurOut3" mode="normal"/></filter></defs><g><!--MD5=[9ac6b26c9c0951042fc71ef94bb46580]
class ObjectProcessingNode<InOut>--><rect codeLine="4" fill="#FEFECE" filter="url(#f1b6vmyjqe90n2)" height="32" id="ObjectProcessingNode&lt;InOut&gt;" style="stroke:#A80036;stroke-width:1.5;" width="223" x="713.5" y="99"/><ellipse cx="728.5" cy="115" fill="#A9DCDF" rx="11" ry="11" style="stroke:#A80036;stroke-width:1.0;"/><path d="M728.6094,110.3438 L727.4531,115.4219 L729.7813,115.4219 L728.6094,110.3438 Z M727.125,108.1094 L730.1094,108.1094 L733.4688,120.5 L731.0156,120.5 L730.25,117.4375 L726.9688,117.4375 L726.2188,120.5 L723.7813,120.5 L727.125,108.1094 Z " fill="#000000"/><text fill="#000000" font-family="sans-serif" font-size="12" font-style="italic" lengthAdjust="spacing" textLength="191" x="742.5" y="119.1543">ObjectProcessingNode&lt;InOut&gt;</text><!--MD5=[135c2d0e6265299568c7bceea7232ff0]
class ProcessingNode<InOut, InOut>--><rect codeLine="6" fill="#FEFECE" filter="url(#f1b6vmyjqe90n2)" height="32" id="ProcessingNode&lt;InOut, InOut&gt;" style="stroke:#A80036;stroke-width:1.5;" width="225" x="712.5" y="7"/><ellipse cx="727.5" cy="23" fill="#A9DCDF" rx="11" ry="11" style="stroke:#A80036;stroke-width:1.0;"/><path d="M727.6094,18.3438 L726.4531,23.4219 L728.7813,23.4219 L727.6094,18.3438 Z M726.125,16.1094 L729.1094,16.1094 L732.4688,28.5 L730.0156,28.5 L729.25,25.4375 L725.9688,25.4375 L725.2188,28.5 L722.7813,28.5 L726.125,16.1094 Z " fill="#000000"/><text fill="#000000" font-family="sans-serif" font-size="12" font-style="italic" lengthAdjust="spacing" textLength="193" x="741.5" y="27.1543">ProcessingNode&lt;InOut, InOut&gt;</text><!--MD5=[140a748fa744c0524d4307e8be958edd]
class UnitConversionNode<InOut>--><rect codeLine="9" fill="#FEFECE" filter="url(#f1b6vmyjqe90n2)" height="32" id="UnitConversionNode&lt;InOut&gt;" style="stroke:#A80036;stroke-width:1.5;" width="212" x="7" y="191"/><ellipse cx="22" cy="207" fill="#ADD1B2" rx="11" ry="11" style="stroke:#A80036;stroke-width:1.0;"/><path d="M24.9688,212.6406 Q24.3906,212.9375 23.75,213.0781 Q23.1094,213.2344 22.4063,213.2344 Q19.9063,213.2344 18.5781,211.5938 Q17.2656,209.9375 17.2656,206.8125 Q17.2656,203.6875 18.5781,202.0313 Q19.9063,200.375 22.4063,200.375 Q23.1094,200.375 23.75,200.5313 Q24.4063,200.6875 24.9688,200.9844 L24.9688,203.7031 Q24.3438,203.125 23.75,202.8594 Q23.1563,202.5781 22.5313,202.5781 Q21.1875,202.5781 20.5,203.6563 Q19.8125,204.7188 19.8125,206.8125 Q19.8125,208.9063 20.5,209.9844 Q21.1875,211.0469 22.5313,211.0469 Q23.1563,211.0469 23.75,210.7813 Q24.3438,210.5 24.9688,209.9219 L24.9688,212.6406 Z " fill="#000000"/><text fill="#000000" font-family="sans-serif" font-size="12" lengthAdjust="spacing" textLength="180" x="36" y="211.1543">UnitConversionNode&lt;InOut&gt;</text><!--MD5=[2d915069d6bdd913f04324c89537f565]
class ReferenceSpaceConversionNode<InOut>--><rect codeLine="12" fill="#FEFECE" filter="url(#f1b6vmyjqe90n2)" height="32" id="ReferenceSpaceConversionNode&lt;InOut&gt;" style="stroke:#A80036;stroke-width:1.5;" width="290" x="254" y="191"/><ellipse cx="269" cy="207" fill="#ADD1B2" rx="11" ry="11" style="stroke:#A80036;stroke-width:1.0;"/><path d="M271.9688,212.6406 Q271.3906,212.9375 270.75,213.0781 Q270.1094,213.2344 269.4063,213.2344 Q266.9063,213.2344 265.5781,211.5938 Q264.2656,209.9375 264.2656,206.8125 Q264.2656,203.6875 265.5781,202.0313 Q266.9063,200.375 269.4063,200.375 Q270.1094,200.375 270.75,200.5313 Q271.4063,200.6875 271.9688,200.9844 L271.9688,203.7031 Q271.3438,203.125 270.75,202.8594 Q270.1563,202.5781 269.5313,202.5781 Q268.1875,202.5781 267.5,203.6563 Q266.8125,204.7188 266.8125,206.8125 Q266.8125,208.9063 267.5,209.9844 Q268.1875,211.0469 269.5313,211.0469 Q270.1563,211.0469 270.75,210.7813 Q271.3438,210.5 271.9688,209.9219 L271.9688,212.6406 Z " fill="#000000"/><text fill="#000000" font-family="sans-serif" font-size="12" lengthAdjust="spacing" textLength="258" x="283" y="211.1543">ReferenceSpaceConversionNode&lt;InOut&gt;</text><!--MD5=[9083499a8eeacf3b1700cfe65c31ab7c]
class FilterProcessingNode<InOut>--><rect codeLine="15" fill="#FEFECE" filter="url(#f1b6vmyjqe90n2)" height="32" id="FilterProcessingNode&lt;InOut&gt;" style="stroke:#A80036;stroke-width:1.5;" width="215" x="579.5" y="191"/><ellipse cx="594.5" cy="207" fill="#A9DCDF" rx="11" ry="11" style="stroke:#A80036;stroke-width:1.0;"/><path d="M594.6094,202.3438 L593.4531,207.4219 L595.7813,207.4219 L594.6094,202.3438 Z M593.125,200.1094 L596.1094,200.1094 L599.4688,212.5 L597.0156,212.5 L596.25,209.4375 L592.9688,209.4375 L592.2188,212.5 L589.7813,212.5 L593.125,200.1094 Z " fill="#000000"/><text fill="#000000" font-family="sans-serif" font-size="12" font-style="italic" lengthAdjust="spacing" textLength="183" x="608.5" y="211.1543">FilterProcessingNode&lt;InOut&gt;</text><!--MD5=[5c1e6fce4365e56468cf60e0107291cc]
class PropertyFilterProcessingNode<InOut>--><rect codeLine="18" fill="#FEFECE" filter="url(#f1b6vmyjqe90n2)" height="32" id="PropertyFilterProcessingNode&lt;InOut&gt;" style="stroke:#A80036;stroke-width:1.5;" width="268" x="830" y="191"/><ellipse cx="845" cy="207" fill="#A9DCDF" rx="11" ry="11" style="stroke:#A80036;stroke-width:1.0;"/><path d="M845.1094,202.3438 L843.9531,207.4219 L846.2813,207.4219 L845.1094,202.3438 Z M843.625,200.1094 L846.6094,200.1094 L849.9688,212.5 L847.5156,212.5 L846.75,209.4375 L843.4688,209.4375 L842.7188,212.5 L840.2813,212.5 L843.625,200.1094 Z " fill="#000000"/><text fill="#000000" font-family="sans-serif" font-size="12" font-style="italic" lengthAdjust="spacing" textLength="236" x="859" y="211.1543">PropertyFilterProcessingNode&lt;InOut&gt;</text><!--MD5=[7ffd5ac383842b25700f3e4bbd162597]
class RelativePositionProcessing<InOut, R>--><rect codeLine="21" fill="#FEFECE" filter="url(#f1b6vmyjqe90n2)" height="32" id="RelativePositionProcessing&lt;InOut, R&gt;" style="stroke:#A80036;stroke-width:1.5;" width="264" x="1133" y="191"/><ellipse cx="1148" cy="207" fill="#A9DCDF" rx="11" ry="11" style="stroke:#A80036;stroke-width:1.0;"/><path d="M1148.1094,202.3438 L1146.9531,207.4219 L1149.2813,207.4219 L1148.1094,202.3438 Z M1146.625,200.1094 L1149.6094,200.1094 L1152.9688,212.5 L1150.5156,212.5 L1149.75,209.4375 L1146.4688,209.4375 L1145.7188,212.5 L1143.2813,212.5 L1146.625,200.1094 Z " fill="#000000"/><text fill="#000000" font-family="sans-serif" font-size="12" font-style="italic" lengthAdjust="spacing" textLength="232" x="1162" y="211.1543">RelativePositionProcessing&lt;InOut, R&gt;</text><!--MD5=[6eac2bc4dcfbbc374adacf5949f54a2d]
class AccuracyModifierNode<InOut>--><rect codeLine="24" fill="#FEFECE" filter="url(#f1b6vmyjqe90n2)" height="32" id="AccuracyModifierNode&lt;InOut&gt;" style="stroke:#A80036;stroke-width:1.5;" width="223" x="1432.5" y="191"/><ellipse cx="1447.5" cy="207" fill="#ADD1B2" rx="11" ry="11" style="stroke:#A80036;stroke-width:1.0;"/><path d="M1450.4688,212.6406 Q1449.8906,212.9375 1449.25,213.0781 Q1448.6094,213.2344 1447.9063,213.2344 Q1445.4063,213.2344 1444.0781,211.5938 Q1442.7656,209.9375 1442.7656,206.8125 Q1442.7656,203.6875 1444.0781,202.0313 Q1445.4063,200.375 1447.9063,200.375 Q1448.6094,200.375 1449.25,200.5313 Q1449.9063,200.6875 1450.4688,200.9844 L1450.4688,203.7031 Q1449.8438,203.125 1449.25,202.8594 Q1448.6563,202.5781 1448.0313,202.5781 Q1446.6875,202.5781 1446,203.6563 Q1445.3125,204.7188 1445.3125,206.8125 Q1445.3125,208.9063 1446,209.9844 Q1446.6875,211.0469 1448.0313,211.0469 Q1448.6563,211.0469 1449.25,210.7813 Q1449.8438,210.5 1450.4688,209.9219 L1450.4688,212.6406 Z " fill="#000000"/><text fill="#000000" font-family="sans-serif" font-size="12" lengthAdjust="spacing" textLength="191" x="1461.5" y="211.1543">AccuracyModifierNode&lt;InOut&gt;</text><!--MD5=[4c4a53d8b06e436718514565576bfa94]
reverse link ProcessingNode<InOut, InOut> to ObjectProcessingNode<InOut>--><path codeLine="8" d="M825,59.61 C825,73.31 825,88.22 825,98.96 " fill="none" id="ProcessingNode&lt;InOut, InOut&gt;-backto-ObjectProcessingNode&lt;InOut&gt;" style="stroke:#A80036;stroke-width:1.0;"/><polygon fill="none" points="818,59.27,825,39.27,832,59.27,818,59.27" style="stroke:#A80036;stroke-width:1.0;"/><!--MD5=[2b06040b95469858fef9fbad2b9e9a0c]
reverse link ObjectProcessingNode<InOut> to UnitConversionNode<InOut>--><path codeLine="11" d="M693.34,132.64 C556.72,149.91 345.68,176.59 219.28,192.57 " fill="none" id="ObjectProcessingNode&lt;InOut&gt;-backto-UnitConversionNode&lt;InOut&gt;" style="stroke:#A80036;stroke-width:1.0;"/><polygon fill="none" points="692.64,125.68,713.36,130.11,694.39,139.56,692.64,125.68" style="stroke:#A80036;stroke-width:1.0;"/><!--MD5=[8fabb7b6149639930fca0430565f7fd1]
reverse link ObjectProcessingNode<InOut> to ReferenceSpaceConversionNode<InOut>--><path codeLine="14" d="M733.92,135.24 C655.06,151.9 542.58,175.67 470.18,190.96 " fill="none" id="ObjectProcessingNode&lt;InOut&gt;-backto-ReferenceSpaceConversionNode&lt;InOut&gt;" style="stroke:#A80036;stroke-width:1.0;"/><polygon fill="none" points="732.68,128.35,753.7,131.06,735.58,142.05,732.68,128.35" style="stroke:#A80036;stroke-width:1.0;"/><!--MD5=[7ad719a2cfa2312d5dae3d5f8e32a1d7]
reverse link ObjectProcessingNode<InOut> to FilterProcessingNode<InOut>--><path codeLine="17" d="M785.1,142.02 C760.8,157.87 730.6,177.57 710.17,190.89 " fill="none" id="ObjectProcessingNode&lt;InOut&gt;-backto-FilterProcessingNode&lt;InOut&gt;" style="stroke:#A80036;stroke-width:1.0;"/><polygon fill="none" points="781.33,136.13,801.9,131.06,788.97,147.85,781.33,136.13" style="stroke:#A80036;stroke-width:1.0;"/><!--MD5=[a2bfc0801b07b258266f079173d6a1a0]
reverse link ObjectProcessingNode<InOut> to PropertyFilterProcessingNode<InOut>--><path codeLine="20" d="M865.19,142.02 C889.67,157.87 920.09,177.57 940.66,190.89 " fill="none" id="ObjectProcessingNode&lt;InOut&gt;-backto-PropertyFilterProcessingNode&lt;InOut&gt;" style="stroke:#A80036;stroke-width:1.0;"/><polygon fill="none" points="861.25,147.81,848.27,131.06,868.86,136.06,861.25,147.81" style="stroke:#A80036;stroke-width:1.0;"/><!--MD5=[20102bd41880321f3b990d95b08f0268]
reverse link ObjectProcessingNode<InOut> to RelativePositionProcessing<InOut, R>--><path codeLine="23" d="M918.3,135.08 C999.79,151.75 1116.46,175.62 1191.48,190.96 " fill="none" id="ObjectProcessingNode&lt;InOut&gt;-backto-RelativePositionProcessing&lt;InOut, R&gt;" style="stroke:#A80036;stroke-width:1.0;"/><polygon fill="none" points="916.84,141.93,898.65,131.06,919.64,128.21,916.84,141.93" style="stroke:#A80036;stroke-width:1.0;"/><!--MD5=[38e05d7f8e35851813ae9bcf291c8b17]
reverse link ObjectProcessingNode<InOut> to AccuracyModifierNode<InOut>--><path codeLine="26" d="M956.54,132.47 C1092.97,149.54 1303.96,175.95 1432.48,192.04 " fill="none" id="ObjectProcessingNode&lt;InOut&gt;-backto-AccuracyModifierNode&lt;InOut&gt;" style="stroke:#A80036;stroke-width:1.0;"/><polygon fill="none" points="955.53,139.39,936.55,129.96,957.27,125.5,955.53,139.39" style="stroke:#A80036;stroke-width:1.0;"/><!--MD5=[9f9a585eb65cadb0d5d66df0c3c88d35]
@startuml
skinparam BackgroundColor transparent
hide empty methods
hide empty fields
abstract class "ObjectProcessingNode<InOut>" {
}
abstract class "ProcessingNode<InOut, InOut>" {
}
"ProcessingNode<InOut, InOut>" <|- - "ObjectProcessingNode<InOut>"
class "UnitConversionNode<InOut>" {
}
"ObjectProcessingNode<InOut>" <|- - "UnitConversionNode<InOut>"
class "ReferenceSpaceConversionNode<InOut>" {
}
"ObjectProcessingNode<InOut>" <|- - "ReferenceSpaceConversionNode<InOut>"
abstract class "FilterProcessingNode<InOut>" {
}
"ObjectProcessingNode<InOut>" <|- - "FilterProcessingNode<InOut>"
abstract class "PropertyFilterProcessingNode<InOut>" {
}
"ObjectProcessingNode<InOut>" <|- - "PropertyFilterProcessingNode<InOut>"
abstract class "RelativePositionProcessing<InOut, R>" {
}
"ObjectProcessingNode<InOut>" <|- - "RelativePositionProcessing<InOut, R>"
class "AccuracyModifierNode<InOut>" {
}
"ObjectProcessingNode<InOut>" <|- - "AccuracyModifierNode<InOut>"
@enduml

PlantUML version 1.2021.14(Fri Nov 12 16:46:50 UTC 2021)
(GPL source distribution)
Java Runtime: OpenJDK Runtime Environment
JVM: OpenJDK 64-Bit Server VM
Default Encoding: UTF-8
Language: en
Country: null
--></g></svg>