<?xml version="1.0" encoding="UTF-8" standalone="no"?><svg xmlns="http://www.w3.org/2000/svg" xmlns:xlink="http://www.w3.org/1999/xlink" contentScriptType="application/ecmascript" contentStyleType="text/css" height="145px" preserveAspectRatio="none" style="width:429px;height:145px;background:#00000000;" version="1.1" viewBox="0 0 429 145" width="429px" zoomAndPan="magnify"><defs><filter height="300%" id="f87kiix57wmkf" width="300%" x="-1" y="-1"><feGaussianBlur result="blurOut" stdDeviation="2.0"/><feColorMatrix in="blurOut" result="blurOut2" type="matrix" values="0 0 0 0 0 0 0 0 0 0 0 0 0 0 0 0 0 0 .4 0"/><feOffset dx="4.0" dy="4.0" in="blurOut2" result="blurOut3"/><feBlend in="SourceGraphic" in2="blurOut3" mode="normal"/></filter></defs><g><!--MD5=[b4c9791fdc43e27f4752af748eba7fb9]
class ObjectMergeOptions--><rect codeLine="4" fill="#FEFECE" filter="url(#f87kiix57wmkf)" height="32" id="ObjectMergeOptions" style="stroke:#A80036;stroke-width:1.5;" width="156" x="118.5" y="99"/><ellipse cx="133.5" cy="115" fill="#B4A7E5" rx="11" ry="11" style="stroke:#A80036;stroke-width:1.0;"/><path d="M129.4219,110.7656 L129.4219,108.6094 L136.8125,108.6094 L136.8125,110.7656 L134.3438,110.7656 L134.3438,118.8438 L136.8125,118.8438 L136.8125,121 L129.4219,121 L129.4219,118.8438 L131.8906,118.8438 L131.8906,110.7656 L129.4219,110.7656 Z " fill="#000000"/><text fill="#000000" font-family="sans-serif" font-size="12" font-style="italic" lengthAdjust="spacing" textLength="124" x="147.5" y="119.1543">ObjectMergeOptions</text><!--MD5=[7f977e29ea97c8721704c7294b857227]
class MergeShapeOptions--><rect codeLine="6" fill="#FEFECE" filter="url(#f87kiix57wmkf)" height="32" id="MergeShapeOptions" style="stroke:#A80036;stroke-width:1.5;" width="157" x="7" y="7"/><ellipse cx="22" cy="23" fill="#B4A7E5" rx="11" ry="11" style="stroke:#A80036;stroke-width:1.0;"/><path d="M17.9219,18.7656 L17.9219,16.6094 L25.3125,16.6094 L25.3125,18.7656 L22.8438,18.7656 L22.8438,26.8438 L25.3125,26.8438 L25.3125,29 L17.9219,29 L17.9219,26.8438 L20.3906,26.8438 L20.3906,18.7656 L17.9219,18.7656 Z " fill="#000000"/><text fill="#000000" font-family="sans-serif" font-size="12" font-style="italic" lengthAdjust="spacing" textLength="125" x="36" y="27.1543">MergeShapeOptions</text><!--MD5=[b53bc0b3a71be57c62241e847c2a99d4]
class ObjectProcessingNodeOptions--><rect codeLine="9" fill="#FEFECE" filter="url(#f87kiix57wmkf)" height="32" id="ObjectProcessingNodeOptions" style="stroke:#A80036;stroke-width:1.5;" width="216" x="199.5" y="7"/><ellipse cx="214.5" cy="23" fill="#B4A7E5" rx="11" ry="11" style="stroke:#A80036;stroke-width:1.0;"/><path d="M210.4219,18.7656 L210.4219,16.6094 L217.8125,16.6094 L217.8125,18.7656 L215.3438,18.7656 L215.3438,26.8438 L217.8125,26.8438 L217.8125,29 L210.4219,29 L210.4219,26.8438 L212.8906,26.8438 L212.8906,18.7656 L210.4219,18.7656 Z " fill="#000000"/><text fill="#000000" font-family="sans-serif" font-size="12" font-style="italic" lengthAdjust="spacing" textLength="184" x="228.5" y="27.1543">ObjectProcessingNodeOptions</text><!--MD5=[67bab153c3d185cc88e734e8c9e1d0bd]
reverse link MergeShapeOptions to ObjectMergeOptions--><path codeLine="8" d="M119.9,51.89 C139.03,67.4 162.07,86.09 177.86,98.89 " fill="none" id="MergeShapeOptions-backto-ObjectMergeOptions" style="stroke:#A80036;stroke-width:1.0;"/><polygon fill="none" points="115.21,57.1,104.08,39.06,124.02,46.22,115.21,57.1" style="stroke:#A80036;stroke-width:1.0;"/><!--MD5=[82c721290a55323b50ceff049e21bb13]
reverse link ObjectProcessingNodeOptions to ObjectMergeOptions--><path codeLine="11" d="M273.1,51.89 C253.97,67.4 230.93,86.09 215.14,98.89 " fill="none" id="ObjectProcessingNodeOptions-backto-ObjectMergeOptions" style="stroke:#A80036;stroke-width:1.0;"/><polygon fill="none" points="268.98,46.22,288.92,39.06,277.79,57.1,268.98,46.22" style="stroke:#A80036;stroke-width:1.0;"/><!--MD5=[1331469632ba20b12fa93ac1ef271f12]
@startuml
skinparam BackgroundColor transparent
hide empty methods
hide empty fields
interface "ObjectMergeOptions" {
}
interface "MergeShapeOptions" {
}
"MergeShapeOptions" <|- - "ObjectMergeOptions"
interface "ObjectProcessingNodeOptions" {
}
"ObjectProcessingNodeOptions" <|- - "ObjectMergeOptions"
@enduml

PlantUML version 1.2021.14(Fri Nov 12 16:46:50 UTC 2021)
(GPL source distribution)
Java Runtime: OpenJDK Runtime Environment
JVM: OpenJDK 64-Bit Server VM
Default Encoding: UTF-8
Language: en
Country: null
--></g></svg>