<?xml version="1.0" encoding="UTF-8" standalone="no"?><svg xmlns="http://www.w3.org/2000/svg" xmlns:xlink="http://www.w3.org/1999/xlink" contentScriptType="application/ecmascript" contentStyleType="text/css" height="237px" preserveAspectRatio="none" style="width:1247px;height:237px;background:#00000000;" version="1.1" viewBox="0 0 1247 237" width="1247px" zoomAndPan="magnify"><defs><filter height="300%" id="fk1xuaxora0mk" width="300%" x="-1" y="-1"><feGaussianBlur result="blurOut" stdDeviation="2.0"/><feColorMatrix in="blurOut" result="blurOut2" type="matrix" values="0 0 0 0 0 0 0 0 0 0 0 0 0 0 0 0 0 0 .4 0"/><feOffset dx="4.0" dy="4.0" in="blurOut2" result="blurOut3"/><feBlend in="SourceGraphic" in2="blurOut3" mode="normal"/></filter></defs><g><!--MD5=[b53bc0b3a71be57c62241e847c2a99d4]
class ObjectProcessingNodeOptions--><rect codeLine="4" fill="#FEFECE" filter="url(#fk1xuaxora0mk)" height="32" id="ObjectProcessingNodeOptions" style="stroke:#A80036;stroke-width:1.5;" width="216" x="501" y="99"/><ellipse cx="516" cy="115" fill="#B4A7E5" rx="11" ry="11" style="stroke:#A80036;stroke-width:1.0;"/><path d="M511.9219,110.7656 L511.9219,108.6094 L519.3125,108.6094 L519.3125,110.7656 L516.8438,110.7656 L516.8438,118.8438 L519.3125,118.8438 L519.3125,121 L511.9219,121 L511.9219,118.8438 L514.3906,118.8438 L514.3906,110.7656 L511.9219,110.7656 Z " fill="#000000"/><text fill="#000000" font-family="sans-serif" font-size="12" font-style="italic" lengthAdjust="spacing" textLength="184" x="530" y="119.1543">ObjectProcessingNodeOptions</text><!--MD5=[f2c00490a58e4d2420fdf06e183a4b13]
class ProcessingNodeOptions--><rect codeLine="6" fill="#FEFECE" filter="url(#fk1xuaxora0mk)" height="32" id="ProcessingNodeOptions" style="stroke:#A80036;stroke-width:1.5;" width="177" x="520.5" y="7"/><ellipse cx="535.5" cy="23" fill="#B4A7E5" rx="11" ry="11" style="stroke:#A80036;stroke-width:1.0;"/><path d="M531.4219,18.7656 L531.4219,16.6094 L538.8125,16.6094 L538.8125,18.7656 L536.3438,18.7656 L536.3438,26.8438 L538.8125,26.8438 L538.8125,29 L531.4219,29 L531.4219,26.8438 L533.8906,26.8438 L533.8906,18.7656 L531.4219,18.7656 Z " fill="#000000"/><text fill="#000000" font-family="sans-serif" font-size="12" font-style="italic" lengthAdjust="spacing" textLength="145" x="549.5" y="27.1543">ProcessingNodeOptions</text><!--MD5=[b4c9791fdc43e27f4752af748eba7fb9]
class ObjectMergeOptions--><rect codeLine="9" fill="#FEFECE" filter="url(#fk1xuaxora0mk)" height="32" id="ObjectMergeOptions" style="stroke:#A80036;stroke-width:1.5;" width="156" x="7" y="191"/><ellipse cx="22" cy="207" fill="#B4A7E5" rx="11" ry="11" style="stroke:#A80036;stroke-width:1.0;"/><path d="M17.9219,202.7656 L17.9219,200.6094 L25.3125,200.6094 L25.3125,202.7656 L22.8438,202.7656 L22.8438,210.8438 L25.3125,210.8438 L25.3125,213 L17.9219,213 L17.9219,210.8438 L20.3906,210.8438 L20.3906,202.7656 L17.9219,202.7656 Z " fill="#000000"/><text fill="#000000" font-family="sans-serif" font-size="12" font-style="italic" lengthAdjust="spacing" textLength="124" x="36" y="211.1543">ObjectMergeOptions</text><!--MD5=[7183395f106fe9f17d6415420f8540f1]
class SpaceConversionOptions--><rect codeLine="12" fill="#FEFECE" filter="url(#fk1xuaxora0mk)" height="32" id="SpaceConversionOptions" style="stroke:#A80036;stroke-width:1.5;" width="185" x="198.5" y="191"/><ellipse cx="213.5" cy="207" fill="#B4A7E5" rx="11" ry="11" style="stroke:#A80036;stroke-width:1.0;"/><path d="M209.4219,202.7656 L209.4219,200.6094 L216.8125,200.6094 L216.8125,202.7656 L214.3438,202.7656 L214.3438,210.8438 L216.8125,210.8438 L216.8125,213 L209.4219,213 L209.4219,210.8438 L211.8906,210.8438 L211.8906,202.7656 L209.4219,202.7656 Z " fill="#000000"/><text fill="#000000" font-family="sans-serif" font-size="12" font-style="italic" lengthAdjust="spacing" textLength="153" x="227.5" y="211.1543">SpaceConversionOptions</text><!--MD5=[a64cc95f50a68f73795155817271a9ec]
class FilterProcessingOptions--><rect codeLine="15" fill="#FEFECE" filter="url(#fk1xuaxora0mk)" height="32" id="FilterProcessingOptions" style="stroke:#A80036;stroke-width:1.5;" width="175" x="418.5" y="191"/><ellipse cx="433.5" cy="207" fill="#B4A7E5" rx="11" ry="11" style="stroke:#A80036;stroke-width:1.0;"/><path d="M429.4219,202.7656 L429.4219,200.6094 L436.8125,200.6094 L436.8125,202.7656 L434.3438,202.7656 L434.3438,210.8438 L436.8125,210.8438 L436.8125,213 L429.4219,213 L429.4219,210.8438 L431.8906,210.8438 L431.8906,202.7656 L429.4219,202.7656 Z " fill="#000000"/><text fill="#000000" font-family="sans-serif" font-size="12" font-style="italic" lengthAdjust="spacing" textLength="143" x="447.5" y="211.1543">FilterProcessingOptions</text><!--MD5=[dcbb06bf6d85dfb234cc4f7d2171bc43]
class MultilaterationOptions--><rect codeLine="18" fill="#FEFECE" filter="url(#fk1xuaxora0mk)" height="32" id="MultilaterationOptions" style="stroke:#A80036;stroke-width:1.5;" width="168" x="629" y="191"/><ellipse cx="644" cy="207" fill="#B4A7E5" rx="11" ry="11" style="stroke:#A80036;stroke-width:1.0;"/><path d="M639.9219,202.7656 L639.9219,200.6094 L647.3125,200.6094 L647.3125,202.7656 L644.8438,202.7656 L644.8438,210.8438 L647.3125,210.8438 L647.3125,213 L639.9219,213 L639.9219,210.8438 L642.3906,210.8438 L642.3906,202.7656 L639.9219,202.7656 Z " fill="#000000"/><text fill="#000000" font-family="sans-serif" font-size="12" font-style="italic" lengthAdjust="spacing" textLength="136" x="658" y="211.1543">MultilaterationOptions</text><!--MD5=[55474b353eeff7ab16250fb690321adf]
class AccuracyModifierOptions--><rect codeLine="21" fill="#FEFECE" filter="url(#fk1xuaxora0mk)" height="32" id="AccuracyModifierOptions" style="stroke:#A80036;stroke-width:1.5;" width="184" x="832" y="191"/><ellipse cx="847" cy="207" fill="#B4A7E5" rx="11" ry="11" style="stroke:#A80036;stroke-width:1.0;"/><path d="M842.9219,202.7656 L842.9219,200.6094 L850.3125,200.6094 L850.3125,202.7656 L847.8438,202.7656 L847.8438,210.8438 L850.3125,210.8438 L850.3125,213 L842.9219,213 L842.9219,210.8438 L845.3906,210.8438 L845.3906,202.7656 L842.9219,202.7656 Z " fill="#000000"/><text fill="#000000" font-family="sans-serif" font-size="12" font-style="italic" lengthAdjust="spacing" textLength="152" x="861" y="211.1543">AccuracyModifierOptions</text><!--MD5=[8b8517d8b4b8aa5528948bb5cc5f88a3]
class CellIdentificationOptions--><rect codeLine="24" fill="#FEFECE" filter="url(#fk1xuaxora0mk)" height="32" id="CellIdentificationOptions" style="stroke:#A80036;stroke-width:1.5;" width="182" x="1051" y="191"/><ellipse cx="1066" cy="207" fill="#B4A7E5" rx="11" ry="11" style="stroke:#A80036;stroke-width:1.0;"/><path d="M1061.9219,202.7656 L1061.9219,200.6094 L1069.3125,200.6094 L1069.3125,202.7656 L1066.8438,202.7656 L1066.8438,210.8438 L1069.3125,210.8438 L1069.3125,213 L1061.9219,213 L1061.9219,210.8438 L1064.3906,210.8438 L1064.3906,202.7656 L1061.9219,202.7656 Z " fill="#000000"/><text fill="#000000" font-family="sans-serif" font-size="12" font-style="italic" lengthAdjust="spacing" textLength="150" x="1080" y="211.1543">CellIdentificationOptions</text><!--MD5=[cbb42a2b064200c86501b3f71f35c9d6]
reverse link ProcessingNodeOptions to ObjectProcessingNodeOptions--><path codeLine="8" d="M609,59.61 C609,73.31 609,88.22 609,98.96 " fill="none" id="ProcessingNodeOptions-backto-ObjectProcessingNodeOptions" style="stroke:#A80036;stroke-width:1.0;"/><polygon fill="none" points="602,59.27,609,39.27,616,59.27,602,59.27" style="stroke:#A80036;stroke-width:1.0;"/><!--MD5=[82c721290a55323b50ceff049e21bb13]
reverse link ObjectProcessingNodeOptions to ObjectMergeOptions--><path codeLine="11" d="M501.82,134.41 C401.23,151.69 253.15,177.12 163.23,192.56 " fill="none" id="ObjectProcessingNodeOptions-backto-ObjectMergeOptions" style="stroke:#A80036;stroke-width:1.0;"/><polygon fill="none" points="500.69,127.5,521.59,131.01,503.06,141.3,500.69,127.5" style="stroke:#A80036;stroke-width:1.0;"/><!--MD5=[e70c1b9e5e4417c063a1a8777c6611ed]
reverse link ObjectProcessingNodeOptions to SpaceConversionOptions--><path codeLine="14" d="M536.46,136.53 C477.88,153.11 396.81,176.06 344.13,190.96 " fill="none" id="ObjectProcessingNodeOptions-backto-SpaceConversionOptions" style="stroke:#A80036;stroke-width:1.0;"/><polygon fill="none" points="534.62,129.78,555.77,131.06,538.44,143.25,534.62,129.78" style="stroke:#A80036;stroke-width:1.0;"/><!--MD5=[2622f437de93cf02aa23091e84eaf4f2]
reverse link ObjectProcessingNodeOptions to FilterProcessingOptions--><path codeLine="17" d="M576.3,144.58 C558.67,159.97 537.65,178.34 523.21,190.96 " fill="none" id="ObjectProcessingNodeOptions-backto-FilterProcessingOptions" style="stroke:#A80036;stroke-width:1.0;"/><polygon fill="none" points="571.86,139.16,591.53,131.27,581.07,149.7,571.86,139.16" style="stroke:#A80036;stroke-width:1.0;"/><!--MD5=[bee8a5cd30965e14bc0c448644c2589e]
reverse link ObjectProcessingNodeOptions to MultilaterationOptions--><path codeLine="20" d="M642.02,144.58 C659.81,159.97 681.04,178.34 695.62,190.96 " fill="none" id="ObjectProcessingNodeOptions-backto-MultilaterationOptions" style="stroke:#A80036;stroke-width:1.0;"/><polygon fill="none" points="637.18,149.65,626.64,131.27,646.35,139.06,637.18,149.65" style="stroke:#A80036;stroke-width:1.0;"/><!--MD5=[6eb700add1db1bb88e45709b6a493fc9]
reverse link ObjectProcessingNodeOptions to AccuracyModifierOptions--><path codeLine="23" d="M681.23,136.64 C739.23,153.21 819.31,176.09 871.37,190.96 " fill="none" id="ObjectProcessingNodeOptions-backto-AccuracyModifierOptions" style="stroke:#A80036;stroke-width:1.0;"/><polygon fill="none" points="679.03,143.29,661.72,131.06,682.88,129.83,679.03,143.29" style="stroke:#A80036;stroke-width:1.0;"/><!--MD5=[ef8eebbbebd94bfd0c7c30c9ebbfb974]
reverse link ObjectProcessingNodeOptions to CellIdentificationOptions--><path codeLine="26" d="M717.66,134.35 C816.5,151.04 960.61,175.37 1052.84,190.94 " fill="none" id="ObjectProcessingNodeOptions-backto-CellIdentificationOptions" style="stroke:#A80036;stroke-width:1.0;"/><polygon fill="none" points="716.47,141.25,697.91,131.01,718.8,127.44,716.47,141.25" style="stroke:#A80036;stroke-width:1.0;"/><!--MD5=[f2723a4569269da22091fea441a98c8c]
@startuml
skinparam BackgroundColor transparent
hide empty methods
hide empty fields
interface "ObjectProcessingNodeOptions" {
}
interface "ProcessingNodeOptions" {
}
"ProcessingNodeOptions" <|- - "ObjectProcessingNodeOptions"
interface "ObjectMergeOptions" {
}
"ObjectProcessingNodeOptions" <|- - "ObjectMergeOptions"
interface "SpaceConversionOptions" {
}
"ObjectProcessingNodeOptions" <|- - "SpaceConversionOptions"
interface "FilterProcessingOptions" {
}
"ObjectProcessingNodeOptions" <|- - "FilterProcessingOptions"
interface "MultilaterationOptions" {
}
"ObjectProcessingNodeOptions" <|- - "MultilaterationOptions"
interface "AccuracyModifierOptions" {
}
"ObjectProcessingNodeOptions" <|- - "AccuracyModifierOptions"
interface "CellIdentificationOptions" {
}
"ObjectProcessingNodeOptions" <|- - "CellIdentificationOptions"
@enduml

PlantUML version 1.2021.14(Fri Nov 12 16:46:50 UTC 2021)
(GPL source distribution)
Java Runtime: OpenJDK Runtime Environment
JVM: OpenJDK 64-Bit Server VM
Default Encoding: UTF-8
Language: en
Country: null
--></g></svg>