<?xml version="1.0" encoding="us-ascii" standalone="no"?><svg xmlns="http://www.w3.org/2000/svg" xmlns:xlink="http://www.w3.org/1999/xlink" contentStyleType="text/css" height="138px" preserveAspectRatio="none" style="width:315px;height:138px;" version="1.1" viewBox="0 0 315 138" width="315px" zoomAndPan="magnify"><defs/><g><!--class Pose--><g id="elem_Pose"><rect codeLine="4" fill="#F1F1F1" height="32" id="Pose" rx="2.5" ry="2.5" style="stroke:#181818;stroke-width:0.5;" width="67" x="98" y="99"/><ellipse cx="113" cy="115" fill="#ADD1B2" rx="11" ry="11" style="stroke:#181818;stroke-width:1.0;"/><path d="M115.9688,120.6406 Q115.3906,120.9375 114.75,121.0781 Q114.1094,121.2344 113.4063,121.2344 Q110.9063,121.2344 109.5781,119.5938 Q108.2656,117.9375 108.2656,114.8125 Q108.2656,111.6875 109.5781,110.0313 Q110.9063,108.375 113.4063,108.375 Q114.1094,108.375 114.75,108.5313 Q115.4063,108.6875 115.9688,108.9844 L115.9688,111.7031 Q115.3438,111.125 114.75,110.8594 Q114.1563,110.5781 113.5313,110.5781 Q112.1875,110.5781 111.5,111.6563 Q110.8125,112.7188 110.8125,114.8125 Q110.8125,116.9063 111.5,117.9844 Q112.1875,119.0469 113.5313,119.0469 Q114.1563,119.0469 114.75,118.7813 Q115.3438,118.5 115.9688,117.9219 L115.9688,120.6406 Z " fill="#000000"/><text fill="#000000" font-family="sans-serif" font-size="14" lengthAdjust="spacing" textLength="35" x="127" y="119.8467">Pose</text></g><!--class Matrix4--><g id="elem_Matrix4"><rect codeLine="6" fill="#F1F1F1" height="32" id="Matrix4" rx="2.5" ry="2.5" style="stroke:#181818;stroke-width:0.5;" width="81" x="7" y="7"/><ellipse cx="22" cy="23" fill="#ADD1B2" rx="11" ry="11" style="stroke:#181818;stroke-width:1.0;"/><path d="M24.9688,28.6406 Q24.3906,28.9375 23.75,29.0781 Q23.1094,29.2344 22.4063,29.2344 Q19.9063,29.2344 18.5781,27.5938 Q17.2656,25.9375 17.2656,22.8125 Q17.2656,19.6875 18.5781,18.0313 Q19.9063,16.375 22.4063,16.375 Q23.1094,16.375 23.75,16.5313 Q24.4063,16.6875 24.9688,16.9844 L24.9688,19.7031 Q24.3438,19.125 23.75,18.8594 Q23.1563,18.5781 22.5313,18.5781 Q21.1875,18.5781 20.5,19.6563 Q19.8125,20.7188 19.8125,22.8125 Q19.8125,24.9063 20.5,25.9844 Q21.1875,27.0469 22.5313,27.0469 Q23.1563,27.0469 23.75,26.7813 Q24.3438,26.5 24.9688,25.9219 L24.9688,28.6406 Z " fill="#000000"/><text fill="#000000" font-family="sans-serif" font-size="14" lengthAdjust="spacing" textLength="49" x="36" y="27.8467">Matrix4</text></g><!--class Position<LengthUnit>--><g id="elem_Position&lt;LengthUnit&gt;"><rect codeLine="9" fill="#F1F1F1" height="32" id="Position&lt;LengthUnit&gt;" rx="2.5" ry="2.5" style="stroke:#181818;stroke-width:0.5;" width="185" x="123" y="7"/><ellipse cx="138" cy="23" fill="#B4A7E5" rx="11" ry="11" style="stroke:#181818;stroke-width:1.0;"/><path d="M133.9219,18.7656 L133.9219,16.6094 L141.3125,16.6094 L141.3125,18.7656 L138.8438,18.7656 L138.8438,26.8438 L141.3125,26.8438 L141.3125,29 L133.9219,29 L133.9219,26.8438 L136.3906,26.8438 L136.3906,18.7656 L133.9219,18.7656 Z " fill="#000000"/><text fill="#000000" font-family="sans-serif" font-size="14" font-style="italic" lengthAdjust="spacing" textLength="153" x="152" y="27.8467">Position&lt;LengthUnit&gt;</text></g><!--reverse link Matrix4 to Pose--><g id="link_Matrix4_Pose"><path codeLine="8" d="M75.73,54.25 C89.77,69.29 106.11,86.8 117.46,98.96 " fill="none" id="Matrix4-backto-Pose" style="stroke:#181818;stroke-width:1.0;"/><polygon fill="none" points="70.28,58.66,61.75,39.27,80.51,49.11,70.28,58.66" style="stroke:#181818;stroke-width:1.0;"/></g><!--reverse link Position<LengthUnit> to Pose--><g id="link_Position&lt;LengthUnit&gt;_Pose"><path codeLine="11" d="M187.27,54.25 C173.23,69.29 156.89,86.8 145.54,98.96 " fill="none" id="Position&lt;LengthUnit&gt;-backto-Pose" style="stroke:#181818;stroke-width:1.0;stroke-dasharray:7.0,7.0;"/><polygon fill="none" points="182.49,49.11,201.25,39.27,192.72,58.66,182.49,49.11" style="stroke:#181818;stroke-width:1.0;"/></g><!--SRC=[RSmn3i8m30NGFQUmkhSJOyK0AqWi7C1AtCPgubI9aK2KkrD140oC_ttxbubbnemHTcYdCQUBk7qAAODcbB9M96eyEmAAizuWalhaoYyDJ64L6x0KQ4wfK0Dty_Z04JNpTVEsR-gNjgtNXaKf3sZf1QoSf3-GZEhFmhgjh_-hVkcwklC4]--></g></svg>