<?xml version="1.0" encoding="UTF-8" standalone="no"?><svg xmlns="http://www.w3.org/2000/svg" xmlns:xlink="http://www.w3.org/1999/xlink" contentScriptType="application/ecmascript" contentStyleType="text/css" height="145px" preserveAspectRatio="none" style="width:302px;height:145px;background:#00000000;" version="1.1" viewBox="0 0 302 145" width="302px" zoomAndPan="magnify"><defs><filter height="300%" id="fmgrveo4avwx3" width="300%" x="-1" y="-1"><feGaussianBlur result="blurOut" stdDeviation="2.0"/><feColorMatrix in="blurOut" result="blurOut2" type="matrix" values="0 0 0 0 0 0 0 0 0 0 0 0 0 0 0 0 0 0 .4 0"/><feOffset dx="4.0" dy="4.0" in="blurOut2" result="blurOut3"/><feBlend in="SourceGraphic" in2="blurOut3" mode="normal"/></filter></defs><g><!--MD5=[b9d2ae19c81790848eb39c80825341ca]
class Pose--><rect codeLine="4" fill="#FEFECE" filter="url(#fmgrveo4avwx3)" height="32" id="Pose" style="stroke:#A80036;stroke-width:1.5;" width="63" x="93" y="99"/><ellipse cx="108" cy="115" fill="#ADD1B2" rx="11" ry="11" style="stroke:#A80036;stroke-width:1.0;"/><path d="M110.9688,120.6406 Q110.3906,120.9375 109.75,121.0781 Q109.1094,121.2344 108.4063,121.2344 Q105.9063,121.2344 104.5781,119.5938 Q103.2656,117.9375 103.2656,114.8125 Q103.2656,111.6875 104.5781,110.0313 Q105.9063,108.375 108.4063,108.375 Q109.1094,108.375 109.75,108.5313 Q110.4063,108.6875 110.9688,108.9844 L110.9688,111.7031 Q110.3438,111.125 109.75,110.8594 Q109.1563,110.5781 108.5313,110.5781 Q107.1875,110.5781 106.5,111.6563 Q105.8125,112.7188 105.8125,114.8125 Q105.8125,116.9063 106.5,117.9844 Q107.1875,119.0469 108.5313,119.0469 Q109.1563,119.0469 109.75,118.7813 Q110.3438,118.5 110.9688,117.9219 L110.9688,120.6406 Z " fill="#000000"/><text fill="#000000" font-family="sans-serif" font-size="12" lengthAdjust="spacing" textLength="31" x="122" y="119.1543">Pose</text><!--MD5=[c9d57e72579f5036e9f78a0f4b71b326]
class Matrix4--><rect codeLine="6" fill="#FEFECE" filter="url(#fmgrveo4avwx3)" height="32" id="Matrix4" style="stroke:#A80036;stroke-width:1.5;" width="77" x="7" y="7"/><ellipse cx="22" cy="23" fill="#ADD1B2" rx="11" ry="11" style="stroke:#A80036;stroke-width:1.0;"/><path d="M24.9688,28.6406 Q24.3906,28.9375 23.75,29.0781 Q23.1094,29.2344 22.4063,29.2344 Q19.9063,29.2344 18.5781,27.5938 Q17.2656,25.9375 17.2656,22.8125 Q17.2656,19.6875 18.5781,18.0313 Q19.9063,16.375 22.4063,16.375 Q23.1094,16.375 23.75,16.5313 Q24.4063,16.6875 24.9688,16.9844 L24.9688,19.7031 Q24.3438,19.125 23.75,18.8594 Q23.1563,18.5781 22.5313,18.5781 Q21.1875,18.5781 20.5,19.6563 Q19.8125,20.7188 19.8125,22.8125 Q19.8125,24.9063 20.5,25.9844 Q21.1875,27.0469 22.5313,27.0469 Q23.1563,27.0469 23.75,26.7813 Q24.3438,26.5 24.9688,25.9219 L24.9688,28.6406 Z " fill="#000000"/><text fill="#000000" font-family="sans-serif" font-size="12" lengthAdjust="spacing" textLength="45" x="36" y="27.1543">Matrix4</text><!--MD5=[170fb7b388d5c0756e44277b48d2435e]
class Position<LengthUnit>--><rect codeLine="9" fill="#FEFECE" filter="url(#fmgrveo4avwx3)" height="32" id="Position&lt;LengthUnit&gt;" style="stroke:#A80036;stroke-width:1.5;" width="169" x="119" y="7"/><ellipse cx="134" cy="23" fill="#B4A7E5" rx="11" ry="11" style="stroke:#A80036;stroke-width:1.0;"/><path d="M129.9219,18.7656 L129.9219,16.6094 L137.3125,16.6094 L137.3125,18.7656 L134.8438,18.7656 L134.8438,26.8438 L137.3125,26.8438 L137.3125,29 L129.9219,29 L129.9219,26.8438 L132.3906,26.8438 L132.3906,18.7656 L129.9219,18.7656 Z " fill="#000000"/><text fill="#000000" font-family="sans-serif" font-size="12" font-style="italic" lengthAdjust="spacing" textLength="137" x="148" y="27.1543">Position&lt;LengthUnit&gt;</text><!--MD5=[df8658dda3566f76ea43a62863447678]
reverse link Matrix4 to Pose--><path codeLine="8" d="M72.47,54.73 C85.58,69.66 100.73,86.93 111.3,98.96 " fill="none" id="Matrix4-backto-Pose" style="stroke:#A80036;stroke-width:1.0;"/><polygon fill="none" points="66.83,58.92,58.9,39.27,77.36,49.68,66.83,58.92" style="stroke:#A80036;stroke-width:1.0;"/><!--MD5=[57d0f32f1675f84ce8d07832b73428fc]
reverse link Position<LengthUnit> to Pose--><path codeLine="11" d="M176.53,54.73 C163.42,69.66 148.27,86.93 137.7,98.96 " fill="none" id="Position&lt;LengthUnit&gt;-backto-Pose" style="stroke:#A80036;stroke-width:1.0;stroke-dasharray:7.0,7.0;"/><polygon fill="none" points="171.64,49.68,190.1,39.27,182.17,58.92,171.64,49.68" style="stroke:#A80036;stroke-width:1.0;"/><!--MD5=[f57c5df29c607bcbb4e9072fcef42183]
@startuml
skinparam BackgroundColor transparent
hide empty methods
hide empty fields
class "Pose" {
}
class "Matrix4" {
}
"Matrix4" <|- - "Pose"
interface "Position<LengthUnit>" {
}
"Position<LengthUnit>" <|.. "Pose"
@enduml

PlantUML version 1.2021.14(Fri Nov 12 16:46:50 UTC 2021)
(GPL source distribution)
Java Runtime: OpenJDK Runtime Environment
JVM: OpenJDK 64-Bit Server VM
Default Encoding: UTF-8
Language: en
Country: null
--></g></svg>