<?xml version="1.0" encoding="UTF-8" standalone="no"?><svg xmlns="http://www.w3.org/2000/svg" xmlns:xlink="http://www.w3.org/1999/xlink" contentScriptType="application/ecmascript" contentStyleType="text/css" height="145px" preserveAspectRatio="none" style="width:521px;height:145px;background:#00000000;" version="1.1" viewBox="0 0 521 145" width="521px" zoomAndPan="magnify"><defs><filter height="300%" id="f1kwl1lgw4x723" width="300%" x="-1" y="-1"><feGaussianBlur result="blurOut" stdDeviation="2.0"/><feColorMatrix in="blurOut" result="blurOut2" type="matrix" values="0 0 0 0 0 0 0 0 0 0 0 0 0 0 0 0 0 0 .4 0"/><feOffset dx="4.0" dy="4.0" in="blurOut2" result="blurOut3"/><feBlend in="SourceGraphic" in2="blurOut3" mode="normal"/></filter></defs><g><!--MD5=[efe4deb92e29646ed3045df87b68c117]
class Position<U>--><rect codeLine="4" fill="#FEFECE" filter="url(#f1kwl1lgw4x723)" height="32" id="Position&lt;U&gt;" style="stroke:#A80036;stroke-width:1.5;" width="109" x="153.5" y="7"/><ellipse cx="168.5" cy="23" fill="#B4A7E5" rx="11" ry="11" style="stroke:#A80036;stroke-width:1.0;"/><path d="M164.4219,18.7656 L164.4219,16.6094 L171.8125,16.6094 L171.8125,18.7656 L169.3438,18.7656 L169.3438,26.8438 L171.8125,26.8438 L171.8125,29 L164.4219,29 L164.4219,26.8438 L166.8906,26.8438 L166.8906,18.7656 L164.4219,18.7656 Z " fill="#000000"/><text fill="#000000" font-family="sans-serif" font-size="12" font-style="italic" lengthAdjust="spacing" textLength="77" x="182.5" y="27.1543">Position&lt;U&gt;</text><!--MD5=[c4d8c5124f272f75c6ae8cb327446c28]
class AbsolutePosition--><rect codeLine="6" fill="#FEFECE" filter="url(#f1kwl1lgw4x723)" height="32" id="AbsolutePosition" style="stroke:#A80036;stroke-width:1.5;" width="134" x="7" y="99"/><ellipse cx="22" cy="115" fill="#A9DCDF" rx="11" ry="11" style="stroke:#A80036;stroke-width:1.0;"/><path d="M22.1094,110.3438 L20.9531,115.4219 L23.2813,115.4219 L22.1094,110.3438 Z M20.625,108.1094 L23.6094,108.1094 L26.9688,120.5 L24.5156,120.5 L23.75,117.4375 L20.4688,117.4375 L19.7188,120.5 L17.2813,120.5 L20.625,108.1094 Z " fill="#000000"/><text fill="#000000" font-family="sans-serif" font-size="12" font-style="italic" lengthAdjust="spacing" textLength="102" x="36" y="119.1543">AbsolutePosition</text><!--MD5=[b9d2ae19c81790848eb39c80825341ca]
class Pose--><rect codeLine="9" fill="#FEFECE" filter="url(#f1kwl1lgw4x723)" height="32" id="Pose" style="stroke:#A80036;stroke-width:1.5;" width="63" x="176.5" y="99"/><ellipse cx="191.5" cy="115" fill="#ADD1B2" rx="11" ry="11" style="stroke:#A80036;stroke-width:1.0;"/><path d="M194.4688,120.6406 Q193.8906,120.9375 193.25,121.0781 Q192.6094,121.2344 191.9063,121.2344 Q189.4063,121.2344 188.0781,119.5938 Q186.7656,117.9375 186.7656,114.8125 Q186.7656,111.6875 188.0781,110.0313 Q189.4063,108.375 191.9063,108.375 Q192.6094,108.375 193.25,108.5313 Q193.9063,108.6875 194.4688,108.9844 L194.4688,111.7031 Q193.8438,111.125 193.25,110.8594 Q192.6563,110.5781 192.0313,110.5781 Q190.6875,110.5781 190,111.6563 Q189.3125,112.7188 189.3125,114.8125 Q189.3125,116.9063 190,117.9844 Q190.6875,119.0469 192.0313,119.0469 Q192.6563,119.0469 193.25,118.7813 Q193.8438,118.5 194.4688,117.9219 L194.4688,120.6406 Z " fill="#000000"/><text fill="#000000" font-family="sans-serif" font-size="12" lengthAdjust="spacing" textLength="31" x="205.5" y="119.1543">Pose</text><!--MD5=[78645f4035297285da0ddd5843aa3ff9]
class RelativePosition<number, Unit>--><rect codeLine="12" fill="#FEFECE" filter="url(#f1kwl1lgw4x723)" height="32" id="RelativePosition&lt;number, Unit&gt;" style="stroke:#A80036;stroke-width:1.5;" width="232" x="275" y="99"/><ellipse cx="290" cy="115" fill="#ADD1B2" rx="11" ry="11" style="stroke:#A80036;stroke-width:1.0;"/><path d="M292.9688,120.6406 Q292.3906,120.9375 291.75,121.0781 Q291.1094,121.2344 290.4063,121.2344 Q287.9063,121.2344 286.5781,119.5938 Q285.2656,117.9375 285.2656,114.8125 Q285.2656,111.6875 286.5781,110.0313 Q287.9063,108.375 290.4063,108.375 Q291.1094,108.375 291.75,108.5313 Q292.4063,108.6875 292.9688,108.9844 L292.9688,111.7031 Q292.3438,111.125 291.75,110.8594 Q291.1563,110.5781 290.5313,110.5781 Q289.1875,110.5781 288.5,111.6563 Q287.8125,112.7188 287.8125,114.8125 Q287.8125,116.9063 288.5,117.9844 Q289.1875,119.0469 290.5313,119.0469 Q291.1563,119.0469 291.75,118.7813 Q292.3438,118.5 292.9688,117.9219 L292.9688,120.6406 Z " fill="#000000"/><text fill="#000000" font-family="sans-serif" font-size="12" lengthAdjust="spacing" textLength="200" x="304" y="119.1543">RelativePosition&lt;number, Unit&gt;</text><!--MD5=[feb9546bf7666c0008cf1f50165ea210]
reverse link Position<U> to AbsolutePosition--><path codeLine="8" d="M168.91,50.25 C145.37,66.06 116.24,85.63 96.5,98.89 " fill="none" id="Position&lt;U&gt;-backto-AbsolutePosition" style="stroke:#A80036;stroke-width:1.0;stroke-dasharray:7.0,7.0;"/><polygon fill="none" points="165.07,44.4,185.57,39.06,172.87,56.03,165.07,44.4" style="stroke:#A80036;stroke-width:1.0;"/><!--MD5=[b7d4f5e184d92bf13a84edfc58968be8]
reverse link Position<U> to Pose--><path codeLine="11" d="M208,59.61 C208,73.31 208,88.22 208,98.96 " fill="none" id="Position&lt;U&gt;-backto-Pose" style="stroke:#A80036;stroke-width:1.0;stroke-dasharray:7.0,7.0;"/><polygon fill="none" points="201,59.27,208,39.27,215,59.27,201,59.27" style="stroke:#A80036;stroke-width:1.0;"/><!--MD5=[b10a9b20eb1f7e846247de6011c3f961]
reverse link Position<U> to RelativePosition<number, Unit>--><path codeLine="14" d="M256.71,47.96 C289.6,64.13 332,84.98 360.27,98.89 " fill="none" id="Position&lt;U&gt;-backto-RelativePosition&lt;number, Unit&gt;" style="stroke:#A80036;stroke-width:1.0;stroke-dasharray:7.0,7.0;"/><polygon fill="none" points="253.49,54.17,238.63,39.06,259.67,41.61,253.49,54.17" style="stroke:#A80036;stroke-width:1.0;"/><!--MD5=[0201192370178ebc0d1246d12ffb0a51]
@startuml
skinparam BackgroundColor transparent
hide empty methods
hide empty fields
interface "Position<U>" {
}
abstract class "AbsolutePosition" {
}
"Position<U>" <|.. "AbsolutePosition"
class "Pose" {
}
"Position<U>" <|.. "Pose"
class "RelativePosition<number, Unit>" {
}
"Position<U>" <|.. "RelativePosition<number, Unit>"
@enduml

PlantUML version 1.2021.14(Fri Nov 12 16:46:50 UTC 2021)
(GPL source distribution)
Java Runtime: OpenJDK Runtime Environment
JVM: OpenJDK 64-Bit Server VM
Default Encoding: UTF-8
Language: en
Country: null
--></g></svg>