<?xml version="1.0" encoding="UTF-8" standalone="no"?><svg xmlns="http://www.w3.org/2000/svg" xmlns:xlink="http://www.w3.org/1999/xlink" contentScriptType="application/ecmascript" contentStyleType="text/css" height="145px" preserveAspectRatio="none" style="width:134px;height:145px;background:#00000000;" version="1.1" viewBox="0 0 134 145" width="134px" zoomAndPan="magnify"><defs><filter height="300%" id="f1tnpysrqodi30" width="300%" x="-1" y="-1"><feGaussianBlur result="blurOut" stdDeviation="2.0"/><feColorMatrix in="blurOut" result="blurOut2" type="matrix" values="0 0 0 0 0 0 0 0 0 0 0 0 0 0 0 0 0 0 .4 0"/><feOffset dx="4.0" dy="4.0" in="blurOut2" result="blurOut3"/><feBlend in="SourceGraphic" in2="blurOut3" mode="normal"/></filter></defs><g><!--MD5=[92586cbad516e4d12f32759116b8e97b]
class PressureUnit--><rect codeLine="4" fill="#FEFECE" filter="url(#f1tnpysrqodi30)" height="32" id="PressureUnit" style="stroke:#A80036;stroke-width:1.5;" width="113" x="7" y="99"/><ellipse cx="22" cy="115" fill="#ADD1B2" rx="11" ry="11" style="stroke:#A80036;stroke-width:1.0;"/><path d="M24.9688,120.6406 Q24.3906,120.9375 23.75,121.0781 Q23.1094,121.2344 22.4063,121.2344 Q19.9063,121.2344 18.5781,119.5938 Q17.2656,117.9375 17.2656,114.8125 Q17.2656,111.6875 18.5781,110.0313 Q19.9063,108.375 22.4063,108.375 Q23.1094,108.375 23.75,108.5313 Q24.4063,108.6875 24.9688,108.9844 L24.9688,111.7031 Q24.3438,111.125 23.75,110.8594 Q23.1563,110.5781 22.5313,110.5781 Q21.1875,110.5781 20.5,111.6563 Q19.8125,112.7188 19.8125,114.8125 Q19.8125,116.9063 20.5,117.9844 Q21.1875,119.0469 22.5313,119.0469 Q23.1563,119.0469 23.75,118.7813 Q24.3438,118.5 24.9688,117.9219 L24.9688,120.6406 Z " fill="#000000"/><text fill="#000000" font-family="sans-serif" font-size="12" lengthAdjust="spacing" textLength="81" x="36" y="119.1543">PressureUnit</text><!--MD5=[63a373d2559db13dd8cc7d36e037ebb1]
class Unit--><rect codeLine="6" fill="#FEFECE" filter="url(#f1tnpysrqodi30)" height="32" id="Unit" style="stroke:#A80036;stroke-width:1.5;" width="57" x="35" y="7"/><ellipse cx="50" cy="23" fill="#ADD1B2" rx="11" ry="11" style="stroke:#A80036;stroke-width:1.0;"/><path d="M52.9688,28.6406 Q52.3906,28.9375 51.75,29.0781 Q51.1094,29.2344 50.4063,29.2344 Q47.9063,29.2344 46.5781,27.5938 Q45.2656,25.9375 45.2656,22.8125 Q45.2656,19.6875 46.5781,18.0313 Q47.9063,16.375 50.4063,16.375 Q51.1094,16.375 51.75,16.5313 Q52.4063,16.6875 52.9688,16.9844 L52.9688,19.7031 Q52.3438,19.125 51.75,18.8594 Q51.1563,18.5781 50.5313,18.5781 Q49.1875,18.5781 48.5,19.6563 Q47.8125,20.7188 47.8125,22.8125 Q47.8125,24.9063 48.5,25.9844 Q49.1875,27.0469 50.5313,27.0469 Q51.1563,27.0469 51.75,26.7813 Q52.3438,26.5 52.9688,25.9219 L52.9688,28.6406 Z " fill="#000000"/><text fill="#000000" font-family="sans-serif" font-size="12" lengthAdjust="spacing" textLength="25" x="64" y="27.1543">Unit</text><!--MD5=[d1441d7513cd8b6427927f282019b889]
reverse link Unit to PressureUnit--><path codeLine="8" d="M63.5,59.61 C63.5,73.31 63.5,88.22 63.5,98.96 " fill="none" id="Unit-backto-PressureUnit" style="stroke:#A80036;stroke-width:1.0;"/><polygon fill="none" points="56.5,59.27,63.5,39.27,70.5,59.27,56.5,59.27" style="stroke:#A80036;stroke-width:1.0;"/><!--MD5=[0ac040f0c4e76c8f13bd4b8efcf090f4]
@startuml
skinparam BackgroundColor transparent
hide empty methods
hide empty fields
class "PressureUnit" {
}
class "Unit" {
}
"Unit" <|- - "PressureUnit"
@enduml

PlantUML version 1.2021.14(Fri Nov 12 16:46:50 UTC 2021)
(GPL source distribution)
Java Runtime: OpenJDK Runtime Environment
JVM: OpenJDK 64-Bit Server VM
Default Encoding: UTF-8
Language: en
Country: null
--></g></svg>