<?xml version="1.0" encoding="UTF-8" standalone="no"?><svg xmlns="http://www.w3.org/2000/svg" xmlns:xlink="http://www.w3.org/1999/xlink" contentScriptType="application/ecmascript" contentStyleType="text/css" height="237px" preserveAspectRatio="none" style="width:429px;height:237px;background:#00000000;" version="1.1" viewBox="0 0 429 237" width="429px" zoomAndPan="magnify"><defs><filter height="300%" id="f1u5pxhammam02" width="300%" x="-1" y="-1"><feGaussianBlur result="blurOut" stdDeviation="2.0"/><feColorMatrix in="blurOut" result="blurOut2" type="matrix" values="0 0 0 0 0 0 0 0 0 0 0 0 0 0 0 0 0 0 .4 0"/><feOffset dx="4.0" dy="4.0" in="blurOut2" result="blurOut3"/><feBlend in="SourceGraphic" in2="blurOut3" mode="normal"/></filter></defs><g><!--MD5=[f2c00490a58e4d2420fdf06e183a4b13]
class ProcessingNodeOptions--><rect codeLine="4" fill="#FEFECE" filter="url(#f1u5pxhammam02)" height="32" id="ProcessingNodeOptions" style="stroke:#A80036;stroke-width:1.5;" width="177" x="108" y="99"/><ellipse cx="123" cy="115" fill="#B4A7E5" rx="11" ry="11" style="stroke:#A80036;stroke-width:1.0;"/><path d="M118.9219,110.7656 L118.9219,108.6094 L126.3125,108.6094 L126.3125,110.7656 L123.8438,110.7656 L123.8438,118.8438 L126.3125,118.8438 L126.3125,121 L118.9219,121 L118.9219,118.8438 L121.3906,118.8438 L121.3906,110.7656 L118.9219,110.7656 Z " fill="#000000"/><text fill="#000000" font-family="sans-serif" font-size="12" font-style="italic" lengthAdjust="spacing" textLength="145" x="137" y="119.1543">ProcessingNodeOptions</text><!--MD5=[680d5112d2c67c3de15744b0ad7e4a6c]
class NodeOptions--><rect codeLine="6" fill="#FEFECE" filter="url(#f1u5pxhammam02)" height="32" id="NodeOptions" style="stroke:#A80036;stroke-width:1.5;" width="111" x="141" y="7"/><ellipse cx="156" cy="23" fill="#B4A7E5" rx="11" ry="11" style="stroke:#A80036;stroke-width:1.0;"/><path d="M151.9219,18.7656 L151.9219,16.6094 L159.3125,16.6094 L159.3125,18.7656 L156.8438,18.7656 L156.8438,26.8438 L159.3125,26.8438 L159.3125,29 L151.9219,29 L151.9219,26.8438 L154.3906,26.8438 L154.3906,18.7656 L151.9219,18.7656 Z " fill="#000000"/><text fill="#000000" font-family="sans-serif" font-size="12" font-style="italic" lengthAdjust="spacing" textLength="79" x="170" y="27.1543">NodeOptions</text><!--MD5=[7f977e29ea97c8721704c7294b857227]
class MergeShapeOptions--><rect codeLine="9" fill="#FEFECE" filter="url(#f1u5pxhammam02)" height="32" id="MergeShapeOptions" style="stroke:#A80036;stroke-width:1.5;" width="157" x="7" y="191"/><ellipse cx="22" cy="207" fill="#B4A7E5" rx="11" ry="11" style="stroke:#A80036;stroke-width:1.0;"/><path d="M17.9219,202.7656 L17.9219,200.6094 L25.3125,200.6094 L25.3125,202.7656 L22.8438,202.7656 L22.8438,210.8438 L25.3125,210.8438 L25.3125,213 L17.9219,213 L17.9219,210.8438 L20.3906,210.8438 L20.3906,202.7656 L17.9219,202.7656 Z " fill="#000000"/><text fill="#000000" font-family="sans-serif" font-size="12" font-style="italic" lengthAdjust="spacing" textLength="125" x="36" y="211.1543">MergeShapeOptions</text><!--MD5=[b53bc0b3a71be57c62241e847c2a99d4]
class ObjectProcessingNodeOptions--><rect codeLine="12" fill="#FEFECE" filter="url(#f1u5pxhammam02)" height="32" id="ObjectProcessingNodeOptions" style="stroke:#A80036;stroke-width:1.5;" width="216" x="199.5" y="191"/><ellipse cx="214.5" cy="207" fill="#B4A7E5" rx="11" ry="11" style="stroke:#A80036;stroke-width:1.0;"/><path d="M210.4219,202.7656 L210.4219,200.6094 L217.8125,200.6094 L217.8125,202.7656 L215.3438,202.7656 L215.3438,210.8438 L217.8125,210.8438 L217.8125,213 L210.4219,213 L210.4219,210.8438 L212.8906,210.8438 L212.8906,202.7656 L210.4219,202.7656 Z " fill="#000000"/><text fill="#000000" font-family="sans-serif" font-size="12" font-style="italic" lengthAdjust="spacing" textLength="184" x="228.5" y="211.1543">ObjectProcessingNodeOptions</text><!--MD5=[2939fe06d48eeea86f491218d2cd7cda]
reverse link NodeOptions to ProcessingNodeOptions--><path codeLine="8" d="M196.5,59.61 C196.5,73.31 196.5,88.22 196.5,98.96 " fill="none" id="NodeOptions-backto-ProcessingNodeOptions" style="stroke:#A80036;stroke-width:1.0;"/><polygon fill="none" points="189.5,59.27,196.5,39.27,203.5,59.27,189.5,59.27" style="stroke:#A80036;stroke-width:1.0;"/><!--MD5=[92995e265f0d5469e7a4e6a7d4042a05]
reverse link ProcessingNodeOptions to MergeShapeOptions--><path codeLine="11" d="M162.1,143.89 C142.97,159.4 119.93,178.09 104.14,190.89 " fill="none" id="ProcessingNodeOptions-backto-MergeShapeOptions" style="stroke:#A80036;stroke-width:1.0;"/><polygon fill="none" points="157.98,138.22,177.92,131.06,166.79,149.1,157.98,138.22" style="stroke:#A80036;stroke-width:1.0;"/><!--MD5=[cbb42a2b064200c86501b3f71f35c9d6]
reverse link ProcessingNodeOptions to ObjectProcessingNodeOptions--><path codeLine="14" d="M230.9,143.89 C250.03,159.4 273.07,178.09 288.86,190.89 " fill="none" id="ProcessingNodeOptions-backto-ObjectProcessingNodeOptions" style="stroke:#A80036;stroke-width:1.0;"/><polygon fill="none" points="226.21,149.1,215.08,131.06,235.02,138.22,226.21,149.1" style="stroke:#A80036;stroke-width:1.0;"/><!--MD5=[2708110f761db9cc8bae7940f224c8ec]
@startuml
skinparam BackgroundColor transparent
hide empty methods
hide empty fields
interface "ProcessingNodeOptions" {
}
interface "NodeOptions" {
}
"NodeOptions" <|- - "ProcessingNodeOptions"
interface "MergeShapeOptions" {
}
"ProcessingNodeOptions" <|- - "MergeShapeOptions"
interface "ObjectProcessingNodeOptions" {
}
"ProcessingNodeOptions" <|- - "ObjectProcessingNodeOptions"
@enduml

PlantUML version 1.2021.14(Fri Nov 12 16:46:50 UTC 2021)
(GPL source distribution)
Java Runtime: OpenJDK Runtime Environment
JVM: OpenJDK 64-Bit Server VM
Default Encoding: UTF-8
Language: en
Country: null
--></g></svg>