<?xml version="1.0" encoding="us-ascii" standalone="no"?><svg xmlns="http://www.w3.org/2000/svg" xmlns:xlink="http://www.w3.org/1999/xlink" contentStyleType="text/css" height="230px" preserveAspectRatio="none" style="width:464px;height:230px;" version="1.1" viewBox="0 0 464 230" width="464px" zoomAndPan="magnify"><defs/><g><!--class ProcessingNodeOptions--><g id="elem_ProcessingNodeOptions"><rect codeLine="4" fill="#F1F1F1" height="32" id="ProcessingNodeOptions" rx="2.5" ry="2.5" style="stroke:#181818;stroke-width:0.5;" width="197" x="116" y="99"/><ellipse cx="131" cy="115" fill="#B4A7E5" rx="11" ry="11" style="stroke:#181818;stroke-width:1.0;"/><path d="M126.9219,110.7656 L126.9219,108.6094 L134.3125,108.6094 L134.3125,110.7656 L131.8438,110.7656 L131.8438,118.8438 L134.3125,118.8438 L134.3125,121 L126.9219,121 L126.9219,118.8438 L129.3906,118.8438 L129.3906,110.7656 L126.9219,110.7656 Z " fill="#000000"/><text fill="#000000" font-family="sans-serif" font-size="14" font-style="italic" lengthAdjust="spacing" textLength="165" x="145" y="119.8467">ProcessingNodeOptions</text></g><!--class NodeOptions--><g id="elem_NodeOptions"><rect codeLine="6" fill="#F1F1F1" height="32" id="NodeOptions" rx="2.5" ry="2.5" style="stroke:#181818;stroke-width:0.5;" width="123" x="153" y="7"/><ellipse cx="168" cy="23" fill="#B4A7E5" rx="11" ry="11" style="stroke:#181818;stroke-width:1.0;"/><path d="M163.9219,18.7656 L163.9219,16.6094 L171.3125,16.6094 L171.3125,18.7656 L168.8438,18.7656 L168.8438,26.8438 L171.3125,26.8438 L171.3125,29 L163.9219,29 L163.9219,26.8438 L166.3906,26.8438 L166.3906,18.7656 L163.9219,18.7656 Z " fill="#000000"/><text fill="#000000" font-family="sans-serif" font-size="14" font-style="italic" lengthAdjust="spacing" textLength="91" x="182" y="27.8467">NodeOptions</text></g><!--class MergeShapeOptions--><g id="elem_MergeShapeOptions"><rect codeLine="9" fill="#F1F1F1" height="32" id="MergeShapeOptions" rx="2.5" ry="2.5" style="stroke:#181818;stroke-width:0.5;" width="173" x="7" y="191"/><ellipse cx="22" cy="207" fill="#B4A7E5" rx="11" ry="11" style="stroke:#181818;stroke-width:1.0;"/><path d="M17.9219,202.7656 L17.9219,200.6094 L25.3125,200.6094 L25.3125,202.7656 L22.8438,202.7656 L22.8438,210.8438 L25.3125,210.8438 L25.3125,213 L17.9219,213 L17.9219,210.8438 L20.3906,210.8438 L20.3906,202.7656 L17.9219,202.7656 Z " fill="#000000"/><text fill="#000000" font-family="sans-serif" font-size="14" font-style="italic" lengthAdjust="spacing" textLength="141" x="36" y="211.8467">MergeShapeOptions</text></g><!--class ObjectProcessingNodeOptions--><g id="elem_ObjectProcessingNodeOptions"><rect codeLine="12" fill="#F1F1F1" height="32" id="ObjectProcessingNodeOptions" rx="2.5" ry="2.5" style="stroke:#181818;stroke-width:0.5;" width="242" x="215.5" y="191"/><ellipse cx="230.5" cy="207" fill="#B4A7E5" rx="11" ry="11" style="stroke:#181818;stroke-width:1.0;"/><path d="M226.4219,202.7656 L226.4219,200.6094 L233.8125,200.6094 L233.8125,202.7656 L231.3438,202.7656 L231.3438,210.8438 L233.8125,210.8438 L233.8125,213 L226.4219,213 L226.4219,210.8438 L228.8906,210.8438 L228.8906,202.7656 L226.4219,202.7656 Z " fill="#000000"/><text fill="#000000" font-family="sans-serif" font-size="14" font-style="italic" lengthAdjust="spacing" textLength="210" x="244.5" y="211.8467">ObjectProcessingNodeOptions</text></g><!--reverse link NodeOptions to ProcessingNodeOptions--><g id="link_NodeOptions_ProcessingNodeOptions"><path codeLine="8" d="M214.5,59.61 C214.5,73.31 214.5,88.22 214.5,98.96 " fill="none" id="NodeOptions-backto-ProcessingNodeOptions" style="stroke:#181818;stroke-width:1.0;"/><polygon fill="none" points="207.5,59.27,214.5,39.27,221.5,59.27,207.5,59.27" style="stroke:#181818;stroke-width:1.0;"/></g><!--reverse link ProcessingNodeOptions to MergeShapeOptions--><g id="link_ProcessingNodeOptions_MergeShapeOptions"><path codeLine="11" d="M177.95,143.19 C156.92,158.83 131.29,177.89 113.82,190.89 " fill="none" id="ProcessingNodeOptions-backto-MergeShapeOptions" style="stroke:#181818;stroke-width:1.0;"/><polygon fill="none" points="174.02,137.38,194.25,131.06,182.38,148.62,174.02,137.38" style="stroke:#181818;stroke-width:1.0;"/></g><!--reverse link ProcessingNodeOptions to ObjectProcessingNodeOptions--><g id="link_ProcessingNodeOptions_ObjectProcessingNodeOptions"><path codeLine="14" d="M251.04,142.95 C272.3,158.64 298.31,177.83 316.01,190.89 " fill="none" id="ProcessingNodeOptions-backto-ObjectProcessingNodeOptions" style="stroke:#181818;stroke-width:1.0;"/><polygon fill="none" points="246.86,148.57,234.92,131.06,255.17,137.3,246.86,148.57" style="stroke:#181818;stroke-width:1.0;"/></g><!--SRC=[VOyn3i8m34NtdiBgtXimmGn5uWGXSPFGreuSCo3WxbHY2LJD-hx_qtSU8oKZPeQziQCNlfCxyCG2AeRo4Y5f4w93m3df0sRKm2wNQ8WuBIIIeWp68hHdOOivH_8dTjWdZKovXMVpBgzMsI_PlRfkIrLgZYWUBy6aFzd6YAzsNIgL_VM6LYjVrEMr-WS0]--></g></svg>