<?xml version="1.0" encoding="us-ascii" standalone="no"?><svg xmlns="http://www.w3.org/2000/svg" xmlns:xlink="http://www.w3.org/1999/xlink" contentStyleType="text/css" height="230px" preserveAspectRatio="none" style="width:1007px;height:230px;" version="1.1" viewBox="0 0 1007 230" width="1007px" zoomAndPan="magnify"><defs/><g><!--class ProcessingNode<In, Out>--><g id="elem_ProcessingNode&lt;In, Out&gt;"><rect codeLine="4" fill="#F1F1F1" height="32" id="ProcessingNode&lt;In, Out&gt;" rx="2.5" ry="2.5" style="stroke:#181818;stroke-width:0.5;" width="214" x="348" y="99"/><ellipse cx="363" cy="115" fill="#A9DCDF" rx="11" ry="11" style="stroke:#181818;stroke-width:1.0;"/><path d="M363.1094,110.3438 L361.9531,115.4219 L364.2813,115.4219 L363.1094,110.3438 Z M361.625,108.1094 L364.6094,108.1094 L367.9688,120.5 L365.5156,120.5 L364.75,117.4375 L361.4688,117.4375 L360.7188,120.5 L358.2813,120.5 L361.625,108.1094 Z " fill="#000000"/><text fill="#000000" font-family="sans-serif" font-size="14" font-style="italic" lengthAdjust="spacing" textLength="182" x="377" y="119.8467">ProcessingNode&lt;In, Out&gt;</text></g><!--class Node<In, Out>--><g id="elem_Node&lt;In, Out&gt;"><rect codeLine="6" fill="#F1F1F1" height="32" id="Node&lt;In, Out&gt;" rx="2.5" ry="2.5" style="stroke:#181818;stroke-width:0.5;" width="138" x="386" y="7"/><ellipse cx="401" cy="23" fill="#ADD1B2" rx="11" ry="11" style="stroke:#181818;stroke-width:1.0;"/><path d="M403.9688,28.6406 Q403.3906,28.9375 402.75,29.0781 Q402.1094,29.2344 401.4063,29.2344 Q398.9063,29.2344 397.5781,27.5938 Q396.2656,25.9375 396.2656,22.8125 Q396.2656,19.6875 397.5781,18.0313 Q398.9063,16.375 401.4063,16.375 Q402.1094,16.375 402.75,16.5313 Q403.4063,16.6875 403.9688,16.9844 L403.9688,19.7031 Q403.3438,19.125 402.75,18.8594 Q402.1563,18.5781 401.5313,18.5781 Q400.1875,18.5781 399.5,19.6563 Q398.8125,20.7188 398.8125,22.8125 Q398.8125,24.9063 399.5,25.9844 Q400.1875,27.0469 401.5313,27.0469 Q402.1563,27.0469 402.75,26.7813 Q403.3438,26.5 403.9688,25.9219 L403.9688,28.6406 Z " fill="#000000"/><text fill="#000000" font-family="sans-serif" font-size="14" lengthAdjust="spacing" textLength="106" x="415" y="27.8467">Node&lt;In, Out&gt;</text></g><!--class FrameFilterNode<InOut>--><g id="elem_FrameFilterNode&lt;InOut&gt;"><rect codeLine="9" fill="#F1F1F1" height="32" id="FrameFilterNode&lt;InOut&gt;" rx="2.5" ry="2.5" style="stroke:#181818;stroke-width:0.5;" width="206" x="7" y="191"/><ellipse cx="22" cy="207" fill="#ADD1B2" rx="11" ry="11" style="stroke:#181818;stroke-width:1.0;"/><path d="M24.9688,212.6406 Q24.3906,212.9375 23.75,213.0781 Q23.1094,213.2344 22.4063,213.2344 Q19.9063,213.2344 18.5781,211.5938 Q17.2656,209.9375 17.2656,206.8125 Q17.2656,203.6875 18.5781,202.0313 Q19.9063,200.375 22.4063,200.375 Q23.1094,200.375 23.75,200.5313 Q24.4063,200.6875 24.9688,200.9844 L24.9688,203.7031 Q24.3438,203.125 23.75,202.8594 Q23.1563,202.5781 22.5313,202.5781 Q21.1875,202.5781 20.5,203.6563 Q19.8125,204.7188 19.8125,206.8125 Q19.8125,208.9063 20.5,209.9844 Q21.1875,211.0469 22.5313,211.0469 Q23.1563,211.0469 23.75,210.7813 Q24.3438,210.5 24.9688,209.9219 L24.9688,212.6406 Z " fill="#000000"/><text fill="#000000" font-family="sans-serif" font-size="14" lengthAdjust="spacing" textLength="174" x="36" y="211.8467">FrameFilterNode&lt;InOut&gt;</text></g><!--class MergeShape<InOut>--><g id="elem_MergeShape&lt;InOut&gt;"><rect codeLine="12" fill="#F1F1F1" height="32" id="MergeShape&lt;InOut&gt;" rx="2.5" ry="2.5" style="stroke:#181818;stroke-width:0.5;" width="182" x="248" y="191"/><ellipse cx="263" cy="207" fill="#A9DCDF" rx="11" ry="11" style="stroke:#181818;stroke-width:1.0;"/><path d="M263.1094,202.3438 L261.9531,207.4219 L264.2813,207.4219 L263.1094,202.3438 Z M261.625,200.1094 L264.6094,200.1094 L267.9688,212.5 L265.5156,212.5 L264.75,209.4375 L261.4688,209.4375 L260.7188,212.5 L258.2813,212.5 L261.625,200.1094 Z " fill="#000000"/><text fill="#000000" font-family="sans-serif" font-size="14" font-style="italic" lengthAdjust="spacing" textLength="150" x="277" y="211.8467">MergeShape&lt;InOut&gt;</text></g><!--class FrameDelayNode<InOut>--><g id="elem_FrameDelayNode&lt;InOut&gt;"><rect codeLine="15" fill="#F1F1F1" height="32" id="FrameDelayNode&lt;InOut&gt;" rx="2.5" ry="2.5" style="stroke:#181818;stroke-width:0.5;" width="211" x="465.5" y="191"/><ellipse cx="480.5" cy="207" fill="#ADD1B2" rx="11" ry="11" style="stroke:#181818;stroke-width:1.0;"/><path d="M483.4688,212.6406 Q482.8906,212.9375 482.25,213.0781 Q481.6094,213.2344 480.9063,213.2344 Q478.4063,213.2344 477.0781,211.5938 Q475.7656,209.9375 475.7656,206.8125 Q475.7656,203.6875 477.0781,202.0313 Q478.4063,200.375 480.9063,200.375 Q481.6094,200.375 482.25,200.5313 Q482.9063,200.6875 483.4688,200.9844 L483.4688,203.7031 Q482.8438,203.125 482.25,202.8594 Q481.6563,202.5781 481.0313,202.5781 Q479.6875,202.5781 479,203.6563 Q478.3125,204.7188 478.3125,206.8125 Q478.3125,208.9063 479,209.9844 Q479.6875,211.0469 481.0313,211.0469 Q481.6563,211.0469 482.25,210.7813 Q482.8438,210.5 483.4688,209.9219 L483.4688,212.6406 Z " fill="#000000"/><text fill="#000000" font-family="sans-serif" font-size="14" lengthAdjust="spacing" textLength="179" x="494.5" y="211.8467">FrameDelayNode&lt;InOut&gt;</text></g><!--class ObjectProcessingNode<DataFrame>--><g id="elem_ObjectProcessingNode&lt;DataFrame&gt;"><rect codeLine="18" fill="#F1F1F1" height="32" id="ObjectProcessingNode&lt;DataFrame&gt;" rx="2.5" ry="2.5" style="stroke:#181818;stroke-width:0.5;" width="288" x="712" y="191"/><ellipse cx="727" cy="207" fill="#A9DCDF" rx="11" ry="11" style="stroke:#181818;stroke-width:1.0;"/><path d="M727.1094,202.3438 L725.9531,207.4219 L728.2813,207.4219 L727.1094,202.3438 Z M725.625,200.1094 L728.6094,200.1094 L731.9688,212.5 L729.5156,212.5 L728.75,209.4375 L725.4688,209.4375 L724.7188,212.5 L722.2813,212.5 L725.625,200.1094 Z " fill="#000000"/><text fill="#000000" font-family="sans-serif" font-size="14" font-style="italic" lengthAdjust="spacing" textLength="256" x="741" y="211.8467">ObjectProcessingNode&lt;DataFrame&gt;</text></g><!--reverse link Node<In, Out> to ProcessingNode<In, Out>--><g id="link_Node&lt;In, Out&gt;_ProcessingNode&lt;In, Out&gt;"><path codeLine="8" d="M455,59.61 C455,73.31 455,88.22 455,98.96 " fill="none" id="Node&lt;In, Out&gt;-backto-ProcessingNode&lt;In, Out&gt;" style="stroke:#181818;stroke-width:1.0;"/><polygon fill="none" points="448,59.27,455,39.27,462,59.27,448,59.27" style="stroke:#181818;stroke-width:1.0;"/></g><!--reverse link ProcessingNode<In, Out> to FrameFilterNode<InOut>--><g id="link_ProcessingNode&lt;In, Out&gt;_FrameFilterNode&lt;InOut&gt;"><path codeLine="11" d="M377.54,136.21 C313.9,152.81 225.16,175.96 167.65,190.96 " fill="none" id="ProcessingNode&lt;In, Out&gt;-backto-FrameFilterNode&lt;InOut&gt;" style="stroke:#181818;stroke-width:1.0;"/><polygon fill="none" points="376.14,129.34,397.25,131.06,379.67,142.89,376.14,129.34" style="stroke:#181818;stroke-width:1.0;"/></g><!--reverse link ProcessingNode<In, Out> to MergeShape<InOut>--><g id="link_ProcessingNode&lt;In, Out&gt;_MergeShape&lt;InOut&gt;"><path codeLine="14" d="M419.65,143.42 C399.55,159.02 375.14,177.96 358.48,190.89 " fill="none" id="ProcessingNode&lt;In, Out&gt;-backto-MergeShape&lt;InOut&gt;" style="stroke:#181818;stroke-width:1.0;"/><polygon fill="none" points="415.49,137.79,435.58,131.06,424.07,148.85,415.49,137.79" style="stroke:#181818;stroke-width:1.0;"/></g><!--reverse link ProcessingNode<In, Out> to FrameDelayNode<InOut>--><g id="link_ProcessingNode&lt;In, Out&gt;_FrameDelayNode&lt;InOut&gt;"><path codeLine="17" d="M490.35,143.42 C510.45,159.02 534.86,177.96 551.52,190.89 " fill="none" id="ProcessingNode&lt;In, Out&gt;-backto-FrameDelayNode&lt;InOut&gt;" style="stroke:#181818;stroke-width:1.0;"/><polygon fill="none" points="485.93,148.85,474.42,131.06,494.51,137.79,485.93,148.85" style="stroke:#181818;stroke-width:1.0;"/></g><!--reverse link ProcessingNode<In, Out> to ObjectProcessingNode<DataFrame>--><g id="link_ProcessingNode&lt;In, Out&gt;_ObjectProcessingNode&lt;DataFrame&gt;"><path codeLine="20" d="M541.69,135.46 C615.87,152.11 721.13,175.73 789,190.96 " fill="none" id="ProcessingNode&lt;In, Out&gt;-backto-ObjectProcessingNode&lt;DataFrame&gt;" style="stroke:#181818;stroke-width:1.0;"/><polygon fill="none" points="540.1,142.27,522.12,131.06,543.17,128.61,540.1,142.27" style="stroke:#181818;stroke-width:1.0;"/></g><!--SRC=[dOzD3e8m44RtdA9XBJSWBfIGk51CFC7GZb0fBMc71L7lRgEO84ZysNupxyqthfAw0GirMm6l2cjQBTP66Sl8WdP-X9g2KWfaM3VKiHgfDC8DewD4vHF8dMSuCQx0EHRkhU7edDJ5pWYCDth1ifQM8Ji7rw3VUJCPP_4bYkPbJr7gNy1KAaBRBmoCiqqUxXbsyj0MRO674fhVz5FifNI22hh_Ea_GIUKiFo6daIi1WZl_vQrFaXi0]--></g></svg>