<?xml version="1.0" encoding="UTF-8" standalone="no"?><svg xmlns="http://www.w3.org/2000/svg" xmlns:xlink="http://www.w3.org/1999/xlink" contentScriptType="application/ecmascript" contentStyleType="text/css" height="237px" preserveAspectRatio="none" style="width:928px;height:237px;background:#00000000;" version="1.1" viewBox="0 0 928 237" width="928px" zoomAndPan="magnify"><defs><filter height="300%" id="f16yvf0ansy5hk" width="300%" x="-1" y="-1"><feGaussianBlur result="blurOut" stdDeviation="2.0"/><feColorMatrix in="blurOut" result="blurOut2" type="matrix" values="0 0 0 0 0 0 0 0 0 0 0 0 0 0 0 0 0 0 .4 0"/><feOffset dx="4.0" dy="4.0" in="blurOut2" result="blurOut3"/><feBlend in="SourceGraphic" in2="blurOut3" mode="normal"/></filter></defs><g><!--MD5=[15552102494ff0486f7e2e9fff52b016]
class ProcessingNode<In, Out>--><rect codeLine="4" fill="#FEFECE" filter="url(#f16yvf0ansy5hk)" height="32" id="ProcessingNode&lt;In, Out&gt;" style="stroke:#A80036;stroke-width:1.5;" width="192" x="322" y="99"/><ellipse cx="337" cy="115" fill="#A9DCDF" rx="11" ry="11" style="stroke:#A80036;stroke-width:1.0;"/><path d="M337.1094,110.3438 L335.9531,115.4219 L338.2813,115.4219 L337.1094,110.3438 Z M335.625,108.1094 L338.6094,108.1094 L341.9688,120.5 L339.5156,120.5 L338.75,117.4375 L335.4688,117.4375 L334.7188,120.5 L332.2813,120.5 L335.625,108.1094 Z " fill="#000000"/><text fill="#000000" font-family="sans-serif" font-size="12" font-style="italic" lengthAdjust="spacing" textLength="160" x="351" y="119.1543">ProcessingNode&lt;In, Out&gt;</text><!--MD5=[1f35e560ec16ab5e3b805489929ed19a]
class Node<In, Out>--><rect codeLine="6" fill="#FEFECE" filter="url(#f16yvf0ansy5hk)" height="32" id="Node&lt;In, Out&gt;" style="stroke:#A80036;stroke-width:1.5;" width="126" x="355" y="7"/><ellipse cx="370" cy="23" fill="#ADD1B2" rx="11" ry="11" style="stroke:#A80036;stroke-width:1.0;"/><path d="M372.9688,28.6406 Q372.3906,28.9375 371.75,29.0781 Q371.1094,29.2344 370.4063,29.2344 Q367.9063,29.2344 366.5781,27.5938 Q365.2656,25.9375 365.2656,22.8125 Q365.2656,19.6875 366.5781,18.0313 Q367.9063,16.375 370.4063,16.375 Q371.1094,16.375 371.75,16.5313 Q372.4063,16.6875 372.9688,16.9844 L372.9688,19.7031 Q372.3438,19.125 371.75,18.8594 Q371.1563,18.5781 370.5313,18.5781 Q369.1875,18.5781 368.5,19.6563 Q367.8125,20.7188 367.8125,22.8125 Q367.8125,24.9063 368.5,25.9844 Q369.1875,27.0469 370.5313,27.0469 Q371.1563,27.0469 371.75,26.7813 Q372.3438,26.5 372.9688,25.9219 L372.9688,28.6406 Z " fill="#000000"/><text fill="#000000" font-family="sans-serif" font-size="12" lengthAdjust="spacing" textLength="94" x="384" y="27.1543">Node&lt;In, Out&gt;</text><!--MD5=[4646f3fb556489f47b0f46b6967dedbe]
class FrameFilterNode<InOut>--><rect codeLine="9" fill="#FEFECE" filter="url(#f16yvf0ansy5hk)" height="32" id="FrameFilterNode&lt;InOut&gt;" style="stroke:#A80036;stroke-width:1.5;" width="188" x="7" y="191"/><ellipse cx="22" cy="207" fill="#ADD1B2" rx="11" ry="11" style="stroke:#A80036;stroke-width:1.0;"/><path d="M24.9688,212.6406 Q24.3906,212.9375 23.75,213.0781 Q23.1094,213.2344 22.4063,213.2344 Q19.9063,213.2344 18.5781,211.5938 Q17.2656,209.9375 17.2656,206.8125 Q17.2656,203.6875 18.5781,202.0313 Q19.9063,200.375 22.4063,200.375 Q23.1094,200.375 23.75,200.5313 Q24.4063,200.6875 24.9688,200.9844 L24.9688,203.7031 Q24.3438,203.125 23.75,202.8594 Q23.1563,202.5781 22.5313,202.5781 Q21.1875,202.5781 20.5,203.6563 Q19.8125,204.7188 19.8125,206.8125 Q19.8125,208.9063 20.5,209.9844 Q21.1875,211.0469 22.5313,211.0469 Q23.1563,211.0469 23.75,210.7813 Q24.3438,210.5 24.9688,209.9219 L24.9688,212.6406 Z " fill="#000000"/><text fill="#000000" font-family="sans-serif" font-size="12" lengthAdjust="spacing" textLength="156" x="36" y="211.1543">FrameFilterNode&lt;InOut&gt;</text><!--MD5=[4a4367315437d3589fad77aa170f6467]
class MergeShape<InOut>--><rect codeLine="12" fill="#FEFECE" filter="url(#f16yvf0ansy5hk)" height="32" id="MergeShape&lt;InOut&gt;" style="stroke:#A80036;stroke-width:1.5;" width="164" x="230" y="191"/><ellipse cx="245" cy="207" fill="#A9DCDF" rx="11" ry="11" style="stroke:#A80036;stroke-width:1.0;"/><path d="M245.1094,202.3438 L243.9531,207.4219 L246.2813,207.4219 L245.1094,202.3438 Z M243.625,200.1094 L246.6094,200.1094 L249.9688,212.5 L247.5156,212.5 L246.75,209.4375 L243.4688,209.4375 L242.7188,212.5 L240.2813,212.5 L243.625,200.1094 Z " fill="#000000"/><text fill="#000000" font-family="sans-serif" font-size="12" font-style="italic" lengthAdjust="spacing" textLength="132" x="259" y="211.1543">MergeShape&lt;InOut&gt;</text><!--MD5=[87757af7630f6a8e22a5a7c1c0bc476c]
class FrameDelayNode<InOut>--><rect codeLine="15" fill="#FEFECE" filter="url(#f16yvf0ansy5hk)" height="32" id="FrameDelayNode&lt;InOut&gt;" style="stroke:#A80036;stroke-width:1.5;" width="191" x="429.5" y="191"/><ellipse cx="444.5" cy="207" fill="#ADD1B2" rx="11" ry="11" style="stroke:#A80036;stroke-width:1.0;"/><path d="M447.4688,212.6406 Q446.8906,212.9375 446.25,213.0781 Q445.6094,213.2344 444.9063,213.2344 Q442.4063,213.2344 441.0781,211.5938 Q439.7656,209.9375 439.7656,206.8125 Q439.7656,203.6875 441.0781,202.0313 Q442.4063,200.375 444.9063,200.375 Q445.6094,200.375 446.25,200.5313 Q446.9063,200.6875 447.4688,200.9844 L447.4688,203.7031 Q446.8438,203.125 446.25,202.8594 Q445.6563,202.5781 445.0313,202.5781 Q443.6875,202.5781 443,203.6563 Q442.3125,204.7188 442.3125,206.8125 Q442.3125,208.9063 443,209.9844 Q443.6875,211.0469 445.0313,211.0469 Q445.6563,211.0469 446.25,210.7813 Q446.8438,210.5 447.4688,209.9219 L447.4688,212.6406 Z " fill="#000000"/><text fill="#000000" font-family="sans-serif" font-size="12" lengthAdjust="spacing" textLength="159" x="458.5" y="211.1543">FrameDelayNode&lt;InOut&gt;</text><!--MD5=[c907b791bdca64ff96e109f2e55830fc]
class ObjectProcessingNode<DataFrame>--><rect codeLine="18" fill="#FEFECE" filter="url(#f16yvf0ansy5hk)" height="32" id="ObjectProcessingNode&lt;DataFrame&gt;" style="stroke:#A80036;stroke-width:1.5;" width="259" x="655.5" y="191"/><ellipse cx="670.5" cy="207" fill="#A9DCDF" rx="11" ry="11" style="stroke:#A80036;stroke-width:1.0;"/><path d="M670.6094,202.3438 L669.4531,207.4219 L671.7813,207.4219 L670.6094,202.3438 Z M669.125,200.1094 L672.1094,200.1094 L675.4688,212.5 L673.0156,212.5 L672.25,209.4375 L668.9688,209.4375 L668.2188,212.5 L665.7813,212.5 L669.125,200.1094 Z " fill="#000000"/><text fill="#000000" font-family="sans-serif" font-size="12" font-style="italic" lengthAdjust="spacing" textLength="227" x="684.5" y="211.1543">ObjectProcessingNode&lt;DataFrame&gt;</text><!--MD5=[9026f8ae286f66d03c1db90fdfc1b55c]
reverse link Node<In, Out> to ProcessingNode<In, Out>--><path codeLine="8" d="M418,59.61 C418,73.31 418,88.22 418,98.96 " fill="none" id="Node&lt;In, Out&gt;-backto-ProcessingNode&lt;In, Out&gt;" style="stroke:#A80036;stroke-width:1.0;"/><polygon fill="none" points="411,59.27,418,39.27,425,59.27,411,59.27" style="stroke:#A80036;stroke-width:1.0;"/><!--MD5=[7c6892a39b5e07aee3badcaf9009a90e]
reverse link ProcessingNode<In, Out> to FrameFilterNode<InOut>--><path codeLine="11" d="M345.69,136.53 C287.29,153.11 206.47,176.06 153.97,190.96 " fill="none" id="ProcessingNode&lt;In, Out&gt;-backto-FrameFilterNode&lt;InOut&gt;" style="stroke:#A80036;stroke-width:1.0;"/><polygon fill="none" points="343.79,129.79,364.94,131.06,347.61,143.26,343.79,129.79" style="stroke:#A80036;stroke-width:1.0;"/><!--MD5=[4ff6c4ef43955d33856ab0c0abf5880d]
reverse link ProcessingNode<In, Out> to MergeShape<InOut>--><path codeLine="14" d="M384.62,144.34 C366.43,159.79 344.65,178.28 329.72,190.96 " fill="none" id="ProcessingNode&lt;In, Out&gt;-backto-MergeShape&lt;InOut&gt;" style="stroke:#A80036;stroke-width:1.0;"/><polygon fill="none" points="380.24,138.88,400.02,131.27,389.3,149.55,380.24,138.88" style="stroke:#A80036;stroke-width:1.0;"/><!--MD5=[24975ae3977385db430ad54588ae03e6]
reverse link ProcessingNode<In, Out> to FrameDelayNode<InOut>--><path codeLine="17" d="M451.69,144.34 C470.06,159.79 492.04,178.28 507.12,190.96 " fill="none" id="ProcessingNode&lt;In, Out&gt;-backto-FrameDelayNode&lt;InOut&gt;" style="stroke:#A80036;stroke-width:1.0;"/><polygon fill="none" points="446.95,149.5,436.15,131.27,455.96,138.78,446.95,149.5" style="stroke:#A80036;stroke-width:1.0;"/><!--MD5=[e66141f1a0809fed661810e37772588b]
reverse link ProcessingNode<In, Out> to ObjectProcessingNode<DataFrame>--><path codeLine="20" d="M499.08,135.88 C566.87,152.51 662.1,175.86 723.68,190.96 " fill="none" id="ProcessingNode&lt;In, Out&gt;-backto-ObjectProcessingNode&lt;DataFrame&gt;" style="stroke:#A80036;stroke-width:1.0;"/><polygon fill="none" points="497.18,142.63,479.43,131.06,500.52,129.03,497.18,142.63" style="stroke:#A80036;stroke-width:1.0;"/><!--MD5=[89dce97274abc9e8db4ba1fe4598ca52]
@startuml
skinparam BackgroundColor transparent
hide empty methods
hide empty fields
abstract class "ProcessingNode<In, Out>" {
}
class "Node<In, Out>" {
}
"Node<In, Out>" <|- - "ProcessingNode<In, Out>"
class "FrameFilterNode<InOut>" {
}
"ProcessingNode<In, Out>" <|- - "FrameFilterNode<InOut>"
abstract class "MergeShape<InOut>" {
}
"ProcessingNode<In, Out>" <|- - "MergeShape<InOut>"
class "FrameDelayNode<InOut>" {
}
"ProcessingNode<In, Out>" <|- - "FrameDelayNode<InOut>"
abstract class "ObjectProcessingNode<DataFrame>" {
}
"ProcessingNode<In, Out>" <|- - "ObjectProcessingNode<DataFrame>"
@enduml

PlantUML version 1.2021.14(Fri Nov 12 16:46:50 UTC 2021)
(GPL source distribution)
Java Runtime: OpenJDK Runtime Environment
JVM: OpenJDK 64-Bit Server VM
Default Encoding: UTF-8
Language: en
Country: null
--></g></svg>