<?xml version="1.0" encoding="UTF-8" standalone="no"?><svg xmlns="http://www.w3.org/2000/svg" xmlns:xlink="http://www.w3.org/1999/xlink" contentScriptType="application/ecmascript" contentStyleType="text/css" height="427px" preserveAspectRatio="none" style="width:429px;height:427px;background:#00000000;" version="1.1" viewBox="0 0 429 427" width="429px" zoomAndPan="magnify"><defs><filter height="300%" id="f9nkaq5sm8lqg" width="300%" x="-1" y="-1"><feGaussianBlur result="blurOut" stdDeviation="2.0"/><feColorMatrix in="blurOut" result="blurOut2" type="matrix" values="0 0 0 0 0 0 0 0 0 0 0 0 0 0 0 0 0 0 .4 0"/><feOffset dx="4.0" dy="4.0" in="blurOut2" result="blurOut3"/><feBlend in="SourceGraphic" in2="blurOut3" mode="normal"/></filter></defs><g><!--MD5=[f2c00490a58e4d2420fdf06e183a4b13]
class ProcessingNodeOptions--><rect codeLine="4" fill="#FEFECE" filter="url(#f9nkaq5sm8lqg)" height="78.4141" id="ProcessingNodeOptions" style="stroke:#A80036;stroke-width:1.5;" width="177" x="108" y="133"/><ellipse cx="123" cy="149" fill="#B4A7E5" rx="11" ry="11" style="stroke:#A80036;stroke-width:1.0;"/><path d="M118.9219,144.7656 L118.9219,142.6094 L126.3125,142.6094 L126.3125,144.7656 L123.8438,144.7656 L123.8438,152.8438 L126.3125,152.8438 L126.3125,155 L118.9219,155 L118.9219,152.8438 L121.3906,152.8438 L121.3906,144.7656 L118.9219,144.7656 Z " fill="#000000"/><text fill="#000000" font-family="sans-serif" font-size="12" font-style="italic" lengthAdjust="spacing" textLength="145" x="137" y="153.1543">ProcessingNodeOptions</text><line style="stroke:#A80036;stroke-width:1.5;" x1="109" x2="284" y1="165" y2="165"/><ellipse cx="119" cy="176" rx="3" ry="3" style="stroke:#038048;stroke-width:1.0;fill:none;"/><text fill="#000000" font-family="sans-serif" font-size="11" lengthAdjust="spacing" textLength="121" x="128" y="179.2104">frameFilter : Function</text><ellipse cx="119" cy="188.8047" rx="3" ry="3" style="stroke:#038048;stroke-width:1.0;fill:none;"/><text fill="#000000" font-family="sans-serif" font-size="11" lengthAdjust="spacing" textLength="77" x="128" y="192.0151">name : string</text><ellipse cx="119" cy="201.6094" rx="3" ry="3" style="stroke:#038048;stroke-width:1.0;fill:none;"/><text fill="#000000" font-family="sans-serif" font-size="11" lengthAdjust="spacing" textLength="62" x="128" y="204.8198">uid : string</text><!--MD5=[680d5112d2c67c3de15744b0ad7e4a6c]
class NodeOptions--><rect codeLine="9" fill="#FEFECE" filter="url(#f9nkaq5sm8lqg)" height="65.6094" id="NodeOptions" style="stroke:#A80036;stroke-width:1.5;" width="111" x="141" y="7"/><ellipse cx="156" cy="23" fill="#B4A7E5" rx="11" ry="11" style="stroke:#A80036;stroke-width:1.0;"/><path d="M151.9219,18.7656 L151.9219,16.6094 L159.3125,16.6094 L159.3125,18.7656 L156.8438,18.7656 L156.8438,26.8438 L159.3125,26.8438 L159.3125,29 L151.9219,29 L151.9219,26.8438 L154.3906,26.8438 L154.3906,18.7656 L151.9219,18.7656 Z " fill="#000000"/><text fill="#000000" font-family="sans-serif" font-size="12" font-style="italic" lengthAdjust="spacing" textLength="79" x="170" y="27.1543">NodeOptions</text><line style="stroke:#A80036;stroke-width:1.5;" x1="142" x2="251" y1="39" y2="39"/><ellipse cx="152" cy="50" rx="3" ry="3" style="stroke:#038048;stroke-width:1.0;fill:none;"/><text fill="#000000" font-family="sans-serif" font-size="11" lengthAdjust="spacing" textLength="77" x="161" y="53.2104">name : string</text><ellipse cx="152" cy="62.8047" rx="3" ry="3" style="stroke:#038048;stroke-width:1.0;fill:none;"/><text fill="#000000" font-family="sans-serif" font-size="11" lengthAdjust="spacing" textLength="62" x="161" y="66.0151">uid : string</text><!--MD5=[7f977e29ea97c8721704c7294b857227]
class MergeShapeOptions--><rect codeLine="14" fill="#FEFECE" filter="url(#f9nkaq5sm8lqg)" height="142.4375" id="MergeShapeOptions" style="stroke:#A80036;stroke-width:1.5;" width="157" x="7" y="271"/><ellipse cx="22" cy="287" fill="#B4A7E5" rx="11" ry="11" style="stroke:#A80036;stroke-width:1.0;"/><path d="M17.9219,282.7656 L17.9219,280.6094 L25.3125,280.6094 L25.3125,282.7656 L22.8438,282.7656 L22.8438,290.8438 L25.3125,290.8438 L25.3125,293 L17.9219,293 L17.9219,290.8438 L20.3906,290.8438 L20.3906,282.7656 L17.9219,282.7656 Z " fill="#000000"/><text fill="#000000" font-family="sans-serif" font-size="12" font-style="italic" lengthAdjust="spacing" textLength="125" x="36" y="291.1543">MergeShapeOptions</text><line style="stroke:#A80036;stroke-width:1.5;" x1="8" x2="163" y1="303" y2="303"/><ellipse cx="18" cy="314" rx="3" ry="3" style="stroke:#038048;stroke-width:1.0;fill:none;"/><text fill="#000000" font-family="sans-serif" font-size="11" lengthAdjust="spacing" textLength="130" x="27" y="317.2104">checkInterval : number</text><ellipse cx="18" cy="326.8047" rx="3" ry="3" style="stroke:#038048;stroke-width:1.0;fill:none;"/><text fill="#000000" font-family="sans-serif" font-size="11" lengthAdjust="spacing" textLength="121" x="27" y="330.0151">frameFilter : Function</text><ellipse cx="18" cy="339.6094" rx="3" ry="3" style="stroke:#038048;stroke-width:1.0;fill:none;"/><text fill="#000000" font-family="sans-serif" font-size="11" lengthAdjust="spacing" textLength="113" x="27" y="342.8198">maxCount : number</text><ellipse cx="18" cy="352.4141" rx="3" ry="3" style="stroke:#038048;stroke-width:1.0;fill:none;"/><text fill="#000000" font-family="sans-serif" font-size="11" lengthAdjust="spacing" textLength="110" x="27" y="355.6245">minCount : number</text><ellipse cx="18" cy="365.2188" rx="3" ry="3" style="stroke:#038048;stroke-width:1.0;fill:none;"/><text fill="#000000" font-family="sans-serif" font-size="11" lengthAdjust="spacing" textLength="77" x="27" y="368.4292">name : string</text><ellipse cx="18" cy="378.0234" rx="3" ry="3" style="stroke:#038048;stroke-width:1.0;fill:none;"/><text fill="#000000" font-family="sans-serif" font-size="11" lengthAdjust="spacing" textLength="99" x="27" y="381.2339">timeout : number</text><ellipse cx="18" cy="390.8281" rx="3" ry="3" style="stroke:#038048;stroke-width:1.0;fill:none;"/><text fill="#000000" font-family="sans-serif" font-size="11" lengthAdjust="spacing" textLength="127" x="27" y="394.0386">timeoutUnit : TimeUnit</text><ellipse cx="18" cy="403.6328" rx="3" ry="3" style="stroke:#038048;stroke-width:1.0;fill:none;"/><text fill="#000000" font-family="sans-serif" font-size="11" lengthAdjust="spacing" textLength="62" x="27" y="406.8433">uid : string</text><!--MD5=[b53bc0b3a71be57c62241e847c2a99d4]
class ObjectProcessingNodeOptions--><rect codeLine="25" fill="#FEFECE" filter="url(#f9nkaq5sm8lqg)" height="91.2188" id="ObjectProcessingNodeOptions" style="stroke:#A80036;stroke-width:1.5;" width="216" x="199.5" y="296.5"/><ellipse cx="214.5" cy="312.5" fill="#B4A7E5" rx="11" ry="11" style="stroke:#A80036;stroke-width:1.0;"/><path d="M210.4219,308.2656 L210.4219,306.1094 L217.8125,306.1094 L217.8125,308.2656 L215.3438,308.2656 L215.3438,316.3438 L217.8125,316.3438 L217.8125,318.5 L210.4219,318.5 L210.4219,316.3438 L212.8906,316.3438 L212.8906,308.2656 L210.4219,308.2656 Z " fill="#000000"/><text fill="#000000" font-family="sans-serif" font-size="12" font-style="italic" lengthAdjust="spacing" textLength="184" x="228.5" y="316.6543">ObjectProcessingNodeOptions</text><line style="stroke:#A80036;stroke-width:1.5;" x1="200.5" x2="414.5" y1="328.5" y2="328.5"/><ellipse cx="210.5" cy="339.5" rx="3" ry="3" style="stroke:#038048;stroke-width:1.0;fill:none;"/><text fill="#000000" font-family="sans-serif" font-size="11" lengthAdjust="spacing" textLength="121" x="219.5" y="342.7104">frameFilter : Function</text><ellipse cx="210.5" cy="352.3047" rx="3" ry="3" style="stroke:#038048;stroke-width:1.0;fill:none;"/><text fill="#000000" font-family="sans-serif" font-size="11" lengthAdjust="spacing" textLength="77" x="219.5" y="355.5151">name : string</text><ellipse cx="210.5" cy="365.1094" rx="3" ry="3" style="stroke:#038048;stroke-width:1.0;fill:none;"/><text fill="#000000" font-family="sans-serif" font-size="11" lengthAdjust="spacing" textLength="121" x="219.5" y="368.3198">objectFilter : Function</text><ellipse cx="210.5" cy="377.9141" rx="3" ry="3" style="stroke:#038048;stroke-width:1.0;fill:none;"/><text fill="#000000" font-family="sans-serif" font-size="11" lengthAdjust="spacing" textLength="62" x="219.5" y="381.1245">uid : string</text><!--MD5=[2939fe06d48eeea86f491218d2cd7cda]
reverse link NodeOptions to ProcessingNodeOptions--><path codeLine="13" d="M196.5,93.51 C196.5,106.64 196.5,120.47 196.5,132.76 " fill="none" id="NodeOptions-backto-ProcessingNodeOptions" style="stroke:#A80036;stroke-width:1.0;"/><polygon fill="none" points="189.5,93.13,196.5,73.13,203.5,93.13,189.5,93.13" style="stroke:#A80036;stroke-width:1.0;"/><!--MD5=[92995e265f0d5469e7a4e6a7d4042a05]
reverse link ProcessingNodeOptions to MergeShapeOptions--><path codeLine="24" d="M159.98,228.27 C150.96,241.92 141.18,256.73 131.76,270.98 " fill="none" id="ProcessingNodeOptions-backto-MergeShapeOptions" style="stroke:#A80036;stroke-width:1.0;"/><polygon fill="none" points="154.45,223.95,171.31,211.12,166.13,231.67,154.45,223.95" style="stroke:#A80036;stroke-width:1.0;"/><!--MD5=[cbb42a2b064200c86501b3f71f35c9d6]
reverse link ProcessingNodeOptions to ObjectProcessingNodeOptions--><path codeLine="31" d="M232.91,228.11 C247.56,250.28 264.23,275.51 278.09,296.49 " fill="none" id="ProcessingNodeOptions-backto-ObjectProcessingNodeOptions" style="stroke:#A80036;stroke-width:1.0;"/><polygon fill="none" points="226.87,231.67,221.69,211.12,238.55,223.95,226.87,231.67" style="stroke:#A80036;stroke-width:1.0;"/><!--MD5=[51f206dcd03187c13b11800b6abfb9a8]
@startuml
skinparam BackgroundColor transparent
hide empty methods
hide empty fields
interface "ProcessingNodeOptions" {
    +frameFilter : Function
    +name : string
    +uid : string
}
interface "NodeOptions" {
    +name : string
    +uid : string
}
"NodeOptions" <|- - "ProcessingNodeOptions"
interface "MergeShapeOptions" {
    +checkInterval : number
    +frameFilter : Function
    +maxCount : number
    +minCount : number
    +name : string
    +timeout : number
    +timeoutUnit : TimeUnit
    +uid : string
}
"ProcessingNodeOptions" <|- - "MergeShapeOptions"
interface "ObjectProcessingNodeOptions" {
    +frameFilter : Function
    +name : string
    +objectFilter : Function
    +uid : string
}
"ProcessingNodeOptions" <|- - "ObjectProcessingNodeOptions"
@enduml

PlantUML version 1.2021.14(Fri Nov 12 16:46:50 UTC 2021)
(GPL source distribution)
Java Runtime: OpenJDK Runtime Environment
JVM: OpenJDK 64-Bit Server VM
Default Encoding: UTF-8
Language: en
Country: null
--></g></svg>