<?xml version="1.0" encoding="UTF-8" standalone="no"?><svg xmlns="http://www.w3.org/2000/svg" xmlns:xlink="http://www.w3.org/1999/xlink" contentScriptType="application/ecmascript" contentStyleType="text/css" height="237px" preserveAspectRatio="none" style="width:1035px;height:237px;background:#00000000;" version="1.1" viewBox="0 0 1035 237" width="1035px" zoomAndPan="magnify"><defs><filter height="300%" id="f1lntc32tfagc" width="300%" x="-1" y="-1"><feGaussianBlur result="blurOut" stdDeviation="2.0"/><feColorMatrix in="blurOut" result="blurOut2" type="matrix" values="0 0 0 0 0 0 0 0 0 0 0 0 0 0 0 0 0 0 .4 0"/><feOffset dx="4.0" dy="4.0" in="blurOut2" result="blurOut3"/><feBlend in="SourceGraphic" in2="blurOut3" mode="normal"/></filter></defs><g><!--MD5=[5c1e6fce4365e56468cf60e0107291cc]
class PropertyFilterProcessingNode<InOut>--><rect codeLine="4" fill="#FEFECE" filter="url(#f1lntc32tfagc)" height="32" id="PropertyFilterProcessingNode&lt;InOut&gt;" style="stroke:#A80036;stroke-width:1.5;" width="268" x="384" y="99"/><ellipse cx="399" cy="115" fill="#A9DCDF" rx="11" ry="11" style="stroke:#A80036;stroke-width:1.0;"/><path d="M399.1094,110.3438 L397.9531,115.4219 L400.2813,115.4219 L399.1094,110.3438 Z M397.625,108.1094 L400.6094,108.1094 L403.9688,120.5 L401.5156,120.5 L400.75,117.4375 L397.4688,117.4375 L396.7188,120.5 L394.2813,120.5 L397.625,108.1094 Z " fill="#000000"/><text fill="#000000" font-family="sans-serif" font-size="12" font-style="italic" lengthAdjust="spacing" textLength="236" x="413" y="119.1543">PropertyFilterProcessingNode&lt;InOut&gt;</text><!--MD5=[9ac6b26c9c0951042fc71ef94bb46580]
class ObjectProcessingNode<InOut>--><rect codeLine="6" fill="#FEFECE" filter="url(#f1lntc32tfagc)" height="32" id="ObjectProcessingNode&lt;InOut&gt;" style="stroke:#A80036;stroke-width:1.5;" width="223" x="406.5" y="7"/><ellipse cx="421.5" cy="23" fill="#A9DCDF" rx="11" ry="11" style="stroke:#A80036;stroke-width:1.0;"/><path d="M421.6094,18.3438 L420.4531,23.4219 L422.7813,23.4219 L421.6094,18.3438 Z M420.125,16.1094 L423.1094,16.1094 L426.4688,28.5 L424.0156,28.5 L423.25,25.4375 L419.9688,25.4375 L419.2188,28.5 L416.7813,28.5 L420.125,16.1094 Z " fill="#000000"/><text fill="#000000" font-family="sans-serif" font-size="12" font-style="italic" lengthAdjust="spacing" textLength="191" x="435.5" y="27.1543">ObjectProcessingNode&lt;InOut&gt;</text><!--MD5=[a7de8954e936adfc73f7ef3c8b732e5a]
class KalmanFilterNode<InOut>--><rect codeLine="9" fill="#FEFECE" filter="url(#f1lntc32tfagc)" height="32" id="KalmanFilterNode&lt;InOut&gt;" style="stroke:#A80036;stroke-width:1.5;" width="194" x="7" y="191"/><ellipse cx="22" cy="207" fill="#ADD1B2" rx="11" ry="11" style="stroke:#A80036;stroke-width:1.0;"/><path d="M24.9688,212.6406 Q24.3906,212.9375 23.75,213.0781 Q23.1094,213.2344 22.4063,213.2344 Q19.9063,213.2344 18.5781,211.5938 Q17.2656,209.9375 17.2656,206.8125 Q17.2656,203.6875 18.5781,202.0313 Q19.9063,200.375 22.4063,200.375 Q23.1094,200.375 23.75,200.5313 Q24.4063,200.6875 24.9688,200.9844 L24.9688,203.7031 Q24.3438,203.125 23.75,202.8594 Q23.1563,202.5781 22.5313,202.5781 Q21.1875,202.5781 20.5,203.6563 Q19.8125,204.7188 19.8125,206.8125 Q19.8125,208.9063 20.5,209.9844 Q21.1875,211.0469 22.5313,211.0469 Q23.1563,211.0469 23.75,210.7813 Q24.3438,210.5 24.9688,209.9219 L24.9688,212.6406 Z " fill="#000000"/><text fill="#000000" font-family="sans-serif" font-size="12" lengthAdjust="spacing" textLength="162" x="36" y="211.1543">KalmanFilterNode&lt;InOut&gt;</text><!--MD5=[86f71cb2f02daa485184d203f554166a]
class LPFilterNode<InOut>--><rect codeLine="12" fill="#FEFECE" filter="url(#f1lntc32tfagc)" height="32" id="LPFilterNode&lt;InOut&gt;" style="stroke:#A80036;stroke-width:1.5;" width="163" x="236.5" y="191"/><ellipse cx="251.5" cy="207" fill="#ADD1B2" rx="11" ry="11" style="stroke:#A80036;stroke-width:1.0;"/><path d="M254.4688,212.6406 Q253.8906,212.9375 253.25,213.0781 Q252.6094,213.2344 251.9063,213.2344 Q249.4063,213.2344 248.0781,211.5938 Q246.7656,209.9375 246.7656,206.8125 Q246.7656,203.6875 248.0781,202.0313 Q249.4063,200.375 251.9063,200.375 Q252.6094,200.375 253.25,200.5313 Q253.9063,200.6875 254.4688,200.9844 L254.4688,203.7031 Q253.8438,203.125 253.25,202.8594 Q252.6563,202.5781 252.0313,202.5781 Q250.6875,202.5781 250,203.6563 Q249.3125,204.7188 249.3125,206.8125 Q249.3125,208.9063 250,209.9844 Q250.6875,211.0469 252.0313,211.0469 Q252.6563,211.0469 253.25,210.7813 Q253.8438,210.5 254.4688,209.9219 L254.4688,212.6406 Z " fill="#000000"/><text fill="#000000" font-family="sans-serif" font-size="12" lengthAdjust="spacing" textLength="131" x="265.5" y="211.1543">LPFilterNode&lt;InOut&gt;</text><!--MD5=[f9383396bd36b10a2a3661231da535e8]
class HPFilterNode<InOut>--><rect codeLine="15" fill="#FEFECE" filter="url(#f1lntc32tfagc)" height="32" id="HPFilterNode&lt;InOut&gt;" style="stroke:#A80036;stroke-width:1.5;" width="166" x="435" y="191"/><ellipse cx="450" cy="207" fill="#ADD1B2" rx="11" ry="11" style="stroke:#A80036;stroke-width:1.0;"/><path d="M452.9688,212.6406 Q452.3906,212.9375 451.75,213.0781 Q451.1094,213.2344 450.4063,213.2344 Q447.9063,213.2344 446.5781,211.5938 Q445.2656,209.9375 445.2656,206.8125 Q445.2656,203.6875 446.5781,202.0313 Q447.9063,200.375 450.4063,200.375 Q451.1094,200.375 451.75,200.5313 Q452.4063,200.6875 452.9688,200.9844 L452.9688,203.7031 Q452.3438,203.125 451.75,202.8594 Q451.1563,202.5781 450.5313,202.5781 Q449.1875,202.5781 448.5,203.6563 Q447.8125,204.7188 447.8125,206.8125 Q447.8125,208.9063 448.5,209.9844 Q449.1875,211.0469 450.5313,211.0469 Q451.1563,211.0469 451.75,210.7813 Q452.3438,210.5 452.9688,209.9219 L452.9688,212.6406 Z " fill="#000000"/><text fill="#000000" font-family="sans-serif" font-size="12" lengthAdjust="spacing" textLength="134" x="464" y="211.1543">HPFilterNode&lt;InOut&gt;</text><!--MD5=[45f43e91f53a759b1024bda2528f1dfb]
class SMAFilterNode<InOut>--><rect codeLine="18" fill="#FEFECE" filter="url(#f1lntc32tfagc)" height="32" id="SMAFilterNode&lt;InOut&gt;" style="stroke:#A80036;stroke-width:1.5;" width="175" x="636.5" y="191"/><ellipse cx="651.5" cy="207" fill="#ADD1B2" rx="11" ry="11" style="stroke:#A80036;stroke-width:1.0;"/><path d="M654.4688,212.6406 Q653.8906,212.9375 653.25,213.0781 Q652.6094,213.2344 651.9063,213.2344 Q649.4063,213.2344 648.0781,211.5938 Q646.7656,209.9375 646.7656,206.8125 Q646.7656,203.6875 648.0781,202.0313 Q649.4063,200.375 651.9063,200.375 Q652.6094,200.375 653.25,200.5313 Q653.9063,200.6875 654.4688,200.9844 L654.4688,203.7031 Q653.8438,203.125 653.25,202.8594 Q652.6563,202.5781 652.0313,202.5781 Q650.6875,202.5781 650,203.6563 Q649.3125,204.7188 649.3125,206.8125 Q649.3125,208.9063 650,209.9844 Q650.6875,211.0469 652.0313,211.0469 Q652.6563,211.0469 653.25,210.7813 Q653.8438,210.5 654.4688,209.9219 L654.4688,212.6406 Z " fill="#000000"/><text fill="#000000" font-family="sans-serif" font-size="12" lengthAdjust="spacing" textLength="143" x="665.5" y="211.1543">SMAFilterNode&lt;InOut&gt;</text><!--MD5=[e0499c8a5a139b56877d613ac551220a]
class EMAFilterNode<InOut>--><rect codeLine="21" fill="#FEFECE" filter="url(#f1lntc32tfagc)" height="32" id="EMAFilterNode&lt;InOut&gt;" style="stroke:#A80036;stroke-width:1.5;" width="175" x="846.5" y="191"/><ellipse cx="861.5" cy="207" fill="#ADD1B2" rx="11" ry="11" style="stroke:#A80036;stroke-width:1.0;"/><path d="M864.4688,212.6406 Q863.8906,212.9375 863.25,213.0781 Q862.6094,213.2344 861.9063,213.2344 Q859.4063,213.2344 858.0781,211.5938 Q856.7656,209.9375 856.7656,206.8125 Q856.7656,203.6875 858.0781,202.0313 Q859.4063,200.375 861.9063,200.375 Q862.6094,200.375 863.25,200.5313 Q863.9063,200.6875 864.4688,200.9844 L864.4688,203.7031 Q863.8438,203.125 863.25,202.8594 Q862.6563,202.5781 862.0313,202.5781 Q860.6875,202.5781 860,203.6563 Q859.3125,204.7188 859.3125,206.8125 Q859.3125,208.9063 860,209.9844 Q860.6875,211.0469 862.0313,211.0469 Q862.6563,211.0469 863.25,210.7813 Q863.8438,210.5 864.4688,209.9219 L864.4688,212.6406 Z " fill="#000000"/><text fill="#000000" font-family="sans-serif" font-size="12" lengthAdjust="spacing" textLength="143" x="875.5" y="211.1543">EMAFilterNode&lt;InOut&gt;</text><!--MD5=[a2bfc0801b07b258266f079173d6a1a0]
reverse link ObjectProcessingNode<InOut> to PropertyFilterProcessingNode<InOut>--><path codeLine="8" d="M518,59.61 C518,73.31 518,88.22 518,98.96 " fill="none" id="ObjectProcessingNode&lt;InOut&gt;-backto-PropertyFilterProcessingNode&lt;InOut&gt;" style="stroke:#A80036;stroke-width:1.0;"/><polygon fill="none" points="511,59.27,518,39.27,525,59.27,511,59.27" style="stroke:#A80036;stroke-width:1.0;"/><!--MD5=[e27baa27dcbf77b23c8d73bac5a8edaa]
reverse link PropertyFilterProcessingNode<InOut> to KalmanFilterNode<InOut>--><path codeLine="11" d="M428.99,135.35 C352.38,152 243.39,175.7 173.17,190.96 " fill="none" id="PropertyFilterProcessingNode&lt;InOut&gt;-backto-KalmanFilterNode&lt;InOut&gt;" style="stroke:#A80036;stroke-width:1.0;"/><polygon fill="none" points="427.68,128.47,448.71,131.06,430.65,142.15,427.68,128.47" style="stroke:#A80036;stroke-width:1.0;"/><!--MD5=[3980218a9996c7d611d31124d6bb0003]
reverse link PropertyFilterProcessingNode<InOut> to LPFilterNode<InOut>--><path codeLine="14" d="M466.27,139.28 C430.12,155.54 382.92,176.79 351.58,190.89 " fill="none" id="PropertyFilterProcessingNode&lt;InOut&gt;-backto-LPFilterNode&lt;InOut&gt;" style="stroke:#A80036;stroke-width:1.0;"/><polygon fill="none" points="463.41,132.89,484.52,131.06,469.16,145.65,463.41,132.89" style="stroke:#A80036;stroke-width:1.0;"/><!--MD5=[df71bc5f09bee4309ab74605dc8dce0f]
reverse link PropertyFilterProcessingNode<InOut> to HPFilterNode<InOut>--><path codeLine="17" d="M518,151.61 C518,165.31 518,180.22 518,190.96 " fill="none" id="PropertyFilterProcessingNode&lt;InOut&gt;-backto-HPFilterNode&lt;InOut&gt;" style="stroke:#A80036;stroke-width:1.0;"/><polygon fill="none" points="511,151.27,518,131.27,525,151.27,511,151.27" style="stroke:#A80036;stroke-width:1.0;"/><!--MD5=[69dda514f194b40aa66cd3c4ef63f9e5]
reverse link PropertyFilterProcessingNode<InOut> to SMAFilterNode<InOut>--><path codeLine="20" d="M571.03,139.17 C608.29,155.45 657.06,176.76 689.41,190.89 " fill="none" id="PropertyFilterProcessingNode&lt;InOut&gt;-backto-SMAFilterNode&lt;InOut&gt;" style="stroke:#A80036;stroke-width:1.0;"/><polygon fill="none" points="568,145.49,552.48,131.06,573.61,132.66,568,145.49" style="stroke:#A80036;stroke-width:1.0;"/><!--MD5=[df01c51bd2cbc1d688585763a5ff8bd8]
reverse link PropertyFilterProcessingNode<InOut> to EMAFilterNode<InOut>--><path codeLine="23" d="M607.44,135.35 C684.42,152 793.94,175.7 864.49,190.96 " fill="none" id="PropertyFilterProcessingNode&lt;InOut&gt;-backto-EMAFilterNode&lt;InOut&gt;" style="stroke:#A80036;stroke-width:1.0;"/><polygon fill="none" points="605.7,142.13,587.63,131.06,608.66,128.45,605.7,142.13" style="stroke:#A80036;stroke-width:1.0;"/><!--MD5=[5cc18b84483e54bf434272105687d364]
@startuml
skinparam BackgroundColor transparent
hide empty methods
hide empty fields
abstract class "PropertyFilterProcessingNode<InOut>" {
}
abstract class "ObjectProcessingNode<InOut>" {
}
"ObjectProcessingNode<InOut>" <|- - "PropertyFilterProcessingNode<InOut>"
class "KalmanFilterNode<InOut>" {
}
"PropertyFilterProcessingNode<InOut>" <|- - "KalmanFilterNode<InOut>"
class "LPFilterNode<InOut>" {
}
"PropertyFilterProcessingNode<InOut>" <|- - "LPFilterNode<InOut>"
class "HPFilterNode<InOut>" {
}
"PropertyFilterProcessingNode<InOut>" <|- - "HPFilterNode<InOut>"
class "SMAFilterNode<InOut>" {
}
"PropertyFilterProcessingNode<InOut>" <|- - "SMAFilterNode<InOut>"
class "EMAFilterNode<InOut>" {
}
"PropertyFilterProcessingNode<InOut>" <|- - "EMAFilterNode<InOut>"
@enduml

PlantUML version 1.2021.14(Fri Nov 12 16:46:50 UTC 2021)
(GPL source distribution)
Java Runtime: OpenJDK Runtime Environment
JVM: OpenJDK 64-Bit Server VM
Default Encoding: UTF-8
Language: en
Country: null
--></g></svg>