<?xml version="1.0" encoding="UTF-8" standalone="no"?><svg xmlns="http://www.w3.org/2000/svg" xmlns:xlink="http://www.w3.org/1999/xlink" contentScriptType="application/ecmascript" contentStyleType="text/css" height="237px" preserveAspectRatio="none" style="width:1005px;height:237px;background:#00000000;" version="1.1" viewBox="0 0 1005 237" width="1005px" zoomAndPan="magnify"><defs><filter height="300%" id="f16rxik7dz6kuk" width="300%" x="-1" y="-1"><feGaussianBlur result="blurOut" stdDeviation="2.0"/><feColorMatrix in="blurOut" result="blurOut2" type="matrix" values="0 0 0 0 0 0 0 0 0 0 0 0 0 0 0 0 0 0 .4 0"/><feOffset dx="4.0" dy="4.0" in="blurOut2" result="blurOut3"/><feBlend in="SourceGraphic" in2="blurOut3" mode="normal"/></filter></defs><g><!--MD5=[5c1e6fce4365e56468cf60e0107291cc]
class PropertyFilterProcessingNode<InOut>--><rect codeLine="4" fill="#FEFECE" filter="url(#f16rxik7dz6kuk)" height="32" id="PropertyFilterProcessingNode&lt;InOut&gt;" style="stroke:#A80036;stroke-width:1.5;" width="268" x="354" y="99"/><ellipse cx="369" cy="115" fill="#A9DCDF" rx="11" ry="11" style="stroke:#A80036;stroke-width:1.0;"/><path d="M369.1094,110.3438 L367.9531,115.4219 L370.2813,115.4219 L369.1094,110.3438 Z M367.625,108.1094 L370.6094,108.1094 L373.9688,120.5 L371.5156,120.5 L370.75,117.4375 L367.4688,117.4375 L366.7188,120.5 L364.2813,120.5 L367.625,108.1094 Z " fill="#000000"/><text fill="#000000" font-family="sans-serif" font-size="12" font-style="italic" lengthAdjust="spacing" textLength="236" x="383" y="119.1543">PropertyFilterProcessingNode&lt;InOut&gt;</text><!--MD5=[9ac6b26c9c0951042fc71ef94bb46580]
class ObjectProcessingNode<InOut>--><rect codeLine="6" fill="#FEFECE" filter="url(#f16rxik7dz6kuk)" height="32" id="ObjectProcessingNode&lt;InOut&gt;" style="stroke:#A80036;stroke-width:1.5;" width="223" x="376.5" y="7"/><ellipse cx="391.5" cy="23" fill="#A9DCDF" rx="11" ry="11" style="stroke:#A80036;stroke-width:1.0;"/><path d="M391.6094,18.3438 L390.4531,23.4219 L392.7813,23.4219 L391.6094,18.3438 Z M390.125,16.1094 L393.1094,16.1094 L396.4688,28.5 L394.0156,28.5 L393.25,25.4375 L389.9688,25.4375 L389.2188,28.5 L386.7813,28.5 L390.125,16.1094 Z " fill="#000000"/><text fill="#000000" font-family="sans-serif" font-size="12" font-style="italic" lengthAdjust="spacing" textLength="191" x="405.5" y="27.1543">ObjectProcessingNode&lt;InOut&gt;</text><!--MD5=[04136766ff0befd35071916e913a5e97]
class BKFilterNode<InOut>--><rect codeLine="9" fill="#FEFECE" filter="url(#f16rxik7dz6kuk)" height="32" id="BKFilterNode&lt;InOut&gt;" style="stroke:#A80036;stroke-width:1.5;" width="164" x="7" y="191"/><ellipse cx="22" cy="207" fill="#ADD1B2" rx="11" ry="11" style="stroke:#A80036;stroke-width:1.0;"/><path d="M24.9688,212.6406 Q24.3906,212.9375 23.75,213.0781 Q23.1094,213.2344 22.4063,213.2344 Q19.9063,213.2344 18.5781,211.5938 Q17.2656,209.9375 17.2656,206.8125 Q17.2656,203.6875 18.5781,202.0313 Q19.9063,200.375 22.4063,200.375 Q23.1094,200.375 23.75,200.5313 Q24.4063,200.6875 24.9688,200.9844 L24.9688,203.7031 Q24.3438,203.125 23.75,202.8594 Q23.1563,202.5781 22.5313,202.5781 Q21.1875,202.5781 20.5,203.6563 Q19.8125,204.7188 19.8125,206.8125 Q19.8125,208.9063 20.5,209.9844 Q21.1875,211.0469 22.5313,211.0469 Q23.1563,211.0469 23.75,210.7813 Q24.3438,210.5 24.9688,209.9219 L24.9688,212.6406 Z " fill="#000000"/><text fill="#000000" font-family="sans-serif" font-size="12" lengthAdjust="spacing" textLength="132" x="36" y="211.1543">BKFilterNode&lt;InOut&gt;</text><!--MD5=[86f71cb2f02daa485184d203f554166a]
class LPFilterNode<InOut>--><rect codeLine="12" fill="#FEFECE" filter="url(#f16rxik7dz6kuk)" height="32" id="LPFilterNode&lt;InOut&gt;" style="stroke:#A80036;stroke-width:1.5;" width="163" x="206.5" y="191"/><ellipse cx="221.5" cy="207" fill="#ADD1B2" rx="11" ry="11" style="stroke:#A80036;stroke-width:1.0;"/><path d="M224.4688,212.6406 Q223.8906,212.9375 223.25,213.0781 Q222.6094,213.2344 221.9063,213.2344 Q219.4063,213.2344 218.0781,211.5938 Q216.7656,209.9375 216.7656,206.8125 Q216.7656,203.6875 218.0781,202.0313 Q219.4063,200.375 221.9063,200.375 Q222.6094,200.375 223.25,200.5313 Q223.9063,200.6875 224.4688,200.9844 L224.4688,203.7031 Q223.8438,203.125 223.25,202.8594 Q222.6563,202.5781 222.0313,202.5781 Q220.6875,202.5781 220,203.6563 Q219.3125,204.7188 219.3125,206.8125 Q219.3125,208.9063 220,209.9844 Q220.6875,211.0469 222.0313,211.0469 Q222.6563,211.0469 223.25,210.7813 Q223.8438,210.5 224.4688,209.9219 L224.4688,212.6406 Z " fill="#000000"/><text fill="#000000" font-family="sans-serif" font-size="12" lengthAdjust="spacing" textLength="131" x="235.5" y="211.1543">LPFilterNode&lt;InOut&gt;</text><!--MD5=[f9383396bd36b10a2a3661231da535e8]
class HPFilterNode<InOut>--><rect codeLine="15" fill="#FEFECE" filter="url(#f16rxik7dz6kuk)" height="32" id="HPFilterNode&lt;InOut&gt;" style="stroke:#A80036;stroke-width:1.5;" width="166" x="405" y="191"/><ellipse cx="420" cy="207" fill="#ADD1B2" rx="11" ry="11" style="stroke:#A80036;stroke-width:1.0;"/><path d="M422.9688,212.6406 Q422.3906,212.9375 421.75,213.0781 Q421.1094,213.2344 420.4063,213.2344 Q417.9063,213.2344 416.5781,211.5938 Q415.2656,209.9375 415.2656,206.8125 Q415.2656,203.6875 416.5781,202.0313 Q417.9063,200.375 420.4063,200.375 Q421.1094,200.375 421.75,200.5313 Q422.4063,200.6875 422.9688,200.9844 L422.9688,203.7031 Q422.3438,203.125 421.75,202.8594 Q421.1563,202.5781 420.5313,202.5781 Q419.1875,202.5781 418.5,203.6563 Q417.8125,204.7188 417.8125,206.8125 Q417.8125,208.9063 418.5,209.9844 Q419.1875,211.0469 420.5313,211.0469 Q421.1563,211.0469 421.75,210.7813 Q422.3438,210.5 422.9688,209.9219 L422.9688,212.6406 Z " fill="#000000"/><text fill="#000000" font-family="sans-serif" font-size="12" lengthAdjust="spacing" textLength="134" x="434" y="211.1543">HPFilterNode&lt;InOut&gt;</text><!--MD5=[45f43e91f53a759b1024bda2528f1dfb]
class SMAFilterNode<InOut>--><rect codeLine="18" fill="#FEFECE" filter="url(#f16rxik7dz6kuk)" height="32" id="SMAFilterNode&lt;InOut&gt;" style="stroke:#A80036;stroke-width:1.5;" width="175" x="606.5" y="191"/><ellipse cx="621.5" cy="207" fill="#ADD1B2" rx="11" ry="11" style="stroke:#A80036;stroke-width:1.0;"/><path d="M624.4688,212.6406 Q623.8906,212.9375 623.25,213.0781 Q622.6094,213.2344 621.9063,213.2344 Q619.4063,213.2344 618.0781,211.5938 Q616.7656,209.9375 616.7656,206.8125 Q616.7656,203.6875 618.0781,202.0313 Q619.4063,200.375 621.9063,200.375 Q622.6094,200.375 623.25,200.5313 Q623.9063,200.6875 624.4688,200.9844 L624.4688,203.7031 Q623.8438,203.125 623.25,202.8594 Q622.6563,202.5781 622.0313,202.5781 Q620.6875,202.5781 620,203.6563 Q619.3125,204.7188 619.3125,206.8125 Q619.3125,208.9063 620,209.9844 Q620.6875,211.0469 622.0313,211.0469 Q622.6563,211.0469 623.25,210.7813 Q623.8438,210.5 624.4688,209.9219 L624.4688,212.6406 Z " fill="#000000"/><text fill="#000000" font-family="sans-serif" font-size="12" lengthAdjust="spacing" textLength="143" x="635.5" y="211.1543">SMAFilterNode&lt;InOut&gt;</text><!--MD5=[e0499c8a5a139b56877d613ac551220a]
class EMAFilterNode<InOut>--><rect codeLine="21" fill="#FEFECE" filter="url(#f16rxik7dz6kuk)" height="32" id="EMAFilterNode&lt;InOut&gt;" style="stroke:#A80036;stroke-width:1.5;" width="175" x="816.5" y="191"/><ellipse cx="831.5" cy="207" fill="#ADD1B2" rx="11" ry="11" style="stroke:#A80036;stroke-width:1.0;"/><path d="M834.4688,212.6406 Q833.8906,212.9375 833.25,213.0781 Q832.6094,213.2344 831.9063,213.2344 Q829.4063,213.2344 828.0781,211.5938 Q826.7656,209.9375 826.7656,206.8125 Q826.7656,203.6875 828.0781,202.0313 Q829.4063,200.375 831.9063,200.375 Q832.6094,200.375 833.25,200.5313 Q833.9063,200.6875 834.4688,200.9844 L834.4688,203.7031 Q833.8438,203.125 833.25,202.8594 Q832.6563,202.5781 832.0313,202.5781 Q830.6875,202.5781 830,203.6563 Q829.3125,204.7188 829.3125,206.8125 Q829.3125,208.9063 830,209.9844 Q830.6875,211.0469 832.0313,211.0469 Q832.6563,211.0469 833.25,210.7813 Q833.8438,210.5 834.4688,209.9219 L834.4688,212.6406 Z " fill="#000000"/><text fill="#000000" font-family="sans-serif" font-size="12" lengthAdjust="spacing" textLength="143" x="845.5" y="211.1543">EMAFilterNode&lt;InOut&gt;</text><!--MD5=[a2bfc0801b07b258266f079173d6a1a0]
reverse link ObjectProcessingNode<InOut> to PropertyFilterProcessingNode<InOut>--><path codeLine="8" d="M488,59.61 C488,73.31 488,88.22 488,98.96 " fill="none" id="ObjectProcessingNode&lt;InOut&gt;-backto-PropertyFilterProcessingNode&lt;InOut&gt;" style="stroke:#A80036;stroke-width:1.0;"/><polygon fill="none" points="481,59.27,488,39.27,495,59.27,481,59.27" style="stroke:#A80036;stroke-width:1.0;"/><!--MD5=[53d5aee9eb855f924fa3196a138aab70]
reverse link PropertyFilterProcessingNode<InOut> to BKFilterNode<InOut>--><path codeLine="11" d="M401.27,135.56 C327.49,152.21 223.05,175.76 155.67,190.96 " fill="none" id="PropertyFilterProcessingNode&lt;InOut&gt;-backto-BKFilterNode&lt;InOut&gt;" style="stroke:#A80036;stroke-width:1.0;"/><polygon fill="none" points="400.17,128.64,421.22,131.06,403.25,142.29,400.17,128.64" style="stroke:#A80036;stroke-width:1.0;"/><!--MD5=[3980218a9996c7d611d31124d6bb0003]
reverse link PropertyFilterProcessingNode<InOut> to LPFilterNode<InOut>--><path codeLine="14" d="M436.27,139.28 C400.12,155.54 352.92,176.79 321.58,190.89 " fill="none" id="PropertyFilterProcessingNode&lt;InOut&gt;-backto-LPFilterNode&lt;InOut&gt;" style="stroke:#A80036;stroke-width:1.0;"/><polygon fill="none" points="433.41,132.89,454.52,131.06,439.16,145.65,433.41,132.89" style="stroke:#A80036;stroke-width:1.0;"/><!--MD5=[df71bc5f09bee4309ab74605dc8dce0f]
reverse link PropertyFilterProcessingNode<InOut> to HPFilterNode<InOut>--><path codeLine="17" d="M488,151.61 C488,165.31 488,180.22 488,190.96 " fill="none" id="PropertyFilterProcessingNode&lt;InOut&gt;-backto-HPFilterNode&lt;InOut&gt;" style="stroke:#A80036;stroke-width:1.0;"/><polygon fill="none" points="481,151.27,488,131.27,495,151.27,481,151.27" style="stroke:#A80036;stroke-width:1.0;"/><!--MD5=[69dda514f194b40aa66cd3c4ef63f9e5]
reverse link PropertyFilterProcessingNode<InOut> to SMAFilterNode<InOut>--><path codeLine="20" d="M541.03,139.17 C578.29,155.45 627.06,176.76 659.41,190.89 " fill="none" id="PropertyFilterProcessingNode&lt;InOut&gt;-backto-SMAFilterNode&lt;InOut&gt;" style="stroke:#A80036;stroke-width:1.0;"/><polygon fill="none" points="538,145.49,522.48,131.06,543.61,132.66,538,145.49" style="stroke:#A80036;stroke-width:1.0;"/><!--MD5=[df01c51bd2cbc1d688585763a5ff8bd8]
reverse link PropertyFilterProcessingNode<InOut> to EMAFilterNode<InOut>--><path codeLine="23" d="M577.44,135.35 C654.42,152 763.94,175.7 834.49,190.96 " fill="none" id="PropertyFilterProcessingNode&lt;InOut&gt;-backto-EMAFilterNode&lt;InOut&gt;" style="stroke:#A80036;stroke-width:1.0;"/><polygon fill="none" points="575.7,142.13,557.63,131.06,578.66,128.45,575.7,142.13" style="stroke:#A80036;stroke-width:1.0;"/><!--MD5=[d1526656c6b29ea4adfad0a452b5a9f5]
@startuml
skinparam BackgroundColor transparent
hide empty methods
hide empty fields
abstract class "PropertyFilterProcessingNode<InOut>" {
}
abstract class "ObjectProcessingNode<InOut>" {
}
"ObjectProcessingNode<InOut>" <|- - "PropertyFilterProcessingNode<InOut>"
class "BKFilterNode<InOut>" {
}
"PropertyFilterProcessingNode<InOut>" <|- - "BKFilterNode<InOut>"
class "LPFilterNode<InOut>" {
}
"PropertyFilterProcessingNode<InOut>" <|- - "LPFilterNode<InOut>"
class "HPFilterNode<InOut>" {
}
"PropertyFilterProcessingNode<InOut>" <|- - "HPFilterNode<InOut>"
class "SMAFilterNode<InOut>" {
}
"PropertyFilterProcessingNode<InOut>" <|- - "SMAFilterNode<InOut>"
class "EMAFilterNode<InOut>" {
}
"PropertyFilterProcessingNode<InOut>" <|- - "EMAFilterNode<InOut>"
@enduml

PlantUML version 1.2021.14(Fri Nov 12 16:46:50 UTC 2021)
(GPL source distribution)
Java Runtime: OpenJDK Runtime Environment
JVM: OpenJDK 64-Bit Server VM
Default Encoding: UTF-8
Language: en
Country: null
--></g></svg>