<?xml version="1.0" encoding="us-ascii" standalone="no"?><svg xmlns="http://www.w3.org/2000/svg" xmlns:xlink="http://www.w3.org/1999/xlink" contentStyleType="text/css" height="230px" preserveAspectRatio="none" style="width:1115px;height:230px;" version="1.1" viewBox="0 0 1115 230" width="1115px" zoomAndPan="magnify"><defs/><g><!--class PropertyFilterProcessingNode<InOut>--><g id="elem_PropertyFilterProcessingNode&lt;InOut&gt;"><rect codeLine="4" fill="#F1F1F1" height="32" id="PropertyFilterProcessingNode&lt;InOut&gt;" rx="2.5" ry="2.5" style="stroke:#181818;stroke-width:0.5;" width="297" x="412" y="99"/><ellipse cx="427" cy="115" fill="#A9DCDF" rx="11" ry="11" style="stroke:#181818;stroke-width:1.0;"/><path d="M427.1094,110.3438 L425.9531,115.4219 L428.2813,115.4219 L427.1094,110.3438 Z M425.625,108.1094 L428.6094,108.1094 L431.9688,120.5 L429.5156,120.5 L428.75,117.4375 L425.4688,117.4375 L424.7188,120.5 L422.2813,120.5 L425.625,108.1094 Z " fill="#000000"/><text fill="#000000" font-family="sans-serif" font-size="14" font-style="italic" lengthAdjust="spacing" textLength="265" x="441" y="119.8467">PropertyFilterProcessingNode&lt;InOut&gt;</text></g><!--class ObjectProcessingNode<InOut>--><g id="elem_ObjectProcessingNode&lt;InOut&gt;"><rect codeLine="6" fill="#F1F1F1" height="32" id="ObjectProcessingNode&lt;InOut&gt;" rx="2.5" ry="2.5" style="stroke:#181818;stroke-width:0.5;" width="251" x="435" y="7"/><ellipse cx="450" cy="23" fill="#A9DCDF" rx="11" ry="11" style="stroke:#181818;stroke-width:1.0;"/><path d="M450.1094,18.3438 L448.9531,23.4219 L451.2813,23.4219 L450.1094,18.3438 Z M448.625,16.1094 L451.6094,16.1094 L454.9688,28.5 L452.5156,28.5 L451.75,25.4375 L448.4688,25.4375 L447.7188,28.5 L445.2813,28.5 L448.625,16.1094 Z " fill="#000000"/><text fill="#000000" font-family="sans-serif" font-size="14" font-style="italic" lengthAdjust="spacing" textLength="219" x="464" y="27.8467">ObjectProcessingNode&lt;InOut&gt;</text></g><!--class KalmanFilterNode<InOut>--><g id="elem_KalmanFilterNode&lt;InOut&gt;"><rect codeLine="9" fill="#F1F1F1" height="32" id="KalmanFilterNode&lt;InOut&gt;" rx="2.5" ry="2.5" style="stroke:#181818;stroke-width:0.5;" width="213" x="7" y="191"/><ellipse cx="22" cy="207" fill="#ADD1B2" rx="11" ry="11" style="stroke:#181818;stroke-width:1.0;"/><path d="M24.9688,212.6406 Q24.3906,212.9375 23.75,213.0781 Q23.1094,213.2344 22.4063,213.2344 Q19.9063,213.2344 18.5781,211.5938 Q17.2656,209.9375 17.2656,206.8125 Q17.2656,203.6875 18.5781,202.0313 Q19.9063,200.375 22.4063,200.375 Q23.1094,200.375 23.75,200.5313 Q24.4063,200.6875 24.9688,200.9844 L24.9688,203.7031 Q24.3438,203.125 23.75,202.8594 Q23.1563,202.5781 22.5313,202.5781 Q21.1875,202.5781 20.5,203.6563 Q19.8125,204.7188 19.8125,206.8125 Q19.8125,208.9063 20.5,209.9844 Q21.1875,211.0469 22.5313,211.0469 Q23.1563,211.0469 23.75,210.7813 Q24.3438,210.5 24.9688,209.9219 L24.9688,212.6406 Z " fill="#000000"/><text fill="#000000" font-family="sans-serif" font-size="14" lengthAdjust="spacing" textLength="181" x="36" y="211.8467">KalmanFilterNode&lt;InOut&gt;</text></g><!--class LPFilterNode<InOut>--><g id="elem_LPFilterNode&lt;InOut&gt;"><rect codeLine="12" fill="#F1F1F1" height="32" id="LPFilterNode&lt;InOut&gt;" rx="2.5" ry="2.5" style="stroke:#181818;stroke-width:0.5;" width="179" x="255" y="191"/><ellipse cx="270" cy="207" fill="#ADD1B2" rx="11" ry="11" style="stroke:#181818;stroke-width:1.0;"/><path d="M272.9688,212.6406 Q272.3906,212.9375 271.75,213.0781 Q271.1094,213.2344 270.4063,213.2344 Q267.9063,213.2344 266.5781,211.5938 Q265.2656,209.9375 265.2656,206.8125 Q265.2656,203.6875 266.5781,202.0313 Q267.9063,200.375 270.4063,200.375 Q271.1094,200.375 271.75,200.5313 Q272.4063,200.6875 272.9688,200.9844 L272.9688,203.7031 Q272.3438,203.125 271.75,202.8594 Q271.1563,202.5781 270.5313,202.5781 Q269.1875,202.5781 268.5,203.6563 Q267.8125,204.7188 267.8125,206.8125 Q267.8125,208.9063 268.5,209.9844 Q269.1875,211.0469 270.5313,211.0469 Q271.1563,211.0469 271.75,210.7813 Q272.3438,210.5 272.9688,209.9219 L272.9688,212.6406 Z " fill="#000000"/><text fill="#000000" font-family="sans-serif" font-size="14" lengthAdjust="spacing" textLength="147" x="284" y="211.8467">LPFilterNode&lt;InOut&gt;</text></g><!--class HPFilterNode<InOut>--><g id="elem_HPFilterNode&lt;InOut&gt;"><rect codeLine="15" fill="#F1F1F1" height="32" id="HPFilterNode&lt;InOut&gt;" rx="2.5" ry="2.5" style="stroke:#181818;stroke-width:0.5;" width="182" x="469.5" y="191"/><ellipse cx="484.5" cy="207" fill="#ADD1B2" rx="11" ry="11" style="stroke:#181818;stroke-width:1.0;"/><path d="M487.4688,212.6406 Q486.8906,212.9375 486.25,213.0781 Q485.6094,213.2344 484.9063,213.2344 Q482.4063,213.2344 481.0781,211.5938 Q479.7656,209.9375 479.7656,206.8125 Q479.7656,203.6875 481.0781,202.0313 Q482.4063,200.375 484.9063,200.375 Q485.6094,200.375 486.25,200.5313 Q486.9063,200.6875 487.4688,200.9844 L487.4688,203.7031 Q486.8438,203.125 486.25,202.8594 Q485.6563,202.5781 485.0313,202.5781 Q483.6875,202.5781 483,203.6563 Q482.3125,204.7188 482.3125,206.8125 Q482.3125,208.9063 483,209.9844 Q483.6875,211.0469 485.0313,211.0469 Q485.6563,211.0469 486.25,210.7813 Q486.8438,210.5 487.4688,209.9219 L487.4688,212.6406 Z " fill="#000000"/><text fill="#000000" font-family="sans-serif" font-size="14" lengthAdjust="spacing" textLength="150" x="498.5" y="211.8467">HPFilterNode&lt;InOut&gt;</text></g><!--class SMAFilterNode<InOut>--><g id="elem_SMAFilterNode&lt;InOut&gt;"><rect codeLine="18" fill="#F1F1F1" height="32" id="SMAFilterNode&lt;InOut&gt;" rx="2.5" ry="2.5" style="stroke:#181818;stroke-width:0.5;" width="193" x="687" y="191"/><ellipse cx="702" cy="207" fill="#ADD1B2" rx="11" ry="11" style="stroke:#181818;stroke-width:1.0;"/><path d="M704.9688,212.6406 Q704.3906,212.9375 703.75,213.0781 Q703.1094,213.2344 702.4063,213.2344 Q699.9063,213.2344 698.5781,211.5938 Q697.2656,209.9375 697.2656,206.8125 Q697.2656,203.6875 698.5781,202.0313 Q699.9063,200.375 702.4063,200.375 Q703.1094,200.375 703.75,200.5313 Q704.4063,200.6875 704.9688,200.9844 L704.9688,203.7031 Q704.3438,203.125 703.75,202.8594 Q703.1563,202.5781 702.5313,202.5781 Q701.1875,202.5781 700.5,203.6563 Q699.8125,204.7188 699.8125,206.8125 Q699.8125,208.9063 700.5,209.9844 Q701.1875,211.0469 702.5313,211.0469 Q703.1563,211.0469 703.75,210.7813 Q704.3438,210.5 704.9688,209.9219 L704.9688,212.6406 Z " fill="#000000"/><text fill="#000000" font-family="sans-serif" font-size="14" lengthAdjust="spacing" textLength="161" x="716" y="211.8467">SMAFilterNode&lt;InOut&gt;</text></g><!--class EMAFilterNode<InOut>--><g id="elem_EMAFilterNode&lt;InOut&gt;"><rect codeLine="21" fill="#F1F1F1" height="32" id="EMAFilterNode&lt;InOut&gt;" rx="2.5" ry="2.5" style="stroke:#181818;stroke-width:0.5;" width="193" x="915" y="191"/><ellipse cx="930" cy="207" fill="#ADD1B2" rx="11" ry="11" style="stroke:#181818;stroke-width:1.0;"/><path d="M932.9688,212.6406 Q932.3906,212.9375 931.75,213.0781 Q931.1094,213.2344 930.4063,213.2344 Q927.9063,213.2344 926.5781,211.5938 Q925.2656,209.9375 925.2656,206.8125 Q925.2656,203.6875 926.5781,202.0313 Q927.9063,200.375 930.4063,200.375 Q931.1094,200.375 931.75,200.5313 Q932.4063,200.6875 932.9688,200.9844 L932.9688,203.7031 Q932.3438,203.125 931.75,202.8594 Q931.1563,202.5781 930.5313,202.5781 Q929.1875,202.5781 928.5,203.6563 Q927.8125,204.7188 927.8125,206.8125 Q927.8125,208.9063 928.5,209.9844 Q929.1875,211.0469 930.5313,211.0469 Q931.1563,211.0469 931.75,210.7813 Q932.3438,210.5 932.9688,209.9219 L932.9688,212.6406 Z " fill="#000000"/><text fill="#000000" font-family="sans-serif" font-size="14" lengthAdjust="spacing" textLength="161" x="944" y="211.8467">EMAFilterNode&lt;InOut&gt;</text></g><!--reverse link ObjectProcessingNode<InOut> to PropertyFilterProcessingNode<InOut>--><g id="link_ObjectProcessingNode&lt;InOut&gt;_PropertyFilterProcessingNode&lt;InOut&gt;"><path codeLine="8" d="M560.5,59.61 C560.5,73.31 560.5,88.22 560.5,98.96 " fill="none" id="ObjectProcessingNode&lt;InOut&gt;-backto-PropertyFilterProcessingNode&lt;InOut&gt;" style="stroke:#181818;stroke-width:1.0;"/><polygon fill="none" points="553.5,59.27,560.5,39.27,567.5,59.27,553.5,59.27" style="stroke:#181818;stroke-width:1.0;"/></g><!--reverse link PropertyFilterProcessingNode<InOut> to KalmanFilterNode<InOut>--><g id="link_PropertyFilterProcessingNode&lt;InOut&gt;_KalmanFilterNode&lt;InOut&gt;"><path codeLine="11" d="M466.24,134.98 C383.46,151.65 264.66,175.57 188.28,190.94 " fill="none" id="PropertyFilterProcessingNode&lt;InOut&gt;-backto-KalmanFilterNode&lt;InOut&gt;" style="stroke:#181818;stroke-width:1.0;"/><polygon fill="none" points="464.95,128.1,485.93,131.01,467.71,141.82,464.95,128.1" style="stroke:#181818;stroke-width:1.0;"/></g><!--reverse link PropertyFilterProcessingNode<InOut> to LPFilterNode<InOut>--><g id="link_PropertyFilterProcessingNode&lt;InOut&gt;_LPFilterNode&lt;InOut&gt;"><path codeLine="14" d="M505.7,138.83 C466.54,155.15 414.92,176.66 380.77,190.89 " fill="none" id="PropertyFilterProcessingNode&lt;InOut&gt;-backto-LPFilterNode&lt;InOut&gt;" style="stroke:#181818;stroke-width:1.0;"/><polygon fill="none" points="503.19,132.29,524.35,131.06,508.58,145.22,503.19,132.29" style="stroke:#181818;stroke-width:1.0;"/></g><!--reverse link PropertyFilterProcessingNode<InOut> to HPFilterNode<InOut>--><g id="link_PropertyFilterProcessingNode&lt;InOut&gt;_HPFilterNode&lt;InOut&gt;"><path codeLine="17" d="M560.5,151.61 C560.5,165.31 560.5,180.22 560.5,190.96 " fill="none" id="PropertyFilterProcessingNode&lt;InOut&gt;-backto-HPFilterNode&lt;InOut&gt;" style="stroke:#181818;stroke-width:1.0;"/><polygon fill="none" points="553.5,151.27,560.5,131.27,567.5,151.27,553.5,151.27" style="stroke:#181818;stroke-width:1.0;"/></g><!--reverse link PropertyFilterProcessingNode<InOut> to SMAFilterNode<InOut>--><g id="link_PropertyFilterProcessingNode&lt;InOut&gt;_SMAFilterNode&lt;InOut&gt;"><path codeLine="20" d="M616.52,138.61 C657.02,154.96 710.64,176.59 746.05,190.89 " fill="none" id="PropertyFilterProcessingNode&lt;InOut&gt;-backto-SMAFilterNode&lt;InOut&gt;" style="stroke:#181818;stroke-width:1.0;"/><polygon fill="none" points="613.75,145.04,597.83,131.06,618.99,132.06,613.75,145.04" style="stroke:#181818;stroke-width:1.0;"/></g><!--reverse link PropertyFilterProcessingNode<InOut> to EMAFilterNode<InOut>--><g id="link_PropertyFilterProcessingNode&lt;InOut&gt;_EMAFilterNode&lt;InOut&gt;"><path codeLine="23" d="M655.61,134.98 C739.12,151.65 858.99,175.57 936.05,190.94 " fill="none" id="PropertyFilterProcessingNode&lt;InOut&gt;-backto-EMAFilterNode&lt;InOut&gt;" style="stroke:#181818;stroke-width:1.0;"/><polygon fill="none" points="653.98,141.79,635.73,131.01,656.72,128.06,653.98,141.79" style="stroke:#181818;stroke-width:1.0;"/></g><!--SRC=[hSzB3e8m40RWFQTes7C3Og96W_41YISexGZLFaWxB8XwTviWYGb8M7JPwVp_bt4FeHjggI8RoXwLDQtcMoED9MYfTluBD4Qru410DTWH1LWRxdv7Dm7IJsZfV8OXOP8wH-B2cWOiTdiX4Qn_CN1EwEfYEAG7dRUuYiapUe-2UNa7XZE1-OtqbIJBzEWB7gbKLFUROspH7JtwhsY0JaK0PAfa0B8GG3O3NC_h0C9aoq3iWX2JBHy0]--></g></svg>