<?xml version="1.0" encoding="UTF-8" standalone="no"?><svg xmlns="http://www.w3.org/2000/svg" xmlns:xlink="http://www.w3.org/1999/xlink" contentScriptType="application/ecmascript" contentStyleType="text/css" height="368px" preserveAspectRatio="none" style="width:201px;height:368px;background:#00000000;" version="1.1" viewBox="0 0 201 368" width="201px" zoomAndPan="magnify"><defs><filter height="300%" id="fhpv4dc2l86z6" width="300%" x="-1" y="-1"><feGaussianBlur result="blurOut" stdDeviation="2.0"/><feColorMatrix in="blurOut" result="blurOut2" type="matrix" values="0 0 0 0 0 0 0 0 0 0 0 0 0 0 0 0 0 0 .4 0"/><feOffset dx="4.0" dy="4.0" in="blurOut2" result="blurOut3"/><feBlend in="SourceGraphic" in2="blurOut3" mode="normal"/></filter></defs><g><!--MD5=[750a855c05d2b7ad49837f4e65ee2dfb]
class PullOptions--><rect codeLine="4" fill="#FEFECE" filter="url(#fhpv4dc2l86z6)" height="91.2188" id="PullOptions" style="stroke:#A80036;stroke-width:1.5;" width="180" x="7" y="99"/><ellipse cx="59.25" cy="115" fill="#B4A7E5" rx="11" ry="11" style="stroke:#A80036;stroke-width:1.0;"/><path d="M55.1719,110.7656 L55.1719,108.6094 L62.5625,108.6094 L62.5625,110.7656 L60.0938,110.7656 L60.0938,118.8438 L62.5625,118.8438 L62.5625,121 L55.1719,121 L55.1719,118.8438 L57.6406,118.8438 L57.6406,110.7656 L55.1719,110.7656 Z " fill="#000000"/><text fill="#000000" font-family="sans-serif" font-size="12" font-style="italic" lengthAdjust="spacing" textLength="67" x="79.75" y="119.1543">PullOptions</text><line style="stroke:#A80036;stroke-width:1.5;" x1="8" x2="186" y1="131" y2="131"/><ellipse cx="18" cy="142" rx="3" ry="3" style="stroke:#038048;stroke-width:1.0;fill:none;"/><text fill="#000000" font-family="sans-serif" font-size="11" lengthAdjust="spacing" textLength="87" x="27" y="145.2104">count : number</text><ellipse cx="18" cy="154.8047" rx="3" ry="3" style="stroke:#038048;stroke-width:1.0;fill:none;"/><text fill="#000000" font-family="sans-serif" font-size="11" lengthAdjust="spacing" textLength="154" x="27" y="158.0151">requestedObjects : string[]</text><ellipse cx="18" cy="167.6094" rx="3" ry="3" style="stroke:#038048;stroke-width:1.0;fill:none;"/><text fill="#000000" font-family="sans-serif" font-size="11" lengthAdjust="spacing" textLength="136" x="27" y="170.8198">sequentialPull : boolean</text><ellipse cx="18" cy="180.4141" rx="3" ry="3" style="stroke:#038048;stroke-width:1.0;fill:none;"/><text fill="#000000" font-family="sans-serif" font-size="11" lengthAdjust="spacing" textLength="113" x="27" y="183.6245">sourceNode : string</text><!--MD5=[ef388129b956dd7c37bb01e908c85b2c]
class GraphOptions--><rect codeLine="10" fill="#FEFECE" filter="url(#fhpv4dc2l86z6)" height="32" id="GraphOptions" style="stroke:#A80036;stroke-width:1.5;" width="116" x="39" y="7"/><ellipse cx="54" cy="23" fill="#B4A7E5" rx="11" ry="11" style="stroke:#A80036;stroke-width:1.0;"/><path d="M49.9219,18.7656 L49.9219,16.6094 L57.3125,16.6094 L57.3125,18.7656 L54.8438,18.7656 L54.8438,26.8438 L57.3125,26.8438 L57.3125,29 L49.9219,29 L49.9219,26.8438 L52.3906,26.8438 L52.3906,18.7656 L49.9219,18.7656 Z " fill="#000000"/><text fill="#000000" font-family="sans-serif" font-size="12" font-style="italic" lengthAdjust="spacing" textLength="84" x="68" y="27.1543">GraphOptions</text><!--MD5=[0509d1b78c14ff094d3e79856fd71368]
class RemotePullOptions--><rect codeLine="13" fill="#FEFECE" filter="url(#fhpv4dc2l86z6)" height="104.0234" id="RemotePullOptions" style="stroke:#A80036;stroke-width:1.5;" width="180" x="7" y="250"/><ellipse cx="36.85" cy="266" fill="#B4A7E5" rx="11" ry="11" style="stroke:#A80036;stroke-width:1.0;"/><path d="M32.7719,261.7656 L32.7719,259.6094 L40.1625,259.6094 L40.1625,261.7656 L37.6938,261.7656 L37.6938,269.8438 L40.1625,269.8438 L40.1625,272 L32.7719,272 L32.7719,269.8438 L35.2406,269.8438 L35.2406,261.7656 L32.7719,261.7656 Z " fill="#000000"/><text fill="#000000" font-family="sans-serif" font-size="12" font-style="italic" lengthAdjust="spacing" textLength="115" x="54.15" y="270.1543">RemotePullOptions</text><line style="stroke:#A80036;stroke-width:1.5;" x1="8" x2="186" y1="282" y2="282"/><ellipse cx="18" cy="293" rx="3" ry="3" style="stroke:#038048;stroke-width:1.0;fill:none;"/><text fill="#000000" font-family="sans-serif" font-size="11" lengthAdjust="spacing" textLength="85" x="27" y="296.2104">clientId : string</text><ellipse cx="18" cy="305.8047" rx="3" ry="3" style="stroke:#038048;stroke-width:1.0;fill:none;"/><text fill="#000000" font-family="sans-serif" font-size="11" lengthAdjust="spacing" textLength="87" x="27" y="309.0151">count : number</text><ellipse cx="18" cy="318.6094" rx="3" ry="3" style="stroke:#038048;stroke-width:1.0;fill:none;"/><text fill="#000000" font-family="sans-serif" font-size="11" lengthAdjust="spacing" textLength="154" x="27" y="321.8198">requestedObjects : string[]</text><ellipse cx="18" cy="331.4141" rx="3" ry="3" style="stroke:#038048;stroke-width:1.0;fill:none;"/><text fill="#000000" font-family="sans-serif" font-size="11" lengthAdjust="spacing" textLength="136" x="27" y="334.6245">sequentialPull : boolean</text><ellipse cx="18" cy="344.2188" rx="3" ry="3" style="stroke:#038048;stroke-width:1.0;fill:none;"/><text fill="#000000" font-family="sans-serif" font-size="11" lengthAdjust="spacing" textLength="113" x="27" y="347.4292">sourceNode : string</text><!--MD5=[77b1aa8a611d2765a2fb73cf2e47a384]
reverse link GraphOptions to PullOptions--><path codeLine="12" d="M97,59.57 C97,71.92 97,85.94 97,98.93 " fill="none" id="GraphOptions-backto-PullOptions" style="stroke:#A80036;stroke-width:1.0;"/><polygon fill="none" points="90,59.13,97,39.13,104,59.13,90,59.13" style="stroke:#A80036;stroke-width:1.0;"/><!--MD5=[079edb1da03ff505b52ce279b210c673]
reverse link PullOptions to RemotePullOptions--><path codeLine="20" d="M97,210.2 C97,223.43 97,237.18 97,249.85 " fill="none" id="PullOptions-backto-RemotePullOptions" style="stroke:#A80036;stroke-width:1.0;"/><polygon fill="none" points="90,210.06,97,190.06,104,210.06,90,210.06" style="stroke:#A80036;stroke-width:1.0;"/><!--MD5=[7dc88db5517d797a68df4b9d5c9563e6]
@startuml
skinparam BackgroundColor transparent
hide empty methods
hide empty fields
interface "PullOptions" {
    +count : number
    +requestedObjects : string[]
    +sequentialPull : boolean
    +sourceNode : string
}
interface "GraphOptions" {
}
"GraphOptions" <|- - "PullOptions"
interface "RemotePullOptions" {
    +clientId : string
    +count : number
    +requestedObjects : string[]
    +sequentialPull : boolean
    +sourceNode : string
}
"PullOptions" <|- - "RemotePullOptions"
@enduml

PlantUML version 1.2021.14(Fri Nov 12 16:46:50 UTC 2021)
(GPL source distribution)
Java Runtime: OpenJDK Runtime Environment
JVM: OpenJDK 64-Bit Server VM
Default Encoding: UTF-8
Language: en
Country: null
--></g></svg>