<?xml version="1.0" encoding="UTF-8" standalone="no"?><svg xmlns="http://www.w3.org/2000/svg" xmlns:xlink="http://www.w3.org/1999/xlink" contentScriptType="application/ecmascript" contentStyleType="text/css" height="237px" preserveAspectRatio="none" style="width:168px;height:237px;background:#00000000;" version="1.1" viewBox="0 0 168 237" width="168px" zoomAndPan="magnify"><defs><filter height="300%" id="f11249lvoxoa41" width="300%" x="-1" y="-1"><feGaussianBlur result="blurOut" stdDeviation="2.0"/><feColorMatrix in="blurOut" result="blurOut2" type="matrix" values="0 0 0 0 0 0 0 0 0 0 0 0 0 0 0 0 0 0 .4 0"/><feOffset dx="4.0" dy="4.0" in="blurOut2" result="blurOut3"/><feBlend in="SourceGraphic" in2="blurOut3" mode="normal"/></filter></defs><g><!--MD5=[750a855c05d2b7ad49837f4e65ee2dfb]
class PullOptions--><rect codeLine="4" fill="#FEFECE" filter="url(#f11249lvoxoa41)" height="32" id="PullOptions" style="stroke:#A80036;stroke-width:1.5;" width="99" x="31" y="99"/><ellipse cx="46" cy="115" fill="#B4A7E5" rx="11" ry="11" style="stroke:#A80036;stroke-width:1.0;"/><path d="M41.9219,110.7656 L41.9219,108.6094 L49.3125,108.6094 L49.3125,110.7656 L46.8438,110.7656 L46.8438,118.8438 L49.3125,118.8438 L49.3125,121 L41.9219,121 L41.9219,118.8438 L44.3906,118.8438 L44.3906,110.7656 L41.9219,110.7656 Z " fill="#000000"/><text fill="#000000" font-family="sans-serif" font-size="12" font-style="italic" lengthAdjust="spacing" textLength="67" x="60" y="119.1543">PullOptions</text><!--MD5=[ef388129b956dd7c37bb01e908c85b2c]
class GraphOptions--><rect codeLine="6" fill="#FEFECE" filter="url(#f11249lvoxoa41)" height="32" id="GraphOptions" style="stroke:#A80036;stroke-width:1.5;" width="116" x="22.5" y="7"/><ellipse cx="37.5" cy="23" fill="#B4A7E5" rx="11" ry="11" style="stroke:#A80036;stroke-width:1.0;"/><path d="M33.4219,18.7656 L33.4219,16.6094 L40.8125,16.6094 L40.8125,18.7656 L38.3438,18.7656 L38.3438,26.8438 L40.8125,26.8438 L40.8125,29 L33.4219,29 L33.4219,26.8438 L35.8906,26.8438 L35.8906,18.7656 L33.4219,18.7656 Z " fill="#000000"/><text fill="#000000" font-family="sans-serif" font-size="12" font-style="italic" lengthAdjust="spacing" textLength="84" x="51.5" y="27.1543">GraphOptions</text><!--MD5=[0509d1b78c14ff094d3e79856fd71368]
class RemotePullOptions--><rect codeLine="9" fill="#FEFECE" filter="url(#f11249lvoxoa41)" height="32" id="RemotePullOptions" style="stroke:#A80036;stroke-width:1.5;" width="147" x="7" y="191"/><ellipse cx="22" cy="207" fill="#B4A7E5" rx="11" ry="11" style="stroke:#A80036;stroke-width:1.0;"/><path d="M17.9219,202.7656 L17.9219,200.6094 L25.3125,200.6094 L25.3125,202.7656 L22.8438,202.7656 L22.8438,210.8438 L25.3125,210.8438 L25.3125,213 L17.9219,213 L17.9219,210.8438 L20.3906,210.8438 L20.3906,202.7656 L17.9219,202.7656 Z " fill="#000000"/><text fill="#000000" font-family="sans-serif" font-size="12" font-style="italic" lengthAdjust="spacing" textLength="115" x="36" y="211.1543">RemotePullOptions</text><!--MD5=[77b1aa8a611d2765a2fb73cf2e47a384]
reverse link GraphOptions to PullOptions--><path codeLine="8" d="M80.5,59.61 C80.5,73.31 80.5,88.22 80.5,98.96 " fill="none" id="GraphOptions-backto-PullOptions" style="stroke:#A80036;stroke-width:1.0;"/><polygon fill="none" points="73.5,59.27,80.5,39.27,87.5,59.27,73.5,59.27" style="stroke:#A80036;stroke-width:1.0;"/><!--MD5=[079edb1da03ff505b52ce279b210c673]
reverse link PullOptions to RemotePullOptions--><path codeLine="11" d="M80.5,151.61 C80.5,165.31 80.5,180.22 80.5,190.96 " fill="none" id="PullOptions-backto-RemotePullOptions" style="stroke:#A80036;stroke-width:1.0;"/><polygon fill="none" points="73.5,151.27,80.5,131.27,87.5,151.27,73.5,151.27" style="stroke:#A80036;stroke-width:1.0;"/><!--MD5=[8df5cfba74fb6f64383cc22dd92cfeb7]
@startuml
skinparam BackgroundColor transparent
hide empty methods
hide empty fields
interface "PullOptions" {
}
interface "GraphOptions" {
}
"GraphOptions" <|- - "PullOptions"
interface "RemotePullOptions" {
}
"PullOptions" <|- - "RemotePullOptions"
@enduml

PlantUML version 1.2021.14(Fri Nov 12 16:46:50 UTC 2021)
(GPL source distribution)
Java Runtime: OpenJDK Runtime Environment
JVM: OpenJDK 64-Bit Server VM
Default Encoding: UTF-8
Language: en
Country: null
--></g></svg>