<?xml version="1.0" encoding="us-ascii" standalone="no"?><svg xmlns="http://www.w3.org/2000/svg" xmlns:xlink="http://www.w3.org/1999/xlink" contentStyleType="text/css" height="230px" preserveAspectRatio="none" style="width:177px;height:230px;" version="1.1" viewBox="0 0 177 230" width="177px" zoomAndPan="magnify"><defs/><g><!--class PullOptions--><g id="elem_PullOptions"><rect codeLine="4" fill="#F1F1F1" height="32" id="PullOptions" rx="2.5" ry="2.5" style="stroke:#181818;stroke-width:0.5;" width="108" x="34.5" y="99"/><ellipse cx="49.5" cy="115" fill="#B4A7E5" rx="11" ry="11" style="stroke:#181818;stroke-width:1.0;"/><path d="M45.4219,110.7656 L45.4219,108.6094 L52.8125,108.6094 L52.8125,110.7656 L50.3438,110.7656 L50.3438,118.8438 L52.8125,118.8438 L52.8125,121 L45.4219,121 L45.4219,118.8438 L47.8906,118.8438 L47.8906,110.7656 L45.4219,110.7656 Z " fill="#000000"/><text fill="#000000" font-family="sans-serif" font-size="14" font-style="italic" lengthAdjust="spacing" textLength="76" x="63.5" y="119.8467">PullOptions</text></g><!--class GraphOptions--><g id="elem_GraphOptions"><rect codeLine="6" fill="#F1F1F1" height="32" id="GraphOptions" rx="2.5" ry="2.5" style="stroke:#181818;stroke-width:0.5;" width="127" x="25" y="7"/><ellipse cx="40" cy="23" fill="#B4A7E5" rx="11" ry="11" style="stroke:#181818;stroke-width:1.0;"/><path d="M35.9219,18.7656 L35.9219,16.6094 L43.3125,16.6094 L43.3125,18.7656 L40.8438,18.7656 L40.8438,26.8438 L43.3125,26.8438 L43.3125,29 L35.9219,29 L35.9219,26.8438 L38.3906,26.8438 L38.3906,18.7656 L35.9219,18.7656 Z " fill="#000000"/><text fill="#000000" font-family="sans-serif" font-size="14" font-style="italic" lengthAdjust="spacing" textLength="95" x="54" y="27.8467">GraphOptions</text></g><!--class RemotePullOptions--><g id="elem_RemotePullOptions"><rect codeLine="9" fill="#F1F1F1" height="32" id="RemotePullOptions" rx="2.5" ry="2.5" style="stroke:#181818;stroke-width:0.5;" width="163" x="7" y="191"/><ellipse cx="22" cy="207" fill="#B4A7E5" rx="11" ry="11" style="stroke:#181818;stroke-width:1.0;"/><path d="M17.9219,202.7656 L17.9219,200.6094 L25.3125,200.6094 L25.3125,202.7656 L22.8438,202.7656 L22.8438,210.8438 L25.3125,210.8438 L25.3125,213 L17.9219,213 L17.9219,210.8438 L20.3906,210.8438 L20.3906,202.7656 L17.9219,202.7656 Z " fill="#000000"/><text fill="#000000" font-family="sans-serif" font-size="14" font-style="italic" lengthAdjust="spacing" textLength="131" x="36" y="211.8467">RemotePullOptions</text></g><!--reverse link GraphOptions to PullOptions--><g id="link_GraphOptions_PullOptions"><path codeLine="8" d="M88.5,59.61 C88.5,73.31 88.5,88.22 88.5,98.96 " fill="none" id="GraphOptions-backto-PullOptions" style="stroke:#181818;stroke-width:1.0;"/><polygon fill="none" points="81.5,59.27,88.5,39.27,95.5,59.27,81.5,59.27" style="stroke:#181818;stroke-width:1.0;"/></g><!--reverse link PullOptions to RemotePullOptions--><g id="link_PullOptions_RemotePullOptions"><path codeLine="11" d="M88.5,151.61 C88.5,165.31 88.5,180.22 88.5,190.96 " fill="none" id="PullOptions-backto-RemotePullOptions" style="stroke:#181818;stroke-width:1.0;"/><polygon fill="none" points="81.5,151.27,88.5,131.27,95.5,151.27,81.5,151.27" style="stroke:#181818;stroke-width:1.0;"/></g><!--SRC=[POqz3eCm34PtJc6nSuDExS3OgZUmY24HYHqvPgXAxrwaBabPt_j-oXeuesA2AqxhehAnkqaK1LFaSYXYwtnm19IolI2HUN6bHdEWU930HZhZHD0_jXZlsO9mwU7TVMetAcRVo3zqsOUXdQZhJqfYT3feBtyJv-WN]--></g></svg>