<?xml version="1.0" encoding="us-ascii" standalone="no"?><svg xmlns="http://www.w3.org/2000/svg" xmlns:xlink="http://www.w3.org/1999/xlink" contentStyleType="text/css" height="138px" preserveAspectRatio="none" style="width:195px;height:138px;" version="1.1" viewBox="0 0 195 138" width="195px" zoomAndPan="magnify"><defs/><g><!--class PushCompletedEvent--><g id="elem_PushCompletedEvent"><rect codeLine="4" fill="#F1F1F1" height="32" id="PushCompletedEvent" rx="2.5" ry="2.5" style="stroke:#181818;stroke-width:0.5;" width="181" x="7" y="99"/><ellipse cx="22" cy="115" fill="#B4A7E5" rx="11" ry="11" style="stroke:#181818;stroke-width:1.0;"/><path d="M17.9219,110.7656 L17.9219,108.6094 L25.3125,108.6094 L25.3125,110.7656 L22.8438,110.7656 L22.8438,118.8438 L25.3125,118.8438 L25.3125,121 L17.9219,121 L17.9219,118.8438 L20.3906,118.8438 L20.3906,110.7656 L17.9219,110.7656 Z " fill="#000000"/><text fill="#000000" font-family="sans-serif" font-size="14" font-style="italic" lengthAdjust="spacing" textLength="149" x="36" y="119.8467">PushCompletedEvent</text></g><!--class PushEvent--><g id="elem_PushEvent"><rect codeLine="6" fill="#F1F1F1" height="32" id="PushEvent" rx="2.5" ry="2.5" style="stroke:#181818;stroke-width:0.5;" width="105" x="45" y="7"/><ellipse cx="60" cy="23" fill="#B4A7E5" rx="11" ry="11" style="stroke:#181818;stroke-width:1.0;"/><path d="M55.9219,18.7656 L55.9219,16.6094 L63.3125,16.6094 L63.3125,18.7656 L60.8438,18.7656 L60.8438,26.8438 L63.3125,26.8438 L63.3125,29 L55.9219,29 L55.9219,26.8438 L58.3906,26.8438 L58.3906,18.7656 L55.9219,18.7656 Z " fill="#000000"/><text fill="#000000" font-family="sans-serif" font-size="14" font-style="italic" lengthAdjust="spacing" textLength="73" x="74" y="27.8467">PushEvent</text></g><!--reverse link PushEvent to PushCompletedEvent--><g id="link_PushEvent_PushCompletedEvent"><path codeLine="8" d="M97.5,59.61 C97.5,73.31 97.5,88.22 97.5,98.96 " fill="none" id="PushEvent-backto-PushCompletedEvent" style="stroke:#181818;stroke-width:1.0;"/><polygon fill="none" points="90.5,59.27,97.5,39.27,104.5,59.27,90.5,59.27" style="stroke:#181818;stroke-width:1.0;"/></g><!--SRC=[ROmn3eCm34LtJc6nSmEc8dQkO17JH2Hsv9XAY79tCaPLn__Urojxu8oA2Lwuxc-LWzqaKHHCaKjLnDRvu0WePJiXaNbnfKLRe5X9O2FTS2NebwFuILAEPEJcJqtqS7NtxwKnxHw_m_2tyG00]--></g></svg>