<?xml version="1.0" encoding="UTF-8" standalone="no"?><svg xmlns="http://www.w3.org/2000/svg" xmlns:xlink="http://www.w3.org/1999/xlink" contentScriptType="application/ecmascript" contentStyleType="text/css" height="330px" preserveAspectRatio="none" style="width:176px;height:330px;background:#00000000;" version="1.1" viewBox="0 0 176 330" width="176px" zoomAndPan="magnify"><defs><filter height="300%" id="f636nd1dclgd4" width="300%" x="-1" y="-1"><feGaussianBlur result="blurOut" stdDeviation="2.0"/><feColorMatrix in="blurOut" result="blurOut2" type="matrix" values="0 0 0 0 0 0 0 0 0 0 0 0 0 0 0 0 0 0 .4 0"/><feOffset dx="4.0" dy="4.0" in="blurOut2" result="blurOut3"/><feBlend in="SourceGraphic" in2="blurOut3" mode="normal"/></filter></defs><g><!--MD5=[68925008f9f25f30b3298f61f07e6b3f]
class PushOptions--><rect codeLine="4" fill="#FEFECE" filter="url(#f636nd1dclgd4)" height="65.6094" id="PushOptions" style="stroke:#A80036;stroke-width:1.5;" width="139" x="15" y="99"/><ellipse cx="44.4" cy="115" fill="#B4A7E5" rx="11" ry="11" style="stroke:#A80036;stroke-width:1.0;"/><path d="M40.3219,110.7656 L40.3219,108.6094 L47.7125,108.6094 L47.7125,110.7656 L45.2438,110.7656 L45.2438,118.8438 L47.7125,118.8438 L47.7125,121 L40.3219,121 L40.3219,118.8438 L42.7906,118.8438 L42.7906,110.7656 L40.3219,110.7656 Z " fill="#000000"/><text fill="#000000" font-family="sans-serif" font-size="12" font-style="italic" lengthAdjust="spacing" textLength="75" x="61.6" y="119.1543">PushOptions</text><line style="stroke:#A80036;stroke-width:1.5;" x1="16" x2="153" y1="131" y2="131"/><ellipse cx="26" cy="142" rx="3" ry="3" style="stroke:#038048;stroke-width:1.0;fill:none;"/><text fill="#000000" font-family="sans-serif" font-size="11" lengthAdjust="spacing" textLength="95" x="35" y="145.2104">lastNode : string</text><ellipse cx="26" cy="154.8047" rx="3" ry="3" style="stroke:#038048;stroke-width:1.0;fill:none;"/><text fill="#000000" font-family="sans-serif" font-size="11" lengthAdjust="spacing" textLength="113" x="35" y="158.0151">sourceNode : string</text><!--MD5=[ef388129b956dd7c37bb01e908c85b2c]
class GraphOptions--><rect codeLine="8" fill="#FEFECE" filter="url(#f636nd1dclgd4)" height="32" id="GraphOptions" style="stroke:#A80036;stroke-width:1.5;" width="116" x="26.5" y="7"/><ellipse cx="41.5" cy="23" fill="#B4A7E5" rx="11" ry="11" style="stroke:#A80036;stroke-width:1.0;"/><path d="M37.4219,18.7656 L37.4219,16.6094 L44.8125,16.6094 L44.8125,18.7656 L42.3438,18.7656 L42.3438,26.8438 L44.8125,26.8438 L44.8125,29 L37.4219,29 L37.4219,26.8438 L39.8906,26.8438 L39.8906,18.7656 L37.4219,18.7656 Z " fill="#000000"/><text fill="#000000" font-family="sans-serif" font-size="12" font-style="italic" lengthAdjust="spacing" textLength="84" x="55.5" y="27.1543">GraphOptions</text><!--MD5=[c98342dfc31067cfd2c23266f1dc3d08]
class RemotePushOptions--><rect codeLine="11" fill="#FEFECE" filter="url(#f636nd1dclgd4)" height="91.2188" id="RemotePushOptions" style="stroke:#A80036;stroke-width:1.5;" width="155" x="7" y="225"/><ellipse cx="22" cy="241" fill="#B4A7E5" rx="11" ry="11" style="stroke:#A80036;stroke-width:1.0;"/><path d="M17.9219,236.7656 L17.9219,234.6094 L25.3125,234.6094 L25.3125,236.7656 L22.8438,236.7656 L22.8438,244.8438 L25.3125,244.8438 L25.3125,247 L17.9219,247 L17.9219,244.8438 L20.3906,244.8438 L20.3906,236.7656 L17.9219,236.7656 Z " fill="#000000"/><text fill="#000000" font-family="sans-serif" font-size="12" font-style="italic" lengthAdjust="spacing" textLength="123" x="36" y="245.1543">RemotePushOptions</text><line style="stroke:#A80036;stroke-width:1.5;" x1="8" x2="161" y1="257" y2="257"/><ellipse cx="18" cy="268" rx="3" ry="3" style="stroke:#038048;stroke-width:1.0;fill:none;"/><text fill="#000000" font-family="sans-serif" font-size="11" lengthAdjust="spacing" textLength="114" x="27" y="271.2104">broadcast : boolean</text><ellipse cx="18" cy="280.8047" rx="3" ry="3" style="stroke:#038048;stroke-width:1.0;fill:none;"/><text fill="#000000" font-family="sans-serif" font-size="11" lengthAdjust="spacing" textLength="85" x="27" y="284.0151">clientId : string</text><ellipse cx="18" cy="293.6094" rx="3" ry="3" style="stroke:#038048;stroke-width:1.0;fill:none;"/><text fill="#000000" font-family="sans-serif" font-size="11" lengthAdjust="spacing" textLength="95" x="27" y="296.8198">lastNode : string</text><ellipse cx="18" cy="306.4141" rx="3" ry="3" style="stroke:#038048;stroke-width:1.0;fill:none;"/><text fill="#000000" font-family="sans-serif" font-size="11" lengthAdjust="spacing" textLength="113" x="27" y="309.6245">sourceNode : string</text><!--MD5=[9766709a6465d8f3813f82eefaa3f522]
reverse link GraphOptions to PushOptions--><path codeLine="10" d="M84.5,59.79 C84.5,72.45 84.5,86.61 84.5,98.94 " fill="none" id="GraphOptions-backto-PushOptions" style="stroke:#A80036;stroke-width:1.0;"/><polygon fill="none" points="77.5,59.33,84.5,39.33,91.5,59.33,77.5,59.33" style="stroke:#A80036;stroke-width:1.0;"/><!--MD5=[d01d8e813d59bb2932feae620efe9dc1]
reverse link PushOptions to RemotePushOptions--><path codeLine="17" d="M84.5,185.18 C84.5,198.23 84.5,212.12 84.5,224.78 " fill="none" id="PushOptions-backto-RemotePushOptions" style="stroke:#A80036;stroke-width:1.0;"/><polygon fill="none" points="77.5,185,84.5,165,91.5,185,77.5,185" style="stroke:#A80036;stroke-width:1.0;"/><!--MD5=[d446cb1b1725b338a3d39ef50ad6465d]
@startuml
skinparam BackgroundColor transparent
hide empty methods
hide empty fields
interface "PushOptions" {
    +lastNode : string
    +sourceNode : string
}
interface "GraphOptions" {
}
"GraphOptions" <|- - "PushOptions"
interface "RemotePushOptions" {
    +broadcast : boolean
    +clientId : string
    +lastNode : string
    +sourceNode : string
}
"PushOptions" <|- - "RemotePushOptions"
@enduml

PlantUML version 1.2021.14(Fri Nov 12 16:46:50 UTC 2021)
(GPL source distribution)
Java Runtime: OpenJDK Runtime Environment
JVM: OpenJDK 64-Bit Server VM
Default Encoding: UTF-8
Language: en
Country: null
--></g></svg>