<?xml version="1.0" encoding="UTF-8" standalone="no"?><svg xmlns="http://www.w3.org/2000/svg" xmlns:xlink="http://www.w3.org/1999/xlink" contentScriptType="application/ecmascript" contentStyleType="text/css" height="255px" preserveAspectRatio="none" style="width:456px;height:255px;background:#00000000;" version="1.1" viewBox="0 0 456 255" width="456px" zoomAndPan="magnify"><defs><filter height="300%" id="fwhh9eva5v98f" width="300%" x="-1" y="-1"><feGaussianBlur result="blurOut" stdDeviation="2.0"/><feColorMatrix in="blurOut" result="blurOut2" type="matrix" values="0 0 0 0 0 0 0 0 0 0 0 0 0 0 0 0 0 0 .4 0"/><feOffset dx="4.0" dy="4.0" in="blurOut2" result="blurOut3"/><feBlend in="SourceGraphic" in2="blurOut3" mode="normal"/></filter></defs><g><!--MD5=[4589cf582fd825f5e5e8ac25702e5f08]
class PushError--><rect codeLine="4" fill="#FEFECE" filter="url(#fwhh9eva5v98f)" height="150.4375" id="PushError" style="stroke:#A80036;stroke-width:1.5;" width="435" x="7" y="91"/><ellipse cx="189.25" cy="107" fill="#ADD1B2" rx="11" ry="11" style="stroke:#A80036;stroke-width:1.0;"/><path d="M192.2188,112.6406 Q191.6406,112.9375 191,113.0781 Q190.3594,113.2344 189.6563,113.2344 Q187.1563,113.2344 185.8281,111.5938 Q184.5156,109.9375 184.5156,106.8125 Q184.5156,103.6875 185.8281,102.0313 Q187.1563,100.375 189.6563,100.375 Q190.3594,100.375 191,100.5313 Q191.6563,100.6875 192.2188,100.9844 L192.2188,103.7031 Q191.5938,103.125 191,102.8594 Q190.4063,102.5781 189.7813,102.5781 Q188.4375,102.5781 187.75,103.6563 Q187.0625,104.7188 187.0625,106.8125 Q187.0625,108.9063 187.75,109.9844 Q188.4375,111.0469 189.7813,111.0469 Q190.4063,111.0469 191,110.7813 Q191.5938,110.5 192.2188,109.9219 L192.2188,112.6406 Z " fill="#000000"/><text fill="#000000" font-family="sans-serif" font-size="12" lengthAdjust="spacing" textLength="62" x="209.75" y="111.1543">PushError</text><line style="stroke:#A80036;stroke-width:1.5;" x1="8" x2="441" y1="123" y2="123"/><ellipse cx="18" cy="134" rx="3" ry="3" style="stroke:#038048;stroke-width:1.0;fill:none;"/><text fill="#000000" font-family="sans-serif" font-size="11" lengthAdjust="spacing" textLength="98" x="27" y="137.2104">frameUID : string</text><ellipse cx="18" cy="146.8047" rx="3" ry="3" style="stroke:#038048;stroke-width:1.0;fill:none;"/><text fill="#000000" font-family="sans-serif" font-size="11" lengthAdjust="spacing" textLength="98" x="27" y="150.0151">message : string</text><ellipse cx="18" cy="159.6094" rx="3" ry="3" style="stroke:#038048;stroke-width:1.0;fill:none;"/><text fill="#000000" font-family="sans-serif" font-size="11" lengthAdjust="spacing" textLength="77" x="27" y="162.8198">name : string</text><ellipse cx="18" cy="172.4141" rx="3" ry="3" style="stroke:#038048;stroke-width:1.0;fill:none;"/><text fill="#000000" font-family="sans-serif" font-size="11" lengthAdjust="spacing" textLength="92" x="27" y="175.6245">nodeUID : string</text><ellipse cx="18" cy="185.2188" rx="3" ry="3" style="stroke:#038048;stroke-width:1.0;fill:none;"/><text fill="#000000" font-family="sans-serif" font-size="11" lengthAdjust="spacing" text-decoration="underline" textLength="167" x="27" y="188.4292">prepareStackTrace : Function</text><ellipse cx="18" cy="198.0234" rx="3" ry="3" style="stroke:#038048;stroke-width:1.0;fill:none;"/><text fill="#000000" font-family="sans-serif" font-size="11" lengthAdjust="spacing" textLength="75" x="27" y="201.2339">stack : string</text><ellipse cx="18" cy="210.8281" rx="3" ry="3" style="stroke:#038048;stroke-width:1.0;fill:none;"/><text fill="#000000" font-family="sans-serif" font-size="11" lengthAdjust="spacing" text-decoration="underline" textLength="145" x="27" y="214.0386">stackTraceLimit : number</text><line style="stroke:#A80036;stroke-width:1.5;" x1="8" x2="441" y1="220.6328" y2="220.6328"/><ellipse cx="18" cy="231.6328" fill="#84BE84" rx="3" ry="3" style="stroke:#038048;stroke-width:1.0;"/><text fill="#000000" font-family="sans-serif" font-size="11" lengthAdjust="spacing" text-decoration="underline" textLength="409" x="27" y="234.8433">captureStackTrace(targetObject: object, constructorOpt: Function) : void</text><!--MD5=[b8cfd8c4119a3b0a7a46bfc5fc780f85]
class Error--><rect codeLine="14" fill="#FEFECE" filter="url(#fwhh9eva5v98f)" height="23.9688" id="Error" style="stroke:#A80036;stroke-width:1.5;" width="37" x="206" y="7"/><text fill="#000000" font-family="sans-serif" font-size="12" lengthAdjust="spacing" textLength="31" x="209" y="23.1387">Error</text><!--MD5=[bf18f69bf07913919ad0e9f34e0e196a]
reverse link Error to PushError--><path codeLine="16" d="M224.5,51.68 C224.5,63.31 224.5,77.01 224.5,90.79 " fill="none" id="Error-backto-PushError" style="stroke:#A80036;stroke-width:1.0;"/><polygon fill="none" points="217.5,51.38,224.5,31.38,231.5,51.38,217.5,51.38" style="stroke:#A80036;stroke-width:1.0;"/><!--MD5=[668011a297c3736a8ec101320a431389]
@startuml
skinparam BackgroundColor transparent
hide empty methods
hide empty fields
class "PushError" {
    +frameUID : string
    +message : string
    +name : string
    +nodeUID : string
    {static} +prepareStackTrace : Function
    +stack : string
    {static} +stackTraceLimit : number
    {static} +captureStackTrace(targetObject: object, constructorOpt: Function) : void
}
class "Error"
hide "Error" circle
"Error" <|- - "PushError"
@enduml

PlantUML version 1.2021.14(Fri Nov 12 16:46:50 UTC 2021)
(GPL source distribution)
Java Runtime: OpenJDK Runtime Environment
JVM: OpenJDK 64-Bit Server VM
Default Encoding: UTF-8
Language: en
Country: null
--></g></svg>