<?xml version="1.0" encoding="UTF-8" standalone="no"?><svg xmlns="http://www.w3.org/2000/svg" xmlns:xlink="http://www.w3.org/1999/xlink" contentScriptType="application/ecmascript" contentStyleType="text/css" height="186px" preserveAspectRatio="none" style="width:184px;height:186px;background:#00000000;" version="1.1" viewBox="0 0 184 186" width="184px" zoomAndPan="magnify"><defs><filter height="300%" id="f1mbt0htl565gk" width="300%" x="-1" y="-1"><feGaussianBlur result="blurOut" stdDeviation="2.0"/><feColorMatrix in="blurOut" result="blurOut2" type="matrix" values="0 0 0 0 0 0 0 0 0 0 0 0 0 0 0 0 0 0 .4 0"/><feOffset dx="4.0" dy="4.0" in="blurOut2" result="blurOut3"/><feBlend in="SourceGraphic" in2="blurOut3" mode="normal"/></filter></defs><g><!--MD5=[42ca966e85dacee95bbc445875a81dcb]
class PushCompletedEvent--><rect codeLine="4" fill="#FEFECE" filter="url(#f1mbt0htl565gk)" height="52.8047" id="PushCompletedEvent" style="stroke:#A80036;stroke-width:1.5;" width="163" x="7" y="120"/><ellipse cx="22" cy="136" fill="#B4A7E5" rx="11" ry="11" style="stroke:#A80036;stroke-width:1.0;"/><path d="M17.9219,131.7656 L17.9219,129.6094 L25.3125,129.6094 L25.3125,131.7656 L22.8438,131.7656 L22.8438,139.8438 L25.3125,139.8438 L25.3125,142 L17.9219,142 L17.9219,139.8438 L20.3906,139.8438 L20.3906,131.7656 L17.9219,131.7656 Z " fill="#000000"/><text fill="#000000" font-family="sans-serif" font-size="12" font-style="italic" lengthAdjust="spacing" textLength="131" x="36" y="140.1543">PushCompletedEvent</text><line style="stroke:#A80036;stroke-width:1.5;" x1="8" x2="169" y1="152" y2="152"/><ellipse cx="18" cy="163" rx="3" ry="3" style="stroke:#038048;stroke-width:1.0;fill:none;"/><text fill="#000000" font-family="sans-serif" font-size="11" lengthAdjust="spacing" textLength="98" x="27" y="166.2104">frameUID : string</text><!--MD5=[2f68110d875f2369bbcea925b7647f36]
class PushEvent--><rect codeLine="7" fill="#FEFECE" filter="url(#f1mbt0htl565gk)" height="52.8047" id="PushEvent" style="stroke:#A80036;stroke-width:1.5;" width="124" x="26.5" y="7"/><ellipse cx="54.1" cy="23" fill="#B4A7E5" rx="11" ry="11" style="stroke:#A80036;stroke-width:1.0;"/><path d="M50.0219,18.7656 L50.0219,16.6094 L57.4125,16.6094 L57.4125,18.7656 L54.9438,18.7656 L54.9438,26.8438 L57.4125,26.8438 L57.4125,29 L50.0219,29 L50.0219,26.8438 L52.4906,26.8438 L52.4906,18.7656 L50.0219,18.7656 Z " fill="#000000"/><text fill="#000000" font-family="sans-serif" font-size="12" font-style="italic" lengthAdjust="spacing" textLength="64" x="70.9" y="27.1543">PushEvent</text><line style="stroke:#A80036;stroke-width:1.5;" x1="27.5" x2="149.5" y1="39" y2="39"/><ellipse cx="37.5" cy="50" rx="3" ry="3" style="stroke:#038048;stroke-width:1.0;fill:none;"/><text fill="#000000" font-family="sans-serif" font-size="11" lengthAdjust="spacing" textLength="98" x="46.5" y="53.2104">frameUID : string</text><!--MD5=[0d4df63f3ff27ec405aa77a8723813f8]
reverse link PushEvent to PushCompletedEvent--><path codeLine="10" d="M88.5,80.34 C88.5,93.85 88.5,108.15 88.5,119.89 " fill="none" id="PushEvent-backto-PushCompletedEvent" style="stroke:#A80036;stroke-width:1.0;"/><polygon fill="none" points="81.5,80.24,88.5,60.24,95.5,80.24,81.5,80.24" style="stroke:#A80036;stroke-width:1.0;"/><!--MD5=[0a321c79f022b7f7e21a22f6ffae7945]
@startuml
skinparam BackgroundColor transparent
hide empty methods
hide empty fields
interface "PushCompletedEvent" {
    +frameUID : string
}
interface "PushEvent" {
    +frameUID : string
}
"PushEvent" <|- - "PushCompletedEvent"
@enduml

PlantUML version 1.2021.14(Fri Nov 12 16:46:50 UTC 2021)
(GPL source distribution)
Java Runtime: OpenJDK Runtime Environment
JVM: OpenJDK 64-Bit Server VM
Default Encoding: UTF-8
Language: en
Country: null
--></g></svg>