<?xml version="1.0" encoding="UTF-8" standalone="no"?><svg xmlns="http://www.w3.org/2000/svg" xmlns:xlink="http://www.w3.org/1999/xlink" contentScriptType="application/ecmascript" contentStyleType="text/css" height="237px" preserveAspectRatio="none" style="width:176px;height:237px;background:#00000000;" version="1.1" viewBox="0 0 176 237" width="176px" zoomAndPan="magnify"><defs><filter height="300%" id="fqu917djj3r46" width="300%" x="-1" y="-1"><feGaussianBlur result="blurOut" stdDeviation="2.0"/><feColorMatrix in="blurOut" result="blurOut2" type="matrix" values="0 0 0 0 0 0 0 0 0 0 0 0 0 0 0 0 0 0 .4 0"/><feOffset dx="4.0" dy="4.0" in="blurOut2" result="blurOut3"/><feBlend in="SourceGraphic" in2="blurOut3" mode="normal"/></filter></defs><g><!--MD5=[68925008f9f25f30b3298f61f07e6b3f]
class PushOptions--><rect codeLine="4" fill="#FEFECE" filter="url(#fqu917djj3r46)" height="32" id="PushOptions" style="stroke:#A80036;stroke-width:1.5;" width="107" x="31" y="99"/><ellipse cx="46" cy="115" fill="#B4A7E5" rx="11" ry="11" style="stroke:#A80036;stroke-width:1.0;"/><path d="M41.9219,110.7656 L41.9219,108.6094 L49.3125,108.6094 L49.3125,110.7656 L46.8438,110.7656 L46.8438,118.8438 L49.3125,118.8438 L49.3125,121 L41.9219,121 L41.9219,118.8438 L44.3906,118.8438 L44.3906,110.7656 L41.9219,110.7656 Z " fill="#000000"/><text fill="#000000" font-family="sans-serif" font-size="12" font-style="italic" lengthAdjust="spacing" textLength="75" x="60" y="119.1543">PushOptions</text><!--MD5=[ef388129b956dd7c37bb01e908c85b2c]
class GraphOptions--><rect codeLine="6" fill="#FEFECE" filter="url(#fqu917djj3r46)" height="32" id="GraphOptions" style="stroke:#A80036;stroke-width:1.5;" width="116" x="26.5" y="7"/><ellipse cx="41.5" cy="23" fill="#B4A7E5" rx="11" ry="11" style="stroke:#A80036;stroke-width:1.0;"/><path d="M37.4219,18.7656 L37.4219,16.6094 L44.8125,16.6094 L44.8125,18.7656 L42.3438,18.7656 L42.3438,26.8438 L44.8125,26.8438 L44.8125,29 L37.4219,29 L37.4219,26.8438 L39.8906,26.8438 L39.8906,18.7656 L37.4219,18.7656 Z " fill="#000000"/><text fill="#000000" font-family="sans-serif" font-size="12" font-style="italic" lengthAdjust="spacing" textLength="84" x="55.5" y="27.1543">GraphOptions</text><!--MD5=[c98342dfc31067cfd2c23266f1dc3d08]
class RemotePushOptions--><rect codeLine="9" fill="#FEFECE" filter="url(#fqu917djj3r46)" height="32" id="RemotePushOptions" style="stroke:#A80036;stroke-width:1.5;" width="155" x="7" y="191"/><ellipse cx="22" cy="207" fill="#B4A7E5" rx="11" ry="11" style="stroke:#A80036;stroke-width:1.0;"/><path d="M17.9219,202.7656 L17.9219,200.6094 L25.3125,200.6094 L25.3125,202.7656 L22.8438,202.7656 L22.8438,210.8438 L25.3125,210.8438 L25.3125,213 L17.9219,213 L17.9219,210.8438 L20.3906,210.8438 L20.3906,202.7656 L17.9219,202.7656 Z " fill="#000000"/><text fill="#000000" font-family="sans-serif" font-size="12" font-style="italic" lengthAdjust="spacing" textLength="123" x="36" y="211.1543">RemotePushOptions</text><!--MD5=[9766709a6465d8f3813f82eefaa3f522]
reverse link GraphOptions to PushOptions--><path codeLine="8" d="M84.5,59.61 C84.5,73.31 84.5,88.22 84.5,98.96 " fill="none" id="GraphOptions-backto-PushOptions" style="stroke:#A80036;stroke-width:1.0;"/><polygon fill="none" points="77.5,59.27,84.5,39.27,91.5,59.27,77.5,59.27" style="stroke:#A80036;stroke-width:1.0;"/><!--MD5=[d01d8e813d59bb2932feae620efe9dc1]
reverse link PushOptions to RemotePushOptions--><path codeLine="11" d="M84.5,151.61 C84.5,165.31 84.5,180.22 84.5,190.96 " fill="none" id="PushOptions-backto-RemotePushOptions" style="stroke:#A80036;stroke-width:1.0;"/><polygon fill="none" points="77.5,151.27,84.5,131.27,91.5,151.27,77.5,151.27" style="stroke:#A80036;stroke-width:1.0;"/><!--MD5=[ef2fdfcdd43b34dae44ee5f2eddb1459]
@startuml
skinparam BackgroundColor transparent
hide empty methods
hide empty fields
interface "PushOptions" {
}
interface "GraphOptions" {
}
"GraphOptions" <|- - "PushOptions"
interface "RemotePushOptions" {
}
"PushOptions" <|- - "RemotePushOptions"
@enduml

PlantUML version 1.2021.14(Fri Nov 12 16:46:50 UTC 2021)
(GPL source distribution)
Java Runtime: OpenJDK Runtime Environment
JVM: OpenJDK 64-Bit Server VM
Default Encoding: UTF-8
Language: en
Country: null
--></g></svg>