<?xml version="1.0" encoding="us-ascii" standalone="no"?><svg xmlns="http://www.w3.org/2000/svg" xmlns:xlink="http://www.w3.org/1999/xlink" contentStyleType="text/css" height="230px" preserveAspectRatio="none" style="width:187px;height:230px;" version="1.1" viewBox="0 0 187 230" width="187px" zoomAndPan="magnify"><defs/><g><!--class PushOptions--><g id="elem_PushOptions"><rect codeLine="4" fill="#F1F1F1" height="32" id="PushOptions" rx="2.5" ry="2.5" style="stroke:#181818;stroke-width:0.5;" width="118" x="34.5" y="99"/><ellipse cx="49.5" cy="115" fill="#B4A7E5" rx="11" ry="11" style="stroke:#181818;stroke-width:1.0;"/><path d="M45.4219,110.7656 L45.4219,108.6094 L52.8125,108.6094 L52.8125,110.7656 L50.3438,110.7656 L50.3438,118.8438 L52.8125,118.8438 L52.8125,121 L45.4219,121 L45.4219,118.8438 L47.8906,118.8438 L47.8906,110.7656 L45.4219,110.7656 Z " fill="#000000"/><text fill="#000000" font-family="sans-serif" font-size="14" font-style="italic" lengthAdjust="spacing" textLength="86" x="63.5" y="119.8467">PushOptions</text></g><!--class GraphOptions--><g id="elem_GraphOptions"><rect codeLine="6" fill="#F1F1F1" height="32" id="GraphOptions" rx="2.5" ry="2.5" style="stroke:#181818;stroke-width:0.5;" width="127" x="30" y="7"/><ellipse cx="45" cy="23" fill="#B4A7E5" rx="11" ry="11" style="stroke:#181818;stroke-width:1.0;"/><path d="M40.9219,18.7656 L40.9219,16.6094 L48.3125,16.6094 L48.3125,18.7656 L45.8438,18.7656 L45.8438,26.8438 L48.3125,26.8438 L48.3125,29 L40.9219,29 L40.9219,26.8438 L43.3906,26.8438 L43.3906,18.7656 L40.9219,18.7656 Z " fill="#000000"/><text fill="#000000" font-family="sans-serif" font-size="14" font-style="italic" lengthAdjust="spacing" textLength="95" x="59" y="27.8467">GraphOptions</text></g><!--class RemotePushOptions--><g id="elem_RemotePushOptions"><rect codeLine="9" fill="#F1F1F1" height="32" id="RemotePushOptions" rx="2.5" ry="2.5" style="stroke:#181818;stroke-width:0.5;" width="173" x="7" y="191"/><ellipse cx="22" cy="207" fill="#B4A7E5" rx="11" ry="11" style="stroke:#181818;stroke-width:1.0;"/><path d="M17.9219,202.7656 L17.9219,200.6094 L25.3125,200.6094 L25.3125,202.7656 L22.8438,202.7656 L22.8438,210.8438 L25.3125,210.8438 L25.3125,213 L17.9219,213 L17.9219,210.8438 L20.3906,210.8438 L20.3906,202.7656 L17.9219,202.7656 Z " fill="#000000"/><text fill="#000000" font-family="sans-serif" font-size="14" font-style="italic" lengthAdjust="spacing" textLength="141" x="36" y="211.8467">RemotePushOptions</text></g><!--reverse link GraphOptions to PushOptions--><g id="link_GraphOptions_PushOptions"><path codeLine="8" d="M93.5,59.61 C93.5,73.31 93.5,88.22 93.5,98.96 " fill="none" id="GraphOptions-backto-PushOptions" style="stroke:#181818;stroke-width:1.0;"/><polygon fill="none" points="86.5,59.27,93.5,39.27,100.5,59.27,86.5,59.27" style="stroke:#181818;stroke-width:1.0;"/></g><!--reverse link PushOptions to RemotePushOptions--><g id="link_PushOptions_RemotePushOptions"><path codeLine="11" d="M93.5,151.61 C93.5,165.31 93.5,180.22 93.5,190.96 " fill="none" id="PushOptions-backto-RemotePushOptions" style="stroke:#181818;stroke-width:1.0;"/><polygon fill="none" points="86.5,151.27,93.5,131.27,100.5,151.27,86.5,151.27" style="stroke:#181818;stroke-width:1.0;"/></g><!--SRC=[POqz3i8m34RtdiBgtXimmS08uWPMuvAeZHtPxe0eTwSIIqBNzxuVcnCNLCnmnd5-ggmSBhA8WYkoxOhOkvW20UNYByZaKOBLQ4gqx2Inaquu4lJtrUAjU1As7jxTftPNnTBAFtJQXg6TgEiFok9qE6WlVnF7w1S0]--></g></svg>