<?xml version="1.0" encoding="UTF-8" standalone="no"?><svg xmlns="http://www.w3.org/2000/svg" xmlns:xlink="http://www.w3.org/1999/xlink" contentScriptType="application/ecmascript" contentStyleType="text/css" height="145px" preserveAspectRatio="none" style="width:184px;height:145px;background:#00000000;" version="1.1" viewBox="0 0 184 145" width="184px" zoomAndPan="magnify"><defs><filter height="300%" id="f1knhl3btyfstk" width="300%" x="-1" y="-1"><feGaussianBlur result="blurOut" stdDeviation="2.0"/><feColorMatrix in="blurOut" result="blurOut2" type="matrix" values="0 0 0 0 0 0 0 0 0 0 0 0 0 0 0 0 0 0 .4 0"/><feOffset dx="4.0" dy="4.0" in="blurOut2" result="blurOut3"/><feBlend in="SourceGraphic" in2="blurOut3" mode="normal"/></filter></defs><g><!--MD5=[42ca966e85dacee95bbc445875a81dcb]
class PushCompletedEvent--><rect codeLine="4" fill="#FEFECE" filter="url(#f1knhl3btyfstk)" height="32" id="PushCompletedEvent" style="stroke:#A80036;stroke-width:1.5;" width="163" x="7" y="99"/><ellipse cx="22" cy="115" fill="#B4A7E5" rx="11" ry="11" style="stroke:#A80036;stroke-width:1.0;"/><path d="M17.9219,110.7656 L17.9219,108.6094 L25.3125,108.6094 L25.3125,110.7656 L22.8438,110.7656 L22.8438,118.8438 L25.3125,118.8438 L25.3125,121 L17.9219,121 L17.9219,118.8438 L20.3906,118.8438 L20.3906,110.7656 L17.9219,110.7656 Z " fill="#000000"/><text fill="#000000" font-family="sans-serif" font-size="12" font-style="italic" lengthAdjust="spacing" textLength="131" x="36" y="119.1543">PushCompletedEvent</text><!--MD5=[2f68110d875f2369bbcea925b7647f36]
class PushEvent--><rect codeLine="6" fill="#FEFECE" filter="url(#f1knhl3btyfstk)" height="32" id="PushEvent" style="stroke:#A80036;stroke-width:1.5;" width="96" x="40.5" y="7"/><ellipse cx="55.5" cy="23" fill="#B4A7E5" rx="11" ry="11" style="stroke:#A80036;stroke-width:1.0;"/><path d="M51.4219,18.7656 L51.4219,16.6094 L58.8125,16.6094 L58.8125,18.7656 L56.3438,18.7656 L56.3438,26.8438 L58.8125,26.8438 L58.8125,29 L51.4219,29 L51.4219,26.8438 L53.8906,26.8438 L53.8906,18.7656 L51.4219,18.7656 Z " fill="#000000"/><text fill="#000000" font-family="sans-serif" font-size="12" font-style="italic" lengthAdjust="spacing" textLength="64" x="69.5" y="27.1543">PushEvent</text><!--MD5=[0d4df63f3ff27ec405aa77a8723813f8]
reverse link PushEvent to PushCompletedEvent--><path codeLine="8" d="M88.5,59.61 C88.5,73.31 88.5,88.22 88.5,98.96 " fill="none" id="PushEvent-backto-PushCompletedEvent" style="stroke:#A80036;stroke-width:1.0;"/><polygon fill="none" points="81.5,59.27,88.5,39.27,95.5,59.27,81.5,59.27" style="stroke:#A80036;stroke-width:1.0;"/><!--MD5=[edfa46ae7c55a524f0aecea5611299c7]
@startuml
skinparam BackgroundColor transparent
hide empty methods
hide empty fields
interface "PushCompletedEvent" {
}
interface "PushEvent" {
}
"PushEvent" <|- - "PushCompletedEvent"
@enduml

PlantUML version 1.2021.14(Fri Nov 12 16:46:50 UTC 2021)
(GPL source distribution)
Java Runtime: OpenJDK Runtime Environment
JVM: OpenJDK 64-Bit Server VM
Default Encoding: UTF-8
Language: en
Country: null
--></g></svg>