<?xml version="1.0" encoding="UTF-8" standalone="no"?><svg xmlns="http://www.w3.org/2000/svg" xmlns:xlink="http://www.w3.org/1999/xlink" contentScriptType="application/ecmascript" contentStyleType="text/css" height="147px" preserveAspectRatio="none" style="width:138px;height:147px;background:#00000000;" version="1.1" viewBox="0 0 138 147" width="138px" zoomAndPan="magnify"><defs><filter height="300%" id="fuj2bdaba8791" width="300%" x="-1" y="-1"><feGaussianBlur result="blurOut" stdDeviation="2.0"/><feColorMatrix in="blurOut" result="blurOut2" type="matrix" values="0 0 0 0 0 0 0 0 0 0 0 0 0 0 0 0 0 0 .4 0"/><feOffset dx="4.0" dy="4.0" in="blurOut2" result="blurOut3"/><feBlend in="SourceGraphic" in2="blurOut3" mode="normal"/></filter></defs><g><!--MD5=[4c7b140fed10e9877852f4b8dc88c33d]
class Quaternion--><rect codeLine="6" fill="#FEFECE" filter="url(#fuj2bdaba8791)" height="23.9688" id="Quaternion" style="stroke:#A80036;stroke-width:1.5;" width="76" x="20" y="17.12"/><text fill="#000000" font-family="sans-serif" font-size="12" lengthAdjust="spacing" textLength="70" x="23" y="33.2587">Quaternion</text><!--MD5=[603b5c4369211cc414255b54ba6df74f]
class Orientation--><rect codeLine="9" fill="#FEFECE" filter="url(#fuj2bdaba8791)" height="32" id="Orientation" style="stroke:#A80036;stroke-width:1.5;" width="102" x="7" y="101.12"/><ellipse cx="22" cy="117.12" fill="#ADD1B2" rx="11" ry="11" style="stroke:#A80036;stroke-width:1.0;"/><path d="M24.9688,122.7606 Q24.3906,123.0575 23.75,123.1981 Q23.1094,123.3544 22.4063,123.3544 Q19.9063,123.3544 18.5781,121.7138 Q17.2656,120.0575 17.2656,116.9325 Q17.2656,113.8075 18.5781,112.1513 Q19.9063,110.495 22.4063,110.495 Q23.1094,110.495 23.75,110.6513 Q24.4063,110.8075 24.9688,111.1044 L24.9688,113.8231 Q24.3438,113.245 23.75,112.9794 Q23.1563,112.6981 22.5313,112.6981 Q21.1875,112.6981 20.5,113.7763 Q19.8125,114.8388 19.8125,116.9325 Q19.8125,119.0263 20.5,120.1044 Q21.1875,121.1669 22.5313,121.1669 Q23.1563,121.1669 23.75,120.9013 Q24.3438,120.62 24.9688,120.0419 L24.9688,122.7606 Z " fill="#000000"/><text fill="#000000" font-family="sans-serif" font-size="12" lengthAdjust="spacing" textLength="70" x="36" y="121.2743">Orientation</text><!--MD5=[afed63d6c5d16767769e47e62ea63651]
reverse link Quaternion to Quaternion--><path codeLine="8" d="M98.64,12.81 C116.09,11.5 131,16.94 131,29.12 C131,45.79 103.05,49.83 78.92,41.23 " fill="none" id="Quaternion-backto-Quaternion" style="stroke:#A80036;stroke-width:1.0;"/><polygon fill="none" points="99.94,19.69,78.92,17.01,97.03,6,99.94,19.69" style="stroke:#A80036;stroke-width:1.0;"/><!--MD5=[ef94c5dc5d3c3818010c68cc49d50cc2]
reverse link Quaternion to Orientation--><path codeLine="11" d="M58,61.51 C58,75.03 58,90.2 58,101.12 " fill="none" id="Quaternion-backto-Orientation" style="stroke:#A80036;stroke-width:1.0;"/><polygon fill="none" points="51,61.36,58,41.36,65,61.36,51,61.36" style="stroke:#A80036;stroke-width:1.0;"/><!--MD5=[7b62f0e3756c3b546a77ba53ee910b65]
@startuml
skinparam BackgroundColor transparent
hide empty methods
hide empty fields
class "Quaternion" {
}
class "Quaternion"
hide "Quaternion" circle
"Quaternion" <|- - "Quaternion"
class "Orientation" {
}
"Quaternion" <|- - "Orientation"
@enduml

PlantUML version 1.2021.14(Fri Nov 12 16:46:50 UTC 2021)
(GPL source distribution)
Java Runtime: OpenJDK Runtime Environment
JVM: OpenJDK 64-Bit Server VM
Default Encoding: UTF-8
Language: en
Country: null
--></g></svg>