<?xml version="1.0" encoding="us-ascii" standalone="no"?><svg xmlns="http://www.w3.org/2000/svg" xmlns:xlink="http://www.w3.org/1999/xlink" contentStyleType="text/css" height="141px" preserveAspectRatio="none" style="width:144px;height:141px;" version="1.1" viewBox="0 0 144 141" width="144px" zoomAndPan="magnify"><defs/><g><!--class Quaternion--><g id="elem_Quaternion"><rect codeLine="6" fill="#F1F1F1" height="26.2969" id="Quaternion" rx="2.5" ry="2.5" style="stroke:#181818;stroke-width:0.5;" width="83" x="19.5" y="16.33"/><text fill="#000000" font-family="sans-serif" font-size="14" lengthAdjust="spacing" textLength="77" x="22.5" y="34.3251">Quaternion</text></g><!--class Orientation--><g id="elem_Orientation"><rect codeLine="9" fill="#F1F1F1" height="32" id="Orientation" rx="2.5" ry="2.5" style="stroke:#181818;stroke-width:0.5;" width="108" x="7" y="102.33"/><ellipse cx="22" cy="118.33" fill="#ADD1B2" rx="11" ry="11" style="stroke:#181818;stroke-width:1.0;"/><path d="M24.9688,123.9706 Q24.3906,124.2675 23.75,124.4081 Q23.1094,124.5644 22.4063,124.5644 Q19.9063,124.5644 18.5781,122.9238 Q17.2656,121.2675 17.2656,118.1425 Q17.2656,115.0175 18.5781,113.3613 Q19.9063,111.705 22.4063,111.705 Q23.1094,111.705 23.75,111.8613 Q24.4063,112.0175 24.9688,112.3144 L24.9688,115.0331 Q24.3438,114.455 23.75,114.1894 Q23.1563,113.9081 22.5313,113.9081 Q21.1875,113.9081 20.5,114.9863 Q19.8125,116.0488 19.8125,118.1425 Q19.8125,120.2363 20.5,121.3144 Q21.1875,122.3769 22.5313,122.3769 Q23.1563,122.3769 23.75,122.1113 Q24.3438,121.83 24.9688,121.2519 L24.9688,123.9706 Z " fill="#000000"/><text fill="#000000" font-family="sans-serif" font-size="14" lengthAdjust="spacing" textLength="76" x="36" y="123.1767">Orientation</text></g><!--reverse link Quaternion to Quaternion--><g id="link_Quaternion_Quaternion"><path codeLine="8" d="M105.84,12.89 C123.13,12.17 137.5,17.65 137.5,29.33 C137.5,45.31 110.58,49.69 86.07,42.44 " fill="none" id="Quaternion-backto-Quaternion" style="stroke:#181818;stroke-width:1.0;"/><polygon fill="none" points="106.96,19.8,86.07,16.22,104.64,6,106.96,19.8" style="stroke:#181818;stroke-width:1.0;"/></g><!--reverse link Quaternion to Orientation--><g id="link_Quaternion_Orientation"><path codeLine="11" d="M61,62.7 C61,76.21 61,91.25 61,102.12 " fill="none" id="Quaternion-backto-Orientation" style="stroke:#181818;stroke-width:1.0;"/><polygon fill="none" points="54,62.43,61,42.43,68,62.43,54,62.43" style="stroke:#181818;stroke-width:1.0;"/></g><!--SRC=[ROv13i8m30JlUONLUt_02Hw0U8AL66eriIl7FI3Wxuq4GetKwtZ7ktLcMT2mm1dZ_31T9Lqqgu4RIcqd4WyJ9m8gYp-Xa4-QwXxTcN8ZCMEjCDnMT39XbG5UuNE0lsuNZ6mnK-ZOwJsElVTxTJLkez3_5GVQFhC1]--></g></svg>