<?xml version="1.0" encoding="UTF-8" standalone="no"?><svg xmlns="http://www.w3.org/2000/svg" xmlns:xlink="http://www.w3.org/1999/xlink" contentScriptType="application/ecmascript" contentStyleType="text/css" height="145px" preserveAspectRatio="none" style="width:323px;height:145px;background:#00000000;" version="1.1" viewBox="0 0 323 145" width="323px" zoomAndPan="magnify"><defs><filter height="300%" id="f1o3ot2yk734vf" width="300%" x="-1" y="-1"><feGaussianBlur result="blurOut" stdDeviation="2.0"/><feColorMatrix in="blurOut" result="blurOut2" type="matrix" values="0 0 0 0 0 0 0 0 0 0 0 0 0 0 0 0 0 0 .4 0"/><feOffset dx="4.0" dy="4.0" in="blurOut2" result="blurOut3"/><feBlend in="SourceGraphic" in2="blurOut3" mode="normal"/></filter></defs><g><!--MD5=[457d44dd3880c8513c660a518493ac6e]
class ReferenceSpace--><rect codeLine="4" fill="#FEFECE" filter="url(#f1o3ot2yk734vf)" height="32" id="ReferenceSpace" style="stroke:#A80036;stroke-width:1.5;" width="135" x="74.5" y="99"/><ellipse cx="89.5" cy="115" fill="#ADD1B2" rx="11" ry="11" style="stroke:#A80036;stroke-width:1.0;"/><path d="M92.4688,120.6406 Q91.8906,120.9375 91.25,121.0781 Q90.6094,121.2344 89.9063,121.2344 Q87.4063,121.2344 86.0781,119.5938 Q84.7656,117.9375 84.7656,114.8125 Q84.7656,111.6875 86.0781,110.0313 Q87.4063,108.375 89.9063,108.375 Q90.6094,108.375 91.25,108.5313 Q91.9063,108.6875 92.4688,108.9844 L92.4688,111.7031 Q91.8438,111.125 91.25,110.8594 Q90.6563,110.5781 90.0313,110.5781 Q88.6875,110.5781 88,111.6563 Q87.3125,112.7188 87.3125,114.8125 Q87.3125,116.9063 88,117.9844 Q88.6875,119.0469 90.0313,119.0469 Q90.6563,119.0469 91.25,118.7813 Q91.8438,118.5 92.4688,117.9219 L92.4688,120.6406 Z " fill="#000000"/><text fill="#000000" font-family="sans-serif" font-size="12" lengthAdjust="spacing" textLength="103" x="103.5" y="119.1543">ReferenceSpace</text><!--MD5=[b714e43f0cea490da1ab103313ecf250]
class DataObject--><rect codeLine="6" fill="#FEFECE" filter="url(#f1o3ot2yk734vf)" height="32" id="DataObject" style="stroke:#A80036;stroke-width:1.5;" width="102" x="7" y="7"/><ellipse cx="22" cy="23" fill="#ADD1B2" rx="11" ry="11" style="stroke:#A80036;stroke-width:1.0;"/><path d="M24.9688,28.6406 Q24.3906,28.9375 23.75,29.0781 Q23.1094,29.2344 22.4063,29.2344 Q19.9063,29.2344 18.5781,27.5938 Q17.2656,25.9375 17.2656,22.8125 Q17.2656,19.6875 18.5781,18.0313 Q19.9063,16.375 22.4063,16.375 Q23.1094,16.375 23.75,16.5313 Q24.4063,16.6875 24.9688,16.9844 L24.9688,19.7031 Q24.3438,19.125 23.75,18.8594 Q23.1563,18.5781 22.5313,18.5781 Q21.1875,18.5781 20.5,19.6563 Q19.8125,20.7188 19.8125,22.8125 Q19.8125,24.9063 20.5,25.9844 Q21.1875,27.0469 22.5313,27.0469 Q23.1563,27.0469 23.75,26.7813 Q24.3438,26.5 24.9688,25.9219 L24.9688,28.6406 Z " fill="#000000"/><text fill="#000000" font-family="sans-serif" font-size="12" lengthAdjust="spacing" textLength="70" x="36" y="27.1543">DataObject</text><!--MD5=[11a0d6427268d4034923f166a5fdbc22]
class TransformationSpace--><rect codeLine="9" fill="#FEFECE" filter="url(#f1o3ot2yk734vf)" height="32" id="TransformationSpace" style="stroke:#A80036;stroke-width:1.5;" width="165" x="144.5" y="7"/><ellipse cx="159.5" cy="23" fill="#B4A7E5" rx="11" ry="11" style="stroke:#A80036;stroke-width:1.0;"/><path d="M155.4219,18.7656 L155.4219,16.6094 L162.8125,16.6094 L162.8125,18.7656 L160.3438,18.7656 L160.3438,26.8438 L162.8125,26.8438 L162.8125,29 L155.4219,29 L155.4219,26.8438 L157.8906,26.8438 L157.8906,18.7656 L155.4219,18.7656 Z " fill="#000000"/><text fill="#000000" font-family="sans-serif" font-size="12" font-style="italic" lengthAdjust="spacing" textLength="133" x="173.5" y="27.1543">TransformationSpace</text><!--MD5=[892e831a8e7c02144a9c781d3c85130e]
reverse link DataObject to ReferenceSpace--><path codeLine="8" d="M86.23,54.25 C100.27,69.29 116.61,86.8 127.96,98.96 " fill="none" id="DataObject-backto-ReferenceSpace" style="stroke:#A80036;stroke-width:1.0;"/><polygon fill="none" points="80.78,58.66,72.25,39.27,91.01,49.11,80.78,58.66" style="stroke:#A80036;stroke-width:1.0;"/><!--MD5=[6d2d75231d5c7d6ba24ba2a7b0014915]
reverse link TransformationSpace to ReferenceSpace--><path codeLine="11" d="M198.43,54.25 C184.23,69.29 167.69,86.8 156.21,98.96 " fill="none" id="TransformationSpace-backto-ReferenceSpace" style="stroke:#A80036;stroke-width:1.0;stroke-dasharray:7.0,7.0;"/><polygon fill="none" points="193.76,49,212.58,39.27,203.94,58.61,193.76,49" style="stroke:#A80036;stroke-width:1.0;"/><!--MD5=[845eccc32e0487a5a30c58b5842daeb9]
@startuml
skinparam BackgroundColor transparent
hide empty methods
hide empty fields
class "ReferenceSpace" {
}
class "DataObject" {
}
"DataObject" <|- - "ReferenceSpace"
interface "TransformationSpace" {
}
"TransformationSpace" <|.. "ReferenceSpace"
@enduml

PlantUML version 1.2021.14(Fri Nov 12 16:46:50 UTC 2021)
(GPL source distribution)
Java Runtime: OpenJDK Runtime Environment
JVM: OpenJDK 64-Bit Server VM
Default Encoding: UTF-8
Language: en
Country: null
--></g></svg>