<?xml version="1.0" encoding="us-ascii" standalone="no"?><svg xmlns="http://www.w3.org/2000/svg" xmlns:xlink="http://www.w3.org/1999/xlink" contentStyleType="text/css" height="138px" preserveAspectRatio="none" style="width:336px;height:138px;" version="1.1" viewBox="0 0 336 138" width="336px" zoomAndPan="magnify"><defs/><g><!--class ReferenceSpace--><g id="elem_ReferenceSpace"><rect codeLine="4" fill="#F1F1F1" height="32" id="ReferenceSpace" rx="2.5" ry="2.5" style="stroke:#181818;stroke-width:0.5;" width="147" x="77" y="99"/><ellipse cx="92" cy="115" fill="#ADD1B2" rx="11" ry="11" style="stroke:#181818;stroke-width:1.0;"/><path d="M94.9688,120.6406 Q94.3906,120.9375 93.75,121.0781 Q93.1094,121.2344 92.4063,121.2344 Q89.9063,121.2344 88.5781,119.5938 Q87.2656,117.9375 87.2656,114.8125 Q87.2656,111.6875 88.5781,110.0313 Q89.9063,108.375 92.4063,108.375 Q93.1094,108.375 93.75,108.5313 Q94.4063,108.6875 94.9688,108.9844 L94.9688,111.7031 Q94.3438,111.125 93.75,110.8594 Q93.1563,110.5781 92.5313,110.5781 Q91.1875,110.5781 90.5,111.6563 Q89.8125,112.7188 89.8125,114.8125 Q89.8125,116.9063 90.5,117.9844 Q91.1875,119.0469 92.5313,119.0469 Q93.1563,119.0469 93.75,118.7813 Q94.3438,118.5 94.9688,117.9219 L94.9688,120.6406 Z " fill="#000000"/><text fill="#000000" font-family="sans-serif" font-size="14" lengthAdjust="spacing" textLength="115" x="106" y="119.8467">ReferenceSpace</text></g><!--class DataObject--><g id="elem_DataObject"><rect codeLine="6" fill="#F1F1F1" height="32" id="DataObject" rx="2.5" ry="2.5" style="stroke:#181818;stroke-width:0.5;" width="109" x="7" y="7"/><ellipse cx="22" cy="23" fill="#ADD1B2" rx="11" ry="11" style="stroke:#181818;stroke-width:1.0;"/><path d="M24.9688,28.6406 Q24.3906,28.9375 23.75,29.0781 Q23.1094,29.2344 22.4063,29.2344 Q19.9063,29.2344 18.5781,27.5938 Q17.2656,25.9375 17.2656,22.8125 Q17.2656,19.6875 18.5781,18.0313 Q19.9063,16.375 22.4063,16.375 Q23.1094,16.375 23.75,16.5313 Q24.4063,16.6875 24.9688,16.9844 L24.9688,19.7031 Q24.3438,19.125 23.75,18.8594 Q23.1563,18.5781 22.5313,18.5781 Q21.1875,18.5781 20.5,19.6563 Q19.8125,20.7188 19.8125,22.8125 Q19.8125,24.9063 20.5,25.9844 Q21.1875,27.0469 22.5313,27.0469 Q23.1563,27.0469 23.75,26.7813 Q24.3438,26.5 24.9688,25.9219 L24.9688,28.6406 Z " fill="#000000"/><text fill="#000000" font-family="sans-serif" font-size="14" lengthAdjust="spacing" textLength="77" x="36" y="27.8467">DataObject</text></g><!--class TransformationSpace--><g id="elem_TransformationSpace"><rect codeLine="9" fill="#F1F1F1" height="32" id="TransformationSpace" rx="2.5" ry="2.5" style="stroke:#181818;stroke-width:0.5;" width="178" x="151.5" y="7"/><ellipse cx="166.5" cy="23" fill="#B4A7E5" rx="11" ry="11" style="stroke:#181818;stroke-width:1.0;"/><path d="M162.4219,18.7656 L162.4219,16.6094 L169.8125,16.6094 L169.8125,18.7656 L167.3438,18.7656 L167.3438,26.8438 L169.8125,26.8438 L169.8125,29 L162.4219,29 L162.4219,26.8438 L164.8906,26.8438 L164.8906,18.7656 L162.4219,18.7656 Z " fill="#000000"/><text fill="#000000" font-family="sans-serif" font-size="14" font-style="italic" lengthAdjust="spacing" textLength="146" x="180.5" y="27.8467">TransformationSpace</text></g><!--reverse link DataObject to ReferenceSpace--><g id="link_DataObject_ReferenceSpace"><path codeLine="8" d="M90.94,53.77 C105.91,68.91 123.47,86.67 135.63,98.96 " fill="none" id="DataObject-backto-ReferenceSpace" style="stroke:#181818;stroke-width:1.0;"/><polygon fill="none" points="85.68,58.41,76.6,39.27,95.64,48.57,85.68,58.41" style="stroke:#181818;stroke-width:1.0;"/></g><!--reverse link TransformationSpace to ReferenceSpace--><g id="link_TransformationSpace_ReferenceSpace"><path codeLine="11" d="M210.73,53.77 C195.59,68.91 177.83,86.67 165.54,98.96 " fill="none" id="TransformationSpace-backto-ReferenceSpace" style="stroke:#181818;stroke-width:1.0;stroke-dasharray:7.0,7.0;"/><polygon fill="none" points="206.14,48.46,225.23,39.27,216.04,58.36,206.14,48.46" style="stroke:#181818;stroke-width:1.0;"/></g><!--SRC=[ROv12i8m44NtESMGVNk2hjIze5vWJ2OsDic4P5o8zUv6HAZKtUSz_kVNoQUC1IDiq4oNmhTajnouW1HCjIbAeaPl2IXckKCa6TdM9NAUGYCcOAsW3-IebGmTCnhIy53FhzgXuFvy9ICV_0E6kUjMRUMJK74jWZwz3pak4SLpMgp_DyFSzwkz5m00]--></g></svg>