<?xml version="1.0" encoding="UTF-8" standalone="no"?><svg xmlns="http://www.w3.org/2000/svg" xmlns:xlink="http://www.w3.org/1999/xlink" contentScriptType="application/ecmascript" contentStyleType="text/css" height="145px" preserveAspectRatio="none" style="width:288px;height:145px;background:#00000000;" version="1.1" viewBox="0 0 288 145" width="288px" zoomAndPan="magnify"><defs><filter height="300%" id="fnjl0zr9w9bjs" width="300%" x="-1" y="-1"><feGaussianBlur result="blurOut" stdDeviation="2.0"/><feColorMatrix in="blurOut" result="blurOut2" type="matrix" values="0 0 0 0 0 0 0 0 0 0 0 0 0 0 0 0 0 0 .4 0"/><feOffset dx="4.0" dy="4.0" in="blurOut2" result="blurOut3"/><feBlend in="SourceGraphic" in2="blurOut3" mode="normal"/></filter></defs><g><!--MD5=[6126b1fe5267c4eb3c9344eec2151870]
class RelativeAngle--><rect codeLine="4" fill="#FEFECE" filter="url(#fnjl0zr9w9bjs)" height="32" id="RelativeAngle" style="stroke:#A80036;stroke-width:1.5;" width="116" x="82.5" y="99"/><ellipse cx="97.5" cy="115" fill="#ADD1B2" rx="11" ry="11" style="stroke:#A80036;stroke-width:1.0;"/><path d="M100.4688,120.6406 Q99.8906,120.9375 99.25,121.0781 Q98.6094,121.2344 97.9063,121.2344 Q95.4063,121.2344 94.0781,119.5938 Q92.7656,117.9375 92.7656,114.8125 Q92.7656,111.6875 94.0781,110.0313 Q95.4063,108.375 97.9063,108.375 Q98.6094,108.375 99.25,108.5313 Q99.9063,108.6875 100.4688,108.9844 L100.4688,111.7031 Q99.8438,111.125 99.25,110.8594 Q98.6563,110.5781 98.0313,110.5781 Q96.6875,110.5781 96,111.6563 Q95.3125,112.7188 95.3125,114.8125 Q95.3125,116.9063 96,117.9844 Q96.6875,119.0469 98.0313,119.0469 Q98.6563,119.0469 99.25,118.7813 Q99.8438,118.5 100.4688,117.9219 L100.4688,120.6406 Z " fill="#000000"/><text fill="#000000" font-family="sans-serif" font-size="12" lengthAdjust="spacing" textLength="84" x="111.5" y="119.1543">RelativeAngle</text><!--MD5=[92c721f0b62fc3ea560f8abc43cb5040]
class RelativePosition<number, AngleUnit>--><rect codeLine="6" fill="#FEFECE" filter="url(#fnjl0zr9w9bjs)" height="32" id="RelativePosition&lt;number, AngleUnit&gt;" style="stroke:#A80036;stroke-width:1.5;" width="267" x="7" y="7"/><ellipse cx="22" cy="23" fill="#ADD1B2" rx="11" ry="11" style="stroke:#A80036;stroke-width:1.0;"/><path d="M24.9688,28.6406 Q24.3906,28.9375 23.75,29.0781 Q23.1094,29.2344 22.4063,29.2344 Q19.9063,29.2344 18.5781,27.5938 Q17.2656,25.9375 17.2656,22.8125 Q17.2656,19.6875 18.5781,18.0313 Q19.9063,16.375 22.4063,16.375 Q23.1094,16.375 23.75,16.5313 Q24.4063,16.6875 24.9688,16.9844 L24.9688,19.7031 Q24.3438,19.125 23.75,18.8594 Q23.1563,18.5781 22.5313,18.5781 Q21.1875,18.5781 20.5,19.6563 Q19.8125,20.7188 19.8125,22.8125 Q19.8125,24.9063 20.5,25.9844 Q21.1875,27.0469 22.5313,27.0469 Q23.1563,27.0469 23.75,26.7813 Q24.3438,26.5 24.9688,25.9219 L24.9688,28.6406 Z " fill="#000000"/><text fill="#000000" font-family="sans-serif" font-size="12" lengthAdjust="spacing" textLength="235" x="36" y="27.1543">RelativePosition&lt;number, AngleUnit&gt;</text><!--MD5=[764053fd70c5a5b6e299fd8c36148d43]
reverse link RelativePosition<number, AngleUnit> to RelativeAngle--><path codeLine="8" d="M140.5,59.61 C140.5,73.31 140.5,88.22 140.5,98.96 " fill="none" id="RelativePosition&lt;number, AngleUnit&gt;-backto-RelativeAngle" style="stroke:#A80036;stroke-width:1.0;"/><polygon fill="none" points="133.5,59.27,140.5,39.27,147.5,59.27,133.5,59.27" style="stroke:#A80036;stroke-width:1.0;"/><!--MD5=[e099b04f86008508b2f58285e51b7d46]
@startuml
skinparam BackgroundColor transparent
hide empty methods
hide empty fields
class "RelativeAngle" {
}
class "RelativePosition<number, AngleUnit>" {
}
"RelativePosition<number, AngleUnit>" <|- - "RelativeAngle"
@enduml

PlantUML version 1.2021.14(Fri Nov 12 16:46:50 UTC 2021)
(GPL source distribution)
Java Runtime: OpenJDK Runtime Environment
JVM: OpenJDK 64-Bit Server VM
Default Encoding: UTF-8
Language: en
Country: null
--></g></svg>