<?xml version="1.0" encoding="UTF-8" standalone="no"?><svg xmlns="http://www.w3.org/2000/svg" xmlns:xlink="http://www.w3.org/1999/xlink" contentScriptType="application/ecmascript" contentStyleType="text/css" height="369px" preserveAspectRatio="none" style="width:721px;height:369px;background:#00000000;" version="1.1" viewBox="0 0 721 369" width="721px" zoomAndPan="magnify"><defs><filter height="300%" id="f1m7ayvuoxz2m" width="300%" x="-1" y="-1"><feGaussianBlur result="blurOut" stdDeviation="2.0"/><feColorMatrix in="blurOut" result="blurOut2" type="matrix" values="0 0 0 0 0 0 0 0 0 0 0 0 0 0 0 0 0 0 .4 0"/><feOffset dx="4.0" dy="4.0" in="blurOut2" result="blurOut3"/><feBlend in="SourceGraphic" in2="blurOut3" mode="normal"/></filter></defs><g><!--MD5=[68d2a7b38956349ea972da5995307da5]
class RelativeDistance--><rect codeLine="4" fill="#FEFECE" filter="url(#f1m7ayvuoxz2m)" height="150.4375" id="RelativeDistance" style="stroke:#A80036;stroke-width:1.5;" width="574" x="70" y="205"/><ellipse cx="300.75" cy="221" fill="#ADD1B2" rx="11" ry="11" style="stroke:#A80036;stroke-width:1.0;"/><path d="M303.7188,226.6406 Q303.1406,226.9375 302.5,227.0781 Q301.8594,227.2344 301.1563,227.2344 Q298.6563,227.2344 297.3281,225.5938 Q296.0156,223.9375 296.0156,220.8125 Q296.0156,217.6875 297.3281,216.0313 Q298.6563,214.375 301.1563,214.375 Q301.8594,214.375 302.5,214.5313 Q303.1563,214.6875 303.7188,214.9844 L303.7188,217.7031 Q303.0938,217.125 302.5,216.8594 Q301.9063,216.5781 301.2813,216.5781 Q299.9375,216.5781 299.25,217.6563 Q298.5625,218.7188 298.5625,220.8125 Q298.5625,222.9063 299.25,223.9844 Q299.9375,225.0469 301.2813,225.0469 Q301.9063,225.0469 302.5,224.7813 Q303.0938,224.5 303.7188,223.9219 L303.7188,226.6406 Z " fill="#000000"/><text fill="#000000" font-family="sans-serif" font-size="12" lengthAdjust="spacing" textLength="104" x="321.25" y="225.1543">RelativeDistance</text><line style="stroke:#A80036;stroke-width:1.5;" x1="71" x2="643" y1="237" y2="237"/><ellipse cx="81" cy="248" rx="3" ry="3" style="stroke:#038048;stroke-width:1.0;fill:none;"/><text fill="#000000" font-family="sans-serif" font-size="11" lengthAdjust="spacing" textLength="142" x="90" y="251.2104">distanceUnit : LengthUnit</text><ellipse cx="81" cy="260.8047" rx="3" ry="3" style="stroke:#038048;stroke-width:1.0;fill:none;"/><text fill="#000000" font-family="sans-serif" font-size="11" lengthAdjust="spacing" textLength="163" x="90" y="264.0151">referenceObjectType : string</text><ellipse cx="81" cy="273.6094" rx="3" ry="3" style="stroke:#038048;stroke-width:1.0;fill:none;"/><text fill="#000000" font-family="sans-serif" font-size="11" lengthAdjust="spacing" textLength="155" x="90" y="276.8198">referenceObjectUID : string</text><ellipse cx="81" cy="286.4141" rx="3" ry="3" style="stroke:#038048;stroke-width:1.0;fill:none;"/><text fill="#000000" font-family="sans-serif" font-size="11" lengthAdjust="spacing" textLength="142" x="90" y="289.6245">referenceValue : number</text><ellipse cx="81" cy="299.2188" rx="3" ry="3" style="stroke:#038048;stroke-width:1.0;fill:none;"/><text fill="#000000" font-family="sans-serif" font-size="11" lengthAdjust="spacing" textLength="117" x="90" y="302.4292">timestamp : number</text><line style="stroke:#A80036;stroke-width:1.5;" x1="71" x2="643" y1="309.0234" y2="309.0234"/><ellipse cx="81" cy="320.0234" fill="#84BE84" rx="3" ry="3" style="stroke:#038048;stroke-width:1.0;"/><text fill="#000000" font-family="sans-serif" font-size="11" lengthAdjust="spacing" textLength="143" x="90" y="323.2339">clone() : RelativeDistance</text><ellipse cx="81" cy="332.8281" fill="#84BE84" rx="3" ry="3" style="stroke:#038048;stroke-width:1.0;"/><text fill="#000000" font-family="sans-serif" font-size="11" lengthAdjust="spacing" textLength="249" x="90" y="336.0386">equals(position: RelativeDistance) : boolean</text><ellipse cx="81" cy="345.6328" fill="#84BE84" rx="3" ry="3" style="stroke:#038048;stroke-width:1.0;"/><text fill="#000000" font-family="sans-serif" font-size="11" lengthAdjust="spacing" textLength="548" x="90" y="348.8433">setAccuracy(accuracy: number | Accuracy&lt;LengthUnit, any&gt;, unit: LengthUnit) : RelativeDistance</text><!--MD5=[f329e7a14b458fa1654cd2540ae36dd4]
class RelativePosition<number, LengthUnit>--><rect codeLine="14" fill="#FEFECE" filter="url(#f1m7ayvuoxz2m)" height="137.6328" id="RelativePosition&lt;number, LengthUnit&gt;" style="stroke:#A80036;stroke-width:1.5;" width="700" x="7" y="7"/><ellipse cx="231.25" cy="23" fill="#ADD1B2" rx="11" ry="11" style="stroke:#A80036;stroke-width:1.0;"/><path d="M234.2188,28.6406 Q233.6406,28.9375 233,29.0781 Q232.3594,29.2344 231.6563,29.2344 Q229.1563,29.2344 227.8281,27.5938 Q226.5156,25.9375 226.5156,22.8125 Q226.5156,19.6875 227.8281,18.0313 Q229.1563,16.375 231.6563,16.375 Q232.3594,16.375 233,16.5313 Q233.6563,16.6875 234.2188,16.9844 L234.2188,19.7031 Q233.5938,19.125 233,18.8594 Q232.4063,18.5781 231.7813,18.5781 Q230.4375,18.5781 229.75,19.6563 Q229.0625,20.7188 229.0625,22.8125 Q229.0625,24.9063 229.75,25.9844 Q230.4375,27.0469 231.7813,27.0469 Q232.4063,27.0469 233,26.7813 Q233.5938,26.5 234.2188,25.9219 L234.2188,28.6406 Z " fill="#000000"/><text fill="#000000" font-family="sans-serif" font-size="12" lengthAdjust="spacing" textLength="243" x="251.75" y="27.1543">RelativePosition&lt;number, LengthUnit&gt;</text><line style="stroke:#A80036;stroke-width:1.5;" x1="8" x2="706" y1="39" y2="39"/><ellipse cx="18" cy="50" rx="3" ry="3" style="stroke:#038048;stroke-width:1.0;fill:none;"/><text fill="#000000" font-family="sans-serif" font-size="11" lengthAdjust="spacing" textLength="163" x="27" y="53.2104">referenceObjectType : string</text><ellipse cx="18" cy="62.8047" rx="3" ry="3" style="stroke:#038048;stroke-width:1.0;fill:none;"/><text fill="#000000" font-family="sans-serif" font-size="11" lengthAdjust="spacing" textLength="155" x="27" y="66.0151">referenceObjectUID : string</text><ellipse cx="18" cy="75.6094" rx="3" ry="3" style="stroke:#038048;stroke-width:1.0;fill:none;"/><text fill="#000000" font-family="sans-serif" font-size="11" lengthAdjust="spacing" textLength="142" x="27" y="78.8198">referenceValue : number</text><ellipse cx="18" cy="88.4141" rx="3" ry="3" style="stroke:#038048;stroke-width:1.0;fill:none;"/><text fill="#000000" font-family="sans-serif" font-size="11" lengthAdjust="spacing" textLength="117" x="27" y="91.6245">timestamp : number</text><line style="stroke:#A80036;stroke-width:1.5;" x1="8" x2="706" y1="98.2188" y2="98.2188"/><ellipse cx="18" cy="109.2188" fill="#84BE84" rx="3" ry="3" style="stroke:#038048;stroke-width:1.0;"/><text fill="#000000" font-family="sans-serif" font-size="11" lengthAdjust="spacing" textLength="269" x="27" y="112.4292">clone() : RelativePosition&lt;number, LengthUnit&gt;</text><ellipse cx="18" cy="122.0234" fill="#84BE84" rx="3" ry="3" style="stroke:#038048;stroke-width:1.0;"/><text fill="#000000" font-family="sans-serif" font-size="11" lengthAdjust="spacing" textLength="375" x="27" y="125.2339">equals(position: RelativePosition&lt;number, LengthUnit&gt;) : boolean</text><ellipse cx="18" cy="134.8281" fill="#84BE84" rx="3" ry="3" style="stroke:#038048;stroke-width:1.0;"/><text fill="#000000" font-family="sans-serif" font-size="11" lengthAdjust="spacing" textLength="674" x="27" y="138.0386">setAccuracy(accuracy: number | Accuracy&lt;LengthUnit, any&gt;, unit: LengthUnit) : RelativePosition&lt;number, LengthUnit&gt;</text><!--MD5=[a0969f0179bfe62feeab32b6cee19c19]
reverse link RelativePosition<number, LengthUnit> to RelativeDistance--><path codeLine="23" d="M357,165.45 C357,178.63 357,192.11 357,204.95 " fill="none" id="RelativePosition&lt;number, LengthUnit&gt;-backto-RelativeDistance" style="stroke:#A80036;stroke-width:1.0;"/><polygon fill="none" points="350,165.11,357,145.11,364,165.11,350,165.11" style="stroke:#A80036;stroke-width:1.0;"/><!--MD5=[230f5cf1041dcefa05c6c1276c402c9f]
@startuml
skinparam BackgroundColor transparent
hide empty methods
hide empty fields
class "RelativeDistance" {
    +distanceUnit : LengthUnit
    +referenceObjectType : string
    +referenceObjectUID : string
    +referenceValue : number
    +timestamp : number
    +clone() : RelativeDistance
    +equals(position: RelativeDistance) : boolean
    +setAccuracy(accuracy: number | Accuracy<LengthUnit, any>, unit: LengthUnit) : RelativeDistance
}
class "RelativePosition<number, LengthUnit>" {
    +referenceObjectType : string
    +referenceObjectUID : string
    +referenceValue : number
    +timestamp : number
    +clone() : RelativePosition<number, LengthUnit>
    +equals(position: RelativePosition<number, LengthUnit>) : boolean
    +setAccuracy(accuracy: number | Accuracy<LengthUnit, any>, unit: LengthUnit) : RelativePosition<number, LengthUnit>
}
"RelativePosition<number, LengthUnit>" <|- - "RelativeDistance"
@enduml

PlantUML version 1.2021.14(Fri Nov 12 16:46:50 UTC 2021)
(GPL source distribution)
Java Runtime: OpenJDK Runtime Environment
JVM: OpenJDK 64-Bit Server VM
Default Encoding: UTF-8
Language: en
Country: null
--></g></svg>