<?xml version="1.0" encoding="UTF-8" standalone="no"?><svg xmlns="http://www.w3.org/2000/svg" xmlns:xlink="http://www.w3.org/1999/xlink" contentScriptType="application/ecmascript" contentStyleType="text/css" height="237px" preserveAspectRatio="none" style="width:722px;height:237px;background:#00000000;" version="1.1" viewBox="0 0 722 237" width="722px" zoomAndPan="magnify"><defs><filter height="300%" id="fal24nhe05s2r" width="300%" x="-1" y="-1"><feGaussianBlur result="blurOut" stdDeviation="2.0"/><feColorMatrix in="blurOut" result="blurOut2" type="matrix" values="0 0 0 0 0 0 0 0 0 0 0 0 0 0 0 0 0 0 .4 0"/><feOffset dx="4.0" dy="4.0" in="blurOut2" result="blurOut3"/><feBlend in="SourceGraphic" in2="blurOut3" mode="normal"/></filter></defs><g><!--MD5=[416e37f2dba3ac017d79135bd58572c7]
class RelativePosition<T, U>--><rect codeLine="4" fill="#FEFECE" filter="url(#fal24nhe05s2r)" height="32" id="RelativePosition&lt;T, U&gt;" style="stroke:#A80036;stroke-width:1.5;" width="175" x="234.5" y="99"/><ellipse cx="249.5" cy="115" fill="#ADD1B2" rx="11" ry="11" style="stroke:#A80036;stroke-width:1.0;"/><path d="M252.4688,120.6406 Q251.8906,120.9375 251.25,121.0781 Q250.6094,121.2344 249.9063,121.2344 Q247.4063,121.2344 246.0781,119.5938 Q244.7656,117.9375 244.7656,114.8125 Q244.7656,111.6875 246.0781,110.0313 Q247.4063,108.375 249.9063,108.375 Q250.6094,108.375 251.25,108.5313 Q251.9063,108.6875 252.4688,108.9844 L252.4688,111.7031 Q251.8438,111.125 251.25,110.8594 Q250.6563,110.5781 250.0313,110.5781 Q248.6875,110.5781 248,111.6563 Q247.3125,112.7188 247.3125,114.8125 Q247.3125,116.9063 248,117.9844 Q248.6875,119.0469 250.0313,119.0469 Q250.6563,119.0469 251.25,118.7813 Q251.8438,118.5 252.4688,117.9219 L252.4688,120.6406 Z " fill="#000000"/><text fill="#000000" font-family="sans-serif" font-size="12" lengthAdjust="spacing" textLength="143" x="263.5" y="119.1543">RelativePosition&lt;T, U&gt;</text><!--MD5=[efe4deb92e29646ed3045df87b68c117]
class Position<U>--><rect codeLine="6" fill="#FEFECE" filter="url(#fal24nhe05s2r)" height="32" id="Position&lt;U&gt;" style="stroke:#A80036;stroke-width:1.5;" width="109" x="267.5" y="7"/><ellipse cx="282.5" cy="23" fill="#B4A7E5" rx="11" ry="11" style="stroke:#A80036;stroke-width:1.0;"/><path d="M278.4219,18.7656 L278.4219,16.6094 L285.8125,16.6094 L285.8125,18.7656 L283.3438,18.7656 L283.3438,26.8438 L285.8125,26.8438 L285.8125,29 L278.4219,29 L278.4219,26.8438 L280.8906,26.8438 L280.8906,18.7656 L278.4219,18.7656 Z " fill="#000000"/><text fill="#000000" font-family="sans-serif" font-size="12" font-style="italic" lengthAdjust="spacing" textLength="77" x="296.5" y="27.1543">Position&lt;U&gt;</text><!--MD5=[6126b1fe5267c4eb3c9344eec2151870]
class RelativeAngle--><rect codeLine="9" fill="#FEFECE" filter="url(#fal24nhe05s2r)" height="32" id="RelativeAngle" style="stroke:#A80036;stroke-width:1.5;" width="116" x="7" y="191"/><ellipse cx="22" cy="207" fill="#ADD1B2" rx="11" ry="11" style="stroke:#A80036;stroke-width:1.0;"/><path d="M24.9688,212.6406 Q24.3906,212.9375 23.75,213.0781 Q23.1094,213.2344 22.4063,213.2344 Q19.9063,213.2344 18.5781,211.5938 Q17.2656,209.9375 17.2656,206.8125 Q17.2656,203.6875 18.5781,202.0313 Q19.9063,200.375 22.4063,200.375 Q23.1094,200.375 23.75,200.5313 Q24.4063,200.6875 24.9688,200.9844 L24.9688,203.7031 Q24.3438,203.125 23.75,202.8594 Q23.1563,202.5781 22.5313,202.5781 Q21.1875,202.5781 20.5,203.6563 Q19.8125,204.7188 19.8125,206.8125 Q19.8125,208.9063 20.5,209.9844 Q21.1875,211.0469 22.5313,211.0469 Q23.1563,211.0469 23.75,210.7813 Q24.3438,210.5 24.9688,209.9219 L24.9688,212.6406 Z " fill="#000000"/><text fill="#000000" font-family="sans-serif" font-size="12" lengthAdjust="spacing" textLength="84" x="36" y="211.1543">RelativeAngle</text><!--MD5=[68d2a7b38956349ea972da5995307da5]
class RelativeDistance--><rect codeLine="12" fill="#FEFECE" filter="url(#fal24nhe05s2r)" height="32" id="RelativeDistance" style="stroke:#A80036;stroke-width:1.5;" width="136" x="158" y="191"/><ellipse cx="173" cy="207" fill="#ADD1B2" rx="11" ry="11" style="stroke:#A80036;stroke-width:1.0;"/><path d="M175.9688,212.6406 Q175.3906,212.9375 174.75,213.0781 Q174.1094,213.2344 173.4063,213.2344 Q170.9063,213.2344 169.5781,211.5938 Q168.2656,209.9375 168.2656,206.8125 Q168.2656,203.6875 169.5781,202.0313 Q170.9063,200.375 173.4063,200.375 Q174.1094,200.375 174.75,200.5313 Q175.4063,200.6875 175.9688,200.9844 L175.9688,203.7031 Q175.3438,203.125 174.75,202.8594 Q174.1563,202.5781 173.5313,202.5781 Q172.1875,202.5781 171.5,203.6563 Q170.8125,204.7188 170.8125,206.8125 Q170.8125,208.9063 171.5,209.9844 Q172.1875,211.0469 173.5313,211.0469 Q174.1563,211.0469 174.75,210.7813 Q175.3438,210.5 175.9688,209.9219 L175.9688,212.6406 Z " fill="#000000"/><text fill="#000000" font-family="sans-serif" font-size="12" lengthAdjust="spacing" textLength="104" x="187" y="211.1543">RelativeDistance</text><!--MD5=[85603531f39a763f688d497e97ddf507]
class RelativeAngularVelocity--><rect codeLine="15" fill="#FEFECE" filter="url(#fal24nhe05s2r)" height="32" id="RelativeAngularVelocity" style="stroke:#A80036;stroke-width:1.5;" width="177" x="329.5" y="191"/><ellipse cx="344.5" cy="207" fill="#ADD1B2" rx="11" ry="11" style="stroke:#A80036;stroke-width:1.0;"/><path d="M347.4688,212.6406 Q346.8906,212.9375 346.25,213.0781 Q345.6094,213.2344 344.9063,213.2344 Q342.4063,213.2344 341.0781,211.5938 Q339.7656,209.9375 339.7656,206.8125 Q339.7656,203.6875 341.0781,202.0313 Q342.4063,200.375 344.9063,200.375 Q345.6094,200.375 346.25,200.5313 Q346.9063,200.6875 347.4688,200.9844 L347.4688,203.7031 Q346.8438,203.125 346.25,202.8594 Q345.6563,202.5781 345.0313,202.5781 Q343.6875,202.5781 343,203.6563 Q342.3125,204.7188 342.3125,206.8125 Q342.3125,208.9063 343,209.9844 Q343.6875,211.0469 345.0313,211.0469 Q345.6563,211.0469 346.25,210.7813 Q346.8438,210.5 347.4688,209.9219 L347.4688,212.6406 Z " fill="#000000"/><text fill="#000000" font-family="sans-serif" font-size="12" lengthAdjust="spacing" textLength="145" x="358.5" y="211.1543">RelativeAngularVelocity</text><!--MD5=[e7bae51f7717f90881d3e37ab3f1264c]
class RelativeLinearVelocity--><rect codeLine="18" fill="#FEFECE" filter="url(#fal24nhe05s2r)" height="32" id="RelativeLinearVelocity" style="stroke:#A80036;stroke-width:1.5;" width="167" x="541.5" y="191"/><ellipse cx="556.5" cy="207" fill="#ADD1B2" rx="11" ry="11" style="stroke:#A80036;stroke-width:1.0;"/><path d="M559.4688,212.6406 Q558.8906,212.9375 558.25,213.0781 Q557.6094,213.2344 556.9063,213.2344 Q554.4063,213.2344 553.0781,211.5938 Q551.7656,209.9375 551.7656,206.8125 Q551.7656,203.6875 553.0781,202.0313 Q554.4063,200.375 556.9063,200.375 Q557.6094,200.375 558.25,200.5313 Q558.9063,200.6875 559.4688,200.9844 L559.4688,203.7031 Q558.8438,203.125 558.25,202.8594 Q557.6563,202.5781 557.0313,202.5781 Q555.6875,202.5781 555,203.6563 Q554.3125,204.7188 554.3125,206.8125 Q554.3125,208.9063 555,209.9844 Q555.6875,211.0469 557.0313,211.0469 Q557.6563,211.0469 558.25,210.7813 Q558.8438,210.5 559.4688,209.9219 L559.4688,212.6406 Z " fill="#000000"/><text fill="#000000" font-family="sans-serif" font-size="12" lengthAdjust="spacing" textLength="135" x="570.5" y="211.1543">RelativeLinearVelocity</text><!--MD5=[e429a26d80a6df0729a2b66a06a4f5b9]
reverse link Position<U> to RelativePosition<T, U>--><path codeLine="8" d="M322,59.61 C322,73.31 322,88.22 322,98.96 " fill="none" id="Position&lt;U&gt;-backto-RelativePosition&lt;T, U&gt;" style="stroke:#A80036;stroke-width:1.0;stroke-dasharray:7.0,7.0;"/><polygon fill="none" points="315,59.27,322,39.27,329,59.27,315,59.27" style="stroke:#A80036;stroke-width:1.0;"/><!--MD5=[75f33f55f4d0096d2895df89eb9c900b]
reverse link RelativePosition<T, U> to RelativeAngle--><path codeLine="11" d="M259.97,137.72 C213.01,154.17 149.72,176.33 108.16,190.89 " fill="none" id="RelativePosition&lt;T, U&gt;-backto-RelativeAngle" style="stroke:#A80036;stroke-width:1.0;"/><polygon fill="none" points="257.79,131.07,278.98,131.06,262.42,144.28,257.79,131.07" style="stroke:#A80036;stroke-width:1.0;"/><!--MD5=[638ba83dd43ef6d2a75384a492498591]
reverse link RelativePosition<T, U> to RelativeDistance--><path codeLine="14" d="M291.01,145.05 C274.69,160.35 255.36,178.47 242.04,190.96 " fill="none" id="RelativePosition&lt;T, U&gt;-backto-RelativeDistance" style="stroke:#A80036;stroke-width:1.0;"/><polygon fill="none" points="286.34,139.84,305.71,131.27,295.91,150.05,286.34,139.84" style="stroke:#A80036;stroke-width:1.0;"/><!--MD5=[9a26c5c099ede9b8eac057107c2b126e]
reverse link RelativePosition<T, U> to RelativeAngularVelocity--><path codeLine="17" d="M352.99,145.05 C369.31,160.35 388.64,178.47 401.96,190.96 " fill="none" id="RelativePosition&lt;T, U&gt;-backto-RelativeAngularVelocity" style="stroke:#A80036;stroke-width:1.0;"/><polygon fill="none" points="348.09,150.05,338.29,131.27,357.66,139.84,348.09,150.05" style="stroke:#A80036;stroke-width:1.0;"/><!--MD5=[69ebe71c089a7d169b95a3b41f7f443b]
reverse link RelativePosition<T, U> to RelativeLinearVelocity--><path codeLine="20" d="M392.22,136.86 C447.94,153.41 524.51,176.15 574.37,190.96 " fill="none" id="RelativePosition&lt;T, U&gt;-backto-RelativeLinearVelocity" style="stroke:#A80036;stroke-width:1.0;"/><polygon fill="none" points="389.89,143.47,372.72,131.06,393.88,130.05,389.89,143.47" style="stroke:#A80036;stroke-width:1.0;"/><!--MD5=[59bd4eb07de9d1ee3df37d58d911e3b6]
@startuml
skinparam BackgroundColor transparent
hide empty methods
hide empty fields
class "RelativePosition<T, U>" {
}
interface "Position<U>" {
}
"Position<U>" <|.. "RelativePosition<T, U>"
class "RelativeAngle" {
}
"RelativePosition<T, U>" <|- - "RelativeAngle"
class "RelativeDistance" {
}
"RelativePosition<T, U>" <|- - "RelativeDistance"
class "RelativeAngularVelocity" {
}
"RelativePosition<T, U>" <|- - "RelativeAngularVelocity"
class "RelativeLinearVelocity" {
}
"RelativePosition<T, U>" <|- - "RelativeLinearVelocity"
@enduml

PlantUML version 1.2021.14(Fri Nov 12 16:46:50 UTC 2021)
(GPL source distribution)
Java Runtime: OpenJDK Runtime Environment
JVM: OpenJDK 64-Bit Server VM
Default Encoding: UTF-8
Language: en
Country: null
--></g></svg>