<?xml version="1.0" encoding="us-ascii" standalone="no"?><svg xmlns="http://www.w3.org/2000/svg" xmlns:xlink="http://www.w3.org/1999/xlink" contentStyleType="text/css" height="138px" preserveAspectRatio="none" style="width:424px;height:138px;" version="1.1" viewBox="0 0 424 138" width="424px" zoomAndPan="magnify"><defs/><g><!--class RelativeAngularVelocity--><g id="elem_RelativeAngularVelocity"><rect codeLine="4" fill="#F1F1F1" height="32" id="RelativeAngularVelocity" rx="2.5" ry="2.5" style="stroke:#181818;stroke-width:0.5;" width="191" x="116.5" y="99"/><ellipse cx="131.5" cy="115" fill="#ADD1B2" rx="11" ry="11" style="stroke:#181818;stroke-width:1.0;"/><path d="M134.4688,120.6406 Q133.8906,120.9375 133.25,121.0781 Q132.6094,121.2344 131.9063,121.2344 Q129.4063,121.2344 128.0781,119.5938 Q126.7656,117.9375 126.7656,114.8125 Q126.7656,111.6875 128.0781,110.0313 Q129.4063,108.375 131.9063,108.375 Q132.6094,108.375 133.25,108.5313 Q133.9063,108.6875 134.4688,108.9844 L134.4688,111.7031 Q133.8438,111.125 133.25,110.8594 Q132.6563,110.5781 132.0313,110.5781 Q130.6875,110.5781 130,111.6563 Q129.3125,112.7188 129.3125,114.8125 Q129.3125,116.9063 130,117.9844 Q130.6875,119.0469 132.0313,119.0469 Q132.6563,119.0469 133.25,118.7813 Q133.8438,118.5 134.4688,117.9219 L134.4688,120.6406 Z " fill="#000000"/><text fill="#000000" font-family="sans-serif" font-size="14" lengthAdjust="spacing" textLength="159" x="145.5" y="119.8467">RelativeAngularVelocity</text></g><!--class RelativePosition<AngularVelocity, AngularVelocityUnit>--><g id="elem_RelativePosition&lt;AngularVelocity, AngularVelocityUnit&gt;"><rect codeLine="6" fill="#F1F1F1" height="32" id="RelativePosition&lt;AngularVelocity, AngularVelocityUnit&gt;" rx="2.5" ry="2.5" style="stroke:#181818;stroke-width:0.5;" width="410" x="7" y="7"/><ellipse cx="22" cy="23" fill="#ADD1B2" rx="11" ry="11" style="stroke:#181818;stroke-width:1.0;"/><path d="M24.9688,28.6406 Q24.3906,28.9375 23.75,29.0781 Q23.1094,29.2344 22.4063,29.2344 Q19.9063,29.2344 18.5781,27.5938 Q17.2656,25.9375 17.2656,22.8125 Q17.2656,19.6875 18.5781,18.0313 Q19.9063,16.375 22.4063,16.375 Q23.1094,16.375 23.75,16.5313 Q24.4063,16.6875 24.9688,16.9844 L24.9688,19.7031 Q24.3438,19.125 23.75,18.8594 Q23.1563,18.5781 22.5313,18.5781 Q21.1875,18.5781 20.5,19.6563 Q19.8125,20.7188 19.8125,22.8125 Q19.8125,24.9063 20.5,25.9844 Q21.1875,27.0469 22.5313,27.0469 Q23.1563,27.0469 23.75,26.7813 Q24.3438,26.5 24.9688,25.9219 L24.9688,28.6406 Z " fill="#000000"/><text fill="#000000" font-family="sans-serif" font-size="14" lengthAdjust="spacing" textLength="378" x="36" y="27.8467">RelativePosition&lt;AngularVelocity, AngularVelocityUnit&gt;</text></g><!--reverse link RelativePosition<AngularVelocity, AngularVelocityUnit> to RelativeAngularVelocity--><g id="link_RelativePosition&lt;AngularVelocity, AngularVelocityUnit&gt;_RelativeAngularVelocity"><path codeLine="8" d="M212,59.61 C212,73.31 212,88.22 212,98.96 " fill="none" id="RelativePosition&lt;AngularVelocity, AngularVelocityUnit&gt;-backto-RelativeAngularVelocity" style="stroke:#181818;stroke-width:1.0;"/><polygon fill="none" points="205,59.27,212,39.27,219,59.27,205,59.27" style="stroke:#181818;stroke-width:1.0;"/></g><!--SRC=[dOv12i9034NtFKNesjwW2Ee5HD1zwCGsT2OfaxHGrBjRS2C3Rjo-__xdsyWoOSO4H-p6FkiiuQHHCtX6iIqYyMhWG41fyXKI-Q31lj6TAMwaYsW6zOKYEYzqa7wEc6yKjMDVQtXKhz8vgx6pIbl8EoZ0LTZtduc_o-spQNxVUmC0]--></g></svg>