<?xml version="1.0" encoding="us-ascii" standalone="no"?><svg xmlns="http://www.w3.org/2000/svg" xmlns:xlink="http://www.w3.org/1999/xlink" contentStyleType="text/css" height="138px" preserveAspectRatio="none" style="width:239px;height:138px;" version="1.1" viewBox="0 0 239 138" width="239px" zoomAndPan="magnify"><defs/><g><!--class RelativeOrientationSensor--><g id="elem_RelativeOrientationSensor"><rect codeLine="4" fill="#F1F1F1" height="32" id="RelativeOrientationSensor" rx="2.5" ry="2.5" style="stroke:#181818;stroke-width:0.5;" width="211" x="14" y="99"/><ellipse cx="29" cy="115" fill="#ADD1B2" rx="11" ry="11" style="stroke:#181818;stroke-width:1.0;"/><path d="M31.9688,120.6406 Q31.3906,120.9375 30.75,121.0781 Q30.1094,121.2344 29.4063,121.2344 Q26.9063,121.2344 25.5781,119.5938 Q24.2656,117.9375 24.2656,114.8125 Q24.2656,111.6875 25.5781,110.0313 Q26.9063,108.375 29.4063,108.375 Q30.1094,108.375 30.75,108.5313 Q31.4063,108.6875 31.9688,108.9844 L31.9688,111.7031 Q31.3438,111.125 30.75,110.8594 Q30.1563,110.5781 29.5313,110.5781 Q28.1875,110.5781 27.5,111.6563 Q26.8125,112.7188 26.8125,114.8125 Q26.8125,116.9063 27.5,117.9844 Q28.1875,119.0469 29.5313,119.0469 Q30.1563,119.0469 30.75,118.7813 Q31.3438,118.5 31.9688,117.9219 L31.9688,120.6406 Z " fill="#000000"/><text fill="#000000" font-family="sans-serif" font-size="14" lengthAdjust="spacing" textLength="179" x="43" y="119.8467">RelativeOrientationSensor</text></g><!--class SensorObject<Orientation>--><g id="elem_SensorObject&lt;Orientation&gt;"><rect codeLine="6" fill="#F1F1F1" height="32" id="SensorObject&lt;Orientation&gt;" rx="2.5" ry="2.5" style="stroke:#181818;stroke-width:0.5;" width="225" x="7" y="7"/><ellipse cx="22" cy="23" fill="#A9DCDF" rx="11" ry="11" style="stroke:#181818;stroke-width:1.0;"/><path d="M22.1094,18.3438 L20.9531,23.4219 L23.2813,23.4219 L22.1094,18.3438 Z M20.625,16.1094 L23.6094,16.1094 L26.9688,28.5 L24.5156,28.5 L23.75,25.4375 L20.4688,25.4375 L19.7188,28.5 L17.2813,28.5 L20.625,16.1094 Z " fill="#000000"/><text fill="#000000" font-family="sans-serif" font-size="14" font-style="italic" lengthAdjust="spacing" textLength="193" x="36" y="27.8467">SensorObject&lt;Orientation&gt;</text></g><!--reverse link SensorObject<Orientation> to RelativeOrientationSensor--><g id="link_SensorObject&lt;Orientation&gt;_RelativeOrientationSensor"><path codeLine="8" d="M119.5,59.61 C119.5,73.31 119.5,88.22 119.5,98.96 " fill="none" id="SensorObject&lt;Orientation&gt;-backto-RelativeOrientationSensor" style="stroke:#181818;stroke-width:1.0;"/><polygon fill="none" points="112.5,59.27,119.5,39.27,126.5,59.27,112.5,59.27" style="stroke:#181818;stroke-width:1.0;"/></g><!--SRC=[VOqz3i8m38NtdiBgtXjK3720Id02Dp4qDB4hso0XuEv4AaEdRa_lUpys9rvGiS0HmtnJUN0yIHO5LsIhYDYRAKK2Aek_e91F4crhNHFbweICPj2UAQEd9msQQhLAuGknYRRmRhuDZbQNWyC_lh9Xl5FmVjCvhF4ztd-wRk_l1m00]--></g></svg>