<?xml version="1.0" encoding="UTF-8" standalone="no"?><svg xmlns="http://www.w3.org/2000/svg" xmlns:xlink="http://www.w3.org/1999/xlink" contentScriptType="application/ecmascript" contentStyleType="text/css" height="237px" preserveAspectRatio="none" style="width:720px;height:237px;background:#00000000;" version="1.1" viewBox="0 0 720 237" width="720px" zoomAndPan="magnify"><defs><filter height="300%" id="ft8sp1ugvp89q" width="300%" x="-1" y="-1"><feGaussianBlur result="blurOut" stdDeviation="2.0"/><feColorMatrix in="blurOut" result="blurOut2" type="matrix" values="0 0 0 0 0 0 0 0 0 0 0 0 0 0 0 0 0 0 .4 0"/><feOffset dx="4.0" dy="4.0" in="blurOut2" result="blurOut3"/><feBlend in="SourceGraphic" in2="blurOut3" mode="normal"/></filter></defs><g><!--MD5=[7ffd5ac383842b25700f3e4bbd162597]
class RelativePositionProcessing<InOut, R>--><rect codeLine="4" fill="#FEFECE" filter="url(#ft8sp1ugvp89q)" height="32" id="RelativePositionProcessing&lt;InOut, R&gt;" style="stroke:#A80036;stroke-width:1.5;" width="264" x="218" y="99"/><ellipse cx="233" cy="115" fill="#A9DCDF" rx="11" ry="11" style="stroke:#A80036;stroke-width:1.0;"/><path d="M233.1094,110.3438 L231.9531,115.4219 L234.2813,115.4219 L233.1094,110.3438 Z M231.625,108.1094 L234.6094,108.1094 L237.9688,120.5 L235.5156,120.5 L234.75,117.4375 L231.4688,117.4375 L230.7188,120.5 L228.2813,120.5 L231.625,108.1094 Z " fill="#000000"/><text fill="#000000" font-family="sans-serif" font-size="12" font-style="italic" lengthAdjust="spacing" textLength="232" x="247" y="119.1543">RelativePositionProcessing&lt;InOut, R&gt;</text><!--MD5=[9ac6b26c9c0951042fc71ef94bb46580]
class ObjectProcessingNode<InOut>--><rect codeLine="6" fill="#FEFECE" filter="url(#ft8sp1ugvp89q)" height="32" id="ObjectProcessingNode&lt;InOut&gt;" style="stroke:#A80036;stroke-width:1.5;" width="223" x="238.5" y="7"/><ellipse cx="253.5" cy="23" fill="#A9DCDF" rx="11" ry="11" style="stroke:#A80036;stroke-width:1.0;"/><path d="M253.6094,18.3438 L252.4531,23.4219 L254.7813,23.4219 L253.6094,18.3438 Z M252.125,16.1094 L255.1094,16.1094 L258.4688,28.5 L256.0156,28.5 L255.25,25.4375 L251.9688,25.4375 L251.2188,28.5 L248.7813,28.5 L252.125,16.1094 Z " fill="#000000"/><text fill="#000000" font-family="sans-serif" font-size="12" font-style="italic" lengthAdjust="spacing" textLength="191" x="267.5" y="27.1543">ObjectProcessingNode&lt;InOut&gt;</text><!--MD5=[ea0196c07330cea4578b4760011abaa5]
class MultilaterationNode<InOut>--><rect codeLine="9" fill="#FEFECE" filter="url(#ft8sp1ugvp89q)" height="32" id="MultilaterationNode&lt;InOut&gt;" style="stroke:#A80036;stroke-width:1.5;" width="208" x="7" y="191"/><ellipse cx="22" cy="207" fill="#ADD1B2" rx="11" ry="11" style="stroke:#A80036;stroke-width:1.0;"/><path d="M24.9688,212.6406 Q24.3906,212.9375 23.75,213.0781 Q23.1094,213.2344 22.4063,213.2344 Q19.9063,213.2344 18.5781,211.5938 Q17.2656,209.9375 17.2656,206.8125 Q17.2656,203.6875 18.5781,202.0313 Q19.9063,200.375 22.4063,200.375 Q23.1094,200.375 23.75,200.5313 Q24.4063,200.6875 24.9688,200.9844 L24.9688,203.7031 Q24.3438,203.125 23.75,202.8594 Q23.1563,202.5781 22.5313,202.5781 Q21.1875,202.5781 20.5,203.6563 Q19.8125,204.7188 19.8125,206.8125 Q19.8125,208.9063 20.5,209.9844 Q21.1875,211.0469 22.5313,211.0469 Q23.1563,211.0469 23.75,210.7813 Q24.3438,210.5 24.9688,209.9219 L24.9688,212.6406 Z " fill="#000000"/><text fill="#000000" font-family="sans-serif" font-size="12" lengthAdjust="spacing" textLength="176" x="36" y="211.1543">MultilaterationNode&lt;InOut&gt;</text><!--MD5=[6b2eaa6776b773f83c782814e1d0e6e8]
class TriangulationNode<InOut>--><rect codeLine="12" fill="#FEFECE" filter="url(#ft8sp1ugvp89q)" height="32" id="TriangulationNode&lt;InOut&gt;" style="stroke:#A80036;stroke-width:1.5;" width="200" x="250" y="191"/><ellipse cx="265" cy="207" fill="#ADD1B2" rx="11" ry="11" style="stroke:#A80036;stroke-width:1.0;"/><path d="M267.9688,212.6406 Q267.3906,212.9375 266.75,213.0781 Q266.1094,213.2344 265.4063,213.2344 Q262.9063,213.2344 261.5781,211.5938 Q260.2656,209.9375 260.2656,206.8125 Q260.2656,203.6875 261.5781,202.0313 Q262.9063,200.375 265.4063,200.375 Q266.1094,200.375 266.75,200.5313 Q267.4063,200.6875 267.9688,200.9844 L267.9688,203.7031 Q267.3438,203.125 266.75,202.8594 Q266.1563,202.5781 265.5313,202.5781 Q264.1875,202.5781 263.5,203.6563 Q262.8125,204.7188 262.8125,206.8125 Q262.8125,208.9063 263.5,209.9844 Q264.1875,211.0469 265.5313,211.0469 Q266.1563,211.0469 266.75,210.7813 Q267.3438,210.5 267.9688,209.9219 L267.9688,212.6406 Z " fill="#000000"/><text fill="#000000" font-family="sans-serif" font-size="12" lengthAdjust="spacing" textLength="168" x="279" y="211.1543">TriangulationNode&lt;InOut&gt;</text><!--MD5=[6ca7ed68d11791e77b122335e816879c]
class CellIdentificationNode<InOut>--><rect codeLine="15" fill="#FEFECE" filter="url(#ft8sp1ugvp89q)" height="32" id="CellIdentificationNode&lt;InOut&gt;" style="stroke:#A80036;stroke-width:1.5;" width="221" x="485.5" y="191"/><ellipse cx="500.5" cy="207" fill="#ADD1B2" rx="11" ry="11" style="stroke:#A80036;stroke-width:1.0;"/><path d="M503.4688,212.6406 Q502.8906,212.9375 502.25,213.0781 Q501.6094,213.2344 500.9063,213.2344 Q498.4063,213.2344 497.0781,211.5938 Q495.7656,209.9375 495.7656,206.8125 Q495.7656,203.6875 497.0781,202.0313 Q498.4063,200.375 500.9063,200.375 Q501.6094,200.375 502.25,200.5313 Q502.9063,200.6875 503.4688,200.9844 L503.4688,203.7031 Q502.8438,203.125 502.25,202.8594 Q501.6563,202.5781 501.0313,202.5781 Q499.6875,202.5781 499,203.6563 Q498.3125,204.7188 498.3125,206.8125 Q498.3125,208.9063 499,209.9844 Q499.6875,211.0469 501.0313,211.0469 Q501.6563,211.0469 502.25,210.7813 Q502.8438,210.5 503.4688,209.9219 L503.4688,212.6406 Z " fill="#000000"/><text fill="#000000" font-family="sans-serif" font-size="12" lengthAdjust="spacing" textLength="189" x="514.5" y="211.1543">CellIdentificationNode&lt;InOut&gt;</text><!--MD5=[20102bd41880321f3b990d95b08f0268]
reverse link ObjectProcessingNode<InOut> to RelativePositionProcessing<InOut, R>--><path codeLine="8" d="M350,59.61 C350,73.31 350,88.22 350,98.96 " fill="none" id="ObjectProcessingNode&lt;InOut&gt;-backto-RelativePositionProcessing&lt;InOut, R&gt;" style="stroke:#A80036;stroke-width:1.0;"/><polygon fill="none" points="343,59.27,350,39.27,357,59.27,343,59.27" style="stroke:#A80036;stroke-width:1.0;"/><!--MD5=[81e313ec03b7bacdf985f7986c85807b]
reverse link RelativePositionProcessing<InOut, R> to MultilaterationNode<InOut>--><path codeLine="11" d="M291.14,138.16 C247.6,154.56 189.44,176.46 151.13,190.89 " fill="none" id="RelativePositionProcessing&lt;InOut, R&gt;-backto-MultilaterationNode&lt;InOut&gt;" style="stroke:#A80036;stroke-width:1.0;"/><polygon fill="none" points="288.81,131.56,310,131.06,293.75,144.66,288.81,131.56" style="stroke:#A80036;stroke-width:1.0;"/><!--MD5=[7e0572fb422cfb0a69b99c77dad7c8ac]
reverse link RelativePositionProcessing<InOut, R> to TriangulationNode<InOut>--><path codeLine="14" d="M350,151.61 C350,165.31 350,180.22 350,190.96 " fill="none" id="RelativePositionProcessing&lt;InOut, R&gt;-backto-TriangulationNode&lt;InOut&gt;" style="stroke:#A80036;stroke-width:1.0;"/><polygon fill="none" points="343,151.27,350,131.27,357,151.27,343,151.27" style="stroke:#A80036;stroke-width:1.0;"/><!--MD5=[bd1e4c97de894634c02a8a4c4082a323]
reverse link RelativePositionProcessing<InOut, R> to CellIdentificationNode<InOut>--><path codeLine="17" d="M409.98,137.94 C454.86,154.36 515.09,176.4 554.69,190.89 " fill="none" id="RelativePositionProcessing&lt;InOut, R&gt;-backto-CellIdentificationNode&lt;InOut&gt;" style="stroke:#A80036;stroke-width:1.0;"/><polygon fill="none" points="407.55,144.51,391.17,131.06,412.36,131.36,407.55,144.51" style="stroke:#A80036;stroke-width:1.0;"/><!--MD5=[bd87619fd24bb61926ae149c6a3c7f3b]
@startuml
skinparam BackgroundColor transparent
hide empty methods
hide empty fields
abstract class "RelativePositionProcessing<InOut, R>" {
}
abstract class "ObjectProcessingNode<InOut>" {
}
"ObjectProcessingNode<InOut>" <|- - "RelativePositionProcessing<InOut, R>"
class "MultilaterationNode<InOut>" {
}
"RelativePositionProcessing<InOut, R>" <|- - "MultilaterationNode<InOut>"
class "TriangulationNode<InOut>" {
}
"RelativePositionProcessing<InOut, R>" <|- - "TriangulationNode<InOut>"
class "CellIdentificationNode<InOut>" {
}
"RelativePositionProcessing<InOut, R>" <|- - "CellIdentificationNode<InOut>"
@enduml

PlantUML version 1.2021.14(Fri Nov 12 16:46:50 UTC 2021)
(GPL source distribution)
Java Runtime: OpenJDK Runtime Environment
JVM: OpenJDK 64-Bit Server VM
Default Encoding: UTF-8
Language: en
Country: null
--></g></svg>