<?xml version="1.0" encoding="UTF-8" standalone="no"?><svg xmlns="http://www.w3.org/2000/svg" xmlns:xlink="http://www.w3.org/1999/xlink" contentScriptType="application/ecmascript" contentStyleType="text/css" height="356px" preserveAspectRatio="none" style="width:907px;height:356px;background:#00000000;" version="1.1" viewBox="0 0 907 356" width="907px" zoomAndPan="magnify"><defs><filter height="300%" id="fxl93uthj41v6" width="300%" x="-1" y="-1"><feGaussianBlur result="blurOut" stdDeviation="2.0"/><feColorMatrix in="blurOut" result="blurOut2" type="matrix" values="0 0 0 0 0 0 0 0 0 0 0 0 0 0 0 0 0 0 .4 0"/><feOffset dx="4.0" dy="4.0" in="blurOut2" result="blurOut3"/><feBlend in="SourceGraphic" in2="blurOut3" mode="normal"/></filter></defs><g><!--MD5=[85603531f39a763f688d497e97ddf507]
class RelativeAngularVelocity--><rect codeLine="4" fill="#FEFECE" filter="url(#fxl93uthj41v6)" height="137.6328" id="RelativeAngularVelocity" style="stroke:#A80036;stroke-width:1.5;" width="707" x="96.5" y="205"/><ellipse cx="373.25" cy="221" fill="#ADD1B2" rx="11" ry="11" style="stroke:#A80036;stroke-width:1.0;"/><path d="M376.2188,226.6406 Q375.6406,226.9375 375,227.0781 Q374.3594,227.2344 373.6563,227.2344 Q371.1563,227.2344 369.8281,225.5938 Q368.5156,223.9375 368.5156,220.8125 Q368.5156,217.6875 369.8281,216.0313 Q371.1563,214.375 373.6563,214.375 Q374.3594,214.375 375,214.5313 Q375.6563,214.6875 376.2188,214.9844 L376.2188,217.7031 Q375.5938,217.125 375,216.8594 Q374.4063,216.5781 373.7813,216.5781 Q372.4375,216.5781 371.75,217.6563 Q371.0625,218.7188 371.0625,220.8125 Q371.0625,222.9063 371.75,223.9844 Q372.4375,225.0469 373.7813,225.0469 Q374.4063,225.0469 375,224.7813 Q375.5938,224.5 376.2188,223.9219 L376.2188,226.6406 Z " fill="#000000"/><text fill="#000000" font-family="sans-serif" font-size="12" lengthAdjust="spacing" textLength="145" x="393.75" y="225.1543">RelativeAngularVelocity</text><line style="stroke:#A80036;stroke-width:1.5;" x1="97.5" x2="802.5" y1="237" y2="237"/><ellipse cx="107.5" cy="248" rx="3" ry="3" style="stroke:#038048;stroke-width:1.0;fill:none;"/><text fill="#000000" font-family="sans-serif" font-size="11" lengthAdjust="spacing" textLength="163" x="116.5" y="251.2104">referenceObjectType : string</text><ellipse cx="107.5" cy="260.8047" rx="3" ry="3" style="stroke:#038048;stroke-width:1.0;fill:none;"/><text fill="#000000" font-family="sans-serif" font-size="11" lengthAdjust="spacing" textLength="155" x="116.5" y="264.0151">referenceObjectUID : string</text><ellipse cx="107.5" cy="273.6094" rx="3" ry="3" style="stroke:#038048;stroke-width:1.0;fill:none;"/><text fill="#000000" font-family="sans-serif" font-size="11" lengthAdjust="spacing" textLength="184" x="116.5" y="276.8198">referenceValue : AngularVelocity</text><ellipse cx="107.5" cy="286.4141" rx="3" ry="3" style="stroke:#038048;stroke-width:1.0;fill:none;"/><text fill="#000000" font-family="sans-serif" font-size="11" lengthAdjust="spacing" textLength="117" x="116.5" y="289.6245">timestamp : number</text><line style="stroke:#A80036;stroke-width:1.5;" x1="97.5" x2="802.5" y1="296.2188" y2="296.2188"/><ellipse cx="107.5" cy="307.2188" fill="#84BE84" rx="3" ry="3" style="stroke:#038048;stroke-width:1.0;"/><text fill="#000000" font-family="sans-serif" font-size="11" lengthAdjust="spacing" textLength="180" x="116.5" y="310.4292">clone() : RelativeAngularVelocity</text><ellipse cx="107.5" cy="320.0234" fill="#84BE84" rx="3" ry="3" style="stroke:#038048;stroke-width:1.0;"/><text fill="#000000" font-family="sans-serif" font-size="11" lengthAdjust="spacing" textLength="286" x="116.5" y="323.2339">equals(position: RelativeAngularVelocity) : boolean</text><ellipse cx="107.5" cy="332.8281" fill="#84BE84" rx="3" ry="3" style="stroke:#038048;stroke-width:1.0;"/><text fill="#000000" font-family="sans-serif" font-size="11" lengthAdjust="spacing" textLength="681" x="116.5" y="336.0386">setAccuracy(accuracy: number | Accuracy&lt;AngularVelocityUnit, any&gt;, unit: AngularVelocityUnit) : RelativeAngularVelocity</text><!--MD5=[59b46659d98bc6bd70ba1014accb2aa1]
class RelativePosition<AngularVelocity, AngularVelocityUnit>--><rect codeLine="13" fill="#FEFECE" filter="url(#fxl93uthj41v6)" height="137.6328" id="RelativePosition&lt;AngularVelocity, AngularVelocityUnit&gt;" style="stroke:#A80036;stroke-width:1.5;" width="886" x="7" y="7"/><ellipse cx="273.75" cy="23" fill="#ADD1B2" rx="11" ry="11" style="stroke:#A80036;stroke-width:1.0;"/><path d="M276.7188,28.6406 Q276.1406,28.9375 275.5,29.0781 Q274.8594,29.2344 274.1563,29.2344 Q271.6563,29.2344 270.3281,27.5938 Q269.0156,25.9375 269.0156,22.8125 Q269.0156,19.6875 270.3281,18.0313 Q271.6563,16.375 274.1563,16.375 Q274.8594,16.375 275.5,16.5313 Q276.1563,16.6875 276.7188,16.9844 L276.7188,19.7031 Q276.0938,19.125 275.5,18.8594 Q274.9063,18.5781 274.2813,18.5781 Q272.9375,18.5781 272.25,19.6563 Q271.5625,20.7188 271.5625,22.8125 Q271.5625,24.9063 272.25,25.9844 Q272.9375,27.0469 274.2813,27.0469 Q274.9063,27.0469 275.5,26.7813 Q276.0938,26.5 276.7188,25.9219 L276.7188,28.6406 Z " fill="#000000"/><text fill="#000000" font-family="sans-serif" font-size="12" lengthAdjust="spacing" textLength="344" x="294.25" y="27.1543">RelativePosition&lt;AngularVelocity, AngularVelocityUnit&gt;</text><line style="stroke:#A80036;stroke-width:1.5;" x1="8" x2="892" y1="39" y2="39"/><ellipse cx="18" cy="50" rx="3" ry="3" style="stroke:#038048;stroke-width:1.0;fill:none;"/><text fill="#000000" font-family="sans-serif" font-size="11" lengthAdjust="spacing" textLength="163" x="27" y="53.2104">referenceObjectType : string</text><ellipse cx="18" cy="62.8047" rx="3" ry="3" style="stroke:#038048;stroke-width:1.0;fill:none;"/><text fill="#000000" font-family="sans-serif" font-size="11" lengthAdjust="spacing" textLength="155" x="27" y="66.0151">referenceObjectUID : string</text><ellipse cx="18" cy="75.6094" rx="3" ry="3" style="stroke:#038048;stroke-width:1.0;fill:none;"/><text fill="#000000" font-family="sans-serif" font-size="11" lengthAdjust="spacing" textLength="184" x="27" y="78.8198">referenceValue : AngularVelocity</text><ellipse cx="18" cy="88.4141" rx="3" ry="3" style="stroke:#038048;stroke-width:1.0;fill:none;"/><text fill="#000000" font-family="sans-serif" font-size="11" lengthAdjust="spacing" textLength="117" x="27" y="91.6245">timestamp : number</text><line style="stroke:#A80036;stroke-width:1.5;" x1="8" x2="892" y1="98.2188" y2="98.2188"/><ellipse cx="18" cy="109.2188" fill="#84BE84" rx="3" ry="3" style="stroke:#038048;stroke-width:1.0;"/><text fill="#000000" font-family="sans-serif" font-size="11" lengthAdjust="spacing" textLength="359" x="27" y="112.4292">clone() : RelativePosition&lt;AngularVelocity, AngularVelocityUnit&gt;</text><ellipse cx="18" cy="122.0234" fill="#84BE84" rx="3" ry="3" style="stroke:#038048;stroke-width:1.0;"/><text fill="#000000" font-family="sans-serif" font-size="11" lengthAdjust="spacing" textLength="465" x="27" y="125.2339">equals(position: RelativePosition&lt;AngularVelocity, AngularVelocityUnit&gt;) : boolean</text><ellipse cx="18" cy="134.8281" fill="#84BE84" rx="3" ry="3" style="stroke:#038048;stroke-width:1.0;"/><text fill="#000000" font-family="sans-serif" font-size="11" lengthAdjust="spacing" textLength="860" x="27" y="138.0386">setAccuracy(accuracy: number | Accuracy&lt;AngularVelocityUnit, any&gt;, unit: AngularVelocityUnit) : RelativePosition&lt;AngularVelocity, AngularVelocityUnit&gt;</text><!--MD5=[8359b318b359edb905e0427ae189c428]
reverse link RelativePosition<AngularVelocity, AngularVelocityUnit> to RelativeAngularVelocity--><path codeLine="22" d="M450,165.43 C450,178.64 450,192.08 450,204.79 " fill="none" id="RelativePosition&lt;AngularVelocity, AngularVelocityUnit&gt;-backto-RelativeAngularVelocity" style="stroke:#A80036;stroke-width:1.0;"/><polygon fill="none" points="443,165,450,145,457,165,443,165" style="stroke:#A80036;stroke-width:1.0;"/><!--MD5=[d2b7742f6ed221cbaae7bf718ac2bc7c]
@startuml
skinparam BackgroundColor transparent
hide empty methods
hide empty fields
class "RelativeAngularVelocity" {
    +referenceObjectType : string
    +referenceObjectUID : string
    +referenceValue : AngularVelocity
    +timestamp : number
    +clone() : RelativeAngularVelocity
    +equals(position: RelativeAngularVelocity) : boolean
    +setAccuracy(accuracy: number | Accuracy<AngularVelocityUnit, any>, unit: AngularVelocityUnit) : RelativeAngularVelocity
}
class "RelativePosition<AngularVelocity, AngularVelocityUnit>" {
    +referenceObjectType : string
    +referenceObjectUID : string
    +referenceValue : AngularVelocity
    +timestamp : number
    +clone() : RelativePosition<AngularVelocity, AngularVelocityUnit>
    +equals(position: RelativePosition<AngularVelocity, AngularVelocityUnit>) : boolean
    +setAccuracy(accuracy: number | Accuracy<AngularVelocityUnit, any>, unit: AngularVelocityUnit) : RelativePosition<AngularVelocity, AngularVelocityUnit>
}
"RelativePosition<AngularVelocity, AngularVelocityUnit>" <|- - "RelativeAngularVelocity"
@enduml

PlantUML version 1.2021.14(Fri Nov 12 16:46:50 UTC 2021)
(GPL source distribution)
Java Runtime: OpenJDK Runtime Environment
JVM: OpenJDK 64-Bit Server VM
Default Encoding: UTF-8
Language: en
Country: null
--></g></svg>