<?xml version="1.0" encoding="UTF-8" standalone="no"?><svg xmlns="http://www.w3.org/2000/svg" xmlns:xlink="http://www.w3.org/1999/xlink" contentScriptType="application/ecmascript" contentStyleType="text/css" height="145px" preserveAspectRatio="none" style="width:397px;height:145px;background:#00000000;" version="1.1" viewBox="0 0 397 145" width="397px" zoomAndPan="magnify"><defs><filter height="300%" id="fwncz4gvn1yei" width="300%" x="-1" y="-1"><feGaussianBlur result="blurOut" stdDeviation="2.0"/><feColorMatrix in="blurOut" result="blurOut2" type="matrix" values="0 0 0 0 0 0 0 0 0 0 0 0 0 0 0 0 0 0 .4 0"/><feOffset dx="4.0" dy="4.0" in="blurOut2" result="blurOut3"/><feBlend in="SourceGraphic" in2="blurOut3" mode="normal"/></filter></defs><g><!--MD5=[85603531f39a763f688d497e97ddf507]
class RelativeAngularVelocity--><rect codeLine="4" fill="#FEFECE" filter="url(#fwncz4gvn1yei)" height="32" id="RelativeAngularVelocity" style="stroke:#A80036;stroke-width:1.5;" width="177" x="106.5" y="99"/><ellipse cx="121.5" cy="115" fill="#ADD1B2" rx="11" ry="11" style="stroke:#A80036;stroke-width:1.0;"/><path d="M124.4688,120.6406 Q123.8906,120.9375 123.25,121.0781 Q122.6094,121.2344 121.9063,121.2344 Q119.4063,121.2344 118.0781,119.5938 Q116.7656,117.9375 116.7656,114.8125 Q116.7656,111.6875 118.0781,110.0313 Q119.4063,108.375 121.9063,108.375 Q122.6094,108.375 123.25,108.5313 Q123.9063,108.6875 124.4688,108.9844 L124.4688,111.7031 Q123.8438,111.125 123.25,110.8594 Q122.6563,110.5781 122.0313,110.5781 Q120.6875,110.5781 120,111.6563 Q119.3125,112.7188 119.3125,114.8125 Q119.3125,116.9063 120,117.9844 Q120.6875,119.0469 122.0313,119.0469 Q122.6563,119.0469 123.25,118.7813 Q123.8438,118.5 124.4688,117.9219 L124.4688,120.6406 Z " fill="#000000"/><text fill="#000000" font-family="sans-serif" font-size="12" lengthAdjust="spacing" textLength="145" x="135.5" y="119.1543">RelativeAngularVelocity</text><!--MD5=[59b46659d98bc6bd70ba1014accb2aa1]
class RelativePosition<AngularVelocity, AngularVelocityUnit>--><rect codeLine="6" fill="#FEFECE" filter="url(#fwncz4gvn1yei)" height="32" id="RelativePosition&lt;AngularVelocity, AngularVelocityUnit&gt;" style="stroke:#A80036;stroke-width:1.5;" width="376" x="7" y="7"/><ellipse cx="22" cy="23" fill="#ADD1B2" rx="11" ry="11" style="stroke:#A80036;stroke-width:1.0;"/><path d="M24.9688,28.6406 Q24.3906,28.9375 23.75,29.0781 Q23.1094,29.2344 22.4063,29.2344 Q19.9063,29.2344 18.5781,27.5938 Q17.2656,25.9375 17.2656,22.8125 Q17.2656,19.6875 18.5781,18.0313 Q19.9063,16.375 22.4063,16.375 Q23.1094,16.375 23.75,16.5313 Q24.4063,16.6875 24.9688,16.9844 L24.9688,19.7031 Q24.3438,19.125 23.75,18.8594 Q23.1563,18.5781 22.5313,18.5781 Q21.1875,18.5781 20.5,19.6563 Q19.8125,20.7188 19.8125,22.8125 Q19.8125,24.9063 20.5,25.9844 Q21.1875,27.0469 22.5313,27.0469 Q23.1563,27.0469 23.75,26.7813 Q24.3438,26.5 24.9688,25.9219 L24.9688,28.6406 Z " fill="#000000"/><text fill="#000000" font-family="sans-serif" font-size="12" lengthAdjust="spacing" textLength="344" x="36" y="27.1543">RelativePosition&lt;AngularVelocity, AngularVelocityUnit&gt;</text><!--MD5=[8359b318b359edb905e0427ae189c428]
reverse link RelativePosition<AngularVelocity, AngularVelocityUnit> to RelativeAngularVelocity--><path codeLine="8" d="M195,59.61 C195,73.31 195,88.22 195,98.96 " fill="none" id="RelativePosition&lt;AngularVelocity, AngularVelocityUnit&gt;-backto-RelativeAngularVelocity" style="stroke:#A80036;stroke-width:1.0;"/><polygon fill="none" points="188,59.27,195,39.27,202,59.27,188,59.27" style="stroke:#A80036;stroke-width:1.0;"/><!--MD5=[437a29c4941501c6edae3a45dcadd17b]
@startuml
skinparam BackgroundColor transparent
hide empty methods
hide empty fields
class "RelativeAngularVelocity" {
}
class "RelativePosition<AngularVelocity, AngularVelocityUnit>" {
}
"RelativePosition<AngularVelocity, AngularVelocityUnit>" <|- - "RelativeAngularVelocity"
@enduml

PlantUML version 1.2021.14(Fri Nov 12 16:46:50 UTC 2021)
(GPL source distribution)
Java Runtime: OpenJDK Runtime Environment
JVM: OpenJDK 64-Bit Server VM
Default Encoding: UTF-8
Language: en
Country: null
--></g></svg>