<?xml version="1.0" encoding="us-ascii" standalone="no"?><svg xmlns="http://www.w3.org/2000/svg" xmlns:xlink="http://www.w3.org/1999/xlink" contentStyleType="text/css" height="230px" preserveAspectRatio="none" style="width:1156px;height:230px;" version="1.1" viewBox="0 0 1156 230" width="1156px" zoomAndPan="magnify"><defs/><g><!--class RelativePosition<T, U>--><g id="elem_RelativePosition&lt;T, U&gt;"><rect codeLine="4" fill="#F1F1F1" height="32" id="RelativePosition&lt;T, U&gt;" rx="2.5" ry="2.5" style="stroke:#181818;stroke-width:0.5;" width="192" x="452.5" y="99"/><ellipse cx="467.5" cy="115" fill="#ADD1B2" rx="11" ry="11" style="stroke:#181818;stroke-width:1.0;"/><path d="M470.4688,120.6406 Q469.8906,120.9375 469.25,121.0781 Q468.6094,121.2344 467.9063,121.2344 Q465.4063,121.2344 464.0781,119.5938 Q462.7656,117.9375 462.7656,114.8125 Q462.7656,111.6875 464.0781,110.0313 Q465.4063,108.375 467.9063,108.375 Q468.6094,108.375 469.25,108.5313 Q469.9063,108.6875 470.4688,108.9844 L470.4688,111.7031 Q469.8438,111.125 469.25,110.8594 Q468.6563,110.5781 468.0313,110.5781 Q466.6875,110.5781 466,111.6563 Q465.3125,112.7188 465.3125,114.8125 Q465.3125,116.9063 466,117.9844 Q466.6875,119.0469 468.0313,119.0469 Q468.6563,119.0469 469.25,118.7813 Q469.8438,118.5 470.4688,117.9219 L470.4688,120.6406 Z " fill="#000000"/><text fill="#000000" font-family="sans-serif" font-size="14" lengthAdjust="spacing" textLength="160" x="481.5" y="119.8467">RelativePosition&lt;T, U&gt;</text></g><!--class Position<U>--><g id="elem_Position&lt;U&gt;"><rect codeLine="6" fill="#F1F1F1" height="32" id="Position&lt;U&gt;" rx="2.5" ry="2.5" style="stroke:#181818;stroke-width:0.5;" width="119" x="489" y="7"/><ellipse cx="504" cy="23" fill="#B4A7E5" rx="11" ry="11" style="stroke:#181818;stroke-width:1.0;"/><path d="M499.9219,18.7656 L499.9219,16.6094 L507.3125,16.6094 L507.3125,18.7656 L504.8438,18.7656 L504.8438,26.8438 L507.3125,26.8438 L507.3125,29 L499.9219,29 L499.9219,26.8438 L502.3906,26.8438 L502.3906,18.7656 L499.9219,18.7656 Z " fill="#000000"/><text fill="#000000" font-family="sans-serif" font-size="14" font-style="italic" lengthAdjust="spacing" textLength="87" x="518" y="27.8467">Position&lt;U&gt;</text></g><!--class Relative2DPosition--><g id="elem_Relative2DPosition"><rect codeLine="9" fill="#F1F1F1" height="32" id="Relative2DPosition" rx="2.5" ry="2.5" style="stroke:#181818;stroke-width:0.5;" width="161" x="7" y="191"/><ellipse cx="22" cy="207" fill="#ADD1B2" rx="11" ry="11" style="stroke:#181818;stroke-width:1.0;"/><path d="M24.9688,212.6406 Q24.3906,212.9375 23.75,213.0781 Q23.1094,213.2344 22.4063,213.2344 Q19.9063,213.2344 18.5781,211.5938 Q17.2656,209.9375 17.2656,206.8125 Q17.2656,203.6875 18.5781,202.0313 Q19.9063,200.375 22.4063,200.375 Q23.1094,200.375 23.75,200.5313 Q24.4063,200.6875 24.9688,200.9844 L24.9688,203.7031 Q24.3438,203.125 23.75,202.8594 Q23.1563,202.5781 22.5313,202.5781 Q21.1875,202.5781 20.5,203.6563 Q19.8125,204.7188 19.8125,206.8125 Q19.8125,208.9063 20.5,209.9844 Q21.1875,211.0469 22.5313,211.0469 Q23.1563,211.0469 23.75,210.7813 Q24.3438,210.5 24.9688,209.9219 L24.9688,212.6406 Z " fill="#000000"/><text fill="#000000" font-family="sans-serif" font-size="14" lengthAdjust="spacing" textLength="129" x="36" y="211.8467">Relative2DPosition</text></g><!--class RelativeOrientation--><g id="elem_RelativeOrientation"><rect codeLine="12" fill="#F1F1F1" height="32" id="RelativeOrientation" rx="2.5" ry="2.5" style="stroke:#181818;stroke-width:0.5;" width="162" x="203.5" y="191"/><ellipse cx="218.5" cy="207" fill="#ADD1B2" rx="11" ry="11" style="stroke:#181818;stroke-width:1.0;"/><path d="M221.4688,212.6406 Q220.8906,212.9375 220.25,213.0781 Q219.6094,213.2344 218.9063,213.2344 Q216.4063,213.2344 215.0781,211.5938 Q213.7656,209.9375 213.7656,206.8125 Q213.7656,203.6875 215.0781,202.0313 Q216.4063,200.375 218.9063,200.375 Q219.6094,200.375 220.25,200.5313 Q220.9063,200.6875 221.4688,200.9844 L221.4688,203.7031 Q220.8438,203.125 220.25,202.8594 Q219.6563,202.5781 219.0313,202.5781 Q217.6875,202.5781 217,203.6563 Q216.3125,204.7188 216.3125,206.8125 Q216.3125,208.9063 217,209.9844 Q217.6875,211.0469 219.0313,211.0469 Q219.6563,211.0469 220.25,210.7813 Q220.8438,210.5 221.4688,209.9219 L221.4688,212.6406 Z " fill="#000000"/><text fill="#000000" font-family="sans-serif" font-size="14" lengthAdjust="spacing" textLength="130" x="232.5" y="211.8467">RelativeOrientation</text></g><!--class RelativeAngle--><g id="elem_RelativeAngle"><rect codeLine="15" fill="#F1F1F1" height="32" id="RelativeAngle" rx="2.5" ry="2.5" style="stroke:#181818;stroke-width:0.5;" width="125" x="401" y="191"/><ellipse cx="416" cy="207" fill="#ADD1B2" rx="11" ry="11" style="stroke:#181818;stroke-width:1.0;"/><path d="M418.9688,212.6406 Q418.3906,212.9375 417.75,213.0781 Q417.1094,213.2344 416.4063,213.2344 Q413.9063,213.2344 412.5781,211.5938 Q411.2656,209.9375 411.2656,206.8125 Q411.2656,203.6875 412.5781,202.0313 Q413.9063,200.375 416.4063,200.375 Q417.1094,200.375 417.75,200.5313 Q418.4063,200.6875 418.9688,200.9844 L418.9688,203.7031 Q418.3438,203.125 417.75,202.8594 Q417.1563,202.5781 416.5313,202.5781 Q415.1875,202.5781 414.5,203.6563 Q413.8125,204.7188 413.8125,206.8125 Q413.8125,208.9063 414.5,209.9844 Q415.1875,211.0469 416.5313,211.0469 Q417.1563,211.0469 417.75,210.7813 Q418.3438,210.5 418.9688,209.9219 L418.9688,212.6406 Z " fill="#000000"/><text fill="#000000" font-family="sans-serif" font-size="14" lengthAdjust="spacing" textLength="93" x="430" y="211.8467">RelativeAngle</text></g><!--class RelativeDistance--><g id="elem_RelativeDistance"><rect codeLine="18" fill="#F1F1F1" height="32" id="RelativeDistance" rx="2.5" ry="2.5" style="stroke:#181818;stroke-width:0.5;" width="147" x="561" y="191"/><ellipse cx="576" cy="207" fill="#ADD1B2" rx="11" ry="11" style="stroke:#181818;stroke-width:1.0;"/><path d="M578.9688,212.6406 Q578.3906,212.9375 577.75,213.0781 Q577.1094,213.2344 576.4063,213.2344 Q573.9063,213.2344 572.5781,211.5938 Q571.2656,209.9375 571.2656,206.8125 Q571.2656,203.6875 572.5781,202.0313 Q573.9063,200.375 576.4063,200.375 Q577.1094,200.375 577.75,200.5313 Q578.4063,200.6875 578.9688,200.9844 L578.9688,203.7031 Q578.3438,203.125 577.75,202.8594 Q577.1563,202.5781 576.5313,202.5781 Q575.1875,202.5781 574.5,203.6563 Q573.8125,204.7188 573.8125,206.8125 Q573.8125,208.9063 574.5,209.9844 Q575.1875,211.0469 576.5313,211.0469 Q577.1563,211.0469 577.75,210.7813 Q578.3438,210.5 578.9688,209.9219 L578.9688,212.6406 Z " fill="#000000"/><text fill="#000000" font-family="sans-serif" font-size="14" lengthAdjust="spacing" textLength="115" x="590" y="211.8467">RelativeDistance</text></g><!--class RelativeAngularVelocity--><g id="elem_RelativeAngularVelocity"><rect codeLine="21" fill="#F1F1F1" height="32" id="RelativeAngularVelocity" rx="2.5" ry="2.5" style="stroke:#181818;stroke-width:0.5;" width="191" x="743" y="191"/><ellipse cx="758" cy="207" fill="#ADD1B2" rx="11" ry="11" style="stroke:#181818;stroke-width:1.0;"/><path d="M760.9688,212.6406 Q760.3906,212.9375 759.75,213.0781 Q759.1094,213.2344 758.4063,213.2344 Q755.9063,213.2344 754.5781,211.5938 Q753.2656,209.9375 753.2656,206.8125 Q753.2656,203.6875 754.5781,202.0313 Q755.9063,200.375 758.4063,200.375 Q759.1094,200.375 759.75,200.5313 Q760.4063,200.6875 760.9688,200.9844 L760.9688,203.7031 Q760.3438,203.125 759.75,202.8594 Q759.1563,202.5781 758.5313,202.5781 Q757.1875,202.5781 756.5,203.6563 Q755.8125,204.7188 755.8125,206.8125 Q755.8125,208.9063 756.5,209.9844 Q757.1875,211.0469 758.5313,211.0469 Q759.1563,211.0469 759.75,210.7813 Q760.3438,210.5 760.9688,209.9219 L760.9688,212.6406 Z " fill="#000000"/><text fill="#000000" font-family="sans-serif" font-size="14" lengthAdjust="spacing" textLength="159" x="772" y="211.8467">RelativeAngularVelocity</text></g><!--class RelativeLinearVelocity--><g id="elem_RelativeLinearVelocity"><rect codeLine="24" fill="#F1F1F1" height="32" id="RelativeLinearVelocity" rx="2.5" ry="2.5" style="stroke:#181818;stroke-width:0.5;" width="180" x="969.5" y="191"/><ellipse cx="984.5" cy="207" fill="#ADD1B2" rx="11" ry="11" style="stroke:#181818;stroke-width:1.0;"/><path d="M987.4688,212.6406 Q986.8906,212.9375 986.25,213.0781 Q985.6094,213.2344 984.9063,213.2344 Q982.4063,213.2344 981.0781,211.5938 Q979.7656,209.9375 979.7656,206.8125 Q979.7656,203.6875 981.0781,202.0313 Q982.4063,200.375 984.9063,200.375 Q985.6094,200.375 986.25,200.5313 Q986.9063,200.6875 987.4688,200.9844 L987.4688,203.7031 Q986.8438,203.125 986.25,202.8594 Q985.6563,202.5781 985.0313,202.5781 Q983.6875,202.5781 983,203.6563 Q982.3125,204.7188 982.3125,206.8125 Q982.3125,208.9063 983,209.9844 Q983.6875,211.0469 985.0313,211.0469 Q985.6563,211.0469 986.25,210.7813 Q986.8438,210.5 987.4688,209.9219 L987.4688,212.6406 Z " fill="#000000"/><text fill="#000000" font-family="sans-serif" font-size="14" lengthAdjust="spacing" textLength="148" x="998.5" y="211.8467">RelativeLinearVelocity</text></g><!--reverse link Position<U> to RelativePosition<T, U>--><g id="link_Position&lt;U&gt;_RelativePosition&lt;T, U&gt;"><path codeLine="8" d="M548.5,59.61 C548.5,73.31 548.5,88.22 548.5,98.96 " fill="none" id="Position&lt;U&gt;-backto-RelativePosition&lt;T, U&gt;" style="stroke:#181818;stroke-width:1.0;stroke-dasharray:7.0,7.0;"/><polygon fill="none" points="541.5,59.27,548.5,39.27,555.5,59.27,541.5,59.27" style="stroke:#181818;stroke-width:1.0;"/></g><!--reverse link RelativePosition<T, U> to Relative2DPosition--><g id="link_RelativePosition&lt;T, U&gt;_Relative2DPosition"><path codeLine="11" d="M451.83,134.87 C366.44,151.54 243.56,175.53 164.62,190.94 " fill="none" id="RelativePosition&lt;T, U&gt;-backto-Relative2DPosition" style="stroke:#181818;stroke-width:1.0;"/><polygon fill="none" points="450.63,127.98,471.6,131.01,453.31,141.72,450.63,127.98" style="stroke:#181818;stroke-width:1.0;"/></g><!--reverse link RelativePosition<T, U> to RelativeOrientation--><g id="link_RelativePosition&lt;T, U&gt;_RelativeOrientation"><path codeLine="14" d="M485.1,137.61 C436.84,154.07 371.62,176.3 328.83,190.89 " fill="none" id="RelativePosition&lt;T, U&gt;-backto-RelativeOrientation" style="stroke:#181818;stroke-width:1.0;"/><polygon fill="none" points="483.12,130.89,504.31,131.06,487.64,144.14,483.12,130.89" style="stroke:#181818;stroke-width:1.0;"/></g><!--reverse link RelativePosition<T, U> to RelativeAngle--><g id="link_RelativePosition&lt;T, U&gt;_RelativeAngle"><path codeLine="17" d="M519.93,146.25 C505.73,161.29 489.19,178.8 477.71,190.96 " fill="none" id="RelativePosition&lt;T, U&gt;-backto-RelativeAngle" style="stroke:#181818;stroke-width:1.0;"/><polygon fill="none" points="515.26,141,534.08,131.27,525.44,150.61,515.26,141" style="stroke:#181818;stroke-width:1.0;"/></g><!--reverse link RelativePosition<T, U> to RelativeDistance--><g id="link_RelativePosition&lt;T, U&gt;_RelativeDistance"><path codeLine="20" d="M576.94,145.77 C591.42,160.91 608.38,178.67 620.13,190.96 " fill="none" id="RelativePosition&lt;T, U&gt;-backto-RelativeDistance" style="stroke:#181818;stroke-width:1.0;"/><polygon fill="none" points="571.84,150.56,563.09,131.27,581.97,140.89,571.84,150.56" style="stroke:#181818;stroke-width:1.0;"/></g><!--reverse link RelativePosition<T, U> to RelativeAngularVelocity--><g id="link_RelativePosition&lt;T, U&gt;_RelativeAngularVelocity"><path codeLine="23" d="M616.37,137.06 C669.56,153.57 742.28,176.14 789.8,190.89 " fill="none" id="RelativePosition&lt;T, U&gt;-backto-RelativeAngularVelocity" style="stroke:#181818;stroke-width:1.0;"/><polygon fill="none" points="614.07,143.68,597.04,131.06,618.22,130.31,614.07,143.68" style="stroke:#181818;stroke-width:1.0;"/></g><!--reverse link RelativePosition<T, U> to RelativeLinearVelocity--><g id="link_RelativePosition&lt;T, U&gt;_RelativeLinearVelocity"><path codeLine="26" d="M653.57,134.51 C748.3,151.19 885.87,175.42 974.02,190.94 " fill="none" id="RelativePosition&lt;T, U&gt;-backto-RelativeLinearVelocity" style="stroke:#181818;stroke-width:1.0;"/><polygon fill="none" points="652.22,141.38,633.74,131.01,654.65,127.59,652.22,141.38" style="stroke:#181818;stroke-width:1.0;"/></g><!--SRC=[dOyn2y8m48Nt_ehGsNPmBeBQKL14tO_qh4VJIqckWgZ_tO9MRD2Xhk_b-_BELyGDEAZL0dHLEjjoiRJ6EYKEs7SLiaGdAb1XtSX5rIWdM_ZFw4XekaGRy5x5MpGWTCQDzIHaETjDr7uMgsjqZuW5tH4qglXTzzqmoMvf-jCLVZND-mSlrQyDsIr9lcAXSUseknj6Ap-vq3ddqk0esvC8FJbv0TRZL6_eowhMW3kWiPhaCdRVW0tTAsByKnsW3m00]--></g></svg>