<?xml version="1.0" encoding="UTF-8" standalone="no"?><svg xmlns="http://www.w3.org/2000/svg" xmlns:xlink="http://www.w3.org/1999/xlink" contentScriptType="application/ecmascript" contentStyleType="text/css" height="382px" preserveAspectRatio="none" style="width:700px;height:382px;background:#00000000;" version="1.1" viewBox="0 0 700 382" width="700px" zoomAndPan="magnify"><defs><filter height="300%" id="f1r8w9w12vw26w" width="300%" x="-1" y="-1"><feGaussianBlur result="blurOut" stdDeviation="2.0"/><feColorMatrix in="blurOut" result="blurOut2" type="matrix" values="0 0 0 0 0 0 0 0 0 0 0 0 0 0 0 0 0 0 .4 0"/><feOffset dx="4.0" dy="4.0" in="blurOut2" result="blurOut3"/><feBlend in="SourceGraphic" in2="blurOut3" mode="normal"/></filter></defs><g><!--MD5=[6126b1fe5267c4eb3c9344eec2151870]
class RelativeAngle--><rect codeLine="4" fill="#FEFECE" filter="url(#f1r8w9w12vw26w)" height="163.2422" id="RelativeAngle" style="stroke:#A80036;stroke-width:1.5;" width="542" x="75.5" y="205"/><ellipse cx="300.25" cy="221" fill="#ADD1B2" rx="11" ry="11" style="stroke:#A80036;stroke-width:1.0;"/><path d="M303.2188,226.6406 Q302.6406,226.9375 302,227.0781 Q301.3594,227.2344 300.6563,227.2344 Q298.1563,227.2344 296.8281,225.5938 Q295.5156,223.9375 295.5156,220.8125 Q295.5156,217.6875 296.8281,216.0313 Q298.1563,214.375 300.6563,214.375 Q301.3594,214.375 302,214.5313 Q302.6563,214.6875 303.2188,214.9844 L303.2188,217.7031 Q302.5938,217.125 302,216.8594 Q301.4063,216.5781 300.7813,216.5781 Q299.4375,216.5781 298.75,217.6563 Q298.0625,218.7188 298.0625,220.8125 Q298.0625,222.9063 298.75,223.9844 Q299.4375,225.0469 300.7813,225.0469 Q301.4063,225.0469 302,224.7813 Q302.5938,224.5 303.2188,223.9219 L303.2188,226.6406 Z " fill="#000000"/><text fill="#000000" font-family="sans-serif" font-size="12" lengthAdjust="spacing" textLength="84" x="320.75" y="225.1543">RelativeAngle</text><line style="stroke:#A80036;stroke-width:1.5;" x1="76.5" x2="616.5" y1="237" y2="237"/><ellipse cx="86.5" cy="248" rx="3" ry="3" style="stroke:#038048;stroke-width:1.0;fill:none;"/><text fill="#000000" font-family="sans-serif" font-size="11" lengthAdjust="spacing" textLength="118" x="95.5" y="251.2104">angleUnit : AngleUnit</text><ellipse cx="86.5" cy="260.8047" rx="3" ry="3" style="stroke:#038048;stroke-width:1.0;fill:none;"/><text fill="#000000" font-family="sans-serif" font-size="11" lengthAdjust="spacing" textLength="136" x="95.5" y="264.0151">orientation : Orientation</text><ellipse cx="86.5" cy="273.6094" rx="3" ry="3" style="stroke:#038048;stroke-width:1.0;fill:none;"/><text fill="#000000" font-family="sans-serif" font-size="11" lengthAdjust="spacing" textLength="163" x="95.5" y="276.8198">referenceObjectType : string</text><ellipse cx="86.5" cy="286.4141" rx="3" ry="3" style="stroke:#038048;stroke-width:1.0;fill:none;"/><text fill="#000000" font-family="sans-serif" font-size="11" lengthAdjust="spacing" textLength="155" x="95.5" y="289.6245">referenceObjectUID : string</text><ellipse cx="86.5" cy="299.2188" rx="3" ry="3" style="stroke:#038048;stroke-width:1.0;fill:none;"/><text fill="#000000" font-family="sans-serif" font-size="11" lengthAdjust="spacing" textLength="142" x="95.5" y="302.4292">referenceValue : number</text><ellipse cx="86.5" cy="312.0234" rx="3" ry="3" style="stroke:#038048;stroke-width:1.0;fill:none;"/><text fill="#000000" font-family="sans-serif" font-size="11" lengthAdjust="spacing" textLength="117" x="95.5" y="315.2339">timestamp : number</text><line style="stroke:#A80036;stroke-width:1.5;" x1="76.5" x2="616.5" y1="321.8281" y2="321.8281"/><ellipse cx="86.5" cy="332.8281" fill="#84BE84" rx="3" ry="3" style="stroke:#038048;stroke-width:1.0;"/><text fill="#000000" font-family="sans-serif" font-size="11" lengthAdjust="spacing" textLength="125" x="95.5" y="336.0386">clone() : RelativeAngle</text><ellipse cx="86.5" cy="345.6328" fill="#84BE84" rx="3" ry="3" style="stroke:#038048;stroke-width:1.0;"/><text fill="#000000" font-family="sans-serif" font-size="11" lengthAdjust="spacing" textLength="231" x="95.5" y="348.8433">equals(position: RelativeAngle) : boolean</text><ellipse cx="86.5" cy="358.4375" fill="#84BE84" rx="3" ry="3" style="stroke:#038048;stroke-width:1.0;"/><text fill="#000000" font-family="sans-serif" font-size="11" lengthAdjust="spacing" textLength="516" x="95.5" y="361.6479">setAccuracy(accuracy: number | Accuracy&lt;AngleUnit, any&gt;, unit: AngleUnit) : RelativeAngle</text><!--MD5=[92c721f0b62fc3ea560f8abc43cb5040]
class RelativePosition<number, AngleUnit>--><rect codeLine="15" fill="#FEFECE" filter="url(#f1r8w9w12vw26w)" height="137.6328" id="RelativePosition&lt;number, AngleUnit&gt;" style="stroke:#A80036;stroke-width:1.5;" width="679" x="7" y="7"/><ellipse cx="224.75" cy="23" fill="#ADD1B2" rx="11" ry="11" style="stroke:#A80036;stroke-width:1.0;"/><path d="M227.7188,28.6406 Q227.1406,28.9375 226.5,29.0781 Q225.8594,29.2344 225.1563,29.2344 Q222.6563,29.2344 221.3281,27.5938 Q220.0156,25.9375 220.0156,22.8125 Q220.0156,19.6875 221.3281,18.0313 Q222.6563,16.375 225.1563,16.375 Q225.8594,16.375 226.5,16.5313 Q227.1563,16.6875 227.7188,16.9844 L227.7188,19.7031 Q227.0938,19.125 226.5,18.8594 Q225.9063,18.5781 225.2813,18.5781 Q223.9375,18.5781 223.25,19.6563 Q222.5625,20.7188 222.5625,22.8125 Q222.5625,24.9063 223.25,25.9844 Q223.9375,27.0469 225.2813,27.0469 Q225.9063,27.0469 226.5,26.7813 Q227.0938,26.5 227.7188,25.9219 L227.7188,28.6406 Z " fill="#000000"/><text fill="#000000" font-family="sans-serif" font-size="12" lengthAdjust="spacing" textLength="235" x="245.25" y="27.1543">RelativePosition&lt;number, AngleUnit&gt;</text><line style="stroke:#A80036;stroke-width:1.5;" x1="8" x2="685" y1="39" y2="39"/><ellipse cx="18" cy="50" rx="3" ry="3" style="stroke:#038048;stroke-width:1.0;fill:none;"/><text fill="#000000" font-family="sans-serif" font-size="11" lengthAdjust="spacing" textLength="163" x="27" y="53.2104">referenceObjectType : string</text><ellipse cx="18" cy="62.8047" rx="3" ry="3" style="stroke:#038048;stroke-width:1.0;fill:none;"/><text fill="#000000" font-family="sans-serif" font-size="11" lengthAdjust="spacing" textLength="155" x="27" y="66.0151">referenceObjectUID : string</text><ellipse cx="18" cy="75.6094" rx="3" ry="3" style="stroke:#038048;stroke-width:1.0;fill:none;"/><text fill="#000000" font-family="sans-serif" font-size="11" lengthAdjust="spacing" textLength="142" x="27" y="78.8198">referenceValue : number</text><ellipse cx="18" cy="88.4141" rx="3" ry="3" style="stroke:#038048;stroke-width:1.0;fill:none;"/><text fill="#000000" font-family="sans-serif" font-size="11" lengthAdjust="spacing" textLength="117" x="27" y="91.6245">timestamp : number</text><line style="stroke:#A80036;stroke-width:1.5;" x1="8" x2="685" y1="98.2188" y2="98.2188"/><ellipse cx="18" cy="109.2188" fill="#84BE84" rx="3" ry="3" style="stroke:#038048;stroke-width:1.0;"/><text fill="#000000" font-family="sans-serif" font-size="11" lengthAdjust="spacing" textLength="262" x="27" y="112.4292">clone() : RelativePosition&lt;number, AngleUnit&gt;</text><ellipse cx="18" cy="122.0234" fill="#84BE84" rx="3" ry="3" style="stroke:#038048;stroke-width:1.0;"/><text fill="#000000" font-family="sans-serif" font-size="11" lengthAdjust="spacing" textLength="368" x="27" y="125.2339">equals(position: RelativePosition&lt;number, AngleUnit&gt;) : boolean</text><ellipse cx="18" cy="134.8281" fill="#84BE84" rx="3" ry="3" style="stroke:#038048;stroke-width:1.0;"/><text fill="#000000" font-family="sans-serif" font-size="11" lengthAdjust="spacing" textLength="653" x="27" y="138.0386">setAccuracy(accuracy: number | Accuracy&lt;AngleUnit, any&gt;, unit: AngleUnit) : RelativePosition&lt;number, AngleUnit&gt;</text><!--MD5=[764053fd70c5a5b6e299fd8c36148d43]
reverse link RelativePosition<number, AngleUnit> to RelativeAngle--><path codeLine="24" d="M346.5,165.39 C346.5,178.45 346.5,191.85 346.5,204.74 " fill="none" id="RelativePosition&lt;number, AngleUnit&gt;-backto-RelativeAngle" style="stroke:#A80036;stroke-width:1.0;"/><polygon fill="none" points="339.5,165.27,346.5,145.27,353.5,165.27,339.5,165.27" style="stroke:#A80036;stroke-width:1.0;"/><!--MD5=[d294305129b1334d8cbd230b4ad610aa]
@startuml
skinparam BackgroundColor transparent
hide empty methods
hide empty fields
class "RelativeAngle" {
    +angleUnit : AngleUnit
    +orientation : Orientation
    +referenceObjectType : string
    +referenceObjectUID : string
    +referenceValue : number
    +timestamp : number
    +clone() : RelativeAngle
    +equals(position: RelativeAngle) : boolean
    +setAccuracy(accuracy: number | Accuracy<AngleUnit, any>, unit: AngleUnit) : RelativeAngle
}
class "RelativePosition<number, AngleUnit>" {
    +referenceObjectType : string
    +referenceObjectUID : string
    +referenceValue : number
    +timestamp : number
    +clone() : RelativePosition<number, AngleUnit>
    +equals(position: RelativePosition<number, AngleUnit>) : boolean
    +setAccuracy(accuracy: number | Accuracy<AngleUnit, any>, unit: AngleUnit) : RelativePosition<number, AngleUnit>
}
"RelativePosition<number, AngleUnit>" <|- - "RelativeAngle"
@enduml

PlantUML version 1.2021.14(Fri Nov 12 16:46:50 UTC 2021)
(GPL source distribution)
Java Runtime: OpenJDK Runtime Environment
JVM: OpenJDK 64-Bit Server VM
Default Encoding: UTF-8
Language: en
Country: null
--></g></svg>