<?xml version="1.0" encoding="us-ascii" standalone="no"?><svg xmlns="http://www.w3.org/2000/svg" xmlns:xlink="http://www.w3.org/1999/xlink" contentStyleType="text/css" height="230px" preserveAspectRatio="none" style="width:762px;height:230px;" version="1.1" viewBox="0 0 762 230" width="762px" zoomAndPan="magnify"><defs/><g><!--class RelativePosition<T, U>--><g id="elem_RelativePosition&lt;T, U&gt;"><rect codeLine="4" fill="#F1F1F1" height="32" id="RelativePosition&lt;T, U&gt;" rx="2.5" ry="2.5" style="stroke:#181818;stroke-width:0.5;" width="192" x="246.5" y="99"/><ellipse cx="261.5" cy="115" fill="#ADD1B2" rx="11" ry="11" style="stroke:#181818;stroke-width:1.0;"/><path d="M264.4688,120.6406 Q263.8906,120.9375 263.25,121.0781 Q262.6094,121.2344 261.9063,121.2344 Q259.4063,121.2344 258.0781,119.5938 Q256.7656,117.9375 256.7656,114.8125 Q256.7656,111.6875 258.0781,110.0313 Q259.4063,108.375 261.9063,108.375 Q262.6094,108.375 263.25,108.5313 Q263.9063,108.6875 264.4688,108.9844 L264.4688,111.7031 Q263.8438,111.125 263.25,110.8594 Q262.6563,110.5781 262.0313,110.5781 Q260.6875,110.5781 260,111.6563 Q259.3125,112.7188 259.3125,114.8125 Q259.3125,116.9063 260,117.9844 Q260.6875,119.0469 262.0313,119.0469 Q262.6563,119.0469 263.25,118.7813 Q263.8438,118.5 264.4688,117.9219 L264.4688,120.6406 Z " fill="#000000"/><text fill="#000000" font-family="sans-serif" font-size="14" lengthAdjust="spacing" textLength="160" x="275.5" y="119.8467">RelativePosition&lt;T, U&gt;</text></g><!--class Position<U>--><g id="elem_Position&lt;U&gt;"><rect codeLine="6" fill="#F1F1F1" height="32" id="Position&lt;U&gt;" rx="2.5" ry="2.5" style="stroke:#181818;stroke-width:0.5;" width="119" x="283" y="7"/><ellipse cx="298" cy="23" fill="#B4A7E5" rx="11" ry="11" style="stroke:#181818;stroke-width:1.0;"/><path d="M293.9219,18.7656 L293.9219,16.6094 L301.3125,16.6094 L301.3125,18.7656 L298.8438,18.7656 L298.8438,26.8438 L301.3125,26.8438 L301.3125,29 L293.9219,29 L293.9219,26.8438 L296.3906,26.8438 L296.3906,18.7656 L293.9219,18.7656 Z " fill="#000000"/><text fill="#000000" font-family="sans-serif" font-size="14" font-style="italic" lengthAdjust="spacing" textLength="87" x="312" y="27.8467">Position&lt;U&gt;</text></g><!--class RelativeAngle--><g id="elem_RelativeAngle"><rect codeLine="9" fill="#F1F1F1" height="32" id="RelativeAngle" rx="2.5" ry="2.5" style="stroke:#181818;stroke-width:0.5;" width="125" x="7" y="191"/><ellipse cx="22" cy="207" fill="#ADD1B2" rx="11" ry="11" style="stroke:#181818;stroke-width:1.0;"/><path d="M24.9688,212.6406 Q24.3906,212.9375 23.75,213.0781 Q23.1094,213.2344 22.4063,213.2344 Q19.9063,213.2344 18.5781,211.5938 Q17.2656,209.9375 17.2656,206.8125 Q17.2656,203.6875 18.5781,202.0313 Q19.9063,200.375 22.4063,200.375 Q23.1094,200.375 23.75,200.5313 Q24.4063,200.6875 24.9688,200.9844 L24.9688,203.7031 Q24.3438,203.125 23.75,202.8594 Q23.1563,202.5781 22.5313,202.5781 Q21.1875,202.5781 20.5,203.6563 Q19.8125,204.7188 19.8125,206.8125 Q19.8125,208.9063 20.5,209.9844 Q21.1875,211.0469 22.5313,211.0469 Q23.1563,211.0469 23.75,210.7813 Q24.3438,210.5 24.9688,209.9219 L24.9688,212.6406 Z " fill="#000000"/><text fill="#000000" font-family="sans-serif" font-size="14" lengthAdjust="spacing" textLength="93" x="36" y="211.8467">RelativeAngle</text></g><!--class RelativeDistance--><g id="elem_RelativeDistance"><rect codeLine="12" fill="#F1F1F1" height="32" id="RelativeDistance" rx="2.5" ry="2.5" style="stroke:#181818;stroke-width:0.5;" width="147" x="167" y="191"/><ellipse cx="182" cy="207" fill="#ADD1B2" rx="11" ry="11" style="stroke:#181818;stroke-width:1.0;"/><path d="M184.9688,212.6406 Q184.3906,212.9375 183.75,213.0781 Q183.1094,213.2344 182.4063,213.2344 Q179.9063,213.2344 178.5781,211.5938 Q177.2656,209.9375 177.2656,206.8125 Q177.2656,203.6875 178.5781,202.0313 Q179.9063,200.375 182.4063,200.375 Q183.1094,200.375 183.75,200.5313 Q184.4063,200.6875 184.9688,200.9844 L184.9688,203.7031 Q184.3438,203.125 183.75,202.8594 Q183.1563,202.5781 182.5313,202.5781 Q181.1875,202.5781 180.5,203.6563 Q179.8125,204.7188 179.8125,206.8125 Q179.8125,208.9063 180.5,209.9844 Q181.1875,211.0469 182.5313,211.0469 Q183.1563,211.0469 183.75,210.7813 Q184.3438,210.5 184.9688,209.9219 L184.9688,212.6406 Z " fill="#000000"/><text fill="#000000" font-family="sans-serif" font-size="14" lengthAdjust="spacing" textLength="115" x="196" y="211.8467">RelativeDistance</text></g><!--class RelativeAngularVelocity--><g id="elem_RelativeAngularVelocity"><rect codeLine="15" fill="#F1F1F1" height="32" id="RelativeAngularVelocity" rx="2.5" ry="2.5" style="stroke:#181818;stroke-width:0.5;" width="191" x="349" y="191"/><ellipse cx="364" cy="207" fill="#ADD1B2" rx="11" ry="11" style="stroke:#181818;stroke-width:1.0;"/><path d="M366.9688,212.6406 Q366.3906,212.9375 365.75,213.0781 Q365.1094,213.2344 364.4063,213.2344 Q361.9063,213.2344 360.5781,211.5938 Q359.2656,209.9375 359.2656,206.8125 Q359.2656,203.6875 360.5781,202.0313 Q361.9063,200.375 364.4063,200.375 Q365.1094,200.375 365.75,200.5313 Q366.4063,200.6875 366.9688,200.9844 L366.9688,203.7031 Q366.3438,203.125 365.75,202.8594 Q365.1563,202.5781 364.5313,202.5781 Q363.1875,202.5781 362.5,203.6563 Q361.8125,204.7188 361.8125,206.8125 Q361.8125,208.9063 362.5,209.9844 Q363.1875,211.0469 364.5313,211.0469 Q365.1563,211.0469 365.75,210.7813 Q366.3438,210.5 366.9688,209.9219 L366.9688,212.6406 Z " fill="#000000"/><text fill="#000000" font-family="sans-serif" font-size="14" lengthAdjust="spacing" textLength="159" x="378" y="211.8467">RelativeAngularVelocity</text></g><!--class RelativeLinearVelocity--><g id="elem_RelativeLinearVelocity"><rect codeLine="18" fill="#F1F1F1" height="32" id="RelativeLinearVelocity" rx="2.5" ry="2.5" style="stroke:#181818;stroke-width:0.5;" width="180" x="575.5" y="191"/><ellipse cx="590.5" cy="207" fill="#ADD1B2" rx="11" ry="11" style="stroke:#181818;stroke-width:1.0;"/><path d="M593.4688,212.6406 Q592.8906,212.9375 592.25,213.0781 Q591.6094,213.2344 590.9063,213.2344 Q588.4063,213.2344 587.0781,211.5938 Q585.7656,209.9375 585.7656,206.8125 Q585.7656,203.6875 587.0781,202.0313 Q588.4063,200.375 590.9063,200.375 Q591.6094,200.375 592.25,200.5313 Q592.9063,200.6875 593.4688,200.9844 L593.4688,203.7031 Q592.8438,203.125 592.25,202.8594 Q591.6563,202.5781 591.0313,202.5781 Q589.6875,202.5781 589,203.6563 Q588.3125,204.7188 588.3125,206.8125 Q588.3125,208.9063 589,209.9844 Q589.6875,211.0469 591.0313,211.0469 Q591.6563,211.0469 592.25,210.7813 Q592.8438,210.5 593.4688,209.9219 L593.4688,212.6406 Z " fill="#000000"/><text fill="#000000" font-family="sans-serif" font-size="14" lengthAdjust="spacing" textLength="148" x="604.5" y="211.8467">RelativeLinearVelocity</text></g><!--reverse link Position<U> to RelativePosition<T, U>--><g id="link_Position&lt;U&gt;_RelativePosition&lt;T, U&gt;"><path codeLine="8" d="M342.5,59.61 C342.5,73.31 342.5,88.22 342.5,98.96 " fill="none" id="Position&lt;U&gt;-backto-RelativePosition&lt;T, U&gt;" style="stroke:#181818;stroke-width:1.0;stroke-dasharray:7.0,7.0;"/><polygon fill="none" points="335.5,59.27,342.5,39.27,349.5,59.27,335.5,59.27" style="stroke:#181818;stroke-width:1.0;"/></g><!--reverse link RelativePosition<T, U> to RelativeAngle--><g id="link_RelativePosition&lt;T, U&gt;_RelativeAngle"><path codeLine="11" d="M277.61,137.39 C227.63,153.87 159.79,176.24 115.34,190.89 " fill="none" id="RelativePosition&lt;T, U&gt;-backto-RelativeAngle" style="stroke:#181818;stroke-width:1.0;"/><polygon fill="none" points="275.62,130.68,296.81,131.06,280,143.97,275.62,130.68" style="stroke:#181818;stroke-width:1.0;"/></g><!--reverse link RelativePosition<T, U> to RelativeDistance--><g id="link_RelativePosition&lt;T, U&gt;_RelativeDistance"><path codeLine="14" d="M310.11,144.58 C292.66,159.97 271.84,178.34 257.55,190.96 " fill="none" id="RelativePosition&lt;T, U&gt;-backto-RelativeDistance" style="stroke:#181818;stroke-width:1.0;"/><polygon fill="none" points="305.57,139.25,325.2,131.27,314.83,149.75,305.57,139.25" style="stroke:#181818;stroke-width:1.0;"/></g><!--reverse link RelativePosition<T, U> to RelativeAngularVelocity--><g id="link_RelativePosition&lt;T, U&gt;_RelativeAngularVelocity"><path codeLine="17" d="M374.89,144.58 C392.34,159.97 413.16,178.34 427.45,190.96 " fill="none" id="RelativePosition&lt;T, U&gt;-backto-RelativeAngularVelocity" style="stroke:#181818;stroke-width:1.0;"/><polygon fill="none" points="370.17,149.75,359.8,131.27,379.43,139.25,370.17,149.75" style="stroke:#181818;stroke-width:1.0;"/></g><!--reverse link RelativePosition<T, U> to RelativeLinearVelocity--><g id="link_RelativePosition&lt;T, U&gt;_RelativeLinearVelocity"><path codeLine="20" d="M416.18,136.53 C475.68,153.11 558.03,176.06 611.53,190.96 " fill="none" id="RelativePosition&lt;T, U&gt;-backto-RelativeLinearVelocity" style="stroke:#181818;stroke-width:1.0;"/><polygon fill="none" points="413.95,143.18,396.56,131.06,417.71,129.69,413.95,143.18" style="stroke:#181818;stroke-width:1.0;"/></g><!--SRC=[dOwz3e9048Hxdk92BJm1CV6dj316xJV70XkFFNAtc13ntQLG8XSfi9t9zytu6t433cgr1NqhdMqvtrbZdH87x8SAMQAASbHODzAf6gMokV-E2a8p9Dg0zoe-eG6XEnwj9o7BsNcbBkjOFQ9dH2pe2j2euh7-TDCawzDqrXLERRWq-BRCpMTzaeH4wDcJ5s2zJ3L2Frwr1jmLZTKatT9_4pPq7uZnJtM0lW00]--></g></svg>