<?xml version="1.0" encoding="us-ascii" standalone="no"?><svg xmlns="http://www.w3.org/2000/svg" xmlns:xlink="http://www.w3.org/1999/xlink" contentStyleType="text/css" height="230px" preserveAspectRatio="none" style="width:958px;height:230px;" version="1.1" viewBox="0 0 958 230" width="958px" zoomAndPan="magnify"><defs/><g><!--class RelativePosition<T, U>--><g id="elem_RelativePosition&lt;T, U&gt;"><rect codeLine="4" fill="#F1F1F1" height="32" id="RelativePosition&lt;T, U&gt;" rx="2.5" ry="2.5" style="stroke:#181818;stroke-width:0.5;" width="192" x="340.5" y="99"/><ellipse cx="355.5" cy="115" fill="#ADD1B2" rx="11" ry="11" style="stroke:#181818;stroke-width:1.0;"/><path d="M358.4688,120.6406 Q357.8906,120.9375 357.25,121.0781 Q356.6094,121.2344 355.9063,121.2344 Q353.4063,121.2344 352.0781,119.5938 Q350.7656,117.9375 350.7656,114.8125 Q350.7656,111.6875 352.0781,110.0313 Q353.4063,108.375 355.9063,108.375 Q356.6094,108.375 357.25,108.5313 Q357.9063,108.6875 358.4688,108.9844 L358.4688,111.7031 Q357.8438,111.125 357.25,110.8594 Q356.6563,110.5781 356.0313,110.5781 Q354.6875,110.5781 354,111.6563 Q353.3125,112.7188 353.3125,114.8125 Q353.3125,116.9063 354,117.9844 Q354.6875,119.0469 356.0313,119.0469 Q356.6563,119.0469 357.25,118.7813 Q357.8438,118.5 358.4688,117.9219 L358.4688,120.6406 Z " fill="#000000"/><text fill="#000000" font-family="sans-serif" font-size="14" lengthAdjust="spacing" textLength="160" x="369.5" y="119.8467">RelativePosition&lt;T, U&gt;</text></g><!--class Position<U>--><g id="elem_Position&lt;U&gt;"><rect codeLine="6" fill="#F1F1F1" height="32" id="Position&lt;U&gt;" rx="2.5" ry="2.5" style="stroke:#181818;stroke-width:0.5;" width="119" x="377" y="7"/><ellipse cx="392" cy="23" fill="#B4A7E5" rx="11" ry="11" style="stroke:#181818;stroke-width:1.0;"/><path d="M387.9219,18.7656 L387.9219,16.6094 L395.3125,16.6094 L395.3125,18.7656 L392.8438,18.7656 L392.8438,26.8438 L395.3125,26.8438 L395.3125,29 L387.9219,29 L387.9219,26.8438 L390.3906,26.8438 L390.3906,18.7656 L387.9219,18.7656 Z " fill="#000000"/><text fill="#000000" font-family="sans-serif" font-size="14" font-style="italic" lengthAdjust="spacing" textLength="87" x="406" y="27.8467">Position&lt;U&gt;</text></g><!--class Relative2DPosition--><g id="elem_Relative2DPosition"><rect codeLine="9" fill="#F1F1F1" height="32" id="Relative2DPosition" rx="2.5" ry="2.5" style="stroke:#181818;stroke-width:0.5;" width="161" x="7" y="191"/><ellipse cx="22" cy="207" fill="#ADD1B2" rx="11" ry="11" style="stroke:#181818;stroke-width:1.0;"/><path d="M24.9688,212.6406 Q24.3906,212.9375 23.75,213.0781 Q23.1094,213.2344 22.4063,213.2344 Q19.9063,213.2344 18.5781,211.5938 Q17.2656,209.9375 17.2656,206.8125 Q17.2656,203.6875 18.5781,202.0313 Q19.9063,200.375 22.4063,200.375 Q23.1094,200.375 23.75,200.5313 Q24.4063,200.6875 24.9688,200.9844 L24.9688,203.7031 Q24.3438,203.125 23.75,202.8594 Q23.1563,202.5781 22.5313,202.5781 Q21.1875,202.5781 20.5,203.6563 Q19.8125,204.7188 19.8125,206.8125 Q19.8125,208.9063 20.5,209.9844 Q21.1875,211.0469 22.5313,211.0469 Q23.1563,211.0469 23.75,210.7813 Q24.3438,210.5 24.9688,209.9219 L24.9688,212.6406 Z " fill="#000000"/><text fill="#000000" font-family="sans-serif" font-size="14" lengthAdjust="spacing" textLength="129" x="36" y="211.8467">Relative2DPosition</text></g><!--class RelativeAngle--><g id="elem_RelativeAngle"><rect codeLine="12" fill="#F1F1F1" height="32" id="RelativeAngle" rx="2.5" ry="2.5" style="stroke:#181818;stroke-width:0.5;" width="125" x="203" y="191"/><ellipse cx="218" cy="207" fill="#ADD1B2" rx="11" ry="11" style="stroke:#181818;stroke-width:1.0;"/><path d="M220.9688,212.6406 Q220.3906,212.9375 219.75,213.0781 Q219.1094,213.2344 218.4063,213.2344 Q215.9063,213.2344 214.5781,211.5938 Q213.2656,209.9375 213.2656,206.8125 Q213.2656,203.6875 214.5781,202.0313 Q215.9063,200.375 218.4063,200.375 Q219.1094,200.375 219.75,200.5313 Q220.4063,200.6875 220.9688,200.9844 L220.9688,203.7031 Q220.3438,203.125 219.75,202.8594 Q219.1563,202.5781 218.5313,202.5781 Q217.1875,202.5781 216.5,203.6563 Q215.8125,204.7188 215.8125,206.8125 Q215.8125,208.9063 216.5,209.9844 Q217.1875,211.0469 218.5313,211.0469 Q219.1563,211.0469 219.75,210.7813 Q220.3438,210.5 220.9688,209.9219 L220.9688,212.6406 Z " fill="#000000"/><text fill="#000000" font-family="sans-serif" font-size="14" lengthAdjust="spacing" textLength="93" x="232" y="211.8467">RelativeAngle</text></g><!--class RelativeDistance--><g id="elem_RelativeDistance"><rect codeLine="15" fill="#F1F1F1" height="32" id="RelativeDistance" rx="2.5" ry="2.5" style="stroke:#181818;stroke-width:0.5;" width="147" x="363" y="191"/><ellipse cx="378" cy="207" fill="#ADD1B2" rx="11" ry="11" style="stroke:#181818;stroke-width:1.0;"/><path d="M380.9688,212.6406 Q380.3906,212.9375 379.75,213.0781 Q379.1094,213.2344 378.4063,213.2344 Q375.9063,213.2344 374.5781,211.5938 Q373.2656,209.9375 373.2656,206.8125 Q373.2656,203.6875 374.5781,202.0313 Q375.9063,200.375 378.4063,200.375 Q379.1094,200.375 379.75,200.5313 Q380.4063,200.6875 380.9688,200.9844 L380.9688,203.7031 Q380.3438,203.125 379.75,202.8594 Q379.1563,202.5781 378.5313,202.5781 Q377.1875,202.5781 376.5,203.6563 Q375.8125,204.7188 375.8125,206.8125 Q375.8125,208.9063 376.5,209.9844 Q377.1875,211.0469 378.5313,211.0469 Q379.1563,211.0469 379.75,210.7813 Q380.3438,210.5 380.9688,209.9219 L380.9688,212.6406 Z " fill="#000000"/><text fill="#000000" font-family="sans-serif" font-size="14" lengthAdjust="spacing" textLength="115" x="392" y="211.8467">RelativeDistance</text></g><!--class RelativeAngularVelocity--><g id="elem_RelativeAngularVelocity"><rect codeLine="18" fill="#F1F1F1" height="32" id="RelativeAngularVelocity" rx="2.5" ry="2.5" style="stroke:#181818;stroke-width:0.5;" width="191" x="545" y="191"/><ellipse cx="560" cy="207" fill="#ADD1B2" rx="11" ry="11" style="stroke:#181818;stroke-width:1.0;"/><path d="M562.9688,212.6406 Q562.3906,212.9375 561.75,213.0781 Q561.1094,213.2344 560.4063,213.2344 Q557.9063,213.2344 556.5781,211.5938 Q555.2656,209.9375 555.2656,206.8125 Q555.2656,203.6875 556.5781,202.0313 Q557.9063,200.375 560.4063,200.375 Q561.1094,200.375 561.75,200.5313 Q562.4063,200.6875 562.9688,200.9844 L562.9688,203.7031 Q562.3438,203.125 561.75,202.8594 Q561.1563,202.5781 560.5313,202.5781 Q559.1875,202.5781 558.5,203.6563 Q557.8125,204.7188 557.8125,206.8125 Q557.8125,208.9063 558.5,209.9844 Q559.1875,211.0469 560.5313,211.0469 Q561.1563,211.0469 561.75,210.7813 Q562.3438,210.5 562.9688,209.9219 L562.9688,212.6406 Z " fill="#000000"/><text fill="#000000" font-family="sans-serif" font-size="14" lengthAdjust="spacing" textLength="159" x="574" y="211.8467">RelativeAngularVelocity</text></g><!--class RelativeLinearVelocity--><g id="elem_RelativeLinearVelocity"><rect codeLine="21" fill="#F1F1F1" height="32" id="RelativeLinearVelocity" rx="2.5" ry="2.5" style="stroke:#181818;stroke-width:0.5;" width="180" x="771.5" y="191"/><ellipse cx="786.5" cy="207" fill="#ADD1B2" rx="11" ry="11" style="stroke:#181818;stroke-width:1.0;"/><path d="M789.4688,212.6406 Q788.8906,212.9375 788.25,213.0781 Q787.6094,213.2344 786.9063,213.2344 Q784.4063,213.2344 783.0781,211.5938 Q781.7656,209.9375 781.7656,206.8125 Q781.7656,203.6875 783.0781,202.0313 Q784.4063,200.375 786.9063,200.375 Q787.6094,200.375 788.25,200.5313 Q788.9063,200.6875 789.4688,200.9844 L789.4688,203.7031 Q788.8438,203.125 788.25,202.8594 Q787.6563,202.5781 787.0313,202.5781 Q785.6875,202.5781 785,203.6563 Q784.3125,204.7188 784.3125,206.8125 Q784.3125,208.9063 785,209.9844 Q785.6875,211.0469 787.0313,211.0469 Q787.6563,211.0469 788.25,210.7813 Q788.8438,210.5 789.4688,209.9219 L789.4688,212.6406 Z " fill="#000000"/><text fill="#000000" font-family="sans-serif" font-size="14" lengthAdjust="spacing" textLength="148" x="800.5" y="211.8467">RelativeLinearVelocity</text></g><!--reverse link Position<U> to RelativePosition<T, U>--><g id="link_Position&lt;U&gt;_RelativePosition&lt;T, U&gt;"><path codeLine="8" d="M436.5,59.61 C436.5,73.31 436.5,88.22 436.5,98.96 " fill="none" id="Position&lt;U&gt;-backto-RelativePosition&lt;T, U&gt;" style="stroke:#181818;stroke-width:1.0;stroke-dasharray:7.0,7.0;"/><polygon fill="none" points="429.5,59.27,436.5,39.27,443.5,59.27,429.5,59.27" style="stroke:#181818;stroke-width:1.0;"/></g><!--reverse link RelativePosition<T, U> to Relative2DPosition--><g id="link_RelativePosition&lt;T, U&gt;_Relative2DPosition"><path codeLine="11" d="M358.56,136.1 C294.15,152.71 204.12,175.93 145.81,190.96 " fill="none" id="RelativePosition&lt;T, U&gt;-backto-Relative2DPosition" style="stroke:#181818;stroke-width:1.0;"/><polygon fill="none" points="356.97,129.28,378.09,131.06,360.47,142.84,356.97,129.28" style="stroke:#181818;stroke-width:1.0;"/></g><!--reverse link RelativePosition<T, U> to RelativeAngle--><g id="link_RelativePosition&lt;T, U&gt;_RelativeAngle"><path codeLine="14" d="M390.12,140.41 C359.51,156.52 320.39,177.11 294.21,190.89 " fill="none" id="RelativePosition&lt;T, U&gt;-backto-RelativeAngle" style="stroke:#181818;stroke-width:1.0;"/><polygon fill="none" points="386.92,134.18,407.88,131.06,393.44,146.57,386.92,134.18" style="stroke:#181818;stroke-width:1.0;"/></g><!--reverse link RelativePosition<T, U> to RelativeDistance--><g id="link_RelativePosition&lt;T, U&gt;_RelativeDistance"><path codeLine="17" d="M436.5,151.61 C436.5,165.31 436.5,180.22 436.5,190.96 " fill="none" id="RelativePosition&lt;T, U&gt;-backto-RelativeDistance" style="stroke:#181818;stroke-width:1.0;"/><polygon fill="none" points="429.5,151.27,436.5,131.27,443.5,151.27,429.5,151.27" style="stroke:#181818;stroke-width:1.0;"/></g><!--reverse link RelativePosition<T, U> to RelativeAngularVelocity--><g id="link_RelativePosition&lt;T, U&gt;_RelativeAngularVelocity"><path codeLine="20" d="M489.01,139.17 C525.91,155.45 574.21,176.76 606.24,190.89 " fill="none" id="RelativePosition&lt;T, U&gt;-backto-RelativeAngularVelocity" style="stroke:#181818;stroke-width:1.0;"/><polygon fill="none" points="486.12,145.54,470.65,131.06,491.77,132.73,486.12,145.54" style="stroke:#181818;stroke-width:1.0;"/></g><!--reverse link RelativePosition<T, U> to RelativeLinearVelocity--><g id="link_RelativePosition&lt;T, U&gt;_RelativeLinearVelocity"><path codeLine="23" d="M527.37,135.24 C606.04,151.9 718.25,175.67 790.49,190.96 " fill="none" id="RelativePosition&lt;T, U&gt;-backto-RelativeLinearVelocity" style="stroke:#181818;stroke-width:1.0;"/><polygon fill="none" points="525.75,142.06,507.64,131.06,528.65,128.36,525.75,142.06" style="stroke:#181818;stroke-width:1.0;"/></g><!--SRC=[dOwx2i9044NxVCMGsbXO1y57QI6YziDcrC7DRDYT2C7uxmgQe8iMiRrtpfaRpYmLUYnXZkPyzAwMOk6iyw0U9Jmg4arEN11GMMa39Ud95U4zEZ3PHs8iXW3fXYmgNsZj0YixoRSZs4rJk2QtX4N97z0Gf7tTTPz9tex7FrtngycoEtYfVct8sopxYiN6cHmj3P8zYTYpvA0ePfYgXxwigYtwFLbdM9kX-pxOsBrYeJ_L4Ne7]--></g></svg>