<?xml version="1.0" encoding="us-ascii" standalone="no"?><svg xmlns="http://www.w3.org/2000/svg" xmlns:xlink="http://www.w3.org/1999/xlink" contentStyleType="text/css" height="230px" preserveAspectRatio="none" style="width:772px;height:230px;" version="1.1" viewBox="0 0 772 230" width="772px" zoomAndPan="magnify"><defs/><g><!--class RelativePositionProcessing<InOut, R>--><g id="elem_RelativePositionProcessing&lt;InOut, R&gt;"><rect codeLine="4" fill="#F1F1F1" height="32" id="RelativePositionProcessing&lt;InOut, R&gt;" rx="2.5" ry="2.5" style="stroke:#181818;stroke-width:0.5;" width="294" x="231" y="99"/><ellipse cx="246" cy="115" fill="#A9DCDF" rx="11" ry="11" style="stroke:#181818;stroke-width:1.0;"/><path d="M246.1094,110.3438 L244.9531,115.4219 L247.2813,115.4219 L246.1094,110.3438 Z M244.625,108.1094 L247.6094,108.1094 L250.9688,120.5 L248.5156,120.5 L247.75,117.4375 L244.4688,117.4375 L243.7188,120.5 L241.2813,120.5 L244.625,108.1094 Z " fill="#000000"/><text fill="#000000" font-family="sans-serif" font-size="14" font-style="italic" lengthAdjust="spacing" textLength="262" x="260" y="119.8467">RelativePositionProcessing&lt;InOut, R&gt;</text></g><!--class ObjectProcessingNode<InOut>--><g id="elem_ObjectProcessingNode&lt;InOut&gt;"><rect codeLine="6" fill="#F1F1F1" height="32" id="ObjectProcessingNode&lt;InOut&gt;" rx="2.5" ry="2.5" style="stroke:#181818;stroke-width:0.5;" width="251" x="252.5" y="7"/><ellipse cx="267.5" cy="23" fill="#A9DCDF" rx="11" ry="11" style="stroke:#181818;stroke-width:1.0;"/><path d="M267.6094,18.3438 L266.4531,23.4219 L268.7813,23.4219 L267.6094,18.3438 Z M266.125,16.1094 L269.1094,16.1094 L272.4688,28.5 L270.0156,28.5 L269.25,25.4375 L265.9688,25.4375 L265.2188,28.5 L262.7813,28.5 L266.125,16.1094 Z " fill="#000000"/><text fill="#000000" font-family="sans-serif" font-size="14" font-style="italic" lengthAdjust="spacing" textLength="219" x="281.5" y="27.8467">ObjectProcessingNode&lt;InOut&gt;</text></g><!--class MultilaterationNode<InOut>--><g id="elem_MultilaterationNode&lt;InOut&gt;"><rect codeLine="9" fill="#F1F1F1" height="32" id="MultilaterationNode&lt;InOut&gt;" rx="2.5" ry="2.5" style="stroke:#181818;stroke-width:0.5;" width="226" x="7" y="191"/><ellipse cx="22" cy="207" fill="#ADD1B2" rx="11" ry="11" style="stroke:#181818;stroke-width:1.0;"/><path d="M24.9688,212.6406 Q24.3906,212.9375 23.75,213.0781 Q23.1094,213.2344 22.4063,213.2344 Q19.9063,213.2344 18.5781,211.5938 Q17.2656,209.9375 17.2656,206.8125 Q17.2656,203.6875 18.5781,202.0313 Q19.9063,200.375 22.4063,200.375 Q23.1094,200.375 23.75,200.5313 Q24.4063,200.6875 24.9688,200.9844 L24.9688,203.7031 Q24.3438,203.125 23.75,202.8594 Q23.1563,202.5781 22.5313,202.5781 Q21.1875,202.5781 20.5,203.6563 Q19.8125,204.7188 19.8125,206.8125 Q19.8125,208.9063 20.5,209.9844 Q21.1875,211.0469 22.5313,211.0469 Q23.1563,211.0469 23.75,210.7813 Q24.3438,210.5 24.9688,209.9219 L24.9688,212.6406 Z " fill="#000000"/><text fill="#000000" font-family="sans-serif" font-size="14" lengthAdjust="spacing" textLength="194" x="36" y="211.8467">MultilaterationNode&lt;InOut&gt;</text></g><!--class TriangulationNode<InOut>--><g id="elem_TriangulationNode&lt;InOut&gt;"><rect codeLine="12" fill="#F1F1F1" height="32" id="TriangulationNode&lt;InOut&gt;" rx="2.5" ry="2.5" style="stroke:#181818;stroke-width:0.5;" width="219" x="268.5" y="191"/><ellipse cx="283.5" cy="207" fill="#ADD1B2" rx="11" ry="11" style="stroke:#181818;stroke-width:1.0;"/><path d="M286.4688,212.6406 Q285.8906,212.9375 285.25,213.0781 Q284.6094,213.2344 283.9063,213.2344 Q281.4063,213.2344 280.0781,211.5938 Q278.7656,209.9375 278.7656,206.8125 Q278.7656,203.6875 280.0781,202.0313 Q281.4063,200.375 283.9063,200.375 Q284.6094,200.375 285.25,200.5313 Q285.9063,200.6875 286.4688,200.9844 L286.4688,203.7031 Q285.8438,203.125 285.25,202.8594 Q284.6563,202.5781 284.0313,202.5781 Q282.6875,202.5781 282,203.6563 Q281.3125,204.7188 281.3125,206.8125 Q281.3125,208.9063 282,209.9844 Q282.6875,211.0469 284.0313,211.0469 Q284.6563,211.0469 285.25,210.7813 Q285.8438,210.5 286.4688,209.9219 L286.4688,212.6406 Z " fill="#000000"/><text fill="#000000" font-family="sans-serif" font-size="14" lengthAdjust="spacing" textLength="187" x="297.5" y="211.8467">TriangulationNode&lt;InOut&gt;</text></g><!--class CellIdentificationNode<InOut>--><g id="elem_CellIdentificationNode&lt;InOut&gt;"><rect codeLine="15" fill="#F1F1F1" height="32" id="CellIdentificationNode&lt;InOut&gt;" rx="2.5" ry="2.5" style="stroke:#181818;stroke-width:0.5;" width="242" x="523" y="191"/><ellipse cx="538" cy="207" fill="#ADD1B2" rx="11" ry="11" style="stroke:#181818;stroke-width:1.0;"/><path d="M540.9688,212.6406 Q540.3906,212.9375 539.75,213.0781 Q539.1094,213.2344 538.4063,213.2344 Q535.9063,213.2344 534.5781,211.5938 Q533.2656,209.9375 533.2656,206.8125 Q533.2656,203.6875 534.5781,202.0313 Q535.9063,200.375 538.4063,200.375 Q539.1094,200.375 539.75,200.5313 Q540.4063,200.6875 540.9688,200.9844 L540.9688,203.7031 Q540.3438,203.125 539.75,202.8594 Q539.1563,202.5781 538.5313,202.5781 Q537.1875,202.5781 536.5,203.6563 Q535.8125,204.7188 535.8125,206.8125 Q535.8125,208.9063 536.5,209.9844 Q537.1875,211.0469 538.5313,211.0469 Q539.1563,211.0469 539.75,210.7813 Q540.3438,210.5 540.9688,209.9219 L540.9688,212.6406 Z " fill="#000000"/><text fill="#000000" font-family="sans-serif" font-size="14" lengthAdjust="spacing" textLength="210" x="552" y="211.8467">CellIdentificationNode&lt;InOut&gt;</text></g><!--reverse link ObjectProcessingNode<InOut> to RelativePositionProcessing<InOut, R>--><g id="link_ObjectProcessingNode&lt;InOut&gt;_RelativePositionProcessing&lt;InOut, R&gt;"><path codeLine="8" d="M378,59.61 C378,73.31 378,88.22 378,98.96 " fill="none" id="ObjectProcessingNode&lt;InOut&gt;-backto-RelativePositionProcessing&lt;InOut, R&gt;" style="stroke:#181818;stroke-width:1.0;"/><polygon fill="none" points="371,59.27,378,39.27,385,59.27,371,59.27" style="stroke:#181818;stroke-width:1.0;"/></g><!--reverse link RelativePositionProcessing<InOut, R> to MultilaterationNode<InOut>--><g id="link_RelativePositionProcessing&lt;InOut, R&gt;_MultilaterationNode&lt;InOut&gt;"><path codeLine="11" d="M315.73,137.72 C268.59,154.17 205.05,176.33 163.32,190.89 " fill="none" id="RelativePositionProcessing&lt;InOut, R&gt;-backto-MultilaterationNode&lt;InOut&gt;" style="stroke:#181818;stroke-width:1.0;"/><polygon fill="none" points="313.63,131.04,334.82,131.06,318.24,144.26,313.63,131.04" style="stroke:#181818;stroke-width:1.0;"/></g><!--reverse link RelativePositionProcessing<InOut, R> to TriangulationNode<InOut>--><g id="link_RelativePositionProcessing&lt;InOut, R&gt;_TriangulationNode&lt;InOut&gt;"><path codeLine="14" d="M378,151.61 C378,165.31 378,180.22 378,190.96 " fill="none" id="RelativePositionProcessing&lt;InOut, R&gt;-backto-TriangulationNode&lt;InOut&gt;" style="stroke:#181818;stroke-width:1.0;"/><polygon fill="none" points="371,151.27,378,131.27,385,151.27,371,151.27" style="stroke:#181818;stroke-width:1.0;"/></g><!--reverse link RelativePositionProcessing<InOut, R> to CellIdentificationNode<InOut>--><g id="link_RelativePositionProcessing&lt;InOut, R&gt;_CellIdentificationNode&lt;InOut&gt;"><path codeLine="17" d="M441.55,137.5 C490.22,153.97 556.13,176.27 599.33,190.89 " fill="none" id="RelativePositionProcessing&lt;InOut, R&gt;-backto-CellIdentificationNode&lt;InOut&gt;" style="stroke:#181818;stroke-width:1.0;"/><polygon fill="none" points="439.22,144.1,422.52,131.06,443.71,130.84,439.22,144.1" style="stroke:#181818;stroke-width:1.0;"/></g><!--SRC=[hP5D2i9034RtFSNWMczGNEYg2tyGBn1dqZOwdIcJL13rxexKeb0iNNIRVEzxXF25N0q1AhK2VIc2RvnPU-k3aW2EumgT92KPL5ZLSbCLIkaD_uvoGXidSEB8Q57Q0hEQ7T22q1Ntdad8kttm6fd95MdcTetCrM4vK_VasIDtfpDg-UQttc3BV83XHFfOB4RgauznqrYXcCS0xsnVEEwOrZnGrlcEWS0LZPt0zhUgSwtHsip4Dr9EUWBXSDyB]--></g></svg>