<?xml version="1.0" encoding="UTF-8" standalone="no"?><svg xmlns="http://www.w3.org/2000/svg" xmlns:xlink="http://www.w3.org/1999/xlink" contentScriptType="application/ecmascript" contentStyleType="text/css" height="356px" preserveAspectRatio="none" style="width:875px;height:356px;background:#00000000;" version="1.1" viewBox="0 0 875 356" width="875px" zoomAndPan="magnify"><defs><filter height="300%" id="f1vvaib834zob5" width="300%" x="-1" y="-1"><feGaussianBlur result="blurOut" stdDeviation="2.0"/><feColorMatrix in="blurOut" result="blurOut2" type="matrix" values="0 0 0 0 0 0 0 0 0 0 0 0 0 0 0 0 0 0 .4 0"/><feOffset dx="4.0" dy="4.0" in="blurOut2" result="blurOut3"/><feBlend in="SourceGraphic" in2="blurOut3" mode="normal"/></filter></defs><g><!--MD5=[e7bae51f7717f90881d3e37ab3f1264c]
class RelativeLinearVelocity--><rect codeLine="4" fill="#FEFECE" filter="url(#f1vvaib834zob5)" height="137.6328" id="RelativeLinearVelocity" style="stroke:#A80036;stroke-width:1.5;" width="683" x="92.5" y="205"/><ellipse cx="362.25" cy="221" fill="#ADD1B2" rx="11" ry="11" style="stroke:#A80036;stroke-width:1.0;"/><path d="M365.2188,226.6406 Q364.6406,226.9375 364,227.0781 Q363.3594,227.2344 362.6563,227.2344 Q360.1563,227.2344 358.8281,225.5938 Q357.5156,223.9375 357.5156,220.8125 Q357.5156,217.6875 358.8281,216.0313 Q360.1563,214.375 362.6563,214.375 Q363.3594,214.375 364,214.5313 Q364.6563,214.6875 365.2188,214.9844 L365.2188,217.7031 Q364.5938,217.125 364,216.8594 Q363.4063,216.5781 362.7813,216.5781 Q361.4375,216.5781 360.75,217.6563 Q360.0625,218.7188 360.0625,220.8125 Q360.0625,222.9063 360.75,223.9844 Q361.4375,225.0469 362.7813,225.0469 Q363.4063,225.0469 364,224.7813 Q364.5938,224.5 365.2188,223.9219 L365.2188,226.6406 Z " fill="#000000"/><text fill="#000000" font-family="sans-serif" font-size="12" lengthAdjust="spacing" textLength="135" x="382.75" y="225.1543">RelativeLinearVelocity</text><line style="stroke:#A80036;stroke-width:1.5;" x1="93.5" x2="774.5" y1="237" y2="237"/><ellipse cx="103.5" cy="248" rx="3" ry="3" style="stroke:#038048;stroke-width:1.0;fill:none;"/><text fill="#000000" font-family="sans-serif" font-size="11" lengthAdjust="spacing" textLength="163" x="112.5" y="251.2104">referenceObjectType : string</text><ellipse cx="103.5" cy="260.8047" rx="3" ry="3" style="stroke:#038048;stroke-width:1.0;fill:none;"/><text fill="#000000" font-family="sans-serif" font-size="11" lengthAdjust="spacing" textLength="155" x="112.5" y="264.0151">referenceObjectUID : string</text><ellipse cx="103.5" cy="273.6094" rx="3" ry="3" style="stroke:#038048;stroke-width:1.0;fill:none;"/><text fill="#000000" font-family="sans-serif" font-size="11" lengthAdjust="spacing" textLength="176" x="112.5" y="276.8198">referenceValue : LinearVelocity</text><ellipse cx="103.5" cy="286.4141" rx="3" ry="3" style="stroke:#038048;stroke-width:1.0;fill:none;"/><text fill="#000000" font-family="sans-serif" font-size="11" lengthAdjust="spacing" textLength="117" x="112.5" y="289.6245">timestamp : number</text><line style="stroke:#A80036;stroke-width:1.5;" x1="93.5" x2="774.5" y1="296.2188" y2="296.2188"/><ellipse cx="103.5" cy="307.2188" fill="#84BE84" rx="3" ry="3" style="stroke:#038048;stroke-width:1.0;"/><text fill="#000000" font-family="sans-serif" font-size="11" lengthAdjust="spacing" textLength="172" x="112.5" y="310.4292">clone() : RelativeLinearVelocity</text><ellipse cx="103.5" cy="320.0234" fill="#84BE84" rx="3" ry="3" style="stroke:#038048;stroke-width:1.0;"/><text fill="#000000" font-family="sans-serif" font-size="11" lengthAdjust="spacing" textLength="278" x="112.5" y="323.2339">equals(position: RelativeLinearVelocity) : boolean</text><ellipse cx="103.5" cy="332.8281" fill="#84BE84" rx="3" ry="3" style="stroke:#038048;stroke-width:1.0;"/><text fill="#000000" font-family="sans-serif" font-size="11" lengthAdjust="spacing" textLength="657" x="112.5" y="336.0386">setAccuracy(accuracy: number | Accuracy&lt;LinearVelocityUnit, any&gt;, unit: LinearVelocityUnit) : RelativeLinearVelocity</text><!--MD5=[c91ce8a24162f6771448dea553052576]
class RelativePosition<LinearVelocity, LinearVelocityUnit>--><rect codeLine="13" fill="#FEFECE" filter="url(#f1vvaib834zob5)" height="137.6328" id="RelativePosition&lt;LinearVelocity, LinearVelocityUnit&gt;" style="stroke:#A80036;stroke-width:1.5;" width="854" x="7" y="7"/><ellipse cx="267.75" cy="23" fill="#ADD1B2" rx="11" ry="11" style="stroke:#A80036;stroke-width:1.0;"/><path d="M270.7188,28.6406 Q270.1406,28.9375 269.5,29.0781 Q268.8594,29.2344 268.1563,29.2344 Q265.6563,29.2344 264.3281,27.5938 Q263.0156,25.9375 263.0156,22.8125 Q263.0156,19.6875 264.3281,18.0313 Q265.6563,16.375 268.1563,16.375 Q268.8594,16.375 269.5,16.5313 Q270.1563,16.6875 270.7188,16.9844 L270.7188,19.7031 Q270.0938,19.125 269.5,18.8594 Q268.9063,18.5781 268.2813,18.5781 Q266.9375,18.5781 266.25,19.6563 Q265.5625,20.7188 265.5625,22.8125 Q265.5625,24.9063 266.25,25.9844 Q266.9375,27.0469 268.2813,27.0469 Q268.9063,27.0469 269.5,26.7813 Q270.0938,26.5 270.7188,25.9219 L270.7188,28.6406 Z " fill="#000000"/><text fill="#000000" font-family="sans-serif" font-size="12" lengthAdjust="spacing" textLength="324" x="288.25" y="27.1543">RelativePosition&lt;LinearVelocity, LinearVelocityUnit&gt;</text><line style="stroke:#A80036;stroke-width:1.5;" x1="8" x2="860" y1="39" y2="39"/><ellipse cx="18" cy="50" rx="3" ry="3" style="stroke:#038048;stroke-width:1.0;fill:none;"/><text fill="#000000" font-family="sans-serif" font-size="11" lengthAdjust="spacing" textLength="163" x="27" y="53.2104">referenceObjectType : string</text><ellipse cx="18" cy="62.8047" rx="3" ry="3" style="stroke:#038048;stroke-width:1.0;fill:none;"/><text fill="#000000" font-family="sans-serif" font-size="11" lengthAdjust="spacing" textLength="155" x="27" y="66.0151">referenceObjectUID : string</text><ellipse cx="18" cy="75.6094" rx="3" ry="3" style="stroke:#038048;stroke-width:1.0;fill:none;"/><text fill="#000000" font-family="sans-serif" font-size="11" lengthAdjust="spacing" textLength="176" x="27" y="78.8198">referenceValue : LinearVelocity</text><ellipse cx="18" cy="88.4141" rx="3" ry="3" style="stroke:#038048;stroke-width:1.0;fill:none;"/><text fill="#000000" font-family="sans-serif" font-size="11" lengthAdjust="spacing" textLength="117" x="27" y="91.6245">timestamp : number</text><line style="stroke:#A80036;stroke-width:1.5;" x1="8" x2="860" y1="98.2188" y2="98.2188"/><ellipse cx="18" cy="109.2188" fill="#84BE84" rx="3" ry="3" style="stroke:#038048;stroke-width:1.0;"/><text fill="#000000" font-family="sans-serif" font-size="11" lengthAdjust="spacing" textLength="343" x="27" y="112.4292">clone() : RelativePosition&lt;LinearVelocity, LinearVelocityUnit&gt;</text><ellipse cx="18" cy="122.0234" fill="#84BE84" rx="3" ry="3" style="stroke:#038048;stroke-width:1.0;"/><text fill="#000000" font-family="sans-serif" font-size="11" lengthAdjust="spacing" textLength="449" x="27" y="125.2339">equals(position: RelativePosition&lt;LinearVelocity, LinearVelocityUnit&gt;) : boolean</text><ellipse cx="18" cy="134.8281" fill="#84BE84" rx="3" ry="3" style="stroke:#038048;stroke-width:1.0;"/><text fill="#000000" font-family="sans-serif" font-size="11" lengthAdjust="spacing" textLength="828" x="27" y="138.0386">setAccuracy(accuracy: number | Accuracy&lt;LinearVelocityUnit, any&gt;, unit: LinearVelocityUnit) : RelativePosition&lt;LinearVelocity, LinearVelocityUnit&gt;</text><!--MD5=[e446e2841a54cc859d322508437bfde0]
reverse link RelativePosition<LinearVelocity, LinearVelocityUnit> to RelativeLinearVelocity--><path codeLine="22" d="M434,165.43 C434,178.64 434,192.08 434,204.79 " fill="none" id="RelativePosition&lt;LinearVelocity, LinearVelocityUnit&gt;-backto-RelativeLinearVelocity" style="stroke:#A80036;stroke-width:1.0;"/><polygon fill="none" points="427,165,434,145,441,165,427,165" style="stroke:#A80036;stroke-width:1.0;"/><!--MD5=[148bffbb708569480ce722d55ace53d6]
@startuml
skinparam BackgroundColor transparent
hide empty methods
hide empty fields
class "RelativeLinearVelocity" {
    +referenceObjectType : string
    +referenceObjectUID : string
    +referenceValue : LinearVelocity
    +timestamp : number
    +clone() : RelativeLinearVelocity
    +equals(position: RelativeLinearVelocity) : boolean
    +setAccuracy(accuracy: number | Accuracy<LinearVelocityUnit, any>, unit: LinearVelocityUnit) : RelativeLinearVelocity
}
class "RelativePosition<LinearVelocity, LinearVelocityUnit>" {
    +referenceObjectType : string
    +referenceObjectUID : string
    +referenceValue : LinearVelocity
    +timestamp : number
    +clone() : RelativePosition<LinearVelocity, LinearVelocityUnit>
    +equals(position: RelativePosition<LinearVelocity, LinearVelocityUnit>) : boolean
    +setAccuracy(accuracy: number | Accuracy<LinearVelocityUnit, any>, unit: LinearVelocityUnit) : RelativePosition<LinearVelocity, LinearVelocityUnit>
}
"RelativePosition<LinearVelocity, LinearVelocityUnit>" <|- - "RelativeLinearVelocity"
@enduml

PlantUML version 1.2021.14(Fri Nov 12 16:46:50 UTC 2021)
(GPL source distribution)
Java Runtime: OpenJDK Runtime Environment
JVM: OpenJDK 64-Bit Server VM
Default Encoding: UTF-8
Language: en
Country: null
--></g></svg>