<?xml version="1.0" encoding="us-ascii" standalone="no"?><svg xmlns="http://www.w3.org/2000/svg" xmlns:xlink="http://www.w3.org/1999/xlink" contentStyleType="text/css" height="138px" preserveAspectRatio="none" style="width:240px;height:138px;" version="1.1" viewBox="0 0 240 138" width="240px" zoomAndPan="magnify"><defs/><g><!--class RelativePositionFilterOptions--><g id="elem_RelativePositionFilterOptions"><rect codeLine="4" fill="#F1F1F1" height="32" id="RelativePositionFilterOptions" rx="2.5" ry="2.5" style="stroke:#181818;stroke-width:0.5;" width="226" x="7" y="99"/><ellipse cx="22" cy="115" fill="#B4A7E5" rx="11" ry="11" style="stroke:#181818;stroke-width:1.0;"/><path d="M17.9219,110.7656 L17.9219,108.6094 L25.3125,108.6094 L25.3125,110.7656 L22.8438,110.7656 L22.8438,118.8438 L25.3125,118.8438 L25.3125,121 L17.9219,121 L17.9219,118.8438 L20.3906,118.8438 L20.3906,110.7656 L17.9219,110.7656 Z " fill="#000000"/><text fill="#000000" font-family="sans-serif" font-size="14" font-style="italic" lengthAdjust="spacing" textLength="194" x="36" y="119.8467">RelativePositionFilterOptions</text></g><!--class KalmanFilterOptions--><g id="elem_KalmanFilterOptions"><rect codeLine="6" fill="#F1F1F1" height="32" id="KalmanFilterOptions" rx="2.5" ry="2.5" style="stroke:#181818;stroke-width:0.5;" width="168" x="36" y="7"/><ellipse cx="51" cy="23" fill="#B4A7E5" rx="11" ry="11" style="stroke:#181818;stroke-width:1.0;"/><path d="M46.9219,18.7656 L46.9219,16.6094 L54.3125,16.6094 L54.3125,18.7656 L51.8438,18.7656 L51.8438,26.8438 L54.3125,26.8438 L54.3125,29 L46.9219,29 L46.9219,26.8438 L49.3906,26.8438 L49.3906,18.7656 L46.9219,18.7656 Z " fill="#000000"/><text fill="#000000" font-family="sans-serif" font-size="14" font-style="italic" lengthAdjust="spacing" textLength="136" x="65" y="27.8467">KalmanFilterOptions</text></g><!--reverse link KalmanFilterOptions to RelativePositionFilterOptions--><g id="link_KalmanFilterOptions_RelativePositionFilterOptions"><path codeLine="8" d="M120,59.61 C120,73.31 120,88.22 120,98.96 " fill="none" id="KalmanFilterOptions-backto-RelativePositionFilterOptions" style="stroke:#181818;stroke-width:1.0;"/><polygon fill="none" points="113,59.27,120,39.27,127,59.27,113,59.27" style="stroke:#181818;stroke-width:1.0;"/></g><!--SRC=[XOr12i9034NtFKNelZTmfU36XU8DGYUrePbao4H1rBixxheekFkyz-3NXRMWOuOzZilDxQxfO68EuQYrATBePau4b4iy8LFCbkeQJKpI26kGJpWIz5SI37xGnIe7cnvPcZkNtwuzlBhFkZwXPDngjitkFGp_Bhu0]--></g></svg>