<?xml version="1.0" encoding="UTF-8" standalone="no"?><svg xmlns="http://www.w3.org/2000/svg" xmlns:xlink="http://www.w3.org/1999/xlink" contentScriptType="application/ecmascript" contentStyleType="text/css" height="554px" preserveAspectRatio="none" style="width:2632px;height:554px;background:#00000000;" version="1.1" viewBox="0 0 2632 554" width="2632px" zoomAndPan="magnify"><defs><filter height="300%" id="fgdsyslc1bin6" width="300%" x="-1" y="-1"><feGaussianBlur result="blurOut" stdDeviation="2.0"/><feColorMatrix in="blurOut" result="blurOut2" type="matrix" values="0 0 0 0 0 0 0 0 0 0 0 0 0 0 0 0 0 0 .4 0"/><feOffset dx="4.0" dy="4.0" in="blurOut2" result="blurOut3"/><feBlend in="SourceGraphic" in2="blurOut3" mode="normal"/></filter></defs><g><!--MD5=[416e37f2dba3ac017d79135bd58572c7]
class RelativePosition<T, U>--><rect codeLine="4" fill="#FEFECE" filter="url(#fgdsyslc1bin6)" height="137.6328" id="RelativePosition&lt;T, U&gt;" style="stroke:#A80036;stroke-width:1.5;" width="507" x="955.5" y="179"/><ellipse cx="1133.25" cy="195" fill="#ADD1B2" rx="11" ry="11" style="stroke:#A80036;stroke-width:1.0;"/><path d="M1136.2188,200.6406 Q1135.6406,200.9375 1135,201.0781 Q1134.3594,201.2344 1133.6563,201.2344 Q1131.1563,201.2344 1129.8281,199.5938 Q1128.5156,197.9375 1128.5156,194.8125 Q1128.5156,191.6875 1129.8281,190.0313 Q1131.1563,188.375 1133.6563,188.375 Q1134.3594,188.375 1135,188.5313 Q1135.6563,188.6875 1136.2188,188.9844 L1136.2188,191.7031 Q1135.5938,191.125 1135,190.8594 Q1134.4063,190.5781 1133.7813,190.5781 Q1132.4375,190.5781 1131.75,191.6563 Q1131.0625,192.7188 1131.0625,194.8125 Q1131.0625,196.9063 1131.75,197.9844 Q1132.4375,199.0469 1133.7813,199.0469 Q1134.4063,199.0469 1135,198.7813 Q1135.5938,198.5 1136.2188,197.9219 L1136.2188,200.6406 Z " fill="#000000"/><text fill="#000000" font-family="sans-serif" font-size="12" lengthAdjust="spacing" textLength="143" x="1153.75" y="199.1543">RelativePosition&lt;T, U&gt;</text><line style="stroke:#A80036;stroke-width:1.5;" x1="956.5" x2="1461.5" y1="211" y2="211"/><ellipse cx="966.5" cy="222" rx="3" ry="3" style="stroke:#038048;stroke-width:1.0;fill:none;"/><text fill="#000000" font-family="sans-serif" font-size="11" lengthAdjust="spacing" textLength="163" x="975.5" y="225.2104">referenceObjectType : string</text><ellipse cx="966.5" cy="234.8047" rx="3" ry="3" style="stroke:#038048;stroke-width:1.0;fill:none;"/><text fill="#000000" font-family="sans-serif" font-size="11" lengthAdjust="spacing" textLength="155" x="975.5" y="238.0151">referenceObjectUID : string</text><ellipse cx="966.5" cy="247.6094" rx="3" ry="3" style="stroke:#038048;stroke-width:1.0;fill:none;"/><text fill="#000000" font-family="sans-serif" font-size="11" lengthAdjust="spacing" textLength="105" x="975.5" y="250.8198">referenceValue : T</text><ellipse cx="966.5" cy="260.4141" rx="3" ry="3" style="stroke:#038048;stroke-width:1.0;fill:none;"/><text fill="#000000" font-family="sans-serif" font-size="11" lengthAdjust="spacing" textLength="117" x="975.5" y="263.6245">timestamp : number</text><line style="stroke:#A80036;stroke-width:1.5;" x1="956.5" x2="1461.5" y1="270.2188" y2="270.2188"/><ellipse cx="966.5" cy="281.2188" fill="#84BE84" rx="3" ry="3" style="stroke:#038048;stroke-width:1.0;"/><text fill="#000000" font-family="sans-serif" font-size="11" lengthAdjust="spacing" textLength="180" x="975.5" y="284.4292">clone() : RelativePosition&lt;T, U&gt;</text><ellipse cx="966.5" cy="294.0234" fill="#84BE84" rx="3" ry="3" style="stroke:#038048;stroke-width:1.0;"/><text fill="#000000" font-family="sans-serif" font-size="11" lengthAdjust="spacing" textLength="286" x="975.5" y="297.2339">equals(position: RelativePosition&lt;T, U&gt;) : boolean</text><ellipse cx="966.5" cy="306.8281" fill="#84BE84" rx="3" ry="3" style="stroke:#038048;stroke-width:1.0;"/><text fill="#000000" font-family="sans-serif" font-size="11" lengthAdjust="spacing" textLength="481" x="975.5" y="310.0386">setAccuracy(accuracy: number | Accuracy&lt;U, any&gt;, unit: U) : RelativePosition&lt;T, U&gt;</text><!--MD5=[efe4deb92e29646ed3045df87b68c117]
class Position<U>--><rect codeLine="13" fill="#FEFECE" filter="url(#fgdsyslc1bin6)" height="112.0234" id="Position&lt;U&gt;" style="stroke:#A80036;stroke-width:1.5;" width="227" x="1095.5" y="7"/><ellipse cx="1166.25" cy="23" fill="#B4A7E5" rx="11" ry="11" style="stroke:#A80036;stroke-width:1.0;"/><path d="M1162.1719,18.7656 L1162.1719,16.6094 L1169.5625,16.6094 L1169.5625,18.7656 L1167.0938,18.7656 L1167.0938,26.8438 L1169.5625,26.8438 L1169.5625,29 L1162.1719,29 L1162.1719,26.8438 L1164.6406,26.8438 L1164.6406,18.7656 L1162.1719,18.7656 Z " fill="#000000"/><text fill="#000000" font-family="sans-serif" font-size="12" font-style="italic" lengthAdjust="spacing" textLength="77" x="1186.75" y="27.1543">Position&lt;U&gt;</text><line style="stroke:#A80036;stroke-width:1.5;" x1="1096.5" x2="1321.5" y1="39" y2="39"/><ellipse cx="1106.5" cy="50" rx="3" ry="3" style="stroke:#038048;stroke-width:1.0;fill:none;"/><text fill="#000000" font-family="sans-serif" font-size="11" lengthAdjust="spacing" textLength="166" x="1115.5" y="53.2104">accuracy : Accuracy&lt;U, any&gt;</text><ellipse cx="1106.5" cy="62.8047" rx="3" ry="3" style="stroke:#038048;stroke-width:1.0;fill:none;"/><text fill="#000000" font-family="sans-serif" font-size="11" lengthAdjust="spacing" textLength="115" x="1115.5" y="66.0151">probability : number</text><ellipse cx="1106.5" cy="75.6094" rx="3" ry="3" style="stroke:#038048;stroke-width:1.0;fill:none;"/><text fill="#000000" font-family="sans-serif" font-size="11" lengthAdjust="spacing" textLength="117" x="1115.5" y="78.8198">timestamp : number</text><line style="stroke:#A80036;stroke-width:1.5;" x1="1096.5" x2="1321.5" y1="85.4141" y2="85.4141"/><ellipse cx="1106.5" cy="96.4141" fill="#84BE84" rx="3" ry="3" style="stroke:#038048;stroke-width:1.0;"/><text fill="#000000" font-family="sans-serif" font-size="11" lengthAdjust="spacing" textLength="121" x="1115.5" y="99.6245">clone() : Position&lt;U&gt;</text><ellipse cx="1106.5" cy="109.2188" fill="#84BE84" rx="3" ry="3" style="stroke:#038048;stroke-width:1.0;"/><text fill="#000000" font-family="sans-serif" font-size="11" lengthAdjust="spacing" textLength="140" x="1115.5" y="112.4292">equals(position: Position</text><text fill="#000000" font-family="sans-serif" font-size="11" lengthAdjust="spacing" text-decoration="underline" textLength="61" x="1255.5" y="112.4292">) : boolean</text><!--MD5=[6126b1fe5267c4eb3c9344eec2151870]
class RelativeAngle--><rect codeLine="21" fill="#FEFECE" filter="url(#fgdsyslc1bin6)" height="163.2422" id="RelativeAngle" style="stroke:#A80036;stroke-width:1.5;" width="542" x="7" y="377"/><ellipse cx="231.75" cy="393" fill="#ADD1B2" rx="11" ry="11" style="stroke:#A80036;stroke-width:1.0;"/><path d="M234.7188,398.6406 Q234.1406,398.9375 233.5,399.0781 Q232.8594,399.2344 232.1563,399.2344 Q229.6563,399.2344 228.3281,397.5938 Q227.0156,395.9375 227.0156,392.8125 Q227.0156,389.6875 228.3281,388.0313 Q229.6563,386.375 232.1563,386.375 Q232.8594,386.375 233.5,386.5313 Q234.1563,386.6875 234.7188,386.9844 L234.7188,389.7031 Q234.0938,389.125 233.5,388.8594 Q232.9063,388.5781 232.2813,388.5781 Q230.9375,388.5781 230.25,389.6563 Q229.5625,390.7188 229.5625,392.8125 Q229.5625,394.9063 230.25,395.9844 Q230.9375,397.0469 232.2813,397.0469 Q232.9063,397.0469 233.5,396.7813 Q234.0938,396.5 234.7188,395.9219 L234.7188,398.6406 Z " fill="#000000"/><text fill="#000000" font-family="sans-serif" font-size="12" lengthAdjust="spacing" textLength="84" x="252.25" y="397.1543">RelativeAngle</text><line style="stroke:#A80036;stroke-width:1.5;" x1="8" x2="548" y1="409" y2="409"/><ellipse cx="18" cy="420" rx="3" ry="3" style="stroke:#038048;stroke-width:1.0;fill:none;"/><text fill="#000000" font-family="sans-serif" font-size="11" lengthAdjust="spacing" textLength="118" x="27" y="423.2104">angleUnit : AngleUnit</text><ellipse cx="18" cy="432.8047" rx="3" ry="3" style="stroke:#038048;stroke-width:1.0;fill:none;"/><text fill="#000000" font-family="sans-serif" font-size="11" lengthAdjust="spacing" textLength="136" x="27" y="436.0151">orientation : Orientation</text><ellipse cx="18" cy="445.6094" rx="3" ry="3" style="stroke:#038048;stroke-width:1.0;fill:none;"/><text fill="#000000" font-family="sans-serif" font-size="11" lengthAdjust="spacing" textLength="163" x="27" y="448.8198">referenceObjectType : string</text><ellipse cx="18" cy="458.4141" rx="3" ry="3" style="stroke:#038048;stroke-width:1.0;fill:none;"/><text fill="#000000" font-family="sans-serif" font-size="11" lengthAdjust="spacing" textLength="155" x="27" y="461.6245">referenceObjectUID : string</text><ellipse cx="18" cy="471.2188" rx="3" ry="3" style="stroke:#038048;stroke-width:1.0;fill:none;"/><text fill="#000000" font-family="sans-serif" font-size="11" lengthAdjust="spacing" textLength="142" x="27" y="474.4292">referenceValue : number</text><ellipse cx="18" cy="484.0234" rx="3" ry="3" style="stroke:#038048;stroke-width:1.0;fill:none;"/><text fill="#000000" font-family="sans-serif" font-size="11" lengthAdjust="spacing" textLength="117" x="27" y="487.2339">timestamp : number</text><line style="stroke:#A80036;stroke-width:1.5;" x1="8" x2="548" y1="493.8281" y2="493.8281"/><ellipse cx="18" cy="504.8281" fill="#84BE84" rx="3" ry="3" style="stroke:#038048;stroke-width:1.0;"/><text fill="#000000" font-family="sans-serif" font-size="11" lengthAdjust="spacing" textLength="125" x="27" y="508.0386">clone() : RelativeAngle</text><ellipse cx="18" cy="517.6328" fill="#84BE84" rx="3" ry="3" style="stroke:#038048;stroke-width:1.0;"/><text fill="#000000" font-family="sans-serif" font-size="11" lengthAdjust="spacing" textLength="231" x="27" y="520.8433">equals(position: RelativeAngle) : boolean</text><ellipse cx="18" cy="530.4375" fill="#84BE84" rx="3" ry="3" style="stroke:#038048;stroke-width:1.0;"/><text fill="#000000" font-family="sans-serif" font-size="11" lengthAdjust="spacing" textLength="516" x="27" y="533.6479">setAccuracy(accuracy: number | Accuracy&lt;AngleUnit, any&gt;, unit: AngleUnit) : RelativeAngle</text><!--MD5=[68d2a7b38956349ea972da5995307da5]
class RelativeDistance--><rect codeLine="33" fill="#FEFECE" filter="url(#fgdsyslc1bin6)" height="150.4375" id="RelativeDistance" style="stroke:#A80036;stroke-width:1.5;" width="574" x="584" y="383.5"/><ellipse cx="814.75" cy="399.5" fill="#ADD1B2" rx="11" ry="11" style="stroke:#A80036;stroke-width:1.0;"/><path d="M817.7188,405.1406 Q817.1406,405.4375 816.5,405.5781 Q815.8594,405.7344 815.1563,405.7344 Q812.6563,405.7344 811.3281,404.0938 Q810.0156,402.4375 810.0156,399.3125 Q810.0156,396.1875 811.3281,394.5313 Q812.6563,392.875 815.1563,392.875 Q815.8594,392.875 816.5,393.0313 Q817.1563,393.1875 817.7188,393.4844 L817.7188,396.2031 Q817.0938,395.625 816.5,395.3594 Q815.9063,395.0781 815.2813,395.0781 Q813.9375,395.0781 813.25,396.1563 Q812.5625,397.2188 812.5625,399.3125 Q812.5625,401.4063 813.25,402.4844 Q813.9375,403.5469 815.2813,403.5469 Q815.9063,403.5469 816.5,403.2813 Q817.0938,403 817.7188,402.4219 L817.7188,405.1406 Z " fill="#000000"/><text fill="#000000" font-family="sans-serif" font-size="12" lengthAdjust="spacing" textLength="104" x="835.25" y="403.6543">RelativeDistance</text><line style="stroke:#A80036;stroke-width:1.5;" x1="585" x2="1157" y1="415.5" y2="415.5"/><ellipse cx="595" cy="426.5" rx="3" ry="3" style="stroke:#038048;stroke-width:1.0;fill:none;"/><text fill="#000000" font-family="sans-serif" font-size="11" lengthAdjust="spacing" textLength="142" x="604" y="429.7104">distanceUnit : LengthUnit</text><ellipse cx="595" cy="439.3047" rx="3" ry="3" style="stroke:#038048;stroke-width:1.0;fill:none;"/><text fill="#000000" font-family="sans-serif" font-size="11" lengthAdjust="spacing" textLength="163" x="604" y="442.5151">referenceObjectType : string</text><ellipse cx="595" cy="452.1094" rx="3" ry="3" style="stroke:#038048;stroke-width:1.0;fill:none;"/><text fill="#000000" font-family="sans-serif" font-size="11" lengthAdjust="spacing" textLength="155" x="604" y="455.3198">referenceObjectUID : string</text><ellipse cx="595" cy="464.9141" rx="3" ry="3" style="stroke:#038048;stroke-width:1.0;fill:none;"/><text fill="#000000" font-family="sans-serif" font-size="11" lengthAdjust="spacing" textLength="142" x="604" y="468.1245">referenceValue : number</text><ellipse cx="595" cy="477.7188" rx="3" ry="3" style="stroke:#038048;stroke-width:1.0;fill:none;"/><text fill="#000000" font-family="sans-serif" font-size="11" lengthAdjust="spacing" textLength="117" x="604" y="480.9292">timestamp : number</text><line style="stroke:#A80036;stroke-width:1.5;" x1="585" x2="1157" y1="487.5234" y2="487.5234"/><ellipse cx="595" cy="498.5234" fill="#84BE84" rx="3" ry="3" style="stroke:#038048;stroke-width:1.0;"/><text fill="#000000" font-family="sans-serif" font-size="11" lengthAdjust="spacing" textLength="143" x="604" y="501.7339">clone() : RelativeDistance</text><ellipse cx="595" cy="511.3281" fill="#84BE84" rx="3" ry="3" style="stroke:#038048;stroke-width:1.0;"/><text fill="#000000" font-family="sans-serif" font-size="11" lengthAdjust="spacing" textLength="249" x="604" y="514.5386">equals(position: RelativeDistance) : boolean</text><ellipse cx="595" cy="524.1328" fill="#84BE84" rx="3" ry="3" style="stroke:#038048;stroke-width:1.0;"/><text fill="#000000" font-family="sans-serif" font-size="11" lengthAdjust="spacing" textLength="548" x="604" y="527.3433">setAccuracy(accuracy: number | Accuracy&lt;LengthUnit, any&gt;, unit: LengthUnit) : RelativeDistance</text><!--MD5=[85603531f39a763f688d497e97ddf507]
class RelativeAngularVelocity--><rect codeLine="44" fill="#FEFECE" filter="url(#fgdsyslc1bin6)" height="137.6328" id="RelativeAngularVelocity" style="stroke:#A80036;stroke-width:1.5;" width="707" x="1193.5" y="389.5"/><ellipse cx="1470.25" cy="405.5" fill="#ADD1B2" rx="11" ry="11" style="stroke:#A80036;stroke-width:1.0;"/><path d="M1473.2188,411.1406 Q1472.6406,411.4375 1472,411.5781 Q1471.3594,411.7344 1470.6563,411.7344 Q1468.1563,411.7344 1466.8281,410.0938 Q1465.5156,408.4375 1465.5156,405.3125 Q1465.5156,402.1875 1466.8281,400.5313 Q1468.1563,398.875 1470.6563,398.875 Q1471.3594,398.875 1472,399.0313 Q1472.6563,399.1875 1473.2188,399.4844 L1473.2188,402.2031 Q1472.5938,401.625 1472,401.3594 Q1471.4063,401.0781 1470.7813,401.0781 Q1469.4375,401.0781 1468.75,402.1563 Q1468.0625,403.2188 1468.0625,405.3125 Q1468.0625,407.4063 1468.75,408.4844 Q1469.4375,409.5469 1470.7813,409.5469 Q1471.4063,409.5469 1472,409.2813 Q1472.5938,409 1473.2188,408.4219 L1473.2188,411.1406 Z " fill="#000000"/><text fill="#000000" font-family="sans-serif" font-size="12" lengthAdjust="spacing" textLength="145" x="1490.75" y="409.6543">RelativeAngularVelocity</text><line style="stroke:#A80036;stroke-width:1.5;" x1="1194.5" x2="1899.5" y1="421.5" y2="421.5"/><ellipse cx="1204.5" cy="432.5" rx="3" ry="3" style="stroke:#038048;stroke-width:1.0;fill:none;"/><text fill="#000000" font-family="sans-serif" font-size="11" lengthAdjust="spacing" textLength="163" x="1213.5" y="435.7104">referenceObjectType : string</text><ellipse cx="1204.5" cy="445.3047" rx="3" ry="3" style="stroke:#038048;stroke-width:1.0;fill:none;"/><text fill="#000000" font-family="sans-serif" font-size="11" lengthAdjust="spacing" textLength="155" x="1213.5" y="448.5151">referenceObjectUID : string</text><ellipse cx="1204.5" cy="458.1094" rx="3" ry="3" style="stroke:#038048;stroke-width:1.0;fill:none;"/><text fill="#000000" font-family="sans-serif" font-size="11" lengthAdjust="spacing" textLength="184" x="1213.5" y="461.3198">referenceValue : AngularVelocity</text><ellipse cx="1204.5" cy="470.9141" rx="3" ry="3" style="stroke:#038048;stroke-width:1.0;fill:none;"/><text fill="#000000" font-family="sans-serif" font-size="11" lengthAdjust="spacing" textLength="117" x="1213.5" y="474.1245">timestamp : number</text><line style="stroke:#A80036;stroke-width:1.5;" x1="1194.5" x2="1899.5" y1="480.7188" y2="480.7188"/><ellipse cx="1204.5" cy="491.7188" fill="#84BE84" rx="3" ry="3" style="stroke:#038048;stroke-width:1.0;"/><text fill="#000000" font-family="sans-serif" font-size="11" lengthAdjust="spacing" textLength="180" x="1213.5" y="494.9292">clone() : RelativeAngularVelocity</text><ellipse cx="1204.5" cy="504.5234" fill="#84BE84" rx="3" ry="3" style="stroke:#038048;stroke-width:1.0;"/><text fill="#000000" font-family="sans-serif" font-size="11" lengthAdjust="spacing" textLength="286" x="1213.5" y="507.7339">equals(position: RelativeAngularVelocity) : boolean</text><ellipse cx="1204.5" cy="517.3281" fill="#84BE84" rx="3" ry="3" style="stroke:#038048;stroke-width:1.0;"/><text fill="#000000" font-family="sans-serif" font-size="11" lengthAdjust="spacing" textLength="681" x="1213.5" y="520.5386">setAccuracy(accuracy: number | Accuracy&lt;AngularVelocityUnit, any&gt;, unit: AngularVelocityUnit) : RelativeAngularVelocity</text><!--MD5=[e7bae51f7717f90881d3e37ab3f1264c]
class RelativeLinearVelocity--><rect codeLine="54" fill="#FEFECE" filter="url(#fgdsyslc1bin6)" height="137.6328" id="RelativeLinearVelocity" style="stroke:#A80036;stroke-width:1.5;" width="683" x="1935.5" y="389.5"/><ellipse cx="2205.25" cy="405.5" fill="#ADD1B2" rx="11" ry="11" style="stroke:#A80036;stroke-width:1.0;"/><path d="M2208.2188,411.1406 Q2207.6406,411.4375 2207,411.5781 Q2206.3594,411.7344 2205.6563,411.7344 Q2203.1563,411.7344 2201.8281,410.0938 Q2200.5156,408.4375 2200.5156,405.3125 Q2200.5156,402.1875 2201.8281,400.5313 Q2203.1563,398.875 2205.6563,398.875 Q2206.3594,398.875 2207,399.0313 Q2207.6563,399.1875 2208.2188,399.4844 L2208.2188,402.2031 Q2207.5938,401.625 2207,401.3594 Q2206.4063,401.0781 2205.7813,401.0781 Q2204.4375,401.0781 2203.75,402.1563 Q2203.0625,403.2188 2203.0625,405.3125 Q2203.0625,407.4063 2203.75,408.4844 Q2204.4375,409.5469 2205.7813,409.5469 Q2206.4063,409.5469 2207,409.2813 Q2207.5938,409 2208.2188,408.4219 L2208.2188,411.1406 Z " fill="#000000"/><text fill="#000000" font-family="sans-serif" font-size="12" lengthAdjust="spacing" textLength="135" x="2225.75" y="409.6543">RelativeLinearVelocity</text><line style="stroke:#A80036;stroke-width:1.5;" x1="1936.5" x2="2617.5" y1="421.5" y2="421.5"/><ellipse cx="1946.5" cy="432.5" rx="3" ry="3" style="stroke:#038048;stroke-width:1.0;fill:none;"/><text fill="#000000" font-family="sans-serif" font-size="11" lengthAdjust="spacing" textLength="163" x="1955.5" y="435.7104">referenceObjectType : string</text><ellipse cx="1946.5" cy="445.3047" rx="3" ry="3" style="stroke:#038048;stroke-width:1.0;fill:none;"/><text fill="#000000" font-family="sans-serif" font-size="11" lengthAdjust="spacing" textLength="155" x="1955.5" y="448.5151">referenceObjectUID : string</text><ellipse cx="1946.5" cy="458.1094" rx="3" ry="3" style="stroke:#038048;stroke-width:1.0;fill:none;"/><text fill="#000000" font-family="sans-serif" font-size="11" lengthAdjust="spacing" textLength="176" x="1955.5" y="461.3198">referenceValue : LinearVelocity</text><ellipse cx="1946.5" cy="470.9141" rx="3" ry="3" style="stroke:#038048;stroke-width:1.0;fill:none;"/><text fill="#000000" font-family="sans-serif" font-size="11" lengthAdjust="spacing" textLength="117" x="1955.5" y="474.1245">timestamp : number</text><line style="stroke:#A80036;stroke-width:1.5;" x1="1936.5" x2="2617.5" y1="480.7188" y2="480.7188"/><ellipse cx="1946.5" cy="491.7188" fill="#84BE84" rx="3" ry="3" style="stroke:#038048;stroke-width:1.0;"/><text fill="#000000" font-family="sans-serif" font-size="11" lengthAdjust="spacing" textLength="172" x="1955.5" y="494.9292">clone() : RelativeLinearVelocity</text><ellipse cx="1946.5" cy="504.5234" fill="#84BE84" rx="3" ry="3" style="stroke:#038048;stroke-width:1.0;"/><text fill="#000000" font-family="sans-serif" font-size="11" lengthAdjust="spacing" textLength="278" x="1955.5" y="507.7339">equals(position: RelativeLinearVelocity) : boolean</text><ellipse cx="1946.5" cy="517.3281" fill="#84BE84" rx="3" ry="3" style="stroke:#038048;stroke-width:1.0;"/><text fill="#000000" font-family="sans-serif" font-size="11" lengthAdjust="spacing" textLength="657" x="1955.5" y="520.5386">setAccuracy(accuracy: number | Accuracy&lt;LinearVelocityUnit, any&gt;, unit: LinearVelocityUnit) : RelativeLinearVelocity</text><!--MD5=[e429a26d80a6df0729a2b66a06a4f5b9]
reverse link Position<U> to RelativePosition<T, U>--><path codeLine="20" d="M1209,139.4 C1209,152.47 1209,165.99 1209,178.85 " fill="none" id="Position&lt;U&gt;-backto-RelativePosition&lt;T, U&gt;" style="stroke:#A80036;stroke-width:1.0;stroke-dasharray:7.0,7.0;"/><polygon fill="none" points="1202,139.4,1209,119.4,1216,139.4,1202,139.4" style="stroke:#A80036;stroke-width:1.0;"/><!--MD5=[75f33f55f4d0096d2895df89eb9c900b]
reverse link RelativePosition<T, U> to RelativeAngle--><path codeLine="32" d="M935.64,298.66 C821.02,320.71 686.61,348.18 566,377 C560.45,378.33 554.84,379.69 549.19,381.08 " fill="none" id="RelativePosition&lt;T, U&gt;-backto-RelativeAngle" style="stroke:#A80036;stroke-width:1.0;"/><polygon fill="none" points="934.37,291.77,955.33,294.89,937,305.52,934.37,291.77" style="stroke:#A80036;stroke-width:1.0;"/><!--MD5=[638ba83dd43ef6d2a75384a492498591]
reverse link RelativePosition<T, U> to RelativeDistance--><path codeLine="43" d="M1081.19,327.84 C1051.7,346.04 1020.41,365.33 991.25,383.32 " fill="none" id="RelativePosition&lt;T, U&gt;-backto-RelativeDistance" style="stroke:#A80036;stroke-width:1.0;"/><polygon fill="none" points="1077.63,321.81,1098.33,317.27,1084.98,333.73,1077.63,321.81" style="stroke:#A80036;stroke-width:1.0;"/><!--MD5=[9a26c5c099ede9b8eac057107c2b126e]
reverse link RelativePosition<T, U> to RelativeAngularVelocity--><path codeLine="53" d="M1337.11,328.02 C1369.89,348.25 1404.85,369.81 1436.66,389.43 " fill="none" id="RelativePosition&lt;T, U&gt;-backto-RelativeAngularVelocity" style="stroke:#A80036;stroke-width:1.0;"/><polygon fill="none" points="1333.02,333.73,1319.67,317.27,1340.37,321.81,1333.02,333.73" style="stroke:#A80036;stroke-width:1.0;"/><!--MD5=[69ebe71c089a7d169b95a3b41f7f443b]
reverse link RelativePosition<T, U> to RelativeLinearVelocity--><path codeLine="63" d="M1482.64,295.64 C1614.48,318.82 1774.71,348.01 1918,377 C1937.56,380.96 1957.7,385.15 1977.98,389.46 " fill="none" id="RelativePosition&lt;T, U&gt;-backto-RelativeLinearVelocity" style="stroke:#A80036;stroke-width:1.0;"/><polygon fill="none" points="1481.06,302.47,1462.57,292.12,1483.48,288.68,1481.06,302.47" style="stroke:#A80036;stroke-width:1.0;"/><!--MD5=[ecec6ca06aa3215941579d527f67f0b1]
@startuml
skinparam BackgroundColor transparent
hide empty methods
hide empty fields
class "RelativePosition<T, U>" {
    +referenceObjectType : string
    +referenceObjectUID : string
    +referenceValue : T
    +timestamp : number
    +clone() : RelativePosition<T, U>
    +equals(position: RelativePosition<T, U>) : boolean
    +setAccuracy(accuracy: number | Accuracy<U, any>, unit: U) : RelativePosition<T, U>
}
interface "Position<U>" {
    +accuracy : Accuracy<U, any>
    +probability : number
    +timestamp : number
    +clone() : Position<U>
    +equals(position: Position<U>) : boolean
}
"Position<U>" <|.. "RelativePosition<T, U>"
class "RelativeAngle" {
    +angleUnit : AngleUnit
    +orientation : Orientation
    +referenceObjectType : string
    +referenceObjectUID : string
    +referenceValue : number
    +timestamp : number
    +clone() : RelativeAngle
    +equals(position: RelativeAngle) : boolean
    +setAccuracy(accuracy: number | Accuracy<AngleUnit, any>, unit: AngleUnit) : RelativeAngle
}
"RelativePosition<T, U>" <|- - "RelativeAngle"
class "RelativeDistance" {
    +distanceUnit : LengthUnit
    +referenceObjectType : string
    +referenceObjectUID : string
    +referenceValue : number
    +timestamp : number
    +clone() : RelativeDistance
    +equals(position: RelativeDistance) : boolean
    +setAccuracy(accuracy: number | Accuracy<LengthUnit, any>, unit: LengthUnit) : RelativeDistance
}
"RelativePosition<T, U>" <|- - "RelativeDistance"
class "RelativeAngularVelocity" {
    +referenceObjectType : string
    +referenceObjectUID : string
    +referenceValue : AngularVelocity
    +timestamp : number
    +clone() : RelativeAngularVelocity
    +equals(position: RelativeAngularVelocity) : boolean
    +setAccuracy(accuracy: number | Accuracy<AngularVelocityUnit, any>, unit: AngularVelocityUnit) : RelativeAngularVelocity
}
"RelativePosition<T, U>" <|- - "RelativeAngularVelocity"
class "RelativeLinearVelocity" {
    +referenceObjectType : string
    +referenceObjectUID : string
    +referenceValue : LinearVelocity
    +timestamp : number
    +clone() : RelativeLinearVelocity
    +equals(position: RelativeLinearVelocity) : boolean
    +setAccuracy(accuracy: number | Accuracy<LinearVelocityUnit, any>, unit: LinearVelocityUnit) : RelativeLinearVelocity
}
"RelativePosition<T, U>" <|- - "RelativeLinearVelocity"
@enduml

PlantUML version 1.2021.14(Fri Nov 12 16:46:50 UTC 2021)
(GPL source distribution)
Java Runtime: OpenJDK Runtime Environment
JVM: OpenJDK 64-Bit Server VM
Default Encoding: UTF-8
Language: en
Country: null
--></g></svg>