<?xml version="1.0" encoding="UTF-8" standalone="no"?><svg xmlns="http://www.w3.org/2000/svg" xmlns:xlink="http://www.w3.org/1999/xlink" contentScriptType="application/ecmascript" contentStyleType="text/css" height="429px" preserveAspectRatio="none" style="width:227px;height:429px;background:#00000000;" version="1.1" viewBox="0 0 227 429" width="227px" zoomAndPan="magnify"><defs><filter height="300%" id="fwcqtvm5f7sep" width="300%" x="-1" y="-1"><feGaussianBlur result="blurOut" stdDeviation="2.0"/><feColorMatrix in="blurOut" result="blurOut2" type="matrix" values="0 0 0 0 0 0 0 0 0 0 0 0 0 0 0 0 0 0 .4 0"/><feOffset dx="4.0" dy="4.0" in="blurOut2" result="blurOut3"/><feBlend in="SourceGraphic" in2="blurOut3" mode="normal"/></filter></defs><g><!--MD5=[69934aa6e6c78199f1ba0ec95556b545]
class RelativePositionFilterOptions--><rect codeLine="4" fill="#FEFECE" filter="url(#fwcqtvm5f7sep)" height="193.6563" id="RelativePositionFilterOptions" style="stroke:#A80036;stroke-width:1.5;" width="206" x="7" y="222"/><ellipse cx="22" cy="238" fill="#B4A7E5" rx="11" ry="11" style="stroke:#A80036;stroke-width:1.0;"/><path d="M17.9219,233.7656 L17.9219,231.6094 L25.3125,231.6094 L25.3125,233.7656 L22.8438,233.7656 L22.8438,241.8438 L25.3125,241.8438 L25.3125,244 L17.9219,244 L17.9219,241.8438 L20.3906,241.8438 L20.3906,233.7656 L17.9219,233.7656 Z " fill="#000000"/><text fill="#000000" font-family="sans-serif" font-size="12" font-style="italic" lengthAdjust="spacing" textLength="174" x="36" y="242.1543">RelativePositionFilterOptions</text><line style="stroke:#A80036;stroke-width:1.5;" x1="8" x2="212" y1="254" y2="254"/><ellipse cx="18" cy="265" rx="3" ry="3" style="stroke:#038048;stroke-width:1.0;fill:none;"/><text fill="#000000" font-family="sans-serif" font-size="11" lengthAdjust="spacing" textLength="118" x="27" y="268.2104">A : number | Vector3</text><ellipse cx="18" cy="277.8047" rx="3" ry="3" style="stroke:#038048;stroke-width:1.0;fill:none;"/><text fill="#000000" font-family="sans-serif" font-size="11" lengthAdjust="spacing" textLength="119" x="27" y="281.0151">B : number | Vector3</text><ellipse cx="18" cy="290.6094" rx="3" ry="3" style="stroke:#038048;stroke-width:1.0;fill:none;"/><text fill="#000000" font-family="sans-serif" font-size="11" lengthAdjust="spacing" textLength="119" x="27" y="293.8198">C : number | Vector3</text><ellipse cx="18" cy="303.4141" rx="3" ry="3" style="stroke:#038048;stroke-width:1.0;fill:none;"/><text fill="#000000" font-family="sans-serif" font-size="11" lengthAdjust="spacing" textLength="121" x="27" y="306.6245">frameFilter : Function</text><ellipse cx="18" cy="316.2188" rx="3" ry="3" style="stroke:#038048;stroke-width:1.0;fill:none;"/><text fill="#000000" font-family="sans-serif" font-size="11" lengthAdjust="spacing" textLength="166" x="27" y="319.4292">maxTimeDifference : number</text><ellipse cx="18" cy="329.0234" rx="3" ry="3" style="stroke:#038048;stroke-width:1.0;fill:none;"/><text fill="#000000" font-family="sans-serif" font-size="11" lengthAdjust="spacing" textLength="111" x="27" y="332.2339">maxValue : number</text><ellipse cx="18" cy="341.8281" rx="3" ry="3" style="stroke:#038048;stroke-width:1.0;fill:none;"/><text fill="#000000" font-family="sans-serif" font-size="11" lengthAdjust="spacing" textLength="108" x="27" y="345.0386">minValue : number</text><ellipse cx="18" cy="354.6328" rx="3" ry="3" style="stroke:#038048;stroke-width:1.0;fill:none;"/><text fill="#000000" font-family="sans-serif" font-size="11" lengthAdjust="spacing" textLength="77" x="27" y="357.8433">name : string</text><ellipse cx="18" cy="367.4375" rx="3" ry="3" style="stroke:#038048;stroke-width:1.0;fill:none;"/><text fill="#000000" font-family="sans-serif" font-size="11" lengthAdjust="spacing" textLength="121" x="27" y="370.6479">objectFilter : Function</text><ellipse cx="18" cy="380.2422" rx="3" ry="3" style="stroke:#038048;stroke-width:1.0;fill:none;"/><text fill="#000000" font-family="sans-serif" font-size="11" lengthAdjust="spacing" textLength="120" x="27" y="383.4526">Q : number | Vector3</text><ellipse cx="18" cy="393.0469" rx="3" ry="3" style="stroke:#038048;stroke-width:1.0;fill:none;"/><text fill="#000000" font-family="sans-serif" font-size="11" lengthAdjust="spacing" textLength="118" x="27" y="396.2573">R : number | Vector3</text><ellipse cx="18" cy="405.8516" rx="3" ry="3" style="stroke:#038048;stroke-width:1.0;fill:none;"/><text fill="#000000" font-family="sans-serif" font-size="11" lengthAdjust="spacing" textLength="62" x="27" y="409.062">uid : string</text><!--MD5=[c4db96a564bbd1d7ac8a63c7e7bdbb40]
class KalmanFilterOptions--><rect codeLine="18" fill="#FEFECE" filter="url(#fwcqtvm5f7sep)" height="155.2422" id="KalmanFilterOptions" style="stroke:#A80036;stroke-width:1.5;" width="155" x="32.5" y="7"/><ellipse cx="47.5" cy="23" fill="#B4A7E5" rx="11" ry="11" style="stroke:#A80036;stroke-width:1.0;"/><path d="M43.4219,18.7656 L43.4219,16.6094 L50.8125,16.6094 L50.8125,18.7656 L48.3438,18.7656 L48.3438,26.8438 L50.8125,26.8438 L50.8125,29 L43.4219,29 L43.4219,26.8438 L45.8906,26.8438 L45.8906,18.7656 L43.4219,18.7656 Z " fill="#000000"/><text fill="#000000" font-family="sans-serif" font-size="12" font-style="italic" lengthAdjust="spacing" textLength="123" x="61.5" y="27.1543">KalmanFilterOptions</text><line style="stroke:#A80036;stroke-width:1.5;" x1="33.5" x2="186.5" y1="39" y2="39"/><ellipse cx="43.5" cy="50" rx="3" ry="3" style="stroke:#038048;stroke-width:1.0;fill:none;"/><text fill="#000000" font-family="sans-serif" font-size="11" lengthAdjust="spacing" textLength="118" x="52.5" y="53.2104">A : number | Vector3</text><ellipse cx="43.5" cy="62.8047" rx="3" ry="3" style="stroke:#038048;stroke-width:1.0;fill:none;"/><text fill="#000000" font-family="sans-serif" font-size="11" lengthAdjust="spacing" textLength="119" x="52.5" y="66.0151">B : number | Vector3</text><ellipse cx="43.5" cy="75.6094" rx="3" ry="3" style="stroke:#038048;stroke-width:1.0;fill:none;"/><text fill="#000000" font-family="sans-serif" font-size="11" lengthAdjust="spacing" textLength="119" x="52.5" y="78.8198">C : number | Vector3</text><ellipse cx="43.5" cy="88.4141" rx="3" ry="3" style="stroke:#038048;stroke-width:1.0;fill:none;"/><text fill="#000000" font-family="sans-serif" font-size="11" lengthAdjust="spacing" textLength="121" x="52.5" y="91.6245">frameFilter : Function</text><ellipse cx="43.5" cy="101.2188" rx="3" ry="3" style="stroke:#038048;stroke-width:1.0;fill:none;"/><text fill="#000000" font-family="sans-serif" font-size="11" lengthAdjust="spacing" textLength="77" x="52.5" y="104.4292">name : string</text><ellipse cx="43.5" cy="114.0234" rx="3" ry="3" style="stroke:#038048;stroke-width:1.0;fill:none;"/><text fill="#000000" font-family="sans-serif" font-size="11" lengthAdjust="spacing" textLength="121" x="52.5" y="117.2339">objectFilter : Function</text><ellipse cx="43.5" cy="126.8281" rx="3" ry="3" style="stroke:#038048;stroke-width:1.0;fill:none;"/><text fill="#000000" font-family="sans-serif" font-size="11" lengthAdjust="spacing" textLength="120" x="52.5" y="130.0386">Q : number | Vector3</text><ellipse cx="43.5" cy="139.6328" rx="3" ry="3" style="stroke:#038048;stroke-width:1.0;fill:none;"/><text fill="#000000" font-family="sans-serif" font-size="11" lengthAdjust="spacing" textLength="118" x="52.5" y="142.8433">R : number | Vector3</text><ellipse cx="43.5" cy="152.4375" rx="3" ry="3" style="stroke:#038048;stroke-width:1.0;fill:none;"/><text fill="#000000" font-family="sans-serif" font-size="11" lengthAdjust="spacing" textLength="62" x="52.5" y="155.6479">uid : string</text><!--MD5=[672bd1f46b1868479599b73024a6166a]
reverse link KalmanFilterOptions to RelativePositionFilterOptions--><path codeLine="29" d="M110,182.39 C110,195.42 110,208.79 110,221.82 " fill="none" id="KalmanFilterOptions-backto-RelativePositionFilterOptions" style="stroke:#A80036;stroke-width:1.0;"/><polygon fill="none" points="103,182.27,110,162.27,117,182.27,103,182.27" style="stroke:#A80036;stroke-width:1.0;"/><!--MD5=[7a042b9d74e8ecb5cf7241bd848a8495]
@startuml
skinparam BackgroundColor transparent
hide empty methods
hide empty fields
interface "RelativePositionFilterOptions" {
    +A : number | Vector3
    +B : number | Vector3
    +C : number | Vector3
    +frameFilter : Function
    +maxTimeDifference : number
    +maxValue : number
    +minValue : number
    +name : string
    +objectFilter : Function
    +Q : number | Vector3
    +R : number | Vector3
    +uid : string
}
interface "KalmanFilterOptions" {
    +A : number | Vector3
    +B : number | Vector3
    +C : number | Vector3
    +frameFilter : Function
    +name : string
    +objectFilter : Function
    +Q : number | Vector3
    +R : number | Vector3
    +uid : string
}
"KalmanFilterOptions" <|- - "RelativePositionFilterOptions"
@enduml

PlantUML version 1.2021.14(Fri Nov 12 16:46:50 UTC 2021)
(GPL source distribution)
Java Runtime: OpenJDK Runtime Environment
JVM: OpenJDK 64-Bit Server VM
Default Encoding: UTF-8
Language: en
Country: null
--></g></svg>