<?xml version="1.0" encoding="us-ascii" standalone="no"?><svg xmlns="http://www.w3.org/2000/svg" xmlns:xlink="http://www.w3.org/1999/xlink" contentStyleType="text/css" height="230px" preserveAspectRatio="none" style="width:316px;height:230px;" version="1.1" viewBox="0 0 316 230" width="316px" zoomAndPan="magnify"><defs/><g><!--class Relative2DPosition--><g id="elem_Relative2DPosition"><rect codeLine="4" fill="#F1F1F1" height="32" id="Relative2DPosition" rx="2.5" ry="2.5" style="stroke:#181818;stroke-width:0.5;" width="161" x="77.5" y="99"/><ellipse cx="92.5" cy="115" fill="#ADD1B2" rx="11" ry="11" style="stroke:#181818;stroke-width:1.0;"/><path d="M95.4688,120.6406 Q94.8906,120.9375 94.25,121.0781 Q93.6094,121.2344 92.9063,121.2344 Q90.4063,121.2344 89.0781,119.5938 Q87.7656,117.9375 87.7656,114.8125 Q87.7656,111.6875 89.0781,110.0313 Q90.4063,108.375 92.9063,108.375 Q93.6094,108.375 94.25,108.5313 Q94.9063,108.6875 95.4688,108.9844 L95.4688,111.7031 Q94.8438,111.125 94.25,110.8594 Q93.6563,110.5781 93.0313,110.5781 Q91.6875,110.5781 91,111.6563 Q90.3125,112.7188 90.3125,114.8125 Q90.3125,116.9063 91,117.9844 Q91.6875,119.0469 93.0313,119.0469 Q93.6563,119.0469 94.25,118.7813 Q94.8438,118.5 95.4688,117.9219 L95.4688,120.6406 Z " fill="#000000"/><text fill="#000000" font-family="sans-serif" font-size="14" lengthAdjust="spacing" textLength="129" x="106.5" y="119.8467">Relative2DPosition</text></g><!--class RelativePosition<Vector3, LengthUnit>--><g id="elem_RelativePosition&lt;Vector3, LengthUnit&gt;"><rect codeLine="6" fill="#F1F1F1" height="32" id="RelativePosition&lt;Vector3, LengthUnit&gt;" rx="2.5" ry="2.5" style="stroke:#181818;stroke-width:0.5;" width="302" x="7" y="7"/><ellipse cx="22" cy="23" fill="#ADD1B2" rx="11" ry="11" style="stroke:#181818;stroke-width:1.0;"/><path d="M24.9688,28.6406 Q24.3906,28.9375 23.75,29.0781 Q23.1094,29.2344 22.4063,29.2344 Q19.9063,29.2344 18.5781,27.5938 Q17.2656,25.9375 17.2656,22.8125 Q17.2656,19.6875 18.5781,18.0313 Q19.9063,16.375 22.4063,16.375 Q23.1094,16.375 23.75,16.5313 Q24.4063,16.6875 24.9688,16.9844 L24.9688,19.7031 Q24.3438,19.125 23.75,18.8594 Q23.1563,18.5781 22.5313,18.5781 Q21.1875,18.5781 20.5,19.6563 Q19.8125,20.7188 19.8125,22.8125 Q19.8125,24.9063 20.5,25.9844 Q21.1875,27.0469 22.5313,27.0469 Q23.1563,27.0469 23.75,26.7813 Q24.3438,26.5 24.9688,25.9219 L24.9688,28.6406 Z " fill="#000000"/><text fill="#000000" font-family="sans-serif" font-size="14" lengthAdjust="spacing" textLength="270" x="36" y="27.8467">RelativePosition&lt;Vector3, LengthUnit&gt;</text></g><!--class Relative3DPosition--><g id="elem_Relative3DPosition"><rect codeLine="9" fill="#F1F1F1" height="32" id="Relative3DPosition" rx="2.5" ry="2.5" style="stroke:#181818;stroke-width:0.5;" width="161" x="77.5" y="191"/><ellipse cx="92.5" cy="207" fill="#ADD1B2" rx="11" ry="11" style="stroke:#181818;stroke-width:1.0;"/><path d="M95.4688,212.6406 Q94.8906,212.9375 94.25,213.0781 Q93.6094,213.2344 92.9063,213.2344 Q90.4063,213.2344 89.0781,211.5938 Q87.7656,209.9375 87.7656,206.8125 Q87.7656,203.6875 89.0781,202.0313 Q90.4063,200.375 92.9063,200.375 Q93.6094,200.375 94.25,200.5313 Q94.9063,200.6875 95.4688,200.9844 L95.4688,203.7031 Q94.8438,203.125 94.25,202.8594 Q93.6563,202.5781 93.0313,202.5781 Q91.6875,202.5781 91,203.6563 Q90.3125,204.7188 90.3125,206.8125 Q90.3125,208.9063 91,209.9844 Q91.6875,211.0469 93.0313,211.0469 Q93.6563,211.0469 94.25,210.7813 Q94.8438,210.5 95.4688,209.9219 L95.4688,212.6406 Z " fill="#000000"/><text fill="#000000" font-family="sans-serif" font-size="14" lengthAdjust="spacing" textLength="129" x="106.5" y="211.8467">Relative3DPosition</text></g><!--reverse link RelativePosition<Vector3, LengthUnit> to Relative2DPosition--><g id="link_RelativePosition&lt;Vector3, LengthUnit&gt;_Relative2DPosition"><path codeLine="8" d="M158,59.61 C158,73.31 158,88.22 158,98.96 " fill="none" id="RelativePosition&lt;Vector3, LengthUnit&gt;-backto-Relative2DPosition" style="stroke:#181818;stroke-width:1.0;"/><polygon fill="none" points="151,59.27,158,39.27,165,59.27,151,59.27" style="stroke:#181818;stroke-width:1.0;"/></g><!--reverse link Relative2DPosition to Relative3DPosition--><g id="link_Relative2DPosition_Relative3DPosition"><path codeLine="11" d="M158,151.61 C158,165.31 158,180.22 158,190.96 " fill="none" id="Relative2DPosition-backto-Relative3DPosition" style="stroke:#181818;stroke-width:1.0;"/><polygon fill="none" points="151,151.27,158,131.27,165,151.27,151,151.27" style="stroke:#181818;stroke-width:1.0;"/></g><!--SRC=[ZOuz2y8m48Rt_egZirtiMXpKqK64keVaR8ucToKv1L7_kmKHQkdW-ZxlL-w91vDCXAsnVPVaocudGH9eCfn7XAo59uU0ST0xH5GlBa-b2s4O5HjCpb2UC1Yb6wxtHyca95p2etZDyHSsPxGggLx10RbJtpBfvfFurziygsfnTxvPpoujVlrjcqJU]--></g></svg>