<?xml version="1.0" encoding="us-ascii" standalone="no"?><svg xmlns="http://www.w3.org/2000/svg" xmlns:xlink="http://www.w3.org/1999/xlink" contentStyleType="text/css" height="138px" preserveAspectRatio="none" style="width:329px;height:138px;" version="1.1" viewBox="0 0 329 138" width="329px" zoomAndPan="magnify"><defs/><g><!--class RelativeOrientation--><g id="elem_RelativeOrientation"><rect codeLine="4" fill="#F1F1F1" height="32" id="RelativeOrientation" rx="2.5" ry="2.5" style="stroke:#181818;stroke-width:0.5;" width="162" x="83.5" y="99"/><ellipse cx="98.5" cy="115" fill="#ADD1B2" rx="11" ry="11" style="stroke:#181818;stroke-width:1.0;"/><path d="M101.4688,120.6406 Q100.8906,120.9375 100.25,121.0781 Q99.6094,121.2344 98.9063,121.2344 Q96.4063,121.2344 95.0781,119.5938 Q93.7656,117.9375 93.7656,114.8125 Q93.7656,111.6875 95.0781,110.0313 Q96.4063,108.375 98.9063,108.375 Q99.6094,108.375 100.25,108.5313 Q100.9063,108.6875 101.4688,108.9844 L101.4688,111.7031 Q100.8438,111.125 100.25,110.8594 Q99.6563,110.5781 99.0313,110.5781 Q97.6875,110.5781 97,111.6563 Q96.3125,112.7188 96.3125,114.8125 Q96.3125,116.9063 97,117.9844 Q97.6875,119.0469 99.0313,119.0469 Q99.6563,119.0469 100.25,118.7813 Q100.8438,118.5 101.4688,117.9219 L101.4688,120.6406 Z " fill="#000000"/><text fill="#000000" font-family="sans-serif" font-size="14" lengthAdjust="spacing" textLength="130" x="112.5" y="119.8467">RelativeOrientation</text></g><!--class RelativePosition<Orientation, AngleUnit>--><g id="elem_RelativePosition&lt;Orientation, AngleUnit&gt;"><rect codeLine="6" fill="#F1F1F1" height="32" id="RelativePosition&lt;Orientation, AngleUnit&gt;" rx="2.5" ry="2.5" style="stroke:#181818;stroke-width:0.5;" width="315" x="7" y="7"/><ellipse cx="22" cy="23" fill="#ADD1B2" rx="11" ry="11" style="stroke:#181818;stroke-width:1.0;"/><path d="M24.9688,28.6406 Q24.3906,28.9375 23.75,29.0781 Q23.1094,29.2344 22.4063,29.2344 Q19.9063,29.2344 18.5781,27.5938 Q17.2656,25.9375 17.2656,22.8125 Q17.2656,19.6875 18.5781,18.0313 Q19.9063,16.375 22.4063,16.375 Q23.1094,16.375 23.75,16.5313 Q24.4063,16.6875 24.9688,16.9844 L24.9688,19.7031 Q24.3438,19.125 23.75,18.8594 Q23.1563,18.5781 22.5313,18.5781 Q21.1875,18.5781 20.5,19.6563 Q19.8125,20.7188 19.8125,22.8125 Q19.8125,24.9063 20.5,25.9844 Q21.1875,27.0469 22.5313,27.0469 Q23.1563,27.0469 23.75,26.7813 Q24.3438,26.5 24.9688,25.9219 L24.9688,28.6406 Z " fill="#000000"/><text fill="#000000" font-family="sans-serif" font-size="14" lengthAdjust="spacing" textLength="283" x="36" y="27.8467">RelativePosition&lt;Orientation, AngleUnit&gt;</text></g><!--reverse link RelativePosition<Orientation, AngleUnit> to RelativeOrientation--><g id="link_RelativePosition&lt;Orientation, AngleUnit&gt;_RelativeOrientation"><path codeLine="8" d="M164.5,59.61 C164.5,73.31 164.5,88.22 164.5,98.96 " fill="none" id="RelativePosition&lt;Orientation, AngleUnit&gt;-backto-RelativeOrientation" style="stroke:#181818;stroke-width:1.0;"/><polygon fill="none" points="157.5,59.27,164.5,39.27,171.5,59.27,157.5,59.27" style="stroke:#181818;stroke-width:1.0;"/></g><!--SRC=[bOr12i9034NtFKNesjwW2DK3A88729tOXiuaPH85iTxT4JT5tBZx_FS-toQM6JCcs64_3Lcl4lOQDODd52k8nAkH0m6bsU-Go4SDjgukJB4qVKGpg4yKqVb6XynbMg9A3O_g-SsFQlo6xKhSG2T3fBEmRp-ZF_HsQPhVzoy0]--></g></svg>