<?xml version="1.0" encoding="us-ascii" standalone="no"?><svg xmlns="http://www.w3.org/2000/svg" xmlns:xlink="http://www.w3.org/1999/xlink" contentStyleType="text/css" height="138px" preserveAspectRatio="none" style="width:402px;height:138px;" version="1.1" viewBox="0 0 402 138" width="402px" zoomAndPan="magnify"><defs/><g><!--class RelativeLinearVelocity--><g id="elem_RelativeLinearVelocity"><rect codeLine="4" fill="#F1F1F1" height="32" id="RelativeLinearVelocity" rx="2.5" ry="2.5" style="stroke:#181818;stroke-width:0.5;" width="180" x="111" y="99"/><ellipse cx="126" cy="115" fill="#ADD1B2" rx="11" ry="11" style="stroke:#181818;stroke-width:1.0;"/><path d="M128.9688,120.6406 Q128.3906,120.9375 127.75,121.0781 Q127.1094,121.2344 126.4063,121.2344 Q123.9063,121.2344 122.5781,119.5938 Q121.2656,117.9375 121.2656,114.8125 Q121.2656,111.6875 122.5781,110.0313 Q123.9063,108.375 126.4063,108.375 Q127.1094,108.375 127.75,108.5313 Q128.4063,108.6875 128.9688,108.9844 L128.9688,111.7031 Q128.3438,111.125 127.75,110.8594 Q127.1563,110.5781 126.5313,110.5781 Q125.1875,110.5781 124.5,111.6563 Q123.8125,112.7188 123.8125,114.8125 Q123.8125,116.9063 124.5,117.9844 Q125.1875,119.0469 126.5313,119.0469 Q127.1563,119.0469 127.75,118.7813 Q128.3438,118.5 128.9688,117.9219 L128.9688,120.6406 Z " fill="#000000"/><text fill="#000000" font-family="sans-serif" font-size="14" lengthAdjust="spacing" textLength="148" x="140" y="119.8467">RelativeLinearVelocity</text></g><!--class RelativePosition<LinearVelocity, LinearVelocityUnit>--><g id="elem_RelativePosition&lt;LinearVelocity, LinearVelocityUnit&gt;"><rect codeLine="6" fill="#F1F1F1" height="32" id="RelativePosition&lt;LinearVelocity, LinearVelocityUnit&gt;" rx="2.5" ry="2.5" style="stroke:#181818;stroke-width:0.5;" width="388" x="7" y="7"/><ellipse cx="22" cy="23" fill="#ADD1B2" rx="11" ry="11" style="stroke:#181818;stroke-width:1.0;"/><path d="M24.9688,28.6406 Q24.3906,28.9375 23.75,29.0781 Q23.1094,29.2344 22.4063,29.2344 Q19.9063,29.2344 18.5781,27.5938 Q17.2656,25.9375 17.2656,22.8125 Q17.2656,19.6875 18.5781,18.0313 Q19.9063,16.375 22.4063,16.375 Q23.1094,16.375 23.75,16.5313 Q24.4063,16.6875 24.9688,16.9844 L24.9688,19.7031 Q24.3438,19.125 23.75,18.8594 Q23.1563,18.5781 22.5313,18.5781 Q21.1875,18.5781 20.5,19.6563 Q19.8125,20.7188 19.8125,22.8125 Q19.8125,24.9063 20.5,25.9844 Q21.1875,27.0469 22.5313,27.0469 Q23.1563,27.0469 23.75,26.7813 Q24.3438,26.5 24.9688,25.9219 L24.9688,28.6406 Z " fill="#000000"/><text fill="#000000" font-family="sans-serif" font-size="14" lengthAdjust="spacing" textLength="356" x="36" y="27.8467">RelativePosition&lt;LinearVelocity, LinearVelocityUnit&gt;</text></g><!--reverse link RelativePosition<LinearVelocity, LinearVelocityUnit> to RelativeLinearVelocity--><g id="link_RelativePosition&lt;LinearVelocity, LinearVelocityUnit&gt;_RelativeLinearVelocity"><path codeLine="8" d="M201,59.61 C201,73.31 201,88.22 201,98.96 " fill="none" id="RelativePosition&lt;LinearVelocity, LinearVelocityUnit&gt;-backto-RelativeLinearVelocity" style="stroke:#181818;stroke-width:1.0;"/><polygon fill="none" points="194,59.27,201,39.27,208,59.27,194,59.27" style="stroke:#181818;stroke-width:1.0;"/></g><!--SRC=[dOwn2i9044JxVCMIsln1iD3MGWJjbxlLBBdR3RUh44p-tO2D4MmiP-RDCDQp35Wmmmv3VojwbxZNf0MyeDWIaNZLSIIWFFW8cRpJQ9_MbIajJaXe1lM94Ze_wC12M2wKDB2FDJoh-Hivgh6pIhjcDx3MPs7VlWV-hBPJq_nyzW80]--></g></svg>