<?xml version="1.0" encoding="us-ascii" standalone="no"?><svg xmlns="http://www.w3.org/2000/svg" xmlns:xlink="http://www.w3.org/1999/xlink" contentStyleType="text/css" height="138px" preserveAspectRatio="none" style="width:307px;height:138px;" version="1.1" viewBox="0 0 307 138" width="307px" zoomAndPan="magnify"><defs/><g><!--class RelativeAngle--><g id="elem_RelativeAngle"><rect codeLine="4" fill="#F1F1F1" height="32" id="RelativeAngle" rx="2.5" ry="2.5" style="stroke:#181818;stroke-width:0.5;" width="125" x="91" y="99"/><ellipse cx="106" cy="115" fill="#ADD1B2" rx="11" ry="11" style="stroke:#181818;stroke-width:1.0;"/><path d="M108.9688,120.6406 Q108.3906,120.9375 107.75,121.0781 Q107.1094,121.2344 106.4063,121.2344 Q103.9063,121.2344 102.5781,119.5938 Q101.2656,117.9375 101.2656,114.8125 Q101.2656,111.6875 102.5781,110.0313 Q103.9063,108.375 106.4063,108.375 Q107.1094,108.375 107.75,108.5313 Q108.4063,108.6875 108.9688,108.9844 L108.9688,111.7031 Q108.3438,111.125 107.75,110.8594 Q107.1563,110.5781 106.5313,110.5781 Q105.1875,110.5781 104.5,111.6563 Q103.8125,112.7188 103.8125,114.8125 Q103.8125,116.9063 104.5,117.9844 Q105.1875,119.0469 106.5313,119.0469 Q107.1563,119.0469 107.75,118.7813 Q108.3438,118.5 108.9688,117.9219 L108.9688,120.6406 Z " fill="#000000"/><text fill="#000000" font-family="sans-serif" font-size="14" lengthAdjust="spacing" textLength="93" x="120" y="119.8467">RelativeAngle</text></g><!--class RelativePosition<number, AngleUnit>--><g id="elem_RelativePosition&lt;number, AngleUnit&gt;"><rect codeLine="6" fill="#F1F1F1" height="32" id="RelativePosition&lt;number, AngleUnit&gt;" rx="2.5" ry="2.5" style="stroke:#181818;stroke-width:0.5;" width="293" x="7" y="7"/><ellipse cx="22" cy="23" fill="#ADD1B2" rx="11" ry="11" style="stroke:#181818;stroke-width:1.0;"/><path d="M24.9688,28.6406 Q24.3906,28.9375 23.75,29.0781 Q23.1094,29.2344 22.4063,29.2344 Q19.9063,29.2344 18.5781,27.5938 Q17.2656,25.9375 17.2656,22.8125 Q17.2656,19.6875 18.5781,18.0313 Q19.9063,16.375 22.4063,16.375 Q23.1094,16.375 23.75,16.5313 Q24.4063,16.6875 24.9688,16.9844 L24.9688,19.7031 Q24.3438,19.125 23.75,18.8594 Q23.1563,18.5781 22.5313,18.5781 Q21.1875,18.5781 20.5,19.6563 Q19.8125,20.7188 19.8125,22.8125 Q19.8125,24.9063 20.5,25.9844 Q21.1875,27.0469 22.5313,27.0469 Q23.1563,27.0469 23.75,26.7813 Q24.3438,26.5 24.9688,25.9219 L24.9688,28.6406 Z " fill="#000000"/><text fill="#000000" font-family="sans-serif" font-size="14" lengthAdjust="spacing" textLength="261" x="36" y="27.8467">RelativePosition&lt;number, AngleUnit&gt;</text></g><!--reverse link RelativePosition<number, AngleUnit> to RelativeAngle--><g id="link_RelativePosition&lt;number, AngleUnit&gt;_RelativeAngle"><path codeLine="8" d="M153.5,59.61 C153.5,73.31 153.5,88.22 153.5,98.96 " fill="none" id="RelativePosition&lt;number, AngleUnit&gt;-backto-RelativeAngle" style="stroke:#181818;stroke-width:1.0;"/><polygon fill="none" points="146.5,59.27,153.5,39.27,160.5,59.27,146.5,59.27" style="stroke:#181818;stroke-width:1.0;"/></g><!--SRC=[ZOr12i90303lVKNesVwW2Ee7HF01iHlRq6nIDgaWwjyjUf6UlCuCZ8-i4nRCiCTkx8lDcWucLY0AgY-ADAg14m7bAUwGAGPB_ekkJBAGJj0TwXC91jzefxrG3O_gjJP7SmusRNNE5oeR-AHdvTX- -__AzjaqwzqR]--></g></svg>