<?xml version="1.0" encoding="us-ascii" standalone="no"?><svg xmlns="http://www.w3.org/2000/svg" xmlns:xlink="http://www.w3.org/1999/xlink" contentStyleType="text/css" height="138px" preserveAspectRatio="none" style="width:316px;height:138px;" version="1.1" viewBox="0 0 316 138" width="316px" zoomAndPan="magnify"><defs/><g><!--class RelativeDistance--><g id="elem_RelativeDistance"><rect codeLine="4" fill="#F1F1F1" height="32" id="RelativeDistance" rx="2.5" ry="2.5" style="stroke:#181818;stroke-width:0.5;" width="147" x="84.5" y="99"/><ellipse cx="99.5" cy="115" fill="#ADD1B2" rx="11" ry="11" style="stroke:#181818;stroke-width:1.0;"/><path d="M102.4688,120.6406 Q101.8906,120.9375 101.25,121.0781 Q100.6094,121.2344 99.9063,121.2344 Q97.4063,121.2344 96.0781,119.5938 Q94.7656,117.9375 94.7656,114.8125 Q94.7656,111.6875 96.0781,110.0313 Q97.4063,108.375 99.9063,108.375 Q100.6094,108.375 101.25,108.5313 Q101.9063,108.6875 102.4688,108.9844 L102.4688,111.7031 Q101.8438,111.125 101.25,110.8594 Q100.6563,110.5781 100.0313,110.5781 Q98.6875,110.5781 98,111.6563 Q97.3125,112.7188 97.3125,114.8125 Q97.3125,116.9063 98,117.9844 Q98.6875,119.0469 100.0313,119.0469 Q100.6563,119.0469 101.25,118.7813 Q101.8438,118.5 102.4688,117.9219 L102.4688,120.6406 Z " fill="#000000"/><text fill="#000000" font-family="sans-serif" font-size="14" lengthAdjust="spacing" textLength="115" x="113.5" y="119.8467">RelativeDistance</text></g><!--class RelativePosition<number, LengthUnit>--><g id="elem_RelativePosition&lt;number, LengthUnit&gt;"><rect codeLine="6" fill="#F1F1F1" height="32" id="RelativePosition&lt;number, LengthUnit&gt;" rx="2.5" ry="2.5" style="stroke:#181818;stroke-width:0.5;" width="302" x="7" y="7"/><ellipse cx="22" cy="23" fill="#ADD1B2" rx="11" ry="11" style="stroke:#181818;stroke-width:1.0;"/><path d="M24.9688,28.6406 Q24.3906,28.9375 23.75,29.0781 Q23.1094,29.2344 22.4063,29.2344 Q19.9063,29.2344 18.5781,27.5938 Q17.2656,25.9375 17.2656,22.8125 Q17.2656,19.6875 18.5781,18.0313 Q19.9063,16.375 22.4063,16.375 Q23.1094,16.375 23.75,16.5313 Q24.4063,16.6875 24.9688,16.9844 L24.9688,19.7031 Q24.3438,19.125 23.75,18.8594 Q23.1563,18.5781 22.5313,18.5781 Q21.1875,18.5781 20.5,19.6563 Q19.8125,20.7188 19.8125,22.8125 Q19.8125,24.9063 20.5,25.9844 Q21.1875,27.0469 22.5313,27.0469 Q23.1563,27.0469 23.75,26.7813 Q24.3438,26.5 24.9688,25.9219 L24.9688,28.6406 Z " fill="#000000"/><text fill="#000000" font-family="sans-serif" font-size="14" lengthAdjust="spacing" textLength="270" x="36" y="27.8467">RelativePosition&lt;number, LengthUnit&gt;</text></g><!--reverse link RelativePosition<number, LengthUnit> to RelativeDistance--><g id="link_RelativePosition&lt;number, LengthUnit&gt;_RelativeDistance"><path codeLine="8" d="M158,59.61 C158,73.31 158,88.22 158,98.96 " fill="none" id="RelativePosition&lt;number, LengthUnit&gt;-backto-RelativeDistance" style="stroke:#181818;stroke-width:1.0;"/><polygon fill="none" points="151,59.27,158,39.27,165,59.27,151,59.27" style="stroke:#181818;stroke-width:1.0;"/></g><!--SRC=[ZOr12i9034NtFKNesjwWk52NBaJm074cTa9daZ991L7lRi6DY0ktx_t7jv5bmee5DXZ6eUeiSQjPAtX5iKMHU9Cu4b2P_0Q5F6cqJtHXoWi96SsWFL96voljs1mbK0ltvlaj3shihDBBNCvKLx0d6JoTX7tz3lwSze-k-_7v0W00]--></g></svg>