<?xml version="1.0" encoding="us-ascii" standalone="no"?><svg xmlns="http://www.w3.org/2000/svg" xmlns:xlink="http://www.w3.org/1999/xlink" contentStyleType="text/css" height="138px" preserveAspectRatio="none" style="width:271px;height:138px;" version="1.1" viewBox="0 0 271 138" width="271px" zoomAndPan="magnify"><defs/><g><!--class RemoteSourceNode<Out, S, N>--><g id="elem_RemoteSourceNode&lt;Out, S, N&gt;"><rect codeLine="4" fill="#F1F1F1" height="32" id="RemoteSourceNode&lt;Out, S, N&gt;" rx="2.5" ry="2.5" style="stroke:#181818;stroke-width:0.5;" width="257" x="7" y="99"/><ellipse cx="22" cy="115" fill="#ADD1B2" rx="11" ry="11" style="stroke:#181818;stroke-width:1.0;"/><path d="M24.9688,120.6406 Q24.3906,120.9375 23.75,121.0781 Q23.1094,121.2344 22.4063,121.2344 Q19.9063,121.2344 18.5781,119.5938 Q17.2656,117.9375 17.2656,114.8125 Q17.2656,111.6875 18.5781,110.0313 Q19.9063,108.375 22.4063,108.375 Q23.1094,108.375 23.75,108.5313 Q24.4063,108.6875 24.9688,108.9844 L24.9688,111.7031 Q24.3438,111.125 23.75,110.8594 Q23.1563,110.5781 22.5313,110.5781 Q21.1875,110.5781 20.5,111.6563 Q19.8125,112.7188 19.8125,114.8125 Q19.8125,116.9063 20.5,117.9844 Q21.1875,119.0469 22.5313,119.0469 Q23.1563,119.0469 23.75,118.7813 Q24.3438,118.5 24.9688,117.9219 L24.9688,120.6406 Z " fill="#000000"/><text fill="#000000" font-family="sans-serif" font-size="14" lengthAdjust="spacing" textLength="225" x="36" y="119.8467">RemoteSourceNode&lt;Out, S, N&gt;</text></g><!--class SourceNode<Out>--><g id="elem_SourceNode&lt;Out&gt;"><rect codeLine="6" fill="#F1F1F1" height="32" id="SourceNode&lt;Out&gt;" rx="2.5" ry="2.5" style="stroke:#181818;stroke-width:0.5;" width="168" x="51.5" y="7"/><ellipse cx="66.5" cy="23" fill="#A9DCDF" rx="11" ry="11" style="stroke:#181818;stroke-width:1.0;"/><path d="M66.6094,18.3438 L65.4531,23.4219 L67.7813,23.4219 L66.6094,18.3438 Z M65.125,16.1094 L68.1094,16.1094 L71.4688,28.5 L69.0156,28.5 L68.25,25.4375 L64.9688,25.4375 L64.2188,28.5 L61.7813,28.5 L65.125,16.1094 Z " fill="#000000"/><text fill="#000000" font-family="sans-serif" font-size="14" font-style="italic" lengthAdjust="spacing" textLength="136" x="80.5" y="27.8467">SourceNode&lt;Out&gt;</text></g><!--reverse link SourceNode<Out> to RemoteSourceNode<Out, S, N>--><g id="link_SourceNode&lt;Out&gt;_RemoteSourceNode&lt;Out, S, N&gt;"><path codeLine="8" d="M135.5,59.61 C135.5,73.31 135.5,88.22 135.5,98.96 " fill="none" id="SourceNode&lt;Out&gt;-backto-RemoteSourceNode&lt;Out, S, N&gt;" style="stroke:#181818;stroke-width:1.0;"/><polygon fill="none" points="128.5,59.27,135.5,39.27,142.5,59.27,128.5,59.27" style="stroke:#181818;stroke-width:1.0;"/></g><!--SRC=[VOmn3i8m34NtdCBgtDwWOe2zIFG49d5fr2IkOcUeWBitGmSG4klxxpzPV5enOuGpskMHkIHtuS0PD6EIEb5ICtj7G77L3IBfp4u-qUGfL683Ya1peyXA8vTiQM17_RLe2sCBmwc1ftaRl4jjMuNZyAqUqY_jNrttlxu3]--></g></svg>