<?xml version="1.0" encoding="UTF-8" standalone="no"?><svg xmlns="http://www.w3.org/2000/svg" xmlns:xlink="http://www.w3.org/1999/xlink" contentScriptType="application/ecmascript" contentStyleType="text/css" height="145px" preserveAspectRatio="none" style="width:211px;height:145px;background:#00000000;" version="1.1" viewBox="0 0 211 145" width="211px" zoomAndPan="magnify"><defs><filter height="300%" id="f10lmtjec7yqf0" width="300%" x="-1" y="-1"><feGaussianBlur result="blurOut" stdDeviation="2.0"/><feColorMatrix in="blurOut" result="blurOut2" type="matrix" values="0 0 0 0 0 0 0 0 0 0 0 0 0 0 0 0 0 0 .4 0"/><feOffset dx="4.0" dy="4.0" in="blurOut2" result="blurOut3"/><feBlend in="SourceGraphic" in2="blurOut3" mode="normal"/></filter></defs><g><!--MD5=[737a787b3dad17050287ad26261bc383]
class RemoteNode<In, Out, S>--><rect codeLine="4" fill="#FEFECE" filter="url(#f10lmtjec7yqf0)" height="32" id="RemoteNode&lt;In, Out, S&gt;" style="stroke:#A80036;stroke-width:1.5;" width="190" x="7" y="99"/><ellipse cx="22" cy="115" fill="#ADD1B2" rx="11" ry="11" style="stroke:#A80036;stroke-width:1.0;"/><path d="M24.9688,120.6406 Q24.3906,120.9375 23.75,121.0781 Q23.1094,121.2344 22.4063,121.2344 Q19.9063,121.2344 18.5781,119.5938 Q17.2656,117.9375 17.2656,114.8125 Q17.2656,111.6875 18.5781,110.0313 Q19.9063,108.375 22.4063,108.375 Q23.1094,108.375 23.75,108.5313 Q24.4063,108.6875 24.9688,108.9844 L24.9688,111.7031 Q24.3438,111.125 23.75,110.8594 Q23.1563,110.5781 22.5313,110.5781 Q21.1875,110.5781 20.5,111.6563 Q19.8125,112.7188 19.8125,114.8125 Q19.8125,116.9063 20.5,117.9844 Q21.1875,119.0469 22.5313,119.0469 Q23.1563,119.0469 23.75,118.7813 Q24.3438,118.5 24.9688,117.9219 L24.9688,120.6406 Z " fill="#000000"/><text fill="#000000" font-family="sans-serif" font-size="12" lengthAdjust="spacing" textLength="158" x="36" y="119.1543">RemoteNode&lt;In, Out, S&gt;</text><!--MD5=[1f35e560ec16ab5e3b805489929ed19a]
class Node<In, Out>--><rect codeLine="6" fill="#FEFECE" filter="url(#f10lmtjec7yqf0)" height="32" id="Node&lt;In, Out&gt;" style="stroke:#A80036;stroke-width:1.5;" width="126" x="39" y="7"/><ellipse cx="54" cy="23" fill="#ADD1B2" rx="11" ry="11" style="stroke:#A80036;stroke-width:1.0;"/><path d="M56.9688,28.6406 Q56.3906,28.9375 55.75,29.0781 Q55.1094,29.2344 54.4063,29.2344 Q51.9063,29.2344 50.5781,27.5938 Q49.2656,25.9375 49.2656,22.8125 Q49.2656,19.6875 50.5781,18.0313 Q51.9063,16.375 54.4063,16.375 Q55.1094,16.375 55.75,16.5313 Q56.4063,16.6875 56.9688,16.9844 L56.9688,19.7031 Q56.3438,19.125 55.75,18.8594 Q55.1563,18.5781 54.5313,18.5781 Q53.1875,18.5781 52.5,19.6563 Q51.8125,20.7188 51.8125,22.8125 Q51.8125,24.9063 52.5,25.9844 Q53.1875,27.0469 54.5313,27.0469 Q55.1563,27.0469 55.75,26.7813 Q56.3438,26.5 56.9688,25.9219 L56.9688,28.6406 Z " fill="#000000"/><text fill="#000000" font-family="sans-serif" font-size="12" lengthAdjust="spacing" textLength="94" x="68" y="27.1543">Node&lt;In, Out&gt;</text><!--MD5=[cb641fd8c96077eb4b918ba4d584317f]
reverse link Node<In, Out> to RemoteNode<In, Out, S>--><path codeLine="8" d="M102,59.61 C102,73.31 102,88.22 102,98.96 " fill="none" id="Node&lt;In, Out&gt;-backto-RemoteNode&lt;In, Out, S&gt;" style="stroke:#A80036;stroke-width:1.0;"/><polygon fill="none" points="95,59.27,102,39.27,109,59.27,95,59.27" style="stroke:#A80036;stroke-width:1.0;"/><!--MD5=[38efc9a3daaec304243cbdef55f58b8c]
@startuml
skinparam BackgroundColor transparent
hide empty methods
hide empty fields
class "RemoteNode<In, Out, S>" {
}
class "Node<In, Out>" {
}
"Node<In, Out>" <|- - "RemoteNode<In, Out, S>"
@enduml

PlantUML version 1.2021.14(Fri Nov 12 16:46:50 UTC 2021)
(GPL source distribution)
Java Runtime: OpenJDK Runtime Environment
JVM: OpenJDK 64-Bit Server VM
Default Encoding: UTF-8
Language: en
Country: null
--></g></svg>