<?xml version="1.0" encoding="us-ascii" standalone="no"?><svg xmlns="http://www.w3.org/2000/svg" xmlns:xlink="http://www.w3.org/1999/xlink" contentStyleType="text/css" height="138px" preserveAspectRatio="none" style="width:432px;height:138px;" version="1.1" viewBox="0 0 432 138" width="432px" zoomAndPan="magnify"><defs/><g><!--class RemoteSourceNodeOptions<S>--><g id="elem_RemoteSourceNodeOptions&lt;S&gt;"><rect codeLine="4" fill="#F1F1F1" height="32" id="RemoteSourceNodeOptions&lt;S&gt;" rx="2.5" ry="2.5" style="stroke:#181818;stroke-width:0.5;" width="260" x="76" y="99"/><ellipse cx="91" cy="115" fill="#B4A7E5" rx="11" ry="11" style="stroke:#181818;stroke-width:1.0;"/><path d="M86.9219,110.7656 L86.9219,108.6094 L94.3125,108.6094 L94.3125,110.7656 L91.8438,110.7656 L91.8438,118.8438 L94.3125,118.8438 L94.3125,121 L86.9219,121 L86.9219,118.8438 L89.3906,118.8438 L89.3906,110.7656 L86.9219,110.7656 Z " fill="#000000"/><text fill="#000000" font-family="sans-serif" font-size="14" font-style="italic" lengthAdjust="spacing" textLength="228" x="105" y="119.8467">RemoteSourceNodeOptions&lt;S&gt;</text></g><!--class SourceNodeOptions--><g id="elem_SourceNodeOptions"><rect codeLine="6" fill="#F1F1F1" height="32" id="SourceNodeOptions" rx="2.5" ry="2.5" style="stroke:#181818;stroke-width:0.5;" width="172" x="7" y="7"/><ellipse cx="22" cy="23" fill="#B4A7E5" rx="11" ry="11" style="stroke:#181818;stroke-width:1.0;"/><path d="M17.9219,18.7656 L17.9219,16.6094 L25.3125,16.6094 L25.3125,18.7656 L22.8438,18.7656 L22.8438,26.8438 L25.3125,26.8438 L25.3125,29 L17.9219,29 L17.9219,26.8438 L20.3906,26.8438 L20.3906,18.7656 L17.9219,18.7656 Z " fill="#000000"/><text fill="#000000" font-family="sans-serif" font-size="14" font-style="italic" lengthAdjust="spacing" textLength="140" x="36" y="27.8467">SourceNodeOptions</text></g><!--class RemoteNodeOptions<S>--><g id="elem_RemoteNodeOptions&lt;S&gt;"><rect codeLine="9" fill="#F1F1F1" height="32" id="RemoteNodeOptions&lt;S&gt;" rx="2.5" ry="2.5" style="stroke:#181818;stroke-width:0.5;" width="211" x="214.5" y="7"/><ellipse cx="229.5" cy="23" fill="#B4A7E5" rx="11" ry="11" style="stroke:#181818;stroke-width:1.0;"/><path d="M225.4219,18.7656 L225.4219,16.6094 L232.8125,16.6094 L232.8125,18.7656 L230.3438,18.7656 L230.3438,26.8438 L232.8125,26.8438 L232.8125,29 L225.4219,29 L225.4219,26.8438 L227.8906,26.8438 L227.8906,18.7656 L225.4219,18.7656 Z " fill="#000000"/><text fill="#000000" font-family="sans-serif" font-size="14" font-style="italic" lengthAdjust="spacing" textLength="179" x="243.5" y="27.8467">RemoteNodeOptions&lt;S&gt;</text></g><!--reverse link SourceNodeOptions to RemoteSourceNodeOptions<S>--><g id="link_SourceNodeOptions_RemoteSourceNodeOptions&lt;S&gt;"><path codeLine="8" d="M127.73,51.66 C147.25,67.21 170.87,86.02 187.02,98.89 " fill="none" id="SourceNodeOptions-backto-RemoteSourceNodeOptions&lt;S&gt;" style="stroke:#181818;stroke-width:1.0;"/><polygon fill="none" points="123.2,57,111.91,39.06,131.92,46.05,123.2,57" style="stroke:#181818;stroke-width:1.0;"/></g><!--reverse link RemoteNodeOptions<S> to RemoteSourceNodeOptions<S>--><g id="link_RemoteNodeOptions&lt;S&gt;_RemoteSourceNodeOptions&lt;S&gt;"><path codeLine="11" d="M284.97,51.66 C265.27,67.21 241.44,86.02 225.14,98.89 " fill="none" id="RemoteNodeOptions&lt;S&gt;-backto-RemoteSourceNodeOptions&lt;S&gt;" style="stroke:#181818;stroke-width:1.0;"/><polygon fill="none" points="280.88,45.96,300.92,39.06,289.56,56.95,280.88,45.96" style="stroke:#181818;stroke-width:1.0;"/></g><!--SRC=[XOwn3e9044Hxlc93pnyG2-qraI-ut0roWTkzx2s5KVzT4XiIKDitBpDJniZPgKjqT7wygSmSJZA9agdZiaHWguOOG4ZPxfHWWuIoHdt4j9381ksT1zLN935qCgl7MG8ksQ9mQRj3JO_gjLOtqiVOu-spQNvsRo_iZN-9_hQ_0G00]--></g></svg>