<?xml version="1.0" encoding="us-ascii" standalone="no"?><svg xmlns="http://www.w3.org/2000/svg" xmlns:xlink="http://www.w3.org/1999/xlink" contentStyleType="text/css" height="230px" preserveAspectRatio="none" style="width:549px;height:230px;" version="1.1" viewBox="0 0 549 230" width="549px" zoomAndPan="magnify"><defs/><g><!--class RemoteNodeOptions<S>--><g id="elem_RemoteNodeOptions&lt;S&gt;"><rect codeLine="4" fill="#F1F1F1" height="32" id="RemoteNodeOptions&lt;S&gt;" rx="2.5" ry="2.5" style="stroke:#181818;stroke-width:0.5;" width="211" x="163.5" y="99"/><ellipse cx="178.5" cy="115" fill="#B4A7E5" rx="11" ry="11" style="stroke:#181818;stroke-width:1.0;"/><path d="M174.4219,110.7656 L174.4219,108.6094 L181.8125,108.6094 L181.8125,110.7656 L179.3438,110.7656 L179.3438,118.8438 L181.8125,118.8438 L181.8125,121 L174.4219,121 L174.4219,118.8438 L176.8906,118.8438 L176.8906,110.7656 L174.4219,110.7656 Z " fill="#000000"/><text fill="#000000" font-family="sans-serif" font-size="14" font-style="italic" lengthAdjust="spacing" textLength="179" x="192.5" y="119.8467">RemoteNodeOptions&lt;S&gt;</text></g><!--class NodeOptions--><g id="elem_NodeOptions"><rect codeLine="6" fill="#F1F1F1" height="32" id="NodeOptions" rx="2.5" ry="2.5" style="stroke:#181818;stroke-width:0.5;" width="123" x="207.5" y="7"/><ellipse cx="222.5" cy="23" fill="#B4A7E5" rx="11" ry="11" style="stroke:#181818;stroke-width:1.0;"/><path d="M218.4219,18.7656 L218.4219,16.6094 L225.8125,16.6094 L225.8125,18.7656 L223.3438,18.7656 L223.3438,26.8438 L225.8125,26.8438 L225.8125,29 L218.4219,29 L218.4219,26.8438 L220.8906,26.8438 L220.8906,18.7656 L218.4219,18.7656 Z " fill="#000000"/><text fill="#000000" font-family="sans-serif" font-size="14" font-style="italic" lengthAdjust="spacing" textLength="91" x="236.5" y="27.8467">NodeOptions</text></g><!--class RemoteSinkNodeOptions<S>--><g id="elem_RemoteSinkNodeOptions&lt;S&gt;"><rect codeLine="9" fill="#F1F1F1" height="32" id="RemoteSinkNodeOptions&lt;S&gt;" rx="2.5" ry="2.5" style="stroke:#181818;stroke-width:0.5;" width="240" x="7" y="191"/><ellipse cx="22" cy="207" fill="#B4A7E5" rx="11" ry="11" style="stroke:#181818;stroke-width:1.0;"/><path d="M17.9219,202.7656 L17.9219,200.6094 L25.3125,200.6094 L25.3125,202.7656 L22.8438,202.7656 L22.8438,210.8438 L25.3125,210.8438 L25.3125,213 L17.9219,213 L17.9219,210.8438 L20.3906,210.8438 L20.3906,202.7656 L17.9219,202.7656 Z " fill="#000000"/><text fill="#000000" font-family="sans-serif" font-size="14" font-style="italic" lengthAdjust="spacing" textLength="208" x="36" y="211.8467">RemoteSinkNodeOptions&lt;S&gt;</text></g><!--class RemoteSourceNodeOptions<S>--><g id="elem_RemoteSourceNodeOptions&lt;S&gt;"><rect codeLine="12" fill="#F1F1F1" height="32" id="RemoteSourceNodeOptions&lt;S&gt;" rx="2.5" ry="2.5" style="stroke:#181818;stroke-width:0.5;" width="260" x="282" y="191"/><ellipse cx="297" cy="207" fill="#B4A7E5" rx="11" ry="11" style="stroke:#181818;stroke-width:1.0;"/><path d="M292.9219,202.7656 L292.9219,200.6094 L300.3125,200.6094 L300.3125,202.7656 L297.8438,202.7656 L297.8438,210.8438 L300.3125,210.8438 L300.3125,213 L292.9219,213 L292.9219,210.8438 L295.3906,210.8438 L295.3906,202.7656 L292.9219,202.7656 Z " fill="#000000"/><text fill="#000000" font-family="sans-serif" font-size="14" font-style="italic" lengthAdjust="spacing" textLength="228" x="311" y="211.8467">RemoteSourceNodeOptions&lt;S&gt;</text></g><!--reverse link NodeOptions to RemoteNodeOptions<S>--><g id="link_NodeOptions_RemoteNodeOptions&lt;S&gt;"><path codeLine="8" d="M269,59.61 C269,73.31 269,88.22 269,98.96 " fill="none" id="NodeOptions-backto-RemoteNodeOptions&lt;S&gt;" style="stroke:#181818;stroke-width:1.0;"/><polygon fill="none" points="262,59.27,269,39.27,276,59.27,262,59.27" style="stroke:#181818;stroke-width:1.0;"/></g><!--reverse link RemoteNodeOptions<S> to RemoteSinkNodeOptions<S>--><g id="link_RemoteNodeOptions&lt;S&gt;_RemoteSinkNodeOptions&lt;S&gt;"><path codeLine="11" d="M228.31,141.79 C203.24,157.68 171.96,177.5 150.85,190.89 " fill="none" id="RemoteNodeOptions&lt;S&gt;-backto-RemoteSinkNodeOptions&lt;S&gt;" style="stroke:#181818;stroke-width:1.0;"/><polygon fill="none" points="224.59,135.86,245.23,131.06,232.09,147.68,224.59,135.86" style="stroke:#181818;stroke-width:1.0;"/></g><!--reverse link RemoteNodeOptions<S> to RemoteSourceNodeOptions<S>--><g id="link_RemoteNodeOptions&lt;S&gt;_RemoteSourceNodeOptions&lt;S&gt;"><path codeLine="14" d="M309.98,141.79 C335.22,157.68 366.72,177.5 387.99,190.89 " fill="none" id="RemoteNodeOptions&lt;S&gt;-backto-RemoteSourceNodeOptions&lt;S&gt;" style="stroke:#181818;stroke-width:1.0;"/><polygon fill="none" points="306.13,147.64,292.93,131.06,313.59,135.79,306.13,147.64" style="stroke:#181818;stroke-width:1.0;"/></g><!--SRC=[dOun3i8m34NtdiBgtXjK3B23H4yGDIwrqjYHumu8k3kLM8985zRt_Tzt3iJ9gOjmT6EugQpiJxA8WgdZl4N8ripa4J0ckqD4cyNd4as4oqQ83NLo8q9xnIY6P_5uIKR2kHyEBJoQLtbKn9_ic_JFhjin_KuDnA4sj_D9wQvKAtvPTSH_5shbDm00]--></g></svg>