<?xml version="1.0" encoding="UTF-8" standalone="no"?><svg xmlns="http://www.w3.org/2000/svg" xmlns:xlink="http://www.w3.org/1999/xlink" contentScriptType="application/ecmascript" contentStyleType="text/css" height="145px" preserveAspectRatio="none" style="width:398px;height:145px;background:#00000000;" version="1.1" viewBox="0 0 398 145" width="398px" zoomAndPan="magnify"><defs><filter height="300%" id="f11h1x2vhuidzk" width="300%" x="-1" y="-1"><feGaussianBlur result="blurOut" stdDeviation="2.0"/><feColorMatrix in="blurOut" result="blurOut2" type="matrix" values="0 0 0 0 0 0 0 0 0 0 0 0 0 0 0 0 0 0 .4 0"/><feOffset dx="4.0" dy="4.0" in="blurOut2" result="blurOut3"/><feBlend in="SourceGraphic" in2="blurOut3" mode="normal"/></filter></defs><g><!--MD5=[040509c58f318c54feb998aa1e2c84bb]
class RemoteSourceNodeOptions<S>--><rect codeLine="4" fill="#FEFECE" filter="url(#f11h1x2vhuidzk)" height="32" id="RemoteSourceNodeOptions&lt;S&gt;" style="stroke:#A80036;stroke-width:1.5;" width="231" x="72" y="99"/><ellipse cx="87" cy="115" fill="#B4A7E5" rx="11" ry="11" style="stroke:#A80036;stroke-width:1.0;"/><path d="M82.9219,110.7656 L82.9219,108.6094 L90.3125,108.6094 L90.3125,110.7656 L87.8438,110.7656 L87.8438,118.8438 L90.3125,118.8438 L90.3125,121 L82.9219,121 L82.9219,118.8438 L85.3906,118.8438 L85.3906,110.7656 L82.9219,110.7656 Z " fill="#000000"/><text fill="#000000" font-family="sans-serif" font-size="12" font-style="italic" lengthAdjust="spacing" textLength="199" x="101" y="119.1543">RemoteSourceNodeOptions&lt;S&gt;</text><!--MD5=[2ce794d34c3bd0dbd6544d1249e177ac]
class SourceNodeOptions--><rect codeLine="6" fill="#FEFECE" filter="url(#f11h1x2vhuidzk)" height="32" id="SourceNodeOptions" style="stroke:#A80036;stroke-width:1.5;" width="155" x="7" y="7"/><ellipse cx="22" cy="23" fill="#B4A7E5" rx="11" ry="11" style="stroke:#A80036;stroke-width:1.0;"/><path d="M17.9219,18.7656 L17.9219,16.6094 L25.3125,16.6094 L25.3125,18.7656 L22.8438,18.7656 L22.8438,26.8438 L25.3125,26.8438 L25.3125,29 L17.9219,29 L17.9219,26.8438 L20.3906,26.8438 L20.3906,18.7656 L17.9219,18.7656 Z " fill="#000000"/><text fill="#000000" font-family="sans-serif" font-size="12" font-style="italic" lengthAdjust="spacing" textLength="123" x="36" y="27.1543">SourceNodeOptions</text><!--MD5=[27233f9f0dbea12209f7bde4d6298590]
class RemoteNodeOptions<S>--><rect codeLine="9" fill="#FEFECE" filter="url(#f11h1x2vhuidzk)" height="32" id="RemoteNodeOptions&lt;S&gt;" style="stroke:#A80036;stroke-width:1.5;" width="187" x="197" y="7"/><ellipse cx="212" cy="23" fill="#B4A7E5" rx="11" ry="11" style="stroke:#A80036;stroke-width:1.0;"/><path d="M207.9219,18.7656 L207.9219,16.6094 L215.3125,16.6094 L215.3125,18.7656 L212.8438,18.7656 L212.8438,26.8438 L215.3125,26.8438 L215.3125,29 L207.9219,29 L207.9219,26.8438 L210.3906,26.8438 L210.3906,18.7656 L207.9219,18.7656 Z " fill="#000000"/><text fill="#000000" font-family="sans-serif" font-size="12" font-style="italic" lengthAdjust="spacing" textLength="155" x="226" y="27.1543">RemoteNodeOptions&lt;S&gt;</text><!--MD5=[411d7f88f33caf745db55b3bf86da2ee]
reverse link SourceNodeOptions to RemoteSourceNodeOptions<S>--><path codeLine="8" d="M117.2,52.58 C134.83,67.97 155.85,86.34 170.29,98.96 " fill="none" id="SourceNodeOptions-backto-RemoteSourceNodeOptions&lt;S&gt;" style="stroke:#A80036;stroke-width:1.0;"/><polygon fill="none" points="112.43,57.7,101.97,39.27,121.64,47.16,112.43,57.7" style="stroke:#A80036;stroke-width:1.0;"/><!--MD5=[cf144d6addc3d209166bd37ca2d74a69]
reverse link RemoteNodeOptions<S> to RemoteSourceNodeOptions<S>--><path codeLine="11" d="M257.8,52.58 C240.17,67.97 219.15,86.34 204.71,98.96 " fill="none" id="RemoteNodeOptions&lt;S&gt;-backto-RemoteSourceNodeOptions&lt;S&gt;" style="stroke:#A80036;stroke-width:1.0;"/><polygon fill="none" points="253.36,47.16,273.03,39.27,262.57,57.7,253.36,47.16" style="stroke:#A80036;stroke-width:1.0;"/><!--MD5=[1f8352ffbdab9506c7972185a756b080]
@startuml
skinparam BackgroundColor transparent
hide empty methods
hide empty fields
interface "RemoteSourceNodeOptions<S>" {
}
interface "SourceNodeOptions" {
}
"SourceNodeOptions" <|- - "RemoteSourceNodeOptions<S>"
interface "RemoteNodeOptions<S>" {
}
"RemoteNodeOptions<S>" <|- - "RemoteSourceNodeOptions<S>"
@enduml

PlantUML version 1.2021.14(Fri Nov 12 16:46:50 UTC 2021)
(GPL source distribution)
Java Runtime: OpenJDK Runtime Environment
JVM: OpenJDK 64-Bit Server VM
Default Encoding: UTF-8
Language: en
Country: null
--></g></svg>