<?xml version="1.0" encoding="UTF-8" standalone="no"?><svg xmlns="http://www.w3.org/2000/svg" xmlns:xlink="http://www.w3.org/1999/xlink" contentScriptType="application/ecmascript" contentStyleType="text/css" height="237px" preserveAspectRatio="none" style="width:500px;height:237px;background:#00000000;" version="1.1" viewBox="0 0 500 237" width="500px" zoomAndPan="magnify"><defs><filter height="300%" id="f1oo4wdplnbbn4" width="300%" x="-1" y="-1"><feGaussianBlur result="blurOut" stdDeviation="2.0"/><feColorMatrix in="blurOut" result="blurOut2" type="matrix" values="0 0 0 0 0 0 0 0 0 0 0 0 0 0 0 0 0 0 .4 0"/><feOffset dx="4.0" dy="4.0" in="blurOut2" result="blurOut3"/><feBlend in="SourceGraphic" in2="blurOut3" mode="normal"/></filter></defs><g><!--MD5=[27233f9f0dbea12209f7bde4d6298590]
class RemoteNodeOptions<S>--><rect codeLine="4" fill="#FEFECE" filter="url(#f1oo4wdplnbbn4)" height="32" id="RemoteNodeOptions&lt;S&gt;" style="stroke:#A80036;stroke-width:1.5;" width="187" x="148" y="99"/><ellipse cx="163" cy="115" fill="#B4A7E5" rx="11" ry="11" style="stroke:#A80036;stroke-width:1.0;"/><path d="M158.9219,110.7656 L158.9219,108.6094 L166.3125,108.6094 L166.3125,110.7656 L163.8438,110.7656 L163.8438,118.8438 L166.3125,118.8438 L166.3125,121 L158.9219,121 L158.9219,118.8438 L161.3906,118.8438 L161.3906,110.7656 L158.9219,110.7656 Z " fill="#000000"/><text fill="#000000" font-family="sans-serif" font-size="12" font-style="italic" lengthAdjust="spacing" textLength="155" x="177" y="119.1543">RemoteNodeOptions&lt;S&gt;</text><!--MD5=[680d5112d2c67c3de15744b0ad7e4a6c]
class NodeOptions--><rect codeLine="6" fill="#FEFECE" filter="url(#f1oo4wdplnbbn4)" height="32" id="NodeOptions" style="stroke:#A80036;stroke-width:1.5;" width="111" x="186" y="7"/><ellipse cx="201" cy="23" fill="#B4A7E5" rx="11" ry="11" style="stroke:#A80036;stroke-width:1.0;"/><path d="M196.9219,18.7656 L196.9219,16.6094 L204.3125,16.6094 L204.3125,18.7656 L201.8438,18.7656 L201.8438,26.8438 L204.3125,26.8438 L204.3125,29 L196.9219,29 L196.9219,26.8438 L199.3906,26.8438 L199.3906,18.7656 L196.9219,18.7656 Z " fill="#000000"/><text fill="#000000" font-family="sans-serif" font-size="12" font-style="italic" lengthAdjust="spacing" textLength="79" x="215" y="27.1543">NodeOptions</text><!--MD5=[f265a7252ead12bb689f64c8e31db9a1]
class RemoteSinkNodeOptions<S>--><rect codeLine="9" fill="#FEFECE" filter="url(#f1oo4wdplnbbn4)" height="32" id="RemoteSinkNodeOptions&lt;S&gt;" style="stroke:#A80036;stroke-width:1.5;" width="213" x="7" y="191"/><ellipse cx="22" cy="207" fill="#B4A7E5" rx="11" ry="11" style="stroke:#A80036;stroke-width:1.0;"/><path d="M17.9219,202.7656 L17.9219,200.6094 L25.3125,200.6094 L25.3125,202.7656 L22.8438,202.7656 L22.8438,210.8438 L25.3125,210.8438 L25.3125,213 L17.9219,213 L17.9219,210.8438 L20.3906,210.8438 L20.3906,202.7656 L17.9219,202.7656 Z " fill="#000000"/><text fill="#000000" font-family="sans-serif" font-size="12" font-style="italic" lengthAdjust="spacing" textLength="181" x="36" y="211.1543">RemoteSinkNodeOptions&lt;S&gt;</text><!--MD5=[040509c58f318c54feb998aa1e2c84bb]
class RemoteSourceNodeOptions<S>--><rect codeLine="12" fill="#FEFECE" filter="url(#f1oo4wdplnbbn4)" height="32" id="RemoteSourceNodeOptions&lt;S&gt;" style="stroke:#A80036;stroke-width:1.5;" width="231" x="255" y="191"/><ellipse cx="270" cy="207" fill="#B4A7E5" rx="11" ry="11" style="stroke:#A80036;stroke-width:1.0;"/><path d="M265.9219,202.7656 L265.9219,200.6094 L273.3125,200.6094 L273.3125,202.7656 L270.8438,202.7656 L270.8438,210.8438 L273.3125,210.8438 L273.3125,213 L265.9219,213 L265.9219,210.8438 L268.3906,210.8438 L268.3906,202.7656 L265.9219,202.7656 Z " fill="#000000"/><text fill="#000000" font-family="sans-serif" font-size="12" font-style="italic" lengthAdjust="spacing" textLength="199" x="284" y="211.1543">RemoteSourceNodeOptions&lt;S&gt;</text><!--MD5=[004460c898643e7d72b774807f5c1a44]
reverse link NodeOptions to RemoteNodeOptions<S>--><path codeLine="8" d="M241.5,59.61 C241.5,73.31 241.5,88.22 241.5,98.96 " fill="none" id="NodeOptions-backto-RemoteNodeOptions&lt;S&gt;" style="stroke:#A80036;stroke-width:1.0;"/><polygon fill="none" points="234.5,59.27,241.5,39.27,248.5,59.27,234.5,59.27" style="stroke:#A80036;stroke-width:1.0;"/><!--MD5=[4beb1e0374de0ce57d3ba192be8fcceb]
reverse link RemoteNodeOptions<S> to RemoteSinkNodeOptions<S>--><path codeLine="11" d="M203.5,142.72 C181.13,158.45 153.66,177.76 134.99,190.89 " fill="none" id="RemoteNodeOptions&lt;S&gt;-backto-RemoteSinkNodeOptions&lt;S&gt;" style="stroke:#A80036;stroke-width:1.0;"/><polygon fill="none" points="199.69,136.84,220.08,131.06,207.74,148.29,199.69,136.84" style="stroke:#A80036;stroke-width:1.0;"/><!--MD5=[cf144d6addc3d209166bd37ca2d74a69]
reverse link RemoteNodeOptions<S> to RemoteSourceNodeOptions<S>--><path codeLine="14" d="M279.8,142.72 C302.34,158.45 330.03,177.76 348.84,190.89 " fill="none" id="RemoteNodeOptions&lt;S&gt;-backto-RemoteSourceNodeOptions&lt;S&gt;" style="stroke:#A80036;stroke-width:1.0;"/><polygon fill="none" points="275.49,148.25,263.09,131.06,283.5,136.77,275.49,148.25" style="stroke:#A80036;stroke-width:1.0;"/><!--MD5=[389c0f106b9c24f7ffdb2e5b69682f5c]
@startuml
skinparam BackgroundColor transparent
hide empty methods
hide empty fields
interface "RemoteNodeOptions<S>" {
}
interface "NodeOptions" {
}
"NodeOptions" <|- - "RemoteNodeOptions<S>"
interface "RemoteSinkNodeOptions<S>" {
}
"RemoteNodeOptions<S>" <|- - "RemoteSinkNodeOptions<S>"
interface "RemoteSourceNodeOptions<S>" {
}
"RemoteNodeOptions<S>" <|- - "RemoteSourceNodeOptions<S>"
@enduml

PlantUML version 1.2021.14(Fri Nov 12 16:46:50 UTC 2021)
(GPL source distribution)
Java Runtime: OpenJDK Runtime Environment
JVM: OpenJDK 64-Bit Server VM
Default Encoding: UTF-8
Language: en
Country: null
--></g></svg>