<?xml version="1.0" encoding="UTF-8" standalone="no"?><svg xmlns="http://www.w3.org/2000/svg" xmlns:xlink="http://www.w3.org/1999/xlink" contentScriptType="application/ecmascript" contentStyleType="text/css" height="276px" preserveAspectRatio="none" style="width:201px;height:276px;background:#00000000;" version="1.1" viewBox="0 0 201 276" width="201px" zoomAndPan="magnify"><defs><filter height="300%" id="fgdraa1ppme1x" width="300%" x="-1" y="-1"><feGaussianBlur result="blurOut" stdDeviation="2.0"/><feColorMatrix in="blurOut" result="blurOut2" type="matrix" values="0 0 0 0 0 0 0 0 0 0 0 0 0 0 0 0 0 0 .4 0"/><feOffset dx="4.0" dy="4.0" in="blurOut2" result="blurOut3"/><feBlend in="SourceGraphic" in2="blurOut3" mode="normal"/></filter></defs><g><!--MD5=[0509d1b78c14ff094d3e79856fd71368]
class RemotePullOptions--><rect codeLine="4" fill="#FEFECE" filter="url(#fgdraa1ppme1x)" height="104.0234" id="RemotePullOptions" style="stroke:#A80036;stroke-width:1.5;" width="180" x="7" y="158"/><ellipse cx="36.85" cy="174" fill="#B4A7E5" rx="11" ry="11" style="stroke:#A80036;stroke-width:1.0;"/><path d="M32.7719,169.7656 L32.7719,167.6094 L40.1625,167.6094 L40.1625,169.7656 L37.6938,169.7656 L37.6938,177.8438 L40.1625,177.8438 L40.1625,180 L32.7719,180 L32.7719,177.8438 L35.2406,177.8438 L35.2406,169.7656 L32.7719,169.7656 Z " fill="#000000"/><text fill="#000000" font-family="sans-serif" font-size="12" font-style="italic" lengthAdjust="spacing" textLength="115" x="54.15" y="178.1543">RemotePullOptions</text><line style="stroke:#A80036;stroke-width:1.5;" x1="8" x2="186" y1="190" y2="190"/><ellipse cx="18" cy="201" rx="3" ry="3" style="stroke:#038048;stroke-width:1.0;fill:none;"/><text fill="#000000" font-family="sans-serif" font-size="11" lengthAdjust="spacing" textLength="85" x="27" y="204.2104">clientId : string</text><ellipse cx="18" cy="213.8047" rx="3" ry="3" style="stroke:#038048;stroke-width:1.0;fill:none;"/><text fill="#000000" font-family="sans-serif" font-size="11" lengthAdjust="spacing" textLength="87" x="27" y="217.0151">count : number</text><ellipse cx="18" cy="226.6094" rx="3" ry="3" style="stroke:#038048;stroke-width:1.0;fill:none;"/><text fill="#000000" font-family="sans-serif" font-size="11" lengthAdjust="spacing" textLength="154" x="27" y="229.8198">requestedObjects : string[]</text><ellipse cx="18" cy="239.4141" rx="3" ry="3" style="stroke:#038048;stroke-width:1.0;fill:none;"/><text fill="#000000" font-family="sans-serif" font-size="11" lengthAdjust="spacing" textLength="136" x="27" y="242.6245">sequentialPull : boolean</text><ellipse cx="18" cy="252.2188" rx="3" ry="3" style="stroke:#038048;stroke-width:1.0;fill:none;"/><text fill="#000000" font-family="sans-serif" font-size="11" lengthAdjust="spacing" textLength="113" x="27" y="255.4292">sourceNode : string</text><!--MD5=[750a855c05d2b7ad49837f4e65ee2dfb]
class PullOptions--><rect codeLine="11" fill="#FEFECE" filter="url(#fgdraa1ppme1x)" height="91.2188" id="PullOptions" style="stroke:#A80036;stroke-width:1.5;" width="180" x="7" y="7"/><ellipse cx="59.25" cy="23" fill="#B4A7E5" rx="11" ry="11" style="stroke:#A80036;stroke-width:1.0;"/><path d="M55.1719,18.7656 L55.1719,16.6094 L62.5625,16.6094 L62.5625,18.7656 L60.0938,18.7656 L60.0938,26.8438 L62.5625,26.8438 L62.5625,29 L55.1719,29 L55.1719,26.8438 L57.6406,26.8438 L57.6406,18.7656 L55.1719,18.7656 Z " fill="#000000"/><text fill="#000000" font-family="sans-serif" font-size="12" font-style="italic" lengthAdjust="spacing" textLength="67" x="79.75" y="27.1543">PullOptions</text><line style="stroke:#A80036;stroke-width:1.5;" x1="8" x2="186" y1="39" y2="39"/><ellipse cx="18" cy="50" rx="3" ry="3" style="stroke:#038048;stroke-width:1.0;fill:none;"/><text fill="#000000" font-family="sans-serif" font-size="11" lengthAdjust="spacing" textLength="87" x="27" y="53.2104">count : number</text><ellipse cx="18" cy="62.8047" rx="3" ry="3" style="stroke:#038048;stroke-width:1.0;fill:none;"/><text fill="#000000" font-family="sans-serif" font-size="11" lengthAdjust="spacing" textLength="154" x="27" y="66.0151">requestedObjects : string[]</text><ellipse cx="18" cy="75.6094" rx="3" ry="3" style="stroke:#038048;stroke-width:1.0;fill:none;"/><text fill="#000000" font-family="sans-serif" font-size="11" lengthAdjust="spacing" textLength="136" x="27" y="78.8198">sequentialPull : boolean</text><ellipse cx="18" cy="88.4141" rx="3" ry="3" style="stroke:#038048;stroke-width:1.0;fill:none;"/><text fill="#000000" font-family="sans-serif" font-size="11" lengthAdjust="spacing" textLength="113" x="27" y="91.6245">sourceNode : string</text><!--MD5=[079edb1da03ff505b52ce279b210c673]
reverse link PullOptions to RemotePullOptions--><path codeLine="17" d="M97,118.2 C97,131.43 97,145.18 97,157.85 " fill="none" id="PullOptions-backto-RemotePullOptions" style="stroke:#A80036;stroke-width:1.0;"/><polygon fill="none" points="90,118.06,97,98.06,104,118.06,90,118.06" style="stroke:#A80036;stroke-width:1.0;"/><!--MD5=[433e4478c7feb5d94e5998d32a419950]
@startuml
skinparam BackgroundColor transparent
hide empty methods
hide empty fields
interface "RemotePullOptions" {
    +clientId : string
    +count : number
    +requestedObjects : string[]
    +sequentialPull : boolean
    +sourceNode : string
}
interface "PullOptions" {
    +count : number
    +requestedObjects : string[]
    +sequentialPull : boolean
    +sourceNode : string
}
"PullOptions" <|- - "RemotePullOptions"
@enduml

PlantUML version 1.2021.14(Fri Nov 12 16:46:50 UTC 2021)
(GPL source distribution)
Java Runtime: OpenJDK Runtime Environment
JVM: OpenJDK 64-Bit Server VM
Default Encoding: UTF-8
Language: en
Country: null
--></g></svg>