<?xml version="1.0" encoding="us-ascii" standalone="no"?><svg xmlns="http://www.w3.org/2000/svg" xmlns:xlink="http://www.w3.org/1999/xlink" contentStyleType="text/css" height="138px" preserveAspectRatio="none" style="width:187px;height:138px;" version="1.1" viewBox="0 0 187 138" width="187px" zoomAndPan="magnify"><defs/><g><!--class RemotePushOptions--><g id="elem_RemotePushOptions"><rect codeLine="4" fill="#F1F1F1" height="32" id="RemotePushOptions" rx="2.5" ry="2.5" style="stroke:#181818;stroke-width:0.5;" width="173" x="7" y="99"/><ellipse cx="22" cy="115" fill="#B4A7E5" rx="11" ry="11" style="stroke:#181818;stroke-width:1.0;"/><path d="M17.9219,110.7656 L17.9219,108.6094 L25.3125,108.6094 L25.3125,110.7656 L22.8438,110.7656 L22.8438,118.8438 L25.3125,118.8438 L25.3125,121 L17.9219,121 L17.9219,118.8438 L20.3906,118.8438 L20.3906,110.7656 L17.9219,110.7656 Z " fill="#000000"/><text fill="#000000" font-family="sans-serif" font-size="14" font-style="italic" lengthAdjust="spacing" textLength="141" x="36" y="119.8467">RemotePushOptions</text></g><!--class PushOptions--><g id="elem_PushOptions"><rect codeLine="6" fill="#F1F1F1" height="32" id="PushOptions" rx="2.5" ry="2.5" style="stroke:#181818;stroke-width:0.5;" width="118" x="34.5" y="7"/><ellipse cx="49.5" cy="23" fill="#B4A7E5" rx="11" ry="11" style="stroke:#181818;stroke-width:1.0;"/><path d="M45.4219,18.7656 L45.4219,16.6094 L52.8125,16.6094 L52.8125,18.7656 L50.3438,18.7656 L50.3438,26.8438 L52.8125,26.8438 L52.8125,29 L45.4219,29 L45.4219,26.8438 L47.8906,26.8438 L47.8906,18.7656 L45.4219,18.7656 Z " fill="#000000"/><text fill="#000000" font-family="sans-serif" font-size="14" font-style="italic" lengthAdjust="spacing" textLength="86" x="63.5" y="27.8467">PushOptions</text></g><!--reverse link PushOptions to RemotePushOptions--><g id="link_PushOptions_RemotePushOptions"><path codeLine="8" d="M93.5,59.61 C93.5,73.31 93.5,88.22 93.5,98.96 " fill="none" id="PushOptions-backto-RemotePushOptions" style="stroke:#181818;stroke-width:1.0;"/><polygon fill="none" points="86.5,59.27,93.5,39.27,100.5,59.27,86.5,59.27" style="stroke:#181818;stroke-width:1.0;"/></g><!--SRC=[RSon3OD038NXdYaiUZP8bGoGA1jOdE4iEFjacm8HTeUIA6c__-dvn5BHiC0T-saqNIGzT5Q3C1G_4qaqcHC1bHeh58gioQyqCCsdi0JPW3r1-wQYGQ_5yxC6gtWBMxDV5p_jMswVhljtSm00]--></g></svg>