<?xml version="1.0" encoding="us-ascii" standalone="no"?><svg xmlns="http://www.w3.org/2000/svg" xmlns:xlink="http://www.w3.org/1999/xlink" contentStyleType="text/css" height="138px" preserveAspectRatio="none" style="width:412px;height:138px;" version="1.1" viewBox="0 0 412 138" width="412px" zoomAndPan="magnify"><defs/><g><!--class RemoteSinkNodeOptions<S>--><g id="elem_RemoteSinkNodeOptions&lt;S&gt;"><rect codeLine="4" fill="#F1F1F1" height="32" id="RemoteSinkNodeOptions&lt;S&gt;" rx="2.5" ry="2.5" style="stroke:#181818;stroke-width:0.5;" width="240" x="71" y="99"/><ellipse cx="86" cy="115" fill="#B4A7E5" rx="11" ry="11" style="stroke:#181818;stroke-width:1.0;"/><path d="M81.9219,110.7656 L81.9219,108.6094 L89.3125,108.6094 L89.3125,110.7656 L86.8438,110.7656 L86.8438,118.8438 L89.3125,118.8438 L89.3125,121 L81.9219,121 L81.9219,118.8438 L84.3906,118.8438 L84.3906,110.7656 L81.9219,110.7656 Z " fill="#000000"/><text fill="#000000" font-family="sans-serif" font-size="14" font-style="italic" lengthAdjust="spacing" textLength="208" x="100" y="119.8467">RemoteSinkNodeOptions&lt;S&gt;</text></g><!--class SinkNodeOptions--><g id="elem_SinkNodeOptions"><rect codeLine="6" fill="#F1F1F1" height="32" id="SinkNodeOptions" rx="2.5" ry="2.5" style="stroke:#181818;stroke-width:0.5;" width="152" x="7" y="7"/><ellipse cx="22" cy="23" fill="#B4A7E5" rx="11" ry="11" style="stroke:#181818;stroke-width:1.0;"/><path d="M17.9219,18.7656 L17.9219,16.6094 L25.3125,16.6094 L25.3125,18.7656 L22.8438,18.7656 L22.8438,26.8438 L25.3125,26.8438 L25.3125,29 L17.9219,29 L17.9219,26.8438 L20.3906,26.8438 L20.3906,18.7656 L17.9219,18.7656 Z " fill="#000000"/><text fill="#000000" font-family="sans-serif" font-size="14" font-style="italic" lengthAdjust="spacing" textLength="120" x="36" y="27.8467">SinkNodeOptions</text></g><!--class RemoteNodeOptions<S>--><g id="elem_RemoteNodeOptions&lt;S&gt;"><rect codeLine="9" fill="#F1F1F1" height="32" id="RemoteNodeOptions&lt;S&gt;" rx="2.5" ry="2.5" style="stroke:#181818;stroke-width:0.5;" width="211" x="194.5" y="7"/><ellipse cx="209.5" cy="23" fill="#B4A7E5" rx="11" ry="11" style="stroke:#181818;stroke-width:1.0;"/><path d="M205.4219,18.7656 L205.4219,16.6094 L212.8125,16.6094 L212.8125,18.7656 L210.3438,18.7656 L210.3438,26.8438 L212.8125,26.8438 L212.8125,29 L205.4219,29 L205.4219,26.8438 L207.8906,26.8438 L207.8906,18.7656 L205.4219,18.7656 Z " fill="#000000"/><text fill="#000000" font-family="sans-serif" font-size="14" font-style="italic" lengthAdjust="spacing" textLength="179" x="223.5" y="27.8467">RemoteNodeOptions&lt;S&gt;</text></g><!--reverse link SinkNodeOptions to RemoteSinkNodeOptions<S>--><g id="link_SinkNodeOptions_RemoteSinkNodeOptions&lt;S&gt;"><path codeLine="8" d="M116.72,52.1 C135.32,67.6 157.66,86.21 172.95,98.96 " fill="none" id="SinkNodeOptions-backto-RemoteSinkNodeOptions&lt;S&gt;" style="stroke:#181818;stroke-width:1.0;"/><polygon fill="none" points="112.2,57.45,101.32,39.27,121.17,46.69,112.2,57.45" style="stroke:#181818;stroke-width:1.0;"/></g><!--reverse link RemoteNodeOptions<S> to RemoteSinkNodeOptions<S>--><g id="link_RemoteNodeOptions&lt;S&gt;_RemoteSinkNodeOptions&lt;S&gt;"><path codeLine="11" d="M265.96,52.1 C247.2,67.6 224.65,86.21 209.22,98.96 " fill="none" id="RemoteNodeOptions&lt;S&gt;-backto-RemoteSinkNodeOptions&lt;S&gt;" style="stroke:#181818;stroke-width:1.0;"/><polygon fill="none" points="261.63,46.6,281.51,39.27,270.54,57.4,261.63,46.6" style="stroke:#181818;stroke-width:1.0;"/></g><!--SRC=[XOqx3i9030NxdC9Adnj45D23H4vWPHrYRTPUUKs10dSd4ar4-BGpJ_DAPCbec62FVRoONYKST583DvIoA1AlHWu4bBBV896F6ieQ3KpJGbYSRC2Ue3vJKgUE9Hurq2axgvIsszKmLu_ry6toyblQtflcHtLx_UdsY_hJVW80]--></g></svg>