<?xml version="1.0" encoding="UTF-8" standalone="no"?><svg xmlns="http://www.w3.org/2000/svg" xmlns:xlink="http://www.w3.org/1999/xlink" contentScriptType="application/ecmascript" contentStyleType="text/css" height="225px" preserveAspectRatio="none" style="width:208px;height:225px;background:#00000000;" version="1.1" viewBox="0 0 208 225" width="208px" zoomAndPan="magnify"><defs><filter height="300%" id="f32u7uzbbku2j" width="300%" x="-1" y="-1"><feGaussianBlur result="blurOut" stdDeviation="2.0"/><feColorMatrix in="blurOut" result="blurOut2" type="matrix" values="0 0 0 0 0 0 0 0 0 0 0 0 0 0 0 0 0 0 .4 0"/><feOffset dx="4.0" dy="4.0" in="blurOut2" result="blurOut3"/><feBlend in="SourceGraphic" in2="blurOut3" mode="normal"/></filter></defs><g><!--MD5=[27233f9f0dbea12209f7bde4d6298590]
class RemoteNodeOptions<S>--><rect codeLine="4" fill="#FEFECE" filter="url(#f32u7uzbbku2j)" height="78.4141" id="RemoteNodeOptions&lt;S&gt;" style="stroke:#A80036;stroke-width:1.5;" width="187" x="7" y="133"/><ellipse cx="22" cy="149" fill="#B4A7E5" rx="11" ry="11" style="stroke:#A80036;stroke-width:1.0;"/><path d="M17.9219,144.7656 L17.9219,142.6094 L25.3125,142.6094 L25.3125,144.7656 L22.8438,144.7656 L22.8438,152.8438 L25.3125,152.8438 L25.3125,155 L17.9219,155 L17.9219,152.8438 L20.3906,152.8438 L20.3906,144.7656 L17.9219,144.7656 Z " fill="#000000"/><text fill="#000000" font-family="sans-serif" font-size="12" font-style="italic" lengthAdjust="spacing" textLength="155" x="36" y="153.1543">RemoteNodeOptions&lt;S&gt;</text><line style="stroke:#A80036;stroke-width:1.5;" x1="8" x2="193" y1="165" y2="165"/><ellipse cx="18" cy="176" rx="3" ry="3" style="stroke:#038048;stroke-width:1.0;fill:none;"/><text fill="#000000" font-family="sans-serif" font-size="11" lengthAdjust="spacing" textLength="77" x="27" y="179.2104">name : string</text><ellipse cx="18" cy="188.8047" rx="3" ry="3" style="stroke:#038048;stroke-width:1.0;fill:none;"/><text fill="#000000" font-family="sans-serif" font-size="11" lengthAdjust="spacing" textLength="144" x="27" y="192.0151">service : Serializable&lt;S&gt;</text><ellipse cx="18" cy="201.6094" rx="3" ry="3" style="stroke:#038048;stroke-width:1.0;fill:none;"/><text fill="#000000" font-family="sans-serif" font-size="11" lengthAdjust="spacing" textLength="62" x="27" y="204.8198">uid : string</text><!--MD5=[680d5112d2c67c3de15744b0ad7e4a6c]
class NodeOptions--><rect codeLine="9" fill="#FEFECE" filter="url(#f32u7uzbbku2j)" height="65.6094" id="NodeOptions" style="stroke:#A80036;stroke-width:1.5;" width="111" x="45" y="7"/><ellipse cx="60" cy="23" fill="#B4A7E5" rx="11" ry="11" style="stroke:#A80036;stroke-width:1.0;"/><path d="M55.9219,18.7656 L55.9219,16.6094 L63.3125,16.6094 L63.3125,18.7656 L60.8438,18.7656 L60.8438,26.8438 L63.3125,26.8438 L63.3125,29 L55.9219,29 L55.9219,26.8438 L58.3906,26.8438 L58.3906,18.7656 L55.9219,18.7656 Z " fill="#000000"/><text fill="#000000" font-family="sans-serif" font-size="12" font-style="italic" lengthAdjust="spacing" textLength="79" x="74" y="27.1543">NodeOptions</text><line style="stroke:#A80036;stroke-width:1.5;" x1="46" x2="155" y1="39" y2="39"/><ellipse cx="56" cy="50" rx="3" ry="3" style="stroke:#038048;stroke-width:1.0;fill:none;"/><text fill="#000000" font-family="sans-serif" font-size="11" lengthAdjust="spacing" textLength="77" x="65" y="53.2104">name : string</text><ellipse cx="56" cy="62.8047" rx="3" ry="3" style="stroke:#038048;stroke-width:1.0;fill:none;"/><text fill="#000000" font-family="sans-serif" font-size="11" lengthAdjust="spacing" textLength="62" x="65" y="66.0151">uid : string</text><!--MD5=[004460c898643e7d72b774807f5c1a44]
reverse link NodeOptions to RemoteNodeOptions<S>--><path codeLine="13" d="M100.5,93.51 C100.5,106.64 100.5,120.47 100.5,132.76 " fill="none" id="NodeOptions-backto-RemoteNodeOptions&lt;S&gt;" style="stroke:#A80036;stroke-width:1.0;"/><polygon fill="none" points="93.5,93.13,100.5,73.13,107.5,93.13,93.5,93.13" style="stroke:#A80036;stroke-width:1.0;"/><!--MD5=[d34bd48464040d7c38bd504cd94c3dee]
@startuml
skinparam BackgroundColor transparent
hide empty methods
hide empty fields
interface "RemoteNodeOptions<S>" {
    +name : string
    +service : Serializable<S>
    +uid : string
}
interface "NodeOptions" {
    +name : string
    +uid : string
}
"NodeOptions" <|- - "RemoteNodeOptions<S>"
@enduml

PlantUML version 1.2021.14(Fri Nov 12 16:46:50 UTC 2021)
(GPL source distribution)
Java Runtime: OpenJDK Runtime Environment
JVM: OpenJDK 64-Bit Server VM
Default Encoding: UTF-8
Language: en
Country: null
--></g></svg>