<?xml version="1.0" encoding="us-ascii" standalone="no"?><svg xmlns="http://www.w3.org/2000/svg" xmlns:xlink="http://www.w3.org/1999/xlink" contentStyleType="text/css" height="138px" preserveAspectRatio="none" style="width:177px;height:138px;" version="1.1" viewBox="0 0 177 138" width="177px" zoomAndPan="magnify"><defs/><g><!--class RemotePullOptions--><g id="elem_RemotePullOptions"><rect codeLine="4" fill="#F1F1F1" height="32" id="RemotePullOptions" rx="2.5" ry="2.5" style="stroke:#181818;stroke-width:0.5;" width="163" x="7" y="99"/><ellipse cx="22" cy="115" fill="#B4A7E5" rx="11" ry="11" style="stroke:#181818;stroke-width:1.0;"/><path d="M17.9219,110.7656 L17.9219,108.6094 L25.3125,108.6094 L25.3125,110.7656 L22.8438,110.7656 L22.8438,118.8438 L25.3125,118.8438 L25.3125,121 L17.9219,121 L17.9219,118.8438 L20.3906,118.8438 L20.3906,110.7656 L17.9219,110.7656 Z " fill="#000000"/><text fill="#000000" font-family="sans-serif" font-size="14" font-style="italic" lengthAdjust="spacing" textLength="131" x="36" y="119.8467">RemotePullOptions</text></g><!--class PullOptions--><g id="elem_PullOptions"><rect codeLine="6" fill="#F1F1F1" height="32" id="PullOptions" rx="2.5" ry="2.5" style="stroke:#181818;stroke-width:0.5;" width="108" x="34.5" y="7"/><ellipse cx="49.5" cy="23" fill="#B4A7E5" rx="11" ry="11" style="stroke:#181818;stroke-width:1.0;"/><path d="M45.4219,18.7656 L45.4219,16.6094 L52.8125,16.6094 L52.8125,18.7656 L50.3438,18.7656 L50.3438,26.8438 L52.8125,26.8438 L52.8125,29 L45.4219,29 L45.4219,26.8438 L47.8906,26.8438 L47.8906,18.7656 L45.4219,18.7656 Z " fill="#000000"/><text fill="#000000" font-family="sans-serif" font-size="14" font-style="italic" lengthAdjust="spacing" textLength="76" x="63.5" y="27.8467">PullOptions</text></g><!--reverse link PullOptions to RemotePullOptions--><g id="link_PullOptions_RemotePullOptions"><path codeLine="8" d="M88.5,59.61 C88.5,73.31 88.5,88.22 88.5,98.96 " fill="none" id="PullOptions-backto-RemotePullOptions" style="stroke:#181818;stroke-width:1.0;"/><polygon fill="none" points="81.5,59.27,88.5,39.27,95.5,59.27,81.5,59.27" style="stroke:#181818;stroke-width:1.0;"/></g><!--SRC=[RSmn3i9034JHFgUmqkS6L70043UmiXDYPTTUUPq2GUvEoY1etnzDMqGhEnSwyxWyt5PD5ylc5CxQzWIDRfO4Ggdnf8AOBRKZJOAyYsZ09nv1_Ht50hSrvsiDCMqzlRhjkFXftt9w3yE_cmy0]--></g></svg>