<?xml version="1.0" encoding="UTF-8" standalone="no"?><svg xmlns="http://www.w3.org/2000/svg" xmlns:xlink="http://www.w3.org/1999/xlink" contentScriptType="application/ecmascript" contentStyleType="text/css" height="238px" preserveAspectRatio="none" style="width:176px;height:238px;background:#00000000;" version="1.1" viewBox="0 0 176 238" width="176px" zoomAndPan="magnify"><defs><filter height="300%" id="fure00yzwjcau" width="300%" x="-1" y="-1"><feGaussianBlur result="blurOut" stdDeviation="2.0"/><feColorMatrix in="blurOut" result="blurOut2" type="matrix" values="0 0 0 0 0 0 0 0 0 0 0 0 0 0 0 0 0 0 .4 0"/><feOffset dx="4.0" dy="4.0" in="blurOut2" result="blurOut3"/><feBlend in="SourceGraphic" in2="blurOut3" mode="normal"/></filter></defs><g><!--MD5=[c98342dfc31067cfd2c23266f1dc3d08]
class RemotePushOptions--><rect codeLine="4" fill="#FEFECE" filter="url(#fure00yzwjcau)" height="91.2188" id="RemotePushOptions" style="stroke:#A80036;stroke-width:1.5;" width="155" x="7" y="133"/><ellipse cx="22" cy="149" fill="#B4A7E5" rx="11" ry="11" style="stroke:#A80036;stroke-width:1.0;"/><path d="M17.9219,144.7656 L17.9219,142.6094 L25.3125,142.6094 L25.3125,144.7656 L22.8438,144.7656 L22.8438,152.8438 L25.3125,152.8438 L25.3125,155 L17.9219,155 L17.9219,152.8438 L20.3906,152.8438 L20.3906,144.7656 L17.9219,144.7656 Z " fill="#000000"/><text fill="#000000" font-family="sans-serif" font-size="12" font-style="italic" lengthAdjust="spacing" textLength="123" x="36" y="153.1543">RemotePushOptions</text><line style="stroke:#A80036;stroke-width:1.5;" x1="8" x2="161" y1="165" y2="165"/><ellipse cx="18" cy="176" rx="3" ry="3" style="stroke:#038048;stroke-width:1.0;fill:none;"/><text fill="#000000" font-family="sans-serif" font-size="11" lengthAdjust="spacing" textLength="114" x="27" y="179.2104">broadcast : boolean</text><ellipse cx="18" cy="188.8047" rx="3" ry="3" style="stroke:#038048;stroke-width:1.0;fill:none;"/><text fill="#000000" font-family="sans-serif" font-size="11" lengthAdjust="spacing" textLength="85" x="27" y="192.0151">clientId : string</text><ellipse cx="18" cy="201.6094" rx="3" ry="3" style="stroke:#038048;stroke-width:1.0;fill:none;"/><text fill="#000000" font-family="sans-serif" font-size="11" lengthAdjust="spacing" textLength="95" x="27" y="204.8198">lastNode : string</text><ellipse cx="18" cy="214.4141" rx="3" ry="3" style="stroke:#038048;stroke-width:1.0;fill:none;"/><text fill="#000000" font-family="sans-serif" font-size="11" lengthAdjust="spacing" textLength="113" x="27" y="217.6245">sourceNode : string</text><!--MD5=[68925008f9f25f30b3298f61f07e6b3f]
class PushOptions--><rect codeLine="10" fill="#FEFECE" filter="url(#fure00yzwjcau)" height="65.6094" id="PushOptions" style="stroke:#A80036;stroke-width:1.5;" width="139" x="15" y="7"/><ellipse cx="44.4" cy="23" fill="#B4A7E5" rx="11" ry="11" style="stroke:#A80036;stroke-width:1.0;"/><path d="M40.3219,18.7656 L40.3219,16.6094 L47.7125,16.6094 L47.7125,18.7656 L45.2438,18.7656 L45.2438,26.8438 L47.7125,26.8438 L47.7125,29 L40.3219,29 L40.3219,26.8438 L42.7906,26.8438 L42.7906,18.7656 L40.3219,18.7656 Z " fill="#000000"/><text fill="#000000" font-family="sans-serif" font-size="12" font-style="italic" lengthAdjust="spacing" textLength="75" x="61.6" y="27.1543">PushOptions</text><line style="stroke:#A80036;stroke-width:1.5;" x1="16" x2="153" y1="39" y2="39"/><ellipse cx="26" cy="50" rx="3" ry="3" style="stroke:#038048;stroke-width:1.0;fill:none;"/><text fill="#000000" font-family="sans-serif" font-size="11" lengthAdjust="spacing" textLength="95" x="35" y="53.2104">lastNode : string</text><ellipse cx="26" cy="62.8047" rx="3" ry="3" style="stroke:#038048;stroke-width:1.0;fill:none;"/><text fill="#000000" font-family="sans-serif" font-size="11" lengthAdjust="spacing" textLength="113" x="35" y="66.0151">sourceNode : string</text><!--MD5=[d01d8e813d59bb2932feae620efe9dc1]
reverse link PushOptions to RemotePushOptions--><path codeLine="14" d="M84.5,93.18 C84.5,106.23 84.5,120.12 84.5,132.78 " fill="none" id="PushOptions-backto-RemotePushOptions" style="stroke:#A80036;stroke-width:1.0;"/><polygon fill="none" points="77.5,93,84.5,73,91.5,93,77.5,93" style="stroke:#A80036;stroke-width:1.0;"/><!--MD5=[ce8fdefa6867b00d9e1baa6fb3af17fe]
@startuml
skinparam BackgroundColor transparent
hide empty methods
hide empty fields
interface "RemotePushOptions" {
    +broadcast : boolean
    +clientId : string
    +lastNode : string
    +sourceNode : string
}
interface "PushOptions" {
    +lastNode : string
    +sourceNode : string
}
"PushOptions" <|- - "RemotePushOptions"
@enduml

PlantUML version 1.2021.14(Fri Nov 12 16:46:50 UTC 2021)
(GPL source distribution)
Java Runtime: OpenJDK Runtime Environment
JVM: OpenJDK 64-Bit Server VM
Default Encoding: UTF-8
Language: en
Country: null
--></g></svg>