<?xml version="1.0" encoding="us-ascii" standalone="no"?><svg xmlns="http://www.w3.org/2000/svg" xmlns:xlink="http://www.w3.org/1999/xlink" contentStyleType="text/css" height="138px" preserveAspectRatio="none" style="width:152px;height:138px;" version="1.1" viewBox="0 0 152 138" width="152px" zoomAndPan="magnify"><defs/><g><!--class RemoteService--><g id="elem_RemoteService"><rect codeLine="4" fill="#F1F1F1" height="32" id="RemoteService" rx="2.5" ry="2.5" style="stroke:#181818;stroke-width:0.5;" width="138" x="7" y="99"/><ellipse cx="22" cy="115" fill="#A9DCDF" rx="11" ry="11" style="stroke:#181818;stroke-width:1.0;"/><path d="M22.1094,110.3438 L20.9531,115.4219 L23.2813,115.4219 L22.1094,110.3438 Z M20.625,108.1094 L23.6094,108.1094 L26.9688,120.5 L24.5156,120.5 L23.75,117.4375 L20.4688,117.4375 L19.7188,120.5 L17.2813,120.5 L20.625,108.1094 Z " fill="#000000"/><text fill="#000000" font-family="sans-serif" font-size="14" font-style="italic" lengthAdjust="spacing" textLength="106" x="36" y="119.8467">RemoteService</text></g><!--class Service--><g id="elem_Service"><rect codeLine="6" fill="#F1F1F1" height="32" id="Service" rx="2.5" ry="2.5" style="stroke:#181818;stroke-width:0.5;" width="83" x="34.5" y="7"/><ellipse cx="49.5" cy="23" fill="#A9DCDF" rx="11" ry="11" style="stroke:#181818;stroke-width:1.0;"/><path d="M49.6094,18.3438 L48.4531,23.4219 L50.7813,23.4219 L49.6094,18.3438 Z M48.125,16.1094 L51.1094,16.1094 L54.4688,28.5 L52.0156,28.5 L51.25,25.4375 L47.9688,25.4375 L47.2188,28.5 L44.7813,28.5 L48.125,16.1094 Z " fill="#000000"/><text fill="#000000" font-family="sans-serif" font-size="14" font-style="italic" lengthAdjust="spacing" textLength="51" x="63.5" y="27.8467">Service</text></g><!--reverse link Service to RemoteService--><g id="link_Service_RemoteService"><path codeLine="8" d="M76,59.61 C76,73.31 76,88.22 76,98.96 " fill="none" id="Service-backto-RemoteService" style="stroke:#181818;stroke-width:1.0;"/><polygon fill="none" points="69,59.27,76,39.27,83,59.27,69,59.27" style="stroke:#181818;stroke-width:1.0;"/></g><!--SRC=[POjB3i8m30NtFONLVM_GLRa1FO597ZHg4bUsGKB0tScEJvTlvesjgMwiN6ZYi5vKhZKU98kIArTh2jMx9KKGokPtAl15edsZSq9kX4_Mck0KCfjHVqGHnmozfO2U7jrhT_cHdpK-X-6_VmC0]--></g></svg>