<?xml version="1.0" encoding="UTF-8" standalone="no"?><svg xmlns="http://www.w3.org/2000/svg" xmlns:xlink="http://www.w3.org/1999/xlink" contentScriptType="application/ecmascript" contentStyleType="text/css" height="145px" preserveAspectRatio="none" style="width:248px;height:145px;background:#00000000;" version="1.1" viewBox="0 0 248 145" width="248px" zoomAndPan="magnify"><defs><filter height="300%" id="f19f8ot4ynuqt" width="300%" x="-1" y="-1"><feGaussianBlur result="blurOut" stdDeviation="2.0"/><feColorMatrix in="blurOut" result="blurOut2" type="matrix" values="0 0 0 0 0 0 0 0 0 0 0 0 0 0 0 0 0 0 .4 0"/><feOffset dx="4.0" dy="4.0" in="blurOut2" result="blurOut3"/><feBlend in="SourceGraphic" in2="blurOut3" mode="normal"/></filter></defs><g><!--MD5=[406dfdf2cf133d0f013ce87171229572]
class RemoteServiceProxy<T, S>--><rect codeLine="4" fill="#FEFECE" filter="url(#f19f8ot4ynuqt)" height="32" id="RemoteServiceProxy&lt;T, S&gt;" style="stroke:#A80036;stroke-width:1.5;" width="201" x="10" y="99"/><ellipse cx="25" cy="115" fill="#ADD1B2" rx="11" ry="11" style="stroke:#A80036;stroke-width:1.0;"/><path d="M27.9688,120.6406 Q27.3906,120.9375 26.75,121.0781 Q26.1094,121.2344 25.4063,121.2344 Q22.9063,121.2344 21.5781,119.5938 Q20.2656,117.9375 20.2656,114.8125 Q20.2656,111.6875 21.5781,110.0313 Q22.9063,108.375 25.4063,108.375 Q26.1094,108.375 26.75,108.5313 Q27.4063,108.6875 27.9688,108.9844 L27.9688,111.7031 Q27.3438,111.125 26.75,110.8594 Q26.1563,110.5781 25.5313,110.5781 Q24.1875,110.5781 23.5,111.6563 Q22.8125,112.7188 22.8125,114.8125 Q22.8125,116.9063 23.5,117.9844 Q24.1875,119.0469 25.5313,119.0469 Q26.1563,119.0469 26.75,118.7813 Q27.3438,118.5 27.9688,117.9219 L27.9688,120.6406 Z " fill="#000000"/><text fill="#000000" font-family="sans-serif" font-size="12" lengthAdjust="spacing" textLength="169" x="39" y="119.1543">RemoteServiceProxy&lt;T, S&gt;</text><!--MD5=[dbb8b4f13c7b21394f9d757e58732f45]
class Service--><rect codeLine="6" fill="#FEFECE" filter="url(#f19f8ot4ynuqt)" height="32" id="Service" style="stroke:#A80036;stroke-width:1.5;" width="77" x="7" y="7"/><ellipse cx="22" cy="23" fill="#A9DCDF" rx="11" ry="11" style="stroke:#A80036;stroke-width:1.0;"/><path d="M22.1094,18.3438 L20.9531,23.4219 L23.2813,23.4219 L22.1094,18.3438 Z M20.625,16.1094 L23.6094,16.1094 L26.9688,28.5 L24.5156,28.5 L23.75,25.4375 L20.4688,25.4375 L19.7188,28.5 L17.2813,28.5 L20.625,16.1094 Z " fill="#000000"/><text fill="#000000" font-family="sans-serif" font-size="12" font-style="italic" lengthAdjust="spacing" textLength="45" x="36" y="27.1543">Service</text><!--MD5=[3991d1b48cf9ebb9c02225999c5e668a]
class ProxyHandler<T>--><rect codeLine="9" fill="#FEFECE" filter="url(#f19f8ot4ynuqt)" height="23.9688" id="ProxyHandler&lt;T&gt;" style="stroke:#A80036;stroke-width:1.5;" width="115" x="119" y="11"/><text fill="#000000" font-family="sans-serif" font-size="12" lengthAdjust="spacing" textLength="109" x="122" y="27.1387">ProxyHandler&lt;T&gt;</text><!--MD5=[53c969134ea1bf79cb2298623678ad49]
reverse link Service to RemoteServiceProxy<T, S>--><path codeLine="8" d="M68.39,55.69 C79.01,70.4 91.13,87.18 99.64,98.96 " fill="none" id="Service-backto-RemoteServiceProxy&lt;T, S&gt;" style="stroke:#A80036;stroke-width:1.0;"/><polygon fill="none" points="62.56,59.58,56.53,39.27,73.91,51.38,62.56,59.58" style="stroke:#A80036;stroke-width:1.0;"/><!--MD5=[6e1fe8cbf0e374031f836b5ea189c8ef]
reverse link ProxyHandler<T> to RemoteServiceProxy<T, S>--><path codeLine="11" d="M156.49,51.28 C145.01,66.94 131.03,86 121.52,98.97 " fill="none" id="ProxyHandler&lt;T&gt;-backto-RemoteServiceProxy&lt;T, S&gt;" style="stroke:#A80036;stroke-width:1.0;stroke-dasharray:7.0,7.0;"/><polygon fill="none" points="150.93,47.02,168.41,35.04,162.22,55.3,150.93,47.02" style="stroke:#A80036;stroke-width:1.0;"/><!--MD5=[469236709d54322154a0f7a1e435678c]
@startuml
skinparam BackgroundColor transparent
hide empty methods
hide empty fields
class "RemoteServiceProxy<T, S>" {
}
abstract class "Service" {
}
"Service" <|- - "RemoteServiceProxy<T, S>"
class "ProxyHandler<T>"
hide "ProxyHandler<T>" circle
"ProxyHandler<T>" <|.. "RemoteServiceProxy<T, S>"
@enduml

PlantUML version 1.2021.14(Fri Nov 12 16:46:50 UTC 2021)
(GPL source distribution)
Java Runtime: OpenJDK Runtime Environment
JVM: OpenJDK 64-Bit Server VM
Default Encoding: UTF-8
Language: en
Country: null
--></g></svg>