<?xml version="1.0" encoding="UTF-8" standalone="no"?><svg xmlns="http://www.w3.org/2000/svg" xmlns:xlink="http://www.w3.org/1999/xlink" contentScriptType="application/ecmascript" contentStyleType="text/css" height="145px" preserveAspectRatio="none" style="width:146px;height:145px;background:#00000000;" version="1.1" viewBox="0 0 146 145" width="146px" zoomAndPan="magnify"><defs><filter height="300%" id="f11s6kwjnroxsi" width="300%" x="-1" y="-1"><feGaussianBlur result="blurOut" stdDeviation="2.0"/><feColorMatrix in="blurOut" result="blurOut2" type="matrix" values="0 0 0 0 0 0 0 0 0 0 0 0 0 0 0 0 0 0 .4 0"/><feOffset dx="4.0" dy="4.0" in="blurOut2" result="blurOut3"/><feBlend in="SourceGraphic" in2="blurOut3" mode="normal"/></filter></defs><g><!--MD5=[62890ff050762761d092c9c7651a4a3f]
class RemoteService--><rect codeLine="4" fill="#FEFECE" filter="url(#f11s6kwjnroxsi)" height="32" id="RemoteService" style="stroke:#A80036;stroke-width:1.5;" width="125" x="7" y="99"/><ellipse cx="22" cy="115" fill="#A9DCDF" rx="11" ry="11" style="stroke:#A80036;stroke-width:1.0;"/><path d="M22.1094,110.3438 L20.9531,115.4219 L23.2813,115.4219 L22.1094,110.3438 Z M20.625,108.1094 L23.6094,108.1094 L26.9688,120.5 L24.5156,120.5 L23.75,117.4375 L20.4688,117.4375 L19.7188,120.5 L17.2813,120.5 L20.625,108.1094 Z " fill="#000000"/><text fill="#000000" font-family="sans-serif" font-size="12" font-style="italic" lengthAdjust="spacing" textLength="93" x="36" y="119.1543">RemoteService</text><!--MD5=[dbb8b4f13c7b21394f9d757e58732f45]
class Service--><rect codeLine="6" fill="#FEFECE" filter="url(#f11s6kwjnroxsi)" height="32" id="Service" style="stroke:#A80036;stroke-width:1.5;" width="77" x="31" y="7"/><ellipse cx="46" cy="23" fill="#A9DCDF" rx="11" ry="11" style="stroke:#A80036;stroke-width:1.0;"/><path d="M46.1094,18.3438 L44.9531,23.4219 L47.2813,23.4219 L46.1094,18.3438 Z M44.625,16.1094 L47.6094,16.1094 L50.9688,28.5 L48.5156,28.5 L47.75,25.4375 L44.4688,25.4375 L43.7188,28.5 L41.2813,28.5 L44.625,16.1094 Z " fill="#000000"/><text fill="#000000" font-family="sans-serif" font-size="12" font-style="italic" lengthAdjust="spacing" textLength="45" x="60" y="27.1543">Service</text><!--MD5=[b005a5d4c00480fdd794241a22d1deee]
reverse link Service to RemoteService--><path codeLine="8" d="M69.5,59.61 C69.5,73.31 69.5,88.22 69.5,98.96 " fill="none" id="Service-backto-RemoteService" style="stroke:#A80036;stroke-width:1.0;"/><polygon fill="none" points="62.5,59.27,69.5,39.27,76.5,59.27,62.5,59.27" style="stroke:#A80036;stroke-width:1.0;"/><!--MD5=[aa137bb5e061f4f6d8a3656f865c9a16]
@startuml
skinparam BackgroundColor transparent
hide empty methods
hide empty fields
abstract class "RemoteService" {
}
abstract class "Service" {
}
"Service" <|- - "RemoteService"
@enduml

PlantUML version 1.2021.14(Fri Nov 12 16:46:50 UTC 2021)
(GPL source distribution)
Java Runtime: OpenJDK Runtime Environment
JVM: OpenJDK 64-Bit Server VM
Default Encoding: UTF-8
Language: en
Country: null
--></g></svg>