<?xml version="1.0" encoding="UTF-8" standalone="no"?><svg xmlns="http://www.w3.org/2000/svg" xmlns:xlink="http://www.w3.org/1999/xlink" contentScriptType="application/ecmascript" contentStyleType="text/css" height="145px" preserveAspectRatio="none" style="width:168px;height:145px;background:#00000000;" version="1.1" viewBox="0 0 168 145" width="168px" zoomAndPan="magnify"><defs><filter height="300%" id="fyk24h9rt6ntq" width="300%" x="-1" y="-1"><feGaussianBlur result="blurOut" stdDeviation="2.0"/><feColorMatrix in="blurOut" result="blurOut2" type="matrix" values="0 0 0 0 0 0 0 0 0 0 0 0 0 0 0 0 0 0 .4 0"/><feOffset dx="4.0" dy="4.0" in="blurOut2" result="blurOut3"/><feBlend in="SourceGraphic" in2="blurOut3" mode="normal"/></filter></defs><g><!--MD5=[0509d1b78c14ff094d3e79856fd71368]
class RemotePullOptions--><rect codeLine="4" fill="#FEFECE" filter="url(#fyk24h9rt6ntq)" height="32" id="RemotePullOptions" style="stroke:#A80036;stroke-width:1.5;" width="147" x="7" y="99"/><ellipse cx="22" cy="115" fill="#B4A7E5" rx="11" ry="11" style="stroke:#A80036;stroke-width:1.0;"/><path d="M17.9219,110.7656 L17.9219,108.6094 L25.3125,108.6094 L25.3125,110.7656 L22.8438,110.7656 L22.8438,118.8438 L25.3125,118.8438 L25.3125,121 L17.9219,121 L17.9219,118.8438 L20.3906,118.8438 L20.3906,110.7656 L17.9219,110.7656 Z " fill="#000000"/><text fill="#000000" font-family="sans-serif" font-size="12" font-style="italic" lengthAdjust="spacing" textLength="115" x="36" y="119.1543">RemotePullOptions</text><!--MD5=[750a855c05d2b7ad49837f4e65ee2dfb]
class PullOptions--><rect codeLine="6" fill="#FEFECE" filter="url(#fyk24h9rt6ntq)" height="32" id="PullOptions" style="stroke:#A80036;stroke-width:1.5;" width="99" x="31" y="7"/><ellipse cx="46" cy="23" fill="#B4A7E5" rx="11" ry="11" style="stroke:#A80036;stroke-width:1.0;"/><path d="M41.9219,18.7656 L41.9219,16.6094 L49.3125,16.6094 L49.3125,18.7656 L46.8438,18.7656 L46.8438,26.8438 L49.3125,26.8438 L49.3125,29 L41.9219,29 L41.9219,26.8438 L44.3906,26.8438 L44.3906,18.7656 L41.9219,18.7656 Z " fill="#000000"/><text fill="#000000" font-family="sans-serif" font-size="12" font-style="italic" lengthAdjust="spacing" textLength="67" x="60" y="27.1543">PullOptions</text><!--MD5=[079edb1da03ff505b52ce279b210c673]
reverse link PullOptions to RemotePullOptions--><path codeLine="8" d="M80.5,59.61 C80.5,73.31 80.5,88.22 80.5,98.96 " fill="none" id="PullOptions-backto-RemotePullOptions" style="stroke:#A80036;stroke-width:1.0;"/><polygon fill="none" points="73.5,59.27,80.5,39.27,87.5,59.27,73.5,59.27" style="stroke:#A80036;stroke-width:1.0;"/><!--MD5=[4e22ca6710157e6d318bb8b7a4ef8f86]
@startuml
skinparam BackgroundColor transparent
hide empty methods
hide empty fields
interface "RemotePullOptions" {
}
interface "PullOptions" {
}
"PullOptions" <|- - "RemotePullOptions"
@enduml

PlantUML version 1.2021.14(Fri Nov 12 16:46:50 UTC 2021)
(GPL source distribution)
Java Runtime: OpenJDK Runtime Environment
JVM: OpenJDK 64-Bit Server VM
Default Encoding: UTF-8
Language: en
Country: null
--></g></svg>