<?xml version="1.0" encoding="UTF-8" standalone="no"?><svg xmlns="http://www.w3.org/2000/svg" xmlns:xlink="http://www.w3.org/1999/xlink" contentScriptType="application/ecmascript" contentStyleType="text/css" height="145px" preserveAspectRatio="none" style="width:176px;height:145px;background:#00000000;" version="1.1" viewBox="0 0 176 145" width="176px" zoomAndPan="magnify"><defs><filter height="300%" id="fb0autddznvrs" width="300%" x="-1" y="-1"><feGaussianBlur result="blurOut" stdDeviation="2.0"/><feColorMatrix in="blurOut" result="blurOut2" type="matrix" values="0 0 0 0 0 0 0 0 0 0 0 0 0 0 0 0 0 0 .4 0"/><feOffset dx="4.0" dy="4.0" in="blurOut2" result="blurOut3"/><feBlend in="SourceGraphic" in2="blurOut3" mode="normal"/></filter></defs><g><!--MD5=[c98342dfc31067cfd2c23266f1dc3d08]
class RemotePushOptions--><rect codeLine="4" fill="#FEFECE" filter="url(#fb0autddznvrs)" height="32" id="RemotePushOptions" style="stroke:#A80036;stroke-width:1.5;" width="155" x="7" y="99"/><ellipse cx="22" cy="115" fill="#B4A7E5" rx="11" ry="11" style="stroke:#A80036;stroke-width:1.0;"/><path d="M17.9219,110.7656 L17.9219,108.6094 L25.3125,108.6094 L25.3125,110.7656 L22.8438,110.7656 L22.8438,118.8438 L25.3125,118.8438 L25.3125,121 L17.9219,121 L17.9219,118.8438 L20.3906,118.8438 L20.3906,110.7656 L17.9219,110.7656 Z " fill="#000000"/><text fill="#000000" font-family="sans-serif" font-size="12" font-style="italic" lengthAdjust="spacing" textLength="123" x="36" y="119.1543">RemotePushOptions</text><!--MD5=[68925008f9f25f30b3298f61f07e6b3f]
class PushOptions--><rect codeLine="6" fill="#FEFECE" filter="url(#fb0autddznvrs)" height="32" id="PushOptions" style="stroke:#A80036;stroke-width:1.5;" width="107" x="31" y="7"/><ellipse cx="46" cy="23" fill="#B4A7E5" rx="11" ry="11" style="stroke:#A80036;stroke-width:1.0;"/><path d="M41.9219,18.7656 L41.9219,16.6094 L49.3125,16.6094 L49.3125,18.7656 L46.8438,18.7656 L46.8438,26.8438 L49.3125,26.8438 L49.3125,29 L41.9219,29 L41.9219,26.8438 L44.3906,26.8438 L44.3906,18.7656 L41.9219,18.7656 Z " fill="#000000"/><text fill="#000000" font-family="sans-serif" font-size="12" font-style="italic" lengthAdjust="spacing" textLength="75" x="60" y="27.1543">PushOptions</text><!--MD5=[d01d8e813d59bb2932feae620efe9dc1]
reverse link PushOptions to RemotePushOptions--><path codeLine="8" d="M84.5,59.61 C84.5,73.31 84.5,88.22 84.5,98.96 " fill="none" id="PushOptions-backto-RemotePushOptions" style="stroke:#A80036;stroke-width:1.0;"/><polygon fill="none" points="77.5,59.27,84.5,39.27,91.5,59.27,77.5,59.27" style="stroke:#A80036;stroke-width:1.0;"/><!--MD5=[dc1b49123fa2d73cd59cd622f333be21]
@startuml
skinparam BackgroundColor transparent
hide empty methods
hide empty fields
interface "RemotePushOptions" {
}
interface "PushOptions" {
}
"PushOptions" <|- - "RemotePushOptions"
@enduml

PlantUML version 1.2021.14(Fri Nov 12 16:46:50 UTC 2021)
(GPL source distribution)
Java Runtime: OpenJDK Runtime Environment
JVM: OpenJDK 64-Bit Server VM
Default Encoding: UTF-8
Language: en
Country: null
--></g></svg>