<?xml version="1.0" encoding="UTF-8" standalone="no"?><svg xmlns="http://www.w3.org/2000/svg" xmlns:xlink="http://www.w3.org/1999/xlink" contentScriptType="application/ecmascript" contentStyleType="text/css" height="145px" preserveAspectRatio="none" style="width:208px;height:145px;background:#00000000;" version="1.1" viewBox="0 0 208 145" width="208px" zoomAndPan="magnify"><defs><filter height="300%" id="f1rwwojj1bwuuo" width="300%" x="-1" y="-1"><feGaussianBlur result="blurOut" stdDeviation="2.0"/><feColorMatrix in="blurOut" result="blurOut2" type="matrix" values="0 0 0 0 0 0 0 0 0 0 0 0 0 0 0 0 0 0 .4 0"/><feOffset dx="4.0" dy="4.0" in="blurOut2" result="blurOut3"/><feBlend in="SourceGraphic" in2="blurOut3" mode="normal"/></filter></defs><g><!--MD5=[27233f9f0dbea12209f7bde4d6298590]
class RemoteNodeOptions<S>--><rect codeLine="4" fill="#FEFECE" filter="url(#f1rwwojj1bwuuo)" height="32" id="RemoteNodeOptions&lt;S&gt;" style="stroke:#A80036;stroke-width:1.5;" width="187" x="7" y="99"/><ellipse cx="22" cy="115" fill="#B4A7E5" rx="11" ry="11" style="stroke:#A80036;stroke-width:1.0;"/><path d="M17.9219,110.7656 L17.9219,108.6094 L25.3125,108.6094 L25.3125,110.7656 L22.8438,110.7656 L22.8438,118.8438 L25.3125,118.8438 L25.3125,121 L17.9219,121 L17.9219,118.8438 L20.3906,118.8438 L20.3906,110.7656 L17.9219,110.7656 Z " fill="#000000"/><text fill="#000000" font-family="sans-serif" font-size="12" font-style="italic" lengthAdjust="spacing" textLength="155" x="36" y="119.1543">RemoteNodeOptions&lt;S&gt;</text><!--MD5=[680d5112d2c67c3de15744b0ad7e4a6c]
class NodeOptions--><rect codeLine="6" fill="#FEFECE" filter="url(#f1rwwojj1bwuuo)" height="32" id="NodeOptions" style="stroke:#A80036;stroke-width:1.5;" width="111" x="45" y="7"/><ellipse cx="60" cy="23" fill="#B4A7E5" rx="11" ry="11" style="stroke:#A80036;stroke-width:1.0;"/><path d="M55.9219,18.7656 L55.9219,16.6094 L63.3125,16.6094 L63.3125,18.7656 L60.8438,18.7656 L60.8438,26.8438 L63.3125,26.8438 L63.3125,29 L55.9219,29 L55.9219,26.8438 L58.3906,26.8438 L58.3906,18.7656 L55.9219,18.7656 Z " fill="#000000"/><text fill="#000000" font-family="sans-serif" font-size="12" font-style="italic" lengthAdjust="spacing" textLength="79" x="74" y="27.1543">NodeOptions</text><!--MD5=[004460c898643e7d72b774807f5c1a44]
reverse link NodeOptions to RemoteNodeOptions<S>--><path codeLine="8" d="M100.5,59.61 C100.5,73.31 100.5,88.22 100.5,98.96 " fill="none" id="NodeOptions-backto-RemoteNodeOptions&lt;S&gt;" style="stroke:#A80036;stroke-width:1.0;"/><polygon fill="none" points="93.5,59.27,100.5,39.27,107.5,59.27,93.5,59.27" style="stroke:#A80036;stroke-width:1.0;"/><!--MD5=[60fedcf6cc7d58730a911772d663f444]
@startuml
skinparam BackgroundColor transparent
hide empty methods
hide empty fields
interface "RemoteNodeOptions<S>" {
}
interface "NodeOptions" {
}
"NodeOptions" <|- - "RemoteNodeOptions<S>"
@enduml

PlantUML version 1.2021.14(Fri Nov 12 16:46:50 UTC 2021)
(GPL source distribution)
Java Runtime: OpenJDK Runtime Environment
JVM: OpenJDK 64-Bit Server VM
Default Encoding: UTF-8
Language: en
Country: null
--></g></svg>