<?xml version="1.0" encoding="us-ascii" standalone="no"?><svg xmlns="http://www.w3.org/2000/svg" xmlns:xlink="http://www.w3.org/1999/xlink" contentStyleType="text/css" height="138px" preserveAspectRatio="none" style="width:196px;height:138px;" version="1.1" viewBox="0 0 196 138" width="196px" zoomAndPan="magnify"><defs/><g><!--class SensorSourceOptions--><g id="elem_SensorSourceOptions"><rect codeLine="4" fill="#F1F1F1" height="32" id="SensorSourceOptions" rx="2.5" ry="2.5" style="stroke:#181818;stroke-width:0.5;" width="182" x="7" y="99"/><ellipse cx="22" cy="115" fill="#B4A7E5" rx="11" ry="11" style="stroke:#181818;stroke-width:1.0;"/><path d="M17.9219,110.7656 L17.9219,108.6094 L25.3125,108.6094 L25.3125,110.7656 L22.8438,110.7656 L22.8438,118.8438 L25.3125,118.8438 L25.3125,121 L17.9219,121 L17.9219,118.8438 L20.3906,118.8438 L20.3906,110.7656 L17.9219,110.7656 Z " fill="#000000"/><text fill="#000000" font-family="sans-serif" font-size="14" font-style="italic" lengthAdjust="spacing" textLength="150" x="36" y="119.8467">SensorSourceOptions</text></g><!--class ActiveSourceOptions--><g id="elem_ActiveSourceOptions"><rect codeLine="6" fill="#F1F1F1" height="32" id="ActiveSourceOptions" rx="2.5" ry="2.5" style="stroke:#181818;stroke-width:0.5;" width="177" x="9.5" y="7"/><ellipse cx="24.5" cy="23" fill="#B4A7E5" rx="11" ry="11" style="stroke:#181818;stroke-width:1.0;"/><path d="M20.4219,18.7656 L20.4219,16.6094 L27.8125,16.6094 L27.8125,18.7656 L25.3438,18.7656 L25.3438,26.8438 L27.8125,26.8438 L27.8125,29 L20.4219,29 L20.4219,26.8438 L22.8906,26.8438 L22.8906,18.7656 L20.4219,18.7656 Z " fill="#000000"/><text fill="#000000" font-family="sans-serif" font-size="14" font-style="italic" lengthAdjust="spacing" textLength="145" x="38.5" y="27.8467">ActiveSourceOptions</text></g><!--reverse link ActiveSourceOptions to SensorSourceOptions--><g id="link_ActiveSourceOptions_SensorSourceOptions"><path codeLine="8" d="M98,59.61 C98,73.31 98,88.22 98,98.96 " fill="none" id="ActiveSourceOptions-backto-SensorSourceOptions" style="stroke:#181818;stroke-width:1.0;"/><polygon fill="none" points="91,59.27,98,39.27,105,59.27,91,59.27" style="stroke:#181818;stroke-width:1.0;"/></g><!--SRC=[ROon3OD0301xfh3esO26P80KJ63zcs31so_RH8gIx1vAYc_lJkSRIqN30ZTCszFqa7pNNGt2KFnK9D6jd0cer7X3eLWr-nKjJFj9M89imKJGpoIkDkjXYHurMCLx-7I_QpEbu1SrchOPlyFG7ly1]--></g></svg>