<?xml version="1.0" encoding="UTF-8" standalone="no"?><svg xmlns="http://www.w3.org/2000/svg" xmlns:xlink="http://www.w3.org/1999/xlink" contentScriptType="application/ecmascript" contentStyleType="text/css" height="455px" preserveAspectRatio="none" style="width:490px;height:455px;background:#00000000;" version="1.1" viewBox="0 0 490 455" width="490px" zoomAndPan="magnify"><defs><filter height="300%" id="f18xzf5lfwkuz7" width="300%" x="-1" y="-1"><feGaussianBlur result="blurOut" stdDeviation="2.0"/><feColorMatrix in="blurOut" result="blurOut2" type="matrix" values="0 0 0 0 0 0 0 0 0 0 0 0 0 0 0 0 0 0 .4 0"/><feOffset dx="4.0" dy="4.0" in="blurOut2" result="blurOut3"/><feBlend in="SourceGraphic" in2="blurOut3" mode="normal"/></filter></defs><g><!--MD5=[4c6b4977910d63c28ef674b7c2693397]
class SensorValue<U>--><rect codeLine="5" fill="#FEFECE" filter="url(#f18xzf5lfwkuz7)" height="32" id="SensorValue&lt;U&gt;" style="stroke:#A80036;stroke-width:1.5;" width="140" x="148" y="208"/><ellipse cx="163" cy="224" fill="#ADD1B2" rx="11" ry="11" style="stroke:#A80036;stroke-width:1.0;"/><path d="M165.9688,229.6406 Q165.3906,229.9375 164.75,230.0781 Q164.1094,230.2344 163.4063,230.2344 Q160.9063,230.2344 159.5781,228.5938 Q158.2656,226.9375 158.2656,223.8125 Q158.2656,220.6875 159.5781,219.0313 Q160.9063,217.375 163.4063,217.375 Q164.1094,217.375 164.75,217.5313 Q165.4063,217.6875 165.9688,217.9844 L165.9688,220.7031 Q165.3438,220.125 164.75,219.8594 Q164.1563,219.5781 163.5313,219.5781 Q162.1875,219.5781 161.5,220.6563 Q160.8125,221.7188 160.8125,223.8125 Q160.8125,225.9063 161.5,226.9844 Q162.1875,228.0469 163.5313,228.0469 Q164.1563,228.0469 164.75,227.7813 Q165.3438,227.5 165.9688,226.9219 L165.9688,229.6406 Z " fill="#000000"/><text fill="#000000" font-family="sans-serif" font-size="12" lengthAdjust="spacing" textLength="108" x="177" y="228.1543">SensorValue&lt;U&gt;</text><!--MD5=[65d619c042c23702cef2ca07d67b1cf6]
class Vector3--><rect codeLine="7" fill="#FEFECE" filter="url(#f18xzf5lfwkuz7)" height="32" id="Vector3" style="stroke:#A80036;stroke-width:1.5;" width="81" x="7" y="208"/><ellipse cx="22" cy="224" fill="#ADD1B2" rx="11" ry="11" style="stroke:#A80036;stroke-width:1.0;"/><path d="M24.9688,229.6406 Q24.3906,229.9375 23.75,230.0781 Q23.1094,230.2344 22.4063,230.2344 Q19.9063,230.2344 18.5781,228.5938 Q17.2656,226.9375 17.2656,223.8125 Q17.2656,220.6875 18.5781,219.0313 Q19.9063,217.375 22.4063,217.375 Q23.1094,217.375 23.75,217.5313 Q24.4063,217.6875 24.9688,217.9844 L24.9688,220.7031 Q24.3438,220.125 23.75,219.8594 Q23.1563,219.5781 22.5313,219.5781 Q21.1875,219.5781 20.5,220.6563 Q19.8125,221.7188 19.8125,223.8125 Q19.8125,225.9063 20.5,226.9844 Q21.1875,228.0469 22.5313,228.0469 Q23.1563,228.0469 23.75,227.7813 Q24.3438,227.5 24.9688,226.9219 L24.9688,229.6406 Z " fill="#000000"/><text fill="#000000" font-family="sans-serif" font-size="12" lengthAdjust="spacing" textLength="49" x="36" y="228.1543">Vector3</text><!--MD5=[d6c64b1f0b9a0da25bf9cd9e67310d9c]
class AngularVelocity--><rect codeLine="10" fill="#FEFECE" filter="url(#f18xzf5lfwkuz7)" height="32" id="AngularVelocity" style="stroke:#A80036;stroke-width:1.5;" width="128" x="348" y="7"/><ellipse cx="363" cy="23" fill="#ADD1B2" rx="11" ry="11" style="stroke:#A80036;stroke-width:1.0;"/><path d="M365.9688,28.6406 Q365.3906,28.9375 364.75,29.0781 Q364.1094,29.2344 363.4063,29.2344 Q360.9063,29.2344 359.5781,27.5938 Q358.2656,25.9375 358.2656,22.8125 Q358.2656,19.6875 359.5781,18.0313 Q360.9063,16.375 363.4063,16.375 Q364.1094,16.375 364.75,16.5313 Q365.4063,16.6875 365.9688,16.9844 L365.9688,19.7031 Q365.3438,19.125 364.75,18.8594 Q364.1563,18.5781 363.5313,18.5781 Q362.1875,18.5781 361.5,19.6563 Q360.8125,20.7188 360.8125,22.8125 Q360.8125,24.9063 361.5,25.9844 Q362.1875,27.0469 363.5313,27.0469 Q364.1563,27.0469 364.75,26.7813 Q365.3438,26.5 365.9688,25.9219 L365.9688,28.6406 Z " fill="#000000"/><text fill="#000000" font-family="sans-serif" font-size="12" lengthAdjust="spacing" textLength="96" x="377" y="27.1543">AngularVelocity</text><!--MD5=[b0a72cb6f9d8786c30247a2c6c4812ec]
class LinearVelocity--><rect codeLine="13" fill="#FEFECE" filter="url(#f18xzf5lfwkuz7)" height="32" id="LinearVelocity" style="stroke:#A80036;stroke-width:1.5;" width="118" x="353" y="74"/><ellipse cx="368" cy="90" fill="#ADD1B2" rx="11" ry="11" style="stroke:#A80036;stroke-width:1.0;"/><path d="M370.9688,95.6406 Q370.3906,95.9375 369.75,96.0781 Q369.1094,96.2344 368.4063,96.2344 Q365.9063,96.2344 364.5781,94.5938 Q363.2656,92.9375 363.2656,89.8125 Q363.2656,86.6875 364.5781,85.0313 Q365.9063,83.375 368.4063,83.375 Q369.1094,83.375 369.75,83.5313 Q370.4063,83.6875 370.9688,83.9844 L370.9688,86.7031 Q370.3438,86.125 369.75,85.8594 Q369.1563,85.5781 368.5313,85.5781 Q367.1875,85.5781 366.5,86.6563 Q365.8125,87.7188 365.8125,89.8125 Q365.8125,91.9063 366.5,92.9844 Q367.1875,94.0469 368.5313,94.0469 Q369.1563,94.0469 369.75,93.7813 Q370.3438,93.5 370.9688,92.9219 L370.9688,95.6406 Z " fill="#000000"/><text fill="#000000" font-family="sans-serif" font-size="12" lengthAdjust="spacing" textLength="86" x="382" y="94.1543">LinearVelocity</text><!--MD5=[bc39a93972ee56a020d0ede45fbe8c90]
class Acceleration--><rect codeLine="16" fill="#FEFECE" filter="url(#f18xzf5lfwkuz7)" height="32" id="Acceleration" style="stroke:#A80036;stroke-width:1.5;" width="110" x="357" y="141"/><ellipse cx="372" cy="157" fill="#ADD1B2" rx="11" ry="11" style="stroke:#A80036;stroke-width:1.0;"/><path d="M374.9688,162.6406 Q374.3906,162.9375 373.75,163.0781 Q373.1094,163.2344 372.4063,163.2344 Q369.9063,163.2344 368.5781,161.5938 Q367.2656,159.9375 367.2656,156.8125 Q367.2656,153.6875 368.5781,152.0313 Q369.9063,150.375 372.4063,150.375 Q373.1094,150.375 373.75,150.5313 Q374.4063,150.6875 374.9688,150.9844 L374.9688,153.7031 Q374.3438,153.125 373.75,152.8594 Q373.1563,152.5781 372.5313,152.5781 Q371.1875,152.5781 370.5,153.6563 Q369.8125,154.7188 369.8125,156.8125 Q369.8125,158.9063 370.5,159.9844 Q371.1875,161.0469 372.5313,161.0469 Q373.1563,161.0469 373.75,160.7813 Q374.3438,160.5 374.9688,159.9219 L374.9688,162.6406 Z " fill="#000000"/><text fill="#000000" font-family="sans-serif" font-size="12" lengthAdjust="spacing" textLength="78" x="386" y="161.1543">Acceleration</text><!--MD5=[f02933025c3ec2d278bf7cd3bbb510c9]
class Magnetism--><rect codeLine="19" fill="#FEFECE" filter="url(#f18xzf5lfwkuz7)" height="32" id="Magnetism" style="stroke:#A80036;stroke-width:1.5;" width="100" x="362" y="208"/><ellipse cx="377" cy="224" fill="#ADD1B2" rx="11" ry="11" style="stroke:#A80036;stroke-width:1.0;"/><path d="M379.9688,229.6406 Q379.3906,229.9375 378.75,230.0781 Q378.1094,230.2344 377.4063,230.2344 Q374.9063,230.2344 373.5781,228.5938 Q372.2656,226.9375 372.2656,223.8125 Q372.2656,220.6875 373.5781,219.0313 Q374.9063,217.375 377.4063,217.375 Q378.1094,217.375 378.75,217.5313 Q379.4063,217.6875 379.9688,217.9844 L379.9688,220.7031 Q379.3438,220.125 378.75,219.8594 Q378.1563,219.5781 377.5313,219.5781 Q376.1875,219.5781 375.5,220.6563 Q374.8125,221.7188 374.8125,223.8125 Q374.8125,225.9063 375.5,226.9844 Q376.1875,228.0469 377.5313,228.0469 Q378.1563,228.0469 378.75,227.7813 Q379.3438,227.5 379.9688,226.9219 L379.9688,229.6406 Z " fill="#000000"/><text fill="#000000" font-family="sans-serif" font-size="12" lengthAdjust="spacing" textLength="68" x="391" y="228.1543">Magnetism</text><!--MD5=[3c2cbbee24bda6f963becc0a442377df]
class Temperature--><rect codeLine="22" fill="#FEFECE" filter="url(#f18xzf5lfwkuz7)" height="32" id="Temperature" style="stroke:#A80036;stroke-width:1.5;" width="113" x="355.5" y="275"/><ellipse cx="370.5" cy="291" fill="#ADD1B2" rx="11" ry="11" style="stroke:#A80036;stroke-width:1.0;"/><path d="M373.4688,296.6406 Q372.8906,296.9375 372.25,297.0781 Q371.6094,297.2344 370.9063,297.2344 Q368.4063,297.2344 367.0781,295.5938 Q365.7656,293.9375 365.7656,290.8125 Q365.7656,287.6875 367.0781,286.0313 Q368.4063,284.375 370.9063,284.375 Q371.6094,284.375 372.25,284.5313 Q372.9063,284.6875 373.4688,284.9844 L373.4688,287.7031 Q372.8438,287.125 372.25,286.8594 Q371.6563,286.5781 371.0313,286.5781 Q369.6875,286.5781 369,287.6563 Q368.3125,288.7188 368.3125,290.8125 Q368.3125,292.9063 369,293.9844 Q369.6875,295.0469 371.0313,295.0469 Q371.6563,295.0469 372.25,294.7813 Q372.8438,294.5 373.4688,293.9219 L373.4688,296.6406 Z " fill="#000000"/><text fill="#000000" font-family="sans-serif" font-size="12" lengthAdjust="spacing" textLength="81" x="384.5" y="295.1543">Temperature</text><!--MD5=[1ad99a7a567e6a4f8e1b7cd137b6c72a]
class Humidity--><rect codeLine="25" fill="#FEFECE" filter="url(#f18xzf5lfwkuz7)" height="32" id="Humidity" style="stroke:#A80036;stroke-width:1.5;" width="85" x="369.5" y="342"/><ellipse cx="384.5" cy="358" fill="#ADD1B2" rx="11" ry="11" style="stroke:#A80036;stroke-width:1.0;"/><path d="M387.4688,363.6406 Q386.8906,363.9375 386.25,364.0781 Q385.6094,364.2344 384.9063,364.2344 Q382.4063,364.2344 381.0781,362.5938 Q379.7656,360.9375 379.7656,357.8125 Q379.7656,354.6875 381.0781,353.0313 Q382.4063,351.375 384.9063,351.375 Q385.6094,351.375 386.25,351.5313 Q386.9063,351.6875 387.4688,351.9844 L387.4688,354.7031 Q386.8438,354.125 386.25,353.8594 Q385.6563,353.5781 385.0313,353.5781 Q383.6875,353.5781 383,354.6563 Q382.3125,355.7188 382.3125,357.8125 Q382.3125,359.9063 383,360.9844 Q383.6875,362.0469 385.0313,362.0469 Q385.6563,362.0469 386.25,361.7813 Q386.8438,361.5 387.4688,360.9219 L387.4688,363.6406 Z " fill="#000000"/><text fill="#000000" font-family="sans-serif" font-size="12" lengthAdjust="spacing" textLength="53" x="398.5" y="362.1543">Humidity</text><!--MD5=[3d8084c486044b16cd1ef3d96c28010c]
class Pressure--><rect codeLine="28" fill="#FEFECE" filter="url(#f18xzf5lfwkuz7)" height="32" id="Pressure" style="stroke:#A80036;stroke-width:1.5;" width="88" x="368" y="409"/><ellipse cx="383" cy="425" fill="#ADD1B2" rx="11" ry="11" style="stroke:#A80036;stroke-width:1.0;"/><path d="M385.9688,430.6406 Q385.3906,430.9375 384.75,431.0781 Q384.1094,431.2344 383.4063,431.2344 Q380.9063,431.2344 379.5781,429.5938 Q378.2656,427.9375 378.2656,424.8125 Q378.2656,421.6875 379.5781,420.0313 Q380.9063,418.375 383.4063,418.375 Q384.1094,418.375 384.75,418.5313 Q385.4063,418.6875 385.9688,418.9844 L385.9688,421.7031 Q385.3438,421.125 384.75,420.8594 Q384.1563,420.5781 383.5313,420.5781 Q382.1875,420.5781 381.5,421.6563 Q380.8125,422.7188 380.8125,424.8125 Q380.8125,426.9063 381.5,427.9844 Q382.1875,429.0469 383.5313,429.0469 Q384.1563,429.0469 384.75,428.7813 Q385.3438,428.5 385.9688,427.9219 L385.9688,430.6406 Z " fill="#000000"/><text fill="#000000" font-family="sans-serif" font-size="12" lengthAdjust="spacing" textLength="56" x="397" y="429.1543">Pressure</text><!--MD5=[1cafbe24978ea8390c218e1f9c355cf1]
reverse link Vector3 to SensorValue<U>--><path codeLine="9" d="M108.42,224 C121.14,224 134.68,224 147.71,224 " fill="none" id="Vector3-backto-SensorValue&lt;U&gt;" style="stroke:#A80036;stroke-width:1.0;"/><polygon fill="none" points="108.01,231,88.01,224,108.01,217,108.01,231" style="stroke:#A80036;stroke-width:1.0;"/><!--MD5=[5885aa7f98b8b97e7cb531b41cc7c1d7]
reverse link SensorValue<U> to AngularVelocity--><path codeLine="12" d="M238.59,190.41 C261.25,153.76 301.48,95.12 348,56 C355.65,49.56 364.77,43.9 373.66,39.16 " fill="none" id="SensorValue&lt;U&gt;-backto-AngularVelocity" style="stroke:#A80036;stroke-width:1.0;"/><polygon fill="none" points="244.44,194.26,228.13,207.79,232.44,187.04,244.44,194.26" style="stroke:#A80036;stroke-width:1.0;"/><!--MD5=[483fae7d46a158f579edcbe30a852bdb]
reverse link SensorValue<U> to LinearVelocity--><path codeLine="15" d="M252.75,194.81 C278.06,173.61 314.06,144.92 348,123 C357.34,116.97 367.89,111.1 377.66,106.03 " fill="none" id="SensorValue&lt;U&gt;-backto-LinearVelocity" style="stroke:#A80036;stroke-width:1.0;"/><polygon fill="none" points="257.21,200.21,237.43,207.81,248.15,189.53,257.21,200.21" style="stroke:#A80036;stroke-width:1.0;"/><!--MD5=[d66b1f55b9e7e14e10e2589d4f2acfa7]
reverse link SensorValue<U> to Acceleration--><path codeLine="18" d="M284.04,201.3 C310.65,192.02 340.81,181.49 365.05,173.03 " fill="none" id="SensorValue&lt;U&gt;-backto-Acceleration" style="stroke:#A80036;stroke-width:1.0;"/><polygon fill="none" points="286.18,207.97,264.99,207.95,281.57,194.75,286.18,207.97" style="stroke:#A80036;stroke-width:1.0;"/><!--MD5=[246e51c37c66b11bba7435235febf294]
reverse link SensorValue<U> to Magnetism--><path codeLine="21" d="M308.19,224 C326.64,224 345.43,224 361.81,224 " fill="none" id="SensorValue&lt;U&gt;-backto-Magnetism" style="stroke:#A80036;stroke-width:1.0;"/><polygon fill="none" points="308.05,231,288.05,224,308.05,217,308.05,231" style="stroke:#A80036;stroke-width:1.0;"/><!--MD5=[35c56c313d7b793aeca1f68fd448d02d]
reverse link SensorValue<U> to Temperature--><path codeLine="24" d="M284.04,246.7 C310.65,255.98 340.81,266.51 365.05,274.97 " fill="none" id="SensorValue&lt;U&gt;-backto-Temperature" style="stroke:#A80036;stroke-width:1.0;"/><polygon fill="none" points="281.57,253.25,264.99,240.05,286.18,240.03,281.57,253.25" style="stroke:#A80036;stroke-width:1.0;"/><!--MD5=[9c6e00fe38e835cfafbe02cff5ef3c4c]
reverse link SensorValue<U> to Humidity--><path codeLine="27" d="M252.75,253.19 C278.06,274.39 314.06,303.08 348,325 C357.34,331.03 367.89,336.9 377.66,341.97 " fill="none" id="SensorValue&lt;U&gt;-backto-Humidity" style="stroke:#A80036;stroke-width:1.0;"/><polygon fill="none" points="248.15,258.47,237.43,240.19,257.21,247.79,248.15,258.47" style="stroke:#A80036;stroke-width:1.0;"/><!--MD5=[4a7113191e57884116893403825a6091]
reverse link SensorValue<U> to Pressure--><path codeLine="30" d="M238.59,257.59 C261.25,294.24 301.48,352.88 348,392 C355.65,398.44 364.77,404.1 373.66,408.84 " fill="none" id="SensorValue&lt;U&gt;-backto-Pressure" style="stroke:#A80036;stroke-width:1.0;"/><polygon fill="none" points="232.44,260.96,228.13,240.21,244.44,253.74,232.44,260.96" style="stroke:#A80036;stroke-width:1.0;"/><!--MD5=[b73f1b2f30732b9617ca77f953ff2399]
@startuml
skinparam BackgroundColor transparent
left to right direction
hide empty methods
hide empty fields
class "SensorValue<U>" {
}
class "Vector3" {
}
"Vector3" <|- - "SensorValue<U>"
class "AngularVelocity" {
}
"SensorValue<U>" <|- - "AngularVelocity"
class "LinearVelocity" {
}
"SensorValue<U>" <|- - "LinearVelocity"
class "Acceleration" {
}
"SensorValue<U>" <|- - "Acceleration"
class "Magnetism" {
}
"SensorValue<U>" <|- - "Magnetism"
class "Temperature" {
}
"SensorValue<U>" <|- - "Temperature"
class "Humidity" {
}
"SensorValue<U>" <|- - "Humidity"
class "Pressure" {
}
"SensorValue<U>" <|- - "Pressure"
@enduml

PlantUML version 1.2021.14(Fri Nov 12 16:46:50 UTC 2021)
(GPL source distribution)
Java Runtime: OpenJDK Runtime Environment
JVM: OpenJDK 64-Bit Server VM
Default Encoding: UTF-8
Language: en
Country: null
--></g></svg>