<?xml version="1.0" encoding="UTF-8" standalone="no"?><svg xmlns="http://www.w3.org/2000/svg" xmlns:xlink="http://www.w3.org/1999/xlink" contentScriptType="application/ecmascript" contentStyleType="text/css" height="455px" preserveAspectRatio="none" style="width:585px;height:455px;background:#00000000;" version="1.1" viewBox="0 0 585 455" width="585px" zoomAndPan="magnify"><defs><filter height="300%" id="f4urr73cit2p8" width="300%" x="-1" y="-1"><feGaussianBlur result="blurOut" stdDeviation="2.0"/><feColorMatrix in="blurOut" result="blurOut2" type="matrix" values="0 0 0 0 0 0 0 0 0 0 0 0 0 0 0 0 0 0 .4 0"/><feOffset dx="4.0" dy="4.0" in="blurOut2" result="blurOut3"/><feBlend in="SourceGraphic" in2="blurOut3" mode="normal"/></filter></defs><g><!--MD5=[b4f7243b673e853dd2d37d05080fbff5]
class SensorObject<T>--><rect codeLine="5" fill="#FEFECE" filter="url(#f4urr73cit2p8)" height="32" id="SensorObject&lt;T&gt;" style="stroke:#A80036;stroke-width:1.5;" width="141" x="169" y="208"/><ellipse cx="184" cy="224" fill="#A9DCDF" rx="11" ry="11" style="stroke:#A80036;stroke-width:1.0;"/><path d="M184.1094,219.3438 L182.9531,224.4219 L185.2813,224.4219 L184.1094,219.3438 Z M182.625,217.1094 L185.6094,217.1094 L188.9688,229.5 L186.5156,229.5 L185.75,226.4375 L182.4688,226.4375 L181.7188,229.5 L179.2813,229.5 L182.625,217.1094 Z " fill="#000000"/><text fill="#000000" font-family="sans-serif" font-size="12" font-style="italic" lengthAdjust="spacing" textLength="109" x="198" y="228.1543">SensorObject&lt;T&gt;</text><!--MD5=[b714e43f0cea490da1ab103313ecf250]
class DataObject--><rect codeLine="7" fill="#FEFECE" filter="url(#f4urr73cit2p8)" height="32" id="DataObject" style="stroke:#A80036;stroke-width:1.5;" width="102" x="7" y="208"/><ellipse cx="22" cy="224" fill="#ADD1B2" rx="11" ry="11" style="stroke:#A80036;stroke-width:1.0;"/><path d="M24.9688,229.6406 Q24.3906,229.9375 23.75,230.0781 Q23.1094,230.2344 22.4063,230.2344 Q19.9063,230.2344 18.5781,228.5938 Q17.2656,226.9375 17.2656,223.8125 Q17.2656,220.6875 18.5781,219.0313 Q19.9063,217.375 22.4063,217.375 Q23.1094,217.375 23.75,217.5313 Q24.4063,217.6875 24.9688,217.9844 L24.9688,220.7031 Q24.3438,220.125 23.75,219.8594 Q23.1563,219.5781 22.5313,219.5781 Q21.1875,219.5781 20.5,220.6563 Q19.8125,221.7188 19.8125,223.8125 Q19.8125,225.9063 20.5,226.9844 Q21.1875,228.0469 22.5313,228.0469 Q23.1563,228.0469 23.75,227.7813 Q24.3438,227.5 24.9688,226.9219 L24.9688,229.6406 Z " fill="#000000"/><text fill="#000000" font-family="sans-serif" font-size="12" lengthAdjust="spacing" textLength="70" x="36" y="228.1543">DataObject</text><!--MD5=[0ba84e53bd729611031e81c41ad2f1e8]
class Accelerometer--><rect codeLine="10" fill="#FEFECE" filter="url(#f4urr73cit2p8)" height="32" id="Accelerometer" style="stroke:#A80036;stroke-width:1.5;" width="123" x="409" y="7"/><ellipse cx="424" cy="23" fill="#ADD1B2" rx="11" ry="11" style="stroke:#A80036;stroke-width:1.0;"/><path d="M426.9688,28.6406 Q426.3906,28.9375 425.75,29.0781 Q425.1094,29.2344 424.4063,29.2344 Q421.9063,29.2344 420.5781,27.5938 Q419.2656,25.9375 419.2656,22.8125 Q419.2656,19.6875 420.5781,18.0313 Q421.9063,16.375 424.4063,16.375 Q425.1094,16.375 425.75,16.5313 Q426.4063,16.6875 426.9688,16.9844 L426.9688,19.7031 Q426.3438,19.125 425.75,18.8594 Q425.1563,18.5781 424.5313,18.5781 Q423.1875,18.5781 422.5,19.6563 Q421.8125,20.7188 421.8125,22.8125 Q421.8125,24.9063 422.5,25.9844 Q423.1875,27.0469 424.5313,27.0469 Q425.1563,27.0469 425.75,26.7813 Q426.3438,26.5 426.9688,25.9219 L426.9688,28.6406 Z " fill="#000000"/><text fill="#000000" font-family="sans-serif" font-size="12" lengthAdjust="spacing" textLength="91" x="438" y="27.1543">Accelerometer</text><!--MD5=[906aa53345b0d6bbb96d7fdc2337c0c0]
class GravitySensor--><rect codeLine="13" fill="#FEFECE" filter="url(#f4urr73cit2p8)" height="32" id="GravitySensor" style="stroke:#A80036;stroke-width:1.5;" width="118" x="411.5" y="74"/><ellipse cx="426.5" cy="90" fill="#ADD1B2" rx="11" ry="11" style="stroke:#A80036;stroke-width:1.0;"/><path d="M429.4688,95.6406 Q428.8906,95.9375 428.25,96.0781 Q427.6094,96.2344 426.9063,96.2344 Q424.4063,96.2344 423.0781,94.5938 Q421.7656,92.9375 421.7656,89.8125 Q421.7656,86.6875 423.0781,85.0313 Q424.4063,83.375 426.9063,83.375 Q427.6094,83.375 428.25,83.5313 Q428.9063,83.6875 429.4688,83.9844 L429.4688,86.7031 Q428.8438,86.125 428.25,85.8594 Q427.6563,85.5781 427.0313,85.5781 Q425.6875,85.5781 425,86.6563 Q424.3125,87.7188 424.3125,89.8125 Q424.3125,91.9063 425,92.9844 Q425.6875,94.0469 427.0313,94.0469 Q427.6563,94.0469 428.25,93.7813 Q428.8438,93.5 429.4688,92.9219 L429.4688,95.6406 Z " fill="#000000"/><text fill="#000000" font-family="sans-serif" font-size="12" lengthAdjust="spacing" textLength="86" x="440.5" y="94.1543">GravitySensor</text><!--MD5=[8eaa6a8ee8c6873283bef640c9b86333]
class Gyroscope--><rect codeLine="16" fill="#FEFECE" filter="url(#f4urr73cit2p8)" height="32" id="Gyroscope" style="stroke:#A80036;stroke-width:1.5;" width="98" x="421.5" y="141"/><ellipse cx="436.5" cy="157" fill="#ADD1B2" rx="11" ry="11" style="stroke:#A80036;stroke-width:1.0;"/><path d="M439.4688,162.6406 Q438.8906,162.9375 438.25,163.0781 Q437.6094,163.2344 436.9063,163.2344 Q434.4063,163.2344 433.0781,161.5938 Q431.7656,159.9375 431.7656,156.8125 Q431.7656,153.6875 433.0781,152.0313 Q434.4063,150.375 436.9063,150.375 Q437.6094,150.375 438.25,150.5313 Q438.9063,150.6875 439.4688,150.9844 L439.4688,153.7031 Q438.8438,153.125 438.25,152.8594 Q437.6563,152.5781 437.0313,152.5781 Q435.6875,152.5781 435,153.6563 Q434.3125,154.7188 434.3125,156.8125 Q434.3125,158.9063 435,159.9844 Q435.6875,161.0469 437.0313,161.0469 Q437.6563,161.0469 438.25,160.7813 Q438.8438,160.5 439.4688,159.9219 L439.4688,162.6406 Z " fill="#000000"/><text fill="#000000" font-family="sans-serif" font-size="12" lengthAdjust="spacing" textLength="66" x="450.5" y="161.1543">Gyroscope</text><!--MD5=[cb717750e6e9c1f23e1b17c7a2f007dd]
class LinearAccelerationSensor--><rect codeLine="19" fill="#FEFECE" filter="url(#f4urr73cit2p8)" height="32" id="LinearAccelerationSensor" style="stroke:#A80036;stroke-width:1.5;" width="192" x="374.5" y="208"/><ellipse cx="389.5" cy="224" fill="#ADD1B2" rx="11" ry="11" style="stroke:#A80036;stroke-width:1.0;"/><path d="M392.4688,229.6406 Q391.8906,229.9375 391.25,230.0781 Q390.6094,230.2344 389.9063,230.2344 Q387.4063,230.2344 386.0781,228.5938 Q384.7656,226.9375 384.7656,223.8125 Q384.7656,220.6875 386.0781,219.0313 Q387.4063,217.375 389.9063,217.375 Q390.6094,217.375 391.25,217.5313 Q391.9063,217.6875 392.4688,217.9844 L392.4688,220.7031 Q391.8438,220.125 391.25,219.8594 Q390.6563,219.5781 390.0313,219.5781 Q388.6875,219.5781 388,220.6563 Q387.3125,221.7188 387.3125,223.8125 Q387.3125,225.9063 388,226.9844 Q388.6875,228.0469 390.0313,228.0469 Q390.6563,228.0469 391.25,227.7813 Q391.8438,227.5 392.4688,226.9219 L392.4688,229.6406 Z " fill="#000000"/><text fill="#000000" font-family="sans-serif" font-size="12" lengthAdjust="spacing" textLength="160" x="403.5" y="228.1543">LinearAccelerationSensor</text><!--MD5=[8d3e4484c622d7bcec2d07bd590eb8cc]
class AbsoluteOrientationSensor--><rect codeLine="22" fill="#FEFECE" filter="url(#f4urr73cit2p8)" height="32" id="AbsoluteOrientationSensor" style="stroke:#A80036;stroke-width:1.5;" width="201" x="370" y="275"/><ellipse cx="385" cy="291" fill="#ADD1B2" rx="11" ry="11" style="stroke:#A80036;stroke-width:1.0;"/><path d="M387.9688,296.6406 Q387.3906,296.9375 386.75,297.0781 Q386.1094,297.2344 385.4063,297.2344 Q382.9063,297.2344 381.5781,295.5938 Q380.2656,293.9375 380.2656,290.8125 Q380.2656,287.6875 381.5781,286.0313 Q382.9063,284.375 385.4063,284.375 Q386.1094,284.375 386.75,284.5313 Q387.4063,284.6875 387.9688,284.9844 L387.9688,287.7031 Q387.3438,287.125 386.75,286.8594 Q386.1563,286.5781 385.5313,286.5781 Q384.1875,286.5781 383.5,287.6563 Q382.8125,288.7188 382.8125,290.8125 Q382.8125,292.9063 383.5,293.9844 Q384.1875,295.0469 385.5313,295.0469 Q386.1563,295.0469 386.75,294.7813 Q387.3438,294.5 387.9688,293.9219 L387.9688,296.6406 Z " fill="#000000"/><text fill="#000000" font-family="sans-serif" font-size="12" lengthAdjust="spacing" textLength="169" x="399" y="295.1543">AbsoluteOrientationSensor</text><!--MD5=[3be2cebf2cd873a13207c6652c88861b]
class RelativeOrientationSensor--><rect codeLine="25" fill="#FEFECE" filter="url(#f4urr73cit2p8)" height="32" id="RelativeOrientationSensor" style="stroke:#A80036;stroke-width:1.5;" width="195" x="373" y="342"/><ellipse cx="388" cy="358" fill="#ADD1B2" rx="11" ry="11" style="stroke:#A80036;stroke-width:1.0;"/><path d="M390.9688,363.6406 Q390.3906,363.9375 389.75,364.0781 Q389.1094,364.2344 388.4063,364.2344 Q385.9063,364.2344 384.5781,362.5938 Q383.2656,360.9375 383.2656,357.8125 Q383.2656,354.6875 384.5781,353.0313 Q385.9063,351.375 388.4063,351.375 Q389.1094,351.375 389.75,351.5313 Q390.4063,351.6875 390.9688,351.9844 L390.9688,354.7031 Q390.3438,354.125 389.75,353.8594 Q389.1563,353.5781 388.5313,353.5781 Q387.1875,353.5781 386.5,354.6563 Q385.8125,355.7188 385.8125,357.8125 Q385.8125,359.9063 386.5,360.9844 Q387.1875,362.0469 388.5313,362.0469 Q389.1563,362.0469 389.75,361.7813 Q390.3438,361.5 390.9688,360.9219 L390.9688,363.6406 Z " fill="#000000"/><text fill="#000000" font-family="sans-serif" font-size="12" lengthAdjust="spacing" textLength="163" x="402" y="362.1543">RelativeOrientationSensor</text><!--MD5=[7a092083ef05475327a6ade1ddb6357e]
class Magnetometer--><rect codeLine="28" fill="#FEFECE" filter="url(#f4urr73cit2p8)" height="32" id="Magnetometer" style="stroke:#A80036;stroke-width:1.5;" width="124" x="408.5" y="409"/><ellipse cx="423.5" cy="425" fill="#ADD1B2" rx="11" ry="11" style="stroke:#A80036;stroke-width:1.0;"/><path d="M426.4688,430.6406 Q425.8906,430.9375 425.25,431.0781 Q424.6094,431.2344 423.9063,431.2344 Q421.4063,431.2344 420.0781,429.5938 Q418.7656,427.9375 418.7656,424.8125 Q418.7656,421.6875 420.0781,420.0313 Q421.4063,418.375 423.9063,418.375 Q424.6094,418.375 425.25,418.5313 Q425.9063,418.6875 426.4688,418.9844 L426.4688,421.7031 Q425.8438,421.125 425.25,420.8594 Q424.6563,420.5781 424.0313,420.5781 Q422.6875,420.5781 422,421.6563 Q421.3125,422.7188 421.3125,424.8125 Q421.3125,426.9063 422,427.9844 Q422.6875,429.0469 424.0313,429.0469 Q424.6563,429.0469 425.25,428.7813 Q425.8438,428.5 426.4688,427.9219 L426.4688,430.6406 Z " fill="#000000"/><text fill="#000000" font-family="sans-serif" font-size="12" lengthAdjust="spacing" textLength="92" x="437.5" y="429.1543">Magnetometer</text><!--MD5=[150f96ef3d273147504fac31ea737452]
reverse link DataObject to SensorObject<T>--><path codeLine="9" d="M129.45,224 C142.45,224 156.01,224 168.98,224 " fill="none" id="DataObject-backto-SensorObject&lt;T&gt;" style="stroke:#A80036;stroke-width:1.0;"/><polygon fill="none" points="129,231,109,224,129,217,129,231" style="stroke:#A80036;stroke-width:1.0;"/><!--MD5=[65d09237bc8a6386d01c8ecf15c9bab7]
reverse link SensorObject<T> to Accelerometer--><path codeLine="12" d="M258.41,190.07 C280.04,152.2 319.86,91.58 370,56 C381.58,47.78 395.34,41.51 408.87,36.76 " fill="none" id="SensorObject&lt;T&gt;-backto-Accelerometer" style="stroke:#A80036;stroke-width:1.0;"/><polygon fill="none" points="264.44,193.63,248.67,207.78,252.17,186.88,264.44,193.63" style="stroke:#A80036;stroke-width:1.0;"/><!--MD5=[d4a04cd5d0839de91a7fce41af1c372b]
reverse link SensorObject<T> to GravitySensor--><path codeLine="15" d="M272.12,194.27 C297.09,172.11 333.67,142.44 370,123 C382.84,116.13 397.37,110.33 411.28,105.61 " fill="none" id="SensorObject&lt;T&gt;-backto-GravitySensor" style="stroke:#A80036;stroke-width:1.0;"/><polygon fill="none" points="276.68,199.6,257.17,207.88,267.25,189.24,276.68,199.6" style="stroke:#A80036;stroke-width:1.0;"/><!--MD5=[448abf2645460e1c979ef57965961f23]
reverse link SensorObject<T> to Gyroscope--><path codeLine="18" d="M314.63,202.31 C349.63,192.07 390.39,180.14 421.31,171.1 " fill="none" id="SensorObject&lt;T&gt;-backto-Gyroscope" style="stroke:#A80036;stroke-width:1.0;"/><polygon fill="none" points="316.51,209.05,295.35,207.95,312.58,195.62,316.51,209.05" style="stroke:#A80036;stroke-width:1.0;"/><!--MD5=[4441070bb546bb6fa6ffff22af05fe71]
reverse link SensorObject<T> to LinearAccelerationSensor--><path codeLine="21" d="M330.19,224 C344.72,224 359.8,224 374.44,224 " fill="none" id="SensorObject&lt;T&gt;-backto-LinearAccelerationSensor" style="stroke:#A80036;stroke-width:1.0;"/><polygon fill="none" points="330.14,231,310.14,224,330.14,217,330.14,231" style="stroke:#A80036;stroke-width:1.0;"/><!--MD5=[941bf8cfecca504c8b8530041abe581d]
reverse link SensorObject<T> to AbsoluteOrientationSensor--><path codeLine="24" d="M314.84,245.75 C347.34,255.26 384.79,266.22 414.7,274.97 " fill="none" id="SensorObject&lt;T&gt;-backto-AbsoluteOrientationSensor" style="stroke:#A80036;stroke-width:1.0;"/><polygon fill="none" points="312.58,252.38,295.35,240.05,316.51,238.95,312.58,252.38" style="stroke:#A80036;stroke-width:1.0;"/><!--MD5=[b169e472542954435e881a82857f7c58]
reverse link SensorObject<T> to RelativeOrientationSensor--><path codeLine="27" d="M272.12,253.73 C297.09,275.89 333.67,305.56 370,325 C382.44,331.65 396.46,337.3 409.97,341.95 " fill="none" id="SensorObject&lt;T&gt;-backto-RelativeOrientationSensor" style="stroke:#A80036;stroke-width:1.0;"/><polygon fill="none" points="267.25,258.76,257.17,240.12,276.68,248.4,267.25,258.76" style="stroke:#A80036;stroke-width:1.0;"/><!--MD5=[3eccc384950d1b3b58605e83204785bd]
reverse link SensorObject<T> to Magnetometer--><path codeLine="30" d="M258.41,257.93 C280.04,295.8 319.86,356.42 370,392 C381.43,400.11 394.98,406.33 408.35,411.06 " fill="none" id="SensorObject&lt;T&gt;-backto-Magnetometer" style="stroke:#A80036;stroke-width:1.0;"/><polygon fill="none" points="252.17,261.12,248.67,240.22,264.44,254.37,252.17,261.12" style="stroke:#A80036;stroke-width:1.0;"/><!--MD5=[649bef4e7f7f6ac401a089031218c902]
@startuml
skinparam BackgroundColor transparent
left to right direction
hide empty methods
hide empty fields
abstract class "SensorObject<T>" {
}
class "DataObject" {
}
"DataObject" <|- - "SensorObject<T>"
class "Accelerometer" {
}
"SensorObject<T>" <|- - "Accelerometer"
class "GravitySensor" {
}
"SensorObject<T>" <|- - "GravitySensor"
class "Gyroscope" {
}
"SensorObject<T>" <|- - "Gyroscope"
class "LinearAccelerationSensor" {
}
"SensorObject<T>" <|- - "LinearAccelerationSensor"
class "AbsoluteOrientationSensor" {
}
"SensorObject<T>" <|- - "AbsoluteOrientationSensor"
class "RelativeOrientationSensor" {
}
"SensorObject<T>" <|- - "RelativeOrientationSensor"
class "Magnetometer" {
}
"SensorObject<T>" <|- - "Magnetometer"
@enduml

PlantUML version 1.2021.14(Fri Nov 12 16:46:50 UTC 2021)
(GPL source distribution)
Java Runtime: OpenJDK Runtime Environment
JVM: OpenJDK 64-Bit Server VM
Default Encoding: UTF-8
Language: en
Country: null
--></g></svg>