<?xml version="1.0" encoding="UTF-8" standalone="no"?><svg xmlns="http://www.w3.org/2000/svg" xmlns:xlink="http://www.w3.org/1999/xlink" contentScriptType="application/ecmascript" contentStyleType="text/css" height="455px" preserveAspectRatio="none" style="width:558px;height:455px;background:#00000000;" version="1.1" viewBox="0 0 558 455" width="558px" zoomAndPan="magnify"><defs><filter height="300%" id="f7w478q8i8vwa" width="300%" x="-1" y="-1"><feGaussianBlur result="blurOut" stdDeviation="2.0"/><feColorMatrix in="blurOut" result="blurOut2" type="matrix" values="0 0 0 0 0 0 0 0 0 0 0 0 0 0 0 0 0 0 .4 0"/><feOffset dx="4.0" dy="4.0" in="blurOut2" result="blurOut3"/><feBlend in="SourceGraphic" in2="blurOut3" mode="normal"/></filter></defs><g><!--MD5=[6eee01115da8f7fcb68946e8bd3dd2dd]
class SensorObject--><rect codeLine="5" fill="#FEFECE" filter="url(#f7w478q8i8vwa)" height="32" id="SensorObject" style="stroke:#A80036;stroke-width:1.5;" width="114" x="169" y="208"/><ellipse cx="184" cy="224" fill="#A9DCDF" rx="11" ry="11" style="stroke:#A80036;stroke-width:1.0;"/><path d="M184.1094,219.3438 L182.9531,224.4219 L185.2813,224.4219 L184.1094,219.3438 Z M182.625,217.1094 L185.6094,217.1094 L188.9688,229.5 L186.5156,229.5 L185.75,226.4375 L182.4688,226.4375 L181.7188,229.5 L179.2813,229.5 L182.625,217.1094 Z " fill="#000000"/><text fill="#000000" font-family="sans-serif" font-size="12" font-style="italic" lengthAdjust="spacing" textLength="82" x="198" y="228.1543">SensorObject</text><!--MD5=[b714e43f0cea490da1ab103313ecf250]
class DataObject--><rect codeLine="7" fill="#FEFECE" filter="url(#f7w478q8i8vwa)" height="32" id="DataObject" style="stroke:#A80036;stroke-width:1.5;" width="102" x="7" y="208"/><ellipse cx="22" cy="224" fill="#ADD1B2" rx="11" ry="11" style="stroke:#A80036;stroke-width:1.0;"/><path d="M24.9688,229.6406 Q24.3906,229.9375 23.75,230.0781 Q23.1094,230.2344 22.4063,230.2344 Q19.9063,230.2344 18.5781,228.5938 Q17.2656,226.9375 17.2656,223.8125 Q17.2656,220.6875 18.5781,219.0313 Q19.9063,217.375 22.4063,217.375 Q23.1094,217.375 23.75,217.5313 Q24.4063,217.6875 24.9688,217.9844 L24.9688,220.7031 Q24.3438,220.125 23.75,219.8594 Q23.1563,219.5781 22.5313,219.5781 Q21.1875,219.5781 20.5,220.6563 Q19.8125,221.7188 19.8125,223.8125 Q19.8125,225.9063 20.5,226.9844 Q21.1875,228.0469 22.5313,228.0469 Q23.1563,228.0469 23.75,227.7813 Q24.3438,227.5 24.9688,226.9219 L24.9688,229.6406 Z " fill="#000000"/><text fill="#000000" font-family="sans-serif" font-size="12" lengthAdjust="spacing" textLength="70" x="36" y="228.1543">DataObject</text><!--MD5=[0ba84e53bd729611031e81c41ad2f1e8]
class Accelerometer--><rect codeLine="10" fill="#FEFECE" filter="url(#f7w478q8i8vwa)" height="32" id="Accelerometer" style="stroke:#A80036;stroke-width:1.5;" width="123" x="382" y="7"/><ellipse cx="397" cy="23" fill="#ADD1B2" rx="11" ry="11" style="stroke:#A80036;stroke-width:1.0;"/><path d="M399.9688,28.6406 Q399.3906,28.9375 398.75,29.0781 Q398.1094,29.2344 397.4063,29.2344 Q394.9063,29.2344 393.5781,27.5938 Q392.2656,25.9375 392.2656,22.8125 Q392.2656,19.6875 393.5781,18.0313 Q394.9063,16.375 397.4063,16.375 Q398.1094,16.375 398.75,16.5313 Q399.4063,16.6875 399.9688,16.9844 L399.9688,19.7031 Q399.3438,19.125 398.75,18.8594 Q398.1563,18.5781 397.5313,18.5781 Q396.1875,18.5781 395.5,19.6563 Q394.8125,20.7188 394.8125,22.8125 Q394.8125,24.9063 395.5,25.9844 Q396.1875,27.0469 397.5313,27.0469 Q398.1563,27.0469 398.75,26.7813 Q399.3438,26.5 399.9688,25.9219 L399.9688,28.6406 Z " fill="#000000"/><text fill="#000000" font-family="sans-serif" font-size="12" lengthAdjust="spacing" textLength="91" x="411" y="27.1543">Accelerometer</text><!--MD5=[906aa53345b0d6bbb96d7fdc2337c0c0]
class GravitySensor--><rect codeLine="13" fill="#FEFECE" filter="url(#f7w478q8i8vwa)" height="32" id="GravitySensor" style="stroke:#A80036;stroke-width:1.5;" width="118" x="384.5" y="74"/><ellipse cx="399.5" cy="90" fill="#ADD1B2" rx="11" ry="11" style="stroke:#A80036;stroke-width:1.0;"/><path d="M402.4688,95.6406 Q401.8906,95.9375 401.25,96.0781 Q400.6094,96.2344 399.9063,96.2344 Q397.4063,96.2344 396.0781,94.5938 Q394.7656,92.9375 394.7656,89.8125 Q394.7656,86.6875 396.0781,85.0313 Q397.4063,83.375 399.9063,83.375 Q400.6094,83.375 401.25,83.5313 Q401.9063,83.6875 402.4688,83.9844 L402.4688,86.7031 Q401.8438,86.125 401.25,85.8594 Q400.6563,85.5781 400.0313,85.5781 Q398.6875,85.5781 398,86.6563 Q397.3125,87.7188 397.3125,89.8125 Q397.3125,91.9063 398,92.9844 Q398.6875,94.0469 400.0313,94.0469 Q400.6563,94.0469 401.25,93.7813 Q401.8438,93.5 402.4688,92.9219 L402.4688,95.6406 Z " fill="#000000"/><text fill="#000000" font-family="sans-serif" font-size="12" lengthAdjust="spacing" textLength="86" x="413.5" y="94.1543">GravitySensor</text><!--MD5=[8eaa6a8ee8c6873283bef640c9b86333]
class Gyroscope--><rect codeLine="16" fill="#FEFECE" filter="url(#f7w478q8i8vwa)" height="32" id="Gyroscope" style="stroke:#A80036;stroke-width:1.5;" width="98" x="394.5" y="141"/><ellipse cx="409.5" cy="157" fill="#ADD1B2" rx="11" ry="11" style="stroke:#A80036;stroke-width:1.0;"/><path d="M412.4688,162.6406 Q411.8906,162.9375 411.25,163.0781 Q410.6094,163.2344 409.9063,163.2344 Q407.4063,163.2344 406.0781,161.5938 Q404.7656,159.9375 404.7656,156.8125 Q404.7656,153.6875 406.0781,152.0313 Q407.4063,150.375 409.9063,150.375 Q410.6094,150.375 411.25,150.5313 Q411.9063,150.6875 412.4688,150.9844 L412.4688,153.7031 Q411.8438,153.125 411.25,152.8594 Q410.6563,152.5781 410.0313,152.5781 Q408.6875,152.5781 408,153.6563 Q407.3125,154.7188 407.3125,156.8125 Q407.3125,158.9063 408,159.9844 Q408.6875,161.0469 410.0313,161.0469 Q410.6563,161.0469 411.25,160.7813 Q411.8438,160.5 412.4688,159.9219 L412.4688,162.6406 Z " fill="#000000"/><text fill="#000000" font-family="sans-serif" font-size="12" lengthAdjust="spacing" textLength="66" x="423.5" y="161.1543">Gyroscope</text><!--MD5=[cb717750e6e9c1f23e1b17c7a2f007dd]
class LinearAccelerationSensor--><rect codeLine="19" fill="#FEFECE" filter="url(#f7w478q8i8vwa)" height="32" id="LinearAccelerationSensor" style="stroke:#A80036;stroke-width:1.5;" width="192" x="347.5" y="208"/><ellipse cx="362.5" cy="224" fill="#ADD1B2" rx="11" ry="11" style="stroke:#A80036;stroke-width:1.0;"/><path d="M365.4688,229.6406 Q364.8906,229.9375 364.25,230.0781 Q363.6094,230.2344 362.9063,230.2344 Q360.4063,230.2344 359.0781,228.5938 Q357.7656,226.9375 357.7656,223.8125 Q357.7656,220.6875 359.0781,219.0313 Q360.4063,217.375 362.9063,217.375 Q363.6094,217.375 364.25,217.5313 Q364.9063,217.6875 365.4688,217.9844 L365.4688,220.7031 Q364.8438,220.125 364.25,219.8594 Q363.6563,219.5781 363.0313,219.5781 Q361.6875,219.5781 361,220.6563 Q360.3125,221.7188 360.3125,223.8125 Q360.3125,225.9063 361,226.9844 Q361.6875,228.0469 363.0313,228.0469 Q363.6563,228.0469 364.25,227.7813 Q364.8438,227.5 365.4688,226.9219 L365.4688,229.6406 Z " fill="#000000"/><text fill="#000000" font-family="sans-serif" font-size="12" lengthAdjust="spacing" textLength="160" x="376.5" y="228.1543">LinearAccelerationSensor</text><!--MD5=[8d3e4484c622d7bcec2d07bd590eb8cc]
class AbsoluteOrientationSensor--><rect codeLine="22" fill="#FEFECE" filter="url(#f7w478q8i8vwa)" height="32" id="AbsoluteOrientationSensor" style="stroke:#A80036;stroke-width:1.5;" width="201" x="343" y="275"/><ellipse cx="358" cy="291" fill="#ADD1B2" rx="11" ry="11" style="stroke:#A80036;stroke-width:1.0;"/><path d="M360.9688,296.6406 Q360.3906,296.9375 359.75,297.0781 Q359.1094,297.2344 358.4063,297.2344 Q355.9063,297.2344 354.5781,295.5938 Q353.2656,293.9375 353.2656,290.8125 Q353.2656,287.6875 354.5781,286.0313 Q355.9063,284.375 358.4063,284.375 Q359.1094,284.375 359.75,284.5313 Q360.4063,284.6875 360.9688,284.9844 L360.9688,287.7031 Q360.3438,287.125 359.75,286.8594 Q359.1563,286.5781 358.5313,286.5781 Q357.1875,286.5781 356.5,287.6563 Q355.8125,288.7188 355.8125,290.8125 Q355.8125,292.9063 356.5,293.9844 Q357.1875,295.0469 358.5313,295.0469 Q359.1563,295.0469 359.75,294.7813 Q360.3438,294.5 360.9688,293.9219 L360.9688,296.6406 Z " fill="#000000"/><text fill="#000000" font-family="sans-serif" font-size="12" lengthAdjust="spacing" textLength="169" x="372" y="295.1543">AbsoluteOrientationSensor</text><!--MD5=[3be2cebf2cd873a13207c6652c88861b]
class RelativeOrientationSensor--><rect codeLine="25" fill="#FEFECE" filter="url(#f7w478q8i8vwa)" height="32" id="RelativeOrientationSensor" style="stroke:#A80036;stroke-width:1.5;" width="195" x="346" y="342"/><ellipse cx="361" cy="358" fill="#ADD1B2" rx="11" ry="11" style="stroke:#A80036;stroke-width:1.0;"/><path d="M363.9688,363.6406 Q363.3906,363.9375 362.75,364.0781 Q362.1094,364.2344 361.4063,364.2344 Q358.9063,364.2344 357.5781,362.5938 Q356.2656,360.9375 356.2656,357.8125 Q356.2656,354.6875 357.5781,353.0313 Q358.9063,351.375 361.4063,351.375 Q362.1094,351.375 362.75,351.5313 Q363.4063,351.6875 363.9688,351.9844 L363.9688,354.7031 Q363.3438,354.125 362.75,353.8594 Q362.1563,353.5781 361.5313,353.5781 Q360.1875,353.5781 359.5,354.6563 Q358.8125,355.7188 358.8125,357.8125 Q358.8125,359.9063 359.5,360.9844 Q360.1875,362.0469 361.5313,362.0469 Q362.1563,362.0469 362.75,361.7813 Q363.3438,361.5 363.9688,360.9219 L363.9688,363.6406 Z " fill="#000000"/><text fill="#000000" font-family="sans-serif" font-size="12" lengthAdjust="spacing" textLength="163" x="375" y="362.1543">RelativeOrientationSensor</text><!--MD5=[7a092083ef05475327a6ade1ddb6357e]
class Magnetometer--><rect codeLine="28" fill="#FEFECE" filter="url(#f7w478q8i8vwa)" height="32" id="Magnetometer" style="stroke:#A80036;stroke-width:1.5;" width="124" x="381.5" y="409"/><ellipse cx="396.5" cy="425" fill="#ADD1B2" rx="11" ry="11" style="stroke:#A80036;stroke-width:1.0;"/><path d="M399.4688,430.6406 Q398.8906,430.9375 398.25,431.0781 Q397.6094,431.2344 396.9063,431.2344 Q394.4063,431.2344 393.0781,429.5938 Q391.7656,427.9375 391.7656,424.8125 Q391.7656,421.6875 393.0781,420.0313 Q394.4063,418.375 396.9063,418.375 Q397.6094,418.375 398.25,418.5313 Q398.9063,418.6875 399.4688,418.9844 L399.4688,421.7031 Q398.8438,421.125 398.25,420.8594 Q397.6563,420.5781 397.0313,420.5781 Q395.6875,420.5781 395,421.6563 Q394.3125,422.7188 394.3125,424.8125 Q394.3125,426.9063 395,427.9844 Q395.6875,429.0469 397.0313,429.0469 Q397.6563,429.0469 398.25,428.7813 Q398.8438,428.5 399.4688,427.9219 L399.4688,430.6406 Z " fill="#000000"/><text fill="#000000" font-family="sans-serif" font-size="12" lengthAdjust="spacing" textLength="92" x="410.5" y="429.1543">Magnetometer</text><!--MD5=[9e81f26081f983e3c24e873add28e21c]
reverse link DataObject to SensorObject--><path codeLine="9" d="M129.39,224 C142.56,224 156.16,224 168.82,224 " fill="none" id="DataObject-backto-SensorObject" style="stroke:#A80036;stroke-width:1.0;"/><polygon fill="none" points="129.26,231,109.26,224,129.26,217,129.26,231" style="stroke:#A80036;stroke-width:1.0;"/><!--MD5=[d7a45efbae964c54235677f94b3d1591]
reverse link SensorObject to Accelerometer--><path codeLine="12" d="M242.42,189.52 C261.05,151.59 295.87,91.33 343,56 C354.43,47.43 368.21,41.01 381.82,36.23 " fill="none" id="SensorObject-backto-Accelerometer" style="stroke:#A80036;stroke-width:1.0;"/><polygon fill="none" points="248.69,192.63,233.86,207.76,236.01,186.68,248.69,192.63" style="stroke:#A80036;stroke-width:1.0;"/><!--MD5=[3cb24cf468a9efed08b455207337cd7c]
reverse link SensorObject to GravitySensor--><path codeLine="15" d="M255.73,193.13 C277.78,170.98 309.96,141.84 343,123 C355.73,115.74 370.29,109.79 384.27,105.03 " fill="none" id="SensorObject-backto-GravitySensor" style="stroke:#A80036;stroke-width:1.0;"/><polygon fill="none" points="260.52,198.24,241.59,207.77,250.45,188.52,260.52,198.24" style="stroke:#A80036;stroke-width:1.0;"/><!--MD5=[0004215bff94efde5c85503b812bf8aa]
reverse link SensorObject to Gyroscope--><path codeLine="18" d="M298.03,201.92 C329.59,192.1 365.92,180.81 394.26,172 " fill="none" id="SensorObject-backto-Gyroscope" style="stroke:#A80036;stroke-width:1.0;"/><polygon fill="none" points="299.79,208.7,278.62,207.95,295.64,195.33,299.79,208.7" style="stroke:#A80036;stroke-width:1.0;"/><!--MD5=[83ce38598dc1e5878bcfcd9f7218d317]
reverse link SensorObject to LinearAccelerationSensor--><path codeLine="21" d="M303.3,224 C317.6,224 332.71,224 347.5,224 " fill="none" id="SensorObject-backto-LinearAccelerationSensor" style="stroke:#A80036;stroke-width:1.0;"/><polygon fill="none" points="303.06,231,283.06,224,303.06,217,303.06,231" style="stroke:#A80036;stroke-width:1.0;"/><!--MD5=[eca131215efc282eca65958699ee5d34]
reverse link SensorObject to AbsoluteOrientationSensor--><path codeLine="24" d="M297.82,246.02 C328.21,255.47 363.05,266.3 390.93,274.97 " fill="none" id="SensorObject-backto-AbsoluteOrientationSensor" style="stroke:#A80036;stroke-width:1.0;"/><polygon fill="none" points="295.64,252.67,278.62,240.05,299.79,239.3,295.64,252.67" style="stroke:#A80036;stroke-width:1.0;"/><!--MD5=[09770c8418d4023a18cb2793e426dc9e]
reverse link SensorObject to RelativeOrientationSensor--><path codeLine="27" d="M255.73,254.87 C277.78,277.02 309.96,306.16 343,325 C354.86,331.76 368.31,337.39 381.4,341.98 " fill="none" id="SensorObject-backto-RelativeOrientationSensor" style="stroke:#A80036;stroke-width:1.0;"/><polygon fill="none" points="250.45,259.48,241.59,240.23,260.52,249.76,250.45,259.48" style="stroke:#A80036;stroke-width:1.0;"/><!--MD5=[89049b7aeab474494e438eefab00878d]
reverse link SensorObject to Magnetometer--><path codeLine="30" d="M242.42,258.48 C261.05,296.41 295.87,356.67 343,392 C354.28,400.46 367.86,406.82 381.3,411.58 " fill="none" id="SensorObject-backto-Magnetometer" style="stroke:#A80036;stroke-width:1.0;"/><polygon fill="none" points="236.01,261.32,233.86,240.24,248.69,255.37,236.01,261.32" style="stroke:#A80036;stroke-width:1.0;"/><!--MD5=[f72b463305913771f045c1fcfa8bd399]
@startuml
skinparam BackgroundColor transparent
left to right direction
hide empty methods
hide empty fields
abstract class "SensorObject" {
}
class "DataObject" {
}
"DataObject" <|- - "SensorObject"
class "Accelerometer" {
}
"SensorObject" <|- - "Accelerometer"
class "GravitySensor" {
}
"SensorObject" <|- - "GravitySensor"
class "Gyroscope" {
}
"SensorObject" <|- - "Gyroscope"
class "LinearAccelerationSensor" {
}
"SensorObject" <|- - "LinearAccelerationSensor"
class "AbsoluteOrientationSensor" {
}
"SensorObject" <|- - "AbsoluteOrientationSensor"
class "RelativeOrientationSensor" {
}
"SensorObject" <|- - "RelativeOrientationSensor"
class "Magnetometer" {
}
"SensorObject" <|- - "Magnetometer"
@enduml

PlantUML version 1.2021.14(Fri Nov 12 16:46:50 UTC 2021)
(GPL source distribution)
Java Runtime: OpenJDK Runtime Environment
JVM: OpenJDK 64-Bit Server VM
Default Encoding: UTF-8
Language: en
Country: null
--></g></svg>