<?xml version="1.0" encoding="UTF-8" standalone="no"?><svg xmlns="http://www.w3.org/2000/svg" xmlns:xlink="http://www.w3.org/1999/xlink" contentScriptType="application/ecmascript" contentStyleType="text/css" height="288px" preserveAspectRatio="none" style="width:186px;height:288px;background:#00000000;" version="1.1" viewBox="0 0 186 288" width="186px" zoomAndPan="magnify"><defs><filter height="300%" id="ffe3v5y863ghp" width="300%" x="-1" y="-1"><feGaussianBlur result="blurOut" stdDeviation="2.0"/><feColorMatrix in="blurOut" result="blurOut2" type="matrix" values="0 0 0 0 0 0 0 0 0 0 0 0 0 0 0 0 0 0 .4 0"/><feOffset dx="4.0" dy="4.0" in="blurOut2" result="blurOut3"/><feBlend in="SourceGraphic" in2="blurOut3" mode="normal"/></filter></defs><g><!--MD5=[84200095bb64f0effa3e0fa673067eb6]
class SensorSourceOptions--><rect codeLine="4" fill="#FEFECE" filter="url(#ffe3v5y863ghp)" height="116.8281" id="SensorSourceOptions" style="stroke:#A80036;stroke-width:1.5;" width="165" x="7" y="158"/><ellipse cx="22" cy="174" fill="#B4A7E5" rx="11" ry="11" style="stroke:#A80036;stroke-width:1.0;"/><path d="M17.9219,169.7656 L17.9219,167.6094 L25.3125,167.6094 L25.3125,169.7656 L22.8438,169.7656 L22.8438,177.8438 L25.3125,177.8438 L25.3125,180 L17.9219,180 L17.9219,177.8438 L20.3906,177.8438 L20.3906,169.7656 L17.9219,169.7656 Z " fill="#000000"/><text fill="#000000" font-family="sans-serif" font-size="12" font-style="italic" lengthAdjust="spacing" textLength="133" x="36" y="178.1543">SensorSourceOptions</text><line style="stroke:#A80036;stroke-width:1.5;" x1="8" x2="171" y1="190" y2="190"/><ellipse cx="18" cy="201" rx="3" ry="3" style="stroke:#038048;stroke-width:1.0;fill:none;"/><text fill="#000000" font-family="sans-serif" font-size="11" lengthAdjust="spacing" textLength="110" x="27" y="204.2104">autoStart : boolean</text><ellipse cx="18" cy="213.8047" rx="3" ry="3" style="stroke:#038048;stroke-width:1.0;fill:none;"/><text fill="#000000" font-family="sans-serif" font-size="11" lengthAdjust="spacing" textLength="98" x="27" y="217.0151">interval : number</text><ellipse cx="18" cy="226.6094" rx="3" ry="3" style="stroke:#038048;stroke-width:1.0;fill:none;"/><text fill="#000000" font-family="sans-serif" font-size="11" lengthAdjust="spacing" textLength="77" x="27" y="229.8198">name : string</text><ellipse cx="18" cy="239.4141" rx="3" ry="3" style="stroke:#038048;stroke-width:1.0;fill:none;"/><text fill="#000000" font-family="sans-serif" font-size="11" lengthAdjust="spacing" textLength="124" x="27" y="242.6245">persistence : boolean</text><ellipse cx="18" cy="252.2188" rx="3" ry="3" style="stroke:#038048;stroke-width:1.0;fill:none;"/><text fill="#000000" font-family="sans-serif" font-size="11" lengthAdjust="spacing" textLength="113" x="27" y="255.4292">source : DataObject</text><ellipse cx="18" cy="265.0234" rx="3" ry="3" style="stroke:#038048;stroke-width:1.0;fill:none;"/><text fill="#000000" font-family="sans-serif" font-size="11" lengthAdjust="spacing" textLength="62" x="27" y="268.2339">uid : string</text><!--MD5=[2ce794d34c3bd0dbd6544d1249e177ac]
class SourceNodeOptions--><rect codeLine="12" fill="#FEFECE" filter="url(#ffe3v5y863ghp)" height="91.2188" id="SourceNodeOptions" style="stroke:#A80036;stroke-width:1.5;" width="155" x="12" y="7"/><ellipse cx="27" cy="23" fill="#B4A7E5" rx="11" ry="11" style="stroke:#A80036;stroke-width:1.0;"/><path d="M22.9219,18.7656 L22.9219,16.6094 L30.3125,16.6094 L30.3125,18.7656 L27.8438,18.7656 L27.8438,26.8438 L30.3125,26.8438 L30.3125,29 L22.9219,29 L22.9219,26.8438 L25.3906,26.8438 L25.3906,18.7656 L22.9219,18.7656 Z " fill="#000000"/><text fill="#000000" font-family="sans-serif" font-size="12" font-style="italic" lengthAdjust="spacing" textLength="123" x="41" y="27.1543">SourceNodeOptions</text><line style="stroke:#A80036;stroke-width:1.5;" x1="13" x2="166" y1="39" y2="39"/><ellipse cx="23" cy="50" rx="3" ry="3" style="stroke:#038048;stroke-width:1.0;fill:none;"/><text fill="#000000" font-family="sans-serif" font-size="11" lengthAdjust="spacing" textLength="77" x="32" y="53.2104">name : string</text><ellipse cx="23" cy="62.8047" rx="3" ry="3" style="stroke:#038048;stroke-width:1.0;fill:none;"/><text fill="#000000" font-family="sans-serif" font-size="11" lengthAdjust="spacing" textLength="124" x="32" y="66.0151">persistence : boolean</text><ellipse cx="23" cy="75.6094" rx="3" ry="3" style="stroke:#038048;stroke-width:1.0;fill:none;"/><text fill="#000000" font-family="sans-serif" font-size="11" lengthAdjust="spacing" textLength="113" x="32" y="78.8198">source : DataObject</text><ellipse cx="23" cy="88.4141" rx="3" ry="3" style="stroke:#038048;stroke-width:1.0;fill:none;"/><text fill="#000000" font-family="sans-serif" font-size="11" lengthAdjust="spacing" textLength="62" x="32" y="91.6245">uid : string</text><!--MD5=[7451f20f9a3de6067fb6c13018b9976c]
reverse link SourceNodeOptions to SensorSourceOptions--><path codeLine="18" d="M89.5,118.61 C89.5,131.6 89.5,145.16 89.5,157.88 " fill="none" id="SourceNodeOptions-backto-SensorSourceOptions" style="stroke:#A80036;stroke-width:1.0;"/><polygon fill="none" points="82.5,118.2,89.5,98.2,96.5,118.2,82.5,118.2" style="stroke:#A80036;stroke-width:1.0;"/><!--MD5=[37456daf1d6416fd7e0e546a3bbd5d19]
@startuml
skinparam BackgroundColor transparent
hide empty methods
hide empty fields
interface "SensorSourceOptions" {
    +autoStart : boolean
    +interval : number
    +name : string
    +persistence : boolean
    +source : DataObject
    +uid : string
}
interface "SourceNodeOptions" {
    +name : string
    +persistence : boolean
    +source : DataObject
    +uid : string
}
"SourceNodeOptions" <|- - "SensorSourceOptions"
@enduml

PlantUML version 1.2021.14(Fri Nov 12 16:46:50 UTC 2021)
(GPL source distribution)
Java Runtime: OpenJDK Runtime Environment
JVM: OpenJDK 64-Bit Server VM
Default Encoding: UTF-8
Language: en
Country: null
--></g></svg>