<?xml version="1.0" encoding="UTF-8" standalone="no"?><svg xmlns="http://www.w3.org/2000/svg" xmlns:xlink="http://www.w3.org/1999/xlink" contentScriptType="application/ecmascript" contentStyleType="text/css" height="145px" preserveAspectRatio="none" style="width:135px;height:145px;background:#00000000;" version="1.1" viewBox="0 0 135 145" width="135px" zoomAndPan="magnify"><defs><filter height="300%" id="f1058f0jy492p8" width="300%" x="-1" y="-1"><feGaussianBlur result="blurOut" stdDeviation="2.0"/><feColorMatrix in="blurOut" result="blurOut2" type="matrix" values="0 0 0 0 0 0 0 0 0 0 0 0 0 0 0 0 0 0 .4 0"/><feOffset dx="4.0" dy="4.0" in="blurOut2" result="blurOut3"/><feBlend in="SourceGraphic" in2="blurOut3" mode="normal"/></filter></defs><g><!--MD5=[6eee01115da8f7fcb68946e8bd3dd2dd]
class SensorObject--><rect codeLine="4" fill="#FEFECE" filter="url(#f1058f0jy492p8)" height="32" id="SensorObject" style="stroke:#A80036;stroke-width:1.5;" width="114" x="7" y="99"/><ellipse cx="22" cy="115" fill="#A9DCDF" rx="11" ry="11" style="stroke:#A80036;stroke-width:1.0;"/><path d="M22.1094,110.3438 L20.9531,115.4219 L23.2813,115.4219 L22.1094,110.3438 Z M20.625,108.1094 L23.6094,108.1094 L26.9688,120.5 L24.5156,120.5 L23.75,117.4375 L20.4688,117.4375 L19.7188,120.5 L17.2813,120.5 L20.625,108.1094 Z " fill="#000000"/><text fill="#000000" font-family="sans-serif" font-size="12" font-style="italic" lengthAdjust="spacing" textLength="82" x="36" y="119.1543">SensorObject</text><!--MD5=[b714e43f0cea490da1ab103313ecf250]
class DataObject--><rect codeLine="6" fill="#FEFECE" filter="url(#f1058f0jy492p8)" height="32" id="DataObject" style="stroke:#A80036;stroke-width:1.5;" width="102" x="13" y="7"/><ellipse cx="28" cy="23" fill="#ADD1B2" rx="11" ry="11" style="stroke:#A80036;stroke-width:1.0;"/><path d="M30.9688,28.6406 Q30.3906,28.9375 29.75,29.0781 Q29.1094,29.2344 28.4063,29.2344 Q25.9063,29.2344 24.5781,27.5938 Q23.2656,25.9375 23.2656,22.8125 Q23.2656,19.6875 24.5781,18.0313 Q25.9063,16.375 28.4063,16.375 Q29.1094,16.375 29.75,16.5313 Q30.4063,16.6875 30.9688,16.9844 L30.9688,19.7031 Q30.3438,19.125 29.75,18.8594 Q29.1563,18.5781 28.5313,18.5781 Q27.1875,18.5781 26.5,19.6563 Q25.8125,20.7188 25.8125,22.8125 Q25.8125,24.9063 26.5,25.9844 Q27.1875,27.0469 28.5313,27.0469 Q29.1563,27.0469 29.75,26.7813 Q30.3438,26.5 30.9688,25.9219 L30.9688,28.6406 Z " fill="#000000"/><text fill="#000000" font-family="sans-serif" font-size="12" lengthAdjust="spacing" textLength="70" x="42" y="27.1543">DataObject</text><!--MD5=[9e81f26081f983e3c24e873add28e21c]
reverse link DataObject to SensorObject--><path codeLine="8" d="M64,59.61 C64,73.31 64,88.22 64,98.96 " fill="none" id="DataObject-backto-SensorObject" style="stroke:#A80036;stroke-width:1.0;"/><polygon fill="none" points="57,59.27,64,39.27,71,59.27,57,59.27" style="stroke:#A80036;stroke-width:1.0;"/><!--MD5=[3d2486cebbb12e08ee4873acef053b03]
@startuml
skinparam BackgroundColor transparent
hide empty methods
hide empty fields
abstract class "SensorObject" {
}
class "DataObject" {
}
"DataObject" <|- - "SensorObject"
@enduml

PlantUML version 1.2021.14(Fri Nov 12 16:46:50 UTC 2021)
(GPL source distribution)
Java Runtime: OpenJDK Runtime Environment
JVM: OpenJDK 64-Bit Server VM
Default Encoding: UTF-8
Language: en
Country: null
--></g></svg>