<?xml version="1.0" encoding="us-ascii" standalone="no"?><svg xmlns="http://www.w3.org/2000/svg" xmlns:xlink="http://www.w3.org/1999/xlink" contentStyleType="text/css" height="515px" preserveAspectRatio="none" style="width:619px;height:515px;" version="1.1" viewBox="0 0 619 515" width="619px" zoomAndPan="magnify"><defs/><g><!--class SensorObject<T>--><g id="elem_SensorObject&lt;T&gt;"><rect codeLine="5" fill="#F1F1F1" height="32" id="SensorObject&lt;T&gt;" rx="2.5" ry="2.5" style="stroke:#181818;stroke-width:0.5;" width="158" x="176" y="242"/><ellipse cx="191" cy="258" fill="#A9DCDF" rx="11" ry="11" style="stroke:#181818;stroke-width:1.0;"/><path d="M191.1094,253.3438 L189.9531,258.4219 L192.2813,258.4219 L191.1094,253.3438 Z M189.625,251.1094 L192.6094,251.1094 L195.9688,263.5 L193.5156,263.5 L192.75,260.4375 L189.4688,260.4375 L188.7188,263.5 L186.2813,263.5 L189.625,251.1094 Z " fill="#000000"/><text fill="#000000" font-family="sans-serif" font-size="14" font-style="italic" lengthAdjust="spacing" textLength="126" x="205" y="262.8467">SensorObject&lt;T&gt;</text></g><!--class DataObject--><g id="elem_DataObject"><rect codeLine="7" fill="#F1F1F1" height="32" id="DataObject" rx="2.5" ry="2.5" style="stroke:#181818;stroke-width:0.5;" width="109" x="7" y="242"/><ellipse cx="22" cy="258" fill="#ADD1B2" rx="11" ry="11" style="stroke:#181818;stroke-width:1.0;"/><path d="M24.9688,263.6406 Q24.3906,263.9375 23.75,264.0781 Q23.1094,264.2344 22.4063,264.2344 Q19.9063,264.2344 18.5781,262.5938 Q17.2656,260.9375 17.2656,257.8125 Q17.2656,254.6875 18.5781,253.0313 Q19.9063,251.375 22.4063,251.375 Q23.1094,251.375 23.75,251.5313 Q24.4063,251.6875 24.9688,251.9844 L24.9688,254.7031 Q24.3438,254.125 23.75,253.8594 Q23.1563,253.5781 22.5313,253.5781 Q21.1875,253.5781 20.5,254.6563 Q19.8125,255.7188 19.8125,257.8125 Q19.8125,259.9063 20.5,260.9844 Q21.1875,262.0469 22.5313,262.0469 Q23.1563,262.0469 23.75,261.7813 Q24.3438,261.5 24.9688,260.9219 L24.9688,263.6406 Z " fill="#000000"/><text fill="#000000" font-family="sans-serif" font-size="14" lengthAdjust="spacing" textLength="77" x="36" y="262.8467">DataObject</text></g><!--class Accelerometer--><g id="elem_Accelerometer"><rect codeLine="10" fill="#F1F1F1" height="32" id="Accelerometer" rx="2.5" ry="2.5" style="stroke:#181818;stroke-width:0.5;" width="133" x="436.5" y="7"/><ellipse cx="451.5" cy="23" fill="#ADD1B2" rx="11" ry="11" style="stroke:#181818;stroke-width:1.0;"/><path d="M454.4688,28.6406 Q453.8906,28.9375 453.25,29.0781 Q452.6094,29.2344 451.9063,29.2344 Q449.4063,29.2344 448.0781,27.5938 Q446.7656,25.9375 446.7656,22.8125 Q446.7656,19.6875 448.0781,18.0313 Q449.4063,16.375 451.9063,16.375 Q452.6094,16.375 453.25,16.5313 Q453.9063,16.6875 454.4688,16.9844 L454.4688,19.7031 Q453.8438,19.125 453.25,18.8594 Q452.6563,18.5781 452.0313,18.5781 Q450.6875,18.5781 450,19.6563 Q449.3125,20.7188 449.3125,22.8125 Q449.3125,24.9063 450,25.9844 Q450.6875,27.0469 452.0313,27.0469 Q452.6563,27.0469 453.25,26.7813 Q453.8438,26.5 454.4688,25.9219 L454.4688,28.6406 Z " fill="#000000"/><text fill="#000000" font-family="sans-serif" font-size="14" lengthAdjust="spacing" textLength="101" x="465.5" y="27.8467">Accelerometer</text></g><!--class GravitySensor--><g id="elem_GravitySensor"><rect codeLine="13" fill="#F1F1F1" height="32" id="GravitySensor" rx="2.5" ry="2.5" style="stroke:#181818;stroke-width:0.5;" width="127" x="439.5" y="74"/><ellipse cx="454.5" cy="90" fill="#ADD1B2" rx="11" ry="11" style="stroke:#181818;stroke-width:1.0;"/><path d="M457.4688,95.6406 Q456.8906,95.9375 456.25,96.0781 Q455.6094,96.2344 454.9063,96.2344 Q452.4063,96.2344 451.0781,94.5938 Q449.7656,92.9375 449.7656,89.8125 Q449.7656,86.6875 451.0781,85.0313 Q452.4063,83.375 454.9063,83.375 Q455.6094,83.375 456.25,83.5313 Q456.9063,83.6875 457.4688,83.9844 L457.4688,86.7031 Q456.8438,86.125 456.25,85.8594 Q455.6563,85.5781 455.0313,85.5781 Q453.6875,85.5781 453,86.6563 Q452.3125,87.7188 452.3125,89.8125 Q452.3125,91.9063 453,92.9844 Q453.6875,94.0469 455.0313,94.0469 Q455.6563,94.0469 456.25,93.7813 Q456.8438,93.5 457.4688,92.9219 L457.4688,95.6406 Z " fill="#000000"/><text fill="#000000" font-family="sans-serif" font-size="14" lengthAdjust="spacing" textLength="95" x="468.5" y="94.8467">GravitySensor</text></g><!--class Gyroscope--><g id="elem_Gyroscope"><rect codeLine="16" fill="#F1F1F1" height="32" id="Gyroscope" rx="2.5" ry="2.5" style="stroke:#181818;stroke-width:0.5;" width="107" x="449.5" y="141"/><ellipse cx="464.5" cy="157" fill="#ADD1B2" rx="11" ry="11" style="stroke:#181818;stroke-width:1.0;"/><path d="M467.4688,162.6406 Q466.8906,162.9375 466.25,163.0781 Q465.6094,163.2344 464.9063,163.2344 Q462.4063,163.2344 461.0781,161.5938 Q459.7656,159.9375 459.7656,156.8125 Q459.7656,153.6875 461.0781,152.0313 Q462.4063,150.375 464.9063,150.375 Q465.6094,150.375 466.25,150.5313 Q466.9063,150.6875 467.4688,150.9844 L467.4688,153.7031 Q466.8438,153.125 466.25,152.8594 Q465.6563,152.5781 465.0313,152.5781 Q463.6875,152.5781 463,153.6563 Q462.3125,154.7188 462.3125,156.8125 Q462.3125,158.9063 463,159.9844 Q463.6875,161.0469 465.0313,161.0469 Q465.6563,161.0469 466.25,160.7813 Q466.8438,160.5 467.4688,159.9219 L467.4688,162.6406 Z " fill="#000000"/><text fill="#000000" font-family="sans-serif" font-size="14" lengthAdjust="spacing" textLength="75" x="478.5" y="161.8467">Gyroscope</text></g><!--class LinearAccelerationSensor--><g id="elem_LinearAccelerationSensor"><rect codeLine="19" fill="#F1F1F1" height="32" id="LinearAccelerationSensor" rx="2.5" ry="2.5" style="stroke:#181818;stroke-width:0.5;" width="207" x="399.5" y="208"/><ellipse cx="414.5" cy="224" fill="#ADD1B2" rx="11" ry="11" style="stroke:#181818;stroke-width:1.0;"/><path d="M417.4688,229.6406 Q416.8906,229.9375 416.25,230.0781 Q415.6094,230.2344 414.9063,230.2344 Q412.4063,230.2344 411.0781,228.5938 Q409.7656,226.9375 409.7656,223.8125 Q409.7656,220.6875 411.0781,219.0313 Q412.4063,217.375 414.9063,217.375 Q415.6094,217.375 416.25,217.5313 Q416.9063,217.6875 417.4688,217.9844 L417.4688,220.7031 Q416.8438,220.125 416.25,219.8594 Q415.6563,219.5781 415.0313,219.5781 Q413.6875,219.5781 413,220.6563 Q412.3125,221.7188 412.3125,223.8125 Q412.3125,225.9063 413,226.9844 Q413.6875,228.0469 415.0313,228.0469 Q415.6563,228.0469 416.25,227.7813 Q416.8438,227.5 417.4688,226.9219 L417.4688,229.6406 Z " fill="#000000"/><text fill="#000000" font-family="sans-serif" font-size="14" lengthAdjust="spacing" textLength="175" x="428.5" y="228.8467">LinearAccelerationSensor</text></g><!--class AbsoluteOrientationSensor--><g id="elem_AbsoluteOrientationSensor"><rect codeLine="22" fill="#F1F1F1" height="32" id="AbsoluteOrientationSensor" rx="2.5" ry="2.5" style="stroke:#181818;stroke-width:0.5;" width="218" x="394" y="275"/><ellipse cx="409" cy="291" fill="#ADD1B2" rx="11" ry="11" style="stroke:#181818;stroke-width:1.0;"/><path d="M411.9688,296.6406 Q411.3906,296.9375 410.75,297.0781 Q410.1094,297.2344 409.4063,297.2344 Q406.9063,297.2344 405.5781,295.5938 Q404.2656,293.9375 404.2656,290.8125 Q404.2656,287.6875 405.5781,286.0313 Q406.9063,284.375 409.4063,284.375 Q410.1094,284.375 410.75,284.5313 Q411.4063,284.6875 411.9688,284.9844 L411.9688,287.7031 Q411.3438,287.125 410.75,286.8594 Q410.1563,286.5781 409.5313,286.5781 Q408.1875,286.5781 407.5,287.6563 Q406.8125,288.7188 406.8125,290.8125 Q406.8125,292.9063 407.5,293.9844 Q408.1875,295.0469 409.5313,295.0469 Q410.1563,295.0469 410.75,294.7813 Q411.3438,294.5 411.9688,293.9219 L411.9688,296.6406 Z " fill="#000000"/><text fill="#000000" font-family="sans-serif" font-size="14" lengthAdjust="spacing" textLength="186" x="423" y="295.8467">AbsoluteOrientationSensor</text></g><!--class RelativeOrientationSensor--><g id="elem_RelativeOrientationSensor"><rect codeLine="25" fill="#F1F1F1" height="32" id="RelativeOrientationSensor" rx="2.5" ry="2.5" style="stroke:#181818;stroke-width:0.5;" width="211" x="397.5" y="342"/><ellipse cx="412.5" cy="358" fill="#ADD1B2" rx="11" ry="11" style="stroke:#181818;stroke-width:1.0;"/><path d="M415.4688,363.6406 Q414.8906,363.9375 414.25,364.0781 Q413.6094,364.2344 412.9063,364.2344 Q410.4063,364.2344 409.0781,362.5938 Q407.7656,360.9375 407.7656,357.8125 Q407.7656,354.6875 409.0781,353.0313 Q410.4063,351.375 412.9063,351.375 Q413.6094,351.375 414.25,351.5313 Q414.9063,351.6875 415.4688,351.9844 L415.4688,354.7031 Q414.8438,354.125 414.25,353.8594 Q413.6563,353.5781 413.0313,353.5781 Q411.6875,353.5781 411,354.6563 Q410.3125,355.7188 410.3125,357.8125 Q410.3125,359.9063 411,360.9844 Q411.6875,362.0469 413.0313,362.0469 Q413.6563,362.0469 414.25,361.7813 Q414.8438,361.5 415.4688,360.9219 L415.4688,363.6406 Z " fill="#000000"/><text fill="#000000" font-family="sans-serif" font-size="14" lengthAdjust="spacing" textLength="179" x="426.5" y="362.8467">RelativeOrientationSensor</text></g><!--class Magnetometer--><g id="elem_Magnetometer"><rect codeLine="28" fill="#F1F1F1" height="32" id="Magnetometer" rx="2.5" ry="2.5" style="stroke:#181818;stroke-width:0.5;" width="134" x="436" y="409"/><ellipse cx="451" cy="425" fill="#ADD1B2" rx="11" ry="11" style="stroke:#181818;stroke-width:1.0;"/><path d="M453.9688,430.6406 Q453.3906,430.9375 452.75,431.0781 Q452.1094,431.2344 451.4063,431.2344 Q448.9063,431.2344 447.5781,429.5938 Q446.2656,427.9375 446.2656,424.8125 Q446.2656,421.6875 447.5781,420.0313 Q448.9063,418.375 451.4063,418.375 Q452.1094,418.375 452.75,418.5313 Q453.4063,418.6875 453.9688,418.9844 L453.9688,421.7031 Q453.3438,421.125 452.75,420.8594 Q452.1563,420.5781 451.5313,420.5781 Q450.1875,420.5781 449.5,421.6563 Q448.8125,422.7188 448.8125,424.8125 Q448.8125,426.9063 449.5,427.9844 Q450.1875,429.0469 451.5313,429.0469 Q452.1563,429.0469 452.75,428.7813 Q453.3438,428.5 453.9688,427.9219 L453.9688,430.6406 Z " fill="#000000"/><text fill="#000000" font-family="sans-serif" font-size="14" lengthAdjust="spacing" textLength="102" x="465" y="429.8467">Magnetometer</text></g><!--class LinearVelocitySensor--><g id="elem_LinearVelocitySensor"><rect codeLine="31" fill="#F1F1F1" height="32" id="LinearVelocitySensor" rx="2.5" ry="2.5" style="stroke:#181818;stroke-width:0.5;" width="175" x="415.5" y="476"/><ellipse cx="430.5" cy="492" fill="#ADD1B2" rx="11" ry="11" style="stroke:#181818;stroke-width:1.0;"/><path d="M433.4688,497.6406 Q432.8906,497.9375 432.25,498.0781 Q431.6094,498.2344 430.9063,498.2344 Q428.4063,498.2344 427.0781,496.5938 Q425.7656,494.9375 425.7656,491.8125 Q425.7656,488.6875 427.0781,487.0313 Q428.4063,485.375 430.9063,485.375 Q431.6094,485.375 432.25,485.5313 Q432.9063,485.6875 433.4688,485.9844 L433.4688,488.7031 Q432.8438,488.125 432.25,487.8594 Q431.6563,487.5781 431.0313,487.5781 Q429.6875,487.5781 429,488.6563 Q428.3125,489.7188 428.3125,491.8125 Q428.3125,493.9063 429,494.9844 Q429.6875,496.0469 431.0313,496.0469 Q431.6563,496.0469 432.25,495.7813 Q432.8438,495.5 433.4688,494.9219 L433.4688,497.6406 Z " fill="#000000"/><text fill="#000000" font-family="sans-serif" font-size="14" lengthAdjust="spacing" textLength="143" x="444.5" y="496.8467">LinearVelocitySensor</text></g><!--reverse link DataObject to SensorObject<T>--><g id="link_DataObject_SensorObject&lt;T&gt;"><path codeLine="9" d="M136.4,258 C149.28,258 162.72,258 175.71,258 " fill="none" id="DataObject-backto-SensorObject&lt;T&gt;" style="stroke:#181818;stroke-width:1.0;"/><polygon fill="none" points="136.1,265,116.1,258,136.1,251,136.1,265" style="stroke:#181818;stroke-width:1.0;"/></g><!--reverse link SensorObject<T> to Accelerometer--><g id="link_SensorObject&lt;T&gt;_Accelerometer"><path codeLine="12" d="M270.64,223.51 C291.52,178.44 334.05,100.08 394,56 C406.48,46.83 421.54,40.17 436.4,35.35 " fill="none" id="SensorObject&lt;T&gt;-backto-Accelerometer" style="stroke:#181818;stroke-width:1.0;"/><polygon fill="none" points="277,226.46,262.48,241.9,264.2,220.78,277,226.46" style="stroke:#181818;stroke-width:1.0;"/></g><!--reverse link SensorObject<T> to GravitySensor--><g id="link_SensorObject&lt;T&gt;_GravitySensor"><path codeLine="15" d="M280.81,226.1 C306.18,195.53 348.25,150.15 394,123 C407.83,114.8 423.88,108.46 439.31,103.64 " fill="none" id="SensorObject&lt;T&gt;-backto-GravitySensor" style="stroke:#181818;stroke-width:1.0;"/><polygon fill="none" points="286.21,230.55,268.22,241.74,275.31,221.77,286.21,230.55" style="stroke:#181818;stroke-width:1.0;"/></g><!--reverse link SensorObject<T> to Gyroscope--><g id="link_SensorObject&lt;T&gt;_Gyroscope"><path codeLine="18" d="M302.96,232.51 C329.26,218.83 362.93,202.31 394,190 C411.68,183 431.47,176.56 449.23,171.27 " fill="none" id="SensorObject&lt;T&gt;-backto-Gyroscope" style="stroke:#181818;stroke-width:1.0;"/><polygon fill="none" points="306.21,238.71,285.25,241.86,299.67,226.33,306.21,238.71" style="stroke:#181818;stroke-width:1.0;"/></g><!--reverse link SensorObject<T> to LinearAccelerationSensor--><g id="link_SensorObject&lt;T&gt;_LinearAccelerationSensor"><path codeLine="21" d="M354.05,244.45 C368.92,242.39 384.3,240.27 399.26,238.2 " fill="none" id="SensorObject&lt;T&gt;-backto-LinearAccelerationSensor" style="stroke:#181818;stroke-width:1.0;"/><polygon fill="none" points="354.94,251.39,334.17,247.2,353.03,237.52,354.94,251.39" style="stroke:#181818;stroke-width:1.0;"/></g><!--reverse link SensorObject<T> to AbsoluteOrientationSensor--><g id="link_SensorObject&lt;T&gt;_AbsoluteOrientationSensor"><path codeLine="24" d="M354.26,271.18 C367.3,272.93 380.72,274.73 393.92,276.5 " fill="none" id="SensorObject&lt;T&gt;-backto-AbsoluteOrientationSensor" style="stroke:#181818;stroke-width:1.0;"/><polygon fill="none" points="353.07,278.08,334.17,268.49,354.93,264.21,353.07,278.08" style="stroke:#181818;stroke-width:1.0;"/></g><!--reverse link SensorObject<T> to RelativeOrientationSensor--><g id="link_SensorObject&lt;T&gt;_RelativeOrientationSensor"><path codeLine="27" d="M303.64,283.4 C329.86,296.8 363.23,312.91 394,325 C409.88,331.24 427.43,337.04 443.7,342 " fill="none" id="SensorObject&lt;T&gt;-backto-RelativeOrientationSensor" style="stroke:#181818;stroke-width:1.0;"/><polygon fill="none" points="300.08,289.44,285.55,274.01,306.53,277.01,300.08,289.44" style="stroke:#181818;stroke-width:1.0;"/></g><!--reverse link SensorObject<T> to Magnetometer--><g id="link_SensorObject&lt;T&gt;_Magnetometer"><path codeLine="30" d="M280.86,289.66 C306.26,319.99 348.36,365.04 394,392 C406.83,399.58 421.56,405.57 435.93,410.24 " fill="none" id="SensorObject&lt;T&gt;-backto-Magnetometer" style="stroke:#181818;stroke-width:1.0;"/><polygon fill="none" points="275.43,294.07,268.24,274.13,286.29,285.24,275.43,294.07" style="stroke:#181818;stroke-width:1.0;"/></g><!--reverse link SensorObject<T> to LinearVelocitySensor--><g id="link_SensorObject&lt;T&gt;_LinearVelocitySensor"><path codeLine="33" d="M270.69,292.31 C291.61,337.16 334.2,415.14 394,459 C403.56,466.02 414.64,471.56 425.98,475.93 " fill="none" id="SensorObject&lt;T&gt;-backto-LinearVelocitySensor" style="stroke:#181818;stroke-width:1.0;"/><polygon fill="none" points="264.28,295.14,262.51,274.02,277.06,289.42,264.28,295.14" style="stroke:#181818;stroke-width:1.0;"/></g><!--SRC=[bP7FQiCm38VlUGhHUz-W3FO7Tjaeh6DtnL4JhuuLPBKGshtxF1A7cIvRTlr9toSXXOFr7GgsS8VcK0iVVNNFZWLKq8TO8g-5exs2CeYj6uNA2Xcrx8l6LWJKTjf3Izfm5Rv7Uqik9bY6w38Anc48iDgH3opRyZrADgytApWN7yLOUq35eJB4MR2vhDVNU49lZI57md4Haf6-6ZKeyjOaU1GyMUq7vdT1tZe9Uk5WkAC_uAajWK_M4ygu5NvTTiaIizHqaJAmEofjnSOdBlREOqdyGYx6f_-Avx4aViRQaovvOTQPt_6D79k5Z_oH-0G0]--></g></svg>