<?xml version="1.0" encoding="UTF-8" standalone="no"?><svg xmlns="http://www.w3.org/2000/svg" xmlns:xlink="http://www.w3.org/1999/xlink" contentScriptType="application/ecmascript" contentStyleType="text/css" height="237px" preserveAspectRatio="none" style="width:1124px;height:237px;background:#00000000;" version="1.1" viewBox="0 0 1124 237" width="1124px" zoomAndPan="magnify"><defs><filter height="300%" id="f1ow347ycrcdsw" width="300%" x="-1" y="-1"><feGaussianBlur result="blurOut" stdDeviation="2.0"/><feColorMatrix in="blurOut" result="blurOut2" type="matrix" values="0 0 0 0 0 0 0 0 0 0 0 0 0 0 0 0 0 0 .4 0"/><feOffset dx="4.0" dy="4.0" in="blurOut2" result="blurOut3"/><feBlend in="SourceGraphic" in2="blurOut3" mode="normal"/></filter></defs><g><!--MD5=[6eee01115da8f7fcb68946e8bd3dd2dd]
class SensorObject--><rect codeLine="4" fill="#FEFECE" filter="url(#f1ow347ycrcdsw)" height="32" id="SensorObject" style="stroke:#A80036;stroke-width:1.5;" width="114" x="400.5" y="99"/><ellipse cx="415.5" cy="115" fill="#A9DCDF" rx="11" ry="11" style="stroke:#A80036;stroke-width:1.0;"/><path d="M415.6094,110.3438 L414.4531,115.4219 L416.7813,115.4219 L415.6094,110.3438 Z M414.125,108.1094 L417.1094,108.1094 L420.4688,120.5 L418.0156,120.5 L417.25,117.4375 L413.9688,117.4375 L413.2188,120.5 L410.7813,120.5 L414.125,108.1094 Z " fill="#000000"/><text fill="#000000" font-family="sans-serif" font-size="12" font-style="italic" lengthAdjust="spacing" textLength="82" x="429.5" y="119.1543">SensorObject</text><!--MD5=[b714e43f0cea490da1ab103313ecf250]
class DataObject--><rect codeLine="6" fill="#FEFECE" filter="url(#f1ow347ycrcdsw)" height="32" id="DataObject" style="stroke:#A80036;stroke-width:1.5;" width="102" x="406.5" y="7"/><ellipse cx="421.5" cy="23" fill="#ADD1B2" rx="11" ry="11" style="stroke:#A80036;stroke-width:1.0;"/><path d="M424.4688,28.6406 Q423.8906,28.9375 423.25,29.0781 Q422.6094,29.2344 421.9063,29.2344 Q419.4063,29.2344 418.0781,27.5938 Q416.7656,25.9375 416.7656,22.8125 Q416.7656,19.6875 418.0781,18.0313 Q419.4063,16.375 421.9063,16.375 Q422.6094,16.375 423.25,16.5313 Q423.9063,16.6875 424.4688,16.9844 L424.4688,19.7031 Q423.8438,19.125 423.25,18.8594 Q422.6563,18.5781 422.0313,18.5781 Q420.6875,18.5781 420,19.6563 Q419.3125,20.7188 419.3125,22.8125 Q419.3125,24.9063 420,25.9844 Q420.6875,27.0469 422.0313,27.0469 Q422.6563,27.0469 423.25,26.7813 Q423.8438,26.5 424.4688,25.9219 L424.4688,28.6406 Z " fill="#000000"/><text fill="#000000" font-family="sans-serif" font-size="12" lengthAdjust="spacing" textLength="70" x="435.5" y="27.1543">DataObject</text><!--MD5=[0ba84e53bd729611031e81c41ad2f1e8]
class Accelerometer--><rect codeLine="9" fill="#FEFECE" filter="url(#f1ow347ycrcdsw)" height="32" id="Accelerometer" style="stroke:#A80036;stroke-width:1.5;" width="123" x="7" y="191"/><ellipse cx="22" cy="207" fill="#ADD1B2" rx="11" ry="11" style="stroke:#A80036;stroke-width:1.0;"/><path d="M24.9688,212.6406 Q24.3906,212.9375 23.75,213.0781 Q23.1094,213.2344 22.4063,213.2344 Q19.9063,213.2344 18.5781,211.5938 Q17.2656,209.9375 17.2656,206.8125 Q17.2656,203.6875 18.5781,202.0313 Q19.9063,200.375 22.4063,200.375 Q23.1094,200.375 23.75,200.5313 Q24.4063,200.6875 24.9688,200.9844 L24.9688,203.7031 Q24.3438,203.125 23.75,202.8594 Q23.1563,202.5781 22.5313,202.5781 Q21.1875,202.5781 20.5,203.6563 Q19.8125,204.7188 19.8125,206.8125 Q19.8125,208.9063 20.5,209.9844 Q21.1875,211.0469 22.5313,211.0469 Q23.1563,211.0469 23.75,210.7813 Q24.3438,210.5 24.9688,209.9219 L24.9688,212.6406 Z " fill="#000000"/><text fill="#000000" font-family="sans-serif" font-size="12" lengthAdjust="spacing" textLength="91" x="36" y="211.1543">Accelerometer</text><!--MD5=[906aa53345b0d6bbb96d7fdc2337c0c0]
class GravitySensor--><rect codeLine="12" fill="#FEFECE" filter="url(#f1ow347ycrcdsw)" height="32" id="GravitySensor" style="stroke:#A80036;stroke-width:1.5;" width="118" x="165.5" y="191"/><ellipse cx="180.5" cy="207" fill="#ADD1B2" rx="11" ry="11" style="stroke:#A80036;stroke-width:1.0;"/><path d="M183.4688,212.6406 Q182.8906,212.9375 182.25,213.0781 Q181.6094,213.2344 180.9063,213.2344 Q178.4063,213.2344 177.0781,211.5938 Q175.7656,209.9375 175.7656,206.8125 Q175.7656,203.6875 177.0781,202.0313 Q178.4063,200.375 180.9063,200.375 Q181.6094,200.375 182.25,200.5313 Q182.9063,200.6875 183.4688,200.9844 L183.4688,203.7031 Q182.8438,203.125 182.25,202.8594 Q181.6563,202.5781 181.0313,202.5781 Q179.6875,202.5781 179,203.6563 Q178.3125,204.7188 178.3125,206.8125 Q178.3125,208.9063 179,209.9844 Q179.6875,211.0469 181.0313,211.0469 Q181.6563,211.0469 182.25,210.7813 Q182.8438,210.5 183.4688,209.9219 L183.4688,212.6406 Z " fill="#000000"/><text fill="#000000" font-family="sans-serif" font-size="12" lengthAdjust="spacing" textLength="86" x="194.5" y="211.1543">GravitySensor</text><!--MD5=[8eaa6a8ee8c6873283bef640c9b86333]
class Gyroscope--><rect codeLine="15" fill="#FEFECE" filter="url(#f1ow347ycrcdsw)" height="32" id="Gyroscope" style="stroke:#A80036;stroke-width:1.5;" width="98" x="318.5" y="191"/><ellipse cx="333.5" cy="207" fill="#ADD1B2" rx="11" ry="11" style="stroke:#A80036;stroke-width:1.0;"/><path d="M336.4688,212.6406 Q335.8906,212.9375 335.25,213.0781 Q334.6094,213.2344 333.9063,213.2344 Q331.4063,213.2344 330.0781,211.5938 Q328.7656,209.9375 328.7656,206.8125 Q328.7656,203.6875 330.0781,202.0313 Q331.4063,200.375 333.9063,200.375 Q334.6094,200.375 335.25,200.5313 Q335.9063,200.6875 336.4688,200.9844 L336.4688,203.7031 Q335.8438,203.125 335.25,202.8594 Q334.6563,202.5781 334.0313,202.5781 Q332.6875,202.5781 332,203.6563 Q331.3125,204.7188 331.3125,206.8125 Q331.3125,208.9063 332,209.9844 Q332.6875,211.0469 334.0313,211.0469 Q334.6563,211.0469 335.25,210.7813 Q335.8438,210.5 336.4688,209.9219 L336.4688,212.6406 Z " fill="#000000"/><text fill="#000000" font-family="sans-serif" font-size="12" lengthAdjust="spacing" textLength="66" x="347.5" y="211.1543">Gyroscope</text><!--MD5=[4d567bb5a1a9d78bfac82cd56ccea05c]
class LinaerAccelerationSensor--><rect codeLine="18" fill="#FEFECE" filter="url(#f1ow347ycrcdsw)" height="32" id="LinaerAccelerationSensor" style="stroke:#A80036;stroke-width:1.5;" width="192" x="451.5" y="191"/><ellipse cx="466.5" cy="207" fill="#ADD1B2" rx="11" ry="11" style="stroke:#A80036;stroke-width:1.0;"/><path d="M469.4688,212.6406 Q468.8906,212.9375 468.25,213.0781 Q467.6094,213.2344 466.9063,213.2344 Q464.4063,213.2344 463.0781,211.5938 Q461.7656,209.9375 461.7656,206.8125 Q461.7656,203.6875 463.0781,202.0313 Q464.4063,200.375 466.9063,200.375 Q467.6094,200.375 468.25,200.5313 Q468.9063,200.6875 469.4688,200.9844 L469.4688,203.7031 Q468.8438,203.125 468.25,202.8594 Q467.6563,202.5781 467.0313,202.5781 Q465.6875,202.5781 465,203.6563 Q464.3125,204.7188 464.3125,206.8125 Q464.3125,208.9063 465,209.9844 Q465.6875,211.0469 467.0313,211.0469 Q467.6563,211.0469 468.25,210.7813 Q468.8438,210.5 469.4688,209.9219 L469.4688,212.6406 Z " fill="#000000"/><text fill="#000000" font-family="sans-serif" font-size="12" lengthAdjust="spacing" textLength="160" x="480.5" y="211.1543">LinaerAccelerationSensor</text><!--MD5=[8d3e4484c622d7bcec2d07bd590eb8cc]
class AbsoluteOrientationSensor--><rect codeLine="21" fill="#FEFECE" filter="url(#f1ow347ycrcdsw)" height="32" id="AbsoluteOrientationSensor" style="stroke:#A80036;stroke-width:1.5;" width="201" x="679" y="191"/><ellipse cx="694" cy="207" fill="#ADD1B2" rx="11" ry="11" style="stroke:#A80036;stroke-width:1.0;"/><path d="M696.9688,212.6406 Q696.3906,212.9375 695.75,213.0781 Q695.1094,213.2344 694.4063,213.2344 Q691.9063,213.2344 690.5781,211.5938 Q689.2656,209.9375 689.2656,206.8125 Q689.2656,203.6875 690.5781,202.0313 Q691.9063,200.375 694.4063,200.375 Q695.1094,200.375 695.75,200.5313 Q696.4063,200.6875 696.9688,200.9844 L696.9688,203.7031 Q696.3438,203.125 695.75,202.8594 Q695.1563,202.5781 694.5313,202.5781 Q693.1875,202.5781 692.5,203.6563 Q691.8125,204.7188 691.8125,206.8125 Q691.8125,208.9063 692.5,209.9844 Q693.1875,211.0469 694.5313,211.0469 Q695.1563,211.0469 695.75,210.7813 Q696.3438,210.5 696.9688,209.9219 L696.9688,212.6406 Z " fill="#000000"/><text fill="#000000" font-family="sans-serif" font-size="12" lengthAdjust="spacing" textLength="169" x="708" y="211.1543">AbsoluteOrientationSensor</text><!--MD5=[3be2cebf2cd873a13207c6652c88861b]
class RelativeOrientationSensor--><rect codeLine="24" fill="#FEFECE" filter="url(#f1ow347ycrcdsw)" height="32" id="RelativeOrientationSensor" style="stroke:#A80036;stroke-width:1.5;" width="195" x="915" y="191"/><ellipse cx="930" cy="207" fill="#ADD1B2" rx="11" ry="11" style="stroke:#A80036;stroke-width:1.0;"/><path d="M932.9688,212.6406 Q932.3906,212.9375 931.75,213.0781 Q931.1094,213.2344 930.4063,213.2344 Q927.9063,213.2344 926.5781,211.5938 Q925.2656,209.9375 925.2656,206.8125 Q925.2656,203.6875 926.5781,202.0313 Q927.9063,200.375 930.4063,200.375 Q931.1094,200.375 931.75,200.5313 Q932.4063,200.6875 932.9688,200.9844 L932.9688,203.7031 Q932.3438,203.125 931.75,202.8594 Q931.1563,202.5781 930.5313,202.5781 Q929.1875,202.5781 928.5,203.6563 Q927.8125,204.7188 927.8125,206.8125 Q927.8125,208.9063 928.5,209.9844 Q929.1875,211.0469 930.5313,211.0469 Q931.1563,211.0469 931.75,210.7813 Q932.3438,210.5 932.9688,209.9219 L932.9688,212.6406 Z " fill="#000000"/><text fill="#000000" font-family="sans-serif" font-size="12" lengthAdjust="spacing" textLength="163" x="944" y="211.1543">RelativeOrientationSensor</text><!--MD5=[9e81f26081f983e3c24e873add28e21c]
reverse link DataObject to SensorObject--><path codeLine="8" d="M457.5,59.61 C457.5,73.31 457.5,88.22 457.5,98.96 " fill="none" id="DataObject-backto-SensorObject" style="stroke:#A80036;stroke-width:1.0;"/><polygon fill="none" points="450.5,59.27,457.5,39.27,464.5,59.27,450.5,59.27" style="stroke:#A80036;stroke-width:1.0;"/><!--MD5=[d7a45efbae964c54235677f94b3d1591]
reverse link SensorObject to Accelerometer--><path codeLine="11" d="M380.42,133.83 C307.08,150.8 198.13,176.01 130.32,191.7 " fill="none" id="SensorObject-backto-Accelerometer" style="stroke:#A80036;stroke-width:1.0;"/><polygon fill="none" points="379.04,126.97,400.1,129.28,382.19,140.61,379.04,126.97" style="stroke:#A80036;stroke-width:1.0;"/><!--MD5=[3cb24cf468a9efed08b455207337cd7c]
reverse link SensorObject to GravitySensor--><path codeLine="14" d="M399.83,138.27 C357.41,154.66 300.88,176.5 263.63,190.89 " fill="none" id="SensorObject-backto-GravitySensor" style="stroke:#A80036;stroke-width:1.0;"/><polygon fill="none" points="397.32,131.74,418.5,131.06,402.37,144.8,397.32,131.74" style="stroke:#A80036;stroke-width:1.0;"/><!--MD5=[0004215bff94efde5c85503b812bf8aa]
reverse link SensorObject to Gyroscope--><path codeLine="17" d="M427.73,145.77 C412.59,160.91 394.83,178.67 382.54,190.96 " fill="none" id="SensorObject-backto-Gyroscope" style="stroke:#A80036;stroke-width:1.0;"/><polygon fill="none" points="423.14,140.46,442.23,131.27,433.04,150.36,423.14,140.46" style="stroke:#A80036;stroke-width:1.0;"/><!--MD5=[5d2af69fb89af7748ec32131fda90dca]
reverse link SensorObject to LinaerAccelerationSensor--><path codeLine="20" d="M487.27,145.77 C502.41,160.91 520.17,178.67 532.46,190.96 " fill="none" id="SensorObject-backto-LinaerAccelerationSensor" style="stroke:#A80036;stroke-width:1.0;"/><polygon fill="none" points="481.96,150.36,472.77,131.27,491.86,140.46,481.96,150.36" style="stroke:#A80036;stroke-width:1.0;"/><!--MD5=[eca131215efc282eca65958699ee5d34]
reverse link SensorObject to AbsoluteOrientationSensor--><path codeLine="23" d="M530.95,136.53 C590.27,153.11 672.36,176.06 725.7,190.96 " fill="none" id="SensorObject-backto-AbsoluteOrientationSensor" style="stroke:#A80036;stroke-width:1.0;"/><polygon fill="none" points="528.77,143.19,511.4,131.06,532.54,129.71,528.77,143.19" style="stroke:#A80036;stroke-width:1.0;"/><!--MD5=[09770c8418d4023a18cb2793e426dc9e]
reverse link SensorObject to RelativeOrientationSensor--><path codeLine="26" d="M534.54,128.49 C635.27,144.83 811.57,173.42 919.59,190.93 " fill="none" id="SensorObject-backto-RelativeOrientationSensor" style="stroke:#A80036;stroke-width:1.0;"/><polygon fill="none" points="533.17,135.36,514.55,125.25,535.41,121.54,533.17,135.36" style="stroke:#A80036;stroke-width:1.0;"/><!--MD5=[5ea4adc33c15d63fe948b06ca39eef8a]
@startuml
skinparam BackgroundColor transparent
hide empty methods
hide empty fields
abstract class "SensorObject" {
}
class "DataObject" {
}
"DataObject" <|- - "SensorObject"
class "Accelerometer" {
}
"SensorObject" <|- - "Accelerometer"
class "GravitySensor" {
}
"SensorObject" <|- - "GravitySensor"
class "Gyroscope" {
}
"SensorObject" <|- - "Gyroscope"
class "LinaerAccelerationSensor" {
}
"SensorObject" <|- - "LinaerAccelerationSensor"
class "AbsoluteOrientationSensor" {
}
"SensorObject" <|- - "AbsoluteOrientationSensor"
class "RelativeOrientationSensor" {
}
"SensorObject" <|- - "RelativeOrientationSensor"
@enduml

PlantUML version 1.2021.14(Fri Nov 12 16:46:50 UTC 2021)
(GPL source distribution)
Java Runtime: OpenJDK Runtime Environment
JVM: OpenJDK 64-Bit Server VM
Default Encoding: UTF-8
Language: en
Country: null
--></g></svg>