<?xml version="1.0" encoding="us-ascii" standalone="no"?><svg xmlns="http://www.w3.org/2000/svg" xmlns:xlink="http://www.w3.org/1999/xlink" contentStyleType="text/css" height="448px" preserveAspectRatio="none" style="width:510px;height:448px;" version="1.1" viewBox="0 0 510 448" width="510px" zoomAndPan="magnify"><defs/><g><!--class SensorValue<U>--><g id="elem_SensorValue&lt;U&gt;"><rect codeLine="5" fill="#F1F1F1" height="32" id="SensorValue&lt;U&gt;" rx="2.5" ry="2.5" style="stroke:#181818;stroke-width:0.5;" width="153" x="153" y="208"/><ellipse cx="168" cy="224" fill="#ADD1B2" rx="11" ry="11" style="stroke:#181818;stroke-width:1.0;"/><path d="M170.9688,229.6406 Q170.3906,229.9375 169.75,230.0781 Q169.1094,230.2344 168.4063,230.2344 Q165.9063,230.2344 164.5781,228.5938 Q163.2656,226.9375 163.2656,223.8125 Q163.2656,220.6875 164.5781,219.0313 Q165.9063,217.375 168.4063,217.375 Q169.1094,217.375 169.75,217.5313 Q170.4063,217.6875 170.9688,217.9844 L170.9688,220.7031 Q170.3438,220.125 169.75,219.8594 Q169.1563,219.5781 168.5313,219.5781 Q167.1875,219.5781 166.5,220.6563 Q165.8125,221.7188 165.8125,223.8125 Q165.8125,225.9063 166.5,226.9844 Q167.1875,228.0469 168.5313,228.0469 Q169.1563,228.0469 169.75,227.7813 Q170.3438,227.5 170.9688,226.9219 L170.9688,229.6406 Z " fill="#000000"/><text fill="#000000" font-family="sans-serif" font-size="14" lengthAdjust="spacing" textLength="121" x="182" y="228.8467">SensorValue&lt;U&gt;</text></g><!--class Vector3--><g id="elem_Vector3"><rect codeLine="7" fill="#F1F1F1" height="32" id="Vector3" rx="2.5" ry="2.5" style="stroke:#181818;stroke-width:0.5;" width="86" x="7" y="208"/><ellipse cx="22" cy="224" fill="#ADD1B2" rx="11" ry="11" style="stroke:#181818;stroke-width:1.0;"/><path d="M24.9688,229.6406 Q24.3906,229.9375 23.75,230.0781 Q23.1094,230.2344 22.4063,230.2344 Q19.9063,230.2344 18.5781,228.5938 Q17.2656,226.9375 17.2656,223.8125 Q17.2656,220.6875 18.5781,219.0313 Q19.9063,217.375 22.4063,217.375 Q23.1094,217.375 23.75,217.5313 Q24.4063,217.6875 24.9688,217.9844 L24.9688,220.7031 Q24.3438,220.125 23.75,219.8594 Q23.1563,219.5781 22.5313,219.5781 Q21.1875,219.5781 20.5,220.6563 Q19.8125,221.7188 19.8125,223.8125 Q19.8125,225.9063 20.5,226.9844 Q21.1875,228.0469 22.5313,228.0469 Q23.1563,228.0469 23.75,227.7813 Q24.3438,227.5 24.9688,226.9219 L24.9688,229.6406 Z " fill="#000000"/><text fill="#000000" font-family="sans-serif" font-size="14" lengthAdjust="spacing" textLength="54" x="36" y="228.8467">Vector3</text></g><!--class AngularVelocity--><g id="elem_AngularVelocity"><rect codeLine="10" fill="#F1F1F1" height="32" id="AngularVelocity" rx="2.5" ry="2.5" style="stroke:#181818;stroke-width:0.5;" width="137" x="366" y="7"/><ellipse cx="381" cy="23" fill="#ADD1B2" rx="11" ry="11" style="stroke:#181818;stroke-width:1.0;"/><path d="M383.9688,28.6406 Q383.3906,28.9375 382.75,29.0781 Q382.1094,29.2344 381.4063,29.2344 Q378.9063,29.2344 377.5781,27.5938 Q376.2656,25.9375 376.2656,22.8125 Q376.2656,19.6875 377.5781,18.0313 Q378.9063,16.375 381.4063,16.375 Q382.1094,16.375 382.75,16.5313 Q383.4063,16.6875 383.9688,16.9844 L383.9688,19.7031 Q383.3438,19.125 382.75,18.8594 Q382.1563,18.5781 381.5313,18.5781 Q380.1875,18.5781 379.5,19.6563 Q378.8125,20.7188 378.8125,22.8125 Q378.8125,24.9063 379.5,25.9844 Q380.1875,27.0469 381.5313,27.0469 Q382.1563,27.0469 382.75,26.7813 Q383.3438,26.5 383.9688,25.9219 L383.9688,28.6406 Z " fill="#000000"/><text fill="#000000" font-family="sans-serif" font-size="14" lengthAdjust="spacing" textLength="105" x="395" y="27.8467">AngularVelocity</text></g><!--class LinearVelocity--><g id="elem_LinearVelocity"><rect codeLine="13" fill="#F1F1F1" height="32" id="LinearVelocity" rx="2.5" ry="2.5" style="stroke:#181818;stroke-width:0.5;" width="126" x="371.5" y="74"/><ellipse cx="386.5" cy="90" fill="#ADD1B2" rx="11" ry="11" style="stroke:#181818;stroke-width:1.0;"/><path d="M389.4688,95.6406 Q388.8906,95.9375 388.25,96.0781 Q387.6094,96.2344 386.9063,96.2344 Q384.4063,96.2344 383.0781,94.5938 Q381.7656,92.9375 381.7656,89.8125 Q381.7656,86.6875 383.0781,85.0313 Q384.4063,83.375 386.9063,83.375 Q387.6094,83.375 388.25,83.5313 Q388.9063,83.6875 389.4688,83.9844 L389.4688,86.7031 Q388.8438,86.125 388.25,85.8594 Q387.6563,85.5781 387.0313,85.5781 Q385.6875,85.5781 385,86.6563 Q384.3125,87.7188 384.3125,89.8125 Q384.3125,91.9063 385,92.9844 Q385.6875,94.0469 387.0313,94.0469 Q387.6563,94.0469 388.25,93.7813 Q388.8438,93.5 389.4688,92.9219 L389.4688,95.6406 Z " fill="#000000"/><text fill="#000000" font-family="sans-serif" font-size="14" lengthAdjust="spacing" textLength="94" x="400.5" y="94.8467">LinearVelocity</text></g><!--class Acceleration--><g id="elem_Acceleration"><rect codeLine="16" fill="#F1F1F1" height="32" id="Acceleration" rx="2.5" ry="2.5" style="stroke:#181818;stroke-width:0.5;" width="117" x="376" y="141"/><ellipse cx="391" cy="157" fill="#ADD1B2" rx="11" ry="11" style="stroke:#181818;stroke-width:1.0;"/><path d="M393.9688,162.6406 Q393.3906,162.9375 392.75,163.0781 Q392.1094,163.2344 391.4063,163.2344 Q388.9063,163.2344 387.5781,161.5938 Q386.2656,159.9375 386.2656,156.8125 Q386.2656,153.6875 387.5781,152.0313 Q388.9063,150.375 391.4063,150.375 Q392.1094,150.375 392.75,150.5313 Q393.4063,150.6875 393.9688,150.9844 L393.9688,153.7031 Q393.3438,153.125 392.75,152.8594 Q392.1563,152.5781 391.5313,152.5781 Q390.1875,152.5781 389.5,153.6563 Q388.8125,154.7188 388.8125,156.8125 Q388.8125,158.9063 389.5,159.9844 Q390.1875,161.0469 391.5313,161.0469 Q392.1563,161.0469 392.75,160.7813 Q393.3438,160.5 393.9688,159.9219 L393.9688,162.6406 Z " fill="#000000"/><text fill="#000000" font-family="sans-serif" font-size="14" lengthAdjust="spacing" textLength="85" x="405" y="161.8467">Acceleration</text></g><!--class Magnetism--><g id="elem_Magnetism"><rect codeLine="19" fill="#F1F1F1" height="32" id="Magnetism" rx="2.5" ry="2.5" style="stroke:#181818;stroke-width:0.5;" width="108" x="380.5" y="208"/><ellipse cx="395.5" cy="224" fill="#ADD1B2" rx="11" ry="11" style="stroke:#181818;stroke-width:1.0;"/><path d="M398.4688,229.6406 Q397.8906,229.9375 397.25,230.0781 Q396.6094,230.2344 395.9063,230.2344 Q393.4063,230.2344 392.0781,228.5938 Q390.7656,226.9375 390.7656,223.8125 Q390.7656,220.6875 392.0781,219.0313 Q393.4063,217.375 395.9063,217.375 Q396.6094,217.375 397.25,217.5313 Q397.9063,217.6875 398.4688,217.9844 L398.4688,220.7031 Q397.8438,220.125 397.25,219.8594 Q396.6563,219.5781 396.0313,219.5781 Q394.6875,219.5781 394,220.6563 Q393.3125,221.7188 393.3125,223.8125 Q393.3125,225.9063 394,226.9844 Q394.6875,228.0469 396.0313,228.0469 Q396.6563,228.0469 397.25,227.7813 Q397.8438,227.5 398.4688,226.9219 L398.4688,229.6406 Z " fill="#000000"/><text fill="#000000" font-family="sans-serif" font-size="14" lengthAdjust="spacing" textLength="76" x="409.5" y="228.8467">Magnetism</text></g><!--class Temperature--><g id="elem_Temperature"><rect codeLine="22" fill="#F1F1F1" height="32" id="Temperature" rx="2.5" ry="2.5" style="stroke:#181818;stroke-width:0.5;" width="122" x="373.5" y="275"/><ellipse cx="388.5" cy="291" fill="#ADD1B2" rx="11" ry="11" style="stroke:#181818;stroke-width:1.0;"/><path d="M391.4688,296.6406 Q390.8906,296.9375 390.25,297.0781 Q389.6094,297.2344 388.9063,297.2344 Q386.4063,297.2344 385.0781,295.5938 Q383.7656,293.9375 383.7656,290.8125 Q383.7656,287.6875 385.0781,286.0313 Q386.4063,284.375 388.9063,284.375 Q389.6094,284.375 390.25,284.5313 Q390.9063,284.6875 391.4688,284.9844 L391.4688,287.7031 Q390.8438,287.125 390.25,286.8594 Q389.6563,286.5781 389.0313,286.5781 Q387.6875,286.5781 387,287.6563 Q386.3125,288.7188 386.3125,290.8125 Q386.3125,292.9063 387,293.9844 Q387.6875,295.0469 389.0313,295.0469 Q389.6563,295.0469 390.25,294.7813 Q390.8438,294.5 391.4688,293.9219 L391.4688,296.6406 Z " fill="#000000"/><text fill="#000000" font-family="sans-serif" font-size="14" lengthAdjust="spacing" textLength="90" x="402.5" y="295.8467">Temperature</text></g><!--class Humidity--><g id="elem_Humidity"><rect codeLine="25" fill="#F1F1F1" height="32" id="Humidity" rx="2.5" ry="2.5" style="stroke:#181818;stroke-width:0.5;" width="91" x="389" y="342"/><ellipse cx="404" cy="358" fill="#ADD1B2" rx="11" ry="11" style="stroke:#181818;stroke-width:1.0;"/><path d="M406.9688,363.6406 Q406.3906,363.9375 405.75,364.0781 Q405.1094,364.2344 404.4063,364.2344 Q401.9063,364.2344 400.5781,362.5938 Q399.2656,360.9375 399.2656,357.8125 Q399.2656,354.6875 400.5781,353.0313 Q401.9063,351.375 404.4063,351.375 Q405.1094,351.375 405.75,351.5313 Q406.4063,351.6875 406.9688,351.9844 L406.9688,354.7031 Q406.3438,354.125 405.75,353.8594 Q405.1563,353.5781 404.5313,353.5781 Q403.1875,353.5781 402.5,354.6563 Q401.8125,355.7188 401.8125,357.8125 Q401.8125,359.9063 402.5,360.9844 Q403.1875,362.0469 404.5313,362.0469 Q405.1563,362.0469 405.75,361.7813 Q406.3438,361.5 406.9688,360.9219 L406.9688,363.6406 Z " fill="#000000"/><text fill="#000000" font-family="sans-serif" font-size="14" lengthAdjust="spacing" textLength="59" x="418" y="362.8467">Humidity</text></g><!--class Pressure--><g id="elem_Pressure"><rect codeLine="28" fill="#F1F1F1" height="32" id="Pressure" rx="2.5" ry="2.5" style="stroke:#181818;stroke-width:0.5;" width="94" x="387.5" y="409"/><ellipse cx="402.5" cy="425" fill="#ADD1B2" rx="11" ry="11" style="stroke:#181818;stroke-width:1.0;"/><path d="M405.4688,430.6406 Q404.8906,430.9375 404.25,431.0781 Q403.6094,431.2344 402.9063,431.2344 Q400.4063,431.2344 399.0781,429.5938 Q397.7656,427.9375 397.7656,424.8125 Q397.7656,421.6875 399.0781,420.0313 Q400.4063,418.375 402.9063,418.375 Q403.6094,418.375 404.25,418.5313 Q404.9063,418.6875 405.4688,418.9844 L405.4688,421.7031 Q404.8438,421.125 404.25,420.8594 Q403.6563,420.5781 403.0313,420.5781 Q401.6875,420.5781 401,421.6563 Q400.3125,422.7188 400.3125,424.8125 Q400.3125,426.9063 401,427.9844 Q401.6875,429.0469 403.0313,429.0469 Q403.6563,429.0469 404.25,428.7813 Q404.8438,428.5 405.4688,427.9219 L405.4688,430.6406 Z " fill="#000000"/><text fill="#000000" font-family="sans-serif" font-size="14" lengthAdjust="spacing" textLength="62" x="416.5" y="429.8467">Pressure</text></g><!--reverse link Vector3 to SensorValue<U>--><g id="link_Vector3_SensorValue&lt;U&gt;"><path codeLine="9" d="M113.45,224 C126.13,224 139.6,224 152.68,224 " fill="none" id="Vector3-backto-SensorValue&lt;U&gt;" style="stroke:#181818;stroke-width:1.0;"/><polygon fill="none" points="113.07,231,93.07,224,113.06,217,113.07,231" style="stroke:#181818;stroke-width:1.0;"/></g><!--reverse link SensorValue<U> to AngularVelocity--><g id="link_SensorValue&lt;U&gt;_AngularVelocity"><path codeLine="12" d="M250.73,191.01 C274.59,154.26 317.24,94.9 366,56 C374.16,49.49 383.81,43.83 393.22,39.12 " fill="none" id="SensorValue&lt;U&gt;-backto-AngularVelocity" style="stroke:#181818;stroke-width:1.0;"/><polygon fill="none" points="256.63,194.77,240.03,207.94,244.8,187.29,256.63,194.77" style="stroke:#181818;stroke-width:1.0;"/></g><!--reverse link SensorValue<U> to LinearVelocity--><g id="link_SensorValue&lt;U&gt;_LinearVelocity"><path codeLine="15" d="M265.61,194.99 C292.24,173.69 330.25,144.8 366,123 C375.91,116.96 387.09,111.13 397.46,106.09 " fill="none" id="SensorValue&lt;U&gt;-backto-LinearVelocity" style="stroke:#181818;stroke-width:1.0;"/><polygon fill="none" points="269.83,200.57,249.88,207.73,261.01,189.7,269.83,200.57" style="stroke:#181818;stroke-width:1.0;"/></g><!--reverse link SensorValue<U> to Acceleration--><g id="link_SensorValue&lt;U&gt;_Acceleration"><path codeLine="18" d="M298.45,201.57 C326.78,192.22 359.04,181.58 384.92,173.03 " fill="none" id="SensorValue&lt;U&gt;-backto-Acceleration" style="stroke:#181818;stroke-width:1.0;"/><polygon fill="none" points="300.31,208.33,279.12,207.95,295.92,195.04,300.31,208.33" style="stroke:#181818;stroke-width:1.0;"/></g><!--reverse link SensorValue<U> to Magnetism--><g id="link_SensorValue&lt;U&gt;_Magnetism"><path codeLine="21" d="M326.11,224 C344.76,224 363.68,224 380.33,224 " fill="none" id="SensorValue&lt;U&gt;-backto-Magnetism" style="stroke:#181818;stroke-width:1.0;"/><polygon fill="none" points="326.09,231,306.09,224,326.09,217,326.09,231" style="stroke:#181818;stroke-width:1.0;"/></g><!--reverse link SensorValue<U> to Temperature--><g id="link_SensorValue&lt;U&gt;_Temperature"><path codeLine="24" d="M298.45,246.43 C326.78,255.78 359.04,266.42 384.92,274.97 " fill="none" id="SensorValue&lt;U&gt;-backto-Temperature" style="stroke:#181818;stroke-width:1.0;"/><polygon fill="none" points="295.92,252.96,279.12,240.05,300.31,239.67,295.92,252.96" style="stroke:#181818;stroke-width:1.0;"/></g><!--reverse link SensorValue<U> to Humidity--><g id="link_SensorValue&lt;U&gt;_Humidity"><path codeLine="27" d="M265.61,253.01 C292.24,274.31 330.25,303.2 366,325 C375.91,331.04 387.09,336.87 397.46,341.91 " fill="none" id="SensorValue&lt;U&gt;-backto-Humidity" style="stroke:#181818;stroke-width:1.0;"/><polygon fill="none" points="261.01,258.3,249.88,240.27,269.83,247.43,261.01,258.3" style="stroke:#181818;stroke-width:1.0;"/></g><!--reverse link SensorValue<U> to Pressure--><g id="link_SensorValue&lt;U&gt;_Pressure"><path codeLine="30" d="M250.73,256.99 C274.59,293.74 317.24,353.1 366,392 C374.16,398.51 383.81,404.17 393.22,408.88 " fill="none" id="SensorValue&lt;U&gt;-backto-Pressure" style="stroke:#181818;stroke-width:1.0;"/><polygon fill="none" points="244.8,260.71,240.03,240.06,256.63,253.23,244.8,260.71" style="stroke:#181818;stroke-width:1.0;"/></g><!--SRC=[ZP0zJyD038Rt_0ghUoVM2WbO6412ecItxjp4wdrKjc-eMluxgSgbKP1InhEVvxNFkkTqGC48p-ZsdUII_4iEMS04amujIjO4sXbO1k6kD_0iv8npQdhs11GFTeH8rcUlqzAEAGmL5r0LLf-KD4kBeT3cwt45f-QxjjeXBil3jNPxRSxhzH-lEa-fAm6bfP0Ts_7NdG-vHipPcl76YVuPCKF7BPoZG8ANQoolC0Mh_OvT8cEDY-gDgjvskEybgmWjcbEkkgybih_tsn6greUGwhrn8_G3]--></g></svg>