<?xml version="1.0" encoding="UTF-8" standalone="no"?><svg xmlns="http://www.w3.org/2000/svg" xmlns:xlink="http://www.w3.org/1999/xlink" contentScriptType="application/ecmascript" contentStyleType="text/css" height="145px" preserveAspectRatio="none" style="width:186px;height:145px;background:#00000000;" version="1.1" viewBox="0 0 186 145" width="186px" zoomAndPan="magnify"><defs><filter height="300%" id="fpqypiqvf55hq" width="300%" x="-1" y="-1"><feGaussianBlur result="blurOut" stdDeviation="2.0"/><feColorMatrix in="blurOut" result="blurOut2" type="matrix" values="0 0 0 0 0 0 0 0 0 0 0 0 0 0 0 0 0 0 .4 0"/><feOffset dx="4.0" dy="4.0" in="blurOut2" result="blurOut3"/><feBlend in="SourceGraphic" in2="blurOut3" mode="normal"/></filter></defs><g><!--MD5=[84200095bb64f0effa3e0fa673067eb6]
class SensorSourceOptions--><rect codeLine="4" fill="#FEFECE" filter="url(#fpqypiqvf55hq)" height="32" id="SensorSourceOptions" style="stroke:#A80036;stroke-width:1.5;" width="165" x="7" y="99"/><ellipse cx="22" cy="115" fill="#B4A7E5" rx="11" ry="11" style="stroke:#A80036;stroke-width:1.0;"/><path d="M17.9219,110.7656 L17.9219,108.6094 L25.3125,108.6094 L25.3125,110.7656 L22.8438,110.7656 L22.8438,118.8438 L25.3125,118.8438 L25.3125,121 L17.9219,121 L17.9219,118.8438 L20.3906,118.8438 L20.3906,110.7656 L17.9219,110.7656 Z " fill="#000000"/><text fill="#000000" font-family="sans-serif" font-size="12" font-style="italic" lengthAdjust="spacing" textLength="133" x="36" y="119.1543">SensorSourceOptions</text><!--MD5=[2ce794d34c3bd0dbd6544d1249e177ac]
class SourceNodeOptions--><rect codeLine="6" fill="#FEFECE" filter="url(#fpqypiqvf55hq)" height="32" id="SourceNodeOptions" style="stroke:#A80036;stroke-width:1.5;" width="155" x="12" y="7"/><ellipse cx="27" cy="23" fill="#B4A7E5" rx="11" ry="11" style="stroke:#A80036;stroke-width:1.0;"/><path d="M22.9219,18.7656 L22.9219,16.6094 L30.3125,16.6094 L30.3125,18.7656 L27.8438,18.7656 L27.8438,26.8438 L30.3125,26.8438 L30.3125,29 L22.9219,29 L22.9219,26.8438 L25.3906,26.8438 L25.3906,18.7656 L22.9219,18.7656 Z " fill="#000000"/><text fill="#000000" font-family="sans-serif" font-size="12" font-style="italic" lengthAdjust="spacing" textLength="123" x="41" y="27.1543">SourceNodeOptions</text><!--MD5=[7451f20f9a3de6067fb6c13018b9976c]
reverse link SourceNodeOptions to SensorSourceOptions--><path codeLine="8" d="M89.5,59.61 C89.5,73.31 89.5,88.22 89.5,98.96 " fill="none" id="SourceNodeOptions-backto-SensorSourceOptions" style="stroke:#A80036;stroke-width:1.0;"/><polygon fill="none" points="82.5,59.27,89.5,39.27,96.5,59.27,82.5,59.27" style="stroke:#A80036;stroke-width:1.0;"/><!--MD5=[ed6f9f29701d7e47f598b2c81002bcf1]
@startuml
skinparam BackgroundColor transparent
hide empty methods
hide empty fields
interface "SensorSourceOptions" {
}
interface "SourceNodeOptions" {
}
"SourceNodeOptions" <|- - "SensorSourceOptions"
@enduml

PlantUML version 1.2021.14(Fri Nov 12 16:46:50 UTC 2021)
(GPL source distribution)
Java Runtime: OpenJDK Runtime Environment
JVM: OpenJDK 64-Bit Server VM
Default Encoding: UTF-8
Language: en
Country: null
--></g></svg>