<?xml version="1.0" encoding="UTF-8" standalone="no"?><svg xmlns="http://www.w3.org/2000/svg" xmlns:xlink="http://www.w3.org/1999/xlink" contentScriptType="application/ecmascript" contentStyleType="text/css" height="145px" preserveAspectRatio="none" style="width:379px;height:145px;background:#00000000;" version="1.1" viewBox="0 0 379 145" width="379px" zoomAndPan="magnify"><defs><filter height="300%" id="fh50gsl6dyxtp" width="300%" x="-1" y="-1"><feGaussianBlur result="blurOut" stdDeviation="2.0"/><feColorMatrix in="blurOut" result="blurOut2" type="matrix" values="0 0 0 0 0 0 0 0 0 0 0 0 0 0 0 0 0 0 .4 0"/><feOffset dx="4.0" dy="4.0" in="blurOut2" result="blurOut3"/><feBlend in="SourceGraphic" in2="blurOut3" mode="normal"/></filter></defs><g><!--MD5=[15176c50841b0f7b3aa98c1fc2094eb3]
class SerializableArrayMemberOptions--><rect codeLine="4" fill="#FEFECE" filter="url(#fh50gsl6dyxtp)" height="32" id="SerializableArrayMemberOptions" style="stroke:#A80036;stroke-width:1.5;" width="232" x="68" y="99"/><ellipse cx="83" cy="115" fill="#B4A7E5" rx="11" ry="11" style="stroke:#A80036;stroke-width:1.0;"/><path d="M78.9219,110.7656 L78.9219,108.6094 L86.3125,108.6094 L86.3125,110.7656 L83.8438,110.7656 L83.8438,118.8438 L86.3125,118.8438 L86.3125,121 L78.9219,121 L78.9219,118.8438 L81.3906,118.8438 L81.3906,110.7656 L78.9219,110.7656 Z " fill="#000000"/><text fill="#000000" font-family="sans-serif" font-size="12" font-style="italic" lengthAdjust="spacing" textLength="200" x="97" y="119.1543">SerializableArrayMemberOptions</text><!--MD5=[f627c81427830b5190d21a5c6a35de66]
class MemberOptionsBase--><rect codeLine="6" fill="#FEFECE" filter="url(#fh50gsl6dyxtp)" height="32" id="MemberOptionsBase" style="stroke:#A80036;stroke-width:1.5;" width="158" x="7" y="7"/><ellipse cx="22" cy="23" fill="#B4A7E5" rx="11" ry="11" style="stroke:#A80036;stroke-width:1.0;"/><path d="M17.9219,18.7656 L17.9219,16.6094 L25.3125,16.6094 L25.3125,18.7656 L22.8438,18.7656 L22.8438,26.8438 L25.3125,26.8438 L25.3125,29 L17.9219,29 L17.9219,26.8438 L20.3906,26.8438 L20.3906,18.7656 L17.9219,18.7656 Z " fill="#000000"/><text fill="#000000" font-family="sans-serif" font-size="12" font-style="italic" lengthAdjust="spacing" textLength="126" x="36" y="27.1543">MemberOptionsBase</text><!--MD5=[e4ce4c27a9335e89d5822e7cb30a0046]
class IJsonArrayMemberOptions--><rect codeLine="9" fill="#FEFECE" filter="url(#fh50gsl6dyxtp)" height="23.9688" id="IJsonArrayMemberOptions" style="stroke:#A80036;stroke-width:1.5;" width="165" x="200.5" y="11"/><text fill="#000000" font-family="sans-serif" font-size="12" lengthAdjust="spacing" textLength="159" x="203.5" y="27.1387">IJsonArrayMemberOptions</text><!--MD5=[62883e92593202d4a97ec02fdc9c0dd8]
reverse link MemberOptionsBase to SerializableArrayMemberOptions--><path codeLine="8" d="M117.38,52.81 C134.09,68.16 153.96,86.41 167.62,98.96 " fill="none" id="MemberOptionsBase-backto-SerializableArrayMemberOptions" style="stroke:#A80036;stroke-width:1.0;"/><polygon fill="none" points="112.62,57.95,102.62,39.27,122.09,47.64,112.62,57.95" style="stroke:#A80036;stroke-width:1.0;"/><!--MD5=[3904f4274e1b11507b5ebf130dc42fef]
reverse link IJsonArrayMemberOptions to SerializableArrayMemberOptions--><path codeLine="11" d="M256.04,48.51 C238.3,64.64 215.65,85.23 200.53,98.97 " fill="none" id="IJsonArrayMemberOptions-backto-SerializableArrayMemberOptions" style="stroke:#A80036;stroke-width:1.0;"/><polygon fill="none" points="251.35,43.31,270.86,35.04,260.77,53.67,251.35,43.31" style="stroke:#A80036;stroke-width:1.0;"/><!--MD5=[a9fcec7675f42cf7e241519879ca047d]
@startuml
skinparam BackgroundColor transparent
hide empty methods
hide empty fields
interface "SerializableArrayMemberOptions" {
}
interface "MemberOptionsBase" {
}
"MemberOptionsBase" <|- - "SerializableArrayMemberOptions"
class "IJsonArrayMemberOptions"
hide "IJsonArrayMemberOptions" circle
"IJsonArrayMemberOptions" <|- - "SerializableArrayMemberOptions"
@enduml

PlantUML version 1.2021.14(Fri Nov 12 16:46:50 UTC 2021)
(GPL source distribution)
Java Runtime: OpenJDK Runtime Environment
JVM: OpenJDK 64-Bit Server VM
Default Encoding: UTF-8
Language: en
Country: null
--></g></svg>