<?xml version="1.0" encoding="us-ascii" standalone="no"?><svg xmlns="http://www.w3.org/2000/svg" xmlns:xlink="http://www.w3.org/1999/xlink" contentStyleType="text/css" height="138px" preserveAspectRatio="none" style="width:408px;height:138px;" version="1.1" viewBox="0 0 408 138" width="408px" zoomAndPan="magnify"><defs/><g><!--class SerializableArrayMemberOptions--><g id="elem_SerializableArrayMemberOptions"><rect codeLine="4" fill="#F1F1F1" height="32" id="SerializableArrayMemberOptions" rx="2.5" ry="2.5" style="stroke:#181818;stroke-width:0.5;" width="254" x="75" y="99"/><ellipse cx="90" cy="115" fill="#B4A7E5" rx="11" ry="11" style="stroke:#181818;stroke-width:1.0;"/><path d="M85.9219,110.7656 L85.9219,108.6094 L93.3125,108.6094 L93.3125,110.7656 L90.8438,110.7656 L90.8438,118.8438 L93.3125,118.8438 L93.3125,121 L85.9219,121 L85.9219,118.8438 L88.3906,118.8438 L88.3906,110.7656 L85.9219,110.7656 Z " fill="#000000"/><text fill="#000000" font-family="sans-serif" font-size="14" font-style="italic" lengthAdjust="spacing" textLength="222" x="104" y="119.8467">SerializableArrayMemberOptions</text></g><!--class MemberOptionsBase--><g id="elem_MemberOptionsBase"><rect codeLine="6" fill="#F1F1F1" height="32" id="MemberOptionsBase" rx="2.5" ry="2.5" style="stroke:#181818;stroke-width:0.5;" width="176" x="7" y="7"/><ellipse cx="22" cy="23" fill="#B4A7E5" rx="11" ry="11" style="stroke:#181818;stroke-width:1.0;"/><path d="M17.9219,18.7656 L17.9219,16.6094 L25.3125,16.6094 L25.3125,18.7656 L22.8438,18.7656 L22.8438,26.8438 L25.3125,26.8438 L25.3125,29 L17.9219,29 L17.9219,26.8438 L20.3906,26.8438 L20.3906,18.7656 L17.9219,18.7656 Z " fill="#000000"/><text fill="#000000" font-family="sans-serif" font-size="14" font-style="italic" lengthAdjust="spacing" textLength="144" x="36" y="27.8467">MemberOptionsBase</text></g><!--class IJsonArrayMemberOptions--><g id="elem_IJsonArrayMemberOptions"><rect codeLine="9" fill="#F1F1F1" height="26.2969" id="IJsonArrayMemberOptions" rx="2.5" ry="2.5" style="stroke:#181818;stroke-width:0.5;" width="183" x="218.5" y="10"/><text fill="#000000" font-family="sans-serif" font-size="14" lengthAdjust="spacing" textLength="177" x="221.5" y="27.9951">IJsonArrayMemberOptions</text></g><!--reverse link MemberOptionsBase to SerializableArrayMemberOptions--><g id="link_MemberOptionsBase_SerializableArrayMemberOptions"><path codeLine="8" d="M128.69,52.34 C147.06,67.79 169.04,86.28 184.12,98.96 " fill="none" id="MemberOptionsBase-backto-SerializableArrayMemberOptions" style="stroke:#181818;stroke-width:1.0;"/><polygon fill="none" points="123.95,57.5,113.15,39.27,132.96,46.78,123.95,57.5" style="stroke:#181818;stroke-width:1.0;"/></g><!--reverse link IJsonArrayMemberOptions to SerializableArrayMemberOptions--><g id="link_IJsonArrayMemberOptions_SerializableArrayMemberOptions"><path codeLine="11" d="M279.93,49.06 C260.78,65.01 236.6,85.16 220.3,98.75 " fill="none" id="IJsonArrayMemberOptions-backto-SerializableArrayMemberOptions" style="stroke:#181818;stroke-width:1.0;"/><polygon fill="none" points="275.59,43.56,295.43,36.14,284.55,54.32,275.59,43.56" style="stroke:#181818;stroke-width:1.0;"/></g><!--SRC=[ZOuz3e9044RxFSM4dXlOY9Kcni8J3CiW4tPdoSnQuC_T9TfW0j7slPSld_Ki0of6gD3t5qrNQNOf98MiA3OfakmwRWWe3dc4IBbBZSrHonGcmf99M_G4nPcKCV0Dwq1RLHoF56lIqv0vYHLmTyzv_cKhDFeKItppACkV-yu7D8DYVx0aI_vzVbM3P_M1t7hmruiN]--></g></svg>