<?xml version="1.0" encoding="UTF-8" standalone="no"?><svg xmlns="http://www.w3.org/2000/svg" xmlns:xlink="http://www.w3.org/1999/xlink" contentScriptType="application/ecmascript" contentStyleType="text/css" height="340px" preserveAspectRatio="none" style="width:389px;height:340px;background:#00000000;" version="1.1" viewBox="0 0 389 340" width="389px" zoomAndPan="magnify"><defs><filter height="300%" id="f1xbwt64sui79" width="300%" x="-1" y="-1"><feGaussianBlur result="blurOut" stdDeviation="2.0"/><feColorMatrix in="blurOut" result="blurOut2" type="matrix" values="0 0 0 0 0 0 0 0 0 0 0 0 0 0 0 0 0 0 .4 0"/><feOffset dx="4.0" dy="4.0" in="blurOut2" result="blurOut3"/><feBlend in="SourceGraphic" in2="blurOut3" mode="normal"/></filter></defs><g><!--MD5=[2c1de09005861cd8df4de94b5de21751]
class SerializableSetMemberOptions--><rect codeLine="4" fill="#FEFECE" filter="url(#f1xbwt64sui79)" height="129.6328" id="SerializableSetMemberOptions" style="stroke:#A80036;stroke-width:1.5;" width="220" x="87.5" y="197"/><ellipse cx="102.5" cy="213" fill="#B4A7E5" rx="11" ry="11" style="stroke:#A80036;stroke-width:1.0;"/><path d="M98.4219,208.7656 L98.4219,206.6094 L105.8125,206.6094 L105.8125,208.7656 L103.3438,208.7656 L103.3438,216.8438 L105.8125,216.8438 L105.8125,219 L98.4219,219 L98.4219,216.8438 L100.8906,216.8438 L100.8906,208.7656 L98.4219,208.7656 Z " fill="#000000"/><text fill="#000000" font-family="sans-serif" font-size="12" font-style="italic" lengthAdjust="spacing" textLength="188" x="116.5" y="217.1543">SerializableSetMemberOptions</text><line style="stroke:#A80036;stroke-width:1.5;" x1="88.5" x2="306.5" y1="229" y2="229"/><ellipse cx="98.5" cy="240" rx="3" ry="3" style="stroke:#038048;stroke-width:1.0;fill:none;"/><text fill="#000000" font-family="sans-serif" font-size="11" lengthAdjust="spacing" textLength="123" x="107.5" y="243.2104">constructor : Typelike</text><ellipse cx="98.5" cy="252.8047" rx="3" ry="3" style="stroke:#038048;stroke-width:1.0;fill:none;"/><text fill="#000000" font-family="sans-serif" font-size="11" lengthAdjust="spacing" textLength="125" x="107.5" y="256.0151">deserializer : Function</text><ellipse cx="98.5" cy="265.6094" rx="3" ry="3" style="stroke:#038048;stroke-width:1.0;fill:none;"/><text fill="#000000" font-family="sans-serif" font-size="11" lengthAdjust="spacing" textLength="153" x="107.5" y="268.8198">emitDefaultValue : boolean</text><ellipse cx="98.5" cy="278.4141" rx="3" ry="3" style="stroke:#038048;stroke-width:1.0;fill:none;"/><text fill="#000000" font-family="sans-serif" font-size="11" lengthAdjust="spacing" textLength="117" x="107.5" y="281.6245">isRequired : boolean</text><ellipse cx="98.5" cy="291.2188" rx="3" ry="3" style="stroke:#038048;stroke-width:1.0;fill:none;"/><text fill="#000000" font-family="sans-serif" font-size="11" lengthAdjust="spacing" textLength="77" x="107.5" y="294.4292">name : string</text><ellipse cx="98.5" cy="304.0234" rx="3" ry="3" style="stroke:#038048;stroke-width:1.0;fill:none;"/><text fill="#000000" font-family="sans-serif" font-size="11" lengthAdjust="spacing" textLength="129" x="107.5" y="307.2339">preserveNull : boolean</text><ellipse cx="98.5" cy="316.8281" rx="3" ry="3" style="stroke:#038048;stroke-width:1.0;fill:none;"/><text fill="#000000" font-family="sans-serif" font-size="11" lengthAdjust="spacing" textLength="111" x="107.5" y="320.0386">serializer : Function</text><!--MD5=[f627c81427830b5190d21a5c6a35de66]
class MemberOptionsBase--><rect codeLine="13" fill="#FEFECE" filter="url(#f1xbwt64sui79)" height="129.6328" id="MemberOptionsBase" style="stroke:#A80036;stroke-width:1.5;" width="179" x="7" y="7"/><ellipse cx="31.45" cy="23" fill="#B4A7E5" rx="11" ry="11" style="stroke:#A80036;stroke-width:1.0;"/><path d="M27.3719,18.7656 L27.3719,16.6094 L34.7625,16.6094 L34.7625,18.7656 L32.2938,18.7656 L32.2938,26.8438 L34.7625,26.8438 L34.7625,29 L27.3719,29 L27.3719,26.8438 L29.8406,26.8438 L29.8406,18.7656 L27.3719,18.7656 Z " fill="#000000"/><text fill="#000000" font-family="sans-serif" font-size="12" font-style="italic" lengthAdjust="spacing" textLength="126" x="47.55" y="27.1543">MemberOptionsBase</text><line style="stroke:#A80036;stroke-width:1.5;" x1="8" x2="185" y1="39" y2="39"/><ellipse cx="18" cy="50" rx="3" ry="3" style="stroke:#038048;stroke-width:1.0;fill:none;"/><text fill="#000000" font-family="sans-serif" font-size="11" lengthAdjust="spacing" textLength="123" x="27" y="53.2104">constructor : Typelike</text><ellipse cx="18" cy="62.8047" rx="3" ry="3" style="stroke:#038048;stroke-width:1.0;fill:none;"/><text fill="#000000" font-family="sans-serif" font-size="11" lengthAdjust="spacing" textLength="125" x="27" y="66.0151">deserializer : Function</text><ellipse cx="18" cy="75.6094" rx="3" ry="3" style="stroke:#038048;stroke-width:1.0;fill:none;"/><text fill="#000000" font-family="sans-serif" font-size="11" lengthAdjust="spacing" textLength="153" x="27" y="78.8198">emitDefaultValue : boolean</text><ellipse cx="18" cy="88.4141" rx="3" ry="3" style="stroke:#038048;stroke-width:1.0;fill:none;"/><text fill="#000000" font-family="sans-serif" font-size="11" lengthAdjust="spacing" textLength="117" x="27" y="91.6245">isRequired : boolean</text><ellipse cx="18" cy="101.2188" rx="3" ry="3" style="stroke:#038048;stroke-width:1.0;fill:none;"/><text fill="#000000" font-family="sans-serif" font-size="11" lengthAdjust="spacing" textLength="77" x="27" y="104.4292">name : string</text><ellipse cx="18" cy="114.0234" rx="3" ry="3" style="stroke:#038048;stroke-width:1.0;fill:none;"/><text fill="#000000" font-family="sans-serif" font-size="11" lengthAdjust="spacing" textLength="129" x="27" y="117.2339">preserveNull : boolean</text><ellipse cx="18" cy="126.8281" rx="3" ry="3" style="stroke:#038048;stroke-width:1.0;fill:none;"/><text fill="#000000" font-family="sans-serif" font-size="11" lengthAdjust="spacing" textLength="111" x="27" y="130.0386">serializer : Function</text><!--MD5=[0ffb8a686c1b0871ffaaec431d6aae78]
class IJsonSetMemberOptions--><rect codeLine="23" fill="#FEFECE" filter="url(#f1xbwt64sui79)" height="23.9688" id="IJsonSetMemberOptions" style="stroke:#A80036;stroke-width:1.5;" width="154" x="221.5" y="60"/><text fill="#000000" font-family="sans-serif" font-size="12" lengthAdjust="spacing" textLength="148" x="224.5" y="76.1387">IJsonSetMemberOptions</text><!--MD5=[71ff86877cfbba666467c3038d9ff7e6]
reverse link MemberOptionsBase to SerializableSetMemberOptions--><path codeLine="22" d="M140.65,155.19 C148.14,169.12 155.82,183.41 163.01,196.8 " fill="none" id="MemberOptionsBase-backto-SerializableSetMemberOptions" style="stroke:#A80036;stroke-width:1.0;"/><polygon fill="none" points="134.27,158.1,130.98,137.17,146.61,151.48,134.27,158.1" style="stroke:#A80036;stroke-width:1.0;"/><!--MD5=[f539fd8e6f2f543a62d2c6a5434af0fc]
reverse link IJsonSetMemberOptions to SerializableSetMemberOptions--><path codeLine="25" d="M282.85,102.13 C269.31,127.34 249.24,164.69 231.97,196.84 " fill="none" id="IJsonSetMemberOptions-backto-SerializableSetMemberOptions" style="stroke:#A80036;stroke-width:1.0;"/><polygon fill="none" points="276.85,98.5,292.48,84.2,289.19,105.13,276.85,98.5" style="stroke:#A80036;stroke-width:1.0;"/><!--MD5=[25391526d729c6c8a840a0bf7739b660]
@startuml
skinparam BackgroundColor transparent
hide empty methods
hide empty fields
interface "SerializableSetMemberOptions" {
    +constructor : Typelike
    +deserializer : Function
    +emitDefaultValue : boolean
    +isRequired : boolean
    +name : string
    +preserveNull : boolean
    +serializer : Function
}
interface "MemberOptionsBase" {
    +constructor : Typelike
    +deserializer : Function
    +emitDefaultValue : boolean
    +isRequired : boolean
    +name : string
    +preserveNull : boolean
    +serializer : Function
}
"MemberOptionsBase" <|- - "SerializableSetMemberOptions"
class "IJsonSetMemberOptions"
hide "IJsonSetMemberOptions" circle
"IJsonSetMemberOptions" <|- - "SerializableSetMemberOptions"
@enduml

PlantUML version 1.2021.14(Fri Nov 12 16:46:50 UTC 2021)
(GPL source distribution)
Java Runtime: OpenJDK Runtime Environment
JVM: OpenJDK 64-Bit Server VM
Default Encoding: UTF-8
Language: en
Country: null
--></g></svg>