<?xml version="1.0" encoding="us-ascii" standalone="no"?><svg xmlns="http://www.w3.org/2000/svg" xmlns:xlink="http://www.w3.org/1999/xlink" contentStyleType="text/css" height="132px" preserveAspectRatio="none" style="width:253px;height:132px;" version="1.1" viewBox="0 0 253 132" width="253px" zoomAndPan="magnify"><defs/><g><!--class SerializableObjectOptions<T>--><g id="elem_SerializableObjectOptions&lt;T&gt;"><rect codeLine="4" fill="#F1F1F1" height="32" id="SerializableObjectOptions&lt;T&gt;" rx="2.5" ry="2.5" style="stroke:#181818;stroke-width:0.5;" width="239" x="7" y="93"/><ellipse cx="22" cy="109" fill="#B4A7E5" rx="11" ry="11" style="stroke:#181818;stroke-width:1.0;"/><path d="M17.9219,104.7656 L17.9219,102.6094 L25.3125,102.6094 L25.3125,104.7656 L22.8438,104.7656 L22.8438,112.8438 L25.3125,112.8438 L25.3125,115 L17.9219,115 L17.9219,112.8438 L20.3906,112.8438 L20.3906,104.7656 L17.9219,104.7656 Z " fill="#000000"/><text fill="#000000" font-family="sans-serif" font-size="14" font-style="italic" lengthAdjust="spacing" textLength="207" x="36" y="113.8467">SerializableObjectOptions&lt;T&gt;</text></g><!--class IJsonObjectOptions<T>--><g id="elem_IJsonObjectOptions&lt;T&gt;"><rect codeLine="6" fill="#F1F1F1" height="26.2969" id="IJsonObjectOptions&lt;T&gt;" rx="2.5" ry="2.5" style="stroke:#181818;stroke-width:0.5;" width="170" x="41.5" y="7"/><text fill="#000000" font-family="sans-serif" font-size="14" lengthAdjust="spacing" textLength="164" x="44.5" y="24.9951">IJsonObjectOptions&lt;T&gt;</text></g><!--reverse link IJsonObjectOptions<T> to SerializableObjectOptions<T>--><g id="link_IJsonObjectOptions&lt;T&gt;_SerializableObjectOptions&lt;T&gt;"><path codeLine="8" d="M126.5,53.37 C126.5,66.88 126.5,81.92 126.5,92.79 " fill="none" id="IJsonObjectOptions&lt;T&gt;-backto-SerializableObjectOptions&lt;T&gt;" style="stroke:#181818;stroke-width:1.0;"/><polygon fill="none" points="119.5,53.1,126.5,33.1,133.5,53.1,119.5,53.1" style="stroke:#181818;stroke-width:1.0;"/></g><!--SRC=[XOux3i9030NxFOMLFZU8AA229WLSmDbrYCd66zccu7Tt8j4WeOXsvcdqR6IPKN62BSRnhEKgQLToKN15iKMHU1Wu4T0q-mqcyg4a-qOzKru8YvFs60cg8obZvZjscThkGj7RsRc8DQTD1O_m2Z6Z6LJxWnNvMNpYAn8YQymKrdJphEi_3zu0]--></g></svg>