<?xml version="1.0" encoding="us-ascii" standalone="no"?><svg xmlns="http://www.w3.org/2000/svg" xmlns:xlink="http://www.w3.org/1999/xlink" contentStyleType="text/css" height="138px" preserveAspectRatio="none" style="width:397px;height:138px;" version="1.1" viewBox="0 0 397 138" width="397px" zoomAndPan="magnify"><defs/><g><!--class SerializableSetMemberOptions--><g id="elem_SerializableSetMemberOptions"><rect codeLine="4" fill="#F1F1F1" height="32" id="SerializableSetMemberOptions" rx="2.5" ry="2.5" style="stroke:#181818;stroke-width:0.5;" width="241" x="78.5" y="99"/><ellipse cx="93.5" cy="115" fill="#B4A7E5" rx="11" ry="11" style="stroke:#181818;stroke-width:1.0;"/><path d="M89.4219,110.7656 L89.4219,108.6094 L96.8125,108.6094 L96.8125,110.7656 L94.3438,110.7656 L94.3438,118.8438 L96.8125,118.8438 L96.8125,121 L89.4219,121 L89.4219,118.8438 L91.8906,118.8438 L91.8906,110.7656 L89.4219,110.7656 Z " fill="#000000"/><text fill="#000000" font-family="sans-serif" font-size="14" font-style="italic" lengthAdjust="spacing" textLength="209" x="107.5" y="119.8467">SerializableSetMemberOptions</text></g><!--class MemberOptionsBase--><g id="elem_MemberOptionsBase"><rect codeLine="6" fill="#F1F1F1" height="32" id="MemberOptionsBase" rx="2.5" ry="2.5" style="stroke:#181818;stroke-width:0.5;" width="176" x="7" y="7"/><ellipse cx="22" cy="23" fill="#B4A7E5" rx="11" ry="11" style="stroke:#181818;stroke-width:1.0;"/><path d="M17.9219,18.7656 L17.9219,16.6094 L25.3125,16.6094 L25.3125,18.7656 L22.8438,18.7656 L22.8438,26.8438 L25.3125,26.8438 L25.3125,29 L17.9219,29 L17.9219,26.8438 L20.3906,26.8438 L20.3906,18.7656 L17.9219,18.7656 Z " fill="#000000"/><text fill="#000000" font-family="sans-serif" font-size="14" font-style="italic" lengthAdjust="spacing" textLength="144" x="36" y="27.8467">MemberOptionsBase</text></g><!--class IJsonSetMemberOptions--><g id="elem_IJsonSetMemberOptions"><rect codeLine="9" fill="#F1F1F1" height="26.2969" id="IJsonSetMemberOptions" rx="2.5" ry="2.5" style="stroke:#181818;stroke-width:0.5;" width="172" x="218" y="10"/><text fill="#000000" font-family="sans-serif" font-size="14" lengthAdjust="spacing" textLength="166" x="221" y="27.9951">IJsonSetMemberOptions</text></g><!--reverse link MemberOptionsBase to SerializableSetMemberOptions--><g id="link_MemberOptionsBase_SerializableSetMemberOptions"><path codeLine="8" d="M128.02,52.58 C145.81,67.97 167.04,86.34 181.62,98.96 " fill="none" id="MemberOptionsBase-backto-SerializableSetMemberOptions" style="stroke:#181818;stroke-width:1.0;"/><polygon fill="none" points="123.18,57.65,112.64,39.27,132.35,47.06,123.18,57.65" style="stroke:#181818;stroke-width:1.0;"/></g><!--reverse link IJsonSetMemberOptions to SerializableSetMemberOptions--><g id="link_IJsonSetMemberOptions_SerializableSetMemberOptions"><path codeLine="11" d="M274.48,49.3 C255.91,65.22 232.56,85.23 216.79,98.75 " fill="none" id="IJsonSetMemberOptions-backto-SerializableSetMemberOptions" style="stroke:#181818;stroke-width:1.0;"/><polygon fill="none" points="270.1,43.84,289.84,36.14,279.21,54.47,270.1,43.84" style="stroke:#181818;stroke-width:1.0;"/></g><!--SRC=[ZOux3i9034JxFOMLFZUW2XL8Y28dS3OEiRAVo3P5-DoT29eWYA1zRpGpEd0QKJ12XNuuIJwdTfj35Z31fBEYPAxdbe3YQ1D4iZwtkaGTKvW99oFfq1CKDGbZu0isWMgo0yM6v3WQvwG5NDrz6Nwp5Igz4j_uvbQMFzgT3wWAnMwlENtQv-qL2Px51t9h-e_r1m00]--></g></svg>