<?xml version="1.0" encoding="us-ascii" standalone="no"?><svg xmlns="http://www.w3.org/2000/svg" xmlns:xlink="http://www.w3.org/1999/xlink" contentStyleType="text/css" height="138px" preserveAspectRatio="none" style="width:403px;height:138px;" version="1.1" viewBox="0 0 403 138" width="403px" zoomAndPan="magnify"><defs/><g><!--class SerializableMapMemberOptions--><g id="elem_SerializableMapMemberOptions"><rect codeLine="4" fill="#F1F1F1" height="32" id="SerializableMapMemberOptions" rx="2.5" ry="2.5" style="stroke:#181818;stroke-width:0.5;" width="247" x="77.5" y="99"/><ellipse cx="92.5" cy="115" fill="#B4A7E5" rx="11" ry="11" style="stroke:#181818;stroke-width:1.0;"/><path d="M88.4219,110.7656 L88.4219,108.6094 L95.8125,108.6094 L95.8125,110.7656 L93.3438,110.7656 L93.3438,118.8438 L95.8125,118.8438 L95.8125,121 L88.4219,121 L88.4219,118.8438 L90.8906,118.8438 L90.8906,110.7656 L88.4219,110.7656 Z " fill="#000000"/><text fill="#000000" font-family="sans-serif" font-size="14" font-style="italic" lengthAdjust="spacing" textLength="215" x="106.5" y="119.8467">SerializableMapMemberOptions</text></g><!--class MemberOptionsBase--><g id="elem_MemberOptionsBase"><rect codeLine="6" fill="#F1F1F1" height="32" id="MemberOptionsBase" rx="2.5" ry="2.5" style="stroke:#181818;stroke-width:0.5;" width="176" x="7" y="7"/><ellipse cx="22" cy="23" fill="#B4A7E5" rx="11" ry="11" style="stroke:#181818;stroke-width:1.0;"/><path d="M17.9219,18.7656 L17.9219,16.6094 L25.3125,16.6094 L25.3125,18.7656 L22.8438,18.7656 L22.8438,26.8438 L25.3125,26.8438 L25.3125,29 L17.9219,29 L17.9219,26.8438 L20.3906,26.8438 L20.3906,18.7656 L17.9219,18.7656 Z " fill="#000000"/><text fill="#000000" font-family="sans-serif" font-size="14" font-style="italic" lengthAdjust="spacing" textLength="144" x="36" y="27.8467">MemberOptionsBase</text></g><!--class IJsonMapMemberOptions--><g id="elem_IJsonMapMemberOptions"><rect codeLine="9" fill="#F1F1F1" height="26.2969" id="IJsonMapMemberOptions" rx="2.5" ry="2.5" style="stroke:#181818;stroke-width:0.5;" width="178" x="218" y="10"/><text fill="#000000" font-family="sans-serif" font-size="14" lengthAdjust="spacing" textLength="172" x="221" y="27.9951">IJsonMapMemberOptions</text></g><!--reverse link MemberOptionsBase to SerializableMapMemberOptions--><g id="link_MemberOptionsBase_SerializableMapMemberOptions"><path codeLine="8" d="M128.38,52.34 C146.57,67.79 168.35,86.28 183.28,98.96 " fill="none" id="MemberOptionsBase-backto-SerializableMapMemberOptions" style="stroke:#181818;stroke-width:1.0;"/><polygon fill="none" points="123.7,57.55,112.98,39.27,132.76,46.88,123.7,57.55" style="stroke:#181818;stroke-width:1.0;"/></g><!--reverse link IJsonMapMemberOptions to SerializableMapMemberOptions--><g id="link_IJsonMapMemberOptions_SerializableMapMemberOptions"><path codeLine="11" d="M277.2,49.3 C258.45,65.22 234.88,85.23 218.96,98.75 " fill="none" id="IJsonMapMemberOptions-backto-SerializableMapMemberOptions" style="stroke:#181818;stroke-width:1.0;"/><polygon fill="none" points="272.93,43.75,292.7,36.14,281.99,54.42,272.93,43.75" style="stroke:#181818;stroke-width:1.0;"/></g><!--SRC=[ZOux3i9034JxFOMLFZUW2XL84GKdC1k7MDdrhkobu7Tt8cY288BslT7CsCYIKJ52WtuyQZf9jquXAHH5iKcH53TmHq0nbpD4AaFgR8vwfZ0HbaBQeoUezgICWIzu2DHYRYaUI7UvS1AhuEhky_2RRT3ebVZ6LxUw_j7kV40pg3PRI_9fdxSN97XM7yWjwJ_M7m00]--></g></svg>