<?xml version="1.0" encoding="UTF-8" standalone="no"?><svg xmlns="http://www.w3.org/2000/svg" xmlns:xlink="http://www.w3.org/1999/xlink" contentScriptType="application/ecmascript" contentStyleType="text/css" height="145px" preserveAspectRatio="none" style="width:368px;height:145px;background:#00000000;" version="1.1" viewBox="0 0 368 145" width="368px" zoomAndPan="magnify"><defs><filter height="300%" id="f179ilv9n8q6k1" width="300%" x="-1" y="-1"><feGaussianBlur result="blurOut" stdDeviation="2.0"/><feColorMatrix in="blurOut" result="blurOut2" type="matrix" values="0 0 0 0 0 0 0 0 0 0 0 0 0 0 0 0 0 0 .4 0"/><feOffset dx="4.0" dy="4.0" in="blurOut2" result="blurOut3"/><feBlend in="SourceGraphic" in2="blurOut3" mode="normal"/></filter></defs><g><!--MD5=[2c1de09005861cd8df4de94b5de21751]
class SerializableSetMemberOptions--><rect codeLine="4" fill="#FEFECE" filter="url(#f179ilv9n8q6k1)" height="32" id="SerializableSetMemberOptions" style="stroke:#A80036;stroke-width:1.5;" width="220" x="71" y="99"/><ellipse cx="86" cy="115" fill="#B4A7E5" rx="11" ry="11" style="stroke:#A80036;stroke-width:1.0;"/><path d="M81.9219,110.7656 L81.9219,108.6094 L89.3125,108.6094 L89.3125,110.7656 L86.8438,110.7656 L86.8438,118.8438 L89.3125,118.8438 L89.3125,121 L81.9219,121 L81.9219,118.8438 L84.3906,118.8438 L84.3906,110.7656 L81.9219,110.7656 Z " fill="#000000"/><text fill="#000000" font-family="sans-serif" font-size="12" font-style="italic" lengthAdjust="spacing" textLength="188" x="100" y="119.1543">SerializableSetMemberOptions</text><!--MD5=[f627c81427830b5190d21a5c6a35de66]
class MemberOptionsBase--><rect codeLine="6" fill="#FEFECE" filter="url(#f179ilv9n8q6k1)" height="32" id="MemberOptionsBase" style="stroke:#A80036;stroke-width:1.5;" width="158" x="7" y="7"/><ellipse cx="22" cy="23" fill="#B4A7E5" rx="11" ry="11" style="stroke:#A80036;stroke-width:1.0;"/><path d="M17.9219,18.7656 L17.9219,16.6094 L25.3125,16.6094 L25.3125,18.7656 L22.8438,18.7656 L22.8438,26.8438 L25.3125,26.8438 L25.3125,29 L17.9219,29 L17.9219,26.8438 L20.3906,26.8438 L20.3906,18.7656 L17.9219,18.7656 Z " fill="#000000"/><text fill="#000000" font-family="sans-serif" font-size="12" font-style="italic" lengthAdjust="spacing" textLength="126" x="36" y="27.1543">MemberOptionsBase</text><!--MD5=[0ffb8a686c1b0871ffaaec431d6aae78]
class IJsonSetMemberOptions--><rect codeLine="9" fill="#FEFECE" filter="url(#f179ilv9n8q6k1)" height="23.9688" id="IJsonSetMemberOptions" style="stroke:#A80036;stroke-width:1.5;" width="154" x="200" y="11"/><text fill="#000000" font-family="sans-serif" font-size="12" lengthAdjust="spacing" textLength="148" x="203" y="27.1387">IJsonSetMemberOptions</text><!--MD5=[71ff86877cfbba666467c3038d9ff7e6]
reverse link MemberOptionsBase to SerializableSetMemberOptions--><path codeLine="8" d="M116.67,53.05 C132.81,68.35 151.94,86.47 165.12,98.96 " fill="none" id="MemberOptionsBase-backto-SerializableSetMemberOptions" style="stroke:#A80036;stroke-width:1.0;"/><polygon fill="none" points="111.82,58.1,102.12,39.27,121.45,47.94,111.82,58.1" style="stroke:#A80036;stroke-width:1.0;"/><!--MD5=[f539fd8e6f2f543a62d2c6a5434af0fc]
reverse link IJsonSetMemberOptions to SerializableSetMemberOptions--><path codeLine="11" d="M250.59,48.76 C233.43,64.85 211.61,85.3 197.03,98.97 " fill="none" id="IJsonSetMemberOptions-backto-SerializableSetMemberOptions" style="stroke:#A80036;stroke-width:1.0;"/><polygon fill="none" points="245.85,43.61,265.23,35.04,255.43,53.82,245.85,43.61" style="stroke:#A80036;stroke-width:1.0;"/><!--MD5=[43d3f472b0171667fb5e8fccfd962dad]
@startuml
skinparam BackgroundColor transparent
hide empty methods
hide empty fields
interface "SerializableSetMemberOptions" {
}
interface "MemberOptionsBase" {
}
"MemberOptionsBase" <|- - "SerializableSetMemberOptions"
class "IJsonSetMemberOptions"
hide "IJsonSetMemberOptions" circle
"IJsonSetMemberOptions" <|- - "SerializableSetMemberOptions"
@enduml

PlantUML version 1.2021.14(Fri Nov 12 16:46:50 UTC 2021)
(GPL source distribution)
Java Runtime: OpenJDK Runtime Environment
JVM: OpenJDK 64-Bit Server VM
Default Encoding: UTF-8
Language: en
Country: null
--></g></svg>