<?xml version="1.0" encoding="UTF-8" standalone="no"?><svg xmlns="http://www.w3.org/2000/svg" xmlns:xlink="http://www.w3.org/1999/xlink" contentScriptType="application/ecmascript" contentStyleType="text/css" height="145px" preserveAspectRatio="none" style="width:372px;height:145px;background:#00000000;" version="1.1" viewBox="0 0 372 145" width="372px" zoomAndPan="magnify"><defs><filter height="300%" id="f18lidc83ypmir" width="300%" x="-1" y="-1"><feGaussianBlur result="blurOut" stdDeviation="2.0"/><feColorMatrix in="blurOut" result="blurOut2" type="matrix" values="0 0 0 0 0 0 0 0 0 0 0 0 0 0 0 0 0 0 .4 0"/><feOffset dx="4.0" dy="4.0" in="blurOut2" result="blurOut3"/><feBlend in="SourceGraphic" in2="blurOut3" mode="normal"/></filter></defs><g><!--MD5=[4b0ad9c60814c904e6f8592720812c13]
class SerializableMapMemberOptions--><rect codeLine="4" fill="#FEFECE" filter="url(#f18lidc83ypmir)" height="32" id="SerializableMapMemberOptions" style="stroke:#A80036;stroke-width:1.5;" width="225" x="69.5" y="99"/><ellipse cx="84.5" cy="115" fill="#B4A7E5" rx="11" ry="11" style="stroke:#A80036;stroke-width:1.0;"/><path d="M80.4219,110.7656 L80.4219,108.6094 L87.8125,108.6094 L87.8125,110.7656 L85.3438,110.7656 L85.3438,118.8438 L87.8125,118.8438 L87.8125,121 L80.4219,121 L80.4219,118.8438 L82.8906,118.8438 L82.8906,110.7656 L80.4219,110.7656 Z " fill="#000000"/><text fill="#000000" font-family="sans-serif" font-size="12" font-style="italic" lengthAdjust="spacing" textLength="193" x="98.5" y="119.1543">SerializableMapMemberOptions</text><!--MD5=[f627c81427830b5190d21a5c6a35de66]
class MemberOptionsBase--><rect codeLine="6" fill="#FEFECE" filter="url(#f18lidc83ypmir)" height="32" id="MemberOptionsBase" style="stroke:#A80036;stroke-width:1.5;" width="158" x="7" y="7"/><ellipse cx="22" cy="23" fill="#B4A7E5" rx="11" ry="11" style="stroke:#A80036;stroke-width:1.0;"/><path d="M17.9219,18.7656 L17.9219,16.6094 L25.3125,16.6094 L25.3125,18.7656 L22.8438,18.7656 L22.8438,26.8438 L25.3125,26.8438 L25.3125,29 L17.9219,29 L17.9219,26.8438 L20.3906,26.8438 L20.3906,18.7656 L17.9219,18.7656 Z " fill="#000000"/><text fill="#000000" font-family="sans-serif" font-size="12" font-style="italic" lengthAdjust="spacing" textLength="126" x="36" y="27.1543">MemberOptionsBase</text><!--MD5=[dc4cf5f383f8ec6856976736ada16456]
class IJsonMapMemberOptions--><rect codeLine="9" fill="#FEFECE" filter="url(#f18lidc83ypmir)" height="23.9688" id="IJsonMapMemberOptions" style="stroke:#A80036;stroke-width:1.5;" width="159" x="199.5" y="11"/><text fill="#000000" font-family="sans-serif" font-size="12" lengthAdjust="spacing" textLength="153" x="202.5" y="27.1387">IJsonMapMemberOptions</text><!--MD5=[0519664a9a78d9d76f96373fece0e826]
reverse link MemberOptionsBase to SerializableMapMemberOptions--><path codeLine="8" d="M116.99,53.05 C133.31,68.35 152.64,86.47 165.96,98.96 " fill="none" id="MemberOptionsBase-backto-SerializableMapMemberOptions" style="stroke:#A80036;stroke-width:1.0;"/><polygon fill="none" points="112.09,58.05,102.29,39.27,121.66,47.84,112.09,58.05" style="stroke:#A80036;stroke-width:1.0;"/><!--MD5=[553bc5369b2c85a8c696cd9550649623]
reverse link IJsonMapMemberOptions to SerializableMapMemberOptions--><path codeLine="11" d="M252.31,48.76 C234.97,64.85 212.93,85.3 198.19,98.97 " fill="none" id="IJsonMapMemberOptions-backto-SerializableMapMemberOptions" style="stroke:#A80036;stroke-width:1.0;"/><polygon fill="none" points="247.68,43.51,267.11,35.04,257.21,53.77,247.68,43.51" style="stroke:#A80036;stroke-width:1.0;"/><!--MD5=[a38cb52117774d1a873018c42fa9f820]
@startuml
skinparam BackgroundColor transparent
hide empty methods
hide empty fields
interface "SerializableMapMemberOptions" {
}
interface "MemberOptionsBase" {
}
"MemberOptionsBase" <|- - "SerializableMapMemberOptions"
class "IJsonMapMemberOptions"
hide "IJsonMapMemberOptions" circle
"IJsonMapMemberOptions" <|- - "SerializableMapMemberOptions"
@enduml

PlantUML version 1.2021.14(Fri Nov 12 16:46:50 UTC 2021)
(GPL source distribution)
Java Runtime: OpenJDK Runtime Environment
JVM: OpenJDK 64-Bit Server VM
Default Encoding: UTF-8
Language: en
Country: null
--></g></svg>