<?xml version="1.0" encoding="us-ascii" standalone="no"?><svg xmlns="http://www.w3.org/2000/svg" xmlns:xlink="http://www.w3.org/1999/xlink" contentStyleType="text/css" height="138px" preserveAspectRatio="none" style="width:232px;height:138px;" version="1.1" viewBox="0 0 232 138" width="232px" zoomAndPan="magnify"><defs/><g><!--class SerializableMemberOptions--><g id="elem_SerializableMemberOptions"><rect codeLine="4" fill="#F1F1F1" height="32" id="SerializableMemberOptions" rx="2.5" ry="2.5" style="stroke:#181818;stroke-width:0.5;" width="218" x="7" y="99"/><ellipse cx="22" cy="115" fill="#B4A7E5" rx="11" ry="11" style="stroke:#181818;stroke-width:1.0;"/><path d="M17.9219,110.7656 L17.9219,108.6094 L25.3125,108.6094 L25.3125,110.7656 L22.8438,110.7656 L22.8438,118.8438 L25.3125,118.8438 L25.3125,121 L17.9219,121 L17.9219,118.8438 L20.3906,118.8438 L20.3906,110.7656 L17.9219,110.7656 Z " fill="#000000"/><text fill="#000000" font-family="sans-serif" font-size="14" font-style="italic" lengthAdjust="spacing" textLength="186" x="36" y="119.8467">SerializableMemberOptions</text></g><!--class MemberOptionsBase--><g id="elem_MemberOptionsBase"><rect codeLine="6" fill="#F1F1F1" height="32" id="MemberOptionsBase" rx="2.5" ry="2.5" style="stroke:#181818;stroke-width:0.5;" width="176" x="28" y="7"/><ellipse cx="43" cy="23" fill="#B4A7E5" rx="11" ry="11" style="stroke:#181818;stroke-width:1.0;"/><path d="M38.9219,18.7656 L38.9219,16.6094 L46.3125,16.6094 L46.3125,18.7656 L43.8438,18.7656 L43.8438,26.8438 L46.3125,26.8438 L46.3125,29 L38.9219,29 L38.9219,26.8438 L41.3906,26.8438 L41.3906,18.7656 L38.9219,18.7656 Z " fill="#000000"/><text fill="#000000" font-family="sans-serif" font-size="14" font-style="italic" lengthAdjust="spacing" textLength="144" x="57" y="27.8467">MemberOptionsBase</text></g><!--reverse link MemberOptionsBase to SerializableMemberOptions--><g id="link_MemberOptionsBase_SerializableMemberOptions"><path codeLine="8" d="M116,59.61 C116,73.31 116,88.22 116,98.96 " fill="none" id="MemberOptionsBase-backto-SerializableMemberOptions" style="stroke:#181818;stroke-width:1.0;"/><polygon fill="none" points="109,59.27,116,39.27,123,59.27,109,59.27" style="stroke:#181818;stroke-width:1.0;"/></g><!--SRC=[VOmn3i8m34NtdiBgtXimbHanS0At-QLM4oTop025krE9fKY8zRsdLnVHmiQ9UXwNg-MRXcEEsSYDjMuAwiqi0OHK_4u9FkTGzsWIn8s8EcpY4THUOC9H7Zn4d906sBcuPAqjhSrhNtxPdYi-nIz-U7RTl_KR]--></g></svg>