<?xml version="1.0" encoding="UTF-8" standalone="no"?><svg xmlns="http://www.w3.org/2000/svg" xmlns:xlink="http://www.w3.org/1999/xlink" contentScriptType="application/ecmascript" contentStyleType="text/css" height="353px" preserveAspectRatio="none" style="width:400px;height:353px;background:#00000000;" version="1.1" viewBox="0 0 400 353" width="400px" zoomAndPan="magnify"><defs><filter height="300%" id="fwl4padx8qnnr" width="300%" x="-1" y="-1"><feGaussianBlur result="blurOut" stdDeviation="2.0"/><feColorMatrix in="blurOut" result="blurOut2" type="matrix" values="0 0 0 0 0 0 0 0 0 0 0 0 0 0 0 0 0 0 .4 0"/><feOffset dx="4.0" dy="4.0" in="blurOut2" result="blurOut3"/><feBlend in="SourceGraphic" in2="blurOut3" mode="normal"/></filter></defs><g><!--MD5=[15176c50841b0f7b3aa98c1fc2094eb3]
class SerializableArrayMemberOptions--><rect codeLine="4" fill="#FEFECE" filter="url(#fwl4padx8qnnr)" height="142.4375" id="SerializableArrayMemberOptions" style="stroke:#A80036;stroke-width:1.5;" width="232" x="83.5" y="197"/><ellipse cx="98.5" cy="213" fill="#B4A7E5" rx="11" ry="11" style="stroke:#A80036;stroke-width:1.0;"/><path d="M94.4219,208.7656 L94.4219,206.6094 L101.8125,206.6094 L101.8125,208.7656 L99.3438,208.7656 L99.3438,216.8438 L101.8125,216.8438 L101.8125,219 L94.4219,219 L94.4219,216.8438 L96.8906,216.8438 L96.8906,208.7656 L94.4219,208.7656 Z " fill="#000000"/><text fill="#000000" font-family="sans-serif" font-size="12" font-style="italic" lengthAdjust="spacing" textLength="200" x="112.5" y="217.1543">SerializableArrayMemberOptions</text><line style="stroke:#A80036;stroke-width:1.5;" x1="84.5" x2="314.5" y1="229" y2="229"/><ellipse cx="94.5" cy="240" rx="3" ry="3" style="stroke:#038048;stroke-width:1.0;fill:none;"/><text fill="#000000" font-family="sans-serif" font-size="11" lengthAdjust="spacing" textLength="123" x="103.5" y="243.2104">constructor : Typelike</text><ellipse cx="94.5" cy="252.8047" rx="3" ry="3" style="stroke:#038048;stroke-width:1.0;fill:none;"/><text fill="#000000" font-family="sans-serif" font-size="11" lengthAdjust="spacing" textLength="125" x="103.5" y="256.0151">deserializer : Function</text><ellipse cx="94.5" cy="265.6094" rx="3" ry="3" style="stroke:#038048;stroke-width:1.0;fill:none;"/><text fill="#000000" font-family="sans-serif" font-size="11" lengthAdjust="spacing" textLength="122" x="103.5" y="268.8198">dimensions : number</text><ellipse cx="94.5" cy="278.4141" rx="3" ry="3" style="stroke:#038048;stroke-width:1.0;fill:none;"/><text fill="#000000" font-family="sans-serif" font-size="11" lengthAdjust="spacing" textLength="153" x="103.5" y="281.6245">emitDefaultValue : boolean</text><ellipse cx="94.5" cy="291.2188" rx="3" ry="3" style="stroke:#038048;stroke-width:1.0;fill:none;"/><text fill="#000000" font-family="sans-serif" font-size="11" lengthAdjust="spacing" textLength="117" x="103.5" y="294.4292">isRequired : boolean</text><ellipse cx="94.5" cy="304.0234" rx="3" ry="3" style="stroke:#038048;stroke-width:1.0;fill:none;"/><text fill="#000000" font-family="sans-serif" font-size="11" lengthAdjust="spacing" textLength="77" x="103.5" y="307.2339">name : string</text><ellipse cx="94.5" cy="316.8281" rx="3" ry="3" style="stroke:#038048;stroke-width:1.0;fill:none;"/><text fill="#000000" font-family="sans-serif" font-size="11" lengthAdjust="spacing" textLength="129" x="103.5" y="320.0386">preserveNull : boolean</text><ellipse cx="94.5" cy="329.6328" rx="3" ry="3" style="stroke:#038048;stroke-width:1.0;fill:none;"/><text fill="#000000" font-family="sans-serif" font-size="11" lengthAdjust="spacing" textLength="111" x="103.5" y="332.8433">serializer : Function</text><!--MD5=[f627c81427830b5190d21a5c6a35de66]
class MemberOptionsBase--><rect codeLine="14" fill="#FEFECE" filter="url(#fwl4padx8qnnr)" height="129.6328" id="MemberOptionsBase" style="stroke:#A80036;stroke-width:1.5;" width="179" x="7" y="7"/><ellipse cx="31.45" cy="23" fill="#B4A7E5" rx="11" ry="11" style="stroke:#A80036;stroke-width:1.0;"/><path d="M27.3719,18.7656 L27.3719,16.6094 L34.7625,16.6094 L34.7625,18.7656 L32.2938,18.7656 L32.2938,26.8438 L34.7625,26.8438 L34.7625,29 L27.3719,29 L27.3719,26.8438 L29.8406,26.8438 L29.8406,18.7656 L27.3719,18.7656 Z " fill="#000000"/><text fill="#000000" font-family="sans-serif" font-size="12" font-style="italic" lengthAdjust="spacing" textLength="126" x="47.55" y="27.1543">MemberOptionsBase</text><line style="stroke:#A80036;stroke-width:1.5;" x1="8" x2="185" y1="39" y2="39"/><ellipse cx="18" cy="50" rx="3" ry="3" style="stroke:#038048;stroke-width:1.0;fill:none;"/><text fill="#000000" font-family="sans-serif" font-size="11" lengthAdjust="spacing" textLength="123" x="27" y="53.2104">constructor : Typelike</text><ellipse cx="18" cy="62.8047" rx="3" ry="3" style="stroke:#038048;stroke-width:1.0;fill:none;"/><text fill="#000000" font-family="sans-serif" font-size="11" lengthAdjust="spacing" textLength="125" x="27" y="66.0151">deserializer : Function</text><ellipse cx="18" cy="75.6094" rx="3" ry="3" style="stroke:#038048;stroke-width:1.0;fill:none;"/><text fill="#000000" font-family="sans-serif" font-size="11" lengthAdjust="spacing" textLength="153" x="27" y="78.8198">emitDefaultValue : boolean</text><ellipse cx="18" cy="88.4141" rx="3" ry="3" style="stroke:#038048;stroke-width:1.0;fill:none;"/><text fill="#000000" font-family="sans-serif" font-size="11" lengthAdjust="spacing" textLength="117" x="27" y="91.6245">isRequired : boolean</text><ellipse cx="18" cy="101.2188" rx="3" ry="3" style="stroke:#038048;stroke-width:1.0;fill:none;"/><text fill="#000000" font-family="sans-serif" font-size="11" lengthAdjust="spacing" textLength="77" x="27" y="104.4292">name : string</text><ellipse cx="18" cy="114.0234" rx="3" ry="3" style="stroke:#038048;stroke-width:1.0;fill:none;"/><text fill="#000000" font-family="sans-serif" font-size="11" lengthAdjust="spacing" textLength="129" x="27" y="117.2339">preserveNull : boolean</text><ellipse cx="18" cy="126.8281" rx="3" ry="3" style="stroke:#038048;stroke-width:1.0;fill:none;"/><text fill="#000000" font-family="sans-serif" font-size="11" lengthAdjust="spacing" textLength="111" x="27" y="130.0386">serializer : Function</text><!--MD5=[e4ce4c27a9335e89d5822e7cb30a0046]
class IJsonArrayMemberOptions--><rect codeLine="24" fill="#FEFECE" filter="url(#fwl4padx8qnnr)" height="23.9688" id="IJsonArrayMemberOptions" style="stroke:#A80036;stroke-width:1.5;" width="165" x="221" y="60"/><text fill="#000000" font-family="sans-serif" font-size="12" lengthAdjust="spacing" textLength="159" x="224" y="76.1387">IJsonArrayMemberOptions</text><!--MD5=[62883e92593202d4a97ec02fdc9c0dd8]
reverse link MemberOptionsBase to SerializableArrayMemberOptions--><path codeLine="23" d="M140.07,155.06 C147.47,169.01 155.11,183.38 162.33,196.99 " fill="none" id="MemberOptionsBase-backto-SerializableArrayMemberOptions" style="stroke:#A80036;stroke-width:1.0;"/><polygon fill="none" points="133.71,158.01,130.51,137.06,146.07,151.44,133.71,158.01" style="stroke:#A80036;stroke-width:1.0;"/><!--MD5=[3904f4274e1b11507b5ebf130dc42fef]
reverse link IJsonArrayMemberOptions to SerializableArrayMemberOptions--><path codeLine="26" d="M287.92,102.06 C274.52,127.06 254.64,164.14 237.12,196.82 " fill="none" id="IJsonArrayMemberOptions-backto-SerializableArrayMemberOptions" style="stroke:#A80036;stroke-width:1.0;"/><polygon fill="none" points="281.84,98.59,297.46,84.27,294.18,105.2,281.84,98.59" style="stroke:#A80036;stroke-width:1.0;"/><!--MD5=[34df82aebbe57ac27696eaffff2c00ac]
@startuml
skinparam BackgroundColor transparent
hide empty methods
hide empty fields
interface "SerializableArrayMemberOptions" {
    +constructor : Typelike
    +deserializer : Function
    +dimensions : number
    +emitDefaultValue : boolean
    +isRequired : boolean
    +name : string
    +preserveNull : boolean
    +serializer : Function
}
interface "MemberOptionsBase" {
    +constructor : Typelike
    +deserializer : Function
    +emitDefaultValue : boolean
    +isRequired : boolean
    +name : string
    +preserveNull : boolean
    +serializer : Function
}
"MemberOptionsBase" <|- - "SerializableArrayMemberOptions"
class "IJsonArrayMemberOptions"
hide "IJsonArrayMemberOptions" circle
"IJsonArrayMemberOptions" <|- - "SerializableArrayMemberOptions"
@enduml

PlantUML version 1.2021.14(Fri Nov 12 16:46:50 UTC 2021)
(GPL source distribution)
Java Runtime: OpenJDK Runtime Environment
JVM: OpenJDK 64-Bit Server VM
Default Encoding: UTF-8
Language: en
Country: null
--></g></svg>