<?xml version="1.0" encoding="UTF-8" standalone="no"?><svg xmlns="http://www.w3.org/2000/svg" xmlns:xlink="http://www.w3.org/1999/xlink" contentScriptType="application/ecmascript" contentStyleType="text/css" height="145px" preserveAspectRatio="none" style="width:220px;height:145px;background:#00000000;" version="1.1" viewBox="0 0 220 145" width="220px" zoomAndPan="magnify"><defs><filter height="300%" id="f1ohjdxhvh144m" width="300%" x="-1" y="-1"><feGaussianBlur result="blurOut" stdDeviation="2.0"/><feColorMatrix in="blurOut" result="blurOut2" type="matrix" values="0 0 0 0 0 0 0 0 0 0 0 0 0 0 0 0 0 0 .4 0"/><feOffset dx="4.0" dy="4.0" in="blurOut2" result="blurOut3"/><feBlend in="SourceGraphic" in2="blurOut3" mode="normal"/></filter></defs><g><!--MD5=[50a4a531bdd975bfe0683fb9bf772d86]
class SerializableMemberOptions--><rect codeLine="4" fill="#FEFECE" filter="url(#f1ohjdxhvh144m)" height="32" id="SerializableMemberOptions" style="stroke:#A80036;stroke-width:1.5;" width="199" x="7" y="99"/><ellipse cx="22" cy="115" fill="#B4A7E5" rx="11" ry="11" style="stroke:#A80036;stroke-width:1.0;"/><path d="M17.9219,110.7656 L17.9219,108.6094 L25.3125,108.6094 L25.3125,110.7656 L22.8438,110.7656 L22.8438,118.8438 L25.3125,118.8438 L25.3125,121 L17.9219,121 L17.9219,118.8438 L20.3906,118.8438 L20.3906,110.7656 L17.9219,110.7656 Z " fill="#000000"/><text fill="#000000" font-family="sans-serif" font-size="12" font-style="italic" lengthAdjust="spacing" textLength="167" x="36" y="119.1543">SerializableMemberOptions</text><!--MD5=[f627c81427830b5190d21a5c6a35de66]
class MemberOptionsBase--><rect codeLine="6" fill="#FEFECE" filter="url(#f1ohjdxhvh144m)" height="32" id="MemberOptionsBase" style="stroke:#A80036;stroke-width:1.5;" width="158" x="27.5" y="7"/><ellipse cx="42.5" cy="23" fill="#B4A7E5" rx="11" ry="11" style="stroke:#A80036;stroke-width:1.0;"/><path d="M38.4219,18.7656 L38.4219,16.6094 L45.8125,16.6094 L45.8125,18.7656 L43.3438,18.7656 L43.3438,26.8438 L45.8125,26.8438 L45.8125,29 L38.4219,29 L38.4219,26.8438 L40.8906,26.8438 L40.8906,18.7656 L38.4219,18.7656 Z " fill="#000000"/><text fill="#000000" font-family="sans-serif" font-size="12" font-style="italic" lengthAdjust="spacing" textLength="126" x="56.5" y="27.1543">MemberOptionsBase</text><!--MD5=[581d9fdb0df57ddeb08c4e654dd5b0ca]
reverse link MemberOptionsBase to SerializableMemberOptions--><path codeLine="8" d="M106.5,59.61 C106.5,73.31 106.5,88.22 106.5,98.96 " fill="none" id="MemberOptionsBase-backto-SerializableMemberOptions" style="stroke:#A80036;stroke-width:1.0;"/><polygon fill="none" points="99.5,59.27,106.5,39.27,113.5,59.27,99.5,59.27" style="stroke:#A80036;stroke-width:1.0;"/><!--MD5=[5f716947017a5d9f770f0a6d7844e350]
@startuml
skinparam BackgroundColor transparent
hide empty methods
hide empty fields
interface "SerializableMemberOptions" {
}
interface "MemberOptionsBase" {
}
"MemberOptionsBase" <|- - "SerializableMemberOptions"
@enduml

PlantUML version 1.2021.14(Fri Nov 12 16:46:50 UTC 2021)
(GPL source distribution)
Java Runtime: OpenJDK Runtime Environment
JVM: OpenJDK 64-Bit Server VM
Default Encoding: UTF-8
Language: en
Country: null
--></g></svg>