<?xml version="1.0" encoding="UTF-8" standalone="no"?><svg xmlns="http://www.w3.org/2000/svg" xmlns:xlink="http://www.w3.org/1999/xlink" contentScriptType="application/ecmascript" contentStyleType="text/css" height="353px" preserveAspectRatio="none" style="width:394px;height:353px;background:#00000000;" version="1.1" viewBox="0 0 394 353" width="394px" zoomAndPan="magnify"><defs><filter height="300%" id="f3zwlo1f7pqxt" width="300%" x="-1" y="-1"><feGaussianBlur result="blurOut" stdDeviation="2.0"/><feColorMatrix in="blurOut" result="blurOut2" type="matrix" values="0 0 0 0 0 0 0 0 0 0 0 0 0 0 0 0 0 0 .4 0"/><feOffset dx="4.0" dy="4.0" in="blurOut2" result="blurOut3"/><feBlend in="SourceGraphic" in2="blurOut3" mode="normal"/></filter></defs><g><!--MD5=[4b0ad9c60814c904e6f8592720812c13]
class SerializableMapMemberOptions--><rect codeLine="4" fill="#FEFECE" filter="url(#f3zwlo1f7pqxt)" height="142.4375" id="SerializableMapMemberOptions" style="stroke:#A80036;stroke-width:1.5;" width="225" x="86" y="197"/><ellipse cx="101" cy="213" fill="#B4A7E5" rx="11" ry="11" style="stroke:#A80036;stroke-width:1.0;"/><path d="M96.9219,208.7656 L96.9219,206.6094 L104.3125,206.6094 L104.3125,208.7656 L101.8438,208.7656 L101.8438,216.8438 L104.3125,216.8438 L104.3125,219 L96.9219,219 L96.9219,216.8438 L99.3906,216.8438 L99.3906,208.7656 L96.9219,208.7656 Z " fill="#000000"/><text fill="#000000" font-family="sans-serif" font-size="12" font-style="italic" lengthAdjust="spacing" textLength="193" x="115" y="217.1543">SerializableMapMemberOptions</text><line style="stroke:#A80036;stroke-width:1.5;" x1="87" x2="310" y1="229" y2="229"/><ellipse cx="97" cy="240" rx="3" ry="3" style="stroke:#038048;stroke-width:1.0;fill:none;"/><text fill="#000000" font-family="sans-serif" font-size="11" lengthAdjust="spacing" textLength="123" x="106" y="243.2104">constructor : Typelike</text><ellipse cx="97" cy="252.8047" rx="3" ry="3" style="stroke:#038048;stroke-width:1.0;fill:none;"/><text fill="#000000" font-family="sans-serif" font-size="11" lengthAdjust="spacing" textLength="125" x="106" y="256.0151">deserializer : Function</text><ellipse cx="97" cy="265.6094" rx="3" ry="3" style="stroke:#038048;stroke-width:1.0;fill:none;"/><text fill="#000000" font-family="sans-serif" font-size="11" lengthAdjust="spacing" textLength="153" x="106" y="268.8198">emitDefaultValue : boolean</text><ellipse cx="97" cy="278.4141" rx="3" ry="3" style="stroke:#038048;stroke-width:1.0;fill:none;"/><text fill="#000000" font-family="sans-serif" font-size="11" lengthAdjust="spacing" textLength="117" x="106" y="281.6245">isRequired : boolean</text><ellipse cx="97" cy="291.2188" rx="3" ry="3" style="stroke:#038048;stroke-width:1.0;fill:none;"/><text fill="#000000" font-family="sans-serif" font-size="11" lengthAdjust="spacing" textLength="77" x="106" y="294.4292">name : string</text><ellipse cx="97" cy="304.0234" rx="3" ry="3" style="stroke:#038048;stroke-width:1.0;fill:none;"/><text fill="#000000" font-family="sans-serif" font-size="11" lengthAdjust="spacing" textLength="129" x="106" y="307.2339">preserveNull : boolean</text><ellipse cx="97" cy="316.8281" rx="3" ry="3" style="stroke:#038048;stroke-width:1.0;fill:none;"/><text fill="#000000" font-family="sans-serif" font-size="11" lengthAdjust="spacing" textLength="111" x="106" y="320.0386">serializer : Function</text><ellipse cx="97" cy="329.6328" rx="3" ry="3" style="stroke:#038048;stroke-width:1.0;fill:none;"/><text fill="#000000" font-family="sans-serif" font-size="11" lengthAdjust="spacing" textLength="106" x="106" y="332.8433">shape : MapShape</text><!--MD5=[f627c81427830b5190d21a5c6a35de66]
class MemberOptionsBase--><rect codeLine="14" fill="#FEFECE" filter="url(#f3zwlo1f7pqxt)" height="129.6328" id="MemberOptionsBase" style="stroke:#A80036;stroke-width:1.5;" width="179" x="7" y="7"/><ellipse cx="31.45" cy="23" fill="#B4A7E5" rx="11" ry="11" style="stroke:#A80036;stroke-width:1.0;"/><path d="M27.3719,18.7656 L27.3719,16.6094 L34.7625,16.6094 L34.7625,18.7656 L32.2938,18.7656 L32.2938,26.8438 L34.7625,26.8438 L34.7625,29 L27.3719,29 L27.3719,26.8438 L29.8406,26.8438 L29.8406,18.7656 L27.3719,18.7656 Z " fill="#000000"/><text fill="#000000" font-family="sans-serif" font-size="12" font-style="italic" lengthAdjust="spacing" textLength="126" x="47.55" y="27.1543">MemberOptionsBase</text><line style="stroke:#A80036;stroke-width:1.5;" x1="8" x2="185" y1="39" y2="39"/><ellipse cx="18" cy="50" rx="3" ry="3" style="stroke:#038048;stroke-width:1.0;fill:none;"/><text fill="#000000" font-family="sans-serif" font-size="11" lengthAdjust="spacing" textLength="123" x="27" y="53.2104">constructor : Typelike</text><ellipse cx="18" cy="62.8047" rx="3" ry="3" style="stroke:#038048;stroke-width:1.0;fill:none;"/><text fill="#000000" font-family="sans-serif" font-size="11" lengthAdjust="spacing" textLength="125" x="27" y="66.0151">deserializer : Function</text><ellipse cx="18" cy="75.6094" rx="3" ry="3" style="stroke:#038048;stroke-width:1.0;fill:none;"/><text fill="#000000" font-family="sans-serif" font-size="11" lengthAdjust="spacing" textLength="153" x="27" y="78.8198">emitDefaultValue : boolean</text><ellipse cx="18" cy="88.4141" rx="3" ry="3" style="stroke:#038048;stroke-width:1.0;fill:none;"/><text fill="#000000" font-family="sans-serif" font-size="11" lengthAdjust="spacing" textLength="117" x="27" y="91.6245">isRequired : boolean</text><ellipse cx="18" cy="101.2188" rx="3" ry="3" style="stroke:#038048;stroke-width:1.0;fill:none;"/><text fill="#000000" font-family="sans-serif" font-size="11" lengthAdjust="spacing" textLength="77" x="27" y="104.4292">name : string</text><ellipse cx="18" cy="114.0234" rx="3" ry="3" style="stroke:#038048;stroke-width:1.0;fill:none;"/><text fill="#000000" font-family="sans-serif" font-size="11" lengthAdjust="spacing" textLength="129" x="27" y="117.2339">preserveNull : boolean</text><ellipse cx="18" cy="126.8281" rx="3" ry="3" style="stroke:#038048;stroke-width:1.0;fill:none;"/><text fill="#000000" font-family="sans-serif" font-size="11" lengthAdjust="spacing" textLength="111" x="27" y="130.0386">serializer : Function</text><!--MD5=[dc4cf5f383f8ec6856976736ada16456]
class IJsonMapMemberOptions--><rect codeLine="24" fill="#FEFECE" filter="url(#f3zwlo1f7pqxt)" height="23.9688" id="IJsonMapMemberOptions" style="stroke:#A80036;stroke-width:1.5;" width="159" x="221" y="60"/><text fill="#000000" font-family="sans-serif" font-size="12" lengthAdjust="spacing" textLength="153" x="224" y="76.1387">IJsonMapMemberOptions</text><!--MD5=[0519664a9a78d9d76f96373fece0e826]
reverse link MemberOptionsBase to SerializableMapMemberOptions--><path codeLine="23" d="M139.64,155.06 C146.98,169.01 154.54,183.38 161.69,196.99 " fill="none" id="MemberOptionsBase-backto-SerializableMapMemberOptions" style="stroke:#A80036;stroke-width:1.0;"/><polygon fill="none" points="133.29,158.02,130.18,137.06,145.68,151.51,133.29,158.02" style="stroke:#A80036;stroke-width:1.0;"/><!--MD5=[553bc5369b2c85a8c696cd9550649623]
reverse link IJsonMapMemberOptions to SerializableMapMemberOptions--><path codeLine="26" d="M285.22,102.06 C272.08,127.06 252.58,164.14 235.4,196.82 " fill="none" id="IJsonMapMemberOptions-backto-SerializableMapMemberOptions" style="stroke:#A80036;stroke-width:1.0;"/><polygon fill="none" points="279.07,98.71,294.58,84.27,291.46,105.23,279.07,98.71" style="stroke:#A80036;stroke-width:1.0;"/><!--MD5=[635aaea5dcf546a55c923f63163c26c2]
@startuml
skinparam BackgroundColor transparent
hide empty methods
hide empty fields
interface "SerializableMapMemberOptions" {
    +constructor : Typelike
    +deserializer : Function
    +emitDefaultValue : boolean
    +isRequired : boolean
    +name : string
    +preserveNull : boolean
    +serializer : Function
    +shape : MapShape
}
interface "MemberOptionsBase" {
    +constructor : Typelike
    +deserializer : Function
    +emitDefaultValue : boolean
    +isRequired : boolean
    +name : string
    +preserveNull : boolean
    +serializer : Function
}
"MemberOptionsBase" <|- - "SerializableMapMemberOptions"
class "IJsonMapMemberOptions"
hide "IJsonMapMemberOptions" circle
"IJsonMapMemberOptions" <|- - "SerializableMapMemberOptions"
@enduml

PlantUML version 1.2021.14(Fri Nov 12 16:46:50 UTC 2021)
(GPL source distribution)
Java Runtime: OpenJDK Runtime Environment
JVM: OpenJDK 64-Bit Server VM
Default Encoding: UTF-8
Language: en
Country: null
--></g></svg>