<?xml version="1.0" encoding="us-ascii" standalone="no"?><svg xmlns="http://www.w3.org/2000/svg" xmlns:xlink="http://www.w3.org/1999/xlink" contentStyleType="text/css" height="138px" preserveAspectRatio="none" style="width:231px;height:138px;" version="1.1" viewBox="0 0 231 138" width="231px" zoomAndPan="magnify"><defs/><g><!--class ServiceOptions--><g id="elem_ServiceOptions"><rect codeLine="4" fill="#F1F1F1" height="32" id="ServiceOptions" rx="2.5" ry="2.5" style="stroke:#181818;stroke-width:0.5;" width="136" x="47.5" y="7"/><ellipse cx="62.5" cy="23" fill="#B4A7E5" rx="11" ry="11" style="stroke:#181818;stroke-width:1.0;"/><path d="M58.4219,18.7656 L58.4219,16.6094 L65.8125,16.6094 L65.8125,18.7656 L63.3438,18.7656 L63.3438,26.8438 L65.8125,26.8438 L65.8125,29 L58.4219,29 L58.4219,26.8438 L60.8906,26.8438 L60.8906,18.7656 L58.4219,18.7656 Z " fill="#000000"/><text fill="#000000" font-family="sans-serif" font-size="14" font-style="italic" lengthAdjust="spacing" textLength="104" x="76.5" y="27.8467">ServiceOptions</text></g><!--class DataServiceOptions<any>--><g id="elem_DataServiceOptions&lt;any&gt;"><rect codeLine="6" fill="#F1F1F1" height="32" id="DataServiceOptions&lt;any&gt;" rx="2.5" ry="2.5" style="stroke:#181818;stroke-width:0.5;" width="217" x="7" y="99"/><ellipse cx="22" cy="115" fill="#B4A7E5" rx="11" ry="11" style="stroke:#181818;stroke-width:1.0;"/><path d="M17.9219,110.7656 L17.9219,108.6094 L25.3125,108.6094 L25.3125,110.7656 L22.8438,110.7656 L22.8438,118.8438 L25.3125,118.8438 L25.3125,121 L17.9219,121 L17.9219,118.8438 L20.3906,118.8438 L20.3906,110.7656 L17.9219,110.7656 Z " fill="#000000"/><text fill="#000000" font-family="sans-serif" font-size="14" font-style="italic" lengthAdjust="spacing" textLength="185" x="36" y="119.8467">DataServiceOptions&lt;any&gt;</text></g><!--reverse link ServiceOptions to DataServiceOptions<any>--><g id="link_ServiceOptions_DataServiceOptions&lt;any&gt;"><path codeLine="8" d="M115.5,59.61 C115.5,73.31 115.5,88.22 115.5,98.96 " fill="none" id="ServiceOptions-backto-DataServiceOptions&lt;any&gt;" style="stroke:#181818;stroke-width:1.0;"/><polygon fill="none" points="108.5,59.27,115.5,39.27,122.5,59.27,108.5,59.27" style="stroke:#181818;stroke-width:1.0;"/></g><!--SRC=[TOkz2eD0381tdoAu-mRIeUtku1E4krY3NdBaqeAexrwXYwLq_NxAn9BHCC4Lm_GmVKgywQm6RYZbK2HUZHm9A6LV896F6iiP3KppGLYSRC10KFTaBmxKPMULKiDQxMTzHyVlf4LPBf_kPswtfld_l040]--></g></svg>