<?xml version="1.0" encoding="us-ascii" standalone="no"?><svg xmlns="http://www.w3.org/2000/svg" xmlns:xlink="http://www.w3.org/1999/xlink" contentStyleType="text/css" height="515px" preserveAspectRatio="none" style="width:761px;height:515px;" version="1.1" viewBox="0 0 761 515" width="761px" zoomAndPan="magnify"><defs/><g><!--class Service--><g id="elem_Service"><rect codeLine="5" fill="#F1F1F1" height="32" id="Service" rx="2.5" ry="2.5" style="stroke:#181818;stroke-width:0.5;" width="83" x="202" y="242"/><ellipse cx="217" cy="258" fill="#A9DCDF" rx="11" ry="11" style="stroke:#181818;stroke-width:1.0;"/><path d="M217.1094,253.3438 L215.9531,258.4219 L218.2813,258.4219 L217.1094,253.3438 Z M215.625,251.1094 L218.6094,251.1094 L221.9688,263.5 L219.5156,263.5 L218.75,260.4375 L215.4688,260.4375 L214.7188,263.5 L212.2813,263.5 L215.625,251.1094 Z " fill="#000000"/><text fill="#000000" font-family="sans-serif" font-size="14" font-style="italic" lengthAdjust="spacing" textLength="51" x="231" y="262.8467">Service</text></g><!--class AsyncEventEmitter--><g id="elem_AsyncEventEmitter"><rect codeLine="7" fill="#F1F1F1" height="26.2969" id="AsyncEventEmitter" rx="2.5" ry="2.5" style="stroke:#181818;stroke-width:0.5;" width="135" x="7" y="245"/><text fill="#000000" font-family="sans-serif" font-size="14" lengthAdjust="spacing" textLength="129" x="10" y="262.9951">AsyncEventEmitter</text></g><!--class DataServiceDriver<I, T>--><g id="elem_DataServiceDriver&lt;I, T&gt;"><rect codeLine="10" fill="#F1F1F1" height="32" id="DataServiceDriver&lt;I, T&gt;" rx="2.5" ry="2.5" style="stroke:#181818;stroke-width:0.5;" width="201" x="449" y="7"/><ellipse cx="464" cy="23" fill="#A9DCDF" rx="11" ry="11" style="stroke:#181818;stroke-width:1.0;"/><path d="M464.1094,18.3438 L462.9531,23.4219 L465.2813,23.4219 L464.1094,18.3438 Z M462.625,16.1094 L465.6094,16.1094 L468.9688,28.5 L466.5156,28.5 L465.75,25.4375 L462.4688,25.4375 L461.7188,28.5 L459.2813,28.5 L462.625,16.1094 Z " fill="#000000"/><text fill="#000000" font-family="sans-serif" font-size="14" font-style="italic" lengthAdjust="spacing" textLength="169" x="478" y="27.8467">DataServiceDriver&lt;I, T&gt;</text></g><!--class TimeService--><g id="elem_TimeService"><rect codeLine="13" fill="#F1F1F1" height="32" id="TimeService" rx="2.5" ry="2.5" style="stroke:#181818;stroke-width:0.5;" width="116" x="491.5" y="74"/><ellipse cx="506.5" cy="90" fill="#ADD1B2" rx="11" ry="11" style="stroke:#181818;stroke-width:1.0;"/><path d="M509.4688,95.6406 Q508.8906,95.9375 508.25,96.0781 Q507.6094,96.2344 506.9063,96.2344 Q504.4063,96.2344 503.0781,94.5938 Q501.7656,92.9375 501.7656,89.8125 Q501.7656,86.6875 503.0781,85.0313 Q504.4063,83.375 506.9063,83.375 Q507.6094,83.375 508.25,83.5313 Q508.9063,83.6875 509.4688,83.9844 L509.4688,86.7031 Q508.8438,86.125 508.25,85.8594 Q507.6563,85.5781 507.0313,85.5781 Q505.6875,85.5781 505,86.6563 Q504.3125,87.7188 504.3125,89.8125 Q504.3125,91.9063 505,92.9844 Q505.6875,94.0469 507.0313,94.0469 Q507.6563,94.0469 508.25,93.7813 Q508.8438,93.5 509.4688,92.9219 L509.4688,95.6406 Z " fill="#000000"/><text fill="#000000" font-family="sans-serif" font-size="14" lengthAdjust="spacing" textLength="84" x="520.5" y="94.8467">TimeService</text></g><!--class DataService<I, T>--><g id="elem_DataService&lt;I, T&gt;"><rect codeLine="16" fill="#F1F1F1" height="32" id="DataService&lt;I, T&gt;" rx="2.5" ry="2.5" style="stroke:#181818;stroke-width:0.5;" width="160" x="469.5" y="141"/><ellipse cx="484.5" cy="157" fill="#A9DCDF" rx="11" ry="11" style="stroke:#181818;stroke-width:1.0;"/><path d="M484.6094,152.3438 L483.4531,157.4219 L485.7813,157.4219 L484.6094,152.3438 Z M483.125,150.1094 L486.1094,150.1094 L489.4688,162.5 L487.0156,162.5 L486.25,159.4375 L482.9688,159.4375 L482.2188,162.5 L479.7813,162.5 L483.125,150.1094 Z " fill="#000000"/><text fill="#000000" font-family="sans-serif" font-size="14" font-style="italic" lengthAdjust="spacing" textLength="128" x="498.5" y="161.8467">DataService&lt;I, T&gt;</text></g><!--class LocationBasedService<DataObject, AbsolutePosition>--><g id="elem_LocationBasedService&lt;DataObject, AbsolutePosition&gt;"><rect codeLine="19" fill="#F1F1F1" height="32" id="LocationBasedService&lt;DataObject, AbsolutePosition&gt;" rx="2.5" ry="2.5" style="stroke:#181818;stroke-width:0.5;" width="409" x="345" y="208"/><ellipse cx="360" cy="224" fill="#ADD1B2" rx="11" ry="11" style="stroke:#181818;stroke-width:1.0;"/><path d="M362.9688,229.6406 Q362.3906,229.9375 361.75,230.0781 Q361.1094,230.2344 360.4063,230.2344 Q357.9063,230.2344 356.5781,228.5938 Q355.2656,226.9375 355.2656,223.8125 Q355.2656,220.6875 356.5781,219.0313 Q357.9063,217.375 360.4063,217.375 Q361.1094,217.375 361.75,217.5313 Q362.4063,217.6875 362.9688,217.9844 L362.9688,220.7031 Q362.3438,220.125 361.75,219.8594 Q361.1563,219.5781 360.5313,219.5781 Q359.1875,219.5781 358.5,220.6563 Q357.8125,221.7188 357.8125,223.8125 Q357.8125,225.9063 358.5,226.9844 Q359.1875,228.0469 360.5313,228.0469 Q361.1563,228.0469 361.75,227.7813 Q362.3438,227.5 362.9688,226.9219 L362.9688,229.6406 Z " fill="#000000"/><text fill="#000000" font-family="sans-serif" font-size="14" lengthAdjust="spacing" textLength="377" x="374" y="228.8467">LocationBasedService&lt;DataObject, AbsolutePosition&gt;</text></g><!--class RemoteService--><g id="elem_RemoteService"><rect codeLine="22" fill="#F1F1F1" height="32" id="RemoteService" rx="2.5" ry="2.5" style="stroke:#181818;stroke-width:0.5;" width="138" x="480.5" y="275"/><ellipse cx="495.5" cy="291" fill="#A9DCDF" rx="11" ry="11" style="stroke:#181818;stroke-width:1.0;"/><path d="M495.6094,286.3438 L494.4531,291.4219 L496.7813,291.4219 L495.6094,286.3438 Z M494.125,284.1094 L497.1094,284.1094 L500.4688,296.5 L498.0156,296.5 L497.25,293.4375 L493.9688,293.4375 L493.2188,296.5 L490.7813,296.5 L494.125,284.1094 Z " fill="#000000"/><text fill="#000000" font-family="sans-serif" font-size="14" font-style="italic" lengthAdjust="spacing" textLength="106" x="509.5" y="295.8467">RemoteService</text></g><!--class RemoteServiceProxy<Service, RemoteService>--><g id="elem_RemoteServiceProxy&lt;Service, RemoteService&gt;"><rect codeLine="25" fill="#F1F1F1" height="32" id="RemoteServiceProxy&lt;Service, RemoteService&gt;" rx="2.5" ry="2.5" style="stroke:#181818;stroke-width:0.5;" width="361" x="369" y="342"/><ellipse cx="384" cy="358" fill="#ADD1B2" rx="11" ry="11" style="stroke:#181818;stroke-width:1.0;"/><path d="M386.9688,363.6406 Q386.3906,363.9375 385.75,364.0781 Q385.1094,364.2344 384.4063,364.2344 Q381.9063,364.2344 380.5781,362.5938 Q379.2656,360.9375 379.2656,357.8125 Q379.2656,354.6875 380.5781,353.0313 Q381.9063,351.375 384.4063,351.375 Q385.1094,351.375 385.75,351.5313 Q386.4063,351.6875 386.9688,351.9844 L386.9688,354.7031 Q386.3438,354.125 385.75,353.8594 Q385.1563,353.5781 384.5313,353.5781 Q383.1875,353.5781 382.5,354.6563 Q381.8125,355.7188 381.8125,357.8125 Q381.8125,359.9063 382.5,360.9844 Q383.1875,362.0469 384.5313,362.0469 Q385.1563,362.0469 385.75,361.7813 Q386.3438,361.5 386.9688,360.9219 L386.9688,363.6406 Z " fill="#000000"/><text fill="#000000" font-family="sans-serif" font-size="14" lengthAdjust="spacing" textLength="329" x="398" y="362.8467">RemoteServiceProxy&lt;Service, RemoteService&gt;</text></g><!--class DummyService--><g id="elem_DummyService"><rect codeLine="28" fill="#F1F1F1" height="32" id="DummyService" rx="2.5" ry="2.5" style="stroke:#181818;stroke-width:0.5;" width="135" x="482" y="409"/><ellipse cx="497" cy="425" fill="#ADD1B2" rx="11" ry="11" style="stroke:#181818;stroke-width:1.0;"/><path d="M499.9688,430.6406 Q499.3906,430.9375 498.75,431.0781 Q498.1094,431.2344 497.4063,431.2344 Q494.9063,431.2344 493.5781,429.5938 Q492.2656,427.9375 492.2656,424.8125 Q492.2656,421.6875 493.5781,420.0313 Q494.9063,418.375 497.4063,418.375 Q498.1094,418.375 498.75,418.5313 Q499.4063,418.6875 499.9688,418.9844 L499.9688,421.7031 Q499.3438,421.125 498.75,420.8594 Q498.1563,420.5781 497.5313,420.5781 Q496.1875,420.5781 495.5,421.6563 Q494.8125,422.7188 494.8125,424.8125 Q494.8125,426.9063 495.5,427.9844 Q496.1875,429.0469 497.5313,429.0469 Q498.1563,429.0469 498.75,428.7813 Q499.3438,428.5 499.9688,427.9219 L499.9688,430.6406 Z " fill="#000000"/><text fill="#000000" font-family="sans-serif" font-size="14" lengthAdjust="spacing" textLength="103" x="511" y="429.8467">DummyService</text></g><!--class CalibrationService--><g id="elem_CalibrationService"><rect codeLine="31" fill="#F1F1F1" height="32" id="CalibrationService" rx="2.5" ry="2.5" style="stroke:#181818;stroke-width:0.5;" width="155" x="472" y="476"/><ellipse cx="487" cy="492" fill="#A9DCDF" rx="11" ry="11" style="stroke:#181818;stroke-width:1.0;"/><path d="M487.1094,487.3438 L485.9531,492.4219 L488.2813,492.4219 L487.1094,487.3438 Z M485.625,485.1094 L488.6094,485.1094 L491.9688,497.5 L489.5156,497.5 L488.75,494.4375 L485.4688,494.4375 L484.7188,497.5 L482.2813,497.5 L485.625,485.1094 Z " fill="#000000"/><text fill="#000000" font-family="sans-serif" font-size="14" font-style="italic" lengthAdjust="spacing" textLength="123" x="501" y="496.8467">CalibrationService</text></g><!--reverse link AsyncEventEmitter to Service--><g id="link_AsyncEventEmitter_Service"><path codeLine="9" d="M162.55,258 C176.32,258 189.96,258 201.96,258 " fill="none" id="AsyncEventEmitter-backto-Service" style="stroke:#181818;stroke-width:1.0;"/><polygon fill="none" points="162.46,265,142.46,258,162.46,251,162.46,265" style="stroke:#181818;stroke-width:1.0;"/></g><!--reverse link Service to DataServiceDriver<I, T>--><g id="link_Service_DataServiceDriver&lt;I, T&gt;"><path codeLine="12" d="M251.76,222.25 C263.15,176.02 289.85,96.63 345,56 C374.61,34.19 413.23,24.57 448.86,20.87 " fill="none" id="Service-backto-DataServiceDriver&lt;I, T&gt;" style="stroke:#181818;stroke-width:1.0;"/><polygon fill="none" points="258.55,223.98,247.35,241.96,244.89,220.92,258.55,223.98" style="stroke:#181818;stroke-width:1.0;"/></g><!--reverse link Service to TimeService--><g id="link_Service_TimeService"><path codeLine="15" d="M260.48,223.54 C276.99,192.01 305.87,146.77 345,123 C389.2,96.15 448.34,89.1 491.47,88.05 " fill="none" id="Service-backto-TimeService" style="stroke:#181818;stroke-width:1.0;"/><polygon fill="none" points="266.54,227.07,251.42,241.91,253.98,220.88,266.54,227.07" style="stroke:#181818;stroke-width:1.0;"/></g><!--reverse link Service to DataService<I, T>--><g id="link_Service_DataService&lt;I, T&gt;"><path codeLine="18" d="M278.99,229.14 C297.46,215.17 321.26,199.42 345,190 C384.26,174.42 430.56,166.19 469.07,161.85 " fill="none" id="Service-backto-DataService&lt;I, T&gt;" style="stroke:#181818;stroke-width:1.0;"/><polygon fill="none" points="283.11,234.81,263.08,241.73,274.42,223.83,283.11,234.81" style="stroke:#181818;stroke-width:1.0;"/></g><!--reverse link Service to LocationBasedService<DataObject, AbsolutePosition>--><g id="link_Service_LocationBasedService&lt;DataObject, AbsolutePosition&gt;"><path codeLine="21" d="M305.32,251.2 C334.2,247.97 370.03,243.96 405.24,240.02 " fill="none" id="Service-backto-LocationBasedService&lt;DataObject, AbsolutePosition&gt;" style="stroke:#181818;stroke-width:1.0;"/><polygon fill="none" points="305.84,258.18,285.18,253.45,304.28,244.27,305.84,258.18" style="stroke:#181818;stroke-width:1.0;"/></g><!--reverse link Service to RemoteService--><g id="link_Service_RemoteService"><path codeLine="24" d="M305.1,264.58 C355.72,270.07 427.84,277.9 480.43,283.61 " fill="none" id="Service-backto-RemoteService" style="stroke:#181818;stroke-width:1.0;"/><polygon fill="none" points="304.31,271.53,285.18,262.42,305.82,257.62,304.31,271.53" style="stroke:#181818;stroke-width:1.0;"/></g><!--reverse link Service to RemoteServiceProxy<Service, RemoteService>--><g id="link_Service_RemoteServiceProxy&lt;Service, RemoteService&gt;"><path codeLine="27" d="M279.05,286.42 C297.54,300.18 321.34,315.7 345,325 C362.99,332.07 382.44,337.62 401.94,341.99 " fill="none" id="Service-backto-RemoteServiceProxy&lt;Service, RemoteService&gt;" style="stroke:#181818;stroke-width:1.0;"/><polygon fill="none" points="274.61,291.83,263.12,274.02,283.21,280.78,274.61,291.83" style="stroke:#181818;stroke-width:1.0;"/></g><!--reverse link Service to DummyService--><g id="link_Service_DummyService"><path codeLine="30" d="M260.8,292.7 C277.41,323.98 306.22,368.54 345,392 C386.04,416.82 439.87,424.7 481.86,426.57 " fill="none" id="Service-backto-DummyService" style="stroke:#181818;stroke-width:1.0;"/><polygon fill="none" points="254.35,295.44,251.67,274.42,266.87,289.19,254.35,295.44" style="stroke:#181818;stroke-width:1.0;"/></g><!--reverse link Service to CalibrationService--><g id="link_Service_CalibrationService"><path codeLine="33" d="M251.9,293.92 C263.39,339.97 290.16,418.68 345,459 C381.19,485.61 430.8,494.06 471.98,495.76 " fill="none" id="Service-backto-CalibrationService" style="stroke:#181818;stroke-width:1.0;"/><polygon fill="none" points="245.04,295.3,247.43,274.25,258.69,292.2,245.04,295.3" style="stroke:#181818;stroke-width:1.0;"/></g><!--SRC=[dP5DRi8m48NtESM8TRX1X0I4HQLAHPGBECv0flW7ZITHexPtRr90418YrANdVNxlZHqEv8wAbOM5qeSz-zBbIsyyWx1oeP7GIMHm9o0UcFQ5G4wCMiYxgA0S0UrHQh0eXS_3xMX7Q9g9oaBZfGMqKI70v1sv8eqJ-8f-elDi7cgdLrMJjR8aWZmv6Gq8e8crmMX8Ihwdqsj0BpbLeivYobGX9oynR6Ud9jTU9vT7yANobYnsLhatk0N6gZnPuYx-rMlL_i521SmlI8k_PH_DxyGmpu8tfU3Q1sh11md_yEajiq7hPVmnkaWqT77D_hDEpeSOEjhi2TVn-vV8jBIs7gtQ8NgxBfMXZF-URDHbWFi5]--></g></svg>