<?xml version="1.0" encoding="UTF-8" standalone="no"?><svg xmlns="http://www.w3.org/2000/svg" xmlns:xlink="http://www.w3.org/1999/xlink" contentScriptType="application/ecmascript" contentStyleType="text/css" height="455px" preserveAspectRatio="none" style="width:712px;height:455px;background:#00000000;" version="1.1" viewBox="0 0 712 455" width="712px" zoomAndPan="magnify"><defs><filter height="300%" id="f179tjqghzjm3e" width="300%" x="-1" y="-1"><feGaussianBlur result="blurOut" stdDeviation="2.0"/><feColorMatrix in="blurOut" result="blurOut2" type="matrix" values="0 0 0 0 0 0 0 0 0 0 0 0 0 0 0 0 0 0 .4 0"/><feOffset dx="4.0" dy="4.0" in="blurOut2" result="blurOut3"/><feBlend in="SourceGraphic" in2="blurOut3" mode="normal"/></filter></defs><g><!--MD5=[dbb8b4f13c7b21394f9d757e58732f45]
class Service--><rect codeLine="5" fill="#FEFECE" filter="url(#f179tjqghzjm3e)" height="32" id="Service" style="stroke:#A80036;stroke-width:1.5;" width="77" x="189" y="208"/><ellipse cx="204" cy="224" fill="#A9DCDF" rx="11" ry="11" style="stroke:#A80036;stroke-width:1.0;"/><path d="M204.1094,219.3438 L202.9531,224.4219 L205.2813,224.4219 L204.1094,219.3438 Z M202.625,217.1094 L205.6094,217.1094 L208.9688,229.5 L206.5156,229.5 L205.75,226.4375 L202.4688,226.4375 L201.7188,229.5 L199.2813,229.5 L202.625,217.1094 Z " fill="#000000"/><text fill="#000000" font-family="sans-serif" font-size="12" font-style="italic" lengthAdjust="spacing" textLength="45" x="218" y="228.1543">Service</text><!--MD5=[71c102d61d5bb14938b06cd0ee12bcfc]
class AsyncEventEmitter--><rect codeLine="7" fill="#FEFECE" filter="url(#f179tjqghzjm3e)" height="23.9688" id="AsyncEventEmitter" style="stroke:#A80036;stroke-width:1.5;" width="122" x="7" y="212"/><text fill="#000000" font-family="sans-serif" font-size="12" lengthAdjust="spacing" textLength="116" x="10" y="228.1387">AsyncEventEmitter</text><!--MD5=[c76d0fce5d3661eb136e4d7eaf503103]
class DataServiceDriver<I, T>--><rect codeLine="10" fill="#FEFECE" filter="url(#f179tjqghzjm3e)" height="32" id="DataServiceDriver&lt;I, T&gt;" style="stroke:#A80036;stroke-width:1.5;" width="182" x="421" y="7"/><ellipse cx="436" cy="23" fill="#A9DCDF" rx="11" ry="11" style="stroke:#A80036;stroke-width:1.0;"/><path d="M436.1094,18.3438 L434.9531,23.4219 L437.2813,23.4219 L436.1094,18.3438 Z M434.625,16.1094 L437.6094,16.1094 L440.9688,28.5 L438.5156,28.5 L437.75,25.4375 L434.4688,25.4375 L433.7188,28.5 L431.2813,28.5 L434.625,16.1094 Z " fill="#000000"/><text fill="#000000" font-family="sans-serif" font-size="12" font-style="italic" lengthAdjust="spacing" textLength="150" x="450" y="27.1543">DataServiceDriver&lt;I, T&gt;</text><!--MD5=[b10e821940cc244e52c7ceaff4352c4a]
class TimeService--><rect codeLine="13" fill="#FEFECE" filter="url(#f179tjqghzjm3e)" height="32" id="TimeService" style="stroke:#A80036;stroke-width:1.5;" width="106" x="459" y="74"/><ellipse cx="474" cy="90" fill="#ADD1B2" rx="11" ry="11" style="stroke:#A80036;stroke-width:1.0;"/><path d="M476.9688,95.6406 Q476.3906,95.9375 475.75,96.0781 Q475.1094,96.2344 474.4063,96.2344 Q471.9063,96.2344 470.5781,94.5938 Q469.2656,92.9375 469.2656,89.8125 Q469.2656,86.6875 470.5781,85.0313 Q471.9063,83.375 474.4063,83.375 Q475.1094,83.375 475.75,83.5313 Q476.4063,83.6875 476.9688,83.9844 L476.9688,86.7031 Q476.3438,86.125 475.75,85.8594 Q475.1563,85.5781 474.5313,85.5781 Q473.1875,85.5781 472.5,86.6563 Q471.8125,87.7188 471.8125,89.8125 Q471.8125,91.9063 472.5,92.9844 Q473.1875,94.0469 474.5313,94.0469 Q475.1563,94.0469 475.75,93.7813 Q476.3438,93.5 476.9688,92.9219 L476.9688,95.6406 Z " fill="#000000"/><text fill="#000000" font-family="sans-serif" font-size="12" lengthAdjust="spacing" textLength="74" x="488" y="94.1543">TimeService</text><!--MD5=[56778e99bf8b6cf989f5879aab54d3b1]
class DataService<I, T>--><rect codeLine="16" fill="#FEFECE" filter="url(#f179tjqghzjm3e)" height="32" id="DataService&lt;I, T&gt;" style="stroke:#A80036;stroke-width:1.5;" width="146" x="439" y="141"/><ellipse cx="454" cy="157" fill="#A9DCDF" rx="11" ry="11" style="stroke:#A80036;stroke-width:1.0;"/><path d="M454.1094,152.3438 L452.9531,157.4219 L455.2813,157.4219 L454.1094,152.3438 Z M452.625,150.1094 L455.6094,150.1094 L458.9688,162.5 L456.5156,162.5 L455.75,159.4375 L452.4688,159.4375 L451.7188,162.5 L449.2813,162.5 L452.625,150.1094 Z " fill="#000000"/><text fill="#000000" font-family="sans-serif" font-size="12" font-style="italic" lengthAdjust="spacing" textLength="114" x="468" y="161.1543">DataService&lt;I, T&gt;</text><!--MD5=[ac66b0860699b333e168a88f2d25ef98]
class LocationBasedService<DataObject, AbsolutePosition>--><rect codeLine="19" fill="#FEFECE" filter="url(#f179tjqghzjm3e)" height="32" id="LocationBasedService&lt;DataObject, AbsolutePosition&gt;" style="stroke:#A80036;stroke-width:1.5;" width="372" x="326" y="208"/><ellipse cx="341" cy="224" fill="#ADD1B2" rx="11" ry="11" style="stroke:#A80036;stroke-width:1.0;"/><path d="M343.9688,229.6406 Q343.3906,229.9375 342.75,230.0781 Q342.1094,230.2344 341.4063,230.2344 Q338.9063,230.2344 337.5781,228.5938 Q336.2656,226.9375 336.2656,223.8125 Q336.2656,220.6875 337.5781,219.0313 Q338.9063,217.375 341.4063,217.375 Q342.1094,217.375 342.75,217.5313 Q343.4063,217.6875 343.9688,217.9844 L343.9688,220.7031 Q343.3438,220.125 342.75,219.8594 Q342.1563,219.5781 341.5313,219.5781 Q340.1875,219.5781 339.5,220.6563 Q338.8125,221.7188 338.8125,223.8125 Q338.8125,225.9063 339.5,226.9844 Q340.1875,228.0469 341.5313,228.0469 Q342.1563,228.0469 342.75,227.7813 Q343.3438,227.5 343.9688,226.9219 L343.9688,229.6406 Z " fill="#000000"/><text fill="#000000" font-family="sans-serif" font-size="12" lengthAdjust="spacing" textLength="340" x="355" y="228.1543">LocationBasedService&lt;DataObject, AbsolutePosition&gt;</text><!--MD5=[62890ff050762761d092c9c7651a4a3f]
class RemoteService--><rect codeLine="22" fill="#FEFECE" filter="url(#f179tjqghzjm3e)" height="32" id="RemoteService" style="stroke:#A80036;stroke-width:1.5;" width="125" x="449.5" y="275"/><ellipse cx="464.5" cy="291" fill="#A9DCDF" rx="11" ry="11" style="stroke:#A80036;stroke-width:1.0;"/><path d="M464.6094,286.3438 L463.4531,291.4219 L465.7813,291.4219 L464.6094,286.3438 Z M463.125,284.1094 L466.1094,284.1094 L469.4688,296.5 L467.0156,296.5 L466.25,293.4375 L462.9688,293.4375 L462.2188,296.5 L459.7813,296.5 L463.125,284.1094 Z " fill="#000000"/><text fill="#000000" font-family="sans-serif" font-size="12" font-style="italic" lengthAdjust="spacing" textLength="93" x="478.5" y="295.1543">RemoteService</text><!--MD5=[a19a6ed89f67d1b3742c8a21b929546f]
class RemoteServiceProxy<Service, RemoteService>--><rect codeLine="25" fill="#FEFECE" filter="url(#f179tjqghzjm3e)" height="32" id="RemoteServiceProxy&lt;Service, RemoteService&gt;" style="stroke:#A80036;stroke-width:1.5;" width="324" x="350" y="342"/><ellipse cx="365" cy="358" fill="#ADD1B2" rx="11" ry="11" style="stroke:#A80036;stroke-width:1.0;"/><path d="M367.9688,363.6406 Q367.3906,363.9375 366.75,364.0781 Q366.1094,364.2344 365.4063,364.2344 Q362.9063,364.2344 361.5781,362.5938 Q360.2656,360.9375 360.2656,357.8125 Q360.2656,354.6875 361.5781,353.0313 Q362.9063,351.375 365.4063,351.375 Q366.1094,351.375 366.75,351.5313 Q367.4063,351.6875 367.9688,351.9844 L367.9688,354.7031 Q367.3438,354.125 366.75,353.8594 Q366.1563,353.5781 365.5313,353.5781 Q364.1875,353.5781 363.5,354.6563 Q362.8125,355.7188 362.8125,357.8125 Q362.8125,359.9063 363.5,360.9844 Q364.1875,362.0469 365.5313,362.0469 Q366.1563,362.0469 366.75,361.7813 Q367.3438,361.5 367.9688,360.9219 L367.9688,363.6406 Z " fill="#000000"/><text fill="#000000" font-family="sans-serif" font-size="12" lengthAdjust="spacing" textLength="292" x="379" y="362.1543">RemoteServiceProxy&lt;Service, RemoteService&gt;</text><!--MD5=[20710f8634a6db84787011afa6dad98a]
class DummyService--><rect codeLine="28" fill="#FEFECE" filter="url(#f179tjqghzjm3e)" height="32" id="DummyService" style="stroke:#A80036;stroke-width:1.5;" width="122" x="451" y="409"/><ellipse cx="466" cy="425" fill="#ADD1B2" rx="11" ry="11" style="stroke:#A80036;stroke-width:1.0;"/><path d="M468.9688,430.6406 Q468.3906,430.9375 467.75,431.0781 Q467.1094,431.2344 466.4063,431.2344 Q463.9063,431.2344 462.5781,429.5938 Q461.2656,427.9375 461.2656,424.8125 Q461.2656,421.6875 462.5781,420.0313 Q463.9063,418.375 466.4063,418.375 Q467.1094,418.375 467.75,418.5313 Q468.4063,418.6875 468.9688,418.9844 L468.9688,421.7031 Q468.3438,421.125 467.75,420.8594 Q467.1563,420.5781 466.5313,420.5781 Q465.1875,420.5781 464.5,421.6563 Q463.8125,422.7188 463.8125,424.8125 Q463.8125,426.9063 464.5,427.9844 Q465.1875,429.0469 466.5313,429.0469 Q467.1563,429.0469 467.75,428.7813 Q468.3438,428.5 468.9688,427.9219 L468.9688,430.6406 Z " fill="#000000"/><text fill="#000000" font-family="sans-serif" font-size="12" lengthAdjust="spacing" textLength="90" x="480" y="429.1543">DummyService</text><!--MD5=[e09790f6032badb42a0909a7bd34e5c1]
reverse link AsyncEventEmitter to Service--><path codeLine="9" d="M149.9,224 C163.48,224 176.97,224 188.76,224 " fill="none" id="AsyncEventEmitter-backto-Service" style="stroke:#A80036;stroke-width:1.0;"/><polygon fill="none" points="149.44,231,129.44,224,149.44,217,149.44,231" style="stroke:#A80036;stroke-width:1.0;"/><!--MD5=[38b151187c62877230fe698df5ac1715]
reverse link Service to DataServiceDriver<I, T>--><path codeLine="12" d="M239.01,188.69 C252.54,149.71 279.95,88.23 326,56 C353.4,36.82 388.51,27.71 420.77,23.68 " fill="none" id="Service-backto-DataServiceDriver&lt;I, T&gt;" style="stroke:#A80036;stroke-width:1.0;"/><polygon fill="none" points="245.61,191.03,232.82,207.93,232.28,186.75,245.61,191.03" style="stroke:#A80036;stroke-width:1.0;"/><!--MD5=[356f7ab14a9e59e0bde6b8c10b539b17]
reverse link Service to TimeService--><path codeLine="15" d="M251.14,191.41 C268.82,168.55 295.47,139.27 326,123 C367.17,101.05 420.07,93.33 458.75,90.78 " fill="none" id="Service-backto-TimeService" style="stroke:#A80036;stroke-width:1.0;"/><polygon fill="none" points="256.69,195.68,239.21,207.65,245.4,187.39,256.69,195.68" style="stroke:#A80036;stroke-width:1.0;"/><!--MD5=[97da2f35b32cfad258435b423ec52503]
reverse link Service to DataService<I, T>--><path codeLine="18" d="M285.24,202.51 C298.49,197.97 312.64,193.5 326,190 C362.77,180.37 404.39,172.68 438.82,167.14 " fill="none" id="Service-backto-DataService&lt;I, T&gt;" style="stroke:#A80036;stroke-width:1.0;"/><polygon fill="none" points="287.23,209.23,266.04,209.34,282.53,196.04,287.23,209.23" style="stroke:#A80036;stroke-width:1.0;"/><!--MD5=[a8a1e470a945540d18475f86b6c8ded5]
reverse link Service to LocationBasedService<DataObject, AbsolutePosition>--><path codeLine="21" d="M286.33,224 C298.46,224 311.87,224 325.92,224 " fill="none" id="Service-backto-LocationBasedService&lt;DataObject, AbsolutePosition&gt;" style="stroke:#A80036;stroke-width:1.0;"/><polygon fill="none" points="286.01,231,266.01,224,286.01,217,286.01,231" style="stroke:#A80036;stroke-width:1.0;"/><!--MD5=[b005a5d4c00480fdd794241a22d1deee]
reverse link Service to RemoteService--><path codeLine="24" d="M285.24,245.49 C298.49,250.03 312.64,254.5 326,258 C366.56,268.62 413.01,276.89 449.22,282.5 " fill="none" id="Service-backto-RemoteService" style="stroke:#A80036;stroke-width:1.0;"/><polygon fill="none" points="282.53,251.96,266.04,238.66,287.23,238.77,282.53,251.96" style="stroke:#A80036;stroke-width:1.0;"/><!--MD5=[a259318da9bbea07c5828f50f2818d5e]
reverse link Service to RemoteServiceProxy<Service, RemoteService>--><path codeLine="27" d="M251.14,256.59 C268.82,279.45 295.47,308.73 326,325 C339.1,331.98 353.39,337.53 368.02,341.92 " fill="none" id="Service-backto-RemoteServiceProxy&lt;Service, RemoteService&gt;" style="stroke:#A80036;stroke-width:1.0;"/><polygon fill="none" points="245.4,260.61,239.21,240.35,256.69,252.32,245.4,260.61" style="stroke:#A80036;stroke-width:1.0;"/><!--MD5=[c7731a9f0795bda8d0a53a7cac2d2157]
reverse link Service to DummyService--><path codeLine="30" d="M239.01,259.31 C252.54,298.29 279.95,359.77 326,392 C362.22,417.35 411.92,425.11 450.69,426.8 " fill="none" id="Service-backto-DummyService" style="stroke:#A80036;stroke-width:1.0;"/><polygon fill="none" points="232.28,261.25,232.82,240.07,245.61,256.97,232.28,261.25" style="stroke:#A80036;stroke-width:1.0;"/><!--MD5=[e1464ed3e0bcd0ad599357e581214568]
@startuml
skinparam BackgroundColor transparent
left to right direction
hide empty methods
hide empty fields
abstract class "Service" {
}
class "AsyncEventEmitter"
hide "AsyncEventEmitter" circle
"AsyncEventEmitter" <|- - "Service"
abstract class "DataServiceDriver<I, T>" {
}
"Service" <|- - "DataServiceDriver<I, T>"
class "TimeService" {
}
"Service" <|- - "TimeService"
abstract class "DataService<I, T>" {
}
"Service" <|- - "DataService<I, T>"
class "LocationBasedService<DataObject, AbsolutePosition>" {
}
"Service" <|- - "LocationBasedService<DataObject, AbsolutePosition>"
abstract class "RemoteService" {
}
"Service" <|- - "RemoteService"
class "RemoteServiceProxy<Service, RemoteService>" {
}
"Service" <|- - "RemoteServiceProxy<Service, RemoteService>"
class "DummyService" {
}
"Service" <|- - "DummyService"
@enduml

PlantUML version 1.2021.14(Fri Nov 12 16:46:50 UTC 2021)
(GPL source distribution)
Java Runtime: OpenJDK Runtime Environment
JVM: OpenJDK 64-Bit Server VM
Default Encoding: UTF-8
Language: en
Country: null
--></g></svg>