<?xml version="1.0" encoding="us-ascii" standalone="no"?><svg xmlns="http://www.w3.org/2000/svg" xmlns:xlink="http://www.w3.org/1999/xlink" contentStyleType="text/css" height="132px" preserveAspectRatio="none" style="width:180px;height:132px;" version="1.1" viewBox="0 0 180 132" width="180px" zoomAndPan="magnify"><defs/><g><!--class SetTypeDescriptor--><g id="elem_SetTypeDescriptor"><rect codeLine="4" fill="#F1F1F1" height="32" id="SetTypeDescriptor" rx="2.5" ry="2.5" style="stroke:#181818;stroke-width:0.5;" width="161" x="9.5" y="93"/><ellipse cx="24.5" cy="109" fill="#ADD1B2" rx="11" ry="11" style="stroke:#181818;stroke-width:1.0;"/><path d="M27.4688,114.6406 Q26.8906,114.9375 26.25,115.0781 Q25.6094,115.2344 24.9063,115.2344 Q22.4063,115.2344 21.0781,113.5938 Q19.7656,111.9375 19.7656,108.8125 Q19.7656,105.6875 21.0781,104.0313 Q22.4063,102.375 24.9063,102.375 Q25.6094,102.375 26.25,102.5313 Q26.9063,102.6875 27.4688,102.9844 L27.4688,105.7031 Q26.8438,105.125 26.25,104.8594 Q25.6563,104.5781 25.0313,104.5781 Q23.6875,104.5781 23,105.6563 Q22.3125,106.7188 22.3125,108.8125 Q22.3125,110.9063 23,111.9844 Q23.6875,113.0469 25.0313,113.0469 Q25.6563,113.0469 26.25,112.7813 Q26.8438,112.5 27.4688,111.9219 L27.4688,114.6406 Z " fill="#000000"/><text fill="#000000" font-family="sans-serif" font-size="14" lengthAdjust="spacing" textLength="129" x="38.5" y="113.8467">SetTypeDescriptor</text></g><!--class GenericTypeDescriptor--><g id="elem_GenericTypeDescriptor"><rect codeLine="6" fill="#F1F1F1" height="26.2969" id="GenericTypeDescriptor" rx="2.5" ry="2.5" style="stroke:#181818;stroke-width:0.5;" width="166" x="7" y="7"/><text fill="#000000" font-family="sans-serif" font-size="14" lengthAdjust="spacing" textLength="160" x="10" y="24.9951">GenericTypeDescriptor</text></g><!--reverse link GenericTypeDescriptor to SetTypeDescriptor--><g id="link_GenericTypeDescriptor_SetTypeDescriptor"><path codeLine="8" d="M90,51.1 C90,66.69 90,75.82 90,92.79 " fill="none" id="GenericTypeDescriptor-backto-SetTypeDescriptor" style="stroke:#181818;stroke-width:1.0;"/><polygon fill="none" points="90,33.1,84,51.1,96,51.1,90,33.1" style="stroke:#181818;stroke-width:1.0;"/></g><!--SRC=[TSrD2i9G30JWVKyHkkyDNAdW0VG2ZxpHXhu_ahWerhjR4474RkSRPcoIqeA6JFl0qqthlSH3JLN9DHHR2SMxKI88kVbC6JxMQD_HLP3MX5Cme_uClymDHnYhDA_QqwDxVlI40XN-QRpNDf1Ob1EwBTujm_3lzWK0]--></g></svg>