<?xml version="1.0" encoding="UTF-8" standalone="no"?><svg xmlns="http://www.w3.org/2000/svg" xmlns:xlink="http://www.w3.org/1999/xlink" contentScriptType="application/ecmascript" contentStyleType="text/css" height="137px" preserveAspectRatio="none" style="width:169px;height:137px;background:#00000000;" version="1.1" viewBox="0 0 169 137" width="169px" zoomAndPan="magnify"><defs><filter height="300%" id="f4bug20x7c1ei" width="300%" x="-1" y="-1"><feGaussianBlur result="blurOut" stdDeviation="2.0"/><feColorMatrix in="blurOut" result="blurOut2" type="matrix" values="0 0 0 0 0 0 0 0 0 0 0 0 0 0 0 0 0 0 .4 0"/><feOffset dx="4.0" dy="4.0" in="blurOut2" result="blurOut3"/><feBlend in="SourceGraphic" in2="blurOut3" mode="normal"/></filter></defs><g><!--MD5=[3d8b5084ed20d7b7e27b2f170b1e7da1]
class SetTypeDescriptor--><rect codeLine="4" fill="#FEFECE" filter="url(#f4bug20x7c1ei)" height="32" id="SetTypeDescriptor" style="stroke:#A80036;stroke-width:1.5;" width="147" x="7.5" y="91"/><ellipse cx="22.5" cy="107" fill="#ADD1B2" rx="11" ry="11" style="stroke:#A80036;stroke-width:1.0;"/><path d="M25.4688,112.6406 Q24.8906,112.9375 24.25,113.0781 Q23.6094,113.2344 22.9063,113.2344 Q20.4063,113.2344 19.0781,111.5938 Q17.7656,109.9375 17.7656,106.8125 Q17.7656,103.6875 19.0781,102.0313 Q20.4063,100.375 22.9063,100.375 Q23.6094,100.375 24.25,100.5313 Q24.9063,100.6875 25.4688,100.9844 L25.4688,103.7031 Q24.8438,103.125 24.25,102.8594 Q23.6563,102.5781 23.0313,102.5781 Q21.6875,102.5781 21,103.6563 Q20.3125,104.7188 20.3125,106.8125 Q20.3125,108.9063 21,109.9844 Q21.6875,111.0469 23.0313,111.0469 Q23.6563,111.0469 24.25,110.7813 Q24.8438,110.5 25.4688,109.9219 L25.4688,112.6406 Z " fill="#000000"/><text fill="#000000" font-family="sans-serif" font-size="12" lengthAdjust="spacing" textLength="115" x="36.5" y="111.1543">SetTypeDescriptor</text><!--MD5=[ecb97c93c596d050d884ecf15662f594]
class GenericTypeDescriptor--><rect codeLine="6" fill="#FEFECE" filter="url(#f4bug20x7c1ei)" height="23.9688" id="GenericTypeDescriptor" style="stroke:#A80036;stroke-width:1.5;" width="148" x="7" y="7"/><text fill="#000000" font-family="sans-serif" font-size="12" lengthAdjust="spacing" textLength="142" x="10" y="23.1387">GenericTypeDescriptor</text><!--MD5=[8de2c744ea3562f57b15957c4660b104]
reverse link GenericTypeDescriptor to SetTypeDescriptor--><path codeLine="8" d="M81,51.39 C81,64.91 81,80.08 81,91 " fill="none" id="GenericTypeDescriptor-backto-SetTypeDescriptor" style="stroke:#A80036;stroke-width:1.0;"/><polygon fill="none" points="74,51.24,81,31.24,88,51.24,74,51.24" style="stroke:#A80036;stroke-width:1.0;"/><!--MD5=[3706dd12bd2a47178fb4fdd91b48881b]
@startuml
skinparam BackgroundColor transparent
hide empty methods
hide empty fields
class "SetTypeDescriptor" {
}
class "GenericTypeDescriptor"
hide "GenericTypeDescriptor" circle
"GenericTypeDescriptor" <|- - "SetTypeDescriptor"
@enduml

PlantUML version 1.2021.14(Fri Nov 12 16:46:50 UTC 2021)
(GPL source distribution)
Java Runtime: OpenJDK Runtime Environment
JVM: OpenJDK 64-Bit Server VM
Default Encoding: UTF-8
Language: en
Country: null
--></g></svg>