<?xml version="1.0" encoding="UTF-8" standalone="no"?><svg xmlns="http://www.w3.org/2000/svg" xmlns:xlink="http://www.w3.org/1999/xlink" contentScriptType="application/ecmascript" contentStyleType="text/css" height="237px" preserveAspectRatio="none" style="width:234px;height:237px;background:#00000000;" version="1.1" viewBox="0 0 234 237" width="234px" zoomAndPan="magnify"><defs><filter height="300%" id="f1j5rcak0buflv" width="300%" x="-1" y="-1"><feGaussianBlur result="blurOut" stdDeviation="2.0"/><feColorMatrix in="blurOut" result="blurOut2" type="matrix" values="0 0 0 0 0 0 0 0 0 0 0 0 0 0 0 0 0 0 .4 0"/><feOffset dx="4.0" dy="4.0" in="blurOut2" result="blurOut3"/><feBlend in="SourceGraphic" in2="blurOut3" mode="normal"/></filter></defs><g><!--MD5=[3a45af97e6b535177081653004ae69d4]
class SinkNodeOptions--><rect codeLine="4" fill="#FEFECE" filter="url(#f1j5rcak0buflv)" height="32" id="SinkNodeOptions" style="stroke:#A80036;stroke-width:1.5;" width="137" x="45" y="99"/><ellipse cx="60" cy="115" fill="#B4A7E5" rx="11" ry="11" style="stroke:#A80036;stroke-width:1.0;"/><path d="M55.9219,110.7656 L55.9219,108.6094 L63.3125,108.6094 L63.3125,110.7656 L60.8438,110.7656 L60.8438,118.8438 L63.3125,118.8438 L63.3125,121 L55.9219,121 L55.9219,118.8438 L58.3906,118.8438 L58.3906,110.7656 L55.9219,110.7656 Z " fill="#000000"/><text fill="#000000" font-family="sans-serif" font-size="12" font-style="italic" lengthAdjust="spacing" textLength="105" x="74" y="119.1543">SinkNodeOptions</text><!--MD5=[680d5112d2c67c3de15744b0ad7e4a6c]
class NodeOptions--><rect codeLine="6" fill="#FEFECE" filter="url(#f1j5rcak0buflv)" height="32" id="NodeOptions" style="stroke:#A80036;stroke-width:1.5;" width="111" x="58" y="7"/><ellipse cx="73" cy="23" fill="#B4A7E5" rx="11" ry="11" style="stroke:#A80036;stroke-width:1.0;"/><path d="M68.9219,18.7656 L68.9219,16.6094 L76.3125,16.6094 L76.3125,18.7656 L73.8438,18.7656 L73.8438,26.8438 L76.3125,26.8438 L76.3125,29 L68.9219,29 L68.9219,26.8438 L71.3906,26.8438 L71.3906,18.7656 L68.9219,18.7656 Z " fill="#000000"/><text fill="#000000" font-family="sans-serif" font-size="12" font-style="italic" lengthAdjust="spacing" textLength="79" x="87" y="27.1543">NodeOptions</text><!--MD5=[f265a7252ead12bb689f64c8e31db9a1]
class RemoteSinkNodeOptions<S>--><rect codeLine="9" fill="#FEFECE" filter="url(#f1j5rcak0buflv)" height="32" id="RemoteSinkNodeOptions&lt;S&gt;" style="stroke:#A80036;stroke-width:1.5;" width="213" x="7" y="191"/><ellipse cx="22" cy="207" fill="#B4A7E5" rx="11" ry="11" style="stroke:#A80036;stroke-width:1.0;"/><path d="M17.9219,202.7656 L17.9219,200.6094 L25.3125,200.6094 L25.3125,202.7656 L22.8438,202.7656 L22.8438,210.8438 L25.3125,210.8438 L25.3125,213 L17.9219,213 L17.9219,210.8438 L20.3906,210.8438 L20.3906,202.7656 L17.9219,202.7656 Z " fill="#000000"/><text fill="#000000" font-family="sans-serif" font-size="12" font-style="italic" lengthAdjust="spacing" textLength="181" x="36" y="211.1543">RemoteSinkNodeOptions&lt;S&gt;</text><!--MD5=[c53316f3a39552c4811e64290afb8ef0]
reverse link NodeOptions to SinkNodeOptions--><path codeLine="8" d="M113.5,59.61 C113.5,73.31 113.5,88.22 113.5,98.96 " fill="none" id="NodeOptions-backto-SinkNodeOptions" style="stroke:#A80036;stroke-width:1.0;"/><polygon fill="none" points="106.5,59.27,113.5,39.27,120.5,59.27,106.5,59.27" style="stroke:#A80036;stroke-width:1.0;"/><!--MD5=[430bce2b6df8335557a51f43f929cf99]
reverse link SinkNodeOptions to RemoteSinkNodeOptions<S>--><path codeLine="11" d="M113.5,151.61 C113.5,165.31 113.5,180.22 113.5,190.96 " fill="none" id="SinkNodeOptions-backto-RemoteSinkNodeOptions&lt;S&gt;" style="stroke:#A80036;stroke-width:1.0;"/><polygon fill="none" points="106.5,151.27,113.5,131.27,120.5,151.27,106.5,151.27" style="stroke:#A80036;stroke-width:1.0;"/><!--MD5=[b826be81db4fb67b02c0d33f26e233ac]
@startuml
skinparam BackgroundColor transparent
hide empty methods
hide empty fields
interface "SinkNodeOptions" {
}
interface "NodeOptions" {
}
"NodeOptions" <|- - "SinkNodeOptions"
interface "RemoteSinkNodeOptions<S>" {
}
"SinkNodeOptions" <|- - "RemoteSinkNodeOptions<S>"
@enduml

PlantUML version 1.2021.14(Fri Nov 12 16:46:50 UTC 2021)
(GPL source distribution)
Java Runtime: OpenJDK Runtime Environment
JVM: OpenJDK 64-Bit Server VM
Default Encoding: UTF-8
Language: en
Country: null
--></g></svg>