<?xml version="1.0" encoding="UTF-8" standalone="no"?><svg xmlns="http://www.w3.org/2000/svg" xmlns:xlink="http://www.w3.org/1999/xlink" contentScriptType="application/ecmascript" contentStyleType="text/css" height="238px" preserveAspectRatio="none" style="width:194px;height:238px;background:#00000000;" version="1.1" viewBox="0 0 194 238" width="194px" zoomAndPan="magnify"><defs><filter height="300%" id="f1bbl33clvff58" width="300%" x="-1" y="-1"><feGaussianBlur result="blurOut" stdDeviation="2.0"/><feColorMatrix in="blurOut" result="blurOut2" type="matrix" values="0 0 0 0 0 0 0 0 0 0 0 0 0 0 0 0 0 0 .4 0"/><feOffset dx="4.0" dy="4.0" in="blurOut2" result="blurOut3"/><feBlend in="SourceGraphic" in2="blurOut3" mode="normal"/></filter></defs><g><!--MD5=[3a45af97e6b535177081653004ae69d4]
class SinkNodeOptions--><rect codeLine="4" fill="#FEFECE" filter="url(#f1bbl33clvff58)" height="91.2188" id="SinkNodeOptions" style="stroke:#A80036;stroke-width:1.5;" width="173" x="7" y="133"/><ellipse cx="38.2" cy="149" fill="#B4A7E5" rx="11" ry="11" style="stroke:#A80036;stroke-width:1.0;"/><path d="M34.1219,144.7656 L34.1219,142.6094 L41.5125,142.6094 L41.5125,144.7656 L39.0438,144.7656 L39.0438,152.8438 L41.5125,152.8438 L41.5125,155 L34.1219,155 L34.1219,152.8438 L36.5906,152.8438 L36.5906,144.7656 L34.1219,144.7656 Z " fill="#000000"/><text fill="#000000" font-family="sans-serif" font-size="12" font-style="italic" lengthAdjust="spacing" textLength="105" x="55.8" y="153.1543">SinkNodeOptions</text><line style="stroke:#A80036;stroke-width:1.5;" x1="8" x2="179" y1="165" y2="165"/><ellipse cx="18" cy="176" rx="3" ry="3" style="stroke:#038048;stroke-width:1.0;fill:none;"/><text fill="#000000" font-family="sans-serif" font-size="11" lengthAdjust="spacing" textLength="147" x="27" y="179.2104">completedEvent : boolean</text><ellipse cx="18" cy="188.8047" rx="3" ry="3" style="stroke:#038048;stroke-width:1.0;fill:none;"/><text fill="#000000" font-family="sans-serif" font-size="11" lengthAdjust="spacing" textLength="77" x="27" y="192.0151">name : string</text><ellipse cx="18" cy="201.6094" rx="3" ry="3" style="stroke:#038048;stroke-width:1.0;fill:none;"/><text fill="#000000" font-family="sans-serif" font-size="11" lengthAdjust="spacing" textLength="124" x="27" y="204.8198">persistence : boolean</text><ellipse cx="18" cy="214.4141" rx="3" ry="3" style="stroke:#038048;stroke-width:1.0;fill:none;"/><text fill="#000000" font-family="sans-serif" font-size="11" lengthAdjust="spacing" textLength="62" x="27" y="217.6245">uid : string</text><!--MD5=[680d5112d2c67c3de15744b0ad7e4a6c]
class NodeOptions--><rect codeLine="10" fill="#FEFECE" filter="url(#f1bbl33clvff58)" height="65.6094" id="NodeOptions" style="stroke:#A80036;stroke-width:1.5;" width="111" x="38" y="7"/><ellipse cx="53" cy="23" fill="#B4A7E5" rx="11" ry="11" style="stroke:#A80036;stroke-width:1.0;"/><path d="M48.9219,18.7656 L48.9219,16.6094 L56.3125,16.6094 L56.3125,18.7656 L53.8438,18.7656 L53.8438,26.8438 L56.3125,26.8438 L56.3125,29 L48.9219,29 L48.9219,26.8438 L51.3906,26.8438 L51.3906,18.7656 L48.9219,18.7656 Z " fill="#000000"/><text fill="#000000" font-family="sans-serif" font-size="12" font-style="italic" lengthAdjust="spacing" textLength="79" x="67" y="27.1543">NodeOptions</text><line style="stroke:#A80036;stroke-width:1.5;" x1="39" x2="148" y1="39" y2="39"/><ellipse cx="49" cy="50" rx="3" ry="3" style="stroke:#038048;stroke-width:1.0;fill:none;"/><text fill="#000000" font-family="sans-serif" font-size="11" lengthAdjust="spacing" textLength="77" x="58" y="53.2104">name : string</text><ellipse cx="49" cy="62.8047" rx="3" ry="3" style="stroke:#038048;stroke-width:1.0;fill:none;"/><text fill="#000000" font-family="sans-serif" font-size="11" lengthAdjust="spacing" textLength="62" x="58" y="66.0151">uid : string</text><!--MD5=[c53316f3a39552c4811e64290afb8ef0]
reverse link NodeOptions to SinkNodeOptions--><path codeLine="14" d="M93.5,93.18 C93.5,106.23 93.5,120.12 93.5,132.78 " fill="none" id="NodeOptions-backto-SinkNodeOptions" style="stroke:#A80036;stroke-width:1.0;"/><polygon fill="none" points="86.5,93,93.5,73,100.5,93,86.5,93" style="stroke:#A80036;stroke-width:1.0;"/><!--MD5=[431c796a85add0794b57089086f5a3a8]
@startuml
skinparam BackgroundColor transparent
hide empty methods
hide empty fields
interface "SinkNodeOptions" {
    +completedEvent : boolean
    +name : string
    +persistence : boolean
    +uid : string
}
interface "NodeOptions" {
    +name : string
    +uid : string
}
"NodeOptions" <|- - "SinkNodeOptions"
@enduml

PlantUML version 1.2021.14(Fri Nov 12 16:46:50 UTC 2021)
(GPL source distribution)
Java Runtime: OpenJDK Runtime Environment
JVM: OpenJDK 64-Bit Server VM
Default Encoding: UTF-8
Language: en
Country: null
--></g></svg>