<?xml version="1.0" encoding="us-ascii" standalone="no"?><svg xmlns="http://www.w3.org/2000/svg" xmlns:xlink="http://www.w3.org/1999/xlink" contentStyleType="text/css" height="230px" preserveAspectRatio="none" style="width:582px;height:230px;" version="1.1" viewBox="0 0 582 230" width="582px" zoomAndPan="magnify"><defs/><g><!--class SinkNode<In>--><g id="elem_SinkNode&lt;In&gt;"><rect codeLine="4" fill="#F1F1F1" height="32" id="SinkNode&lt;In&gt;" rx="2.5" ry="2.5" style="stroke:#181818;stroke-width:0.5;" width="136" x="185.5" y="99"/><ellipse cx="200.5" cy="115" fill="#A9DCDF" rx="11" ry="11" style="stroke:#181818;stroke-width:1.0;"/><path d="M200.6094,110.3438 L199.4531,115.4219 L201.7813,115.4219 L200.6094,110.3438 Z M199.125,108.1094 L202.1094,108.1094 L205.4688,120.5 L203.0156,120.5 L202.25,117.4375 L198.9688,117.4375 L198.2188,120.5 L195.7813,120.5 L199.125,108.1094 Z " fill="#000000"/><text fill="#000000" font-family="sans-serif" font-size="14" font-style="italic" lengthAdjust="spacing" textLength="104" x="214.5" y="119.8467">SinkNode&lt;In&gt;</text></g><!--class Node<In, In>--><g id="elem_Node&lt;In, In&gt;"><rect codeLine="6" fill="#F1F1F1" height="32" id="Node&lt;In, In&gt;" rx="2.5" ry="2.5" style="stroke:#181818;stroke-width:0.5;" width="125" x="191" y="7"/><ellipse cx="206" cy="23" fill="#ADD1B2" rx="11" ry="11" style="stroke:#181818;stroke-width:1.0;"/><path d="M208.9688,28.6406 Q208.3906,28.9375 207.75,29.0781 Q207.1094,29.2344 206.4063,29.2344 Q203.9063,29.2344 202.5781,27.5938 Q201.2656,25.9375 201.2656,22.8125 Q201.2656,19.6875 202.5781,18.0313 Q203.9063,16.375 206.4063,16.375 Q207.1094,16.375 207.75,16.5313 Q208.4063,16.6875 208.9688,16.9844 L208.9688,19.7031 Q208.3438,19.125 207.75,18.8594 Q207.1563,18.5781 206.5313,18.5781 Q205.1875,18.5781 204.5,19.6563 Q203.8125,20.7188 203.8125,22.8125 Q203.8125,24.9063 204.5,25.9844 Q205.1875,27.0469 206.5313,27.0469 Q207.1563,27.0469 207.75,26.7813 Q208.3438,26.5 208.9688,25.9219 L208.9688,28.6406 Z " fill="#000000"/><text fill="#000000" font-family="sans-serif" font-size="14" lengthAdjust="spacing" textLength="93" x="220" y="27.8467">Node&lt;In, In&gt;</text></g><!--class CallbackSinkNode<In>--><g id="elem_CallbackSinkNode&lt;In&gt;"><rect codeLine="9" fill="#F1F1F1" height="32" id="CallbackSinkNode&lt;In&gt;" rx="2.5" ry="2.5" style="stroke:#181818;stroke-width:0.5;" width="191" x="7" y="191"/><ellipse cx="22" cy="207" fill="#ADD1B2" rx="11" ry="11" style="stroke:#181818;stroke-width:1.0;"/><path d="M24.9688,212.6406 Q24.3906,212.9375 23.75,213.0781 Q23.1094,213.2344 22.4063,213.2344 Q19.9063,213.2344 18.5781,211.5938 Q17.2656,209.9375 17.2656,206.8125 Q17.2656,203.6875 18.5781,202.0313 Q19.9063,200.375 22.4063,200.375 Q23.1094,200.375 23.75,200.5313 Q24.4063,200.6875 24.9688,200.9844 L24.9688,203.7031 Q24.3438,203.125 23.75,202.8594 Q23.1563,202.5781 22.5313,202.5781 Q21.1875,202.5781 20.5,203.6563 Q19.8125,204.7188 19.8125,206.8125 Q19.8125,208.9063 20.5,209.9844 Q21.1875,211.0469 22.5313,211.0469 Q23.1563,211.0469 23.75,210.7813 Q24.3438,210.5 24.9688,209.9219 L24.9688,212.6406 Z " fill="#000000"/><text fill="#000000" font-family="sans-serif" font-size="14" lengthAdjust="spacing" textLength="159" x="36" y="211.8467">CallbackSinkNode&lt;In&gt;</text></g><!--class RemoteSinkNode<RemoteNode<In, In, S>>--><g id="elem_RemoteSinkNode&lt;RemoteNode&lt;In, In, S&gt;&gt;"><rect codeLine="12" fill="#F1F1F1" height="32" id="RemoteSinkNode&lt;RemoteNode&lt;In, In, S&gt;&gt;" rx="2.5" ry="2.5" style="stroke:#181818;stroke-width:0.5;" width="342" x="233.5" y="191"/><ellipse cx="248.5" cy="207" fill="#ADD1B2" rx="11" ry="11" style="stroke:#181818;stroke-width:1.0;"/><path d="M251.4688,212.6406 Q250.8906,212.9375 250.25,213.0781 Q249.6094,213.2344 248.9063,213.2344 Q246.4063,213.2344 245.0781,211.5938 Q243.7656,209.9375 243.7656,206.8125 Q243.7656,203.6875 245.0781,202.0313 Q246.4063,200.375 248.9063,200.375 Q249.6094,200.375 250.25,200.5313 Q250.9063,200.6875 251.4688,200.9844 L251.4688,203.7031 Q250.8438,203.125 250.25,202.8594 Q249.6563,202.5781 249.0313,202.5781 Q247.6875,202.5781 247,203.6563 Q246.3125,204.7188 246.3125,206.8125 Q246.3125,208.9063 247,209.9844 Q247.6875,211.0469 249.0313,211.0469 Q249.6563,211.0469 250.25,210.7813 Q250.8438,210.5 251.4688,209.9219 L251.4688,212.6406 Z " fill="#000000"/><text fill="#000000" font-family="sans-serif" font-size="14" lengthAdjust="spacing" textLength="310" x="262.5" y="211.8467">RemoteSinkNode&lt;RemoteNode&lt;In, In, S&gt;&gt;</text></g><!--reverse link Node<In, In> to SinkNode<In>--><g id="link_Node&lt;In, In&gt;_SinkNode&lt;In&gt;"><path codeLine="8" d="M253.5,59.61 C253.5,73.31 253.5,88.22 253.5,98.96 " fill="none" id="Node&lt;In, In&gt;-backto-SinkNode&lt;In&gt;" style="stroke:#181818;stroke-width:1.0;"/><polygon fill="none" points="246.5,59.27,253.5,39.27,260.5,59.27,246.5,59.27" style="stroke:#181818;stroke-width:1.0;"/></g><!--reverse link SinkNode<In> to CallbackSinkNode<In>--><g id="link_SinkNode&lt;In&gt;_CallbackSinkNode&lt;In&gt;"><path codeLine="11" d="M211,141.33 C184.22,157.29 150.53,177.37 127.86,190.89 " fill="none" id="SinkNode&lt;In&gt;-backto-CallbackSinkNode&lt;In&gt;" style="stroke:#181818;stroke-width:1.0;"/><polygon fill="none" points="207.46,135.29,228.23,131.06,214.63,147.32,207.46,135.29" style="stroke:#181818;stroke-width:1.0;"/></g><!--reverse link SinkNode<In> to RemoteSinkNode<RemoteNode<In, In, S>>--><g id="link_SinkNode&lt;In&gt;_RemoteSinkNode&lt;RemoteNode&lt;In, In, S&gt;&gt;"><path codeLine="14" d="M296,141.33 C322.78,157.29 356.47,177.37 379.14,190.89 " fill="none" id="SinkNode&lt;In&gt;-backto-RemoteSinkNode&lt;RemoteNode&lt;In, In, S&gt;&gt;" style="stroke:#181818;stroke-width:1.0;"/><polygon fill="none" points="292.37,147.32,278.77,131.06,299.54,135.29,292.37,147.32" style="stroke:#181818;stroke-width:1.0;"/></g><!--SRC=[ZOwx3i8m34NtV8NLkVs3gWETM1Ze5xYDeL5ULM861FmxaVfG5H1YzBa-ruvQkGa3MZZWeA_1tvnilV41EA2BAIB7ObIIWEp4Tx34evTnZowAJ2BOn-GC38F16A7ebDCdBwa-kgQ0XtY99LXW2LkGeVfPLPc_kYqQqwTFFykpUtF7r_MrwqpMCstHFEu-AQ5hVfN_vxy1]--></g></svg>