<?xml version="1.0" encoding="UTF-8" standalone="no"?><svg xmlns="http://www.w3.org/2000/svg" xmlns:xlink="http://www.w3.org/1999/xlink" contentScriptType="application/ecmascript" contentStyleType="text/css" height="237px" preserveAspectRatio="none" style="width:416px;height:237px;background:#00000000;" version="1.1" viewBox="0 0 416 237" width="416px" zoomAndPan="magnify"><defs><filter height="300%" id="f1r9dulioqeau8" width="300%" x="-1" y="-1"><feGaussianBlur result="blurOut" stdDeviation="2.0"/><feColorMatrix in="blurOut" result="blurOut2" type="matrix" values="0 0 0 0 0 0 0 0 0 0 0 0 0 0 0 0 0 0 .4 0"/><feOffset dx="4.0" dy="4.0" in="blurOut2" result="blurOut3"/><feBlend in="SourceGraphic" in2="blurOut3" mode="normal"/></filter></defs><g><!--MD5=[58268fbb8c2ac4a465cb59c4a34e4a3d]
class SinkNode<In>--><rect codeLine="4" fill="#FEFECE" filter="url(#f1r9dulioqeau8)" height="32" id="SinkNode&lt;In&gt;" style="stroke:#A80036;stroke-width:1.5;" width="123" x="139.5" y="99"/><ellipse cx="154.5" cy="115" fill="#A9DCDF" rx="11" ry="11" style="stroke:#A80036;stroke-width:1.0;"/><path d="M154.6094,110.3438 L153.4531,115.4219 L155.7813,115.4219 L154.6094,110.3438 Z M153.125,108.1094 L156.1094,108.1094 L159.4688,120.5 L157.0156,120.5 L156.25,117.4375 L152.9688,117.4375 L152.2188,120.5 L149.7813,120.5 L153.125,108.1094 Z " fill="#000000"/><text fill="#000000" font-family="sans-serif" font-size="12" font-style="italic" lengthAdjust="spacing" textLength="91" x="168.5" y="119.1543">SinkNode&lt;In&gt;</text><!--MD5=[6e1a6464fe74a4a14305340c9a618a11]
class Node<In, In>--><rect codeLine="6" fill="#FEFECE" filter="url(#f1r9dulioqeau8)" height="32" id="Node&lt;In, In&gt;" style="stroke:#A80036;stroke-width:1.5;" width="115" x="143.5" y="7"/><ellipse cx="158.5" cy="23" fill="#ADD1B2" rx="11" ry="11" style="stroke:#A80036;stroke-width:1.0;"/><path d="M161.4688,28.6406 Q160.8906,28.9375 160.25,29.0781 Q159.6094,29.2344 158.9063,29.2344 Q156.4063,29.2344 155.0781,27.5938 Q153.7656,25.9375 153.7656,22.8125 Q153.7656,19.6875 155.0781,18.0313 Q156.4063,16.375 158.9063,16.375 Q159.6094,16.375 160.25,16.5313 Q160.9063,16.6875 161.4688,16.9844 L161.4688,19.7031 Q160.8438,19.125 160.25,18.8594 Q159.6563,18.5781 159.0313,18.5781 Q157.6875,18.5781 157,19.6563 Q156.3125,20.7188 156.3125,22.8125 Q156.3125,24.9063 157,25.9844 Q157.6875,27.0469 159.0313,27.0469 Q159.6563,27.0469 160.25,26.7813 Q160.8438,26.5 161.4688,25.9219 L161.4688,28.6406 Z " fill="#000000"/><text fill="#000000" font-family="sans-serif" font-size="12" lengthAdjust="spacing" textLength="83" x="172.5" y="27.1543">Node&lt;In, In&gt;</text><!--MD5=[cc12a55b7b1d4c7f3ffb9787ecda070f]
class CallbackSinkNode<In>--><rect codeLine="9" fill="#FEFECE" filter="url(#f1r9dulioqeau8)" height="32" id="CallbackSinkNode&lt;In&gt;" style="stroke:#A80036;stroke-width:1.5;" width="174" x="7" y="191"/><ellipse cx="22" cy="207" fill="#ADD1B2" rx="11" ry="11" style="stroke:#A80036;stroke-width:1.0;"/><path d="M24.9688,212.6406 Q24.3906,212.9375 23.75,213.0781 Q23.1094,213.2344 22.4063,213.2344 Q19.9063,213.2344 18.5781,211.5938 Q17.2656,209.9375 17.2656,206.8125 Q17.2656,203.6875 18.5781,202.0313 Q19.9063,200.375 22.4063,200.375 Q23.1094,200.375 23.75,200.5313 Q24.4063,200.6875 24.9688,200.9844 L24.9688,203.7031 Q24.3438,203.125 23.75,202.8594 Q23.1563,202.5781 22.5313,202.5781 Q21.1875,202.5781 20.5,203.6563 Q19.8125,204.7188 19.8125,206.8125 Q19.8125,208.9063 20.5,209.9844 Q21.1875,211.0469 22.5313,211.0469 Q23.1563,211.0469 23.75,210.7813 Q24.3438,210.5 24.9688,209.9219 L24.9688,212.6406 Z " fill="#000000"/><text fill="#000000" font-family="sans-serif" font-size="12" lengthAdjust="spacing" textLength="142" x="36" y="211.1543">CallbackSinkNode&lt;In&gt;</text><!--MD5=[6f3e9730bf407261842eaba7592e494d]
class RemoteSinkNode<In, S>--><rect codeLine="12" fill="#FEFECE" filter="url(#f1r9dulioqeau8)" height="32" id="RemoteSinkNode&lt;In, S&gt;" style="stroke:#A80036;stroke-width:1.5;" width="186" x="216" y="191"/><ellipse cx="231" cy="207" fill="#ADD1B2" rx="11" ry="11" style="stroke:#A80036;stroke-width:1.0;"/><path d="M233.9688,212.6406 Q233.3906,212.9375 232.75,213.0781 Q232.1094,213.2344 231.4063,213.2344 Q228.9063,213.2344 227.5781,211.5938 Q226.2656,209.9375 226.2656,206.8125 Q226.2656,203.6875 227.5781,202.0313 Q228.9063,200.375 231.4063,200.375 Q232.1094,200.375 232.75,200.5313 Q233.4063,200.6875 233.9688,200.9844 L233.9688,203.7031 Q233.3438,203.125 232.75,202.8594 Q232.1563,202.5781 231.5313,202.5781 Q230.1875,202.5781 229.5,203.6563 Q228.8125,204.7188 228.8125,206.8125 Q228.8125,208.9063 229.5,209.9844 Q230.1875,211.0469 231.5313,211.0469 Q232.1563,211.0469 232.75,210.7813 Q233.3438,210.5 233.9688,209.9219 L233.9688,212.6406 Z " fill="#000000"/><text fill="#000000" font-family="sans-serif" font-size="12" lengthAdjust="spacing" textLength="154" x="245" y="211.1543">RemoteSinkNode&lt;In, S&gt;</text><!--MD5=[ae1c5a0854a6bebb77a72c909c8f7e19]
reverse link Node<In, In> to SinkNode<In>--><path codeLine="8" d="M201,59.61 C201,73.31 201,88.22 201,98.96 " fill="none" id="Node&lt;In, In&gt;-backto-SinkNode&lt;In&gt;" style="stroke:#A80036;stroke-width:1.0;"/><polygon fill="none" points="194,59.27,201,39.27,208,59.27,194,59.27" style="stroke:#A80036;stroke-width:1.0;"/><!--MD5=[68f73404ed884f55bb4fede0a1b6c547]
reverse link SinkNode<In> to CallbackSinkNode<In>--><path codeLine="11" d="M167.31,144.34 C148.94,159.79 126.96,178.28 111.88,190.96 " fill="none" id="SinkNode&lt;In&gt;-backto-CallbackSinkNode&lt;In&gt;" style="stroke:#A80036;stroke-width:1.0;"/><polygon fill="none" points="163.04,138.78,182.85,131.27,172.05,149.5,163.04,138.78" style="stroke:#A80036;stroke-width:1.0;"/><!--MD5=[a841a53dbe0368e41115297b4c9f0e8e]
reverse link SinkNode<In> to RemoteSinkNode<In, S>--><path codeLine="14" d="M234.72,144.1 C253.32,159.6 275.66,178.21 290.95,190.96 " fill="none" id="SinkNode&lt;In&gt;-backto-RemoteSinkNode&lt;In, S&gt;" style="stroke:#A80036;stroke-width:1.0;"/><polygon fill="none" points="230.2,149.45,219.32,131.27,239.17,138.69,230.2,149.45" style="stroke:#A80036;stroke-width:1.0;"/><!--MD5=[15501b774caaeabc7b20ad821059c8c6]
@startuml
skinparam BackgroundColor transparent
hide empty methods
hide empty fields
abstract class "SinkNode<In>" {
}
class "Node<In, In>" {
}
"Node<In, In>" <|- - "SinkNode<In>"
class "CallbackSinkNode<In>" {
}
"SinkNode<In>" <|- - "CallbackSinkNode<In>"
class "RemoteSinkNode<In, S>" {
}
"SinkNode<In>" <|- - "RemoteSinkNode<In, S>"
@enduml

PlantUML version 1.2021.14(Fri Nov 12 16:46:50 UTC 2021)
(GPL source distribution)
Java Runtime: OpenJDK Runtime Environment
JVM: OpenJDK 64-Bit Server VM
Default Encoding: UTF-8
Language: en
Country: null
--></g></svg>