<?xml version="1.0" encoding="UTF-8" standalone="no"?><svg xmlns="http://www.w3.org/2000/svg" xmlns:xlink="http://www.w3.org/1999/xlink" contentScriptType="application/ecmascript" contentStyleType="text/css" height="145px" preserveAspectRatio="none" style="width:158px;height:145px;background:#00000000;" version="1.1" viewBox="0 0 158 145" width="158px" zoomAndPan="magnify"><defs><filter height="300%" id="f1bmokwt48b0bc" width="300%" x="-1" y="-1"><feGaussianBlur result="blurOut" stdDeviation="2.0"/><feColorMatrix in="blurOut" result="blurOut2" type="matrix" values="0 0 0 0 0 0 0 0 0 0 0 0 0 0 0 0 0 0 .4 0"/><feOffset dx="4.0" dy="4.0" in="blurOut2" result="blurOut3"/><feBlend in="SourceGraphic" in2="blurOut3" mode="normal"/></filter></defs><g><!--MD5=[3a45af97e6b535177081653004ae69d4]
class SinkNodeOptions--><rect codeLine="4" fill="#FEFECE" filter="url(#f1bmokwt48b0bc)" height="32" id="SinkNodeOptions" style="stroke:#A80036;stroke-width:1.5;" width="137" x="7" y="99"/><ellipse cx="22" cy="115" fill="#B4A7E5" rx="11" ry="11" style="stroke:#A80036;stroke-width:1.0;"/><path d="M17.9219,110.7656 L17.9219,108.6094 L25.3125,108.6094 L25.3125,110.7656 L22.8438,110.7656 L22.8438,118.8438 L25.3125,118.8438 L25.3125,121 L17.9219,121 L17.9219,118.8438 L20.3906,118.8438 L20.3906,110.7656 L17.9219,110.7656 Z " fill="#000000"/><text fill="#000000" font-family="sans-serif" font-size="12" font-style="italic" lengthAdjust="spacing" textLength="105" x="36" y="119.1543">SinkNodeOptions</text><!--MD5=[680d5112d2c67c3de15744b0ad7e4a6c]
class NodeOptions--><rect codeLine="6" fill="#FEFECE" filter="url(#f1bmokwt48b0bc)" height="32" id="NodeOptions" style="stroke:#A80036;stroke-width:1.5;" width="111" x="20" y="7"/><ellipse cx="35" cy="23" fill="#B4A7E5" rx="11" ry="11" style="stroke:#A80036;stroke-width:1.0;"/><path d="M30.9219,18.7656 L30.9219,16.6094 L38.3125,16.6094 L38.3125,18.7656 L35.8438,18.7656 L35.8438,26.8438 L38.3125,26.8438 L38.3125,29 L30.9219,29 L30.9219,26.8438 L33.3906,26.8438 L33.3906,18.7656 L30.9219,18.7656 Z " fill="#000000"/><text fill="#000000" font-family="sans-serif" font-size="12" font-style="italic" lengthAdjust="spacing" textLength="79" x="49" y="27.1543">NodeOptions</text><!--MD5=[c53316f3a39552c4811e64290afb8ef0]
reverse link NodeOptions to SinkNodeOptions--><path codeLine="8" d="M75.5,59.61 C75.5,73.31 75.5,88.22 75.5,98.96 " fill="none" id="NodeOptions-backto-SinkNodeOptions" style="stroke:#A80036;stroke-width:1.0;"/><polygon fill="none" points="68.5,59.27,75.5,39.27,82.5,59.27,68.5,59.27" style="stroke:#A80036;stroke-width:1.0;"/><!--MD5=[1127727cdf776d54c829abbf5f7d6148]
@startuml
skinparam BackgroundColor transparent
hide empty methods
hide empty fields
interface "SinkNodeOptions" {
}
interface "NodeOptions" {
}
"NodeOptions" <|- - "SinkNodeOptions"
@enduml

PlantUML version 1.2021.14(Fri Nov 12 16:46:50 UTC 2021)
(GPL source distribution)
Java Runtime: OpenJDK Runtime Environment
JVM: OpenJDK 64-Bit Server VM
Default Encoding: UTF-8
Language: en
Country: null
--></g></svg>