<?xml version="1.0" encoding="UTF-8" standalone="no"?><svg xmlns="http://www.w3.org/2000/svg" xmlns:xlink="http://www.w3.org/1999/xlink" contentScriptType="application/ecmascript" contentStyleType="text/css" height="237px" preserveAspectRatio="none" style="width:536px;height:237px;background:#00000000;" version="1.1" viewBox="0 0 536 237" width="536px" zoomAndPan="magnify"><defs><filter height="300%" id="f185krf76ktjoy" width="300%" x="-1" y="-1"><feGaussianBlur result="blurOut" stdDeviation="2.0"/><feColorMatrix in="blurOut" result="blurOut2" type="matrix" values="0 0 0 0 0 0 0 0 0 0 0 0 0 0 0 0 0 0 .4 0"/><feOffset dx="4.0" dy="4.0" in="blurOut2" result="blurOut3"/><feBlend in="SourceGraphic" in2="blurOut3" mode="normal"/></filter></defs><g><!--MD5=[58268fbb8c2ac4a465cb59c4a34e4a3d]
class SinkNode<In>--><rect codeLine="4" fill="#FEFECE" filter="url(#f185krf76ktjoy)" height="32" id="SinkNode&lt;In&gt;" style="stroke:#A80036;stroke-width:1.5;" width="123" x="169.5" y="99"/><ellipse cx="184.5" cy="115" fill="#A9DCDF" rx="11" ry="11" style="stroke:#A80036;stroke-width:1.0;"/><path d="M184.6094,110.3438 L183.4531,115.4219 L185.7813,115.4219 L184.6094,110.3438 Z M183.125,108.1094 L186.1094,108.1094 L189.4688,120.5 L187.0156,120.5 L186.25,117.4375 L182.9688,117.4375 L182.2188,120.5 L179.7813,120.5 L183.125,108.1094 Z " fill="#000000"/><text fill="#000000" font-family="sans-serif" font-size="12" font-style="italic" lengthAdjust="spacing" textLength="91" x="198.5" y="119.1543">SinkNode&lt;In&gt;</text><!--MD5=[6e1a6464fe74a4a14305340c9a618a11]
class Node<In, In>--><rect codeLine="6" fill="#FEFECE" filter="url(#f185krf76ktjoy)" height="32" id="Node&lt;In, In&gt;" style="stroke:#A80036;stroke-width:1.5;" width="115" x="173.5" y="7"/><ellipse cx="188.5" cy="23" fill="#ADD1B2" rx="11" ry="11" style="stroke:#A80036;stroke-width:1.0;"/><path d="M191.4688,28.6406 Q190.8906,28.9375 190.25,29.0781 Q189.6094,29.2344 188.9063,29.2344 Q186.4063,29.2344 185.0781,27.5938 Q183.7656,25.9375 183.7656,22.8125 Q183.7656,19.6875 185.0781,18.0313 Q186.4063,16.375 188.9063,16.375 Q189.6094,16.375 190.25,16.5313 Q190.9063,16.6875 191.4688,16.9844 L191.4688,19.7031 Q190.8438,19.125 190.25,18.8594 Q189.6563,18.5781 189.0313,18.5781 Q187.6875,18.5781 187,19.6563 Q186.3125,20.7188 186.3125,22.8125 Q186.3125,24.9063 187,25.9844 Q187.6875,27.0469 189.0313,27.0469 Q189.6563,27.0469 190.25,26.7813 Q190.8438,26.5 191.4688,25.9219 L191.4688,28.6406 Z " fill="#000000"/><text fill="#000000" font-family="sans-serif" font-size="12" lengthAdjust="spacing" textLength="83" x="202.5" y="27.1543">Node&lt;In, In&gt;</text><!--MD5=[cc12a55b7b1d4c7f3ffb9787ecda070f]
class CallbackSinkNode<In>--><rect codeLine="9" fill="#FEFECE" filter="url(#f185krf76ktjoy)" height="32" id="CallbackSinkNode&lt;In&gt;" style="stroke:#A80036;stroke-width:1.5;" width="174" x="7" y="191"/><ellipse cx="22" cy="207" fill="#ADD1B2" rx="11" ry="11" style="stroke:#A80036;stroke-width:1.0;"/><path d="M24.9688,212.6406 Q24.3906,212.9375 23.75,213.0781 Q23.1094,213.2344 22.4063,213.2344 Q19.9063,213.2344 18.5781,211.5938 Q17.2656,209.9375 17.2656,206.8125 Q17.2656,203.6875 18.5781,202.0313 Q19.9063,200.375 22.4063,200.375 Q23.1094,200.375 23.75,200.5313 Q24.4063,200.6875 24.9688,200.9844 L24.9688,203.7031 Q24.3438,203.125 23.75,202.8594 Q23.1563,202.5781 22.5313,202.5781 Q21.1875,202.5781 20.5,203.6563 Q19.8125,204.7188 19.8125,206.8125 Q19.8125,208.9063 20.5,209.9844 Q21.1875,211.0469 22.5313,211.0469 Q23.1563,211.0469 23.75,210.7813 Q24.3438,210.5 24.9688,209.9219 L24.9688,212.6406 Z " fill="#000000"/><text fill="#000000" font-family="sans-serif" font-size="12" lengthAdjust="spacing" textLength="142" x="36" y="211.1543">CallbackSinkNode&lt;In&gt;</text><!--MD5=[79eeeafc7281f3070e40925c57aabe7c]
class RemoteSinkNode<RemoteNode<In, In, S>>--><rect codeLine="12" fill="#FEFECE" filter="url(#f185krf76ktjoy)" height="32" id="RemoteSinkNode&lt;RemoteNode&lt;In, In, S&gt;&gt;" style="stroke:#A80036;stroke-width:1.5;" width="306" x="216" y="191"/><ellipse cx="231" cy="207" fill="#ADD1B2" rx="11" ry="11" style="stroke:#A80036;stroke-width:1.0;"/><path d="M233.9688,212.6406 Q233.3906,212.9375 232.75,213.0781 Q232.1094,213.2344 231.4063,213.2344 Q228.9063,213.2344 227.5781,211.5938 Q226.2656,209.9375 226.2656,206.8125 Q226.2656,203.6875 227.5781,202.0313 Q228.9063,200.375 231.4063,200.375 Q232.1094,200.375 232.75,200.5313 Q233.4063,200.6875 233.9688,200.9844 L233.9688,203.7031 Q233.3438,203.125 232.75,202.8594 Q232.1563,202.5781 231.5313,202.5781 Q230.1875,202.5781 229.5,203.6563 Q228.8125,204.7188 228.8125,206.8125 Q228.8125,208.9063 229.5,209.9844 Q230.1875,211.0469 231.5313,211.0469 Q232.1563,211.0469 232.75,210.7813 Q233.3438,210.5 233.9688,209.9219 L233.9688,212.6406 Z " fill="#000000"/><text fill="#000000" font-family="sans-serif" font-size="12" lengthAdjust="spacing" textLength="274" x="245" y="211.1543">RemoteSinkNode&lt;RemoteNode&lt;In, In, S&gt;&gt;</text><!--MD5=[ae1c5a0854a6bebb77a72c909c8f7e19]
reverse link Node<In, In> to SinkNode<In>--><path codeLine="8" d="M231,59.61 C231,73.31 231,88.22 231,98.96 " fill="none" id="Node&lt;In, In&gt;-backto-SinkNode&lt;In&gt;" style="stroke:#A80036;stroke-width:1.0;"/><polygon fill="none" points="224,59.27,231,39.27,238,59.27,224,59.27" style="stroke:#A80036;stroke-width:1.0;"/><!--MD5=[68f73404ed884f55bb4fede0a1b6c547]
reverse link SinkNode<In> to CallbackSinkNode<In>--><path codeLine="11" d="M191.04,142.25 C166.97,158.06 137.18,177.63 117.01,190.89 " fill="none" id="SinkNode&lt;In&gt;-backto-CallbackSinkNode&lt;In&gt;" style="stroke:#A80036;stroke-width:1.0;"/><polygon fill="none" points="187.51,136.19,208.07,131.06,195.2,147.9,187.51,136.19" style="stroke:#A80036;stroke-width:1.0;"/><!--MD5=[0129c9a3fbfacfda8924ee87ae4c1e0b]
reverse link SinkNode<In> to RemoteSinkNode<RemoteNode<In, In, S>>--><path codeLine="14" d="M270.9,142.02 C295.2,157.87 325.4,177.57 345.83,190.89 " fill="none" id="SinkNode&lt;In&gt;-backto-RemoteSinkNode&lt;RemoteNode&lt;In, In, S&gt;&gt;" style="stroke:#A80036;stroke-width:1.0;"/><polygon fill="none" points="267.03,147.85,254.1,131.06,274.67,136.13,267.03,147.85" style="stroke:#A80036;stroke-width:1.0;"/><!--MD5=[3558207667e8154615437727ca6197a3]
@startuml
skinparam BackgroundColor transparent
hide empty methods
hide empty fields
abstract class "SinkNode<In>" {
}
class "Node<In, In>" {
}
"Node<In, In>" <|- - "SinkNode<In>"
class "CallbackSinkNode<In>" {
}
"SinkNode<In>" <|- - "CallbackSinkNode<In>"
class "RemoteSinkNode<RemoteNode<In, In, S>>" {
}
"SinkNode<In>" <|- - "RemoteSinkNode<RemoteNode<In, In, S>>"
@enduml

PlantUML version 1.2021.14(Fri Nov 12 16:46:50 UTC 2021)
(GPL source distribution)
Java Runtime: OpenJDK Runtime Environment
JVM: OpenJDK 64-Bit Server VM
Default Encoding: UTF-8
Language: en
Country: null
--></g></svg>