<?xml version="1.0" encoding="us-ascii" standalone="no"?><svg xmlns="http://www.w3.org/2000/svg" xmlns:xlink="http://www.w3.org/1999/xlink" contentStyleType="text/css" height="230px" preserveAspectRatio="none" style="width:254px;height:230px;" version="1.1" viewBox="0 0 254 230" width="254px" zoomAndPan="magnify"><defs/><g><!--class SinkNodeOptions--><g id="elem_SinkNodeOptions"><rect codeLine="4" fill="#F1F1F1" height="32" id="SinkNodeOptions" rx="2.5" ry="2.5" style="stroke:#181818;stroke-width:0.5;" width="152" x="51" y="99"/><ellipse cx="66" cy="115" fill="#B4A7E5" rx="11" ry="11" style="stroke:#181818;stroke-width:1.0;"/><path d="M61.9219,110.7656 L61.9219,108.6094 L69.3125,108.6094 L69.3125,110.7656 L66.8438,110.7656 L66.8438,118.8438 L69.3125,118.8438 L69.3125,121 L61.9219,121 L61.9219,118.8438 L64.3906,118.8438 L64.3906,110.7656 L61.9219,110.7656 Z " fill="#000000"/><text fill="#000000" font-family="sans-serif" font-size="14" font-style="italic" lengthAdjust="spacing" textLength="120" x="80" y="119.8467">SinkNodeOptions</text></g><!--class NodeOptions--><g id="elem_NodeOptions"><rect codeLine="6" fill="#F1F1F1" height="32" id="NodeOptions" rx="2.5" ry="2.5" style="stroke:#181818;stroke-width:0.5;" width="123" x="65.5" y="7"/><ellipse cx="80.5" cy="23" fill="#B4A7E5" rx="11" ry="11" style="stroke:#181818;stroke-width:1.0;"/><path d="M76.4219,18.7656 L76.4219,16.6094 L83.8125,16.6094 L83.8125,18.7656 L81.3438,18.7656 L81.3438,26.8438 L83.8125,26.8438 L83.8125,29 L76.4219,29 L76.4219,26.8438 L78.8906,26.8438 L78.8906,18.7656 L76.4219,18.7656 Z " fill="#000000"/><text fill="#000000" font-family="sans-serif" font-size="14" font-style="italic" lengthAdjust="spacing" textLength="91" x="94.5" y="27.8467">NodeOptions</text></g><!--class RemoteSinkNodeOptions<S>--><g id="elem_RemoteSinkNodeOptions&lt;S&gt;"><rect codeLine="9" fill="#F1F1F1" height="32" id="RemoteSinkNodeOptions&lt;S&gt;" rx="2.5" ry="2.5" style="stroke:#181818;stroke-width:0.5;" width="240" x="7" y="191"/><ellipse cx="22" cy="207" fill="#B4A7E5" rx="11" ry="11" style="stroke:#181818;stroke-width:1.0;"/><path d="M17.9219,202.7656 L17.9219,200.6094 L25.3125,200.6094 L25.3125,202.7656 L22.8438,202.7656 L22.8438,210.8438 L25.3125,210.8438 L25.3125,213 L17.9219,213 L17.9219,210.8438 L20.3906,210.8438 L20.3906,202.7656 L17.9219,202.7656 Z " fill="#000000"/><text fill="#000000" font-family="sans-serif" font-size="14" font-style="italic" lengthAdjust="spacing" textLength="208" x="36" y="211.8467">RemoteSinkNodeOptions&lt;S&gt;</text></g><!--reverse link NodeOptions to SinkNodeOptions--><g id="link_NodeOptions_SinkNodeOptions"><path codeLine="8" d="M127,59.61 C127,73.31 127,88.22 127,98.96 " fill="none" id="NodeOptions-backto-SinkNodeOptions" style="stroke:#181818;stroke-width:1.0;"/><polygon fill="none" points="120,59.27,127,39.27,134,59.27,120,59.27" style="stroke:#181818;stroke-width:1.0;"/></g><!--reverse link SinkNodeOptions to RemoteSinkNodeOptions<S>--><g id="link_SinkNodeOptions_RemoteSinkNodeOptions&lt;S&gt;"><path codeLine="11" d="M127,151.61 C127,165.31 127,180.22 127,190.96 " fill="none" id="SinkNodeOptions-backto-RemoteSinkNodeOptions&lt;S&gt;" style="stroke:#181818;stroke-width:1.0;"/><polygon fill="none" points="120,151.27,127,131.27,134,151.27,120,151.27" style="stroke:#181818;stroke-width:1.0;"/></g><!--SRC=[TOqn3i8m34NtdiBgtXjK37G7YPx0QbngfR6Zn0m8k3kLoX28MD_pVywU9MB204US_3NfJToWgoQmX98tHMBDmew0GhGx1B95NIxHpBHkXCKepJWHj2EBFwcZSpHMoIqycbVfA_TD-cVNrP4oSA6WHZyN_NZurAh_U_7lwWq0]--></g></svg>