<?xml version="1.0" encoding="us-ascii" standalone="no"?><svg xmlns="http://www.w3.org/2000/svg" xmlns:xlink="http://www.w3.org/1999/xlink" contentStyleType="text/css" height="138px" preserveAspectRatio="none" style="width:206px;height:138px;" version="1.1" viewBox="0 0 206 138" width="206px" zoomAndPan="magnify"><defs/><g><!--class SMAFilterOptions--><g id="elem_SMAFilterOptions"><rect codeLine="4" fill="#F1F1F1" height="32" id="SMAFilterOptions" rx="2.5" ry="2.5" style="stroke:#181818;stroke-width:0.5;" width="149" x="28.5" y="99"/><ellipse cx="43.5" cy="115" fill="#B4A7E5" rx="11" ry="11" style="stroke:#181818;stroke-width:1.0;"/><path d="M39.4219,110.7656 L39.4219,108.6094 L46.8125,108.6094 L46.8125,110.7656 L44.3438,110.7656 L44.3438,118.8438 L46.8125,118.8438 L46.8125,121 L39.4219,121 L39.4219,118.8438 L41.8906,118.8438 L41.8906,110.7656 L39.4219,110.7656 Z " fill="#000000"/><text fill="#000000" font-family="sans-serif" font-size="14" font-style="italic" lengthAdjust="spacing" textLength="117" x="57.5" y="119.8467">SMAFilterOptions</text></g><!--class FilterProcessingOptions--><g id="elem_FilterProcessingOptions"><rect codeLine="6" fill="#F1F1F1" height="32" id="FilterProcessingOptions" rx="2.5" ry="2.5" style="stroke:#181818;stroke-width:0.5;" width="192" x="7" y="7"/><ellipse cx="22" cy="23" fill="#B4A7E5" rx="11" ry="11" style="stroke:#181818;stroke-width:1.0;"/><path d="M17.9219,18.7656 L17.9219,16.6094 L25.3125,16.6094 L25.3125,18.7656 L22.8438,18.7656 L22.8438,26.8438 L25.3125,26.8438 L25.3125,29 L17.9219,29 L17.9219,26.8438 L20.3906,26.8438 L20.3906,18.7656 L17.9219,18.7656 Z " fill="#000000"/><text fill="#000000" font-family="sans-serif" font-size="14" font-style="italic" lengthAdjust="spacing" textLength="160" x="36" y="27.8467">FilterProcessingOptions</text></g><!--reverse link FilterProcessingOptions to SMAFilterOptions--><g id="link_FilterProcessingOptions_SMAFilterOptions"><path codeLine="8" d="M103,59.61 C103,73.31 103,88.22 103,98.96 " fill="none" id="FilterProcessingOptions-backto-SMAFilterOptions" style="stroke:#181818;stroke-width:1.0;"/><polygon fill="none" points="96,59.27,103,39.27,110,59.27,96,59.27" style="stroke:#181818;stroke-width:1.0;"/></g><!--SRC=[TOn12i9034NtFKNelZTmeu8xKV04mqpQXiuaGn8NHRsx0sugwFA_z_Ys4DUWeS0Xn6LIkNCwIXO5ry3M5B9tCoK4BDLNAEYp9DkYaJ0tGkoeOuW8_UsyFr5kyrATXAs7H_VQ1XzxLObeHZnzTV_jxZaCFzxV]--></g></svg>