<?xml version="1.0" encoding="us-ascii" standalone="no"?><svg xmlns="http://www.w3.org/2000/svg" xmlns:xlink="http://www.w3.org/1999/xlink" contentStyleType="text/css" height="138px" preserveAspectRatio="none" style="width:311px;height:138px;" version="1.1" viewBox="0 0 311 138" width="311px" zoomAndPan="magnify"><defs/><g><!--class SMAFilterNode<InOut>--><g id="elem_SMAFilterNode&lt;InOut&gt;"><rect codeLine="4" fill="#F1F1F1" height="32" id="SMAFilterNode&lt;InOut&gt;" rx="2.5" ry="2.5" style="stroke:#181818;stroke-width:0.5;" width="193" x="59" y="99"/><ellipse cx="74" cy="115" fill="#ADD1B2" rx="11" ry="11" style="stroke:#181818;stroke-width:1.0;"/><path d="M76.9688,120.6406 Q76.3906,120.9375 75.75,121.0781 Q75.1094,121.2344 74.4063,121.2344 Q71.9063,121.2344 70.5781,119.5938 Q69.2656,117.9375 69.2656,114.8125 Q69.2656,111.6875 70.5781,110.0313 Q71.9063,108.375 74.4063,108.375 Q75.1094,108.375 75.75,108.5313 Q76.4063,108.6875 76.9688,108.9844 L76.9688,111.7031 Q76.3438,111.125 75.75,110.8594 Q75.1563,110.5781 74.5313,110.5781 Q73.1875,110.5781 72.5,111.6563 Q71.8125,112.7188 71.8125,114.8125 Q71.8125,116.9063 72.5,117.9844 Q73.1875,119.0469 74.5313,119.0469 Q75.1563,119.0469 75.75,118.7813 Q76.3438,118.5 76.9688,117.9219 L76.9688,120.6406 Z " fill="#000000"/><text fill="#000000" font-family="sans-serif" font-size="14" lengthAdjust="spacing" textLength="161" x="88" y="119.8467">SMAFilterNode&lt;InOut&gt;</text></g><!--class PropertyFilterProcessingNode<InOut>--><g id="elem_PropertyFilterProcessingNode&lt;InOut&gt;"><rect codeLine="6" fill="#F1F1F1" height="32" id="PropertyFilterProcessingNode&lt;InOut&gt;" rx="2.5" ry="2.5" style="stroke:#181818;stroke-width:0.5;" width="297" x="7" y="7"/><ellipse cx="22" cy="23" fill="#A9DCDF" rx="11" ry="11" style="stroke:#181818;stroke-width:1.0;"/><path d="M22.1094,18.3438 L20.9531,23.4219 L23.2813,23.4219 L22.1094,18.3438 Z M20.625,16.1094 L23.6094,16.1094 L26.9688,28.5 L24.5156,28.5 L23.75,25.4375 L20.4688,25.4375 L19.7188,28.5 L17.2813,28.5 L20.625,16.1094 Z " fill="#000000"/><text fill="#000000" font-family="sans-serif" font-size="14" font-style="italic" lengthAdjust="spacing" textLength="265" x="36" y="27.8467">PropertyFilterProcessingNode&lt;InOut&gt;</text></g><!--reverse link PropertyFilterProcessingNode<InOut> to SMAFilterNode<InOut>--><g id="link_PropertyFilterProcessingNode&lt;InOut&gt;_SMAFilterNode&lt;InOut&gt;"><path codeLine="8" d="M155.5,59.61 C155.5,73.31 155.5,88.22 155.5,98.96 " fill="none" id="PropertyFilterProcessingNode&lt;InOut&gt;-backto-SMAFilterNode&lt;InOut&gt;" style="stroke:#181818;stroke-width:1.0;"/><polygon fill="none" points="148.5,59.27,155.5,39.27,162.5,59.27,148.5,59.27" style="stroke:#181818;stroke-width:1.0;"/></g><!--SRC=[ZOtD2i8m48JlUOgbzxv14LGGFFW3VOAOh6reiWcxsqDHtzs07WGHFCxCDpCo1IgMROADTTF0UIQ_pJ4pA5kI6Y6f6OD7m5HqWOGwPY-VrZLWh8wBLWIQ_h3UXQZ8n-onszDfrbK3D_CmzY9rr2cyoJFdWgpB2w_AeKYWuQlu7zdTs_R7_HC0]--></g></svg>