<?xml version="1.0" encoding="UTF-8" standalone="no"?><svg xmlns="http://www.w3.org/2000/svg" xmlns:xlink="http://www.w3.org/1999/xlink" contentScriptType="application/ecmascript" contentStyleType="text/css" height="145px" preserveAspectRatio="none" style="width:289px;height:145px;background:#00000000;" version="1.1" viewBox="0 0 289 145" width="289px" zoomAndPan="magnify"><defs><filter height="300%" id="flittsfpi1yv8" width="300%" x="-1" y="-1"><feGaussianBlur result="blurOut" stdDeviation="2.0"/><feColorMatrix in="blurOut" result="blurOut2" type="matrix" values="0 0 0 0 0 0 0 0 0 0 0 0 0 0 0 0 0 0 .4 0"/><feOffset dx="4.0" dy="4.0" in="blurOut2" result="blurOut3"/><feBlend in="SourceGraphic" in2="blurOut3" mode="normal"/></filter></defs><g><!--MD5=[45f43e91f53a759b1024bda2528f1dfb]
class SMAFilterNode<InOut>--><rect codeLine="4" fill="#FEFECE" filter="url(#flittsfpi1yv8)" height="32" id="SMAFilterNode&lt;InOut&gt;" style="stroke:#A80036;stroke-width:1.5;" width="175" x="53.5" y="99"/><ellipse cx="68.5" cy="115" fill="#ADD1B2" rx="11" ry="11" style="stroke:#A80036;stroke-width:1.0;"/><path d="M71.4688,120.6406 Q70.8906,120.9375 70.25,121.0781 Q69.6094,121.2344 68.9063,121.2344 Q66.4063,121.2344 65.0781,119.5938 Q63.7656,117.9375 63.7656,114.8125 Q63.7656,111.6875 65.0781,110.0313 Q66.4063,108.375 68.9063,108.375 Q69.6094,108.375 70.25,108.5313 Q70.9063,108.6875 71.4688,108.9844 L71.4688,111.7031 Q70.8438,111.125 70.25,110.8594 Q69.6563,110.5781 69.0313,110.5781 Q67.6875,110.5781 67,111.6563 Q66.3125,112.7188 66.3125,114.8125 Q66.3125,116.9063 67,117.9844 Q67.6875,119.0469 69.0313,119.0469 Q69.6563,119.0469 70.25,118.7813 Q70.8438,118.5 71.4688,117.9219 L71.4688,120.6406 Z " fill="#000000"/><text fill="#000000" font-family="sans-serif" font-size="12" lengthAdjust="spacing" textLength="143" x="82.5" y="119.1543">SMAFilterNode&lt;InOut&gt;</text><!--MD5=[5c1e6fce4365e56468cf60e0107291cc]
class PropertyFilterProcessingNode<InOut>--><rect codeLine="6" fill="#FEFECE" filter="url(#flittsfpi1yv8)" height="32" id="PropertyFilterProcessingNode&lt;InOut&gt;" style="stroke:#A80036;stroke-width:1.5;" width="268" x="7" y="7"/><ellipse cx="22" cy="23" fill="#A9DCDF" rx="11" ry="11" style="stroke:#A80036;stroke-width:1.0;"/><path d="M22.1094,18.3438 L20.9531,23.4219 L23.2813,23.4219 L22.1094,18.3438 Z M20.625,16.1094 L23.6094,16.1094 L26.9688,28.5 L24.5156,28.5 L23.75,25.4375 L20.4688,25.4375 L19.7188,28.5 L17.2813,28.5 L20.625,16.1094 Z " fill="#000000"/><text fill="#000000" font-family="sans-serif" font-size="12" font-style="italic" lengthAdjust="spacing" textLength="236" x="36" y="27.1543">PropertyFilterProcessingNode&lt;InOut&gt;</text><!--MD5=[69dda514f194b40aa66cd3c4ef63f9e5]
reverse link PropertyFilterProcessingNode<InOut> to SMAFilterNode<InOut>--><path codeLine="8" d="M141,59.61 C141,73.31 141,88.22 141,98.96 " fill="none" id="PropertyFilterProcessingNode&lt;InOut&gt;-backto-SMAFilterNode&lt;InOut&gt;" style="stroke:#A80036;stroke-width:1.0;"/><polygon fill="none" points="134,59.27,141,39.27,148,59.27,134,59.27" style="stroke:#A80036;stroke-width:1.0;"/><!--MD5=[76af4bb7a307f9ff001ca7c99b74f5d0]
@startuml
skinparam BackgroundColor transparent
hide empty methods
hide empty fields
class "SMAFilterNode<InOut>" {
}
abstract class "PropertyFilterProcessingNode<InOut>" {
}
"PropertyFilterProcessingNode<InOut>" <|- - "SMAFilterNode<InOut>"
@enduml

PlantUML version 1.2021.14(Fri Nov 12 16:46:50 UTC 2021)
(GPL source distribution)
Java Runtime: OpenJDK Runtime Environment
JVM: OpenJDK 64-Bit Server VM
Default Encoding: UTF-8
Language: en
Country: null
--></g></svg>