<?xml version="1.0" encoding="UTF-8" standalone="no"?><svg xmlns="http://www.w3.org/2000/svg" xmlns:xlink="http://www.w3.org/1999/xlink" contentScriptType="application/ecmascript" contentStyleType="text/css" height="414px" preserveAspectRatio="none" style="width:186px;height:414px;background:#00000000;" version="1.1" viewBox="0 0 186 414" width="186px" zoomAndPan="magnify"><defs><filter height="300%" id="fb40ujc6o3s4z" width="300%" x="-1" y="-1"><feGaussianBlur result="blurOut" stdDeviation="2.0"/><feColorMatrix in="blurOut" result="blurOut2" type="matrix" values="0 0 0 0 0 0 0 0 0 0 0 0 0 0 0 0 0 0 .4 0"/><feOffset dx="4.0" dy="4.0" in="blurOut2" result="blurOut3"/><feBlend in="SourceGraphic" in2="blurOut3" mode="normal"/></filter></defs><g><!--MD5=[2ce794d34c3bd0dbd6544d1249e177ac]
class SourceNodeOptions--><rect codeLine="4" fill="#FEFECE" filter="url(#fb40ujc6o3s4z)" height="91.2188" id="SourceNodeOptions" style="stroke:#A80036;stroke-width:1.5;" width="155" x="12" y="133"/><ellipse cx="27" cy="149" fill="#B4A7E5" rx="11" ry="11" style="stroke:#A80036;stroke-width:1.0;"/><path d="M22.9219,144.7656 L22.9219,142.6094 L30.3125,142.6094 L30.3125,144.7656 L27.8438,144.7656 L27.8438,152.8438 L30.3125,152.8438 L30.3125,155 L22.9219,155 L22.9219,152.8438 L25.3906,152.8438 L25.3906,144.7656 L22.9219,144.7656 Z " fill="#000000"/><text fill="#000000" font-family="sans-serif" font-size="12" font-style="italic" lengthAdjust="spacing" textLength="123" x="41" y="153.1543">SourceNodeOptions</text><line style="stroke:#A80036;stroke-width:1.5;" x1="13" x2="166" y1="165" y2="165"/><ellipse cx="23" cy="176" rx="3" ry="3" style="stroke:#038048;stroke-width:1.0;fill:none;"/><text fill="#000000" font-family="sans-serif" font-size="11" lengthAdjust="spacing" textLength="77" x="32" y="179.2104">name : string</text><ellipse cx="23" cy="188.8047" rx="3" ry="3" style="stroke:#038048;stroke-width:1.0;fill:none;"/><text fill="#000000" font-family="sans-serif" font-size="11" lengthAdjust="spacing" textLength="124" x="32" y="192.0151">persistence : boolean</text><ellipse cx="23" cy="201.6094" rx="3" ry="3" style="stroke:#038048;stroke-width:1.0;fill:none;"/><text fill="#000000" font-family="sans-serif" font-size="11" lengthAdjust="spacing" textLength="113" x="32" y="204.8198">source : DataObject</text><ellipse cx="23" cy="214.4141" rx="3" ry="3" style="stroke:#038048;stroke-width:1.0;fill:none;"/><text fill="#000000" font-family="sans-serif" font-size="11" lengthAdjust="spacing" textLength="62" x="32" y="217.6245">uid : string</text><!--MD5=[680d5112d2c67c3de15744b0ad7e4a6c]
class NodeOptions--><rect codeLine="10" fill="#FEFECE" filter="url(#fb40ujc6o3s4z)" height="65.6094" id="NodeOptions" style="stroke:#A80036;stroke-width:1.5;" width="111" x="34" y="7"/><ellipse cx="49" cy="23" fill="#B4A7E5" rx="11" ry="11" style="stroke:#A80036;stroke-width:1.0;"/><path d="M44.9219,18.7656 L44.9219,16.6094 L52.3125,16.6094 L52.3125,18.7656 L49.8438,18.7656 L49.8438,26.8438 L52.3125,26.8438 L52.3125,29 L44.9219,29 L44.9219,26.8438 L47.3906,26.8438 L47.3906,18.7656 L44.9219,18.7656 Z " fill="#000000"/><text fill="#000000" font-family="sans-serif" font-size="12" font-style="italic" lengthAdjust="spacing" textLength="79" x="63" y="27.1543">NodeOptions</text><line style="stroke:#A80036;stroke-width:1.5;" x1="35" x2="144" y1="39" y2="39"/><ellipse cx="45" cy="50" rx="3" ry="3" style="stroke:#038048;stroke-width:1.0;fill:none;"/><text fill="#000000" font-family="sans-serif" font-size="11" lengthAdjust="spacing" textLength="77" x="54" y="53.2104">name : string</text><ellipse cx="45" cy="62.8047" rx="3" ry="3" style="stroke:#038048;stroke-width:1.0;fill:none;"/><text fill="#000000" font-family="sans-serif" font-size="11" lengthAdjust="spacing" textLength="62" x="54" y="66.0151">uid : string</text><!--MD5=[84200095bb64f0effa3e0fa673067eb6]
class SensorSourceOptions--><rect codeLine="15" fill="#FEFECE" filter="url(#fb40ujc6o3s4z)" height="116.8281" id="SensorSourceOptions" style="stroke:#A80036;stroke-width:1.5;" width="165" x="7" y="284"/><ellipse cx="22" cy="300" fill="#B4A7E5" rx="11" ry="11" style="stroke:#A80036;stroke-width:1.0;"/><path d="M17.9219,295.7656 L17.9219,293.6094 L25.3125,293.6094 L25.3125,295.7656 L22.8438,295.7656 L22.8438,303.8438 L25.3125,303.8438 L25.3125,306 L17.9219,306 L17.9219,303.8438 L20.3906,303.8438 L20.3906,295.7656 L17.9219,295.7656 Z " fill="#000000"/><text fill="#000000" font-family="sans-serif" font-size="12" font-style="italic" lengthAdjust="spacing" textLength="133" x="36" y="304.1543">SensorSourceOptions</text><line style="stroke:#A80036;stroke-width:1.5;" x1="8" x2="171" y1="316" y2="316"/><ellipse cx="18" cy="327" rx="3" ry="3" style="stroke:#038048;stroke-width:1.0;fill:none;"/><text fill="#000000" font-family="sans-serif" font-size="11" lengthAdjust="spacing" textLength="110" x="27" y="330.2104">autoStart : boolean</text><ellipse cx="18" cy="339.8047" rx="3" ry="3" style="stroke:#038048;stroke-width:1.0;fill:none;"/><text fill="#000000" font-family="sans-serif" font-size="11" lengthAdjust="spacing" textLength="98" x="27" y="343.0151">interval : number</text><ellipse cx="18" cy="352.6094" rx="3" ry="3" style="stroke:#038048;stroke-width:1.0;fill:none;"/><text fill="#000000" font-family="sans-serif" font-size="11" lengthAdjust="spacing" textLength="77" x="27" y="355.8198">name : string</text><ellipse cx="18" cy="365.4141" rx="3" ry="3" style="stroke:#038048;stroke-width:1.0;fill:none;"/><text fill="#000000" font-family="sans-serif" font-size="11" lengthAdjust="spacing" textLength="124" x="27" y="368.6245">persistence : boolean</text><ellipse cx="18" cy="378.2188" rx="3" ry="3" style="stroke:#038048;stroke-width:1.0;fill:none;"/><text fill="#000000" font-family="sans-serif" font-size="11" lengthAdjust="spacing" textLength="113" x="27" y="381.4292">source : DataObject</text><ellipse cx="18" cy="391.0234" rx="3" ry="3" style="stroke:#038048;stroke-width:1.0;fill:none;"/><text fill="#000000" font-family="sans-serif" font-size="11" lengthAdjust="spacing" textLength="62" x="27" y="394.2339">uid : string</text><!--MD5=[e0b43980086d53d1d51463422aa604a9]
reverse link NodeOptions to SourceNodeOptions--><path codeLine="14" d="M89.5,93.18 C89.5,106.23 89.5,120.12 89.5,132.78 " fill="none" id="NodeOptions-backto-SourceNodeOptions" style="stroke:#A80036;stroke-width:1.0;"/><polygon fill="none" points="82.5,93,89.5,73,96.5,93,82.5,93" style="stroke:#A80036;stroke-width:1.0;"/><!--MD5=[7451f20f9a3de6067fb6c13018b9976c]
reverse link SourceNodeOptions to SensorSourceOptions--><path codeLine="23" d="M89.5,244.61 C89.5,257.6 89.5,271.16 89.5,283.88 " fill="none" id="SourceNodeOptions-backto-SensorSourceOptions" style="stroke:#A80036;stroke-width:1.0;"/><polygon fill="none" points="82.5,244.2,89.5,224.2,96.5,244.2,82.5,244.2" style="stroke:#A80036;stroke-width:1.0;"/><!--MD5=[ad3b38a28f0f7b63c9a7fee8e9e90411]
@startuml
skinparam BackgroundColor transparent
hide empty methods
hide empty fields
interface "SourceNodeOptions" {
    +name : string
    +persistence : boolean
    +source : DataObject
    +uid : string
}
interface "NodeOptions" {
    +name : string
    +uid : string
}
"NodeOptions" <|- - "SourceNodeOptions"
interface "SensorSourceOptions" {
    +autoStart : boolean
    +interval : number
    +name : string
    +persistence : boolean
    +source : DataObject
    +uid : string
}
"SourceNodeOptions" <|- - "SensorSourceOptions"
@enduml

PlantUML version 1.2021.14(Fri Nov 12 16:46:50 UTC 2021)
(GPL source distribution)
Java Runtime: OpenJDK Runtime Environment
JVM: OpenJDK 64-Bit Server VM
Default Encoding: UTF-8
Language: en
Country: null
--></g></svg>