<?xml version="1.0" encoding="us-ascii" standalone="no"?><svg xmlns="http://www.w3.org/2000/svg" xmlns:xlink="http://www.w3.org/1999/xlink" contentStyleType="text/css" height="230px" preserveAspectRatio="none" style="width:1135px;height:230px;" version="1.1" viewBox="0 0 1135 230" width="1135px" zoomAndPan="magnify"><defs/><g><!--class SourceNode<Out>--><g id="elem_SourceNode&lt;Out&gt;"><rect codeLine="4" fill="#F1F1F1" height="32" id="SourceNode&lt;Out&gt;" rx="2.5" ry="2.5" style="stroke:#181818;stroke-width:0.5;" width="168" x="387" y="99"/><ellipse cx="402" cy="115" fill="#A9DCDF" rx="11" ry="11" style="stroke:#181818;stroke-width:1.0;"/><path d="M402.1094,110.3438 L400.9531,115.4219 L403.2813,115.4219 L402.1094,110.3438 Z M400.625,108.1094 L403.6094,108.1094 L406.9688,120.5 L404.5156,120.5 L403.75,117.4375 L400.4688,117.4375 L399.7188,120.5 L397.2813,120.5 L400.625,108.1094 Z " fill="#000000"/><text fill="#000000" font-family="sans-serif" font-size="14" font-style="italic" lengthAdjust="spacing" textLength="136" x="416" y="119.8467">SourceNode&lt;Out&gt;</text></g><!--class Node<Out, Out>--><g id="elem_Node&lt;Out, Out&gt;"><rect codeLine="6" fill="#F1F1F1" height="32" id="Node&lt;Out, Out&gt;" rx="2.5" ry="2.5" style="stroke:#181818;stroke-width:0.5;" width="151" x="395.5" y="7"/><ellipse cx="410.5" cy="23" fill="#ADD1B2" rx="11" ry="11" style="stroke:#181818;stroke-width:1.0;"/><path d="M413.4688,28.6406 Q412.8906,28.9375 412.25,29.0781 Q411.6094,29.2344 410.9063,29.2344 Q408.4063,29.2344 407.0781,27.5938 Q405.7656,25.9375 405.7656,22.8125 Q405.7656,19.6875 407.0781,18.0313 Q408.4063,16.375 410.9063,16.375 Q411.6094,16.375 412.25,16.5313 Q412.9063,16.6875 413.4688,16.9844 L413.4688,19.7031 Q412.8438,19.125 412.25,18.8594 Q411.6563,18.5781 411.0313,18.5781 Q409.6875,18.5781 409,19.6563 Q408.3125,20.7188 408.3125,22.8125 Q408.3125,24.9063 409,25.9844 Q409.6875,27.0469 411.0313,27.0469 Q411.6563,27.0469 412.25,26.7813 Q412.8438,26.5 413.4688,25.9219 L413.4688,28.6406 Z " fill="#000000"/><text fill="#000000" font-family="sans-serif" font-size="14" lengthAdjust="spacing" textLength="119" x="424.5" y="27.8467">Node&lt;Out, Out&gt;</text></g><!--class ListSourceNode<Out>--><g id="elem_ListSourceNode&lt;Out&gt;"><rect codeLine="9" fill="#F1F1F1" height="32" id="ListSourceNode&lt;Out&gt;" rx="2.5" ry="2.5" style="stroke:#181818;stroke-width:0.5;" width="190" x="7" y="191"/><ellipse cx="22" cy="207" fill="#ADD1B2" rx="11" ry="11" style="stroke:#181818;stroke-width:1.0;"/><path d="M24.9688,212.6406 Q24.3906,212.9375 23.75,213.0781 Q23.1094,213.2344 22.4063,213.2344 Q19.9063,213.2344 18.5781,211.5938 Q17.2656,209.9375 17.2656,206.8125 Q17.2656,203.6875 18.5781,202.0313 Q19.9063,200.375 22.4063,200.375 Q23.1094,200.375 23.75,200.5313 Q24.4063,200.6875 24.9688,200.9844 L24.9688,203.7031 Q24.3438,203.125 23.75,202.8594 Q23.1563,202.5781 22.5313,202.5781 Q21.1875,202.5781 20.5,203.6563 Q19.8125,204.7188 19.8125,206.8125 Q19.8125,208.9063 20.5,209.9844 Q21.1875,211.0469 22.5313,211.0469 Q23.1563,211.0469 23.75,210.7813 Q24.3438,210.5 24.9688,209.9219 L24.9688,212.6406 Z " fill="#000000"/><text fill="#000000" font-family="sans-serif" font-size="14" lengthAdjust="spacing" textLength="158" x="36" y="211.8467">ListSourceNode&lt;Out&gt;</text></g><!--class CallbackSourceNode<Out>--><g id="elem_CallbackSourceNode&lt;Out&gt;"><rect codeLine="12" fill="#F1F1F1" height="32" id="CallbackSourceNode&lt;Out&gt;" rx="2.5" ry="2.5" style="stroke:#181818;stroke-width:0.5;" width="224" x="232" y="191"/><ellipse cx="247" cy="207" fill="#ADD1B2" rx="11" ry="11" style="stroke:#181818;stroke-width:1.0;"/><path d="M249.9688,212.6406 Q249.3906,212.9375 248.75,213.0781 Q248.1094,213.2344 247.4063,213.2344 Q244.9063,213.2344 243.5781,211.5938 Q242.2656,209.9375 242.2656,206.8125 Q242.2656,203.6875 243.5781,202.0313 Q244.9063,200.375 247.4063,200.375 Q248.1094,200.375 248.75,200.5313 Q249.4063,200.6875 249.9688,200.9844 L249.9688,203.7031 Q249.3438,203.125 248.75,202.8594 Q248.1563,202.5781 247.5313,202.5781 Q246.1875,202.5781 245.5,203.6563 Q244.8125,204.7188 244.8125,206.8125 Q244.8125,208.9063 245.5,209.9844 Q246.1875,211.0469 247.5313,211.0469 Q248.1563,211.0469 248.75,210.7813 Q249.3438,210.5 249.9688,209.9219 L249.9688,212.6406 Z " fill="#000000"/><text fill="#000000" font-family="sans-serif" font-size="14" lengthAdjust="spacing" textLength="192" x="261" y="211.8467">CallbackSourceNode&lt;Out&gt;</text></g><!--class HistorySourceNode<Out>--><g id="elem_HistorySourceNode&lt;Out&gt;"><rect codeLine="15" fill="#F1F1F1" height="32" id="HistorySourceNode&lt;Out&gt;" rx="2.5" ry="2.5" style="stroke:#181818;stroke-width:0.5;" width="214" x="491" y="191"/><ellipse cx="506" cy="207" fill="#ADD1B2" rx="11" ry="11" style="stroke:#181818;stroke-width:1.0;"/><path d="M508.9688,212.6406 Q508.3906,212.9375 507.75,213.0781 Q507.1094,213.2344 506.4063,213.2344 Q503.9063,213.2344 502.5781,211.5938 Q501.2656,209.9375 501.2656,206.8125 Q501.2656,203.6875 502.5781,202.0313 Q503.9063,200.375 506.4063,200.375 Q507.1094,200.375 507.75,200.5313 Q508.4063,200.6875 508.9688,200.9844 L508.9688,203.7031 Q508.3438,203.125 507.75,202.8594 Q507.1563,202.5781 506.5313,202.5781 Q505.1875,202.5781 504.5,203.6563 Q503.8125,204.7188 503.8125,206.8125 Q503.8125,208.9063 504.5,209.9844 Q505.1875,211.0469 506.5313,211.0469 Q507.1563,211.0469 507.75,210.7813 Q508.3438,210.5 508.9688,209.9219 L508.9688,212.6406 Z " fill="#000000"/><text fill="#000000" font-family="sans-serif" font-size="14" lengthAdjust="spacing" textLength="182" x="520" y="211.8467">HistorySourceNode&lt;Out&gt;</text></g><!--class RemoteSourceNode<RemoteNode<Out, Out, S>>--><g id="elem_RemoteSourceNode&lt;RemoteNode&lt;Out, Out, S&gt;&gt;"><rect codeLine="18" fill="#F1F1F1" height="32" id="RemoteSourceNode&lt;RemoteNode&lt;Out, Out, S&gt;&gt;" rx="2.5" ry="2.5" style="stroke:#181818;stroke-width:0.5;" width="388" x="740" y="191"/><ellipse cx="755" cy="207" fill="#ADD1B2" rx="11" ry="11" style="stroke:#181818;stroke-width:1.0;"/><path d="M757.9688,212.6406 Q757.3906,212.9375 756.75,213.0781 Q756.1094,213.2344 755.4063,213.2344 Q752.9063,213.2344 751.5781,211.5938 Q750.2656,209.9375 750.2656,206.8125 Q750.2656,203.6875 751.5781,202.0313 Q752.9063,200.375 755.4063,200.375 Q756.1094,200.375 756.75,200.5313 Q757.4063,200.6875 757.9688,200.9844 L757.9688,203.7031 Q757.3438,203.125 756.75,202.8594 Q756.1563,202.5781 755.5313,202.5781 Q754.1875,202.5781 753.5,203.6563 Q752.8125,204.7188 752.8125,206.8125 Q752.8125,208.9063 753.5,209.9844 Q754.1875,211.0469 755.5313,211.0469 Q756.1563,211.0469 756.75,210.7813 Q757.3438,210.5 757.9688,209.9219 L757.9688,212.6406 Z " fill="#000000"/><text fill="#000000" font-family="sans-serif" font-size="14" lengthAdjust="spacing" textLength="356" x="769" y="211.8467">RemoteSourceNode&lt;RemoteNode&lt;Out, Out, S&gt;&gt;</text></g><!--reverse link Node<Out, Out> to SourceNode<Out>--><g id="link_Node&lt;Out, Out&gt;_SourceNode&lt;Out&gt;"><path codeLine="8" d="M471,59.61 C471,73.31 471,88.22 471,98.96 " fill="none" id="Node&lt;Out, Out&gt;-backto-SourceNode&lt;Out&gt;" style="stroke:#181818;stroke-width:1.0;"/><polygon fill="none" points="464,59.27,471,39.27,478,59.27,464,59.27" style="stroke:#181818;stroke-width:1.0;"/></g><!--reverse link SourceNode<Out> to ListSourceNode<Out>--><g id="link_SourceNode&lt;Out&gt;_ListSourceNode&lt;Out&gt;"><path codeLine="11" d="M389.48,135.88 C321.32,152.51 225.57,175.86 163.66,190.96 " fill="none" id="SourceNode&lt;Out&gt;-backto-ListSourceNode&lt;Out&gt;" style="stroke:#181818;stroke-width:1.0;"/><polygon fill="none" points="388.15,129,409.24,131.06,391.47,142.6,388.15,129" style="stroke:#181818;stroke-width:1.0;"/></g><!--reverse link SourceNode<Out> to CallbackSourceNode<Out>--><g id="link_SourceNode&lt;Out&gt;_CallbackSourceNode&lt;Out&gt;"><path codeLine="14" d="M433.29,142.72 C411.1,158.45 383.85,177.76 365.33,190.89 " fill="none" id="SourceNode&lt;Out&gt;-backto-CallbackSourceNode&lt;Out&gt;" style="stroke:#181818;stroke-width:1.0;"/><polygon fill="none" points="429.38,136.92,449.74,131.06,437.47,148.34,429.38,136.92" style="stroke:#181818;stroke-width:1.0;"/></g><!--reverse link SourceNode<Out> to HistorySourceNode<Out>--><g id="link_SourceNode&lt;Out&gt;_HistorySourceNode&lt;Out&gt;"><path codeLine="17" d="M508.71,142.72 C530.9,158.45 558.15,177.76 576.67,190.89 " fill="none" id="SourceNode&lt;Out&gt;-backto-HistorySourceNode&lt;Out&gt;" style="stroke:#181818;stroke-width:1.0;"/><polygon fill="none" points="504.53,148.34,492.26,131.06,512.62,136.92,504.53,148.34" style="stroke:#181818;stroke-width:1.0;"/></g><!--reverse link SourceNode<Out> to RemoteSourceNode<RemoteNode<Out, Out, S>>--><g id="link_SourceNode&lt;Out&gt;_RemoteSourceNode&lt;RemoteNode&lt;Out, Out, S&gt;&gt;"><path codeLine="20" d="M568.09,134.87 C653.85,151.54 777.27,175.53 856.55,190.94 " fill="none" id="SourceNode&lt;Out&gt;-backto-RemoteSourceNode&lt;RemoteNode&lt;Out, Out, S&gt;&gt;" style="stroke:#181818;stroke-width:1.0;"/><polygon fill="none" points="566.53,141.7,548.24,131.01,569.2,127.96,566.53,141.7" style="stroke:#181818;stroke-width:1.0;"/></g><!--SRC=[bP1D3e8m58JtdEB5DTo0i92D2wE9dA2qJsde3saV2wBUtIROY06YRB_9V9ECRwNfc6CQzeotDsTx8qghh0DopFWGeQ6aaG81TKS3QAJ62Zz5Luag45RxqE44N37lOLVPtd4yMO7vkQTY1_VacRopI5FuH3EOFx9ihecAe_IqE34V7aLBXIWhcL9rE62JSAqKfOSmQDsmoRdIYSeBQaiuIKVmzLmALV5ZvN_D2m00]--></g></svg>