<?xml version="1.0" encoding="UTF-8" standalone="no"?><svg xmlns="http://www.w3.org/2000/svg" xmlns:xlink="http://www.w3.org/1999/xlink" contentScriptType="application/ecmascript" contentStyleType="text/css" height="237px" preserveAspectRatio="none" style="width:452px;height:237px;background:#00000000;" version="1.1" viewBox="0 0 452 237" width="452px" zoomAndPan="magnify"><defs><filter height="300%" id="fufhij7nuv8uw" width="300%" x="-1" y="-1"><feGaussianBlur result="blurOut" stdDeviation="2.0"/><feColorMatrix in="blurOut" result="blurOut2" type="matrix" values="0 0 0 0 0 0 0 0 0 0 0 0 0 0 0 0 0 0 .4 0"/><feOffset dx="4.0" dy="4.0" in="blurOut2" result="blurOut3"/><feBlend in="SourceGraphic" in2="blurOut3" mode="normal"/></filter></defs><g><!--MD5=[2ce794d34c3bd0dbd6544d1249e177ac]
class SourceNodeOptions--><rect codeLine="4" fill="#FEFECE" filter="url(#fufhij7nuv8uw)" height="32" id="SourceNodeOptions" style="stroke:#A80036;stroke-width:1.5;" width="155" x="128" y="99"/><ellipse cx="143" cy="115" fill="#B4A7E5" rx="11" ry="11" style="stroke:#A80036;stroke-width:1.0;"/><path d="M138.9219,110.7656 L138.9219,108.6094 L146.3125,108.6094 L146.3125,110.7656 L143.8438,110.7656 L143.8438,118.8438 L146.3125,118.8438 L146.3125,121 L138.9219,121 L138.9219,118.8438 L141.3906,118.8438 L141.3906,110.7656 L138.9219,110.7656 Z " fill="#000000"/><text fill="#000000" font-family="sans-serif" font-size="12" font-style="italic" lengthAdjust="spacing" textLength="123" x="157" y="119.1543">SourceNodeOptions</text><!--MD5=[680d5112d2c67c3de15744b0ad7e4a6c]
class NodeOptions--><rect codeLine="6" fill="#FEFECE" filter="url(#fufhij7nuv8uw)" height="32" id="NodeOptions" style="stroke:#A80036;stroke-width:1.5;" width="111" x="150" y="7"/><ellipse cx="165" cy="23" fill="#B4A7E5" rx="11" ry="11" style="stroke:#A80036;stroke-width:1.0;"/><path d="M160.9219,18.7656 L160.9219,16.6094 L168.3125,16.6094 L168.3125,18.7656 L165.8438,18.7656 L165.8438,26.8438 L168.3125,26.8438 L168.3125,29 L160.9219,29 L160.9219,26.8438 L163.3906,26.8438 L163.3906,18.7656 L160.9219,18.7656 Z " fill="#000000"/><text fill="#000000" font-family="sans-serif" font-size="12" font-style="italic" lengthAdjust="spacing" textLength="79" x="179" y="27.1543">NodeOptions</text><!--MD5=[84200095bb64f0effa3e0fa673067eb6]
class SensorSourceOptions--><rect codeLine="9" fill="#FEFECE" filter="url(#fufhij7nuv8uw)" height="32" id="SensorSourceOptions" style="stroke:#A80036;stroke-width:1.5;" width="165" x="7" y="191"/><ellipse cx="22" cy="207" fill="#B4A7E5" rx="11" ry="11" style="stroke:#A80036;stroke-width:1.0;"/><path d="M17.9219,202.7656 L17.9219,200.6094 L25.3125,200.6094 L25.3125,202.7656 L22.8438,202.7656 L22.8438,210.8438 L25.3125,210.8438 L25.3125,213 L17.9219,213 L17.9219,210.8438 L20.3906,210.8438 L20.3906,202.7656 L17.9219,202.7656 Z " fill="#000000"/><text fill="#000000" font-family="sans-serif" font-size="12" font-style="italic" lengthAdjust="spacing" textLength="133" x="36" y="211.1543">SensorSourceOptions</text><!--MD5=[040509c58f318c54feb998aa1e2c84bb]
class RemoteSourceNodeOptions<S>--><rect codeLine="12" fill="#FEFECE" filter="url(#fufhij7nuv8uw)" height="32" id="RemoteSourceNodeOptions&lt;S&gt;" style="stroke:#A80036;stroke-width:1.5;" width="231" x="207" y="191"/><ellipse cx="222" cy="207" fill="#B4A7E5" rx="11" ry="11" style="stroke:#A80036;stroke-width:1.0;"/><path d="M217.9219,202.7656 L217.9219,200.6094 L225.3125,200.6094 L225.3125,202.7656 L222.8438,202.7656 L222.8438,210.8438 L225.3125,210.8438 L225.3125,213 L217.9219,213 L217.9219,210.8438 L220.3906,210.8438 L220.3906,202.7656 L217.9219,202.7656 Z " fill="#000000"/><text fill="#000000" font-family="sans-serif" font-size="12" font-style="italic" lengthAdjust="spacing" textLength="199" x="236" y="211.1543">RemoteSourceNodeOptions&lt;S&gt;</text><!--MD5=[e0b43980086d53d1d51463422aa604a9]
reverse link NodeOptions to SourceNodeOptions--><path codeLine="8" d="M205.5,59.61 C205.5,73.31 205.5,88.22 205.5,98.96 " fill="none" id="NodeOptions-backto-SourceNodeOptions" style="stroke:#A80036;stroke-width:1.0;"/><polygon fill="none" points="198.5,59.27,205.5,39.27,212.5,59.27,198.5,59.27" style="stroke:#A80036;stroke-width:1.0;"/><!--MD5=[7451f20f9a3de6067fb6c13018b9976c]
reverse link SourceNodeOptions to SensorSourceOptions--><path codeLine="11" d="M170.15,143.42 C150.05,159.02 125.64,177.96 108.98,190.89 " fill="none" id="SourceNodeOptions-backto-SensorSourceOptions" style="stroke:#A80036;stroke-width:1.0;"/><polygon fill="none" points="165.99,137.79,186.08,131.06,174.57,148.85,165.99,137.79" style="stroke:#A80036;stroke-width:1.0;"/><!--MD5=[411d7f88f33caf745db55b3bf86da2ee]
reverse link SourceNodeOptions to RemoteSourceNodeOptions<S>--><path codeLine="14" d="M241.15,143.42 C261.43,159.02 286.04,177.96 302.85,190.89 " fill="none" id="SourceNodeOptions-backto-RemoteSourceNodeOptions&lt;S&gt;" style="stroke:#A80036;stroke-width:1.0;"/><polygon fill="none" points="236.67,148.81,225.08,131.06,245.2,137.71,236.67,148.81" style="stroke:#A80036;stroke-width:1.0;"/><!--MD5=[3d7c7ba7d566bd0017378e3d32edb27a]
@startuml
skinparam BackgroundColor transparent
hide empty methods
hide empty fields
interface "SourceNodeOptions" {
}
interface "NodeOptions" {
}
"NodeOptions" <|- - "SourceNodeOptions"
interface "SensorSourceOptions" {
}
"SourceNodeOptions" <|- - "SensorSourceOptions"
interface "RemoteSourceNodeOptions<S>" {
}
"SourceNodeOptions" <|- - "RemoteSourceNodeOptions<S>"
@enduml

PlantUML version 1.2021.14(Fri Nov 12 16:46:50 UTC 2021)
(GPL source distribution)
Java Runtime: OpenJDK Runtime Environment
JVM: OpenJDK 64-Bit Server VM
Default Encoding: UTF-8
Language: en
Country: null
--></g></svg>