<?xml version="1.0" encoding="us-ascii" standalone="no"?><svg xmlns="http://www.w3.org/2000/svg" xmlns:xlink="http://www.w3.org/1999/xlink" contentStyleType="text/css" height="230px" preserveAspectRatio="none" style="width:486px;height:230px;" version="1.1" viewBox="0 0 486 230" width="486px" zoomAndPan="magnify"><defs/><g><!--class SourceNodeOptions--><g id="elem_SourceNodeOptions"><rect codeLine="4" fill="#F1F1F1" height="32" id="SourceNodeOptions" rx="2.5" ry="2.5" style="stroke:#181818;stroke-width:0.5;" width="172" x="136.5" y="99"/><ellipse cx="151.5" cy="115" fill="#B4A7E5" rx="11" ry="11" style="stroke:#181818;stroke-width:1.0;"/><path d="M147.4219,110.7656 L147.4219,108.6094 L154.8125,108.6094 L154.8125,110.7656 L152.3438,110.7656 L152.3438,118.8438 L154.8125,118.8438 L154.8125,121 L147.4219,121 L147.4219,118.8438 L149.8906,118.8438 L149.8906,110.7656 L147.4219,110.7656 Z " fill="#000000"/><text fill="#000000" font-family="sans-serif" font-size="14" font-style="italic" lengthAdjust="spacing" textLength="140" x="165.5" y="119.8467">SourceNodeOptions</text></g><!--class NodeOptions--><g id="elem_NodeOptions"><rect codeLine="6" fill="#F1F1F1" height="32" id="NodeOptions" rx="2.5" ry="2.5" style="stroke:#181818;stroke-width:0.5;" width="123" x="161" y="7"/><ellipse cx="176" cy="23" fill="#B4A7E5" rx="11" ry="11" style="stroke:#181818;stroke-width:1.0;"/><path d="M171.9219,18.7656 L171.9219,16.6094 L179.3125,16.6094 L179.3125,18.7656 L176.8438,18.7656 L176.8438,26.8438 L179.3125,26.8438 L179.3125,29 L171.9219,29 L171.9219,26.8438 L174.3906,26.8438 L174.3906,18.7656 L171.9219,18.7656 Z " fill="#000000"/><text fill="#000000" font-family="sans-serif" font-size="14" font-style="italic" lengthAdjust="spacing" textLength="91" x="190" y="27.8467">NodeOptions</text></g><!--class ActiveSourceOptions--><g id="elem_ActiveSourceOptions"><rect codeLine="9" fill="#F1F1F1" height="32" id="ActiveSourceOptions" rx="2.5" ry="2.5" style="stroke:#181818;stroke-width:0.5;" width="177" x="7" y="191"/><ellipse cx="22" cy="207" fill="#B4A7E5" rx="11" ry="11" style="stroke:#181818;stroke-width:1.0;"/><path d="M17.9219,202.7656 L17.9219,200.6094 L25.3125,200.6094 L25.3125,202.7656 L22.8438,202.7656 L22.8438,210.8438 L25.3125,210.8438 L25.3125,213 L17.9219,213 L17.9219,210.8438 L20.3906,210.8438 L20.3906,202.7656 L17.9219,202.7656 Z " fill="#000000"/><text fill="#000000" font-family="sans-serif" font-size="14" font-style="italic" lengthAdjust="spacing" textLength="145" x="36" y="211.8467">ActiveSourceOptions</text></g><!--class RemoteSourceNodeOptions<S>--><g id="elem_RemoteSourceNodeOptions&lt;S&gt;"><rect codeLine="12" fill="#F1F1F1" height="32" id="RemoteSourceNodeOptions&lt;S&gt;" rx="2.5" ry="2.5" style="stroke:#181818;stroke-width:0.5;" width="260" x="219.5" y="191"/><ellipse cx="234.5" cy="207" fill="#B4A7E5" rx="11" ry="11" style="stroke:#181818;stroke-width:1.0;"/><path d="M230.4219,202.7656 L230.4219,200.6094 L237.8125,200.6094 L237.8125,202.7656 L235.3438,202.7656 L235.3438,210.8438 L237.8125,210.8438 L237.8125,213 L230.4219,213 L230.4219,210.8438 L232.8906,210.8438 L232.8906,202.7656 L230.4219,202.7656 Z " fill="#000000"/><text fill="#000000" font-family="sans-serif" font-size="14" font-style="italic" lengthAdjust="spacing" textLength="228" x="248.5" y="211.8467">RemoteSourceNodeOptions&lt;S&gt;</text></g><!--reverse link NodeOptions to SourceNodeOptions--><g id="link_NodeOptions_SourceNodeOptions"><path codeLine="8" d="M222.5,59.61 C222.5,73.31 222.5,88.22 222.5,98.96 " fill="none" id="NodeOptions-backto-SourceNodeOptions" style="stroke:#181818;stroke-width:1.0;"/><polygon fill="none" points="215.5,59.27,222.5,39.27,229.5,59.27,215.5,59.27" style="stroke:#181818;stroke-width:1.0;"/></g><!--reverse link SourceNodeOptions to ActiveSourceOptions--><g id="link_SourceNodeOptions_ActiveSourceOptions"><path codeLine="11" d="M184.79,142.72 C162.6,158.45 135.35,177.76 116.83,190.89 " fill="none" id="SourceNodeOptions-backto-ActiveSourceOptions" style="stroke:#181818;stroke-width:1.0;"/><polygon fill="none" points="180.88,136.92,201.24,131.06,188.97,148.34,180.88,136.92" style="stroke:#181818;stroke-width:1.0;"/></g><!--reverse link SourceNodeOptions to RemoteSourceNodeOptions<S>--><g id="link_SourceNodeOptions_RemoteSourceNodeOptions&lt;S&gt;"><path codeLine="14" d="M260.21,142.72 C282.4,158.45 309.65,177.76 328.17,190.89 " fill="none" id="SourceNodeOptions-backto-RemoteSourceNodeOptions&lt;S&gt;" style="stroke:#181818;stroke-width:1.0;"/><polygon fill="none" points="256.03,148.34,243.76,131.06,264.12,136.92,256.03,148.34" style="stroke:#181818;stroke-width:1.0;"/></g><!--SRC=[XOr12i8m44NtFSNGVMzG17MlO4yGagaTscJ2P2g8UdSBtQGqwFR__zvF8uLen7Wu6JlUXUVWpZonW8e9QQamQ3MGGq0VzGaUTM2NygWdd9Q4WgBqnYBK7SzYyS8Ehr69GwhXLNtonQxR9ksxQKgQN76qIWzSDrjLuNuLbf1SUKFFYZkyxGx_p3_8Bm00]--></g></svg>