<?xml version="1.0" encoding="UTF-8" standalone="no"?><svg xmlns="http://www.w3.org/2000/svg" xmlns:xlink="http://www.w3.org/1999/xlink" contentScriptType="application/ecmascript" contentStyleType="text/css" height="145px" preserveAspectRatio="none" style="width:222px;height:145px;background:#00000000;" version="1.1" viewBox="0 0 222 145" width="222px" zoomAndPan="magnify"><defs><filter height="300%" id="f1fhant9hg2gim" width="300%" x="-1" y="-1"><feGaussianBlur result="blurOut" stdDeviation="2.0"/><feColorMatrix in="blurOut" result="blurOut2" type="matrix" values="0 0 0 0 0 0 0 0 0 0 0 0 0 0 0 0 0 0 .4 0"/><feOffset dx="4.0" dy="4.0" in="blurOut2" result="blurOut3"/><feBlend in="SourceGraphic" in2="blurOut3" mode="normal"/></filter></defs><g><!--MD5=[e0dda5b5009bac63810322092742ad9b]
class SourceMergeNode<InOut>--><rect codeLine="4" fill="#FEFECE" filter="url(#f1fhant9hg2gim)" height="32" id="SourceMergeNode&lt;InOut&gt;" style="stroke:#A80036;stroke-width:1.5;" width="201" x="7" y="99"/><ellipse cx="22" cy="115" fill="#ADD1B2" rx="11" ry="11" style="stroke:#A80036;stroke-width:1.0;"/><path d="M24.9688,120.6406 Q24.3906,120.9375 23.75,121.0781 Q23.1094,121.2344 22.4063,121.2344 Q19.9063,121.2344 18.5781,119.5938 Q17.2656,117.9375 17.2656,114.8125 Q17.2656,111.6875 18.5781,110.0313 Q19.9063,108.375 22.4063,108.375 Q23.1094,108.375 23.75,108.5313 Q24.4063,108.6875 24.9688,108.9844 L24.9688,111.7031 Q24.3438,111.125 23.75,110.8594 Q23.1563,110.5781 22.5313,110.5781 Q21.1875,110.5781 20.5,111.6563 Q19.8125,112.7188 19.8125,114.8125 Q19.8125,116.9063 20.5,117.9844 Q21.1875,119.0469 22.5313,119.0469 Q23.1563,119.0469 23.75,118.7813 Q24.3438,118.5 24.9688,117.9219 L24.9688,120.6406 Z " fill="#000000"/><text fill="#000000" font-family="sans-serif" font-size="12" lengthAdjust="spacing" textLength="169" x="36" y="119.1543">SourceMergeNode&lt;InOut&gt;</text><!--MD5=[141a2e6d8ea8a7e5d43ad004068c18c9]
class FrameMergeNode<InOut>--><rect codeLine="6" fill="#FEFECE" filter="url(#f1fhant9hg2gim)" height="32" id="FrameMergeNode&lt;InOut&gt;" style="stroke:#A80036;stroke-width:1.5;" width="196" x="9.5" y="7"/><ellipse cx="24.5" cy="23" fill="#ADD1B2" rx="11" ry="11" style="stroke:#A80036;stroke-width:1.0;"/><path d="M27.4688,28.6406 Q26.8906,28.9375 26.25,29.0781 Q25.6094,29.2344 24.9063,29.2344 Q22.4063,29.2344 21.0781,27.5938 Q19.7656,25.9375 19.7656,22.8125 Q19.7656,19.6875 21.0781,18.0313 Q22.4063,16.375 24.9063,16.375 Q25.6094,16.375 26.25,16.5313 Q26.9063,16.6875 27.4688,16.9844 L27.4688,19.7031 Q26.8438,19.125 26.25,18.8594 Q25.6563,18.5781 25.0313,18.5781 Q23.6875,18.5781 23,19.6563 Q22.3125,20.7188 22.3125,22.8125 Q22.3125,24.9063 23,25.9844 Q23.6875,27.0469 25.0313,27.0469 Q25.6563,27.0469 26.25,26.7813 Q26.8438,26.5 27.4688,25.9219 L27.4688,28.6406 Z " fill="#000000"/><text fill="#000000" font-family="sans-serif" font-size="12" lengthAdjust="spacing" textLength="164" x="38.5" y="27.1543">FrameMergeNode&lt;InOut&gt;</text><!--MD5=[80b56218ef3a1088f53f8bc211857585]
reverse link FrameMergeNode<InOut> to SourceMergeNode<InOut>--><path codeLine="8" d="M107.5,59.61 C107.5,73.31 107.5,88.22 107.5,98.96 " fill="none" id="FrameMergeNode&lt;InOut&gt;-backto-SourceMergeNode&lt;InOut&gt;" style="stroke:#A80036;stroke-width:1.0;"/><polygon fill="none" points="100.5,59.27,107.5,39.27,114.5,59.27,100.5,59.27" style="stroke:#A80036;stroke-width:1.0;"/><!--MD5=[98e60e94718d21b67feb654413580acd]
@startuml
skinparam BackgroundColor transparent
hide empty methods
hide empty fields
class "SourceMergeNode<InOut>" {
}
class "FrameMergeNode<InOut>" {
}
"FrameMergeNode<InOut>" <|- - "SourceMergeNode<InOut>"
@enduml

PlantUML version 1.2021.14(Fri Nov 12 16:46:50 UTC 2021)
(GPL source distribution)
Java Runtime: OpenJDK Runtime Environment
JVM: OpenJDK 64-Bit Server VM
Default Encoding: UTF-8
Language: en
Country: null
--></g></svg>