<?xml version="1.0" encoding="UTF-8" standalone="no"?><svg xmlns="http://www.w3.org/2000/svg" xmlns:xlink="http://www.w3.org/1999/xlink" contentScriptType="application/ecmascript" contentStyleType="text/css" height="237px" preserveAspectRatio="none" style="width:911px;height:237px;background:#00000000;" version="1.1" viewBox="0 0 911 237" width="911px" zoomAndPan="magnify"><defs><filter height="300%" id="f1xrdt1yiaun2s" width="300%" x="-1" y="-1"><feGaussianBlur result="blurOut" stdDeviation="2.0"/><feColorMatrix in="blurOut" result="blurOut2" type="matrix" values="0 0 0 0 0 0 0 0 0 0 0 0 0 0 0 0 0 0 .4 0"/><feOffset dx="4.0" dy="4.0" in="blurOut2" result="blurOut3"/><feBlend in="SourceGraphic" in2="blurOut3" mode="normal"/></filter></defs><g><!--MD5=[2651cda8e2c79eeef8da2b2f12036b47]
class SourceNode<Out>--><rect codeLine="4" fill="#FEFECE" filter="url(#f1xrdt1yiaun2s)" height="32" id="SourceNode&lt;Out&gt;" style="stroke:#A80036;stroke-width:1.5;" width="150" x="358" y="99"/><ellipse cx="373" cy="115" fill="#A9DCDF" rx="11" ry="11" style="stroke:#A80036;stroke-width:1.0;"/><path d="M373.1094,110.3438 L371.9531,115.4219 L374.2813,115.4219 L373.1094,110.3438 Z M371.625,108.1094 L374.6094,108.1094 L377.9688,120.5 L375.5156,120.5 L374.75,117.4375 L371.4688,117.4375 L370.7188,120.5 L368.2813,120.5 L371.625,108.1094 Z " fill="#000000"/><text fill="#000000" font-family="sans-serif" font-size="12" font-style="italic" lengthAdjust="spacing" textLength="118" x="387" y="119.1543">SourceNode&lt;Out&gt;</text><!--MD5=[f385a6c5a20caf4c4fd3c314e11a2f01]
class Node<Out, Out>--><rect codeLine="6" fill="#FEFECE" filter="url(#f1xrdt1yiaun2s)" height="32" id="Node&lt;Out, Out&gt;" style="stroke:#A80036;stroke-width:1.5;" width="137" x="364.5" y="7"/><ellipse cx="379.5" cy="23" fill="#ADD1B2" rx="11" ry="11" style="stroke:#A80036;stroke-width:1.0;"/><path d="M382.4688,28.6406 Q381.8906,28.9375 381.25,29.0781 Q380.6094,29.2344 379.9063,29.2344 Q377.4063,29.2344 376.0781,27.5938 Q374.7656,25.9375 374.7656,22.8125 Q374.7656,19.6875 376.0781,18.0313 Q377.4063,16.375 379.9063,16.375 Q380.6094,16.375 381.25,16.5313 Q381.9063,16.6875 382.4688,16.9844 L382.4688,19.7031 Q381.8438,19.125 381.25,18.8594 Q380.6563,18.5781 380.0313,18.5781 Q378.6875,18.5781 378,19.6563 Q377.3125,20.7188 377.3125,22.8125 Q377.3125,24.9063 378,25.9844 Q378.6875,27.0469 380.0313,27.0469 Q380.6563,27.0469 381.25,26.7813 Q381.8438,26.5 382.4688,25.9219 L382.4688,28.6406 Z " fill="#000000"/><text fill="#000000" font-family="sans-serif" font-size="12" lengthAdjust="spacing" textLength="105" x="393.5" y="27.1543">Node&lt;Out, Out&gt;</text><!--MD5=[a7992867b4208a77e8315fa161632bd0]
class ListSourceNode<Out>--><rect codeLine="9" fill="#FEFECE" filter="url(#f1xrdt1yiaun2s)" height="32" id="ListSourceNode&lt;Out&gt;" style="stroke:#A80036;stroke-width:1.5;" width="172" x="7" y="191"/><ellipse cx="22" cy="207" fill="#ADD1B2" rx="11" ry="11" style="stroke:#A80036;stroke-width:1.0;"/><path d="M24.9688,212.6406 Q24.3906,212.9375 23.75,213.0781 Q23.1094,213.2344 22.4063,213.2344 Q19.9063,213.2344 18.5781,211.5938 Q17.2656,209.9375 17.2656,206.8125 Q17.2656,203.6875 18.5781,202.0313 Q19.9063,200.375 22.4063,200.375 Q23.1094,200.375 23.75,200.5313 Q24.4063,200.6875 24.9688,200.9844 L24.9688,203.7031 Q24.3438,203.125 23.75,202.8594 Q23.1563,202.5781 22.5313,202.5781 Q21.1875,202.5781 20.5,203.6563 Q19.8125,204.7188 19.8125,206.8125 Q19.8125,208.9063 20.5,209.9844 Q21.1875,211.0469 22.5313,211.0469 Q23.1563,211.0469 23.75,210.7813 Q24.3438,210.5 24.9688,209.9219 L24.9688,212.6406 Z " fill="#000000"/><text fill="#000000" font-family="sans-serif" font-size="12" lengthAdjust="spacing" textLength="140" x="36" y="211.1543">ListSourceNode&lt;Out&gt;</text><!--MD5=[76d7858ec695d04a5fd78a063736f1e2]
class CallbackSourceNode<Out>--><rect codeLine="12" fill="#FEFECE" filter="url(#f1xrdt1yiaun2s)" height="32" id="CallbackSourceNode&lt;Out&gt;" style="stroke:#A80036;stroke-width:1.5;" width="203" x="214.5" y="191"/><ellipse cx="229.5" cy="207" fill="#ADD1B2" rx="11" ry="11" style="stroke:#A80036;stroke-width:1.0;"/><path d="M232.4688,212.6406 Q231.8906,212.9375 231.25,213.0781 Q230.6094,213.2344 229.9063,213.2344 Q227.4063,213.2344 226.0781,211.5938 Q224.7656,209.9375 224.7656,206.8125 Q224.7656,203.6875 226.0781,202.0313 Q227.4063,200.375 229.9063,200.375 Q230.6094,200.375 231.25,200.5313 Q231.9063,200.6875 232.4688,200.9844 L232.4688,203.7031 Q231.8438,203.125 231.25,202.8594 Q230.6563,202.5781 230.0313,202.5781 Q228.6875,202.5781 228,203.6563 Q227.3125,204.7188 227.3125,206.8125 Q227.3125,208.9063 228,209.9844 Q228.6875,211.0469 230.0313,211.0469 Q230.6563,211.0469 231.25,210.7813 Q231.8438,210.5 232.4688,209.9219 L232.4688,212.6406 Z " fill="#000000"/><text fill="#000000" font-family="sans-serif" font-size="12" lengthAdjust="spacing" textLength="171" x="243.5" y="211.1543">CallbackSourceNode&lt;Out&gt;</text><!--MD5=[f2f54c8a024a5665f227fd20ddc3963d]
class HistorySourceNode<Out>--><rect codeLine="15" fill="#FEFECE" filter="url(#f1xrdt1yiaun2s)" height="32" id="HistorySourceNode&lt;Out&gt;" style="stroke:#A80036;stroke-width:1.5;" width="194" x="453" y="191"/><ellipse cx="468" cy="207" fill="#ADD1B2" rx="11" ry="11" style="stroke:#A80036;stroke-width:1.0;"/><path d="M470.9688,212.6406 Q470.3906,212.9375 469.75,213.0781 Q469.1094,213.2344 468.4063,213.2344 Q465.9063,213.2344 464.5781,211.5938 Q463.2656,209.9375 463.2656,206.8125 Q463.2656,203.6875 464.5781,202.0313 Q465.9063,200.375 468.4063,200.375 Q469.1094,200.375 469.75,200.5313 Q470.4063,200.6875 470.9688,200.9844 L470.9688,203.7031 Q470.3438,203.125 469.75,202.8594 Q469.1563,202.5781 468.5313,202.5781 Q467.1875,202.5781 466.5,203.6563 Q465.8125,204.7188 465.8125,206.8125 Q465.8125,208.9063 466.5,209.9844 Q467.1875,211.0469 468.5313,211.0469 Q469.1563,211.0469 469.75,210.7813 Q470.3438,210.5 470.9688,209.9219 L470.9688,212.6406 Z " fill="#000000"/><text fill="#000000" font-family="sans-serif" font-size="12" lengthAdjust="spacing" textLength="162" x="482" y="211.1543">HistorySourceNode&lt;Out&gt;</text><!--MD5=[4d2841f7393c9ba71a72cd22307d43d8]
class RemoteSourceNode<Out, S>--><rect codeLine="18" fill="#FEFECE" filter="url(#f1xrdt1yiaun2s)" height="32" id="RemoteSourceNode&lt;Out, S&gt;" style="stroke:#A80036;stroke-width:1.5;" width="215" x="682.5" y="191"/><ellipse cx="697.5" cy="207" fill="#ADD1B2" rx="11" ry="11" style="stroke:#A80036;stroke-width:1.0;"/><path d="M700.4688,212.6406 Q699.8906,212.9375 699.25,213.0781 Q698.6094,213.2344 697.9063,213.2344 Q695.4063,213.2344 694.0781,211.5938 Q692.7656,209.9375 692.7656,206.8125 Q692.7656,203.6875 694.0781,202.0313 Q695.4063,200.375 697.9063,200.375 Q698.6094,200.375 699.25,200.5313 Q699.9063,200.6875 700.4688,200.9844 L700.4688,203.7031 Q699.8438,203.125 699.25,202.8594 Q698.6563,202.5781 698.0313,202.5781 Q696.6875,202.5781 696,203.6563 Q695.3125,204.7188 695.3125,206.8125 Q695.3125,208.9063 696,209.9844 Q696.6875,211.0469 698.0313,211.0469 Q698.6563,211.0469 699.25,210.7813 Q699.8438,210.5 700.4688,209.9219 L700.4688,212.6406 Z " fill="#000000"/><text fill="#000000" font-family="sans-serif" font-size="12" lengthAdjust="spacing" textLength="183" x="711.5" y="211.1543">RemoteSourceNode&lt;Out, S&gt;</text><!--MD5=[ab4a660cf0a60a75d483baf7d8ca92db]
reverse link Node<Out, Out> to SourceNode<Out>--><path codeLine="8" d="M433,59.61 C433,73.31 433,88.22 433,98.96 " fill="none" id="Node&lt;Out, Out&gt;-backto-SourceNode&lt;Out&gt;" style="stroke:#A80036;stroke-width:1.0;"/><polygon fill="none" points="426,59.27,433,39.27,440,59.27,426,59.27" style="stroke:#A80036;stroke-width:1.0;"/><!--MD5=[b3296bf2d3a126b18bbfb09702e3ff91]
reverse link SourceNode<Out> to ListSourceNode<Out>--><path codeLine="11" d="M356.67,136.21 C293.95,152.81 206.49,175.96 149.81,190.96 " fill="none" id="SourceNode&lt;Out&gt;-backto-ListSourceNode&lt;Out&gt;" style="stroke:#A80036;stroke-width:1.0;"/><polygon fill="none" points="354.97,129.41,376.09,131.06,358.55,142.95,354.97,129.41" style="stroke:#A80036;stroke-width:1.0;"/><!--MD5=[b2e348f8646fc540071e9b505426cdf5]
reverse link SourceNode<Out> to CallbackSourceNode<Out>--><path codeLine="14" d="M397.35,143.42 C377.07,159.02 352.46,177.96 335.65,190.89 " fill="none" id="SourceNode&lt;Out&gt;-backto-CallbackSourceNode&lt;Out&gt;" style="stroke:#A80036;stroke-width:1.0;"/><polygon fill="none" points="393.3,137.71,413.42,131.06,401.83,148.81,393.3,137.71" style="stroke:#A80036;stroke-width:1.0;"/><!--MD5=[9d3bb67842906de87478e5b19f4d1ee8]
reverse link SourceNode<Out> to HistorySourceNode<Out>--><path codeLine="17" d="M468.65,143.42 C488.93,159.02 513.54,177.96 530.35,190.89 " fill="none" id="SourceNode&lt;Out&gt;-backto-HistorySourceNode&lt;Out&gt;" style="stroke:#A80036;stroke-width:1.0;"/><polygon fill="none" points="464.17,148.81,452.58,131.06,472.7,137.71,464.17,148.81" style="stroke:#A80036;stroke-width:1.0;"/><!--MD5=[32f4a0b6f39f84b21a6684f08981df12]
reverse link SourceNode<Out> to RemoteSourceNode<Out, S>--><path codeLine="20" d="M512.3,135.99 C578.21,152.61 670.57,175.89 730.35,190.96 " fill="none" id="SourceNode&lt;Out&gt;-backto-RemoteSourceNode&lt;Out, S&gt;" style="stroke:#A80036;stroke-width:1.0;"/><polygon fill="none" points="510.44,142.74,492.75,131.06,513.86,129.17,510.44,142.74" style="stroke:#A80036;stroke-width:1.0;"/><!--MD5=[8a725578b05bcb375d1aac3b855ae501]
@startuml
skinparam BackgroundColor transparent
hide empty methods
hide empty fields
abstract class "SourceNode<Out>" {
}
class "Node<Out, Out>" {
}
"Node<Out, Out>" <|- - "SourceNode<Out>"
class "ListSourceNode<Out>" {
}
"SourceNode<Out>" <|- - "ListSourceNode<Out>"
class "CallbackSourceNode<Out>" {
}
"SourceNode<Out>" <|- - "CallbackSourceNode<Out>"
class "HistorySourceNode<Out>" {
}
"SourceNode<Out>" <|- - "HistorySourceNode<Out>"
class "RemoteSourceNode<Out, S>" {
}
"SourceNode<Out>" <|- - "RemoteSourceNode<Out, S>"
@enduml

PlantUML version 1.2021.14(Fri Nov 12 16:46:50 UTC 2021)
(GPL source distribution)
Java Runtime: OpenJDK Runtime Environment
JVM: OpenJDK 64-Bit Server VM
Default Encoding: UTF-8
Language: en
Country: null
--></g></svg>