<?xml version="1.0" encoding="us-ascii" standalone="no"?><svg xmlns="http://www.w3.org/2000/svg" xmlns:xlink="http://www.w3.org/1999/xlink" contentStyleType="text/css" height="138px" preserveAspectRatio="none" style="width:522px;height:138px;" version="1.1" viewBox="0 0 522 138" width="522px" zoomAndPan="magnify"><defs/><g><!--class SpaceConversionOptions--><g id="elem_SpaceConversionOptions"><rect codeLine="4" fill="#F1F1F1" height="32" id="SpaceConversionOptions" rx="2.5" ry="2.5" style="stroke:#181818;stroke-width:0.5;" width="206" x="161" y="99"/><ellipse cx="176" cy="115" fill="#B4A7E5" rx="11" ry="11" style="stroke:#181818;stroke-width:1.0;"/><path d="M171.9219,110.7656 L171.9219,108.6094 L179.3125,108.6094 L179.3125,110.7656 L176.8438,110.7656 L176.8438,118.8438 L179.3125,118.8438 L179.3125,121 L171.9219,121 L171.9219,118.8438 L174.3906,118.8438 L174.3906,110.7656 L171.9219,110.7656 Z " fill="#000000"/><text fill="#000000" font-family="sans-serif" font-size="14" font-style="italic" lengthAdjust="spacing" textLength="174" x="190" y="119.8467">SpaceConversionOptions</text></g><!--class ObjectProcessingNodeOptions--><g id="elem_ObjectProcessingNodeOptions"><rect codeLine="6" fill="#F1F1F1" height="32" id="ObjectProcessingNodeOptions" rx="2.5" ry="2.5" style="stroke:#181818;stroke-width:0.5;" width="242" x="7" y="7"/><ellipse cx="22" cy="23" fill="#B4A7E5" rx="11" ry="11" style="stroke:#181818;stroke-width:1.0;"/><path d="M17.9219,18.7656 L17.9219,16.6094 L25.3125,16.6094 L25.3125,18.7656 L22.8438,18.7656 L22.8438,26.8438 L25.3125,26.8438 L25.3125,29 L17.9219,29 L17.9219,26.8438 L20.3906,26.8438 L20.3906,18.7656 L17.9219,18.7656 Z " fill="#000000"/><text fill="#000000" font-family="sans-serif" font-size="14" font-style="italic" lengthAdjust="spacing" textLength="210" x="36" y="27.8467">ObjectProcessingNodeOptions</text></g><!--class SpaceTransformationOptions--><g id="elem_SpaceTransformationOptions"><rect codeLine="9" fill="#F1F1F1" height="32" id="SpaceTransformationOptions" rx="2.5" ry="2.5" style="stroke:#181818;stroke-width:0.5;" width="231" x="284.5" y="7"/><ellipse cx="299.5" cy="23" fill="#B4A7E5" rx="11" ry="11" style="stroke:#181818;stroke-width:1.0;"/><path d="M295.4219,18.7656 L295.4219,16.6094 L302.8125,16.6094 L302.8125,18.7656 L300.3438,18.7656 L300.3438,26.8438 L302.8125,26.8438 L302.8125,29 L295.4219,29 L295.4219,26.8438 L297.8906,26.8438 L297.8906,18.7656 L295.4219,18.7656 Z " fill="#000000"/><text fill="#000000" font-family="sans-serif" font-size="14" font-style="italic" lengthAdjust="spacing" textLength="199" x="313.5" y="27.8467">SpaceTransformationOptions</text></g><!--reverse link ObjectProcessingNodeOptions to SpaceConversionOptions--><g id="link_ObjectProcessingNodeOptions_SpaceConversionOptions"><path codeLine="8" d="M167.67,50.25 C191.56,66.06 221.13,85.63 241.16,98.89 " fill="none" id="ObjectProcessingNodeOptions-backto-SpaceConversionOptions" style="stroke:#181818;stroke-width:1.0;"/><polygon fill="none" points="163.58,55.94,150.76,39.06,171.31,44.26,163.58,55.94" style="stroke:#181818;stroke-width:1.0;"/></g><!--reverse link SpaceTransformationOptions to SpaceConversionOptions--><g id="link_SpaceTransformationOptions_SpaceConversionOptions"><path codeLine="11" d="M360.33,50.25 C336.44,66.06 306.87,85.63 286.84,98.89 " fill="none" id="SpaceTransformationOptions-backto-SpaceConversionOptions" style="stroke:#181818;stroke-width:1.0;"/><polygon fill="none" points="356.69,44.26,377.24,39.06,364.42,55.94,356.69,44.26" style="stroke:#181818;stroke-width:1.0;"/></g><!--SRC=[VO-n3i8m34JtVaNKlN_0H7UA13yG4gSDRUp8DaW8-7V2La1aEKld9zsTp16pPPlCrhfvPBgWxsaXDieMfRm0jPcY1mCfwyqaq8cyhAqGOIbEH0KEre5f3xcSdl0AB95mo5fKMdDldcjiE9t1wPx9WKZ4SKSUFjWwiNbqtT-idph7zvv0dAn-Lwe2rPGN]--></g></svg>