<?xml version="1.0" encoding="UTF-8" standalone="no"?><svg xmlns="http://www.w3.org/2000/svg" xmlns:xlink="http://www.w3.org/1999/xlink" contentScriptType="application/ecmascript" contentStyleType="text/css" height="145px" preserveAspectRatio="none" style="width:232px;height:145px;background:#00000000;" version="1.1" viewBox="0 0 232 145" width="232px" zoomAndPan="magnify"><defs><filter height="300%" id="f1o4387c65vqbc" width="300%" x="-1" y="-1"><feGaussianBlur result="blurOut" stdDeviation="2.0"/><feColorMatrix in="blurOut" result="blurOut2" type="matrix" values="0 0 0 0 0 0 0 0 0 0 0 0 0 0 0 0 0 0 .4 0"/><feOffset dx="4.0" dy="4.0" in="blurOut2" result="blurOut3"/><feBlend in="SourceGraphic" in2="blurOut3" mode="normal"/></filter></defs><g><!--MD5=[24d0e048b4218bad33f3e10ff46ead90]
class SpaceTransformationOptions--><rect codeLine="4" fill="#FEFECE" filter="url(#f1o4387c65vqbc)" height="32" id="SpaceTransformationOptions" style="stroke:#A80036;stroke-width:1.5;" width="211" x="7" y="7"/><ellipse cx="22" cy="23" fill="#B4A7E5" rx="11" ry="11" style="stroke:#A80036;stroke-width:1.0;"/><path d="M17.9219,18.7656 L17.9219,16.6094 L25.3125,16.6094 L25.3125,18.7656 L22.8438,18.7656 L22.8438,26.8438 L25.3125,26.8438 L25.3125,29 L17.9219,29 L17.9219,26.8438 L20.3906,26.8438 L20.3906,18.7656 L17.9219,18.7656 Z " fill="#000000"/><text fill="#000000" font-family="sans-serif" font-size="12" font-style="italic" lengthAdjust="spacing" textLength="179" x="36" y="27.1543">SpaceTransformationOptions</text><!--MD5=[7183395f106fe9f17d6415420f8540f1]
class SpaceConversionOptions--><rect codeLine="6" fill="#FEFECE" filter="url(#f1o4387c65vqbc)" height="32" id="SpaceConversionOptions" style="stroke:#A80036;stroke-width:1.5;" width="185" x="20" y="99"/><ellipse cx="35" cy="115" fill="#B4A7E5" rx="11" ry="11" style="stroke:#A80036;stroke-width:1.0;"/><path d="M30.9219,110.7656 L30.9219,108.6094 L38.3125,108.6094 L38.3125,110.7656 L35.8438,110.7656 L35.8438,118.8438 L38.3125,118.8438 L38.3125,121 L30.9219,121 L30.9219,118.8438 L33.3906,118.8438 L33.3906,110.7656 L30.9219,110.7656 Z " fill="#000000"/><text fill="#000000" font-family="sans-serif" font-size="12" font-style="italic" lengthAdjust="spacing" textLength="153" x="49" y="119.1543">SpaceConversionOptions</text><!--MD5=[bd3382aeb0c1aec283666640ccc23e50]
reverse link SpaceTransformationOptions to SpaceConversionOptions--><path codeLine="8" d="M112.5,59.61 C112.5,73.31 112.5,88.22 112.5,98.96 " fill="none" id="SpaceTransformationOptions-backto-SpaceConversionOptions" style="stroke:#A80036;stroke-width:1.0;"/><polygon fill="none" points="105.5,59.27,112.5,39.27,119.5,59.27,105.5,59.27" style="stroke:#A80036;stroke-width:1.0;"/><!--MD5=[f5f6782f088f1e570ac59ff40f13c64d]
@startuml
skinparam BackgroundColor transparent
hide empty methods
hide empty fields
interface "SpaceTransformationOptions" {
}
interface "SpaceConversionOptions" {
}
"SpaceTransformationOptions" <|- - "SpaceConversionOptions"
@enduml

PlantUML version 1.2021.14(Fri Nov 12 16:46:50 UTC 2021)
(GPL source distribution)
Java Runtime: OpenJDK Runtime Environment
JVM: OpenJDK 64-Bit Server VM
Default Encoding: UTF-8
Language: en
Country: null
--></g></svg>