<?xml version="1.0" encoding="UTF-8" standalone="no"?><svg xmlns="http://www.w3.org/2000/svg" xmlns:xlink="http://www.w3.org/1999/xlink" contentScriptType="application/ecmascript" contentStyleType="text/css" height="238px" preserveAspectRatio="none" style="width:232px;height:238px;background:#00000000;" version="1.1" viewBox="0 0 232 238" width="232px" zoomAndPan="magnify"><defs><filter height="300%" id="febslophcleiv" width="300%" x="-1" y="-1"><feGaussianBlur result="blurOut" stdDeviation="2.0"/><feColorMatrix in="blurOut" result="blurOut2" type="matrix" values="0 0 0 0 0 0 0 0 0 0 0 0 0 0 0 0 0 0 .4 0"/><feOffset dx="4.0" dy="4.0" in="blurOut2" result="blurOut3"/><feBlend in="SourceGraphic" in2="blurOut3" mode="normal"/></filter></defs><g><!--MD5=[24d0e048b4218bad33f3e10ff46ead90]
class SpaceTransformationOptions--><rect codeLine="4" fill="#FEFECE" filter="url(#febslophcleiv)" height="52.8047" id="SpaceTransformationOptions" style="stroke:#A80036;stroke-width:1.5;" width="211" x="7" y="7"/><ellipse cx="22" cy="23" fill="#B4A7E5" rx="11" ry="11" style="stroke:#A80036;stroke-width:1.0;"/><path d="M17.9219,18.7656 L17.9219,16.6094 L25.3125,16.6094 L25.3125,18.7656 L22.8438,18.7656 L22.8438,26.8438 L25.3125,26.8438 L25.3125,29 L17.9219,29 L17.9219,26.8438 L20.3906,26.8438 L20.3906,18.7656 L17.9219,18.7656 Z " fill="#000000"/><text fill="#000000" font-family="sans-serif" font-size="12" font-style="italic" lengthAdjust="spacing" textLength="179" x="36" y="27.1543">SpaceTransformationOptions</text><line style="stroke:#A80036;stroke-width:1.5;" x1="8" x2="217" y1="39" y2="39"/><ellipse cx="18" cy="50" rx="3" ry="3" style="stroke:#038048;stroke-width:1.0;fill:none;"/><text fill="#000000" font-family="sans-serif" font-size="11" lengthAdjust="spacing" textLength="99" x="27" y="53.2104">inverse : boolean</text><!--MD5=[7183395f106fe9f17d6415420f8540f1]
class SpaceConversionOptions--><rect codeLine="7" fill="#FEFECE" filter="url(#febslophcleiv)" height="104.0234" id="SpaceConversionOptions" style="stroke:#A80036;stroke-width:1.5;" width="185" x="20" y="120"/><ellipse cx="35" cy="136" fill="#B4A7E5" rx="11" ry="11" style="stroke:#A80036;stroke-width:1.0;"/><path d="M30.9219,131.7656 L30.9219,129.6094 L38.3125,129.6094 L38.3125,131.7656 L35.8438,131.7656 L35.8438,139.8438 L38.3125,139.8438 L38.3125,142 L30.9219,142 L30.9219,139.8438 L33.3906,139.8438 L33.3906,131.7656 L30.9219,131.7656 Z " fill="#000000"/><text fill="#000000" font-family="sans-serif" font-size="12" font-style="italic" lengthAdjust="spacing" textLength="153" x="49" y="140.1543">SpaceConversionOptions</text><line style="stroke:#A80036;stroke-width:1.5;" x1="21" x2="204" y1="152" y2="152"/><ellipse cx="31" cy="163" rx="3" ry="3" style="stroke:#038048;stroke-width:1.0;fill:none;"/><text fill="#000000" font-family="sans-serif" font-size="11" lengthAdjust="spacing" textLength="121" x="40" y="166.2104">frameFilter : Function</text><ellipse cx="31" cy="175.8047" rx="3" ry="3" style="stroke:#038048;stroke-width:1.0;fill:none;"/><text fill="#000000" font-family="sans-serif" font-size="11" lengthAdjust="spacing" textLength="99" x="40" y="179.0151">inverse : boolean</text><ellipse cx="31" cy="188.6094" rx="3" ry="3" style="stroke:#038048;stroke-width:1.0;fill:none;"/><text fill="#000000" font-family="sans-serif" font-size="11" lengthAdjust="spacing" textLength="77" x="40" y="191.8198">name : string</text><ellipse cx="31" cy="201.4141" rx="3" ry="3" style="stroke:#038048;stroke-width:1.0;fill:none;"/><text fill="#000000" font-family="sans-serif" font-size="11" lengthAdjust="spacing" textLength="121" x="40" y="204.6245">objectFilter : Function</text><ellipse cx="31" cy="214.2188" rx="3" ry="3" style="stroke:#038048;stroke-width:1.0;fill:none;"/><text fill="#000000" font-family="sans-serif" font-size="11" lengthAdjust="spacing" textLength="62" x="40" y="217.4292">uid : string</text><!--MD5=[bd3382aeb0c1aec283666640ccc23e50]
reverse link SpaceTransformationOptions to SpaceConversionOptions--><path codeLine="14" d="M112.5,80.19 C112.5,92.96 112.5,106.93 112.5,119.99 " fill="none" id="SpaceTransformationOptions-backto-SpaceConversionOptions" style="stroke:#A80036;stroke-width:1.0;"/><polygon fill="none" points="105.5,80.17,112.5,60.17,119.5,80.17,105.5,80.17" style="stroke:#A80036;stroke-width:1.0;"/><!--MD5=[144cdfc587abed4ff2997319377c7a9d]
@startuml
skinparam BackgroundColor transparent
hide empty methods
hide empty fields
interface "SpaceTransformationOptions" {
    +inverse : boolean
}
interface "SpaceConversionOptions" {
    +frameFilter : Function
    +inverse : boolean
    +name : string
    +objectFilter : Function
    +uid : string
}
"SpaceTransformationOptions" <|- - "SpaceConversionOptions"
@enduml

PlantUML version 1.2021.14(Fri Nov 12 16:46:50 UTC 2021)
(GPL source distribution)
Java Runtime: OpenJDK Runtime Environment
JVM: OpenJDK 64-Bit Server VM
Default Encoding: UTF-8
Language: en
Country: null
--></g></svg>