<?xml version="1.0" encoding="us-ascii" standalone="no"?><svg xmlns="http://www.w3.org/2000/svg" xmlns:xlink="http://www.w3.org/1999/xlink" contentStyleType="text/css" height="138px" preserveAspectRatio="none" style="width:245px;height:138px;" version="1.1" viewBox="0 0 245 138" width="245px" zoomAndPan="magnify"><defs/><g><!--class SpaceTransformationOptions--><g id="elem_SpaceTransformationOptions"><rect codeLine="4" fill="#F1F1F1" height="32" id="SpaceTransformationOptions" rx="2.5" ry="2.5" style="stroke:#181818;stroke-width:0.5;" width="231" x="7" y="7"/><ellipse cx="22" cy="23" fill="#B4A7E5" rx="11" ry="11" style="stroke:#181818;stroke-width:1.0;"/><path d="M17.9219,18.7656 L17.9219,16.6094 L25.3125,16.6094 L25.3125,18.7656 L22.8438,18.7656 L22.8438,26.8438 L25.3125,26.8438 L25.3125,29 L17.9219,29 L17.9219,26.8438 L20.3906,26.8438 L20.3906,18.7656 L17.9219,18.7656 Z " fill="#000000"/><text fill="#000000" font-family="sans-serif" font-size="14" font-style="italic" lengthAdjust="spacing" textLength="199" x="36" y="27.8467">SpaceTransformationOptions</text></g><!--class SpaceConversionOptions--><g id="elem_SpaceConversionOptions"><rect codeLine="6" fill="#F1F1F1" height="32" id="SpaceConversionOptions" rx="2.5" ry="2.5" style="stroke:#181818;stroke-width:0.5;" width="206" x="19.5" y="99"/><ellipse cx="34.5" cy="115" fill="#B4A7E5" rx="11" ry="11" style="stroke:#181818;stroke-width:1.0;"/><path d="M30.4219,110.7656 L30.4219,108.6094 L37.8125,108.6094 L37.8125,110.7656 L35.3438,110.7656 L35.3438,118.8438 L37.8125,118.8438 L37.8125,121 L30.4219,121 L30.4219,118.8438 L32.8906,118.8438 L32.8906,110.7656 L30.4219,110.7656 Z " fill="#000000"/><text fill="#000000" font-family="sans-serif" font-size="14" font-style="italic" lengthAdjust="spacing" textLength="174" x="48.5" y="119.8467">SpaceConversionOptions</text></g><!--reverse link SpaceTransformationOptions to SpaceConversionOptions--><g id="link_SpaceTransformationOptions_SpaceConversionOptions"><path codeLine="8" d="M122.5,59.61 C122.5,73.31 122.5,88.22 122.5,98.96 " fill="none" id="SpaceTransformationOptions-backto-SpaceConversionOptions" style="stroke:#181818;stroke-width:1.0;"/><polygon fill="none" points="115.5,59.27,122.5,39.27,129.5,59.27,115.5,59.27" style="stroke:#181818;stroke-width:1.0;"/></g><!--SRC=[VOmx3i9034JxdC9AdnjGaGDGm0Mih9TOoTehso0XuEviEWI2PaPwy_65fQ9XWJrEozdq8cdKLGt2KBn59D7Dd0YerBX1ePWr-JlAJ6iZB46MSIBeZxNPQJl8QWM3LGvrK-_XtZs_ggFAbSm_Qtz_TezX-3b_0G00]--></g></svg>