<?xml version="1.0" encoding="UTF-8" standalone="no"?><svg xmlns="http://www.w3.org/2000/svg" xmlns:xlink="http://www.w3.org/1999/xlink" contentScriptType="application/ecmascript" contentStyleType="text/css" height="145px" preserveAspectRatio="none" style="width:483px;height:145px;background:#00000000;" version="1.1" viewBox="0 0 483 145" width="483px" zoomAndPan="magnify"><defs><filter height="300%" id="fpz1v01vkgryg" width="300%" x="-1" y="-1"><feGaussianBlur result="blurOut" stdDeviation="2.0"/><feColorMatrix in="blurOut" result="blurOut2" type="matrix" values="0 0 0 0 0 0 0 0 0 0 0 0 0 0 0 0 0 0 .4 0"/><feOffset dx="4.0" dy="4.0" in="blurOut2" result="blurOut3"/><feBlend in="SourceGraphic" in2="blurOut3" mode="normal"/></filter></defs><g><!--MD5=[7183395f106fe9f17d6415420f8540f1]
class SpaceConversionOptions--><rect codeLine="4" fill="#FEFECE" filter="url(#fpz1v01vkgryg)" height="32" id="SpaceConversionOptions" style="stroke:#A80036;stroke-width:1.5;" width="185" x="146.5" y="99"/><ellipse cx="161.5" cy="115" fill="#B4A7E5" rx="11" ry="11" style="stroke:#A80036;stroke-width:1.0;"/><path d="M157.4219,110.7656 L157.4219,108.6094 L164.8125,108.6094 L164.8125,110.7656 L162.3438,110.7656 L162.3438,118.8438 L164.8125,118.8438 L164.8125,121 L157.4219,121 L157.4219,118.8438 L159.8906,118.8438 L159.8906,110.7656 L157.4219,110.7656 Z " fill="#000000"/><text fill="#000000" font-family="sans-serif" font-size="12" font-style="italic" lengthAdjust="spacing" textLength="153" x="175.5" y="119.1543">SpaceConversionOptions</text><!--MD5=[b53bc0b3a71be57c62241e847c2a99d4]
class ObjectProcessingNodeOptions--><rect codeLine="6" fill="#FEFECE" filter="url(#fpz1v01vkgryg)" height="32" id="ObjectProcessingNodeOptions" style="stroke:#A80036;stroke-width:1.5;" width="216" x="7" y="7"/><ellipse cx="22" cy="23" fill="#B4A7E5" rx="11" ry="11" style="stroke:#A80036;stroke-width:1.0;"/><path d="M17.9219,18.7656 L17.9219,16.6094 L25.3125,16.6094 L25.3125,18.7656 L22.8438,18.7656 L22.8438,26.8438 L25.3125,26.8438 L25.3125,29 L17.9219,29 L17.9219,26.8438 L20.3906,26.8438 L20.3906,18.7656 L17.9219,18.7656 Z " fill="#000000"/><text fill="#000000" font-family="sans-serif" font-size="12" font-style="italic" lengthAdjust="spacing" textLength="184" x="36" y="27.1543">ObjectProcessingNodeOptions</text><!--MD5=[24d0e048b4218bad33f3e10ff46ead90]
class SpaceTransformationOptions--><rect codeLine="9" fill="#FEFECE" filter="url(#fpz1v01vkgryg)" height="32" id="SpaceTransformationOptions" style="stroke:#A80036;stroke-width:1.5;" width="211" x="258.5" y="7"/><ellipse cx="273.5" cy="23" fill="#B4A7E5" rx="11" ry="11" style="stroke:#A80036;stroke-width:1.0;"/><path d="M269.4219,18.7656 L269.4219,16.6094 L276.8125,16.6094 L276.8125,18.7656 L274.3438,18.7656 L274.3438,26.8438 L276.8125,26.8438 L276.8125,29 L269.4219,29 L269.4219,26.8438 L271.8906,26.8438 L271.8906,18.7656 L269.4219,18.7656 Z " fill="#000000"/><text fill="#000000" font-family="sans-serif" font-size="12" font-style="italic" lengthAdjust="spacing" textLength="179" x="287.5" y="27.1543">SpaceTransformationOptions</text><!--MD5=[e70c1b9e5e4417c063a1a8777c6611ed]
reverse link ObjectProcessingNodeOptions to SpaceConversionOptions--><path codeLine="8" d="M152.14,50.95 C173.75,66.64 200.18,85.83 218.18,98.89 " fill="none" id="ObjectProcessingNodeOptions-backto-SpaceConversionOptions" style="stroke:#A80036;stroke-width:1.0;"/><polygon fill="none" points="147.83,56.48,135.75,39.06,156.05,45.15,147.83,56.48" style="stroke:#A80036;stroke-width:1.0;"/><!--MD5=[bd3382aeb0c1aec283666640ccc23e50]
reverse link SpaceTransformationOptions to SpaceConversionOptions--><path codeLine="11" d="M326.56,50.95 C304.78,66.64 278.13,85.83 259.99,98.89 " fill="none" id="SpaceTransformationOptions-backto-SpaceConversionOptions" style="stroke:#A80036;stroke-width:1.0;"/><polygon fill="none" points="322.76,45.07,343.08,39.06,330.94,56.43,322.76,45.07" style="stroke:#A80036;stroke-width:1.0;"/><!--MD5=[340ce8c0ed6827a76a6d66f0221a4053]
@startuml
skinparam BackgroundColor transparent
hide empty methods
hide empty fields
interface "SpaceConversionOptions" {
}
interface "ObjectProcessingNodeOptions" {
}
"ObjectProcessingNodeOptions" <|- - "SpaceConversionOptions"
interface "SpaceTransformationOptions" {
}
"SpaceTransformationOptions" <|- - "SpaceConversionOptions"
@enduml

PlantUML version 1.2021.14(Fri Nov 12 16:46:50 UTC 2021)
(GPL source distribution)
Java Runtime: OpenJDK Runtime Environment
JVM: OpenJDK 64-Bit Server VM
Default Encoding: UTF-8
Language: en
Country: null
--></g></svg>