<?xml version="1.0" encoding="us-ascii" standalone="no"?><svg xmlns="http://www.w3.org/2000/svg" xmlns:xlink="http://www.w3.org/1999/xlink" contentStyleType="text/css" height="138px" preserveAspectRatio="none" style="width:163px;height:138px;" version="1.1" viewBox="0 0 163 138" width="163px" zoomAndPan="magnify"><defs/><g><!--class TemperatureUnit--><g id="elem_TemperatureUnit"><rect codeLine="4" fill="#F1F1F1" height="32" id="TemperatureUnit" rx="2.5" ry="2.5" style="stroke:#181818;stroke-width:0.5;" width="149" x="7" y="99"/><ellipse cx="22" cy="115" fill="#ADD1B2" rx="11" ry="11" style="stroke:#181818;stroke-width:1.0;"/><path d="M24.9688,120.6406 Q24.3906,120.9375 23.75,121.0781 Q23.1094,121.2344 22.4063,121.2344 Q19.9063,121.2344 18.5781,119.5938 Q17.2656,117.9375 17.2656,114.8125 Q17.2656,111.6875 18.5781,110.0313 Q19.9063,108.375 22.4063,108.375 Q23.1094,108.375 23.75,108.5313 Q24.4063,108.6875 24.9688,108.9844 L24.9688,111.7031 Q24.3438,111.125 23.75,110.8594 Q23.1563,110.5781 22.5313,110.5781 Q21.1875,110.5781 20.5,111.6563 Q19.8125,112.7188 19.8125,114.8125 Q19.8125,116.9063 20.5,117.9844 Q21.1875,119.0469 22.5313,119.0469 Q23.1563,119.0469 23.75,118.7813 Q24.3438,118.5 24.9688,117.9219 L24.9688,120.6406 Z " fill="#000000"/><text fill="#000000" font-family="sans-serif" font-size="14" lengthAdjust="spacing" textLength="117" x="36" y="119.8467">TemperatureUnit</text></g><!--class Unit--><g id="elem_Unit"><rect codeLine="6" fill="#F1F1F1" height="32" id="Unit" rx="2.5" ry="2.5" style="stroke:#181818;stroke-width:0.5;" width="59" x="52" y="7"/><ellipse cx="67" cy="23" fill="#ADD1B2" rx="11" ry="11" style="stroke:#181818;stroke-width:1.0;"/><path d="M69.9688,28.6406 Q69.3906,28.9375 68.75,29.0781 Q68.1094,29.2344 67.4063,29.2344 Q64.9063,29.2344 63.5781,27.5938 Q62.2656,25.9375 62.2656,22.8125 Q62.2656,19.6875 63.5781,18.0313 Q64.9063,16.375 67.4063,16.375 Q68.1094,16.375 68.75,16.5313 Q69.4063,16.6875 69.9688,16.9844 L69.9688,19.7031 Q69.3438,19.125 68.75,18.8594 Q68.1563,18.5781 67.5313,18.5781 Q66.1875,18.5781 65.5,19.6563 Q64.8125,20.7188 64.8125,22.8125 Q64.8125,24.9063 65.5,25.9844 Q66.1875,27.0469 67.5313,27.0469 Q68.1563,27.0469 68.75,26.7813 Q69.3438,26.5 69.9688,25.9219 L69.9688,28.6406 Z " fill="#000000"/><text fill="#000000" font-family="sans-serif" font-size="14" lengthAdjust="spacing" textLength="27" x="81" y="27.8467">Unit</text></g><!--reverse link Unit to TemperatureUnit--><g id="link_Unit_TemperatureUnit"><path codeLine="8" d="M81.5,59.61 C81.5,73.31 81.5,88.22 81.5,98.96 " fill="none" id="Unit-backto-TemperatureUnit" style="stroke:#181818;stroke-width:1.0;"/><polygon fill="none" points="74.5,59.27,81.5,39.27,88.5,59.27,74.5,59.27" style="stroke:#181818;stroke-width:1.0;"/></g><!--SRC=[AyxEp2j8B4hCLN1AJCvEByelpKjnpi_9Br8eAKhCAmPAfUQLS6LafgGgfEOMb5GgvAQMPEId52CBfMMcvW15adCIYuiLb4A0Wgb5YIMbHQcXUPabIWhLNBKmEOG0b6bJewkBgGK0]--></g></svg>