<?xml version="1.0" encoding="us-ascii" standalone="no"?><svg xmlns="http://www.w3.org/2000/svg" xmlns:xlink="http://www.w3.org/1999/xlink" contentStyleType="text/css" height="138px" preserveAspectRatio="none" style="width:240px;height:138px;" version="1.1" viewBox="0 0 240 138" width="240px" zoomAndPan="magnify"><defs/><g><!--class ThrottleNode<InOut>--><g id="elem_ThrottleNode&lt;InOut&gt;"><rect codeLine="4" fill="#F1F1F1" height="32" id="ThrottleNode&lt;InOut&gt;" rx="2.5" ry="2.5" style="stroke:#181818;stroke-width:0.5;" width="184" x="28" y="99"/><ellipse cx="43" cy="115" fill="#ADD1B2" rx="11" ry="11" style="stroke:#181818;stroke-width:1.0;"/><path d="M45.9688,120.6406 Q45.3906,120.9375 44.75,121.0781 Q44.1094,121.2344 43.4063,121.2344 Q40.9063,121.2344 39.5781,119.5938 Q38.2656,117.9375 38.2656,114.8125 Q38.2656,111.6875 39.5781,110.0313 Q40.9063,108.375 43.4063,108.375 Q44.1094,108.375 44.75,108.5313 Q45.4063,108.6875 45.9688,108.9844 L45.9688,111.7031 Q45.3438,111.125 44.75,110.8594 Q44.1563,110.5781 43.5313,110.5781 Q42.1875,110.5781 41.5,111.6563 Q40.8125,112.7188 40.8125,114.8125 Q40.8125,116.9063 41.5,117.9844 Q42.1875,119.0469 43.5313,119.0469 Q44.1563,119.0469 44.75,118.7813 Q45.3438,118.5 45.9688,117.9219 L45.9688,120.6406 Z " fill="#000000"/><text fill="#000000" font-family="sans-serif" font-size="14" lengthAdjust="spacing" textLength="152" x="57" y="119.8467">ThrottleNode&lt;InOut&gt;</text></g><!--class MemoryBufferNode<InOut>--><g id="elem_MemoryBufferNode&lt;InOut&gt;"><rect codeLine="6" fill="#F1F1F1" height="32" id="MemoryBufferNode&lt;InOut&gt;" rx="2.5" ry="2.5" style="stroke:#181818;stroke-width:0.5;" width="226" x="7" y="7"/><ellipse cx="22" cy="23" fill="#ADD1B2" rx="11" ry="11" style="stroke:#181818;stroke-width:1.0;"/><path d="M24.9688,28.6406 Q24.3906,28.9375 23.75,29.0781 Q23.1094,29.2344 22.4063,29.2344 Q19.9063,29.2344 18.5781,27.5938 Q17.2656,25.9375 17.2656,22.8125 Q17.2656,19.6875 18.5781,18.0313 Q19.9063,16.375 22.4063,16.375 Q23.1094,16.375 23.75,16.5313 Q24.4063,16.6875 24.9688,16.9844 L24.9688,19.7031 Q24.3438,19.125 23.75,18.8594 Q23.1563,18.5781 22.5313,18.5781 Q21.1875,18.5781 20.5,19.6563 Q19.8125,20.7188 19.8125,22.8125 Q19.8125,24.9063 20.5,25.9844 Q21.1875,27.0469 22.5313,27.0469 Q23.1563,27.0469 23.75,26.7813 Q24.3438,26.5 24.9688,25.9219 L24.9688,28.6406 Z " fill="#000000"/><text fill="#000000" font-family="sans-serif" font-size="14" lengthAdjust="spacing" textLength="194" x="36" y="27.8467">MemoryBufferNode&lt;InOut&gt;</text></g><!--reverse link MemoryBufferNode<InOut> to ThrottleNode<InOut>--><g id="link_MemoryBufferNode&lt;InOut&gt;_ThrottleNode&lt;InOut&gt;"><path codeLine="8" d="M120,59.61 C120,73.31 120,88.22 120,98.96 " fill="none" id="MemoryBufferNode&lt;InOut&gt;-backto-ThrottleNode&lt;InOut&gt;" style="stroke:#181818;stroke-width:1.0;"/><polygon fill="none" points="113,59.27,120,39.27,127,59.27,113,59.27" style="stroke:#181818;stroke-width:1.0;"/></g><!--SRC=[TSmn3i8m38NXlQUmklS65KCxCG0B5x0QXqHDxCfnXgfmztP1GWBM_tjwPOwye6A60QVveLBPZP94mHIv74HiJOYEWF9YAsIo8Avy9Xyf7MLAM0gqzw1YbkWgZleptwgTMjYQrzilb4NNeNfF-hNvh_spwtwVxm00]--></g></svg>