<?xml version="1.0" encoding="us-ascii" standalone="no"?><svg xmlns="http://www.w3.org/2000/svg" xmlns:xlink="http://www.w3.org/1999/xlink" contentStyleType="text/css" height="138px" preserveAspectRatio="none" style="width:240px;height:138px;" version="1.1" viewBox="0 0 240 138" width="240px" zoomAndPan="magnify"><defs/><g><!--class TimeSyncNode<InOut>--><g id="elem_TimeSyncNode&lt;InOut&gt;"><rect codeLine="4" fill="#F1F1F1" height="32" id="TimeSyncNode&lt;InOut&gt;" rx="2.5" ry="2.5" style="stroke:#181818;stroke-width:0.5;" width="197" x="21.5" y="99"/><ellipse cx="36.5" cy="115" fill="#ADD1B2" rx="11" ry="11" style="stroke:#181818;stroke-width:1.0;"/><path d="M39.4688,120.6406 Q38.8906,120.9375 38.25,121.0781 Q37.6094,121.2344 36.9063,121.2344 Q34.4063,121.2344 33.0781,119.5938 Q31.7656,117.9375 31.7656,114.8125 Q31.7656,111.6875 33.0781,110.0313 Q34.4063,108.375 36.9063,108.375 Q37.6094,108.375 38.25,108.5313 Q38.9063,108.6875 39.4688,108.9844 L39.4688,111.7031 Q38.8438,111.125 38.25,110.8594 Q37.6563,110.5781 37.0313,110.5781 Q35.6875,110.5781 35,111.6563 Q34.3125,112.7188 34.3125,114.8125 Q34.3125,116.9063 35,117.9844 Q35.6875,119.0469 37.0313,119.0469 Q37.6563,119.0469 38.25,118.7813 Q38.8438,118.5 39.4688,117.9219 L39.4688,120.6406 Z " fill="#000000"/><text fill="#000000" font-family="sans-serif" font-size="14" lengthAdjust="spacing" textLength="165" x="50.5" y="119.8467">TimeSyncNode&lt;InOut&gt;</text></g><!--class MemoryBufferNode<InOut>--><g id="elem_MemoryBufferNode&lt;InOut&gt;"><rect codeLine="6" fill="#F1F1F1" height="32" id="MemoryBufferNode&lt;InOut&gt;" rx="2.5" ry="2.5" style="stroke:#181818;stroke-width:0.5;" width="226" x="7" y="7"/><ellipse cx="22" cy="23" fill="#ADD1B2" rx="11" ry="11" style="stroke:#181818;stroke-width:1.0;"/><path d="M24.9688,28.6406 Q24.3906,28.9375 23.75,29.0781 Q23.1094,29.2344 22.4063,29.2344 Q19.9063,29.2344 18.5781,27.5938 Q17.2656,25.9375 17.2656,22.8125 Q17.2656,19.6875 18.5781,18.0313 Q19.9063,16.375 22.4063,16.375 Q23.1094,16.375 23.75,16.5313 Q24.4063,16.6875 24.9688,16.9844 L24.9688,19.7031 Q24.3438,19.125 23.75,18.8594 Q23.1563,18.5781 22.5313,18.5781 Q21.1875,18.5781 20.5,19.6563 Q19.8125,20.7188 19.8125,22.8125 Q19.8125,24.9063 20.5,25.9844 Q21.1875,27.0469 22.5313,27.0469 Q23.1563,27.0469 23.75,26.7813 Q24.3438,26.5 24.9688,25.9219 L24.9688,28.6406 Z " fill="#000000"/><text fill="#000000" font-family="sans-serif" font-size="14" lengthAdjust="spacing" textLength="194" x="36" y="27.8467">MemoryBufferNode&lt;InOut&gt;</text></g><!--reverse link MemoryBufferNode<InOut> to TimeSyncNode<InOut>--><g id="link_MemoryBufferNode&lt;InOut&gt;_TimeSyncNode&lt;InOut&gt;"><path codeLine="8" d="M120,59.61 C120,73.31 120,88.22 120,98.96 " fill="none" id="MemoryBufferNode&lt;InOut&gt;-backto-TimeSyncNode&lt;InOut&gt;" style="stroke:#181818;stroke-width:1.0;"/><polygon fill="none" points="113,59.27,120,39.27,127,59.27,113,59.27" style="stroke:#181818;stroke-width:1.0;"/></g><!--SRC=[TSmn3i8m38NXlQUmklS65KEP6801Bc0b3eqQsvMJ315mTxeW8G7h_pszl4HPqP1XGhVSJAlulIOrA8QIDo8ftHmz0V5Q6Z2LMNt-J25IsefBc3FqryXqQU9EwcayoBcMNG_txlds8x5Qcse8P5-R_pe-Xk7t-Gi0]--></g></svg>