<?xml version="1.0" encoding="UTF-8" standalone="no"?><svg xmlns="http://www.w3.org/2000/svg" xmlns:xlink="http://www.w3.org/1999/xlink" contentScriptType="application/ecmascript" contentStyleType="text/css" height="145px" preserveAspectRatio="none" style="width:157px;height:145px;background:#00000000;" version="1.1" viewBox="0 0 157 145" width="157px" zoomAndPan="magnify"><defs><filter height="300%" id="fuf8cjvpth7e6" width="300%" x="-1" y="-1"><feGaussianBlur result="blurOut" stdDeviation="2.0"/><feColorMatrix in="blurOut" result="blurOut2" type="matrix" values="0 0 0 0 0 0 0 0 0 0 0 0 0 0 0 0 0 0 .4 0"/><feOffset dx="4.0" dy="4.0" in="blurOut2" result="blurOut3"/><feBlend in="SourceGraphic" in2="blurOut3" mode="normal"/></filter></defs><g><!--MD5=[83be0607d484f2706c877cdeb5ff6723]
class TimedPullOptions--><rect codeLine="4" fill="#FEFECE" filter="url(#fuf8cjvpth7e6)" height="32" id="TimedPullOptions" style="stroke:#A80036;stroke-width:1.5;" width="136" x="7" y="99"/><ellipse cx="22" cy="115" fill="#B4A7E5" rx="11" ry="11" style="stroke:#A80036;stroke-width:1.0;"/><path d="M17.9219,110.7656 L17.9219,108.6094 L25.3125,108.6094 L25.3125,110.7656 L22.8438,110.7656 L22.8438,118.8438 L25.3125,118.8438 L25.3125,121 L17.9219,121 L17.9219,118.8438 L20.3906,118.8438 L20.3906,110.7656 L17.9219,110.7656 Z " fill="#000000"/><text fill="#000000" font-family="sans-serif" font-size="12" font-style="italic" lengthAdjust="spacing" textLength="104" x="36" y="119.1543">TimedPullOptions</text><!--MD5=[680d5112d2c67c3de15744b0ad7e4a6c]
class NodeOptions--><rect codeLine="6" fill="#FEFECE" filter="url(#fuf8cjvpth7e6)" height="32" id="NodeOptions" style="stroke:#A80036;stroke-width:1.5;" width="111" x="19.5" y="7"/><ellipse cx="34.5" cy="23" fill="#B4A7E5" rx="11" ry="11" style="stroke:#A80036;stroke-width:1.0;"/><path d="M30.4219,18.7656 L30.4219,16.6094 L37.8125,16.6094 L37.8125,18.7656 L35.3438,18.7656 L35.3438,26.8438 L37.8125,26.8438 L37.8125,29 L30.4219,29 L30.4219,26.8438 L32.8906,26.8438 L32.8906,18.7656 L30.4219,18.7656 Z " fill="#000000"/><text fill="#000000" font-family="sans-serif" font-size="12" font-style="italic" lengthAdjust="spacing" textLength="79" x="48.5" y="27.1543">NodeOptions</text><!--MD5=[1105cad5d254e400c85940db4c44d412]
reverse link NodeOptions to TimedPullOptions--><path codeLine="8" d="M75,59.61 C75,73.31 75,88.22 75,98.96 " fill="none" id="NodeOptions-backto-TimedPullOptions" style="stroke:#A80036;stroke-width:1.0;"/><polygon fill="none" points="68,59.27,75,39.27,82,59.27,68,59.27" style="stroke:#A80036;stroke-width:1.0;"/><!--MD5=[663d8efea2d33d2a510428b550079165]
@startuml
skinparam BackgroundColor transparent
hide empty methods
hide empty fields
interface "TimedPullOptions" {
}
interface "NodeOptions" {
}
"NodeOptions" <|- - "TimedPullOptions"
@enduml

PlantUML version 1.2021.14(Fri Nov 12 16:46:50 UTC 2021)
(GPL source distribution)
Java Runtime: OpenJDK Runtime Environment
JVM: OpenJDK 64-Bit Server VM
Default Encoding: UTF-8
Language: en
Country: null
--></g></svg>