<?xml version="1.0" encoding="UTF-8" standalone="no"?><svg xmlns="http://www.w3.org/2000/svg" xmlns:xlink="http://www.w3.org/1999/xlink" contentScriptType="application/ecmascript" contentStyleType="text/css" height="145px" preserveAspectRatio="none" style="width:198px;height:145px;background:#00000000;" version="1.1" viewBox="0 0 198 145" width="198px" zoomAndPan="magnify"><defs><filter height="300%" id="f1k2a9uvjasnmo" width="300%" x="-1" y="-1"><feGaussianBlur result="blurOut" stdDeviation="2.0"/><feColorMatrix in="blurOut" result="blurOut2" type="matrix" values="0 0 0 0 0 0 0 0 0 0 0 0 0 0 0 0 0 0 .4 0"/><feOffset dx="4.0" dy="4.0" in="blurOut2" result="blurOut3"/><feBlend in="SourceGraphic" in2="blurOut3" mode="normal"/></filter></defs><g><!--MD5=[b4666188cfc8b763e60c6f943dbb6792]
class TimedPullNode<InOut>--><rect codeLine="4" fill="#FEFECE" filter="url(#f1k2a9uvjasnmo)" height="32" id="TimedPullNode&lt;InOut&gt;" style="stroke:#A80036;stroke-width:1.5;" width="177" x="7" y="99"/><ellipse cx="22" cy="115" fill="#ADD1B2" rx="11" ry="11" style="stroke:#A80036;stroke-width:1.0;"/><path d="M24.9688,120.6406 Q24.3906,120.9375 23.75,121.0781 Q23.1094,121.2344 22.4063,121.2344 Q19.9063,121.2344 18.5781,119.5938 Q17.2656,117.9375 17.2656,114.8125 Q17.2656,111.6875 18.5781,110.0313 Q19.9063,108.375 22.4063,108.375 Q23.1094,108.375 23.75,108.5313 Q24.4063,108.6875 24.9688,108.9844 L24.9688,111.7031 Q24.3438,111.125 23.75,110.8594 Q23.1563,110.5781 22.5313,110.5781 Q21.1875,110.5781 20.5,111.6563 Q19.8125,112.7188 19.8125,114.8125 Q19.8125,116.9063 20.5,117.9844 Q21.1875,119.0469 22.5313,119.0469 Q23.1563,119.0469 23.75,118.7813 Q24.3438,118.5 24.9688,117.9219 L24.9688,120.6406 Z " fill="#000000"/><text fill="#000000" font-family="sans-serif" font-size="12" lengthAdjust="spacing" textLength="145" x="36" y="119.1543">TimedPullNode&lt;InOut&gt;</text><!--MD5=[57fab1d92ec96921b1b3362c38eaf008]
class Node<InOut, InOut>--><rect codeLine="6" fill="#FEFECE" filter="url(#f1k2a9uvjasnmo)" height="32" id="Node&lt;InOut, InOut&gt;" style="stroke:#A80036;stroke-width:1.5;" width="159" x="16" y="7"/><ellipse cx="31" cy="23" fill="#ADD1B2" rx="11" ry="11" style="stroke:#A80036;stroke-width:1.0;"/><path d="M33.9688,28.6406 Q33.3906,28.9375 32.75,29.0781 Q32.1094,29.2344 31.4063,29.2344 Q28.9063,29.2344 27.5781,27.5938 Q26.2656,25.9375 26.2656,22.8125 Q26.2656,19.6875 27.5781,18.0313 Q28.9063,16.375 31.4063,16.375 Q32.1094,16.375 32.75,16.5313 Q33.4063,16.6875 33.9688,16.9844 L33.9688,19.7031 Q33.3438,19.125 32.75,18.8594 Q32.1563,18.5781 31.5313,18.5781 Q30.1875,18.5781 29.5,19.6563 Q28.8125,20.7188 28.8125,22.8125 Q28.8125,24.9063 29.5,25.9844 Q30.1875,27.0469 31.5313,27.0469 Q32.1563,27.0469 32.75,26.7813 Q33.3438,26.5 33.9688,25.9219 L33.9688,28.6406 Z " fill="#000000"/><text fill="#000000" font-family="sans-serif" font-size="12" lengthAdjust="spacing" textLength="127" x="45" y="27.1543">Node&lt;InOut, InOut&gt;</text><!--MD5=[562daa1f5f03da7be5eb7f8b82f76aa2]
reverse link Node<InOut, InOut> to TimedPullNode<InOut>--><path codeLine="8" d="M95.5,59.61 C95.5,73.31 95.5,88.22 95.5,98.96 " fill="none" id="Node&lt;InOut, InOut&gt;-backto-TimedPullNode&lt;InOut&gt;" style="stroke:#A80036;stroke-width:1.0;"/><polygon fill="none" points="88.5,59.27,95.5,39.27,102.5,59.27,88.5,59.27" style="stroke:#A80036;stroke-width:1.0;"/><!--MD5=[327c17bdd52f080ee89609c675be70bf]
@startuml
skinparam BackgroundColor transparent
hide empty methods
hide empty fields
class "TimedPullNode<InOut>" {
}
class "Node<InOut, InOut>" {
}
"Node<InOut, InOut>" <|- - "TimedPullNode<InOut>"
@enduml

PlantUML version 1.2021.14(Fri Nov 12 16:46:50 UTC 2021)
(GPL source distribution)
Java Runtime: OpenJDK Runtime Environment
JVM: OpenJDK 64-Bit Server VM
Default Encoding: UTF-8
Language: en
Country: null
--></g></svg>