<?xml version="1.0" encoding="us-ascii" standalone="no"?><svg xmlns="http://www.w3.org/2000/svg" xmlns:xlink="http://www.w3.org/1999/xlink" contentStyleType="text/css" height="138px" preserveAspectRatio="none" style="width:167px;height:138px;" version="1.1" viewBox="0 0 167 138" width="167px" zoomAndPan="magnify"><defs/><g><!--class TimeSyncOptions--><g id="elem_TimeSyncOptions"><rect codeLine="4" fill="#F1F1F1" height="32" id="TimeSyncOptions" rx="2.5" ry="2.5" style="stroke:#181818;stroke-width:0.5;" width="153" x="7" y="99"/><ellipse cx="22" cy="115" fill="#B4A7E5" rx="11" ry="11" style="stroke:#181818;stroke-width:1.0;"/><path d="M17.9219,110.7656 L17.9219,108.6094 L25.3125,108.6094 L25.3125,110.7656 L22.8438,110.7656 L22.8438,118.8438 L25.3125,118.8438 L25.3125,121 L17.9219,121 L17.9219,118.8438 L20.3906,118.8438 L20.3906,110.7656 L17.9219,110.7656 Z " fill="#000000"/><text fill="#000000" font-family="sans-serif" font-size="14" font-style="italic" lengthAdjust="spacing" textLength="121" x="36" y="119.8467">TimeSyncOptions</text></g><!--class BufferOptions--><g id="elem_BufferOptions"><rect codeLine="6" fill="#F1F1F1" height="32" id="BufferOptions" rx="2.5" ry="2.5" style="stroke:#181818;stroke-width:0.5;" width="126" x="20.5" y="7"/><ellipse cx="35.5" cy="23" fill="#B4A7E5" rx="11" ry="11" style="stroke:#181818;stroke-width:1.0;"/><path d="M31.4219,18.7656 L31.4219,16.6094 L38.8125,16.6094 L38.8125,18.7656 L36.3438,18.7656 L36.3438,26.8438 L38.8125,26.8438 L38.8125,29 L31.4219,29 L31.4219,26.8438 L33.8906,26.8438 L33.8906,18.7656 L31.4219,18.7656 Z " fill="#000000"/><text fill="#000000" font-family="sans-serif" font-size="14" font-style="italic" lengthAdjust="spacing" textLength="94" x="49.5" y="27.8467">BufferOptions</text></g><!--reverse link BufferOptions to TimeSyncOptions--><g id="link_BufferOptions_TimeSyncOptions"><path codeLine="8" d="M83.5,59.61 C83.5,73.31 83.5,88.22 83.5,98.96 " fill="none" id="BufferOptions-backto-TimeSyncOptions" style="stroke:#181818;stroke-width:1.0;"/><polygon fill="none" points="76.5,59.27,83.5,39.27,90.5,59.27,76.5,59.27" style="stroke:#181818;stroke-width:1.0;"/></g><!--SRC=[PSmn3eCm343HdLDOxDoW4pr01xY0bJXWGUp8CGDgkJkCj5t_atvTM0eQPkWnB9Ff9l6fgngueTIBIBoPEH9GBhv39fyrrdjAJEjLM9miOI1eHyuqx19UnLcbjl1kZhltMqfaN_hR7f-k-n-T]--></g></svg>