<?xml version="1.0" encoding="UTF-8" standalone="no"?><svg xmlns="http://www.w3.org/2000/svg" xmlns:xlink="http://www.w3.org/1999/xlink" contentScriptType="application/ecmascript" contentStyleType="text/css" height="251px" preserveAspectRatio="none" style="width:187px;height:251px;background:#00000000;" version="1.1" viewBox="0 0 187 251" width="187px" zoomAndPan="magnify"><defs><filter height="300%" id="f1vlc44wkw1enk" width="300%" x="-1" y="-1"><feGaussianBlur result="blurOut" stdDeviation="2.0"/><feColorMatrix in="blurOut" result="blurOut2" type="matrix" values="0 0 0 0 0 0 0 0 0 0 0 0 0 0 0 0 0 0 .4 0"/><feOffset dx="4.0" dy="4.0" in="blurOut2" result="blurOut3"/><feBlend in="SourceGraphic" in2="blurOut3" mode="normal"/></filter></defs><g><!--MD5=[83be0607d484f2706c877cdeb5ff6723]
class TimedPullOptions--><rect codeLine="4" fill="#FEFECE" filter="url(#f1vlc44wkw1enk)" height="104.0234" id="TimedPullOptions" style="stroke:#A80036;stroke-width:1.5;" width="166" x="7" y="133"/><ellipse cx="35.5" cy="149" fill="#B4A7E5" rx="11" ry="11" style="stroke:#A80036;stroke-width:1.0;"/><path d="M31.4219,144.7656 L31.4219,142.6094 L38.8125,142.6094 L38.8125,144.7656 L36.3438,144.7656 L36.3438,152.8438 L38.8125,152.8438 L38.8125,155 L31.4219,155 L31.4219,152.8438 L33.8906,152.8438 L33.8906,144.7656 L31.4219,144.7656 Z " fill="#000000"/><text fill="#000000" font-family="sans-serif" font-size="12" font-style="italic" lengthAdjust="spacing" textLength="104" x="52.5" y="153.1543">TimedPullOptions</text><line style="stroke:#A80036;stroke-width:1.5;" x1="8" x2="172" y1="165" y2="165"/><ellipse cx="18" cy="176" rx="3" ry="3" style="stroke:#038048;stroke-width:1.0;fill:none;"/><text fill="#000000" font-family="sans-serif" font-size="11" lengthAdjust="spacing" textLength="110" x="27" y="179.2104">autoStart : boolean</text><ellipse cx="18" cy="188.8047" rx="3" ry="3" style="stroke:#038048;stroke-width:1.0;fill:none;"/><text fill="#000000" font-family="sans-serif" font-size="11" lengthAdjust="spacing" textLength="77" x="27" y="192.0151">name : string</text><ellipse cx="18" cy="201.6094" rx="3" ry="3" style="stroke:#038048;stroke-width:1.0;fill:none;"/><text fill="#000000" font-family="sans-serif" font-size="11" lengthAdjust="spacing" textLength="140" x="27" y="204.8198">pullOptions : PullOptions</text><ellipse cx="18" cy="214.4141" rx="3" ry="3" style="stroke:#038048;stroke-width:1.0;fill:none;"/><text fill="#000000" font-family="sans-serif" font-size="11" lengthAdjust="spacing" textLength="118" x="27" y="217.6245">throttlePull : boolean</text><ellipse cx="18" cy="227.2188" rx="3" ry="3" style="stroke:#038048;stroke-width:1.0;fill:none;"/><text fill="#000000" font-family="sans-serif" font-size="11" lengthAdjust="spacing" textLength="62" x="27" y="230.4292">uid : string</text><!--MD5=[680d5112d2c67c3de15744b0ad7e4a6c]
class NodeOptions--><rect codeLine="11" fill="#FEFECE" filter="url(#f1vlc44wkw1enk)" height="65.6094" id="NodeOptions" style="stroke:#A80036;stroke-width:1.5;" width="111" x="34.5" y="7"/><ellipse cx="49.5" cy="23" fill="#B4A7E5" rx="11" ry="11" style="stroke:#A80036;stroke-width:1.0;"/><path d="M45.4219,18.7656 L45.4219,16.6094 L52.8125,16.6094 L52.8125,18.7656 L50.3438,18.7656 L50.3438,26.8438 L52.8125,26.8438 L52.8125,29 L45.4219,29 L45.4219,26.8438 L47.8906,26.8438 L47.8906,18.7656 L45.4219,18.7656 Z " fill="#000000"/><text fill="#000000" font-family="sans-serif" font-size="12" font-style="italic" lengthAdjust="spacing" textLength="79" x="63.5" y="27.1543">NodeOptions</text><line style="stroke:#A80036;stroke-width:1.5;" x1="35.5" x2="144.5" y1="39" y2="39"/><ellipse cx="45.5" cy="50" rx="3" ry="3" style="stroke:#038048;stroke-width:1.0;fill:none;"/><text fill="#000000" font-family="sans-serif" font-size="11" lengthAdjust="spacing" textLength="77" x="54.5" y="53.2104">name : string</text><ellipse cx="45.5" cy="62.8047" rx="3" ry="3" style="stroke:#038048;stroke-width:1.0;fill:none;"/><text fill="#000000" font-family="sans-serif" font-size="11" lengthAdjust="spacing" textLength="62" x="54.5" y="66.0151">uid : string</text><!--MD5=[1105cad5d254e400c85940db4c44d412]
reverse link NodeOptions to TimedPullOptions--><path codeLine="15" d="M90,93.1 C90,106.08 90,119.99 90,132.93 " fill="none" id="NodeOptions-backto-TimedPullOptions" style="stroke:#A80036;stroke-width:1.0;"/><polygon fill="none" points="83,93.09,90,73.09,97,93.09,83,93.09" style="stroke:#A80036;stroke-width:1.0;"/><!--MD5=[93626ae1a78395224a2c5cd29499556c]
@startuml
skinparam BackgroundColor transparent
hide empty methods
hide empty fields
interface "TimedPullOptions" {
    +autoStart : boolean
    +name : string
    +pullOptions : PullOptions
    +throttlePull : boolean
    +uid : string
}
interface "NodeOptions" {
    +name : string
    +uid : string
}
"NodeOptions" <|- - "TimedPullOptions"
@enduml

PlantUML version 1.2021.14(Fri Nov 12 16:46:50 UTC 2021)
(GPL source distribution)
Java Runtime: OpenJDK Runtime Environment
JVM: OpenJDK 64-Bit Server VM
Default Encoding: UTF-8
Language: en
Country: null
--></g></svg>