<?xml version="1.0" encoding="UTF-8" standalone="no"?><svg xmlns="http://www.w3.org/2000/svg" xmlns:xlink="http://www.w3.org/1999/xlink" contentScriptType="application/ecmascript" contentStyleType="text/css" height="145px" preserveAspectRatio="none" style="width:158px;height:145px;background:#00000000;" version="1.1" viewBox="0 0 158 145" width="158px" zoomAndPan="magnify"><defs><filter height="300%" id="fafpjjgd4ebjo" width="300%" x="-1" y="-1"><feGaussianBlur result="blurOut" stdDeviation="2.0"/><feColorMatrix in="blurOut" result="blurOut2" type="matrix" values="0 0 0 0 0 0 0 0 0 0 0 0 0 0 0 0 0 0 .4 0"/><feOffset dx="4.0" dy="4.0" in="blurOut2" result="blurOut3"/><feBlend in="SourceGraphic" in2="blurOut3" mode="normal"/></filter></defs><g><!--MD5=[25d44425e82f75472e4c8e59a335807c]
class TimeSyncOptions--><rect codeLine="4" fill="#FEFECE" filter="url(#fafpjjgd4ebjo)" height="32" id="TimeSyncOptions" style="stroke:#A80036;stroke-width:1.5;" width="137" x="7" y="99"/><ellipse cx="22" cy="115" fill="#B4A7E5" rx="11" ry="11" style="stroke:#A80036;stroke-width:1.0;"/><path d="M17.9219,110.7656 L17.9219,108.6094 L25.3125,108.6094 L25.3125,110.7656 L22.8438,110.7656 L22.8438,118.8438 L25.3125,118.8438 L25.3125,121 L17.9219,121 L17.9219,118.8438 L20.3906,118.8438 L20.3906,110.7656 L17.9219,110.7656 Z " fill="#000000"/><text fill="#000000" font-family="sans-serif" font-size="12" font-style="italic" lengthAdjust="spacing" textLength="105" x="36" y="119.1543">TimeSyncOptions</text><!--MD5=[0d1b020772f5726128739ee6808d9f3f]
class BufferOptions--><rect codeLine="6" fill="#FEFECE" filter="url(#fafpjjgd4ebjo)" height="32" id="BufferOptions" style="stroke:#A80036;stroke-width:1.5;" width="115" x="18" y="7"/><ellipse cx="33" cy="23" fill="#B4A7E5" rx="11" ry="11" style="stroke:#A80036;stroke-width:1.0;"/><path d="M28.9219,18.7656 L28.9219,16.6094 L36.3125,16.6094 L36.3125,18.7656 L33.8438,18.7656 L33.8438,26.8438 L36.3125,26.8438 L36.3125,29 L28.9219,29 L28.9219,26.8438 L31.3906,26.8438 L31.3906,18.7656 L28.9219,18.7656 Z " fill="#000000"/><text fill="#000000" font-family="sans-serif" font-size="12" font-style="italic" lengthAdjust="spacing" textLength="83" x="47" y="27.1543">BufferOptions</text><!--MD5=[625927299e3b2e263e0d5e912f0cb85f]
reverse link BufferOptions to TimeSyncOptions--><path codeLine="8" d="M75.5,59.61 C75.5,73.31 75.5,88.22 75.5,98.96 " fill="none" id="BufferOptions-backto-TimeSyncOptions" style="stroke:#A80036;stroke-width:1.0;"/><polygon fill="none" points="68.5,59.27,75.5,39.27,82.5,59.27,68.5,59.27" style="stroke:#A80036;stroke-width:1.0;"/><!--MD5=[e7826c3e0a25ad88cd4ac6b335f3bb5a]
@startuml
skinparam BackgroundColor transparent
hide empty methods
hide empty fields
interface "TimeSyncOptions" {
}
interface "BufferOptions" {
}
"BufferOptions" <|- - "TimeSyncOptions"
@enduml

PlantUML version 1.2021.14(Fri Nov 12 16:46:50 UTC 2021)
(GPL source distribution)
Java Runtime: OpenJDK Runtime Environment
JVM: OpenJDK 64-Bit Server VM
Default Encoding: UTF-8
Language: en
Country: null
--></g></svg>