<?xml version="1.0" encoding="us-ascii" standalone="no"?><svg xmlns="http://www.w3.org/2000/svg" xmlns:xlink="http://www.w3.org/1999/xlink" contentStyleType="text/css" height="138px" preserveAspectRatio="none" style="width:165px;height:138px;" version="1.1" viewBox="0 0 165 138" width="165px" zoomAndPan="magnify"><defs/><g><!--class TimedPullOptions--><g id="elem_TimedPullOptions"><rect codeLine="4" fill="#F1F1F1" height="32" id="TimedPullOptions" rx="2.5" ry="2.5" style="stroke:#181818;stroke-width:0.5;" width="151" x="7" y="99"/><ellipse cx="22" cy="115" fill="#B4A7E5" rx="11" ry="11" style="stroke:#181818;stroke-width:1.0;"/><path d="M17.9219,110.7656 L17.9219,108.6094 L25.3125,108.6094 L25.3125,110.7656 L22.8438,110.7656 L22.8438,118.8438 L25.3125,118.8438 L25.3125,121 L17.9219,121 L17.9219,118.8438 L20.3906,118.8438 L20.3906,110.7656 L17.9219,110.7656 Z " fill="#000000"/><text fill="#000000" font-family="sans-serif" font-size="14" font-style="italic" lengthAdjust="spacing" textLength="119" x="36" y="119.8467">TimedPullOptions</text></g><!--class NodeOptions--><g id="elem_NodeOptions"><rect codeLine="6" fill="#F1F1F1" height="32" id="NodeOptions" rx="2.5" ry="2.5" style="stroke:#181818;stroke-width:0.5;" width="123" x="21" y="7"/><ellipse cx="36" cy="23" fill="#B4A7E5" rx="11" ry="11" style="stroke:#181818;stroke-width:1.0;"/><path d="M31.9219,18.7656 L31.9219,16.6094 L39.3125,16.6094 L39.3125,18.7656 L36.8438,18.7656 L36.8438,26.8438 L39.3125,26.8438 L39.3125,29 L31.9219,29 L31.9219,26.8438 L34.3906,26.8438 L34.3906,18.7656 L31.9219,18.7656 Z " fill="#000000"/><text fill="#000000" font-family="sans-serif" font-size="14" font-style="italic" lengthAdjust="spacing" textLength="91" x="50" y="27.8467">NodeOptions</text></g><!--reverse link NodeOptions to TimedPullOptions--><g id="link_NodeOptions_TimedPullOptions"><path codeLine="8" d="M82.5,59.61 C82.5,73.31 82.5,88.22 82.5,98.96 " fill="none" id="NodeOptions-backto-TimedPullOptions" style="stroke:#181818;stroke-width:1.0;"/><polygon fill="none" points="75.5,59.27,82.5,39.27,89.5,59.27,75.5,59.27" style="stroke:#181818;stroke-width:1.0;"/></g><!--SRC=[RSmn3eD034JHdbDOzDo0YlH92YvWOHCiTksLrnGeoTr32LBQzqTJLz62ZXa6dDQNswPqisGEuQZrIApHB48Cd4lia3aMetgcMJWT8XhiCquCxIYPwRcbz2WXfhM5T_Cz3-v6V6bNwJzTz-Vb1m00]--></g></svg>