<?xml version="1.0" encoding="UTF-8" standalone="no"?><svg xmlns="http://www.w3.org/2000/svg" xmlns:xlink="http://www.w3.org/1999/xlink" contentScriptType="application/ecmascript" contentStyleType="text/css" height="145px" preserveAspectRatio="none" style="width:186px;height:145px;background:#00000000;" version="1.1" viewBox="0 0 186 145" width="186px" zoomAndPan="magnify"><defs><filter height="300%" id="fqg61jp3s2ckh" width="300%" x="-1" y="-1"><feGaussianBlur result="blurOut" stdDeviation="2.0"/><feColorMatrix in="blurOut" result="blurOut2" type="matrix" values="0 0 0 0 0 0 0 0 0 0 0 0 0 0 0 0 0 0 .4 0"/><feOffset dx="4.0" dy="4.0" in="blurOut2" result="blurOut3"/><feBlend in="SourceGraphic" in2="blurOut3" mode="normal"/></filter></defs><g><!--MD5=[11a0d6427268d4034923f166a5fdbc22]
class TransformationSpace--><rect codeLine="4" fill="#FEFECE" filter="url(#fqg61jp3s2ckh)" height="32" id="TransformationSpace" style="stroke:#A80036;stroke-width:1.5;" width="165" x="7" y="7"/><ellipse cx="22" cy="23" fill="#B4A7E5" rx="11" ry="11" style="stroke:#A80036;stroke-width:1.0;"/><path d="M17.9219,18.7656 L17.9219,16.6094 L25.3125,16.6094 L25.3125,18.7656 L22.8438,18.7656 L22.8438,26.8438 L25.3125,26.8438 L25.3125,29 L17.9219,29 L17.9219,26.8438 L20.3906,26.8438 L20.3906,18.7656 L17.9219,18.7656 Z " fill="#000000"/><text fill="#000000" font-family="sans-serif" font-size="12" font-style="italic" lengthAdjust="spacing" textLength="133" x="36" y="27.1543">TransformationSpace</text><!--MD5=[457d44dd3880c8513c660a518493ac6e]
class ReferenceSpace--><rect codeLine="6" fill="#FEFECE" filter="url(#fqg61jp3s2ckh)" height="32" id="ReferenceSpace" style="stroke:#A80036;stroke-width:1.5;" width="135" x="22" y="99"/><ellipse cx="37" cy="115" fill="#ADD1B2" rx="11" ry="11" style="stroke:#A80036;stroke-width:1.0;"/><path d="M39.9688,120.6406 Q39.3906,120.9375 38.75,121.0781 Q38.1094,121.2344 37.4063,121.2344 Q34.9063,121.2344 33.5781,119.5938 Q32.2656,117.9375 32.2656,114.8125 Q32.2656,111.6875 33.5781,110.0313 Q34.9063,108.375 37.4063,108.375 Q38.1094,108.375 38.75,108.5313 Q39.4063,108.6875 39.9688,108.9844 L39.9688,111.7031 Q39.3438,111.125 38.75,110.8594 Q38.1563,110.5781 37.5313,110.5781 Q36.1875,110.5781 35.5,111.6563 Q34.8125,112.7188 34.8125,114.8125 Q34.8125,116.9063 35.5,117.9844 Q36.1875,119.0469 37.5313,119.0469 Q38.1563,119.0469 38.75,118.7813 Q39.3438,118.5 39.9688,117.9219 L39.9688,120.6406 Z " fill="#000000"/><text fill="#000000" font-family="sans-serif" font-size="12" lengthAdjust="spacing" textLength="103" x="51" y="119.1543">ReferenceSpace</text><!--MD5=[6d2d75231d5c7d6ba24ba2a7b0014915]
reverse link TransformationSpace to ReferenceSpace--><path codeLine="8" d="M89.5,59.61 C89.5,73.31 89.5,88.22 89.5,98.96 " fill="none" id="TransformationSpace-backto-ReferenceSpace" style="stroke:#A80036;stroke-width:1.0;stroke-dasharray:7.0,7.0;"/><polygon fill="none" points="82.5,59.27,89.5,39.27,96.5,59.27,82.5,59.27" style="stroke:#A80036;stroke-width:1.0;"/><!--MD5=[ef7825e59115c30faa04e007f7f7dafb]
@startuml
skinparam BackgroundColor transparent
hide empty methods
hide empty fields
interface "TransformationSpace" {
}
class "ReferenceSpace" {
}
"TransformationSpace" <|.. "ReferenceSpace"
@enduml

PlantUML version 1.2021.14(Fri Nov 12 16:46:50 UTC 2021)
(GPL source distribution)
Java Runtime: OpenJDK Runtime Environment
JVM: OpenJDK 64-Bit Server VM
Default Encoding: UTF-8
Language: en
Country: null
--></g></svg>