<?xml version="1.0" encoding="us-ascii" standalone="no"?><svg xmlns="http://www.w3.org/2000/svg" xmlns:xlink="http://www.w3.org/1999/xlink" contentStyleType="text/css" height="138px" preserveAspectRatio="none" style="width:192px;height:138px;" version="1.1" viewBox="0 0 192 138" width="192px" zoomAndPan="magnify"><defs/><g><!--class TransformationSpace--><g id="elem_TransformationSpace"><rect codeLine="4" fill="#F1F1F1" height="32" id="TransformationSpace" rx="2.5" ry="2.5" style="stroke:#181818;stroke-width:0.5;" width="178" x="7" y="7"/><ellipse cx="22" cy="23" fill="#B4A7E5" rx="11" ry="11" style="stroke:#181818;stroke-width:1.0;"/><path d="M17.9219,18.7656 L17.9219,16.6094 L25.3125,16.6094 L25.3125,18.7656 L22.8438,18.7656 L22.8438,26.8438 L25.3125,26.8438 L25.3125,29 L17.9219,29 L17.9219,26.8438 L20.3906,26.8438 L20.3906,18.7656 L17.9219,18.7656 Z " fill="#000000"/><text fill="#000000" font-family="sans-serif" font-size="14" font-style="italic" lengthAdjust="spacing" textLength="146" x="36" y="27.8467">TransformationSpace</text></g><!--class ReferenceSpace--><g id="elem_ReferenceSpace"><rect codeLine="6" fill="#F1F1F1" height="32" id="ReferenceSpace" rx="2.5" ry="2.5" style="stroke:#181818;stroke-width:0.5;" width="147" x="22.5" y="99"/><ellipse cx="37.5" cy="115" fill="#ADD1B2" rx="11" ry="11" style="stroke:#181818;stroke-width:1.0;"/><path d="M40.4688,120.6406 Q39.8906,120.9375 39.25,121.0781 Q38.6094,121.2344 37.9063,121.2344 Q35.4063,121.2344 34.0781,119.5938 Q32.7656,117.9375 32.7656,114.8125 Q32.7656,111.6875 34.0781,110.0313 Q35.4063,108.375 37.9063,108.375 Q38.6094,108.375 39.25,108.5313 Q39.9063,108.6875 40.4688,108.9844 L40.4688,111.7031 Q39.8438,111.125 39.25,110.8594 Q38.6563,110.5781 38.0313,110.5781 Q36.6875,110.5781 36,111.6563 Q35.3125,112.7188 35.3125,114.8125 Q35.3125,116.9063 36,117.9844 Q36.6875,119.0469 38.0313,119.0469 Q38.6563,119.0469 39.25,118.7813 Q39.8438,118.5 40.4688,117.9219 L40.4688,120.6406 Z " fill="#000000"/><text fill="#000000" font-family="sans-serif" font-size="14" lengthAdjust="spacing" textLength="115" x="51.5" y="119.8467">ReferenceSpace</text></g><!--reverse link TransformationSpace to ReferenceSpace--><g id="link_TransformationSpace_ReferenceSpace"><path codeLine="8" d="M96,59.61 C96,73.31 96,88.22 96,98.96 " fill="none" id="TransformationSpace-backto-ReferenceSpace" style="stroke:#181818;stroke-width:1.0;stroke-dasharray:7.0,7.0;"/><polygon fill="none" points="89,59.27,96,39.27,103,59.27,89,59.27" style="stroke:#181818;stroke-width:1.0;"/></g><!--SRC=[ROp13G8n30J_gS9A0LS1B-W0QC1A72wwn8viyq10xuJVIV2TsLdRAWzKx734jDrKxfnFqaJ15Tcc8lQmran0VVW3ElagsVQeL6gJL7RIWeaWNhzj4UteLVWo9epm3E-G6ff1F5EXUPnef_v7XzUo_Em_]--></g></svg>