<?xml version="1.0" encoding="us-ascii" standalone="no"?><svg xmlns="http://www.w3.org/2000/svg" xmlns:xlink="http://www.w3.org/1999/xlink" contentStyleType="text/css" height="138px" preserveAspectRatio="none" style="width:393px;height:138px;" version="1.1" viewBox="0 0 393 138" width="393px" zoomAndPan="magnify"><defs/><g><!--class TriangulationNode<InOut>--><g id="elem_TriangulationNode&lt;InOut&gt;"><rect codeLine="4" fill="#F1F1F1" height="32" id="TriangulationNode&lt;InOut&gt;" rx="2.5" ry="2.5" style="stroke:#181818;stroke-width:0.5;" width="219" x="87" y="99"/><ellipse cx="102" cy="115" fill="#ADD1B2" rx="11" ry="11" style="stroke:#181818;stroke-width:1.0;"/><path d="M104.9688,120.6406 Q104.3906,120.9375 103.75,121.0781 Q103.1094,121.2344 102.4063,121.2344 Q99.9063,121.2344 98.5781,119.5938 Q97.2656,117.9375 97.2656,114.8125 Q97.2656,111.6875 98.5781,110.0313 Q99.9063,108.375 102.4063,108.375 Q103.1094,108.375 103.75,108.5313 Q104.4063,108.6875 104.9688,108.9844 L104.9688,111.7031 Q104.3438,111.125 103.75,110.8594 Q103.1563,110.5781 102.5313,110.5781 Q101.1875,110.5781 100.5,111.6563 Q99.8125,112.7188 99.8125,114.8125 Q99.8125,116.9063 100.5,117.9844 Q101.1875,119.0469 102.5313,119.0469 Q103.1563,119.0469 103.75,118.7813 Q104.3438,118.5 104.9688,117.9219 L104.9688,120.6406 Z " fill="#000000"/><text fill="#000000" font-family="sans-serif" font-size="14" lengthAdjust="spacing" textLength="187" x="116" y="119.8467">TriangulationNode&lt;InOut&gt;</text></g><!--class RelativePositionProcessing<InOut, RelativeAngle>--><g id="elem_RelativePositionProcessing&lt;InOut, RelativeAngle&gt;"><rect codeLine="6" fill="#F1F1F1" height="32" id="RelativePositionProcessing&lt;InOut, RelativeAngle&gt;" rx="2.5" ry="2.5" style="stroke:#181818;stroke-width:0.5;" width="379" x="7" y="7"/><ellipse cx="22" cy="23" fill="#A9DCDF" rx="11" ry="11" style="stroke:#181818;stroke-width:1.0;"/><path d="M22.1094,18.3438 L20.9531,23.4219 L23.2813,23.4219 L22.1094,18.3438 Z M20.625,16.1094 L23.6094,16.1094 L26.9688,28.5 L24.5156,28.5 L23.75,25.4375 L20.4688,25.4375 L19.7188,28.5 L17.2813,28.5 L20.625,16.1094 Z " fill="#000000"/><text fill="#000000" font-family="sans-serif" font-size="14" font-style="italic" lengthAdjust="spacing" textLength="347" x="36" y="27.8467">RelativePositionProcessing&lt;InOut, RelativeAngle&gt;</text></g><!--reverse link RelativePositionProcessing<InOut, RelativeAngle> to TriangulationNode<InOut>--><g id="link_RelativePositionProcessing&lt;InOut, RelativeAngle&gt;_TriangulationNode&lt;InOut&gt;"><path codeLine="8" d="M196.5,59.61 C196.5,73.31 196.5,88.22 196.5,98.96 " fill="none" id="RelativePositionProcessing&lt;InOut, RelativeAngle&gt;-backto-TriangulationNode&lt;InOut&gt;" style="stroke:#181818;stroke-width:1.0;"/><polygon fill="none" points="189.5,59.27,196.5,39.27,203.5,59.27,189.5,59.27" style="stroke:#181818;stroke-width:1.0;"/></g><!--SRC=[dOv12i9034NtFKLmRMzG17NbHejuWJWJfw7Jf4ocWgXtjyKAhbou_V-zpxUMfSU47MpGjI7f87whKHFaX69ZHPABXZq1TNs-GKUvKM_VqOKfZecBQ0QBKsAKC4JChB9NJzLE3aDUBU1UF0iyspZiCipqaIRmIhKQJqATr94PItXhI_WGQmcHvfK_jEfHbZ_ElG00]--></g></svg>