<?xml version="1.0" encoding="UTF-8" standalone="no"?><svg xmlns="http://www.w3.org/2000/svg" xmlns:xlink="http://www.w3.org/1999/xlink" contentScriptType="application/ecmascript" contentStyleType="text/css" height="145px" preserveAspectRatio="none" style="width:361px;height:145px;background:#00000000;" version="1.1" viewBox="0 0 361 145" width="361px" zoomAndPan="magnify"><defs><filter height="300%" id="fjwp014sbt34y" width="300%" x="-1" y="-1"><feGaussianBlur result="blurOut" stdDeviation="2.0"/><feColorMatrix in="blurOut" result="blurOut2" type="matrix" values="0 0 0 0 0 0 0 0 0 0 0 0 0 0 0 0 0 0 .4 0"/><feOffset dx="4.0" dy="4.0" in="blurOut2" result="blurOut3"/><feBlend in="SourceGraphic" in2="blurOut3" mode="normal"/></filter></defs><g><!--MD5=[6b2eaa6776b773f83c782814e1d0e6e8]
class TriangulationNode<InOut>--><rect codeLine="4" fill="#FEFECE" filter="url(#fjwp014sbt34y)" height="32" id="TriangulationNode&lt;InOut&gt;" style="stroke:#A80036;stroke-width:1.5;" width="200" x="77" y="99"/><ellipse cx="92" cy="115" fill="#ADD1B2" rx="11" ry="11" style="stroke:#A80036;stroke-width:1.0;"/><path d="M94.9688,120.6406 Q94.3906,120.9375 93.75,121.0781 Q93.1094,121.2344 92.4063,121.2344 Q89.9063,121.2344 88.5781,119.5938 Q87.2656,117.9375 87.2656,114.8125 Q87.2656,111.6875 88.5781,110.0313 Q89.9063,108.375 92.4063,108.375 Q93.1094,108.375 93.75,108.5313 Q94.4063,108.6875 94.9688,108.9844 L94.9688,111.7031 Q94.3438,111.125 93.75,110.8594 Q93.1563,110.5781 92.5313,110.5781 Q91.1875,110.5781 90.5,111.6563 Q89.8125,112.7188 89.8125,114.8125 Q89.8125,116.9063 90.5,117.9844 Q91.1875,119.0469 92.5313,119.0469 Q93.1563,119.0469 93.75,118.7813 Q94.3438,118.5 94.9688,117.9219 L94.9688,120.6406 Z " fill="#000000"/><text fill="#000000" font-family="sans-serif" font-size="12" lengthAdjust="spacing" textLength="168" x="106" y="119.1543">TriangulationNode&lt;InOut&gt;</text><!--MD5=[1fc62a42bbce5d4e4c3b79d6778b0bad]
class RelativePositionProcessing<InOut, RelativeAngle>--><rect codeLine="6" fill="#FEFECE" filter="url(#fjwp014sbt34y)" height="32" id="RelativePositionProcessing&lt;InOut, RelativeAngle&gt;" style="stroke:#A80036;stroke-width:1.5;" width="340" x="7" y="7"/><ellipse cx="22" cy="23" fill="#A9DCDF" rx="11" ry="11" style="stroke:#A80036;stroke-width:1.0;"/><path d="M22.1094,18.3438 L20.9531,23.4219 L23.2813,23.4219 L22.1094,18.3438 Z M20.625,16.1094 L23.6094,16.1094 L26.9688,28.5 L24.5156,28.5 L23.75,25.4375 L20.4688,25.4375 L19.7188,28.5 L17.2813,28.5 L20.625,16.1094 Z " fill="#000000"/><text fill="#000000" font-family="sans-serif" font-size="12" font-style="italic" lengthAdjust="spacing" textLength="308" x="36" y="27.1543">RelativePositionProcessing&lt;InOut, RelativeAngle&gt;</text><!--MD5=[43afd44b081fe788467879196b8b3b69]
reverse link RelativePositionProcessing<InOut, RelativeAngle> to TriangulationNode<InOut>--><path codeLine="8" d="M177,59.61 C177,73.31 177,88.22 177,98.96 " fill="none" id="RelativePositionProcessing&lt;InOut, RelativeAngle&gt;-backto-TriangulationNode&lt;InOut&gt;" style="stroke:#A80036;stroke-width:1.0;"/><polygon fill="none" points="170,59.27,177,39.27,184,59.27,170,59.27" style="stroke:#A80036;stroke-width:1.0;"/><!--MD5=[c4729dfb6bd37e8bf74b9fcd113b61e7]
@startuml
skinparam BackgroundColor transparent
hide empty methods
hide empty fields
class "TriangulationNode<InOut>" {
}
abstract class "RelativePositionProcessing<InOut, RelativeAngle>" {
}
"RelativePositionProcessing<InOut, RelativeAngle>" <|- - "TriangulationNode<InOut>"
@enduml

PlantUML version 1.2021.14(Fri Nov 12 16:46:50 UTC 2021)
(GPL source distribution)
Java Runtime: OpenJDK Runtime Environment
JVM: OpenJDK 64-Bit Server VM
Default Encoding: UTF-8
Language: en
Country: null
--></g></svg>