<?xml version="1.0" encoding="us-ascii" standalone="no"?><svg xmlns="http://www.w3.org/2000/svg" xmlns:xlink="http://www.w3.org/1999/xlink" contentStyleType="text/css" height="138px" preserveAspectRatio="none" style="width:265px;height:138px;" version="1.1" viewBox="0 0 265 138" width="265px" zoomAndPan="magnify"><defs/><g><!--class UnitConversionNode<InOut>--><g id="elem_UnitConversionNode&lt;InOut&gt;"><rect codeLine="4" fill="#F1F1F1" height="32" id="UnitConversionNode&lt;InOut&gt;" rx="2.5" ry="2.5" style="stroke:#181818;stroke-width:0.5;" width="235" x="15" y="99"/><ellipse cx="30" cy="115" fill="#ADD1B2" rx="11" ry="11" style="stroke:#181818;stroke-width:1.0;"/><path d="M32.9688,120.6406 Q32.3906,120.9375 31.75,121.0781 Q31.1094,121.2344 30.4063,121.2344 Q27.9063,121.2344 26.5781,119.5938 Q25.2656,117.9375 25.2656,114.8125 Q25.2656,111.6875 26.5781,110.0313 Q27.9063,108.375 30.4063,108.375 Q31.1094,108.375 31.75,108.5313 Q32.4063,108.6875 32.9688,108.9844 L32.9688,111.7031 Q32.3438,111.125 31.75,110.8594 Q31.1563,110.5781 30.5313,110.5781 Q29.1875,110.5781 28.5,111.6563 Q27.8125,112.7188 27.8125,114.8125 Q27.8125,116.9063 28.5,117.9844 Q29.1875,119.0469 30.5313,119.0469 Q31.1563,119.0469 31.75,118.7813 Q32.3438,118.5 32.9688,117.9219 L32.9688,120.6406 Z " fill="#000000"/><text fill="#000000" font-family="sans-serif" font-size="14" lengthAdjust="spacing" textLength="203" x="44" y="119.8467">UnitConversionNode&lt;InOut&gt;</text></g><!--class ObjectProcessingNode<InOut>--><g id="elem_ObjectProcessingNode&lt;InOut&gt;"><rect codeLine="6" fill="#F1F1F1" height="32" id="ObjectProcessingNode&lt;InOut&gt;" rx="2.5" ry="2.5" style="stroke:#181818;stroke-width:0.5;" width="251" x="7" y="7"/><ellipse cx="22" cy="23" fill="#A9DCDF" rx="11" ry="11" style="stroke:#181818;stroke-width:1.0;"/><path d="M22.1094,18.3438 L20.9531,23.4219 L23.2813,23.4219 L22.1094,18.3438 Z M20.625,16.1094 L23.6094,16.1094 L26.9688,28.5 L24.5156,28.5 L23.75,25.4375 L20.4688,25.4375 L19.7188,28.5 L17.2813,28.5 L20.625,16.1094 Z " fill="#000000"/><text fill="#000000" font-family="sans-serif" font-size="14" font-style="italic" lengthAdjust="spacing" textLength="219" x="36" y="27.8467">ObjectProcessingNode&lt;InOut&gt;</text></g><!--reverse link ObjectProcessingNode<InOut> to UnitConversionNode<InOut>--><g id="link_ObjectProcessingNode&lt;InOut&gt;_UnitConversionNode&lt;InOut&gt;"><path codeLine="8" d="M132.5,59.61 C132.5,73.31 132.5,88.22 132.5,98.96 " fill="none" id="ObjectProcessingNode&lt;InOut&gt;-backto-UnitConversionNode&lt;InOut&gt;" style="stroke:#181818;stroke-width:1.0;"/><polygon fill="none" points="125.5,59.27,132.5,39.27,139.5,59.27,125.5,59.27" style="stroke:#181818;stroke-width:1.0;"/></g><!--SRC=[VOqn3i8m34NtdCBgtXjK37HYeImSm4rC6vhOLUnMGi3TwS20XDJr_VV_rodoZ0Kp7D5FGv65Goj92bX1rYqYDZV6G41vjWTaib62_g9RfBGHdr0LgYj7QuLNAXg5pnAeEN6tsA62ftixx7LRzWPVlUllvErIn9DgvE6li6yqhxhU-_m0]--></g></svg>