<?xml version="1.0" encoding="UTF-8" standalone="no"?><svg xmlns="http://www.w3.org/2000/svg" xmlns:xlink="http://www.w3.org/1999/xlink" contentScriptType="application/ecmascript" contentStyleType="text/css" height="145px" preserveAspectRatio="none" style="width:244px;height:145px;background:#00000000;" version="1.1" viewBox="0 0 244 145" width="244px" zoomAndPan="magnify"><defs><filter height="300%" id="f9fqtooei5api" width="300%" x="-1" y="-1"><feGaussianBlur result="blurOut" stdDeviation="2.0"/><feColorMatrix in="blurOut" result="blurOut2" type="matrix" values="0 0 0 0 0 0 0 0 0 0 0 0 0 0 0 0 0 0 .4 0"/><feOffset dx="4.0" dy="4.0" in="blurOut2" result="blurOut3"/><feBlend in="SourceGraphic" in2="blurOut3" mode="normal"/></filter></defs><g><!--MD5=[140a748fa744c0524d4307e8be958edd]
class UnitConversionNode<InOut>--><rect codeLine="4" fill="#FEFECE" filter="url(#f9fqtooei5api)" height="32" id="UnitConversionNode&lt;InOut&gt;" style="stroke:#A80036;stroke-width:1.5;" width="212" x="12.5" y="99"/><ellipse cx="27.5" cy="115" fill="#ADD1B2" rx="11" ry="11" style="stroke:#A80036;stroke-width:1.0;"/><path d="M30.4688,120.6406 Q29.8906,120.9375 29.25,121.0781 Q28.6094,121.2344 27.9063,121.2344 Q25.4063,121.2344 24.0781,119.5938 Q22.7656,117.9375 22.7656,114.8125 Q22.7656,111.6875 24.0781,110.0313 Q25.4063,108.375 27.9063,108.375 Q28.6094,108.375 29.25,108.5313 Q29.9063,108.6875 30.4688,108.9844 L30.4688,111.7031 Q29.8438,111.125 29.25,110.8594 Q28.6563,110.5781 28.0313,110.5781 Q26.6875,110.5781 26,111.6563 Q25.3125,112.7188 25.3125,114.8125 Q25.3125,116.9063 26,117.9844 Q26.6875,119.0469 28.0313,119.0469 Q28.6563,119.0469 29.25,118.7813 Q29.8438,118.5 30.4688,117.9219 L30.4688,120.6406 Z " fill="#000000"/><text fill="#000000" font-family="sans-serif" font-size="12" lengthAdjust="spacing" textLength="180" x="41.5" y="119.1543">UnitConversionNode&lt;InOut&gt;</text><!--MD5=[9ac6b26c9c0951042fc71ef94bb46580]
class ObjectProcessingNode<InOut>--><rect codeLine="6" fill="#FEFECE" filter="url(#f9fqtooei5api)" height="32" id="ObjectProcessingNode&lt;InOut&gt;" style="stroke:#A80036;stroke-width:1.5;" width="223" x="7" y="7"/><ellipse cx="22" cy="23" fill="#A9DCDF" rx="11" ry="11" style="stroke:#A80036;stroke-width:1.0;"/><path d="M22.1094,18.3438 L20.9531,23.4219 L23.2813,23.4219 L22.1094,18.3438 Z M20.625,16.1094 L23.6094,16.1094 L26.9688,28.5 L24.5156,28.5 L23.75,25.4375 L20.4688,25.4375 L19.7188,28.5 L17.2813,28.5 L20.625,16.1094 Z " fill="#000000"/><text fill="#000000" font-family="sans-serif" font-size="12" font-style="italic" lengthAdjust="spacing" textLength="191" x="36" y="27.1543">ObjectProcessingNode&lt;InOut&gt;</text><!--MD5=[2b06040b95469858fef9fbad2b9e9a0c]
reverse link ObjectProcessingNode<InOut> to UnitConversionNode<InOut>--><path codeLine="8" d="M118.5,59.61 C118.5,73.31 118.5,88.22 118.5,98.96 " fill="none" id="ObjectProcessingNode&lt;InOut&gt;-backto-UnitConversionNode&lt;InOut&gt;" style="stroke:#A80036;stroke-width:1.0;"/><polygon fill="none" points="111.5,59.27,118.5,39.27,125.5,59.27,111.5,59.27" style="stroke:#A80036;stroke-width:1.0;"/><!--MD5=[6b747be7bc84143c2c6587b8384998e8]
@startuml
skinparam BackgroundColor transparent
hide empty methods
hide empty fields
class "UnitConversionNode<InOut>" {
}
abstract class "ObjectProcessingNode<InOut>" {
}
"ObjectProcessingNode<InOut>" <|- - "UnitConversionNode<InOut>"
@enduml

PlantUML version 1.2021.14(Fri Nov 12 16:46:50 UTC 2021)
(GPL source distribution)
Java Runtime: OpenJDK Runtime Environment
JVM: OpenJDK 64-Bit Server VM
Default Encoding: UTF-8
Language: en
Country: null
--></g></svg>