<?xml version="1.0" encoding="UTF-8" standalone="no"?><svg xmlns="http://www.w3.org/2000/svg" xmlns:xlink="http://www.w3.org/1999/xlink" contentScriptType="application/ecmascript" contentStyleType="text/css" height="656px" preserveAspectRatio="none" style="width:315px;height:656px;background:#00000000;" version="1.1" viewBox="0 0 315 656" width="315px" zoomAndPan="magnify"><defs><filter height="300%" id="fifasfb9w31xr" width="300%" x="-1" y="-1"><feGaussianBlur result="blurOut" stdDeviation="2.0"/><feColorMatrix in="blurOut" result="blurOut2" type="matrix" values="0 0 0 0 0 0 0 0 0 0 0 0 0 0 0 0 0 0 .4 0"/><feOffset dx="4.0" dy="4.0" in="blurOut2" result="blurOut3"/><feBlend in="SourceGraphic" in2="blurOut3" mode="normal"/></filter></defs><g><!--MD5=[63a373d2559db13dd8cc7d36e037ebb1]
class Unit--><rect codeLine="5" fill="#FEFECE" filter="url(#fifasfb9w31xr)" height="32" id="Unit" style="stroke:#A80036;stroke-width:1.5;" width="57" x="7" y="309"/><ellipse cx="22" cy="325" fill="#ADD1B2" rx="11" ry="11" style="stroke:#A80036;stroke-width:1.0;"/><path d="M24.9688,330.6406 Q24.3906,330.9375 23.75,331.0781 Q23.1094,331.2344 22.4063,331.2344 Q19.9063,331.2344 18.5781,329.5938 Q17.2656,327.9375 17.2656,324.8125 Q17.2656,321.6875 18.5781,320.0313 Q19.9063,318.375 22.4063,318.375 Q23.1094,318.375 23.75,318.5313 Q24.4063,318.6875 24.9688,318.9844 L24.9688,321.7031 Q24.3438,321.125 23.75,320.8594 Q23.1563,320.5781 22.5313,320.5781 Q21.1875,320.5781 20.5,321.6563 Q19.8125,322.7188 19.8125,324.8125 Q19.8125,326.9063 20.5,327.9844 Q21.1875,329.0469 22.5313,329.0469 Q23.1563,329.0469 23.75,328.7813 Q24.3438,328.5 24.9688,327.9219 L24.9688,330.6406 Z " fill="#000000"/><text fill="#000000" font-family="sans-serif" font-size="12" lengthAdjust="spacing" textLength="25" x="36" y="329.1543">Unit</text><!--MD5=[a6134d6c7811d1be7cf9e5b9a22e1f63]
class DerivedUnit--><rect codeLine="7" fill="#FEFECE" filter="url(#fifasfb9w31xr)" height="32" id="DerivedUnit" style="stroke:#A80036;stroke-width:1.5;" width="104" x="160.5" y="7"/><ellipse cx="175.5" cy="23" fill="#ADD1B2" rx="11" ry="11" style="stroke:#A80036;stroke-width:1.0;"/><path d="M178.4688,28.6406 Q177.8906,28.9375 177.25,29.0781 Q176.6094,29.2344 175.9063,29.2344 Q173.4063,29.2344 172.0781,27.5938 Q170.7656,25.9375 170.7656,22.8125 Q170.7656,19.6875 172.0781,18.0313 Q173.4063,16.375 175.9063,16.375 Q176.6094,16.375 177.25,16.5313 Q177.9063,16.6875 178.4688,16.9844 L178.4688,19.7031 Q177.8438,19.125 177.25,18.8594 Q176.6563,18.5781 176.0313,18.5781 Q174.6875,18.5781 174,19.6563 Q173.3125,20.7188 173.3125,22.8125 Q173.3125,24.9063 174,25.9844 Q174.6875,27.0469 176.0313,27.0469 Q176.6563,27.0469 177.25,26.7813 Q177.8438,26.5 178.4688,25.9219 L178.4688,28.6406 Z " fill="#000000"/><text fill="#000000" font-family="sans-serif" font-size="12" lengthAdjust="spacing" textLength="72" x="189.5" y="27.1543">DerivedUnit</text><!--MD5=[4af3f3e114b6a3cb78eb5b6cd4bb88c9]
class AngleUnit--><rect codeLine="10" fill="#FEFECE" filter="url(#fifasfb9w31xr)" height="32" id="AngleUnit" style="stroke:#A80036;stroke-width:1.5;" width="92" x="166.5" y="74"/><ellipse cx="181.5" cy="90" fill="#ADD1B2" rx="11" ry="11" style="stroke:#A80036;stroke-width:1.0;"/><path d="M184.4688,95.6406 Q183.8906,95.9375 183.25,96.0781 Q182.6094,96.2344 181.9063,96.2344 Q179.4063,96.2344 178.0781,94.5938 Q176.7656,92.9375 176.7656,89.8125 Q176.7656,86.6875 178.0781,85.0313 Q179.4063,83.375 181.9063,83.375 Q182.6094,83.375 183.25,83.5313 Q183.9063,83.6875 184.4688,83.9844 L184.4688,86.7031 Q183.8438,86.125 183.25,85.8594 Q182.6563,85.5781 182.0313,85.5781 Q180.6875,85.5781 180,86.6563 Q179.3125,87.7188 179.3125,89.8125 Q179.3125,91.9063 180,92.9844 Q180.6875,94.0469 182.0313,94.0469 Q182.6563,94.0469 183.25,93.7813 Q183.8438,93.5 184.4688,92.9219 L184.4688,95.6406 Z " fill="#000000"/><text fill="#000000" font-family="sans-serif" font-size="12" lengthAdjust="spacing" textLength="60" x="195.5" y="94.1543">AngleUnit</text><!--MD5=[15b68e006199004da79ea2a4d117d8e9]
class TimeUnit--><rect codeLine="13" fill="#FEFECE" filter="url(#fifasfb9w31xr)" height="32" id="TimeUnit" style="stroke:#A80036;stroke-width:1.5;" width="86" x="169.5" y="141"/><ellipse cx="184.5" cy="157" fill="#ADD1B2" rx="11" ry="11" style="stroke:#A80036;stroke-width:1.0;"/><path d="M187.4688,162.6406 Q186.8906,162.9375 186.25,163.0781 Q185.6094,163.2344 184.9063,163.2344 Q182.4063,163.2344 181.0781,161.5938 Q179.7656,159.9375 179.7656,156.8125 Q179.7656,153.6875 181.0781,152.0313 Q182.4063,150.375 184.9063,150.375 Q185.6094,150.375 186.25,150.5313 Q186.9063,150.6875 187.4688,150.9844 L187.4688,153.7031 Q186.8438,153.125 186.25,152.8594 Q185.6563,152.5781 185.0313,152.5781 Q183.6875,152.5781 183,153.6563 Q182.3125,154.7188 182.3125,156.8125 Q182.3125,158.9063 183,159.9844 Q183.6875,161.0469 185.0313,161.0469 Q185.6563,161.0469 186.25,160.7813 Q186.8438,160.5 187.4688,159.9219 L187.4688,162.6406 Z " fill="#000000"/><text fill="#000000" font-family="sans-serif" font-size="12" lengthAdjust="spacing" textLength="54" x="198.5" y="161.1543">TimeUnit</text><!--MD5=[d2673ecd7c9d4d7253e86462c259fcc3]
class LengthUnit--><rect codeLine="16" fill="#FEFECE" filter="url(#fifasfb9w31xr)" height="32" id="LengthUnit" style="stroke:#A80036;stroke-width:1.5;" width="100" x="162.5" y="208"/><ellipse cx="177.5" cy="224" fill="#ADD1B2" rx="11" ry="11" style="stroke:#A80036;stroke-width:1.0;"/><path d="M180.4688,229.6406 Q179.8906,229.9375 179.25,230.0781 Q178.6094,230.2344 177.9063,230.2344 Q175.4063,230.2344 174.0781,228.5938 Q172.7656,226.9375 172.7656,223.8125 Q172.7656,220.6875 174.0781,219.0313 Q175.4063,217.375 177.9063,217.375 Q178.6094,217.375 179.25,217.5313 Q179.9063,217.6875 180.4688,217.9844 L180.4688,220.7031 Q179.8438,220.125 179.25,219.8594 Q178.6563,219.5781 178.0313,219.5781 Q176.6875,219.5781 176,220.6563 Q175.3125,221.7188 175.3125,223.8125 Q175.3125,225.9063 176,226.9844 Q176.6875,228.0469 178.0313,228.0469 Q178.6563,228.0469 179.25,227.7813 Q179.8438,227.5 180.4688,226.9219 L180.4688,229.6406 Z " fill="#000000"/><text fill="#000000" font-family="sans-serif" font-size="12" lengthAdjust="spacing" textLength="68" x="191.5" y="228.1543">LengthUnit</text><!--MD5=[bab4ee51b4308f50d6627b53e669cb75]
class MagnetismUnit--><rect codeLine="19" fill="#FEFECE" filter="url(#fifasfb9w31xr)" height="32" id="MagnetismUnit" style="stroke:#A80036;stroke-width:1.5;" width="125" x="150" y="275"/><ellipse cx="165" cy="291" fill="#ADD1B2" rx="11" ry="11" style="stroke:#A80036;stroke-width:1.0;"/><path d="M167.9688,296.6406 Q167.3906,296.9375 166.75,297.0781 Q166.1094,297.2344 165.4063,297.2344 Q162.9063,297.2344 161.5781,295.5938 Q160.2656,293.9375 160.2656,290.8125 Q160.2656,287.6875 161.5781,286.0313 Q162.9063,284.375 165.4063,284.375 Q166.1094,284.375 166.75,284.5313 Q167.4063,284.6875 167.9688,284.9844 L167.9688,287.7031 Q167.3438,287.125 166.75,286.8594 Q166.1563,286.5781 165.5313,286.5781 Q164.1875,286.5781 163.5,287.6563 Q162.8125,288.7188 162.8125,290.8125 Q162.8125,292.9063 163.5,293.9844 Q164.1875,295.0469 165.5313,295.0469 Q166.1563,295.0469 166.75,294.7813 Q167.3438,294.5 167.9688,293.9219 L167.9688,296.6406 Z " fill="#000000"/><text fill="#000000" font-family="sans-serif" font-size="12" lengthAdjust="spacing" textLength="93" x="179" y="295.1543">MagnetismUnit</text><!--MD5=[cf5655603ee56cae485aa26967267d7e]
class GCS--><rect codeLine="22" fill="#FEFECE" filter="url(#fifasfb9w31xr)" height="32" id="GCS" style="stroke:#A80036;stroke-width:1.5;" width="57" x="184" y="342"/><ellipse cx="199" cy="358" fill="#ADD1B2" rx="11" ry="11" style="stroke:#A80036;stroke-width:1.0;"/><path d="M201.9688,363.6406 Q201.3906,363.9375 200.75,364.0781 Q200.1094,364.2344 199.4063,364.2344 Q196.9063,364.2344 195.5781,362.5938 Q194.2656,360.9375 194.2656,357.8125 Q194.2656,354.6875 195.5781,353.0313 Q196.9063,351.375 199.4063,351.375 Q200.1094,351.375 200.75,351.5313 Q201.4063,351.6875 201.9688,351.9844 L201.9688,354.7031 Q201.3438,354.125 200.75,353.8594 Q200.1563,353.5781 199.5313,353.5781 Q198.1875,353.5781 197.5,354.6563 Q196.8125,355.7188 196.8125,357.8125 Q196.8125,359.9063 197.5,360.9844 Q198.1875,362.0469 199.5313,362.0469 Q200.1563,362.0469 200.75,361.7813 Q201.3438,361.5 201.9688,360.9219 L201.9688,363.6406 Z " fill="#000000"/><text fill="#000000" font-family="sans-serif" font-size="12" lengthAdjust="spacing" textLength="25" x="213" y="362.1543">GCS</text><!--MD5=[584635d98bbe2ef180ef5f0cedffd1d3]
class TemperatureUnit--><rect codeLine="25" fill="#FEFECE" filter="url(#fifasfb9w31xr)" height="32" id="TemperatureUnit" style="stroke:#A80036;stroke-width:1.5;" width="138" x="143.5" y="409"/><ellipse cx="158.5" cy="425" fill="#ADD1B2" rx="11" ry="11" style="stroke:#A80036;stroke-width:1.0;"/><path d="M161.4688,430.6406 Q160.8906,430.9375 160.25,431.0781 Q159.6094,431.2344 158.9063,431.2344 Q156.4063,431.2344 155.0781,429.5938 Q153.7656,427.9375 153.7656,424.8125 Q153.7656,421.6875 155.0781,420.0313 Q156.4063,418.375 158.9063,418.375 Q159.6094,418.375 160.25,418.5313 Q160.9063,418.6875 161.4688,418.9844 L161.4688,421.7031 Q160.8438,421.125 160.25,420.8594 Q159.6563,420.5781 159.0313,420.5781 Q157.6875,420.5781 157,421.6563 Q156.3125,422.7188 156.3125,424.8125 Q156.3125,426.9063 157,427.9844 Q157.6875,429.0469 159.0313,429.0469 Q159.6563,429.0469 160.25,428.7813 Q160.8438,428.5 161.4688,427.9219 L161.4688,430.6406 Z " fill="#000000"/><text fill="#000000" font-family="sans-serif" font-size="12" lengthAdjust="spacing" textLength="106" x="172.5" y="429.1543">TemperatureUnit</text><!--MD5=[1eaab5e4feb33b99db0080ef39c20fa5]
class LuminanceIntensityUnit--><rect codeLine="28" fill="#FEFECE" filter="url(#fifasfb9w31xr)" height="32" id="LuminanceIntensityUnit" style="stroke:#A80036;stroke-width:1.5;" width="177" x="124" y="476"/><ellipse cx="139" cy="492" fill="#ADD1B2" rx="11" ry="11" style="stroke:#A80036;stroke-width:1.0;"/><path d="M141.9688,497.6406 Q141.3906,497.9375 140.75,498.0781 Q140.1094,498.2344 139.4063,498.2344 Q136.9063,498.2344 135.5781,496.5938 Q134.2656,494.9375 134.2656,491.8125 Q134.2656,488.6875 135.5781,487.0313 Q136.9063,485.375 139.4063,485.375 Q140.1094,485.375 140.75,485.5313 Q141.4063,485.6875 141.9688,485.9844 L141.9688,488.7031 Q141.3438,488.125 140.75,487.8594 Q140.1563,487.5781 139.5313,487.5781 Q138.1875,487.5781 137.5,488.6563 Q136.8125,489.7188 136.8125,491.8125 Q136.8125,493.9063 137.5,494.9844 Q138.1875,496.0469 139.5313,496.0469 Q140.1563,496.0469 140.75,495.7813 Q141.3438,495.5 141.9688,494.9219 L141.9688,497.6406 Z " fill="#000000"/><text fill="#000000" font-family="sans-serif" font-size="12" lengthAdjust="spacing" textLength="145" x="153" y="496.1543">LuminanceIntensityUnit</text><!--MD5=[18e8e937faaa1e872583bf326547b3d5]
class LuminanceUnit--><rect codeLine="31" fill="#FEFECE" filter="url(#fifasfb9w31xr)" height="32" id="LuminanceUnit" style="stroke:#A80036;stroke-width:1.5;" width="124" x="150.5" y="543"/><ellipse cx="165.5" cy="559" fill="#ADD1B2" rx="11" ry="11" style="stroke:#A80036;stroke-width:1.0;"/><path d="M168.4688,564.6406 Q167.8906,564.9375 167.25,565.0781 Q166.6094,565.2344 165.9063,565.2344 Q163.4063,565.2344 162.0781,563.5938 Q160.7656,561.9375 160.7656,558.8125 Q160.7656,555.6875 162.0781,554.0313 Q163.4063,552.375 165.9063,552.375 Q166.6094,552.375 167.25,552.5313 Q167.9063,552.6875 168.4688,552.9844 L168.4688,555.7031 Q167.8438,555.125 167.25,554.8594 Q166.6563,554.5781 166.0313,554.5781 Q164.6875,554.5781 164,555.6563 Q163.3125,556.7188 163.3125,558.8125 Q163.3125,560.9063 164,561.9844 Q164.6875,563.0469 166.0313,563.0469 Q166.6563,563.0469 167.25,562.7813 Q167.8438,562.5 168.4688,561.9219 L168.4688,564.6406 Z " fill="#000000"/><text fill="#000000" font-family="sans-serif" font-size="12" lengthAdjust="spacing" textLength="92" x="179.5" y="563.1543">LuminanceUnit</text><!--MD5=[92586cbad516e4d12f32759116b8e97b]
class PressureUnit--><rect codeLine="34" fill="#FEFECE" filter="url(#fifasfb9w31xr)" height="32" id="PressureUnit" style="stroke:#A80036;stroke-width:1.5;" width="113" x="156" y="610"/><ellipse cx="171" cy="626" fill="#ADD1B2" rx="11" ry="11" style="stroke:#A80036;stroke-width:1.0;"/><path d="M173.9688,631.6406 Q173.3906,631.9375 172.75,632.0781 Q172.1094,632.2344 171.4063,632.2344 Q168.9063,632.2344 167.5781,630.5938 Q166.2656,628.9375 166.2656,625.8125 Q166.2656,622.6875 167.5781,621.0313 Q168.9063,619.375 171.4063,619.375 Q172.1094,619.375 172.75,619.5313 Q173.4063,619.6875 173.9688,619.9844 L173.9688,622.7031 Q173.3438,622.125 172.75,621.8594 Q172.1563,621.5781 171.5313,621.5781 Q170.1875,621.5781 169.5,622.6563 Q168.8125,623.7188 168.8125,625.8125 Q168.8125,627.9063 169.5,628.9844 Q170.1875,630.0469 171.5313,630.0469 Q172.1563,630.0469 172.75,629.7813 Q173.3438,629.5 173.9688,628.9219 L173.9688,631.6406 Z " fill="#000000"/><text fill="#000000" font-family="sans-serif" font-size="12" lengthAdjust="spacing" textLength="81" x="185" y="630.1543">PressureUnit</text><!--MD5=[7d8b51b3e0e6b7a9007e79872f9f6dfc]
reverse link Unit to DerivedUnit--><path codeLine="9" d="M38.55,288.76 C43.67,231.88 61.55,121.4 124,56 C133.75,45.78 146.98,38.7 160.2,33.8 " fill="none" id="Unit-backto-DerivedUnit" style="stroke:#A80036;stroke-width:1.0;"/><polygon fill="none" points="45.51,289.53,37.08,308.96,31.55,288.51,45.51,289.53" style="stroke:#A80036;stroke-width:1.0;"/><!--MD5=[f353c4749e20876231e075846a860568]
reverse link Unit to AngleUnit--><path codeLine="12" d="M43.07,289.3 C53.06,244.66 76.19,168.56 124,123 C135.64,111.91 151.36,104.46 166.27,99.5 " fill="none" id="Unit-backto-AngleUnit" style="stroke:#A80036;stroke-width:1.0;"/><polygon fill="none" points="49.92,290.73,39.08,308.94,36.2,287.94,49.92,290.73" style="stroke:#A80036;stroke-width:1.0;"/><!--MD5=[a7015d4c6d96ba8ef36fe92e2d7528cf]
reverse link Unit to TimeUnit--><path codeLine="15" d="M51.28,290.38 C65.79,260.11 90.6,216.91 124,190 C137.15,179.41 154.05,171.97 169.5,166.88 " fill="none" id="Unit-backto-TimeUnit" style="stroke:#A80036;stroke-width:1.0;"/><polygon fill="none" points="57.52,293.57,42.9,308.9,44.76,287.8,57.52,293.57" style="stroke:#A80036;stroke-width:1.0;"/><!--MD5=[2cd6138735d1eeb78e02d1b256b21f8d]
reverse link Unit to LengthUnit--><path codeLine="18" d="M69.2,295.78 C84.98,282.71 104.65,267.84 124,257 C135.9,250.33 149.41,244.49 162.19,239.65 " fill="none" id="Unit-backto-LengthUnit" style="stroke:#A80036;stroke-width:1.0;"/><polygon fill="none" points="73.55,301.27,53.81,308.98,64.44,290.65,73.55,301.27" style="stroke:#A80036;stroke-width:1.0;"/><!--MD5=[76d35e05745acf0511c35c0bcd37ccaa]
reverse link Unit to MagnetismUnit--><path codeLine="21" d="M84.13,315.75 C104.38,311.81 128.25,307.17 149.82,302.98 " fill="none" id="Unit-backto-MagnetismUnit" style="stroke:#A80036;stroke-width:1.0;"/><polygon fill="none" points="85.2,322.67,64.23,319.61,82.53,308.93,85.2,322.67" style="stroke:#A80036;stroke-width:1.0;"/><!--MD5=[97508b6a74223925c32d35df63bf7ecb]
reverse link Unit to GCS--><path codeLine="24" d="M84.18,333.99 C116.17,340.02 157.19,347.76 183.9,352.8 " fill="none" id="Unit-backto-GCS" style="stroke:#A80036;stroke-width:1.0;"/><polygon fill="none" points="82.59,340.81,64.23,330.23,85.18,327.06,82.59,340.81" style="stroke:#A80036;stroke-width:1.0;"/><!--MD5=[ac5cdbbae2723cf0925ede9460914c70]
reverse link Unit to TemperatureUnit--><path codeLine="27" d="M70.23,353.9 C85.89,366.39 105.18,380.51 124,391 C136.24,397.82 150.13,403.9 163.19,408.96 " fill="none" id="Unit-backto-TemperatureUnit" style="stroke:#A80036;stroke-width:1.0;"/><polygon fill="none" points="65.57,359.13,54.58,341.01,74.47,348.32,65.57,359.13" style="stroke:#A80036;stroke-width:1.0;"/><!--MD5=[679b27b3dc7a936d44b729a13b284c2c]
reverse link Unit to LuminanceIntensityUnit--><path codeLine="30" d="M51.7,359.5 C66.36,389.24 91.17,431.46 124,458 C133.13,465.38 144.04,471.29 155.01,475.99 " fill="none" id="Unit-backto-LuminanceIntensityUnit" style="stroke:#A80036;stroke-width:1.0;"/><polygon fill="none" points="45.29,362.34,43.19,341.25,57.98,356.42,45.29,362.34" style="stroke:#A80036;stroke-width:1.0;"/><!--MD5=[bcf3555b25512da9e0b6c80ae2df972b]
reverse link Unit to LuminanceUnit--><path codeLine="33" d="M43.39,360.91 C53.63,405.12 76.96,479.88 124,525 C131.76,532.45 141.34,538.31 151.28,542.92 " fill="none" id="Unit-backto-LuminanceUnit" style="stroke:#A80036;stroke-width:1.0;"/><polygon fill="none" points="36.5,362.16,39.21,341.15,50.2,359.27,36.5,362.16" style="stroke:#A80036;stroke-width:1.0;"/><!--MD5=[d1441d7513cd8b6427927f282019b889]
reverse link Unit to PressureUnit--><path codeLine="36" d="M38.75,361.3 C44.13,417.78 62.37,526.95 124,592 C132.63,601.11 143.99,607.82 155.65,612.74 " fill="none" id="Unit-backto-PressureUnit" style="stroke:#A80036;stroke-width:1.0;"/><polygon fill="none" points="31.76,361.7,37.17,341.21,45.72,360.6,31.76,361.7" style="stroke:#A80036;stroke-width:1.0;"/><!--MD5=[3971c9779cb482a37756e59ea0eef4bb]
@startuml
skinparam BackgroundColor transparent
left to right direction
hide empty methods
hide empty fields
class "Unit" {
}
class "DerivedUnit" {
}
"Unit" <|- - "DerivedUnit"
class "AngleUnit" {
}
"Unit" <|- - "AngleUnit"
class "TimeUnit" {
}
"Unit" <|- - "TimeUnit"
class "LengthUnit" {
}
"Unit" <|- - "LengthUnit"
class "MagnetismUnit" {
}
"Unit" <|- - "MagnetismUnit"
class "GCS" {
}
"Unit" <|- - "GCS"
class "TemperatureUnit" {
}
"Unit" <|- - "TemperatureUnit"
class "LuminanceIntensityUnit" {
}
"Unit" <|- - "LuminanceIntensityUnit"
class "LuminanceUnit" {
}
"Unit" <|- - "LuminanceUnit"
class "PressureUnit" {
}
"Unit" <|- - "PressureUnit"
@enduml

PlantUML version 1.2021.14(Fri Nov 12 16:46:50 UTC 2021)
(GPL source distribution)
Java Runtime: OpenJDK Runtime Environment
JVM: OpenJDK 64-Bit Server VM
Default Encoding: UTF-8
Language: en
Country: null
--></g></svg>