<?xml version="1.0" encoding="us-ascii" standalone="no"?><svg xmlns="http://www.w3.org/2000/svg" xmlns:xlink="http://www.w3.org/1999/xlink" contentStyleType="text/css" height="649px" preserveAspectRatio="none" style="width:325px;height:649px;" version="1.1" viewBox="0 0 325 649" width="325px" zoomAndPan="magnify"><defs/><g><!--class Unit--><g id="elem_Unit"><rect codeLine="5" fill="#F1F1F1" height="32" id="Unit" rx="2.5" ry="2.5" style="stroke:#181818;stroke-width:0.5;" width="59" x="7" y="309"/><ellipse cx="22" cy="325" fill="#ADD1B2" rx="11" ry="11" style="stroke:#181818;stroke-width:1.0;"/><path d="M24.9688,330.6406 Q24.3906,330.9375 23.75,331.0781 Q23.1094,331.2344 22.4063,331.2344 Q19.9063,331.2344 18.5781,329.5938 Q17.2656,327.9375 17.2656,324.8125 Q17.2656,321.6875 18.5781,320.0313 Q19.9063,318.375 22.4063,318.375 Q23.1094,318.375 23.75,318.5313 Q24.4063,318.6875 24.9688,318.9844 L24.9688,321.7031 Q24.3438,321.125 23.75,320.8594 Q23.1563,320.5781 22.5313,320.5781 Q21.1875,320.5781 20.5,321.6563 Q19.8125,322.7188 19.8125,324.8125 Q19.8125,326.9063 20.5,327.9844 Q21.1875,329.0469 22.5313,329.0469 Q23.1563,329.0469 23.75,328.7813 Q24.3438,328.5 24.9688,327.9219 L24.9688,330.6406 Z " fill="#000000"/><text fill="#000000" font-family="sans-serif" font-size="14" lengthAdjust="spacing" textLength="27" x="36" y="329.8467">Unit</text></g><!--class DerivedUnit--><g id="elem_DerivedUnit"><rect codeLine="7" fill="#F1F1F1" height="32" id="DerivedUnit" rx="2.5" ry="2.5" style="stroke:#181818;stroke-width:0.5;" width="112" x="166" y="7"/><ellipse cx="181" cy="23" fill="#ADD1B2" rx="11" ry="11" style="stroke:#181818;stroke-width:1.0;"/><path d="M183.9688,28.6406 Q183.3906,28.9375 182.75,29.0781 Q182.1094,29.2344 181.4063,29.2344 Q178.9063,29.2344 177.5781,27.5938 Q176.2656,25.9375 176.2656,22.8125 Q176.2656,19.6875 177.5781,18.0313 Q178.9063,16.375 181.4063,16.375 Q182.1094,16.375 182.75,16.5313 Q183.4063,16.6875 183.9688,16.9844 L183.9688,19.7031 Q183.3438,19.125 182.75,18.8594 Q182.1563,18.5781 181.5313,18.5781 Q180.1875,18.5781 179.5,19.6563 Q178.8125,20.7188 178.8125,22.8125 Q178.8125,24.9063 179.5,25.9844 Q180.1875,27.0469 181.5313,27.0469 Q182.1563,27.0469 182.75,26.7813 Q183.3438,26.5 183.9688,25.9219 L183.9688,28.6406 Z " fill="#000000"/><text fill="#000000" font-family="sans-serif" font-size="14" lengthAdjust="spacing" textLength="80" x="195" y="27.8467">DerivedUnit</text></g><!--class AngleUnit--><g id="elem_AngleUnit"><rect codeLine="10" fill="#F1F1F1" height="32" id="AngleUnit" rx="2.5" ry="2.5" style="stroke:#181818;stroke-width:0.5;" width="98" x="173" y="74"/><ellipse cx="188" cy="90" fill="#ADD1B2" rx="11" ry="11" style="stroke:#181818;stroke-width:1.0;"/><path d="M190.9688,95.6406 Q190.3906,95.9375 189.75,96.0781 Q189.1094,96.2344 188.4063,96.2344 Q185.9063,96.2344 184.5781,94.5938 Q183.2656,92.9375 183.2656,89.8125 Q183.2656,86.6875 184.5781,85.0313 Q185.9063,83.375 188.4063,83.375 Q189.1094,83.375 189.75,83.5313 Q190.4063,83.6875 190.9688,83.9844 L190.9688,86.7031 Q190.3438,86.125 189.75,85.8594 Q189.1563,85.5781 188.5313,85.5781 Q187.1875,85.5781 186.5,86.6563 Q185.8125,87.7188 185.8125,89.8125 Q185.8125,91.9063 186.5,92.9844 Q187.1875,94.0469 188.5313,94.0469 Q189.1563,94.0469 189.75,93.7813 Q190.3438,93.5 190.9688,92.9219 L190.9688,95.6406 Z " fill="#000000"/><text fill="#000000" font-family="sans-serif" font-size="14" lengthAdjust="spacing" textLength="66" x="202" y="94.8467">AngleUnit</text></g><!--class TimeUnit--><g id="elem_TimeUnit"><rect codeLine="13" fill="#F1F1F1" height="32" id="TimeUnit" rx="2.5" ry="2.5" style="stroke:#181818;stroke-width:0.5;" width="93" x="175.5" y="141"/><ellipse cx="190.5" cy="157" fill="#ADD1B2" rx="11" ry="11" style="stroke:#181818;stroke-width:1.0;"/><path d="M193.4688,162.6406 Q192.8906,162.9375 192.25,163.0781 Q191.6094,163.2344 190.9063,163.2344 Q188.4063,163.2344 187.0781,161.5938 Q185.7656,159.9375 185.7656,156.8125 Q185.7656,153.6875 187.0781,152.0313 Q188.4063,150.375 190.9063,150.375 Q191.6094,150.375 192.25,150.5313 Q192.9063,150.6875 193.4688,150.9844 L193.4688,153.7031 Q192.8438,153.125 192.25,152.8594 Q191.6563,152.5781 191.0313,152.5781 Q189.6875,152.5781 189,153.6563 Q188.3125,154.7188 188.3125,156.8125 Q188.3125,158.9063 189,159.9844 Q189.6875,161.0469 191.0313,161.0469 Q191.6563,161.0469 192.25,160.7813 Q192.8438,160.5 193.4688,159.9219 L193.4688,162.6406 Z " fill="#000000"/><text fill="#000000" font-family="sans-serif" font-size="14" lengthAdjust="spacing" textLength="61" x="204.5" y="161.8467">TimeUnit</text></g><!--class LengthUnit--><g id="elem_LengthUnit"><rect codeLine="16" fill="#F1F1F1" height="32" id="LengthUnit" rx="2.5" ry="2.5" style="stroke:#181818;stroke-width:0.5;" width="107" x="168.5" y="208"/><ellipse cx="183.5" cy="224" fill="#ADD1B2" rx="11" ry="11" style="stroke:#181818;stroke-width:1.0;"/><path d="M186.4688,229.6406 Q185.8906,229.9375 185.25,230.0781 Q184.6094,230.2344 183.9063,230.2344 Q181.4063,230.2344 180.0781,228.5938 Q178.7656,226.9375 178.7656,223.8125 Q178.7656,220.6875 180.0781,219.0313 Q181.4063,217.375 183.9063,217.375 Q184.6094,217.375 185.25,217.5313 Q185.9063,217.6875 186.4688,217.9844 L186.4688,220.7031 Q185.8438,220.125 185.25,219.8594 Q184.6563,219.5781 184.0313,219.5781 Q182.6875,219.5781 182,220.6563 Q181.3125,221.7188 181.3125,223.8125 Q181.3125,225.9063 182,226.9844 Q182.6875,228.0469 184.0313,228.0469 Q184.6563,228.0469 185.25,227.7813 Q185.8438,227.5 186.4688,226.9219 L186.4688,229.6406 Z " fill="#000000"/><text fill="#000000" font-family="sans-serif" font-size="14" lengthAdjust="spacing" textLength="75" x="197.5" y="228.8467">LengthUnit</text></g><!--class MagnetismUnit--><g id="elem_MagnetismUnit"><rect codeLine="19" fill="#F1F1F1" height="32" id="MagnetismUnit" rx="2.5" ry="2.5" style="stroke:#181818;stroke-width:0.5;" width="135" x="154.5" y="275"/><ellipse cx="169.5" cy="291" fill="#ADD1B2" rx="11" ry="11" style="stroke:#181818;stroke-width:1.0;"/><path d="M172.4688,296.6406 Q171.8906,296.9375 171.25,297.0781 Q170.6094,297.2344 169.9063,297.2344 Q167.4063,297.2344 166.0781,295.5938 Q164.7656,293.9375 164.7656,290.8125 Q164.7656,287.6875 166.0781,286.0313 Q167.4063,284.375 169.9063,284.375 Q170.6094,284.375 171.25,284.5313 Q171.9063,284.6875 172.4688,284.9844 L172.4688,287.7031 Q171.8438,287.125 171.25,286.8594 Q170.6563,286.5781 170.0313,286.5781 Q168.6875,286.5781 168,287.6563 Q167.3125,288.7188 167.3125,290.8125 Q167.3125,292.9063 168,293.9844 Q168.6875,295.0469 170.0313,295.0469 Q170.6563,295.0469 171.25,294.7813 Q171.8438,294.5 172.4688,293.9219 L172.4688,296.6406 Z " fill="#000000"/><text fill="#000000" font-family="sans-serif" font-size="14" lengthAdjust="spacing" textLength="103" x="183.5" y="295.8467">MagnetismUnit</text></g><!--class GCS--><g id="elem_GCS"><rect codeLine="22" fill="#F1F1F1" height="32" id="GCS" rx="2.5" ry="2.5" style="stroke:#181818;stroke-width:0.5;" width="62" x="191" y="342"/><ellipse cx="206" cy="358" fill="#ADD1B2" rx="11" ry="11" style="stroke:#181818;stroke-width:1.0;"/><path d="M208.9688,363.6406 Q208.3906,363.9375 207.75,364.0781 Q207.1094,364.2344 206.4063,364.2344 Q203.9063,364.2344 202.5781,362.5938 Q201.2656,360.9375 201.2656,357.8125 Q201.2656,354.6875 202.5781,353.0313 Q203.9063,351.375 206.4063,351.375 Q207.1094,351.375 207.75,351.5313 Q208.4063,351.6875 208.9688,351.9844 L208.9688,354.7031 Q208.3438,354.125 207.75,353.8594 Q207.1563,353.5781 206.5313,353.5781 Q205.1875,353.5781 204.5,354.6563 Q203.8125,355.7188 203.8125,357.8125 Q203.8125,359.9063 204.5,360.9844 Q205.1875,362.0469 206.5313,362.0469 Q207.1563,362.0469 207.75,361.7813 Q208.3438,361.5 208.9688,360.9219 L208.9688,363.6406 Z " fill="#000000"/><text fill="#000000" font-family="sans-serif" font-size="14" lengthAdjust="spacing" textLength="30" x="220" y="362.8467">GCS</text></g><!--class TemperatureUnit--><g id="elem_TemperatureUnit"><rect codeLine="25" fill="#F1F1F1" height="32" id="TemperatureUnit" rx="2.5" ry="2.5" style="stroke:#181818;stroke-width:0.5;" width="149" x="147.5" y="409"/><ellipse cx="162.5" cy="425" fill="#ADD1B2" rx="11" ry="11" style="stroke:#181818;stroke-width:1.0;"/><path d="M165.4688,430.6406 Q164.8906,430.9375 164.25,431.0781 Q163.6094,431.2344 162.9063,431.2344 Q160.4063,431.2344 159.0781,429.5938 Q157.7656,427.9375 157.7656,424.8125 Q157.7656,421.6875 159.0781,420.0313 Q160.4063,418.375 162.9063,418.375 Q163.6094,418.375 164.25,418.5313 Q164.9063,418.6875 165.4688,418.9844 L165.4688,421.7031 Q164.8438,421.125 164.25,420.8594 Q163.6563,420.5781 163.0313,420.5781 Q161.6875,420.5781 161,421.6563 Q160.3125,422.7188 160.3125,424.8125 Q160.3125,426.9063 161,427.9844 Q161.6875,429.0469 163.0313,429.0469 Q163.6563,429.0469 164.25,428.7813 Q164.8438,428.5 165.4688,427.9219 L165.4688,430.6406 Z " fill="#000000"/><text fill="#000000" font-family="sans-serif" font-size="14" lengthAdjust="spacing" textLength="117" x="176.5" y="429.8467">TemperatureUnit</text></g><!--class LuminanceIntensityUnit--><g id="elem_LuminanceIntensityUnit"><rect codeLine="28" fill="#F1F1F1" height="32" id="LuminanceIntensityUnit" rx="2.5" ry="2.5" style="stroke:#181818;stroke-width:0.5;" width="192" x="126" y="476"/><ellipse cx="141" cy="492" fill="#ADD1B2" rx="11" ry="11" style="stroke:#181818;stroke-width:1.0;"/><path d="M143.9688,497.6406 Q143.3906,497.9375 142.75,498.0781 Q142.1094,498.2344 141.4063,498.2344 Q138.9063,498.2344 137.5781,496.5938 Q136.2656,494.9375 136.2656,491.8125 Q136.2656,488.6875 137.5781,487.0313 Q138.9063,485.375 141.4063,485.375 Q142.1094,485.375 142.75,485.5313 Q143.4063,485.6875 143.9688,485.9844 L143.9688,488.7031 Q143.3438,488.125 142.75,487.8594 Q142.1563,487.5781 141.5313,487.5781 Q140.1875,487.5781 139.5,488.6563 Q138.8125,489.7188 138.8125,491.8125 Q138.8125,493.9063 139.5,494.9844 Q140.1875,496.0469 141.5313,496.0469 Q142.1563,496.0469 142.75,495.7813 Q143.3438,495.5 143.9688,494.9219 L143.9688,497.6406 Z " fill="#000000"/><text fill="#000000" font-family="sans-serif" font-size="14" lengthAdjust="spacing" textLength="160" x="155" y="496.8467">LuminanceIntensityUnit</text></g><!--class LuminanceUnit--><g id="elem_LuminanceUnit"><rect codeLine="31" fill="#F1F1F1" height="32" id="LuminanceUnit" rx="2.5" ry="2.5" style="stroke:#181818;stroke-width:0.5;" width="134" x="155" y="543"/><ellipse cx="170" cy="559" fill="#ADD1B2" rx="11" ry="11" style="stroke:#181818;stroke-width:1.0;"/><path d="M172.9688,564.6406 Q172.3906,564.9375 171.75,565.0781 Q171.1094,565.2344 170.4063,565.2344 Q167.9063,565.2344 166.5781,563.5938 Q165.2656,561.9375 165.2656,558.8125 Q165.2656,555.6875 166.5781,554.0313 Q167.9063,552.375 170.4063,552.375 Q171.1094,552.375 171.75,552.5313 Q172.4063,552.6875 172.9688,552.9844 L172.9688,555.7031 Q172.3438,555.125 171.75,554.8594 Q171.1563,554.5781 170.5313,554.5781 Q169.1875,554.5781 168.5,555.6563 Q167.8125,556.7188 167.8125,558.8125 Q167.8125,560.9063 168.5,561.9844 Q169.1875,563.0469 170.5313,563.0469 Q171.1563,563.0469 171.75,562.7813 Q172.3438,562.5 172.9688,561.9219 L172.9688,564.6406 Z " fill="#000000"/><text fill="#000000" font-family="sans-serif" font-size="14" lengthAdjust="spacing" textLength="102" x="184" y="563.8467">LuminanceUnit</text></g><!--class PressureUnit--><g id="elem_PressureUnit"><rect codeLine="34" fill="#F1F1F1" height="32" id="PressureUnit" rx="2.5" ry="2.5" style="stroke:#181818;stroke-width:0.5;" width="121" x="161.5" y="610"/><ellipse cx="176.5" cy="626" fill="#ADD1B2" rx="11" ry="11" style="stroke:#181818;stroke-width:1.0;"/><path d="M179.4688,631.6406 Q178.8906,631.9375 178.25,632.0781 Q177.6094,632.2344 176.9063,632.2344 Q174.4063,632.2344 173.0781,630.5938 Q171.7656,628.9375 171.7656,625.8125 Q171.7656,622.6875 173.0781,621.0313 Q174.4063,619.375 176.9063,619.375 Q177.6094,619.375 178.25,619.5313 Q178.9063,619.6875 179.4688,619.9844 L179.4688,622.7031 Q178.8438,622.125 178.25,621.8594 Q177.6563,621.5781 177.0313,621.5781 Q175.6875,621.5781 175,622.6563 Q174.3125,623.7188 174.3125,625.8125 Q174.3125,627.9063 175,628.9844 Q175.6875,630.0469 177.0313,630.0469 Q177.6563,630.0469 178.25,629.7813 Q178.8438,629.5 179.4688,628.9219 L179.4688,631.6406 Z " fill="#000000"/><text fill="#000000" font-family="sans-serif" font-size="14" lengthAdjust="spacing" textLength="89" x="190.5" y="630.8467">PressureUnit</text></g><!--reverse link Unit to DerivedUnit--><g id="link_Unit_DerivedUnit"><path codeLine="9" d="M39.5,288.56 C44.57,231.4 62.52,120.54 126,56 C136.77,45.05 151.37,37.72 165.88,32.83 " fill="none" id="Unit-backto-DerivedUnit" style="stroke:#181818;stroke-width:1.0;"/><polygon fill="none" points="46.46,289.42,38.05,308.87,32.49,288.42,46.46,289.42" style="stroke:#181818;stroke-width:1.0;"/></g><!--reverse link Unit to AngleUnit--><g id="link_Unit_AngleUnit"><path codeLine="12" d="M44.07,289.09 C54.1,244.23 77.41,167.91 126,123 C138.95,111.03 156.47,103.37 172.94,98.48 " fill="none" id="Unit-backto-AngleUnit" style="stroke:#181818;stroke-width:1.0;"/><polygon fill="none" points="50.9,290.62,40.07,308.84,37.18,287.84,50.9,290.62" style="stroke:#181818;stroke-width:1.0;"/></g><!--reverse link Unit to TimeUnit--><g id="link_Unit_TimeUnit"><path codeLine="15" d="M52.37,290.17 C67,259.76 92.07,216.47 126,190 C140.32,178.83 158.68,171.29 175.44,166.27 " fill="none" id="Unit-backto-TimeUnit" style="stroke:#181818;stroke-width:1.0;"/><polygon fill="none" points="58.56,293.46,43.93,308.79,45.81,287.69,58.56,293.46" style="stroke:#181818;stroke-width:1.0;"/></g><!--reverse link Unit to LengthUnit--><g id="link_Unit_LengthUnit"><path codeLine="18" d="M70.24,295.78 C86.22,282.61 106.23,267.66 126,257 C139.21,249.87 154.27,243.81 168.44,238.9 " fill="none" id="Unit-backto-LengthUnit" style="stroke:#181818;stroke-width:1.0;"/><polygon fill="none" points="74.71,301.17,54.96,308.84,65.62,290.52,74.71,301.17" style="stroke:#181818;stroke-width:1.0;"/></g><!--reverse link Unit to MagnetismUnit--><g id="link_Unit_MagnetismUnit"><path codeLine="21" d="M85.98,316.02 C106.95,312.13 131.84,307.52 154.49,303.32 " fill="none" id="Unit-backto-MagnetismUnit" style="stroke:#181818;stroke-width:1.0;"/><polygon fill="none" points="87.11,322.93,66.17,319.69,84.56,309.16,87.11,322.93" style="stroke:#181818;stroke-width:1.0;"/></g><!--reverse link Unit to GCS--><g id="link_Unit_GCS"><path codeLine="24" d="M86.33,333.78 C119.5,339.75 162.35,347.45 190.7,352.55 " fill="none" id="Unit-backto-GCS" style="stroke:#181818;stroke-width:1.0;"/><polygon fill="none" points="84.62,340.59,66.17,330.16,87.1,326.81,84.62,340.59" style="stroke:#181818;stroke-width:1.0;"/></g><!--reverse link Unit to TemperatureUnit--><g id="link_Unit_TemperatureUnit"><path codeLine="27" d="M71.28,353.92 C87.15,366.5 106.77,380.69 126,391 C138.97,397.95 153.65,404.01 167.53,409 " fill="none" id="Unit-backto-TemperatureUnit" style="stroke:#181818;stroke-width:1.0;"/><polygon fill="none" points="66.75,359.26,55.73,341.16,75.63,348.43,66.75,359.26" style="stroke:#181818;stroke-width:1.0;"/></g><!--reverse link Unit to LuminanceIntensityUnit--><g id="link_Unit_LuminanceIntensityUnit"><path codeLine="30" d="M52.79,359.72 C67.57,389.6 92.63,431.9 126,458 C135.52,465.45 146.81,471.35 158.23,476 " fill="none" id="Unit-backto-LuminanceIntensityUnit" style="stroke:#181818;stroke-width:1.0;"/><polygon fill="none" points="46.34,362.45,44.22,341.37,59.03,356.53,46.34,362.45" style="stroke:#181818;stroke-width:1.0;"/></g><!--reverse link Unit to LuminanceUnit--><g id="link_Unit_LuminanceUnit"><path codeLine="33" d="M44.39,361.12 C54.66,405.55 78.17,480.54 126,525 C134.21,532.63 144.25,538.57 154.7,543.19 " fill="none" id="Unit-backto-LuminanceUnit" style="stroke:#181818;stroke-width:1.0;"/><polygon fill="none" points="37.47,362.26,40.21,341.25,51.17,359.38,37.47,362.26" style="stroke:#181818;stroke-width:1.0;"/></g><!--reverse link Unit to PressureUnit--><g id="link_Unit_PressureUnit"><path codeLine="36" d="M39.69,361.51 C45.03,418.28 63.32,527.82 126,592 C135.67,601.9 148.42,608.93 161.42,613.91 " fill="none" id="Unit-backto-PressureUnit" style="stroke:#181818;stroke-width:1.0;"/><polygon fill="none" points="32.69,361.79,38.14,341.31,46.65,360.72,32.69,361.79" style="stroke:#181818;stroke-width:1.0;"/></g><!--SRC=[XP3HQW8n44NVzoi6t_s3lhGAKb0eL3yWRCRiO3AHcTc2rFvxLsXMjnfylUVSS2Tw83uwSGdUN7i8adlsYnopW8bZ7H2oDH7t1fP1A7G6dWHReynDHnu1qz5EaD2wxFKssXF68McZKuNPZibcyDtyb629Gb_eh_cVydAUpwUqD5uvHApuLrRiBQMQFABYhf63THNx1XP_umAZaQPAPSfBQxNuVE1Uqd7py7CepdgfJlzdZ1VqYTXnY-zio4fsgbtpMBnxvrbzqleGLAsFdk1V]--></g></svg>