<?xml version="1.0" encoding="us-ascii" standalone="no"?><svg xmlns="http://www.w3.org/2000/svg" xmlns:xlink="http://www.w3.org/1999/xlink" contentStyleType="text/css" height="141px" preserveAspectRatio="none" style="width:317px;height:141px;" version="1.1" viewBox="0 0 317 141" width="317px" zoomAndPan="magnify"><defs/><g><!--class Vector3--><g id="elem_Vector3"><rect codeLine="6" fill="#F1F1F1" height="26.2969" id="Vector3" rx="2.5" ry="2.5" style="stroke:#181818;stroke-width:0.5;" width="60" x="110" y="16.38"/><text fill="#000000" font-family="sans-serif" font-size="14" lengthAdjust="spacing" textLength="54" x="113" y="34.3751">Vector3</text></g><!--class AxisAngle--><g id="elem_AxisAngle"><rect codeLine="9" fill="#F1F1F1" height="32" id="AxisAngle" rx="2.5" ry="2.5" style="stroke:#181818;stroke-width:0.5;" width="98" x="7" y="102.38"/><ellipse cx="22" cy="118.38" fill="#ADD1B2" rx="11" ry="11" style="stroke:#181818;stroke-width:1.0;"/><path d="M24.9688,124.0206 Q24.3906,124.3175 23.75,124.4581 Q23.1094,124.6144 22.4063,124.6144 Q19.9063,124.6144 18.5781,122.9738 Q17.2656,121.3175 17.2656,118.1925 Q17.2656,115.0675 18.5781,113.4113 Q19.9063,111.755 22.4063,111.755 Q23.1094,111.755 23.75,111.9113 Q24.4063,112.0675 24.9688,112.3644 L24.9688,115.0831 Q24.3438,114.505 23.75,114.2394 Q23.1563,113.9581 22.5313,113.9581 Q21.1875,113.9581 20.5,115.0363 Q19.8125,116.0988 19.8125,118.1925 Q19.8125,120.2863 20.5,121.3644 Q21.1875,122.4269 22.5313,122.4269 Q23.1563,122.4269 23.75,122.1613 Q24.3438,121.88 24.9688,121.3019 L24.9688,124.0206 Z " fill="#000000"/><text fill="#000000" font-family="sans-serif" font-size="14" lengthAdjust="spacing" textLength="66" x="36" y="123.2267">AxisAngle</text></g><!--class SensorValue<Unit>--><g id="elem_SensorValue&lt;Unit&gt;"><rect codeLine="12" fill="#F1F1F1" height="32" id="SensorValue&lt;Unit&gt;" rx="2.5" ry="2.5" style="stroke:#181818;stroke-width:0.5;" width="170" x="140" y="102.38"/><ellipse cx="155" cy="118.38" fill="#ADD1B2" rx="11" ry="11" style="stroke:#181818;stroke-width:1.0;"/><path d="M157.9688,124.0206 Q157.3906,124.3175 156.75,124.4581 Q156.1094,124.6144 155.4063,124.6144 Q152.9063,124.6144 151.5781,122.9738 Q150.2656,121.3175 150.2656,118.1925 Q150.2656,115.0675 151.5781,113.4113 Q152.9063,111.755 155.4063,111.755 Q156.1094,111.755 156.75,111.9113 Q157.4063,112.0675 157.9688,112.3644 L157.9688,115.0831 Q157.3438,114.505 156.75,114.2394 Q156.1563,113.9581 155.5313,113.9581 Q154.1875,113.9581 153.5,115.0363 Q152.8125,116.0988 152.8125,118.1925 Q152.8125,120.2863 153.5,121.3644 Q154.1875,122.4269 155.5313,122.4269 Q156.1563,122.4269 156.75,122.1613 Q157.3438,121.88 157.9688,121.3019 L157.9688,124.0206 Z " fill="#000000"/><text fill="#000000" font-family="sans-serif" font-size="14" lengthAdjust="spacing" textLength="138" x="169" y="123.2267">SensorValue&lt;Unit&gt;</text></g><!--reverse link Vector3 to Vector3--><g id="link_Vector3_Vector3"><path codeLine="8" d="M181.12,12.88 C194.43,13.02 205,18.52 205,29.38 C205,45.36 182.12,49.74 161.3,42.49 " fill="none" id="Vector3-backto-Vector3" style="stroke:#181818;stroke-width:1.0;"/><polygon fill="none" points="182.2,19.8,161.3,16.27,179.84,6,182.2,19.8" style="stroke:#181818;stroke-width:1.0;"/></g><!--reverse link Vector3 to AxisAngle--><g id="link_Vector3_AxisAngle"><path codeLine="11" d="M114.36,56.94 C100.04,71.76 82.72,89.7 70.69,102.17 " fill="none" id="Vector3-backto-AxisAngle" style="stroke:#181818;stroke-width:1.0;"/><polygon fill="none" points="109.39,52,128.32,42.48,119.46,61.73,109.39,52" style="stroke:#181818;stroke-width:1.0;"/></g><!--reverse link Vector3 to SensorValue<Unit>--><g id="link_Vector3_SensorValue&lt;Unit&gt;"><path codeLine="14" d="M165.95,56.94 C180.43,71.76 197.96,89.7 210.14,102.17 " fill="none" id="Vector3-backto-SensorValue&lt;Unit&gt;" style="stroke:#181818;stroke-width:1.0;"/><polygon fill="none" points="160.79,61.67,151.82,42.48,170.8,51.89,160.79,61.67" style="stroke:#181818;stroke-width:1.0;"/></g><!--SRC=[ROn13e8m44NtdA9XpyejCK6FO6JVj2Cqj3DaPaWmwjqbGLE2Rjz_xyiGSBHiapbPDtHC4_epHMAZR56M2L2BFdWma4QzcmJQavSjkWM82t7HYfYo1QV4Xz8yYjUUhLLMN60NeSYWVbRLHl_apHoamIx2UhhNy_mDBe12tDeuGNt5eCV_uQ_s1W00]--></g></svg>