<?xml version="1.0" encoding="UTF-8" standalone="no"?><svg xmlns="http://www.w3.org/2000/svg" xmlns:xlink="http://www.w3.org/1999/xlink" contentScriptType="application/ecmascript" contentStyleType="text/css" height="147px" preserveAspectRatio="none" style="width:303px;height:147px;background:#00000000;" version="1.1" viewBox="0 0 303 147" width="303px" zoomAndPan="magnify"><defs><filter height="300%" id="fymvj9y44wj5c" width="300%" x="-1" y="-1"><feGaussianBlur result="blurOut" stdDeviation="2.0"/><feColorMatrix in="blurOut" result="blurOut2" type="matrix" values="0 0 0 0 0 0 0 0 0 0 0 0 0 0 0 0 0 0 .4 0"/><feOffset dx="4.0" dy="4.0" in="blurOut2" result="blurOut3"/><feBlend in="SourceGraphic" in2="blurOut3" mode="normal"/></filter></defs><g><!--MD5=[65d619c042c23702cef2ca07d67b1cf6]
class Vector3--><rect codeLine="6" fill="#FEFECE" filter="url(#fymvj9y44wj5c)" height="23.9688" id="Vector3" style="stroke:#A80036;stroke-width:1.5;" width="55" x="104" y="17.23"/><text fill="#000000" font-family="sans-serif" font-size="12" lengthAdjust="spacing" textLength="49" x="107" y="33.3687">Vector3</text><!--MD5=[711dce01fb2039d6d69a4789d3536fbd]
class AxisAngle--><rect codeLine="9" fill="#FEFECE" filter="url(#fymvj9y44wj5c)" height="32" id="AxisAngle" style="stroke:#A80036;stroke-width:1.5;" width="91" x="7" y="101.23"/><ellipse cx="22" cy="117.23" fill="#ADD1B2" rx="11" ry="11" style="stroke:#A80036;stroke-width:1.0;"/><path d="M24.9688,122.8706 Q24.3906,123.1675 23.75,123.3081 Q23.1094,123.4644 22.4063,123.4644 Q19.9063,123.4644 18.5781,121.8238 Q17.2656,120.1675 17.2656,117.0425 Q17.2656,113.9175 18.5781,112.2613 Q19.9063,110.605 22.4063,110.605 Q23.1094,110.605 23.75,110.7613 Q24.4063,110.9175 24.9688,111.2144 L24.9688,113.9331 Q24.3438,113.355 23.75,113.0894 Q23.1563,112.8081 22.5313,112.8081 Q21.1875,112.8081 20.5,113.8863 Q19.8125,114.9488 19.8125,117.0425 Q19.8125,119.1363 20.5,120.2144 Q21.1875,121.2769 22.5313,121.2769 Q23.1563,121.2769 23.75,121.0113 Q24.3438,120.73 24.9688,120.1519 L24.9688,122.8706 Z " fill="#000000"/><text fill="#000000" font-family="sans-serif" font-size="12" lengthAdjust="spacing" textLength="59" x="36" y="121.3843">AxisAngle</text><!--MD5=[c52eebc31f4e4bfeaf6fbeeb01c7dc6a]
class SensorValue<Unit>--><rect codeLine="12" fill="#FEFECE" filter="url(#fymvj9y44wj5c)" height="32" id="SensorValue&lt;Unit&gt;" style="stroke:#A80036;stroke-width:1.5;" width="156" x="133.5" y="101.23"/><ellipse cx="148.5" cy="117.23" fill="#ADD1B2" rx="11" ry="11" style="stroke:#A80036;stroke-width:1.0;"/><path d="M151.4688,122.8706 Q150.8906,123.1675 150.25,123.3081 Q149.6094,123.4644 148.9063,123.4644 Q146.4063,123.4644 145.0781,121.8238 Q143.7656,120.1675 143.7656,117.0425 Q143.7656,113.9175 145.0781,112.2613 Q146.4063,110.605 148.9063,110.605 Q149.6094,110.605 150.25,110.7613 Q150.9063,110.9175 151.4688,111.2144 L151.4688,113.9331 Q150.8438,113.355 150.25,113.0894 Q149.6563,112.8081 149.0313,112.8081 Q147.6875,112.8081 147,113.8863 Q146.3125,114.9488 146.3125,117.0425 Q146.3125,119.1363 147,120.2144 Q147.6875,121.2769 149.0313,121.2769 Q149.6563,121.2769 150.25,121.0113 Q150.8438,120.73 151.4688,120.1519 L151.4688,122.8706 Z " fill="#000000"/><text fill="#000000" font-family="sans-serif" font-size="12" lengthAdjust="spacing" textLength="124" x="162.5" y="121.3843">SensorValue&lt;Unit&gt;</text><!--MD5=[5992ff554b17823bfcfe29740e6d83a9]
reverse link Vector3 to Vector3--><path codeLine="8" d="M169.38,12.75 C182.95,12.4 194,17.9 194,29.23 C194,45.9 170.07,49.94 149.41,41.34 " fill="none" id="Vector3-backto-Vector3" style="stroke:#A80036;stroke-width:1.0;"/><polygon fill="none" points="170.45,19.68,149.41,17.12,167.45,6,170.45,19.68" style="stroke:#A80036;stroke-width:1.0;"/><!--MD5=[e77900dd4bfec049c96cade9812025c0]
reverse link Vector3 to AxisAngle--><path codeLine="11" d="M107.57,56.28 C94.06,70.99 77.66,88.84 66.28,101.23 " fill="none" id="Vector3-backto-AxisAngle" style="stroke:#A80036;stroke-width:1.0;"/><polygon fill="none" points="102.49,51.47,121.17,41.47,112.8,60.94,102.49,51.47" style="stroke:#A80036;stroke-width:1.0;"/><!--MD5=[004a4d8b6611414af497692083c98b32]
reverse link Vector3 to SensorValue<Unit>--><path codeLine="14" d="M155.73,56.28 C169.41,70.99 186.03,88.84 197.54,101.23 " fill="none" id="Vector3-backto-SensorValue&lt;Unit&gt;" style="stroke:#A80036;stroke-width:1.0;"/><polygon fill="none" points="150.46,60.88,141.96,41.47,160.71,51.35,150.46,60.88" style="stroke:#A80036;stroke-width:1.0;"/><!--MD5=[f8842eb38aa7ec9975344ad79914eb41]
@startuml
skinparam BackgroundColor transparent
hide empty methods
hide empty fields
class "Vector3" {
}
class "Vector3"
hide "Vector3" circle
"Vector3" <|- - "Vector3"
class "AxisAngle" {
}
"Vector3" <|- - "AxisAngle"
class "SensorValue<Unit>" {
}
"Vector3" <|- - "SensorValue<Unit>"
@enduml

PlantUML version 1.2021.14(Fri Nov 12 16:46:50 UTC 2021)
(GPL source distribution)
Java Runtime: OpenJDK Runtime Environment
JVM: OpenJDK 64-Bit Server VM
Default Encoding: UTF-8
Language: en
Country: null
--></g></svg>