<?xml version="1.0" encoding="UTF-8" standalone="no"?><svg xmlns="http://www.w3.org/2000/svg" xmlns:xlink="http://www.w3.org/1999/xlink" contentScriptType="application/ecmascript" contentStyleType="text/css" height="403px" preserveAspectRatio="none" style="width:198px;height:403px;background:#00000000;" version="1.1" viewBox="0 0 198 403" width="198px" zoomAndPan="magnify"><defs><filter height="300%" id="f12lrh8v602ybt" width="300%" x="-1" y="-1"><feGaussianBlur result="blurOut" stdDeviation="2.0"/><feColorMatrix in="blurOut" result="blurOut2" type="matrix" values="0 0 0 0 0 0 0 0 0 0 0 0 0 0 0 0 0 0 .4 0"/><feOffset dx="4.0" dy="4.0" in="blurOut2" result="blurOut3"/><feBlend in="SourceGraphic" in2="blurOut3" mode="normal"/></filter></defs><g><!--MD5=[761c7fce61c8151cb3de670b8140fc44]
class WorkerOptions--><rect codeLine="4" fill="#FEFECE" filter="url(#f12lrh8v602ybt)" height="142.4375" id="WorkerOptions" style="stroke:#A80036;stroke-width:1.5;" width="177" x="7" y="7"/><ellipse cx="46.3" cy="23" fill="#B4A7E5" rx="11" ry="11" style="stroke:#A80036;stroke-width:1.0;"/><path d="M42.2219,18.7656 L42.2219,16.6094 L49.6125,16.6094 L49.6125,18.7656 L47.1438,18.7656 L47.1438,26.8438 L49.6125,26.8438 L49.6125,29 L42.2219,29 L42.2219,26.8438 L44.6906,26.8438 L44.6906,18.7656 L42.2219,18.7656 Z " fill="#000000"/><text fill="#000000" font-family="sans-serif" font-size="12" font-style="italic" lengthAdjust="spacing" textLength="91" x="65.7" y="27.1543">WorkerOptions</text><line style="stroke:#A80036;stroke-width:1.5;" x1="8" x2="183" y1="39" y2="39"/><ellipse cx="18" cy="50" rx="3" ry="3" style="stroke:#038048;stroke-width:1.0;fill:none;"/><text fill="#000000" font-family="sans-serif" font-size="11" lengthAdjust="spacing" textLength="58" x="27" y="53.2104">args : any</text><ellipse cx="18" cy="62.8047" rx="3" ry="3" style="stroke:#038048;stroke-width:1.0;fill:none;"/><text fill="#000000" font-family="sans-serif" font-size="11" lengthAdjust="spacing" textLength="95" x="27" y="66.0151">directory : string</text><ellipse cx="18" cy="75.6094" rx="3" ry="3" style="stroke:#038048;stroke-width:1.0;fill:none;"/><text fill="#000000" font-family="sans-serif" font-size="11" lengthAdjust="spacing" textLength="97" x="27" y="78.8198">imports : string[]</text><ellipse cx="18" cy="88.4141" rx="3" ry="3" style="stroke:#038048;stroke-width:1.0;fill:none;"/><text fill="#000000" font-family="sans-serif" font-size="11" lengthAdjust="spacing" textLength="151" x="27" y="91.6245">poolConcurrency : number</text><ellipse cx="18" cy="101.2188" rx="3" ry="3" style="stroke:#038048;stroke-width:1.0;fill:none;"/><text fill="#000000" font-family="sans-serif" font-size="11" lengthAdjust="spacing" textLength="103" x="27" y="104.4292">poolSize : number</text><ellipse cx="18" cy="114.0234" rx="3" ry="3" style="stroke:#038048;stroke-width:1.0;fill:none;"/><text fill="#000000" font-family="sans-serif" font-size="11" lengthAdjust="spacing" textLength="110" x="27" y="117.2339">services : Service[]</text><ellipse cx="18" cy="126.8281" rx="3" ry="3" style="stroke:#038048;stroke-width:1.0;fill:none;"/><text fill="#000000" font-family="sans-serif" font-size="11" lengthAdjust="spacing" textLength="113" x="27" y="130.0386">typescript : boolean</text><ellipse cx="18" cy="139.6328" rx="3" ry="3" style="stroke:#038048;stroke-width:1.0;fill:none;"/><text fill="#000000" font-family="sans-serif" font-size="11" lengthAdjust="spacing" textLength="84" x="27" y="142.8433">worker : string</text><!--MD5=[e60fd3637eea70808d3203857e2cd282]
class WorkerNodeOptions--><rect codeLine="14" fill="#FEFECE" filter="url(#f12lrh8v602ybt)" height="180.8516" id="WorkerNodeOptions" style="stroke:#A80036;stroke-width:1.5;" width="177" x="7" y="209"/><ellipse cx="31.45" cy="225" fill="#B4A7E5" rx="11" ry="11" style="stroke:#A80036;stroke-width:1.0;"/><path d="M27.3719,220.7656 L27.3719,218.6094 L34.7625,218.6094 L34.7625,220.7656 L32.2938,220.7656 L32.2938,228.8438 L34.7625,228.8438 L34.7625,231 L27.3719,231 L27.3719,228.8438 L29.8406,228.8438 L29.8406,220.7656 L27.3719,220.7656 Z " fill="#000000"/><text fill="#000000" font-family="sans-serif" font-size="12" font-style="italic" lengthAdjust="spacing" textLength="124" x="47.55" y="229.1543">WorkerNodeOptions</text><line style="stroke:#A80036;stroke-width:1.5;" x1="8" x2="183" y1="241" y2="241"/><ellipse cx="18" cy="252" rx="3" ry="3" style="stroke:#038048;stroke-width:1.0;fill:none;"/><text fill="#000000" font-family="sans-serif" font-size="11" lengthAdjust="spacing" textLength="58" x="27" y="255.2104">args : any</text><ellipse cx="18" cy="264.8047" rx="3" ry="3" style="stroke:#038048;stroke-width:1.0;fill:none;"/><text fill="#000000" font-family="sans-serif" font-size="11" lengthAdjust="spacing" textLength="95" x="27" y="268.0151">directory : string</text><ellipse cx="18" cy="277.6094" rx="3" ry="3" style="stroke:#038048;stroke-width:1.0;fill:none;"/><text fill="#000000" font-family="sans-serif" font-size="11" lengthAdjust="spacing" textLength="97" x="27" y="280.8198">imports : string[]</text><ellipse cx="18" cy="290.4141" rx="3" ry="3" style="stroke:#038048;stroke-width:1.0;fill:none;"/><text fill="#000000" font-family="sans-serif" font-size="11" lengthAdjust="spacing" textLength="77" x="27" y="293.6245">name : string</text><ellipse cx="18" cy="303.2188" rx="3" ry="3" style="stroke:#038048;stroke-width:1.0;fill:none;"/><text fill="#000000" font-family="sans-serif" font-size="11" lengthAdjust="spacing" textLength="131" x="27" y="306.4292">optimizedPull : boolean</text><ellipse cx="18" cy="316.0234" rx="3" ry="3" style="stroke:#038048;stroke-width:1.0;fill:none;"/><text fill="#000000" font-family="sans-serif" font-size="11" lengthAdjust="spacing" textLength="151" x="27" y="319.2339">poolConcurrency : number</text><ellipse cx="18" cy="328.8281" rx="3" ry="3" style="stroke:#038048;stroke-width:1.0;fill:none;"/><text fill="#000000" font-family="sans-serif" font-size="11" lengthAdjust="spacing" textLength="103" x="27" y="332.0386">poolSize : number</text><ellipse cx="18" cy="341.6328" rx="3" ry="3" style="stroke:#038048;stroke-width:1.0;fill:none;"/><text fill="#000000" font-family="sans-serif" font-size="11" lengthAdjust="spacing" textLength="110" x="27" y="344.8433">services : Service[]</text><ellipse cx="18" cy="354.4375" rx="3" ry="3" style="stroke:#038048;stroke-width:1.0;fill:none;"/><text fill="#000000" font-family="sans-serif" font-size="11" lengthAdjust="spacing" textLength="113" x="27" y="357.6479">typescript : boolean</text><ellipse cx="18" cy="367.2422" rx="3" ry="3" style="stroke:#038048;stroke-width:1.0;fill:none;"/><text fill="#000000" font-family="sans-serif" font-size="11" lengthAdjust="spacing" textLength="62" x="27" y="370.4526">uid : string</text><ellipse cx="18" cy="380.0469" rx="3" ry="3" style="stroke:#038048;stroke-width:1.0;fill:none;"/><text fill="#000000" font-family="sans-serif" font-size="11" lengthAdjust="spacing" textLength="84" x="27" y="383.2573">worker : string</text><!--MD5=[7e2d0b2c1b24b4233262d0e0f29bbab2]
reverse link WorkerOptions to WorkerNodeOptions--><path codeLine="27" d="M95.5,169.13 C95.5,182.17 95.5,195.6 95.5,208.64 " fill="none" id="WorkerOptions-backto-WorkerNodeOptions" style="stroke:#A80036;stroke-width:1.0;"/><polygon fill="none" points="88.5,169.05,95.5,149.05,102.5,169.05,88.5,169.05" style="stroke:#A80036;stroke-width:1.0;"/><!--MD5=[5ff84049ec36dc2e1330846c9484f978]
@startuml
skinparam BackgroundColor transparent
hide empty methods
hide empty fields
interface "WorkerOptions" {
    +args : any
    +directory : string
    +imports : string[]
    +poolConcurrency : number
    +poolSize : number
    +services : Service[]
    +typescript : boolean
    +worker : string
}
interface "WorkerNodeOptions" {
    +args : any
    +directory : string
    +imports : string[]
    +name : string
    +optimizedPull : boolean
    +poolConcurrency : number
    +poolSize : number
    +services : Service[]
    +typescript : boolean
    +uid : string
    +worker : string
}
"WorkerOptions" <|- - "WorkerNodeOptions"
@enduml

PlantUML version 1.2021.14(Fri Nov 12 16:46:50 UTC 2021)
(GPL source distribution)
Java Runtime: OpenJDK Runtime Environment
JVM: OpenJDK 64-Bit Server VM
Default Encoding: UTF-8
Language: en
Country: null
--></g></svg>