<?xml version="1.0" encoding="us-ascii" standalone="no"?><svg xmlns="http://www.w3.org/2000/svg" xmlns:xlink="http://www.w3.org/1999/xlink" contentStyleType="text/css" height="132px" preserveAspectRatio="none" style="width:149px;height:132px;" version="1.1" viewBox="0 0 149 132" width="149px" zoomAndPan="magnify"><defs/><g><!--class WorkerHandler--><g id="elem_WorkerHandler"><rect codeLine="4" fill="#F1F1F1" height="32" id="WorkerHandler" rx="2.5" ry="2.5" style="stroke:#181818;stroke-width:0.5;" width="134" x="7.5" y="93"/><ellipse cx="22.5" cy="109" fill="#ADD1B2" rx="11" ry="11" style="stroke:#181818;stroke-width:1.0;"/><path d="M25.4688,114.6406 Q24.8906,114.9375 24.25,115.0781 Q23.6094,115.2344 22.9063,115.2344 Q20.4063,115.2344 19.0781,113.5938 Q17.7656,111.9375 17.7656,108.8125 Q17.7656,105.6875 19.0781,104.0313 Q20.4063,102.375 22.9063,102.375 Q23.6094,102.375 24.25,102.5313 Q24.9063,102.6875 25.4688,102.9844 L25.4688,105.7031 Q24.8438,105.125 24.25,104.8594 Q23.6563,104.5781 23.0313,104.5781 Q21.6875,104.5781 21,105.6563 Q20.3125,106.7188 20.3125,108.8125 Q20.3125,110.9063 21,111.9844 Q21.6875,113.0469 23.0313,113.0469 Q23.6563,113.0469 24.25,112.7813 Q24.8438,112.5 25.4688,111.9219 L25.4688,114.6406 Z " fill="#000000"/><text fill="#000000" font-family="sans-serif" font-size="14" lengthAdjust="spacing" textLength="102" x="36.5" y="113.8467">WorkerHandler</text></g><!--class AsyncEventEmitter--><g id="elem_AsyncEventEmitter"><rect codeLine="6" fill="#F1F1F1" height="26.2969" id="AsyncEventEmitter" rx="2.5" ry="2.5" style="stroke:#181818;stroke-width:0.5;" width="135" x="7" y="7"/><text fill="#000000" font-family="sans-serif" font-size="14" lengthAdjust="spacing" textLength="129" x="10" y="24.9951">AsyncEventEmitter</text></g><!--reverse link AsyncEventEmitter to WorkerHandler--><g id="link_AsyncEventEmitter_WorkerHandler"><path codeLine="8" d="M74.5,51.1 C74.5,66.69 74.5,75.82 74.5,92.79 " fill="none" id="AsyncEventEmitter-backto-WorkerHandler" style="stroke:#181818;stroke-width:1.0;"/><polygon fill="none" points="74.5,33.1,68.5,51.1,80.5,51.1,74.5,33.1" style="stroke:#181818;stroke-width:1.0;"/></g><!--SRC=[RSr12W8n38NXVKyHPZytSACou0rSXpOweMqw954OrBjR445ajly7xrbcML2nmW5ZlcgxIJgsqXHSKQmJYOUP4m7LnLUev7DBzfikJAMNMD0CXdFJJ7f2IOLqW4TuVMLlgyJftWUdokvTFoiR094r5WfRj7kEu__D6m00]--></g></svg>