<?xml version="1.0" encoding="UTF-8" standalone="no"?><svg xmlns="http://www.w3.org/2000/svg" xmlns:xlink="http://www.w3.org/1999/xlink" contentScriptType="application/ecmascript" contentStyleType="text/css" height="145px" preserveAspectRatio="none" style="width:290px;height:145px;background:#00000000;" version="1.1" viewBox="0 0 290 145" width="290px" zoomAndPan="magnify"><defs><filter height="300%" id="f1cppxkti5og0k" width="300%" x="-1" y="-1"><feGaussianBlur result="blurOut" stdDeviation="2.0"/><feColorMatrix in="blurOut" result="blurOut2" type="matrix" values="0 0 0 0 0 0 0 0 0 0 0 0 0 0 0 0 0 0 .4 0"/><feOffset dx="4.0" dy="4.0" in="blurOut2" result="blurOut3"/><feBlend in="SourceGraphic" in2="blurOut3" mode="normal"/></filter></defs><g><!--MD5=[e60fd3637eea70808d3203857e2cd282]
class WorkerNodeOptions--><rect codeLine="4" fill="#FEFECE" filter="url(#f1cppxkti5og0k)" height="32" id="WorkerNodeOptions" style="stroke:#A80036;stroke-width:1.5;" width="156" x="60.5" y="99"/><ellipse cx="75.5" cy="115" fill="#B4A7E5" rx="11" ry="11" style="stroke:#A80036;stroke-width:1.0;"/><path d="M71.4219,110.7656 L71.4219,108.6094 L78.8125,108.6094 L78.8125,110.7656 L76.3438,110.7656 L76.3438,118.8438 L78.8125,118.8438 L78.8125,121 L71.4219,121 L71.4219,118.8438 L73.8906,118.8438 L73.8906,110.7656 L71.4219,110.7656 Z " fill="#000000"/><text fill="#000000" font-family="sans-serif" font-size="12" font-style="italic" lengthAdjust="spacing" textLength="124" x="89.5" y="119.1543">WorkerNodeOptions</text><!--MD5=[680d5112d2c67c3de15744b0ad7e4a6c]
class NodeOptions--><rect codeLine="6" fill="#FEFECE" filter="url(#f1cppxkti5og0k)" height="32" id="NodeOptions" style="stroke:#A80036;stroke-width:1.5;" width="111" x="7" y="7"/><ellipse cx="22" cy="23" fill="#B4A7E5" rx="11" ry="11" style="stroke:#A80036;stroke-width:1.0;"/><path d="M17.9219,18.7656 L17.9219,16.6094 L25.3125,16.6094 L25.3125,18.7656 L22.8438,18.7656 L22.8438,26.8438 L25.3125,26.8438 L25.3125,29 L17.9219,29 L17.9219,26.8438 L20.3906,26.8438 L20.3906,18.7656 L17.9219,18.7656 Z " fill="#000000"/><text fill="#000000" font-family="sans-serif" font-size="12" font-style="italic" lengthAdjust="spacing" textLength="79" x="36" y="27.1543">NodeOptions</text><!--MD5=[761c7fce61c8151cb3de670b8140fc44]
class WorkerOptions--><rect codeLine="9" fill="#FEFECE" filter="url(#f1cppxkti5og0k)" height="32" id="WorkerOptions" style="stroke:#A80036;stroke-width:1.5;" width="123" x="153" y="7"/><ellipse cx="168" cy="23" fill="#B4A7E5" rx="11" ry="11" style="stroke:#A80036;stroke-width:1.0;"/><path d="M163.9219,18.7656 L163.9219,16.6094 L171.3125,16.6094 L171.3125,18.7656 L168.8438,18.7656 L168.8438,26.8438 L171.3125,26.8438 L171.3125,29 L163.9219,29 L163.9219,26.8438 L166.3906,26.8438 L166.3906,18.7656 L163.9219,18.7656 Z " fill="#000000"/><text fill="#000000" font-family="sans-serif" font-size="12" font-style="italic" lengthAdjust="spacing" textLength="91" x="182" y="27.1543">WorkerOptions</text><!--MD5=[48c0d8a6b2c3f0f54862db08996383d2]
reverse link NodeOptions to WorkerNodeOptions--><path codeLine="8" d="M88.45,54.73 C101.05,69.66 115.64,86.93 125.8,98.96 " fill="none" id="NodeOptions-backto-WorkerNodeOptions" style="stroke:#A80036;stroke-width:1.0;"/><polygon fill="none" points="82.95,59.06,75.39,39.27,93.64,50.03,82.95,59.06" style="stroke:#A80036;stroke-width:1.0;"/><!--MD5=[7e2d0b2c1b24b4233262d0e0f29bbab2]
reverse link WorkerOptions to WorkerNodeOptions--><path codeLine="11" d="M188.55,54.73 C175.95,69.66 161.36,86.93 151.2,98.96 " fill="none" id="WorkerOptions-backto-WorkerNodeOptions" style="stroke:#A80036;stroke-width:1.0;"/><polygon fill="none" points="183.36,50.03,201.61,39.27,194.05,59.06,183.36,50.03" style="stroke:#A80036;stroke-width:1.0;"/><!--MD5=[68ece124fb0d80573c6151cd45792b22]
@startuml
skinparam BackgroundColor transparent
hide empty methods
hide empty fields
interface "WorkerNodeOptions" {
}
interface "NodeOptions" {
}
"NodeOptions" <|- - "WorkerNodeOptions"
interface "WorkerOptions" {
}
"WorkerOptions" <|- - "WorkerNodeOptions"
@enduml

PlantUML version 1.2021.14(Fri Nov 12 16:46:50 UTC 2021)
(GPL source distribution)
Java Runtime: OpenJDK Runtime Environment
JVM: OpenJDK 64-Bit Server VM
Default Encoding: UTF-8
Language: en
Country: null
--></g></svg>