<?xml version="1.0" encoding="us-ascii" standalone="no"?><svg xmlns="http://www.w3.org/2000/svg" xmlns:xlink="http://www.w3.org/1999/xlink" contentStyleType="text/css" height="138px" preserveAspectRatio="none" style="width:201px;height:138px;" version="1.1" viewBox="0 0 201 138" width="201px" zoomAndPan="magnify"><defs/><g><!--class WorkerNode<In, Out>--><g id="elem_WorkerNode&lt;In, Out&gt;"><rect codeLine="4" fill="#F1F1F1" height="32" id="WorkerNode&lt;In, Out&gt;" rx="2.5" ry="2.5" style="stroke:#181818;stroke-width:0.5;" width="187" x="7" y="99"/><ellipse cx="22" cy="115" fill="#ADD1B2" rx="11" ry="11" style="stroke:#181818;stroke-width:1.0;"/><path d="M24.9688,120.6406 Q24.3906,120.9375 23.75,121.0781 Q23.1094,121.2344 22.4063,121.2344 Q19.9063,121.2344 18.5781,119.5938 Q17.2656,117.9375 17.2656,114.8125 Q17.2656,111.6875 18.5781,110.0313 Q19.9063,108.375 22.4063,108.375 Q23.1094,108.375 23.75,108.5313 Q24.4063,108.6875 24.9688,108.9844 L24.9688,111.7031 Q24.3438,111.125 23.75,110.8594 Q23.1563,110.5781 22.5313,110.5781 Q21.1875,110.5781 20.5,111.6563 Q19.8125,112.7188 19.8125,114.8125 Q19.8125,116.9063 20.5,117.9844 Q21.1875,119.0469 22.5313,119.0469 Q23.1563,119.0469 23.75,118.7813 Q24.3438,118.5 24.9688,117.9219 L24.9688,120.6406 Z " fill="#000000"/><text fill="#000000" font-family="sans-serif" font-size="14" lengthAdjust="spacing" textLength="155" x="36" y="119.8467">WorkerNode&lt;In, Out&gt;</text></g><!--class Node<In, Out>--><g id="elem_Node&lt;In, Out&gt;"><rect codeLine="6" fill="#F1F1F1" height="32" id="Node&lt;In, Out&gt;" rx="2.5" ry="2.5" style="stroke:#181818;stroke-width:0.5;" width="138" x="31.5" y="7"/><ellipse cx="46.5" cy="23" fill="#ADD1B2" rx="11" ry="11" style="stroke:#181818;stroke-width:1.0;"/><path d="M49.4688,28.6406 Q48.8906,28.9375 48.25,29.0781 Q47.6094,29.2344 46.9063,29.2344 Q44.4063,29.2344 43.0781,27.5938 Q41.7656,25.9375 41.7656,22.8125 Q41.7656,19.6875 43.0781,18.0313 Q44.4063,16.375 46.9063,16.375 Q47.6094,16.375 48.25,16.5313 Q48.9063,16.6875 49.4688,16.9844 L49.4688,19.7031 Q48.8438,19.125 48.25,18.8594 Q47.6563,18.5781 47.0313,18.5781 Q45.6875,18.5781 45,19.6563 Q44.3125,20.7188 44.3125,22.8125 Q44.3125,24.9063 45,25.9844 Q45.6875,27.0469 47.0313,27.0469 Q47.6563,27.0469 48.25,26.7813 Q48.8438,26.5 49.4688,25.9219 L49.4688,28.6406 Z " fill="#000000"/><text fill="#000000" font-family="sans-serif" font-size="14" lengthAdjust="spacing" textLength="106" x="60.5" y="27.8467">Node&lt;In, Out&gt;</text></g><!--reverse link Node<In, Out> to WorkerNode<In, Out>--><g id="link_Node&lt;In, Out&gt;_WorkerNode&lt;In, Out&gt;"><path codeLine="8" d="M100.5,59.61 C100.5,73.31 100.5,88.22 100.5,98.96 " fill="none" id="Node&lt;In, Out&gt;-backto-WorkerNode&lt;In, Out&gt;" style="stroke:#181818;stroke-width:1.0;"/><polygon fill="none" points="93.5,59.27,100.5,39.27,107.5,59.27,93.5,59.27" style="stroke:#181818;stroke-width:1.0;"/></g><!--SRC=[AyxEp2j8B4hCLN1AJCvEByelpKjnpi_9Br8eAKhCAmPAfUQLS6LafgGgfEOMb5GgvAQMPEId52CBfMMcvW15adCIYuiLbCBpYx9JY_poKr9jFFDq5FnBI-oK5AgvQc7oM6JGnMngT7Mn6mG0]--></g></svg>