<?xml version="1.0" encoding="UTF-8" standalone="no"?><svg xmlns="http://www.w3.org/2000/svg" xmlns:xlink="http://www.w3.org/1999/xlink" contentScriptType="application/ecmascript" contentStyleType="text/css" height="145px" preserveAspectRatio="none" style="width:177px;height:145px;background:#00000000;" version="1.1" viewBox="0 0 177 145" width="177px" zoomAndPan="magnify"><defs><filter height="300%" id="fmrjl4xdzmrf4" width="300%" x="-1" y="-1"><feGaussianBlur result="blurOut" stdDeviation="2.0"/><feColorMatrix in="blurOut" result="blurOut2" type="matrix" values="0 0 0 0 0 0 0 0 0 0 0 0 0 0 0 0 0 0 .4 0"/><feOffset dx="4.0" dy="4.0" in="blurOut2" result="blurOut3"/><feBlend in="SourceGraphic" in2="blurOut3" mode="normal"/></filter></defs><g><!--MD5=[761c7fce61c8151cb3de670b8140fc44]
class WorkerOptions--><rect codeLine="4" fill="#FEFECE" filter="url(#fmrjl4xdzmrf4)" height="32" id="WorkerOptions" style="stroke:#A80036;stroke-width:1.5;" width="123" x="23.5" y="7"/><ellipse cx="38.5" cy="23" fill="#B4A7E5" rx="11" ry="11" style="stroke:#A80036;stroke-width:1.0;"/><path d="M34.4219,18.7656 L34.4219,16.6094 L41.8125,16.6094 L41.8125,18.7656 L39.3438,18.7656 L39.3438,26.8438 L41.8125,26.8438 L41.8125,29 L34.4219,29 L34.4219,26.8438 L36.8906,26.8438 L36.8906,18.7656 L34.4219,18.7656 Z " fill="#000000"/><text fill="#000000" font-family="sans-serif" font-size="12" font-style="italic" lengthAdjust="spacing" textLength="91" x="52.5" y="27.1543">WorkerOptions</text><!--MD5=[e60fd3637eea70808d3203857e2cd282]
class WorkerNodeOptions--><rect codeLine="6" fill="#FEFECE" filter="url(#fmrjl4xdzmrf4)" height="32" id="WorkerNodeOptions" style="stroke:#A80036;stroke-width:1.5;" width="156" x="7" y="99"/><ellipse cx="22" cy="115" fill="#B4A7E5" rx="11" ry="11" style="stroke:#A80036;stroke-width:1.0;"/><path d="M17.9219,110.7656 L17.9219,108.6094 L25.3125,108.6094 L25.3125,110.7656 L22.8438,110.7656 L22.8438,118.8438 L25.3125,118.8438 L25.3125,121 L17.9219,121 L17.9219,118.8438 L20.3906,118.8438 L20.3906,110.7656 L17.9219,110.7656 Z " fill="#000000"/><text fill="#000000" font-family="sans-serif" font-size="12" font-style="italic" lengthAdjust="spacing" textLength="124" x="36" y="119.1543">WorkerNodeOptions</text><!--MD5=[7e2d0b2c1b24b4233262d0e0f29bbab2]
reverse link WorkerOptions to WorkerNodeOptions--><path codeLine="8" d="M85,59.61 C85,73.31 85,88.22 85,98.96 " fill="none" id="WorkerOptions-backto-WorkerNodeOptions" style="stroke:#A80036;stroke-width:1.0;"/><polygon fill="none" points="78,59.27,85,39.27,92,59.27,78,59.27" style="stroke:#A80036;stroke-width:1.0;"/><!--MD5=[ff889ad263a3591af23835cc2571e502]
@startuml
skinparam BackgroundColor transparent
hide empty methods
hide empty fields
interface "WorkerOptions" {
}
interface "WorkerNodeOptions" {
}
"WorkerOptions" <|- - "WorkerNodeOptions"
@enduml

PlantUML version 1.2021.14(Fri Nov 12 16:46:50 UTC 2021)
(GPL source distribution)
Java Runtime: OpenJDK Runtime Environment
JVM: OpenJDK 64-Bit Server VM
Default Encoding: UTF-8
Language: en
Country: null
--></g></svg>