<?xml version="1.0" encoding="UTF-8" standalone="no"?><svg xmlns="http://www.w3.org/2000/svg" xmlns:xlink="http://www.w3.org/1999/xlink" contentScriptType="application/ecmascript" contentStyleType="text/css" height="137px" preserveAspectRatio="none" style="width:175px;height:137px;background:#00000000;" version="1.1" viewBox="0 0 175 137" width="175px" zoomAndPan="magnify"><defs><filter height="300%" id="fmpu0zi8x2owg" width="300%" x="-1" y="-1"><feGaussianBlur result="blurOut" stdDeviation="2.0"/><feColorMatrix in="blurOut" result="blurOut2" type="matrix" values="0 0 0 0 0 0 0 0 0 0 0 0 0 0 0 0 0 0 .4 0"/><feOffset dx="4.0" dy="4.0" in="blurOut2" result="blurOut3"/><feBlend in="SourceGraphic" in2="blurOut3" mode="normal"/></filter></defs><g><!--MD5=[a47e3765ace990757e737b1ba6008e1f]
class WorkerServiceProxy--><rect codeLine="4" fill="#FEFECE" filter="url(#fmpu0zi8x2owg)" height="32" id="WorkerServiceProxy" style="stroke:#A80036;stroke-width:1.5;" width="154" x="7" y="91"/><ellipse cx="22" cy="107" fill="#ADD1B2" rx="11" ry="11" style="stroke:#A80036;stroke-width:1.0;"/><path d="M24.9688,112.6406 Q24.3906,112.9375 23.75,113.0781 Q23.1094,113.2344 22.4063,113.2344 Q19.9063,113.2344 18.5781,111.5938 Q17.2656,109.9375 17.2656,106.8125 Q17.2656,103.6875 18.5781,102.0313 Q19.9063,100.375 22.4063,100.375 Q23.1094,100.375 23.75,100.5313 Q24.4063,100.6875 24.9688,100.9844 L24.9688,103.7031 Q24.3438,103.125 23.75,102.8594 Q23.1563,102.5781 22.5313,102.5781 Q21.1875,102.5781 20.5,103.6563 Q19.8125,104.7188 19.8125,106.8125 Q19.8125,108.9063 20.5,109.9844 Q21.1875,111.0469 22.5313,111.0469 Q23.1563,111.0469 23.75,110.7813 Q24.3438,110.5 24.9688,109.9219 L24.9688,112.6406 Z " fill="#000000"/><text fill="#000000" font-family="sans-serif" font-size="12" lengthAdjust="spacing" textLength="122" x="36" y="111.1543">WorkerServiceProxy</text><!--MD5=[31a3c991010dd00f2cf6b01764a23a35]
class ServiceProxy<Service>--><rect codeLine="6" fill="#FEFECE" filter="url(#fmpu0zi8x2owg)" height="23.9688" id="ServiceProxy&lt;Service&gt;" style="stroke:#A80036;stroke-width:1.5;" width="149" x="9.5" y="7"/><text fill="#000000" font-family="sans-serif" font-size="12" lengthAdjust="spacing" textLength="143" x="12.5" y="23.1387">ServiceProxy&lt;Service&gt;</text><!--MD5=[d600504eaa9eca0c96b9f853244cbf19]
reverse link ServiceProxy<Service> to WorkerServiceProxy--><path codeLine="8" d="M84,51.39 C84,64.91 84,80.08 84,91 " fill="none" id="ServiceProxy&lt;Service&gt;-backto-WorkerServiceProxy" style="stroke:#A80036;stroke-width:1.0;"/><polygon fill="none" points="77,51.24,84,31.24,91,51.24,77,51.24" style="stroke:#A80036;stroke-width:1.0;"/><!--MD5=[a37f25d805d0a3bc5a0a2fe816ac4c14]
@startuml
skinparam BackgroundColor transparent
hide empty methods
hide empty fields
class "WorkerServiceProxy" {
}
class "ServiceProxy<Service>"
hide "ServiceProxy<Service>" circle
"ServiceProxy<Service>" <|- - "WorkerServiceProxy"
@enduml

PlantUML version 1.2021.14(Fri Nov 12 16:46:50 UTC 2021)
(GPL source distribution)
Java Runtime: OpenJDK Runtime Environment
JVM: OpenJDK 64-Bit Server VM
Default Encoding: UTF-8
Language: en
Country: null
--></g></svg>