<?xml version="1.0" encoding="us-ascii" standalone="no"?><svg xmlns="http://www.w3.org/2000/svg" xmlns:xlink="http://www.w3.org/1999/xlink" contentStyleType="text/css" height="138px" preserveAspectRatio="none" style="width:307px;height:138px;" version="1.1" viewBox="0 0 307 138" width="307px" zoomAndPan="magnify"><defs/><g><!--class WorkerNodeOptions--><g id="elem_WorkerNodeOptions"><rect codeLine="4" fill="#F1F1F1" height="32" id="WorkerNodeOptions" rx="2.5" ry="2.5" style="stroke:#181818;stroke-width:0.5;" width="173" x="64" y="99"/><ellipse cx="79" cy="115" fill="#B4A7E5" rx="11" ry="11" style="stroke:#181818;stroke-width:1.0;"/><path d="M74.9219,110.7656 L74.9219,108.6094 L82.3125,108.6094 L82.3125,110.7656 L79.8438,110.7656 L79.8438,118.8438 L82.3125,118.8438 L82.3125,121 L74.9219,121 L74.9219,118.8438 L77.3906,118.8438 L77.3906,110.7656 L74.9219,110.7656 Z " fill="#000000"/><text fill="#000000" font-family="sans-serif" font-size="14" font-style="italic" lengthAdjust="spacing" textLength="141" x="93" y="119.8467">WorkerNodeOptions</text></g><!--class NodeOptions--><g id="elem_NodeOptions"><rect codeLine="6" fill="#F1F1F1" height="32" id="NodeOptions" rx="2.5" ry="2.5" style="stroke:#181818;stroke-width:0.5;" width="123" x="7" y="7"/><ellipse cx="22" cy="23" fill="#B4A7E5" rx="11" ry="11" style="stroke:#181818;stroke-width:1.0;"/><path d="M17.9219,18.7656 L17.9219,16.6094 L25.3125,16.6094 L25.3125,18.7656 L22.8438,18.7656 L22.8438,26.8438 L25.3125,26.8438 L25.3125,29 L17.9219,29 L17.9219,26.8438 L20.3906,26.8438 L20.3906,18.7656 L17.9219,18.7656 Z " fill="#000000"/><text fill="#000000" font-family="sans-serif" font-size="14" font-style="italic" lengthAdjust="spacing" textLength="91" x="36" y="27.8467">NodeOptions</text></g><!--class WorkerOptions--><g id="elem_WorkerOptions"><rect codeLine="9" fill="#F1F1F1" height="32" id="WorkerOptions" rx="2.5" ry="2.5" style="stroke:#181818;stroke-width:0.5;" width="135" x="165" y="7"/><ellipse cx="180" cy="23" fill="#B4A7E5" rx="11" ry="11" style="stroke:#181818;stroke-width:1.0;"/><path d="M175.9219,18.7656 L175.9219,16.6094 L183.3125,16.6094 L183.3125,18.7656 L180.8438,18.7656 L180.8438,26.8438 L183.3125,26.8438 L183.3125,29 L175.9219,29 L175.9219,26.8438 L178.3906,26.8438 L178.3906,18.7656 L175.9219,18.7656 Z " fill="#000000"/><text fill="#000000" font-family="sans-serif" font-size="14" font-style="italic" lengthAdjust="spacing" textLength="103" x="194" y="27.8467">WorkerOptions</text></g><!--reverse link NodeOptions to WorkerNodeOptions--><g id="link_NodeOptions_WorkerNodeOptions"><path codeLine="8" d="M96.06,54.25 C109.76,69.29 125.71,86.8 136.8,98.96 " fill="none" id="NodeOptions-backto-WorkerNodeOptions" style="stroke:#181818;stroke-width:1.0;"/><polygon fill="none" points="90.71,58.77,82.41,39.27,101.05,49.34,90.71,58.77" style="stroke:#181818;stroke-width:1.0;"/></g><!--reverse link WorkerOptions to WorkerNodeOptions--><g id="link_WorkerOptions_WorkerNodeOptions"><path codeLine="11" d="M204.94,54.25 C191.24,69.29 175.29,86.8 164.2,98.96 " fill="none" id="WorkerOptions-backto-WorkerNodeOptions" style="stroke:#181818;stroke-width:1.0;"/><polygon fill="none" points="199.95,49.34,218.59,39.27,210.29,58.77,199.95,49.34" style="stroke:#181818;stroke-width:1.0;"/></g><!--SRC=[TOqn3eD030HxNc7HyuDKeITbQeipO1rddtnE4GN-3YM4f9rPpPR8aj4mmHtxE9g-9BGwgu4RIjaLYLSJ1m9AsT-Go2SDvOW6fdadB4usO4zGFzKYMQU17jbPfTJmgTRZukBEvBOqpQ_CzUGS-MB_CXi0]--></g></svg>