<?xml version="1.0" encoding="us-ascii" standalone="no"?><svg xmlns="http://www.w3.org/2000/svg" xmlns:xlink="http://www.w3.org/1999/xlink" contentStyleType="text/css" height="138px" preserveAspectRatio="none" style="width:187px;height:138px;" version="1.1" viewBox="0 0 187 138" width="187px" zoomAndPan="magnify"><defs/><g><!--class WorkerOptions--><g id="elem_WorkerOptions"><rect codeLine="4" fill="#F1F1F1" height="32" id="WorkerOptions" rx="2.5" ry="2.5" style="stroke:#181818;stroke-width:0.5;" width="135" x="26" y="7"/><ellipse cx="41" cy="23" fill="#B4A7E5" rx="11" ry="11" style="stroke:#181818;stroke-width:1.0;"/><path d="M36.9219,18.7656 L36.9219,16.6094 L44.3125,16.6094 L44.3125,18.7656 L41.8438,18.7656 L41.8438,26.8438 L44.3125,26.8438 L44.3125,29 L36.9219,29 L36.9219,26.8438 L39.3906,26.8438 L39.3906,18.7656 L36.9219,18.7656 Z " fill="#000000"/><text fill="#000000" font-family="sans-serif" font-size="14" font-style="italic" lengthAdjust="spacing" textLength="103" x="55" y="27.8467">WorkerOptions</text></g><!--class WorkerNodeOptions--><g id="elem_WorkerNodeOptions"><rect codeLine="6" fill="#F1F1F1" height="32" id="WorkerNodeOptions" rx="2.5" ry="2.5" style="stroke:#181818;stroke-width:0.5;" width="173" x="7" y="99"/><ellipse cx="22" cy="115" fill="#B4A7E5" rx="11" ry="11" style="stroke:#181818;stroke-width:1.0;"/><path d="M17.9219,110.7656 L17.9219,108.6094 L25.3125,108.6094 L25.3125,110.7656 L22.8438,110.7656 L22.8438,118.8438 L25.3125,118.8438 L25.3125,121 L17.9219,121 L17.9219,118.8438 L20.3906,118.8438 L20.3906,110.7656 L17.9219,110.7656 Z " fill="#000000"/><text fill="#000000" font-family="sans-serif" font-size="14" font-style="italic" lengthAdjust="spacing" textLength="141" x="36" y="119.8467">WorkerNodeOptions</text></g><!--reverse link WorkerOptions to WorkerNodeOptions--><g id="link_WorkerOptions_WorkerNodeOptions"><path codeLine="8" d="M93.5,59.61 C93.5,73.31 93.5,88.22 93.5,98.96 " fill="none" id="WorkerOptions-backto-WorkerNodeOptions" style="stroke:#181818;stroke-width:1.0;"/><polygon fill="none" points="86.5,59.27,93.5,39.27,100.5,59.27,86.5,59.27" style="stroke:#181818;stroke-width:1.0;"/></g><!--SRC=[ROix3i8m38RtdiBgtXimmLv6PglvIwqqTkIO0G5tfoCKrk_HicXbvq97dlBLxQRfPAivXREsJK6ZMoI1K6hSgI0MI-qJpO9r8w81dta2zHVp33_N4DFMqwDx_ThH4hwA_NLu3iE_-0q0]--></g></svg>